<svg width="24" height="24" viewBox="0 0 24 24" fill="none" xmlns="http://www.w3.org/2000/svg">
<path d="M14.8824 2.41667C14.8824 2.41667 14.0588 2 12.4118 2C10.7647 2 9.94118 2 9.11765 2.41667C9.11765 3.66667 9.94118 4.5 9.94118 4.5V8.25C6.64706 9.08333 5 9.91667 5 12.4167V19.5C5 19.9167 5.82353 19.9167 5.82353 20.3333C5.82353 20.75 7.14118 22 12.4118 22C17.6824 22 18.1765 20.75 18.1765 20.3333C18.1765 19.9167 19 19.9167 19 19.5V12.4167C19 9.91667 17.3529 9.08333 14.0588 8.25V4.5C14.0588 4.5 14.8824 3.66667 14.8824 2.41667Z" stroke="#313131" stroke-width="2" stroke-linejoin="round"/>
<path fill-rule="evenodd" clip-rule="evenodd" d="M15.6863 12.8335H19V14.5002H15.9447C15.6272 15.919 13.9819 17.0001 12 17.0001C10.0181 17.0001 8.37278 15.919 8.05533 14.5002H5V12.8335H8.31367C8.92053 11.7561 10.3425 11.0001 12 11.0001C13.6575 11.0001 15.0795 11.7561 15.6863 12.8335Z" fill="#313131"/>
</svg>
