<svg width="138" height="132" viewBox="0 0 138 132" fill="none" xmlns="http://www.w3.org/2000/svg">
<path d="M69.0652 126.234C103.964 126.234 132.272 99.2953 132.272 66.0432C132.272 32.8099 103.983 5.85223 69.0652 5.85223C34.147 5.85223 5.8584 32.8099 5.8584 66.0432C5.8584 99.2766 34.1667 126.234 69.0652 126.234Z" fill="#F1F1F1"/>
<path d="M69.0651 102.761C90.3701 102.761 107.623 86.313 107.623 66.0433C107.623 45.7736 90.3504 29.3255 69.0651 29.3255C47.7798 29.3255 30.5076 45.7736 30.5076 66.0433C30.5076 86.313 47.7601 102.761 69.0651 102.761Z" fill="#00263E"/>
<path d="M23.9568 66.0433H12.1929C12.1929 95.9608 37.6684 120.202 69.0652 120.202C100.482 120.202 125.938 95.9608 125.938 66.0433H114.174C114.174 89.7787 93.9702 108.999 69.0652 108.999C44.1405 108.999 23.9568 89.7787 23.9568 66.0433Z" fill="#00263E"/>
<path d="M120.724 54.3159L118.619 55.3463L118.246 53.8101L120.606 53.8476C121.059 53.8476 121.59 53.8288 122.042 53.7914C121.61 53.9412 121.118 54.1286 120.724 54.3159ZM123.242 49.4264L120.764 49.9885L121.039 51.0937L114.252 50.5879L114.016 49.6138L111.537 50.1758L112.816 55.3275L115.295 54.7655L115.019 53.6977H115.649L116.377 56.5827L115.806 56.8637L115.59 55.9645L113.111 56.5265L114.39 61.6782L116.869 61.1162L116.633 60.1421L122.456 56.8262L122.731 57.9315L125.21 57.3695L123.242 49.4264ZM117.931 38.2987L115.649 39.3852L116.16 40.3594L110.396 43.1507L109.885 42.1765L107.623 43.2631L110.141 48.0027L112.403 46.9161L111.892 45.942L117.675 43.1694L118.187 44.1436L120.449 43.057L117.931 38.2987ZM107.111 25.41L105.203 27.0024L105.97 27.8266L101.092 31.9106L100.324 31.0863L98.4161 32.6786L102.095 36.6689L104.003 35.0765L103.236 34.2522L104.534 33.1657L105.419 34.1211C106.285 35.0578 105.951 35.7884 105.223 36.4066L104.455 35.5823L102.547 37.1747L106.069 40.9963L107.977 39.404L107.367 38.7483C108.665 37.6618 108.783 36.2005 107.76 34.8517C109.078 36.0694 110.495 36.1818 111.793 35.0953C113.151 33.9525 113.426 32.2852 111.734 30.4493L107.111 25.41ZM106.423 31.5733L108.115 30.1683L109.216 31.3673C109.846 32.0417 109.806 32.4913 109.216 32.9784C108.626 33.4654 108.134 33.4654 107.524 32.791L106.423 31.5733ZM93.0653 16.7551L91.7472 18.8345L92.7308 19.3965L89.4062 24.6794L88.4226 24.1174L87.1046 26.1968L95.544 31.0113L97.4718 27.939L94.6784 26.3467L94.0489 27.3396L92.18 26.2717L93.3013 24.4921L96.4882 26.3092L97.7669 24.2673L94.58 22.4501L95.5046 20.9701L97.2358 21.963L96.7046 22.806L99.4981 24.3984L101.347 21.4759L93.0653 16.7551ZM78.1144 12.4276L77.4652 14.7693L78.5865 15.0503L76.9341 21.0076L75.8127 20.7266L75.1636 23.0683L84.5275 25.4287L85.5702 21.6633L82.4226 20.8765L82.0292 22.3002L80.0816 21.8132L81.7341 15.8559L82.9341 16.1556L83.5833 13.8139L78.1144 12.4276ZM66.193 15.5374L66.8225 17.7105L65.1701 17.7667L65.6816 15.5749C65.7799 15.144 65.8586 14.6569 65.8979 14.2261C65.957 14.6382 66.0553 15.1253 66.193 15.5374ZM61.6488 12.2028L61.7274 14.6195L62.9078 14.582L61.0389 20.8015L59.9766 20.8577L60.0553 23.2744L65.6225 23.1058L65.5439 20.6891L64.3832 20.7266L64.5209 20.1459L67.6488 20.0522L67.8258 20.6329L66.8422 20.6704L66.9209 23.087L72.4881 22.9184L72.4095 20.5018L71.3472 20.5393L69.0848 14.4321L70.2652 14.3947L70.1865 11.978L61.6488 12.2028ZM48.8421 15.3875C45.3405 16.624 44.2389 19.5651 45.4389 22.6374C46.6389 25.7097 49.7077 27.171 52.9143 26.0282C54.2323 25.5599 55.8848 24.7543 57.1438 24.0612L55.7864 20.6142L52.7372 21.7008L53.2094 22.9184C52.8356 23.1058 52.3241 23.2931 51.8913 23.443C50.3963 23.9675 49.3733 23.1432 48.7241 21.4572C48.0749 19.7712 48.193 18.516 49.7471 17.9728C50.1602 17.8229 50.711 17.6543 51.1241 17.5606L51.6159 18.797L54.6651 17.7105L53.3077 14.2635C51.8717 14.5071 50.1602 14.9192 48.8421 15.3875ZM30.6257 25.9907L32.7896 28.7071L35.3864 26.8338L34.7569 26.0469L36.4683 24.8105L36.0749 32.8285L37.6093 34.7581L45.0257 29.419L42.8618 26.7026L40.2651 28.576L40.8946 29.3628L39.1831 30.5992L39.5765 22.5812L38.0421 20.6517L30.6257 25.9907ZM20.1797 38.0177L22.206 39.4789L22.9142 38.5984L28.088 42.3264L27.3994 43.2069L29.4257 44.6681L35.3667 37.1934L32.3765 35.0391L30.4093 37.5119L31.3732 38.205L30.0552 39.8536L28.324 38.5984L30.5667 35.7697L28.5798 34.3272L26.3371 37.156L24.9011 36.1256L26.1208 34.5895L26.947 35.1889L28.9142 32.7161L26.0617 30.6554L20.1797 38.0177ZM12.2322 58.25L14.6715 58.9618L15.006 57.9128L21.2027 59.7112L20.8683 60.7603L23.3076 61.4721L24.8814 56.5265L22.4421 55.8146L22.1076 56.8637L18.1929 55.7209C17.7011 55.5711 16.7961 55.3463 16.2453 55.2151C16.8158 55.2713 17.7404 55.3837 18.2912 55.4212L25.1568 55.646L25.924 53.2481L20.0814 49.7824C19.5896 49.5201 18.7633 49.0892 18.2715 48.8644C18.783 49.0518 19.6683 49.3328 20.1797 49.4826L24.0945 50.6254L23.7601 51.6745L26.1994 52.3863L27.7929 47.4219L25.3535 46.7101L25.0191 47.7592L18.8224 45.9607L19.1568 44.9117L16.7174 44.1998L15.006 49.5388L20.0814 52.4238C20.4945 52.6861 21.242 52.9858 21.7142 53.1357C21.242 53.042 20.4552 52.8922 19.924 52.8734L14.042 52.5175L12.2322 58.25Z" fill="#00263E"/>
<path d="M76.9932 73.2557C77.8981 73.3681 78.7637 73.6116 79.6096 74.005C80.6915 74.5108 81.6752 75.2414 82.462 76.1219L82.8555 76.609L81.4391 77.9578L76.7374 73.4805L76.9932 73.2557ZM64.6587 73.5179L69.3603 77.9953L74.062 73.5179L73.9636 73.4055C72.7243 73.6865 71.2685 74.3048 69.7931 75.485L69.38 75.8409L68.9276 75.485C67.4521 74.3048 66.0161 73.7053 64.7964 73.4243L64.6587 73.5179ZM70.6981 79.2504L75.3997 83.7277L80.0817 79.2504L75.3997 74.7731L70.6981 79.2504ZM81.4194 80.5243L76.7178 85.0016L80.1997 88.3175C81.9309 86.6502 83.2293 84.9642 83.9375 82.9409L81.4194 80.5243ZM57.2816 77.9765L61.9833 73.5179L61.6882 73.2369C60.8029 73.3493 59.9177 73.5929 59.0914 73.9863C58.0095 74.4921 57.0455 75.2227 56.2587 76.0844L55.8455 76.609L57.2816 77.9765ZM58.6193 79.2692L63.321 83.7465L68.0226 79.2692L63.3013 74.8106L58.6193 79.2692ZM74.0423 85.0204L69.3407 80.5618L64.639 85.0204L69.3407 89.479L74.0423 85.0204ZM75.38 86.2942L70.6981 90.7528L73.8653 93.7877C74.7505 93.0196 75.5768 92.3265 76.0686 91.9143L76.2456 91.7645C77.1505 90.9964 78.0161 90.2845 78.8227 89.5726L75.38 86.2942ZM55.9439 79.2692L54.9013 78.2575C54.5472 79.0818 54.3701 79.9248 54.3701 80.7866L55.9439 79.2692ZM82.8948 79.2692L84.3112 80.618C84.2916 80.1309 84.2325 79.6438 84.0948 79.1568C84.0161 78.8945 83.9375 78.6322 83.8194 78.3699L82.8948 79.2692ZM61.9636 85.0204L57.2619 80.5618L54.7439 82.9784C55.1963 84.1586 56.1013 85.5449 57.5767 87.2122C57.8914 87.5494 58.2259 87.9241 58.5603 88.28L61.9636 85.0204ZM68.003 90.7716L63.3013 86.2942L59.8587 89.5539C60.6456 90.3032 61.4915 91.09 62.4161 91.9143C63.1636 92.57 63.9505 93.2444 64.698 93.8814L68.003 90.7716ZM72.4489 94.9866L69.3407 92.0455L66.1341 95.0803C67.5112 96.2231 68.6718 97.1972 69.3013 97.703C69.8325 97.2534 72.3112 95.099 72.4489 94.9866Z" fill="#F1F1F1"/>
<path d="M54.252 37.1185C54.252 39.8536 55.2946 49.9698 56.1995 52.555C57.852 55.9458 62.2585 61.6595 62.77 62.2965C62.6717 59.6363 62.6126 53.3043 61.6684 50.3819C60.6651 47.2909 55.7667 39.1418 54.252 37.1185Z" fill="#F1F1F1"/>
<path d="M41.9568 44.125C42.606 46.1295 47.2289 54.9905 49.0585 57.6132C51.6355 61.2849 56.8683 66.3055 60.429 69.2467C61.2355 69.9211 64.7569 70.8391 64.4618 70.277C62.888 67.3359 55.7273 56.0208 53.3863 53.8102C49.747 50.0448 43.6683 45.1741 41.9568 44.125Z" fill="#F1F1F1"/>
<path d="M55.1176 68.0289C54.6061 67.4107 51.4979 64.0574 50.2389 63.0645C47.2094 60.6291 40.2651 57.3882 37.2749 56.564C38.5536 58.4748 41.8585 63.2144 46.5602 65.1252C49.0192 66.268 55.2946 68.2162 55.1176 68.0289Z" fill="#F1F1F1"/>
<path d="M73.3341 50.1945C72.803 44.6869 69.7538 35.395 69.5964 34.9829C69.321 34.1773 69.321 34.1773 69.0456 34.9829C68.8882 35.395 65.8587 44.6869 65.3079 50.1945C64.7767 53.5291 66.0554 64.8255 67.2948 69.6775C67.3734 69.9585 67.4718 70.202 67.5702 70.4268C67.9439 71.3073 68.6128 71.7194 69.3013 71.682C69.9898 71.7007 70.6587 71.3073 71.0325 70.4268C71.1505 70.202 71.2489 69.9585 71.3079 69.6775C72.6062 64.8255 73.8653 53.5104 73.3341 50.1945Z" fill="#F1F1F1"/>
<path d="M83.8784 37.1185C83.8784 39.8536 82.8358 49.9698 81.9309 52.555C80.2784 55.9458 75.8718 61.6595 75.3604 62.2965C75.4587 59.6363 75.5177 53.3043 76.462 50.3819C77.4653 47.2909 82.3636 39.1418 83.8784 37.1185Z" fill="#F1F1F1"/>
<path d="M96.1734 44.125C95.5242 46.1295 90.9012 54.9905 89.0717 57.6132C86.4947 61.2849 81.2815 66.3055 77.7012 69.2467C76.8946 69.9211 73.3733 70.8391 73.6684 70.277C75.2422 67.3359 82.4028 56.0208 84.7438 53.8102C88.3832 50.0448 94.4619 45.1741 96.1734 44.125Z" fill="#F1F1F1"/>
<path d="M83.0129 68.0289C83.5244 67.4107 86.6326 64.0574 87.8917 63.0645C90.9212 60.6291 97.8655 57.3882 100.856 56.564C99.5769 58.4748 96.272 63.2144 91.5704 65.1252C89.1113 66.268 82.8359 68.2162 83.0129 68.0289Z" fill="#F1F1F1"/>
</svg>
