<svg width="138" height="132" viewBox="0 0 138 132" fill="none" xmlns="http://www.w3.org/2000/svg">
<path d="M69.0653 126.234C103.964 126.234 132.272 99.2953 132.272 66.0432C132.272 32.8098 103.983 5.8522 69.0653 5.8522C34.1472 5.8522 5.85852 32.8098 5.85852 66.0432C5.85852 99.2766 34.1668 126.234 69.0653 126.234Z" fill="#F1F1F1"/>
<path d="M69.0653 102.761C90.3703 102.761 107.623 86.313 107.623 66.0433C107.623 45.7735 90.3507 29.3254 69.0653 29.3254C47.78 29.3254 30.5078 45.7735 30.5078 66.0433C30.5078 86.313 47.7603 102.761 69.0653 102.761Z" fill="#00263E"/>
<path d="M23.9569 66.0433H12.1929C12.1929 95.9608 37.6684 120.202 69.0653 120.202C100.482 120.202 125.938 95.9608 125.938 66.0433H114.174C114.174 89.7787 93.9703 108.999 69.0653 108.999C44.1406 108.999 23.9569 89.7787 23.9569 66.0433Z" fill="#00263E"/>
<path d="M120.725 54.3159L118.62 55.3462L118.246 53.8101L120.606 53.8475C121.059 53.8475 121.59 53.8288 122.043 53.7913C121.61 53.9412 121.118 54.1285 120.725 54.3159ZM123.243 49.4264L120.764 49.9884L121.039 51.0937L114.252 50.5879L114.016 49.6138L111.538 50.1758L112.816 55.3275L115.295 54.7655L115.02 53.6977H115.649L116.377 56.5826L115.806 56.8636L115.59 55.9644L113.111 56.5264L114.39 61.6782L116.869 61.1162L116.633 60.142L122.456 56.8262L122.731 57.9315L125.21 57.3694L123.243 49.4264ZM117.931 38.2987L115.649 39.3852L116.161 40.3594L110.397 43.1507L109.885 42.1765L107.623 43.2631L110.141 48.0027L112.403 46.9161L111.892 45.942L117.675 43.1694L118.187 44.1435L120.449 43.057L117.931 38.2987ZM107.111 25.41L105.203 27.0023L105.97 27.8266L101.092 31.9105L100.324 31.0862L98.4162 32.6786L102.095 36.6688L104.003 35.0765L103.236 34.2522L104.534 33.1657L105.42 34.1211C106.285 35.0578 105.951 35.7884 105.223 36.4066L104.456 35.5823L102.547 37.1747L106.069 40.9963L107.977 39.404L107.367 38.7483C108.665 37.6617 108.783 36.2005 107.761 34.8517C109.079 36.0694 110.495 36.1818 111.793 35.0952C113.151 33.9525 113.426 32.2852 111.734 30.4493L107.111 25.41ZM106.423 31.5733L108.115 30.1683L109.216 31.3672C109.846 32.0417 109.806 32.4913 109.216 32.9783C108.626 33.4654 108.134 33.4654 107.524 32.791L106.423 31.5733ZM93.0654 16.7551L91.7474 18.8345L92.731 19.3965L89.4064 24.6794L88.4227 24.1174L87.1047 26.1968L95.5441 31.0113L97.472 27.939L94.6785 26.3466L94.049 27.3395L92.1801 26.2717L93.3015 24.492L96.4883 26.3092L97.767 24.2672L94.5802 22.4501L95.5047 20.9701L97.2359 21.963L96.7048 22.806L99.4982 24.3984L101.347 21.4759L93.0654 16.7551ZM78.1145 12.4276L77.4653 14.7693L78.5866 15.0503L76.9342 21.0076L75.8129 20.7266L75.1637 23.0683L84.5276 25.4287L85.5703 21.6633L82.4227 20.8764L82.0293 22.3002L80.0817 21.8131L81.7342 15.8558L82.9342 16.1556L83.5834 13.8139L78.1145 12.4276ZM66.1932 15.5374L66.8227 17.7105L65.1702 17.7667L65.6817 15.5748C65.78 15.144 65.8587 14.6569 65.8981 14.226C65.9571 14.6382 66.0555 15.1252 66.1932 15.5374ZM61.6489 12.2028L61.7276 14.6194L62.9079 14.582L61.039 20.8015L59.9767 20.8577L60.0554 23.2743L65.6227 23.1057L65.544 20.6891L64.3833 20.7266L64.521 20.1458L67.6489 20.0522L67.8259 20.6329L66.8423 20.6704L66.921 23.087L72.4883 22.9184L72.4096 20.5018L71.3473 20.5392L69.085 14.4321L70.2653 14.3946L70.1866 11.978L61.6489 12.2028ZM48.8423 15.3875C45.3406 16.6239 44.239 19.5651 45.439 22.6374C46.639 25.7097 49.7079 27.1709 52.9144 26.0282C54.2325 25.5598 55.8849 24.7543 57.1439 24.0612L55.7866 20.6142L52.7374 21.7007L53.2095 22.9184C52.8357 23.1057 52.3242 23.2931 51.8915 23.4429C50.3964 23.9675 49.3734 23.1432 48.7242 21.4572C48.0751 19.7712 48.1931 18.516 49.7472 17.9727C50.1603 17.8229 50.7111 17.6543 51.1242 17.5606L51.6161 18.797L54.6652 17.7105L53.3079 14.2635C51.8718 14.507 50.1603 14.9192 48.8423 15.3875ZM30.6258 25.9907L32.7898 28.7071L35.3865 26.8337L34.757 26.0469L36.4685 24.8105L36.075 32.8285L37.6094 34.758L45.0259 29.419L42.8619 26.7026L40.2652 28.5759L40.8947 29.3628L39.1832 30.5992L39.5767 22.5812L38.0422 20.6516L30.6258 25.9907ZM20.1799 38.0177L22.2061 39.4789L22.9143 38.5984L28.0881 42.3264L27.3996 43.2069L29.4258 44.6681L35.3668 37.1934L32.3766 35.039L30.4094 37.5119L31.3734 38.205L30.0553 39.8536L28.3242 38.5984L30.5668 35.7696L28.5799 34.3272L26.3373 37.1559L24.9012 36.1256L26.1209 34.5894L26.9471 35.1889L28.9143 32.7161L26.0619 30.6554L20.1799 38.0177ZM12.2323 58.2499L14.6717 58.9618L15.0061 57.9127L21.2028 59.7111L20.8684 60.7602L23.3078 61.4721L24.8815 56.5264L22.4422 55.8146L22.1077 56.8636L18.193 55.7209C17.7012 55.571 16.7962 55.3462 16.2454 55.2151C16.8159 55.2713 17.7405 55.3837 18.2913 55.4212L25.1569 55.646L25.9242 53.2481L20.0815 49.7824C19.5897 49.5201 18.7635 49.0892 18.2717 48.8644C18.7831 49.0517 19.6684 49.3327 20.1799 49.4826L24.0946 50.6254L23.7602 51.6744L26.1996 52.3863L27.793 47.4219L25.3537 46.71L25.0192 47.7591L18.8225 45.9607L19.1569 44.9116L16.7176 44.1997L15.0061 49.5388L20.0815 52.4238C20.4946 52.6861 21.2422 52.9858 21.7143 53.1357C21.2422 53.042 20.4553 52.8921 19.9241 52.8734L14.0421 52.5175L12.2323 58.2499Z" fill="#00263E"/>
<path d="M76.9932 73.2556C77.8981 73.368 78.7637 73.6116 79.6096 74.005C80.6916 74.5108 81.6752 75.2414 82.4621 76.1219L82.8555 76.609L81.4391 77.9578L76.7375 73.4804L76.9932 73.2556ZM64.6587 73.5179L69.3604 77.9952L74.0621 73.5179L73.9637 73.4055C72.7244 73.6865 71.2686 74.3047 69.7932 75.4849L69.3801 75.8409L68.9276 75.4849C67.4522 74.3047 66.0161 73.7052 64.7965 73.4242L64.6587 73.5179ZM70.6981 79.2504L75.3998 83.7277L80.0818 79.2504L75.3998 74.7731L70.6981 79.2504ZM81.4195 80.5243L76.7178 85.0016L80.1998 88.3174C81.931 86.6502 83.2293 84.9641 83.9375 82.9409L81.4195 80.5243ZM57.2817 77.9765L61.9833 73.5179L61.6882 73.2369C60.803 73.3493 59.9177 73.5928 59.0915 73.9863C58.0095 74.4921 57.0456 75.2227 56.2587 76.0844L55.8456 76.609L57.2817 77.9765ZM58.6194 79.2691L63.321 83.7465L68.0227 79.2691L63.3014 74.8105L58.6194 79.2691ZM74.0424 85.0203L69.3407 80.5617L64.6391 85.0203L69.3407 89.4789L74.0424 85.0203ZM75.3801 86.2942L70.6981 90.7528L73.8653 93.7877C74.7506 93.0196 75.5768 92.3264 76.0686 91.9143L76.2457 91.7644C77.1506 90.9964 78.0162 90.2845 78.8227 89.5726L75.3801 86.2942ZM55.944 79.2691L54.9013 78.2575C54.5472 79.0818 54.3702 79.9248 54.3702 80.7865L55.944 79.2691ZM82.8949 79.2691L84.3113 80.6179C84.2916 80.1309 84.2326 79.6438 84.0949 79.1567C84.0162 78.8945 83.9375 78.6322 83.8195 78.3699L82.8949 79.2691ZM61.9637 85.0203L57.262 80.5617L54.7439 82.9784C55.1964 84.1586 56.1013 85.5449 57.5767 87.2122C57.8915 87.5494 58.2259 87.924 58.5604 88.28L61.9637 85.0203ZM68.003 90.7716L63.3014 86.2942L59.8587 89.5539C60.6456 90.3032 61.4915 91.09 62.4161 91.9143C63.1637 92.57 63.9505 93.2444 64.6981 93.8813L68.003 90.7716ZM72.4489 94.9866L69.3407 92.0454L66.1342 95.0803C67.5112 96.223 68.6719 97.1972 69.3014 97.703C69.8325 97.2534 72.3112 95.099 72.4489 94.9866Z" fill="#F1F1F1"/>
<path d="M54.2522 37.1185C54.2522 39.8536 55.2948 49.9698 56.1997 52.555C57.8522 55.9458 62.2588 61.6595 62.7703 62.2965C62.6719 59.6363 62.6129 53.3043 61.6686 50.3819C60.6653 47.2909 55.767 39.1418 54.2522 37.1185Z" fill="#F1F1F1"/>
<path d="M41.957 44.125C42.6062 46.1295 47.2291 54.9905 49.0586 57.6132C51.6357 61.2849 56.8685 66.3055 60.4292 69.2467C61.2357 69.9211 64.757 70.8391 64.462 70.277C62.8882 67.3359 55.7275 56.0208 53.3865 53.8102C49.7472 50.0448 43.6685 45.1741 41.957 44.125Z" fill="#F1F1F1"/>
<path d="M55.1176 68.0289C54.6062 67.4107 51.498 64.0574 50.2389 63.0645C47.2094 60.6291 40.2651 57.3882 37.275 56.5639C38.5537 58.4748 41.8586 63.2143 46.5602 65.1252C49.0193 66.2679 55.2947 68.2162 55.1176 68.0289Z" fill="#F1F1F1"/>
<path d="M73.3341 50.1945C72.803 44.6868 69.7538 35.395 69.5964 34.9829C69.321 34.1773 69.321 34.1773 69.0456 34.9829C68.8882 35.395 65.8587 44.6868 65.3079 50.1945C64.7767 53.5291 66.0554 64.8254 67.2948 69.6774C67.3734 69.9584 67.4718 70.202 67.5702 70.4268C67.9439 71.3073 68.6128 71.7194 69.3013 71.6819C69.9898 71.7007 70.6587 71.3073 71.0325 70.4268C71.1505 70.202 71.2489 69.9584 71.3079 69.6774C72.6062 64.8254 73.8653 53.5104 73.3341 50.1945Z" fill="#F1F1F1"/>
<path d="M83.8784 37.1185C83.8784 39.8536 82.8358 49.9698 81.9309 52.555C80.2784 55.9458 75.8718 61.6595 75.3604 62.2965C75.4587 59.6363 75.5177 53.3043 76.462 50.3819C77.4653 47.2909 82.3636 39.1418 83.8784 37.1185Z" fill="#F1F1F1"/>
<path d="M96.1736 44.125C95.5244 46.1295 90.9014 54.9905 89.0719 57.6132C86.4949 61.2849 81.2817 66.3055 77.7014 69.2467C76.8948 69.9211 73.3735 70.8391 73.6686 70.277C75.2423 67.3359 82.403 56.0208 84.744 53.8102C88.3834 50.0448 94.4621 45.1741 96.1736 44.125Z" fill="#F1F1F1"/>
<path d="M83.0129 68.0289C83.5244 67.4107 86.6326 64.0574 87.8917 63.0645C90.9212 60.6291 97.8655 57.3882 100.856 56.5639C99.577 58.4748 96.272 63.2143 91.5704 65.1252C89.1113 66.2679 82.8359 68.2162 83.0129 68.0289Z" fill="#F1F1F1"/>
</svg>
