<svg width="134" height="134" viewBox="0 0 134 134" fill="none" xmlns="http://www.w3.org/2000/svg">
<path d="M109.794 59.4442C106.826 62.9167 102.863 67.0102 97.748 71.2528C99.5528 73.3639 102.985 77.0998 107.769 81.2744C120.993 75.928 129.882 69.9296 134 66.8302C123.692 64.6368 115.281 61.6686 109.794 59.4442Z" fill="#FCFCFA"/>
<path d="M59.4421 24.1988C62.9146 27.1671 67.0082 31.1295 71.2507 36.2446C73.3618 34.4398 77.0978 31.0103 81.2759 26.2242C75.9343 13.0257 69.9251 4.12453 66.8246 -4.4922e-06C64.6324 10.3089 61.6665 18.7177 59.4421 24.1988Z" fill="#FCFCFA"/>
<path d="M102.597 91.9092C100.394 92.0821 97.9345 92.1941 95.2142 92.1941C92.7144 92.1941 90.1718 92.0714 87.6255 91.8818L87.6315 91.8902L87.5647 91.8771C86.9532 91.8306 86.344 91.8067 85.7325 91.7507C85.5144 94.5187 85.2962 99.5802 85.7242 105.921C98.8333 111.481 109.379 113.527 114.489 114.246C108.751 105.412 104.9 97.3582 102.597 91.9092Z" fill="#FCFCFA"/>
<path d="M91.9181 31.394C92.2733 35.9465 92.3651 41.6434 91.7488 48.2557C93.3378 48.3797 95.772 48.5144 98.8082 48.5144C101.186 48.5144 103.56 48.4167 105.925 48.2581C111.492 35.1299 113.53 24.604 114.25 19.502C105.416 25.2394 97.367 29.0886 91.9181 31.394Z" fill="#FCFCFA"/>
<path d="M42.0749 102.603C41.7173 98.0484 41.622 92.3492 42.2371 85.7368C40.6588 85.6105 38.2317 85.4758 35.1908 85.4758C32.8091 85.4758 30.4368 85.5723 28.0682 85.7344C22.512 98.84 20.4629 109.383 19.7405 114.493C28.5558 108.766 36.6153 104.915 42.0749 102.603Z" fill="#FCFCFA"/>
<path d="M31.3904 42.0814C33.5992 41.9062 36.0656 41.7929 38.7919 41.7929C41.2892 41.7929 43.8295 41.9145 46.3746 42.1052H46.3829C47.0076 42.1517 47.6346 42.1779 48.2568 42.2375C48.4619 39.6222 48.6848 34.4963 48.2568 28.0723C35.1501 22.5125 24.6111 20.4633 19.5007 19.741C25.225 28.5598 29.0789 36.6217 31.3904 42.0814Z" fill="#FCFCFA"/>
<path d="M24.1929 74.5527C27.1611 71.0803 31.1259 66.9867 36.2411 62.7442C34.4315 60.6271 30.9972 56.8864 26.2206 52.7165C13.0197 58.0606 4.12096 64.0638 0 67.1667C10.2589 69.3518 18.6903 72.3248 24.1929 74.5527Z" fill="#FCFCFA"/>
<path d="M67.1644 133.997C69.3542 123.698 72.3248 115.283 74.5468 109.796C71.0756 106.828 66.9844 102.865 62.7442 97.7539C60.7487 99.4585 56.9592 102.927 52.719 107.776C58.0654 120.993 64.0638 129.885 67.1644 133.997Z" fill="#FCFCFA"/>
<path d="M110.385 87.6357C102.374 81.4107 97.0195 75.4206 94.8357 72.8112C92.6351 74.0176 88.2579 76.1025 81.9304 77.5437C82.4859 79.7681 83.7054 83.8974 85.9465 88.4951C89.0554 88.786 92.169 88.9636 95.2148 88.9636C102 88.9636 107.244 88.2281 110.385 87.6357Z" fill="#FCFCFA"/>
<path d="M87.6376 23.6098C81.4079 31.6205 75.4166 36.9752 72.8096 39.1543C74.0136 41.3548 76.0985 45.7345 77.548 52.0691C79.8535 51.4933 83.9398 50.2703 88.4995 48.0483C89.558 36.7439 88.4733 28.049 87.6376 23.6098Z" fill="#FCFCFA"/>
<path d="M23.6035 46.3549C31.5975 52.5668 36.9713 58.5747 39.1563 61.1877C41.3617 59.979 45.7413 57.8941 52.0711 56.4553C51.5001 54.1558 50.2854 50.0742 48.0575 45.4931C44.9474 45.2022 41.8385 45.0246 38.7892 45.0246C31.9968 45.0246 26.7446 45.7601 23.6035 46.3549Z" fill="#FCFCFA"/>
<path d="M112.27 50.9114C107.835 51.4657 103.32 51.7459 98.8084 51.7459C95.1905 51.7459 92.3999 51.5611 90.8037 51.4204C90.092 53.8475 88.4434 58.4429 85.0115 63.8965C86.9867 65.0791 90.7763 67.1425 95.5982 68.8066C104.343 61.5589 109.722 54.6414 112.27 50.9114Z" fill="#FCFCFA"/>
<path d="M21.7163 83.0818C26.1555 82.5275 30.6723 82.2438 35.189 82.2438C38.8307 82.2438 41.613 82.4321 43.1973 82.5728C43.9137 80.1434 45.5623 75.548 48.9847 70.099C46.9594 68.876 43.2187 66.8507 38.3861 65.1937C29.6221 72.4557 24.2566 79.3566 21.7163 83.0818Z" fill="#FCFCFA"/>
<path d="M46.3556 110.389C52.5996 102.346 58.5838 97.0042 61.1884 94.8335C59.982 92.6329 57.8947 88.2533 56.4512 81.9294C54.1588 82.498 50.0832 83.7151 45.4854 85.9526C44.4292 97.282 45.5176 105.958 46.3556 110.389Z" fill="#FCFCFA"/>
<path d="M82.5681 90.7981C80.141 90.0841 75.5456 88.4355 70.1027 85.0131C68.9201 86.9835 66.8567 90.7743 65.1902 95.6033C72.4355 104.346 79.3471 109.722 83.0771 112.271C81.8194 102.229 82.2665 94.2027 82.5681 90.7981Z" fill="#FCFCFA"/>
<path d="M51.4244 43.1946C53.8455 43.9051 58.4433 45.5573 63.8981 48.988C65.0747 47.0354 67.1274 43.2697 68.8058 38.4001C61.5414 29.6301 54.6382 24.2647 50.9094 21.722C52.173 31.7854 51.7284 39.8008 51.4244 43.1946Z" fill="#FCFCFA"/>
<path d="M78.8735 55.0628C79.8534 55.6767 80.7725 56.3932 81.5128 57.2693C81.6963 57.4791 81.8525 57.6949 82.017 57.9285C82.5749 58.707 83.0076 59.4985 83.3068 60.2912C83.3211 60.321 83.3318 60.3687 83.3426 60.4009C85.238 57.1179 86.4312 54.2606 87.1453 52.2233C83.7896 53.6538 80.8643 54.5407 78.8735 55.0628Z" fill="#FCFCFA"/>
<path d="M64.8333 53.4719L63.4922 52.5755C58.9421 49.5345 54.8939 47.7965 52.2356 46.8619C53.6553 50.2021 54.5387 53.1107 55.056 55.0955C55.3922 54.8809 55.7105 54.6378 56.0609 54.4625C57.1135 53.9488 58.2257 53.6114 59.3677 53.4612C60.7171 53.2991 61.9616 53.3611 63.2765 53.6793C64.5722 53.9941 65.8191 54.5412 66.9933 55.3113C68.1782 54.5329 69.437 53.9833 70.7483 53.6686C72.0739 53.3587 73.3256 53.3205 74.5379 53.466C73.4686 48.5213 71.9499 44.721 70.7972 42.3178C68.6288 47.694 66.2614 51.3489 65.7333 52.1332L64.8333 53.4719Z" fill="#FCFCFA"/>
<path d="M57.3712 78.406L58.9603 78.0854L59.275 79.6744C60.3454 85.0458 61.9821 89.137 63.2028 91.6772C64.5093 88.4289 65.8885 85.8159 66.9137 84.0492L65.215 82.5973C64.6226 82.0907 63.4937 81.1072 62.1764 79.9414C61.8665 79.6768 61.5196 79.368 61.1668 79.0521L58.6181 76.7526C57.6919 75.8955 56.8432 75.0766 56.0731 74.2898C55.6153 73.8249 55.1576 73.3588 54.7475 72.8975C54.409 72.5184 54.0776 72.1489 53.7676 71.7853C53.3612 71.3037 52.9916 70.8376 52.6555 70.3823L52.5744 70.5038C49.5358 75.0528 47.7954 79.1093 46.8608 81.77C51.9498 79.604 56.0624 78.673 57.3712 78.406Z" fill="#FCFCFA"/>
<path d="M91.6795 70.7966C88.0055 69.3185 85.1553 67.7533 83.4125 66.7055C82.6723 68.9 81.3443 70.9182 79.2355 73.0544C78.7933 73.4978 78.3308 73.9484 77.8432 74.4002C77.0588 75.1202 76.222 75.8545 75.3327 76.6329L70.2307 81.2391L70.5037 81.4226C75.055 84.4636 79.1056 86.2004 81.7675 87.135C79.5908 82.0318 78.6693 77.9263 78.4083 76.6198L78.0936 75.0332L79.6778 74.7185C85.0504 73.6516 89.1392 72.0137 91.6795 70.7966Z" fill="#FCFCFA"/>
<path d="M50.7621 60.1131C47.1096 61.0966 44.2546 62.2684 42.3127 63.1994C46.2263 64.7729 49.2184 66.4537 50.9206 67.4932C50.805 67.2404 50.6834 66.9865 50.5928 66.7398C50.4927 66.4883 50.4283 66.3106 50.3794 66.1438C50.1505 65.3331 50.0433 64.4927 50.048 63.6309C50.0611 62.4543 50.296 61.2825 50.749 60.1453C50.7513 60.1346 50.7597 60.1262 50.7621 60.1131Z" fill="#FCFCFA"/>
<path d="M56.5123 55.6332C55.4223 56.1694 54.4339 56.9452 53.6418 57.8714L53.2207 58.4251L54.6695 59.8699L59.4329 55.1268L59.139 54.8316C58.2359 54.9603 57.3477 55.2162 56.5123 55.6332ZM74.3905 55.1079L79.1538 59.8671L80.5891 58.4333L80.1964 57.9079C79.4029 56.9683 78.4051 56.1843 77.3083 55.6481C76.4634 55.2229 75.5711 54.9643 74.6612 54.8411L74.3905 55.1079ZM67.3361 57.2052L66.9123 57.5762L66.4587 57.2052C64.9626 55.9473 63.5124 55.3137 62.26 55.0077L62.1598 55.1079L66.9191 59.8671L71.6797 55.1079L71.5701 54.9901C70.3122 55.2947 68.8472 55.9433 67.3361 57.2052M68.2785 61.2239L73.0419 65.9831L77.7944 61.2239L73.0419 56.4646L68.2785 61.2239ZM56.0303 61.2374L60.7895 65.9981L65.5515 61.2374L60.7895 56.4862L56.0303 61.2374ZM51.7029 62.8541L53.3141 61.2374L52.2499 60.1691C51.9006 61.0519 51.7137 61.9509 51.7029 62.8541ZM80.6581 61.2374L82.1001 62.6767C82.0893 62.1622 82.0243 61.6382 81.8835 61.1237C81.8063 60.838 81.7223 60.5577 81.61 60.2815L80.6581 61.2374ZM74.3905 67.3426L77.9163 70.8643C79.6683 69.0811 80.9912 67.2925 81.7074 65.1369L79.1538 62.5833L74.3905 67.3426ZM62.1422 67.3575L66.9123 72.1127L71.6716 67.3575L66.9123 62.6009L62.1422 67.3575ZM52.1091 65.1667C52.5695 66.4286 53.4942 67.8963 54.9796 69.6674C55.2923 70.0262 55.6308 70.4148 55.9801 70.8007L59.4329 67.3575L54.6695 62.6009L52.1091 65.1667ZM68.2677 73.4694L71.4875 76.696C72.3946 75.8755 73.2179 75.1389 73.7216 74.6961L73.9098 74.5418C74.8264 73.7321 75.7038 72.9616 76.5176 72.2061L73.0243 68.7128L68.2677 73.4694ZM57.3071 72.1912C58.0992 72.9941 58.9684 73.8282 59.9081 74.7029C60.6623 75.3961 61.4557 76.1138 62.2221 76.8002L65.5515 73.4802V73.4694L60.7895 68.7128L57.3071 72.1912ZM63.6627 78.077C65.0519 79.2929 66.2462 80.3355 66.8731 80.8757C67.4025 80.3978 69.9263 78.1014 70.059 77.9836L66.9123 74.8356L63.6627 78.077Z" fill="url(#paint0_linear_1157_5394)"/>
<defs>
<linearGradient id="paint0_linear_1157_5394" x1="51.7026" y1="80.8757" x2="82.1" y2="80.8757" gradientUnits="userSpaceOnUse">
<stop stop-color="#A58756"/>
<stop offset="0.382613" stop-color="#A58756"/>
<stop offset="0.615691" stop-color="#E6D4B3"/>
<stop offset="0.83994" stop-color="#A58756"/>
<stop offset="1" stop-color="#A58756"/>
</linearGradient>
</defs>
</svg>
