<svg width="389" height="47" viewBox="0 0 389 47" fill="none" xmlns="http://www.w3.org/2000/svg">
<path d="M385.21 25.6108C385.21 25.7515 385.21 25.8922 385.21 26.1736C385.21 26.455 385.21 26.5958 385.21 26.5958C385.21 26.8773 385.491 27.1587 385.772 27.2994C386.052 27.4401 386.473 27.4401 386.614 27.4401C386.895 27.4401 387.175 27.2994 387.456 27.018C387.737 26.7365 387.737 26.3144 387.596 25.8922C387.456 25.6108 387.175 25.3293 386.895 25.0479C386.614 24.7664 386.193 24.7664 385.772 24.7664C385.491 24.7664 385.21 25.0479 385.21 25.6108ZM378.754 19.4191C379.596 18.7155 380.438 18.1527 381.42 17.8713C381.42 18.012 381.42 18.0119 381.28 18.0119C380.859 18.5748 380.298 19.1377 379.736 19.7006C379.175 20.2635 378.613 20.6856 378.052 21.2485C377.771 21.3892 377.631 21.53 377.35 21.6707C377.069 21.8114 376.929 21.8114 376.648 21.8114C377.21 20.9671 377.911 20.1227 378.754 19.4191ZM382.543 24.6257C382.684 24.485 382.964 24.3443 383.386 24.2036C383.807 23.9222 384.228 23.7814 384.649 23.5C385.07 23.2186 385.491 22.9371 386.052 22.6556C386.614 22.3742 386.895 22.0928 387.175 21.952C387.316 21.8113 387.596 21.6707 387.596 21.6707C387.737 21.6707 387.877 21.5299 387.877 21.3892C388.017 21.3892 388.017 21.2485 388.017 21.2485C388.158 21.1077 388.298 20.9671 388.439 20.6856C388.579 20.4042 388.719 20.4042 388.86 20.2635C389 20.1228 389 19.982 389 19.8413C389 19.7006 388.86 19.7006 388.579 19.7006C388.579 19.7006 388.579 19.7006 388.439 19.7006H388.298C388.017 19.7006 387.877 19.8413 387.737 19.8413C387.596 19.982 387.456 19.982 387.316 20.1227C386.895 20.4042 386.474 20.5449 386.052 20.8263C385.631 21.1078 385.07 21.2485 384.649 21.5299C384.087 21.8113 383.666 22.0928 383.245 22.2335C382.824 22.3742 382.543 22.6557 382.122 22.7964C381.842 22.9371 381.42 23.0778 380.999 23.3592C380.578 23.4999 380.157 23.7814 379.596 24.0628C379.315 24.2035 379.034 24.3443 378.754 24.3443C378.473 24.485 378.052 24.6257 377.771 24.6257C377.35 24.7664 376.929 24.9072 376.508 25.0479C376.087 25.1886 375.666 25.3294 375.104 25.1886C374.823 25.0479 374.823 24.7665 374.683 24.485C374.683 24.2036 374.683 23.9221 374.824 23.6407C374.964 23.3592 375.104 23.0778 375.245 22.7964C375.385 22.515 375.525 22.3743 375.806 22.0928C376.227 22.0928 376.789 22.0928 377.21 22.0928C377.631 21.9521 378.052 21.8114 378.333 21.6707C379.455 20.9671 380.578 19.982 381.701 18.997C381.701 18.8563 381.842 18.7156 381.982 18.5749C382.122 18.4341 382.263 18.2934 382.403 18.1527C382.543 18.012 382.543 17.8712 382.824 17.7305C382.964 17.5898 383.105 17.4491 383.105 17.3084C383.105 17.0269 382.964 16.6047 382.684 16.3233C382.403 16.0419 381.701 15.7605 380.719 15.7605C380.578 15.7605 380.438 15.7605 380.438 15.9012C380.438 15.9012 380.298 16.0419 380.157 16.0419C379.877 16.1827 379.596 16.3234 379.175 16.4641C378.894 16.6048 378.473 16.7455 378.192 17.0269C377.49 17.4491 376.929 17.8713 376.227 18.5749C375.666 19.2784 374.964 19.8413 374.402 20.5449C374.402 20.6856 374.262 20.8264 374.262 20.9671C374.262 21.1078 374.122 21.2485 373.981 21.3892C373.841 21.6707 373.701 22.0928 373.56 22.3743C373.42 22.7964 373.28 23.0778 373.139 23.5C372.999 23.9222 372.999 24.2036 372.999 24.6257C372.999 25.0479 373.139 25.3293 373.279 25.6108C373.56 26.0329 373.841 26.1736 374.262 26.4551C374.683 26.5958 375.104 26.7365 375.525 26.7365C375.946 26.7365 376.367 26.7365 376.789 26.5958C377.21 26.4551 377.631 26.4551 377.911 26.3144C378.192 26.1737 378.473 26.1736 378.754 26.0329C379.034 26.0329 379.315 25.8922 379.455 25.7515L382.543 24.6257ZM373.56 17.0269C373.28 17.3083 372.858 17.5898 372.578 17.8713C372.157 18.1527 371.876 18.5749 371.455 18.8563C371.174 19.1377 370.893 19.4192 370.753 19.5599C370.472 19.8413 370.332 19.9821 370.051 20.2635C369.911 20.5449 369.63 20.6856 369.349 20.9671C369.069 21.3892 368.648 21.8113 368.086 22.2335C367.525 22.6557 366.823 23.2185 366.261 23.6407C365.7 24.0628 364.998 24.3443 364.577 24.6257C364.016 24.7664 363.875 24.7665 363.735 24.485C363.875 24.0629 364.016 23.5 364.296 22.7964C364.577 22.2335 364.717 21.6706 364.858 21.1078C364.858 21.1078 364.858 21.1078 364.858 20.9671C364.858 20.9671 364.858 20.8263 364.858 20.6856C364.858 20.5449 364.858 20.5449 364.998 20.4042V20.2635C364.998 20.2635 364.998 20.2634 364.998 20.1227C364.998 19.982 365.139 19.8413 365.139 19.7006C365.139 19.5599 365.279 19.4192 365.279 19.2784C365.419 19.2784 365.419 19.2784 365.419 19.2784C365.419 19.1377 365.419 19.1377 365.419 18.997C365.419 18.997 365.419 18.8563 365.419 18.7155C365.419 18.5748 365.419 18.4341 365.279 18.4341C365.139 18.4341 365.139 18.4341 364.998 18.2934C364.858 18.2934 364.858 18.1527 364.858 18.1527C364.858 18.1527 364.717 18.0119 364.577 18.0119C364.156 17.8712 363.875 17.8713 363.735 18.1527C363.595 18.4342 363.314 18.5749 363.173 18.8563C363.173 19.1377 363.033 19.2784 363.033 19.4191C362.893 19.5598 362.893 19.8413 362.752 19.982C362.752 20.2635 362.752 20.4041 362.612 20.5449C362.472 20.6856 362.472 20.8263 362.331 21.1078C362.191 21.2485 362.191 21.3892 362.051 21.6707C361.91 21.8114 361.91 22.0928 361.91 22.2335C361.77 22.6557 361.77 22.9371 361.63 23.3592C361.489 23.7814 361.489 24.0629 361.489 24.485C361.489 24.485 361.489 24.6257 361.63 24.7664C361.63 24.9071 361.63 25.0479 361.63 25.0479C361.91 26.0329 362.331 26.7365 362.752 27.018C363.173 27.2994 363.735 27.4401 364.296 27.1586C364.858 27.0179 365.419 26.5958 366.121 26.1736C366.683 25.6107 367.384 25.1886 367.805 24.485C368.367 23.9222 368.788 23.3593 369.349 22.7964C369.77 22.2335 370.051 21.9521 370.332 21.6707C370.472 21.53 370.753 21.2485 371.174 20.8263C371.595 20.4042 371.876 19.982 372.297 19.4191C372.718 18.997 372.999 18.5749 373.279 18.1527C373.56 17.7306 373.701 17.5898 373.701 17.5898C373.981 17.0269 374.122 16.7455 374.262 16.6048C374.262 16.464 374.402 16.3233 374.262 16.3233C374.262 16.3233 374.122 16.3233 373.981 16.3233C373.841 16.3233 373.841 16.3233 373.841 16.3233C373.841 16.1826 373.841 16.1826 373.841 16.1826H373.701C374.122 16.7455 373.841 16.7455 373.56 17.0269ZM358.963 23.2185C358.401 23.5 357.98 23.7814 357.559 23.9221C357.419 24.0629 357.138 24.0628 356.857 24.3443C356.576 24.6257 356.436 24.6257 356.155 24.7664C355.875 24.9071 355.734 24.9071 355.594 24.7664C355.454 24.7664 355.454 24.485 355.454 24.0628L355.734 23.0779C355.875 22.9371 355.875 22.7964 355.875 22.6556C355.875 22.5149 355.875 22.515 355.875 22.3743C355.875 22.2336 356.015 22.0928 356.155 21.952V21.8114C356.296 21.6706 356.436 21.3892 356.436 21.1078C356.576 20.8263 356.717 20.5449 356.857 20.4042C356.998 20.1227 357.138 19.982 357.278 19.7006C357.278 19.4191 357.138 19.1377 356.998 19.1377C356.857 18.997 356.577 18.997 356.577 18.8563H356.015H355.734C355.594 18.8563 355.454 18.8563 355.454 18.8563L355.313 18.997C355.313 18.997 355.313 19.1377 355.313 19.2784C355.313 19.4192 355.313 19.4192 355.173 19.5599L355.033 19.7006H354.892C354.611 19.982 354.471 20.2635 354.19 20.4042C353.91 20.5449 353.769 20.6856 353.489 20.9671C352.506 21.6707 351.664 22.3742 350.822 22.9371C349.979 23.6407 348.997 24.2035 348.155 24.7664C348.014 24.9071 347.734 25.0479 347.453 25.1886C347.453 24.9072 347.593 24.7665 347.734 24.485C347.874 24.2036 348.014 24.0629 348.014 23.7815C348.155 23.6407 348.295 23.4999 348.295 23.3592C348.436 23.2185 348.576 23.0778 348.716 22.9371C348.857 22.7964 348.857 22.7964 348.857 22.6556C348.997 22.5149 349.278 22.5149 349.278 22.2335C349.418 22.0928 349.558 21.9521 349.699 21.8114C349.98 21.5299 350.12 21.3892 350.401 21.1078C350.681 20.8263 350.822 20.6856 351.102 20.4042C351.243 20.2635 351.383 20.1227 351.523 20.1227C351.664 19.982 351.804 19.8413 351.945 19.7006C352.225 19.5599 352.366 19.4192 352.646 19.2784C352.927 19.1377 353.067 18.997 353.348 18.997C353.348 18.8563 353.489 18.7155 353.629 18.7155C353.769 18.7155 353.769 18.7155 353.91 18.7155L354.05 18.5749L354.611 18.2934C354.892 18.012 355.173 17.8712 355.454 17.7305C355.594 17.7305 355.734 17.5898 355.734 17.7305C355.875 17.7305 356.015 17.7305 356.015 17.5898C356.155 17.5898 356.155 17.4491 356.296 17.3084C356.296 17.1676 356.296 17.0269 356.296 17.0269C356.296 16.8862 356.296 16.7455 356.015 16.6048C355.875 16.464 355.734 16.3233 355.594 16.1826C355.313 16.1826 355.173 16.1827 355.033 16.0419C355.033 16.0419 354.892 16.1827 354.892 16.0419C354.752 16.0419 354.752 16.0419 354.752 16.0419C354.331 16.1827 354.05 16.3234 353.91 16.4641C353.769 16.7455 353.489 16.8862 353.208 17.0269C353.067 17.0269 352.787 17.3084 352.225 17.5898C351.804 17.8712 351.243 18.2934 350.681 18.8563C350.12 19.2785 349.699 19.8413 349.137 20.2635C348.716 20.6856 348.295 20.967 348.014 21.2485C347.734 21.6706 347.453 21.9521 347.172 22.3743C346.892 22.6557 346.611 23.0778 346.47 23.5C346.33 23.7814 346.19 23.9222 346.049 24.2036C345.909 24.485 345.769 24.7664 345.769 25.0479V25.1886C345.628 25.7515 345.769 26.0329 346.049 26.3144C346.19 26.4551 346.33 26.5958 346.611 26.5958C346.892 26.5958 347.032 26.5958 347.313 26.5958C347.453 26.5958 347.593 26.7365 347.734 26.7365H348.155C348.295 26.7365 348.576 26.7365 348.716 26.5958C348.997 26.4551 349.137 26.3143 349.278 26.1736C349.98 25.8922 350.681 25.47 351.383 25.0479C351.383 24.9072 351.524 24.9072 351.664 24.9072C351.804 24.9072 351.804 24.7664 351.945 24.7664C351.945 24.7664 352.085 24.6257 352.225 24.6257C352.366 24.6257 352.366 24.485 352.506 24.3443C352.646 24.2036 352.927 24.2035 352.927 24.0628C353.067 23.9221 353.208 23.7814 353.348 23.6407C353.489 23.6407 353.489 23.5 353.489 23.5L353.629 23.3592C353.629 23.3592 353.629 23.3592 353.769 23.3592C353.769 23.6407 353.629 24.0628 353.769 24.3443C353.769 24.6257 353.769 24.9072 353.91 25.1886C354.05 25.3294 354.05 25.6107 354.19 25.7515C354.331 25.8922 354.471 26.0329 354.752 26.1736C354.892 26.1736 354.892 26.1737 355.033 26.3144H355.173C355.734 26.4551 356.296 26.4551 356.717 26.3144C357.138 26.1737 357.559 26.0329 357.98 25.7515C358.401 25.47 358.682 25.1886 359.103 24.9072C359.524 24.6257 359.945 24.3443 360.366 24.2036C360.366 24.2036 360.507 24.2035 360.647 24.0628C360.787 23.9221 361.068 23.7814 361.489 23.3592C361.63 23.0778 361.629 23.0778 361.77 22.9371C361.91 22.7964 362.051 22.7964 362.051 22.7964C362.331 22.515 362.472 22.3742 362.331 22.2335C362.191 22.0928 361.63 22.2335 360.928 22.515C359.945 22.6557 359.524 22.9371 358.963 23.2185ZM334.68 29.2694C334.961 29.2694 335.101 29.1287 335.242 28.988C335.242 29.1287 335.242 29.1287 335.242 29.1287C335.242 29.1287 335.101 29.2695 335.242 29.4102C334.961 30.1138 334.54 30.8173 334.119 31.8023C333.698 32.7874 333.136 33.7724 332.575 34.8982C332.013 36.0239 331.452 37.1497 330.75 38.2754C330.048 39.4012 329.346 40.3862 328.504 41.3713C327.802 42.3563 326.96 43.0598 326.118 43.7634C325.276 44.467 324.434 44.7485 323.451 44.8892C323.311 44.7485 323.311 44.6077 323.311 44.467C323.311 44.3263 323.311 44.1856 323.17 44.0449C323.311 43.2006 323.451 42.3562 323.872 41.6526C324.153 40.949 324.574 40.2454 325.136 39.5419C325.557 38.8383 326.118 38.2754 326.539 37.7125C327.101 37.1497 327.522 36.5868 327.943 36.0239C328.083 35.8832 328.364 35.4611 328.785 35.0389C329.206 34.6168 329.767 34.0539 330.329 33.491C330.89 32.9281 331.592 32.2246 332.294 31.521C332.996 30.8174 333.698 30.1138 334.399 29.5509C334.259 29.4102 334.399 29.2694 334.68 29.2694ZM323.451 47C323.732 47 324.153 46.8593 324.434 46.7185C326.258 46.015 327.802 44.8892 329.206 43.482C330.61 42.0749 331.733 40.5269 332.855 38.6976C333.838 37.009 334.82 35.0389 335.663 33.2095C336.505 31.2395 337.207 29.5509 338.049 27.7216C338.189 27.4401 338.33 27.0179 338.47 26.7365C338.61 26.4551 338.751 26.1736 339.031 26.0329C339.172 25.8922 339.172 25.7515 339.452 25.6108C339.733 25.4701 339.733 25.3294 340.014 25.1886L340.295 24.9072C340.435 24.7665 340.575 24.6257 340.716 24.6257C340.856 24.6257 340.996 24.485 341.137 24.485C341.417 24.2036 341.558 24.0629 341.839 23.9221C342.119 23.7814 342.4 23.6407 342.54 23.3592C342.821 23.2185 343.102 22.9371 343.523 22.6556C343.944 22.3742 344.365 22.0928 344.926 21.6707C345.348 21.3892 345.769 20.9671 346.19 20.6856C346.611 20.4042 346.892 20.1228 347.032 19.982C346.892 19.982 346.892 19.982 346.892 19.8413C347.172 19.5598 347.313 19.4191 347.734 19.4191C348.014 19.2784 348.295 19.1377 348.576 18.997C348.436 18.997 348.295 18.997 348.295 18.997L348.435 18.8563C348.576 18.8563 348.576 18.7155 348.576 18.7155H348.435C348.576 18.5748 348.576 18.5749 348.716 18.5749C348.857 18.5749 348.857 18.4341 348.997 18.4341H348.857H348.716V18.2934H348.576C348.576 18.2934 348.576 18.2934 348.435 18.2934H348.576H348.716C348.014 18.4341 347.453 18.7156 346.892 18.997C346.33 19.2784 345.769 19.5598 345.207 19.8413C344.926 19.8413 344.786 19.982 344.646 19.982C344.505 20.1228 344.365 20.1228 344.225 20.2635C344.225 20.2635 344.084 20.2635 344.084 20.4042L343.944 20.5449H343.804C343.663 20.6856 343.383 20.8263 342.961 21.1078C342.54 21.2485 342.119 21.5299 341.698 21.8114C341.277 22.0928 340.856 22.3742 340.435 22.6556C340.014 22.9371 339.733 23.2186 339.593 23.5C339.733 23.0778 339.733 22.6557 340.014 22.3743C340.295 22.0928 340.295 21.5299 340.295 21.1078C340.435 20.8263 340.435 20.6856 340.575 20.4042C340.716 20.1227 340.716 19.8413 340.716 19.7006C340.716 19.4191 340.716 19.2784 340.716 19.1377C340.716 18.997 340.575 18.7156 340.295 18.5749C340.295 18.5749 340.154 18.4341 340.014 18.5749C339.873 18.5749 339.873 18.5749 339.873 18.5749C339.733 18.5749 339.733 18.5749 339.593 18.5749C339.452 18.5749 339.452 18.5749 339.312 18.5749C339.031 18.5749 338.891 18.5748 338.891 18.7155C338.751 18.8563 338.751 18.997 338.61 18.997C338.47 19.1377 338.47 19.2784 338.47 19.2784C338.47 19.2784 338.47 19.4192 338.47 19.5599C338.47 19.7006 338.329 19.8413 338.189 19.982C338.049 20.1228 337.908 20.1228 337.768 20.2635C337.628 20.4042 337.487 20.5449 337.347 20.6856C337.207 20.8263 337.066 20.9671 336.926 21.1078C336.364 21.5299 335.803 22.0928 335.242 22.515C334.68 22.9371 334.119 23.3593 333.557 23.7815C333.417 23.7815 333.276 23.9221 333.276 23.9221C333.136 23.9221 333.136 24.0629 332.996 24.2036C332.715 24.3443 332.575 24.485 332.294 24.6257C332.154 24.7664 331.873 24.9072 331.733 25.0479C331.733 25.0479 331.592 25.0479 331.592 25.1886C331.452 25.1886 331.452 25.1886 331.311 25.1886V25.0479C331.311 25.0479 331.311 24.9071 331.311 24.7664C331.452 24.3443 331.592 23.9222 331.873 23.5C332.154 23.0778 332.294 22.7964 332.575 22.3743C332.855 22.2336 332.996 21.9521 333.136 21.6707C333.277 21.3892 333.557 21.1078 333.838 20.9671C333.978 20.8264 334.119 20.6856 334.259 20.4042C334.399 20.2635 334.54 20.1228 334.68 19.982C334.68 19.7006 334.82 19.5598 334.961 19.4191C335.101 19.2784 335.242 19.1377 335.382 18.997C335.522 18.7156 335.663 18.5748 335.803 18.4341C335.943 18.2934 336.084 18.1527 336.364 18.0119C336.505 17.8712 336.786 17.5898 337.066 17.4491C337.347 17.1677 337.628 17.027 337.908 16.7455C338.189 16.4641 338.33 16.3233 338.33 16.1826C338.33 16.0419 338.189 15.9012 337.768 15.9012C337.768 15.9012 337.628 15.9012 337.487 15.9012C337.347 15.9012 337.207 15.9012 337.207 16.0419C336.926 16.1827 336.645 16.3234 336.224 16.4641C335.943 16.6048 335.663 16.8862 335.242 17.0269C335.242 17.0269 335.101 17.027 334.961 17.1677C334.82 17.3084 334.68 17.3084 334.54 17.4491C334.399 17.5898 334.259 17.5898 334.119 17.7305C333.978 17.8712 333.978 17.8713 333.978 17.8713C333.838 18.012 333.557 18.2934 333.136 18.7155C332.715 19.1377 332.294 19.5599 331.873 19.982C331.452 20.4042 331.031 20.9671 330.61 21.3892C330.189 21.8114 330.048 22.0928 329.908 22.3743H329.767C329.767 22.3743 329.767 22.3743 329.627 22.3743C329.627 22.515 329.487 22.6557 329.487 22.7964C329.487 22.9371 329.346 23.0778 329.206 23.2185C329.206 23.3593 329.066 23.6407 329.066 23.7815C329.066 24.0629 328.925 24.2036 328.925 24.485C328.925 24.7665 328.925 24.9072 328.925 25.1886C328.925 25.4701 329.066 25.6107 329.206 25.7515C329.346 25.7515 329.346 25.7515 329.487 25.8922C329.627 26.0329 329.487 26.0329 329.627 26.0329H329.487C329.487 26.0329 329.767 26.1736 329.908 26.1736C330.048 26.1736 330.469 26.1737 330.75 26.3144C331.031 26.3144 331.311 26.3144 331.592 26.3144C331.873 26.3144 332.013 26.3144 332.013 26.3144C332.154 26.3144 332.294 26.1736 332.575 26.1736C332.855 26.0329 332.996 26.0329 333.276 25.8922C333.557 25.7515 333.698 25.6107 333.978 25.47C334.259 25.3293 334.399 25.1886 334.399 25.1886C334.68 24.9072 334.82 24.7664 335.101 24.6257C335.382 24.485 335.663 24.2036 335.943 23.9221C335.943 23.7814 336.084 23.7815 336.224 23.7815L336.364 23.6407L336.505 23.5C336.505 23.5 336.505 23.5 336.645 23.5C336.645 23.3593 336.786 23.2185 336.786 23.2185C336.786 23.3593 336.786 23.5 336.786 23.6407C336.786 23.7814 336.645 23.9221 336.645 24.0628C336.505 24.3443 336.505 24.485 336.505 24.485C336.505 24.485 336.505 24.6257 336.364 24.7664C336.364 24.9071 336.224 24.9072 336.224 25.0479C336.224 25.1886 336.084 25.3293 335.943 25.47C335.943 25.47 335.943 25.6108 335.943 25.8922C335.943 26.1737 335.803 26.3144 335.803 26.3144L335.663 26.4551C335.663 26.4551 335.382 26.5958 335.101 26.7365C334.961 26.8772 334.68 27.018 334.399 27.2994C334.119 27.5809 333.838 27.8623 333.698 28.003C332.434 29.1288 331.031 30.3952 329.627 31.8023C328.223 33.2095 326.82 34.7574 325.697 36.3053C324.574 37.8532 323.451 39.4012 322.749 41.0898C322.048 42.6377 321.626 44.1856 321.626 45.7335C321.486 45.7335 321.626 45.8742 321.767 46.1556C321.907 46.4371 322.188 46.7186 322.469 47C322.749 47 323.03 47 323.451 47ZM320.925 15.6197C320.644 16.8862 320.223 18.1527 319.802 19.4191C317.837 19.8413 315.731 20.2634 313.626 20.8263C311.52 21.3892 309.555 21.8114 307.731 22.3743C308.854 20.5449 309.976 18.997 311.24 17.4491C312.503 15.9012 313.907 14.494 315.17 12.9461C315.872 12.2425 316.573 11.3982 317.416 10.6946C318.258 9.99098 318.96 9.1467 319.802 8.44311C320.644 7.73952 321.486 6.89524 322.188 6.19165C323.03 5.48805 323.732 4.78446 324.574 4.08087C324.574 4.08087 324.574 3.9401 324.714 3.9401C324.293 5.20657 324.013 6.61378 323.592 8.02097C323.17 9.42815 322.749 10.6946 322.188 11.9611C321.627 13.2275 321.205 14.3532 320.925 15.6197ZM323.592 15.479C324.013 14.3533 324.434 13.2275 324.855 12.1018C325.276 10.976 325.697 9.85031 326.118 8.72456C326.539 7.59881 326.96 6.47307 327.241 5.2066C327.381 4.92516 327.522 4.50299 327.522 4.22155C327.522 3.94012 327.662 3.51794 327.802 3.23651C327.802 2.81435 327.802 2.67363 327.802 2.53292C327.662 2.3922 327.662 2.2515 327.522 2.11078C327.522 1.97006 327.381 1.97004 327.381 1.82932C327.381 1.6886 327.381 1.68864 327.241 1.68864C327.101 1.4072 326.82 1.26645 326.679 1.12573C326.399 0.985012 326.118 0.844328 325.837 0.985046C324.995 1.12576 324.293 1.26645 323.592 1.82932C322.89 2.25148 322.188 2.67363 321.767 3.23651C319.942 4.78441 318.258 6.33235 316.573 8.02097C314.889 9.70959 313.345 11.5389 311.801 13.3683C310.257 15.1976 308.713 17.027 307.31 18.8563C305.906 20.6856 304.502 22.6557 303.099 24.485C302.116 24.7665 301.134 25.0479 300.011 25.47C299.028 25.7514 298.046 26.1737 297.063 26.5958C296.361 26.8773 295.519 27.018 294.817 27.2994C294.116 27.5809 293.273 27.8623 292.572 28.1437C292.151 28.2844 291.87 28.5659 291.589 28.7066C291.308 28.988 291.168 29.1287 291.028 29.2694C290.887 29.4101 290.887 29.5508 291.028 29.6916C291.168 29.8323 291.308 29.8323 291.729 29.6916C292.431 29.5508 293.133 29.2695 293.835 29.1287C294.537 28.988 295.239 28.8473 296.221 28.7066C296.502 28.7066 296.642 28.7065 296.923 28.5658C297.204 28.4251 297.344 28.4251 297.625 28.2844C298.046 28.1437 298.326 28.1437 298.607 28.003C298.888 28.003 299.028 28.003 299.309 27.8622C299.59 27.8622 299.73 27.8623 300.011 27.7216C300.291 27.7216 300.713 27.5808 301.134 27.4401C300.011 29.1287 298.748 30.9581 297.625 32.6467C296.502 34.3353 295.379 36.1646 294.256 37.994C293.975 38.4161 293.695 38.8383 293.414 39.2605C293.133 39.6826 292.852 40.1047 292.431 40.5269C292.291 40.6676 292.291 40.6676 292.151 40.8084C292.01 40.9491 291.87 40.9491 291.729 41.0898C291.589 41.2305 291.589 41.3712 291.449 41.5119C291.449 41.6527 291.449 41.7934 291.449 42.0749C291.589 42.497 291.87 42.9191 292.291 43.2006C292.712 43.6227 293.133 43.7634 293.694 43.7634C294.116 43.7634 294.396 43.7634 294.677 43.6227C294.958 43.482 295.098 43.3413 295.379 43.2006C295.519 43.0599 295.66 42.7784 295.8 42.497C295.94 42.2156 295.94 41.9341 296.081 41.6526C296.642 40.2454 297.344 38.8383 298.046 37.7125C298.748 36.5868 299.59 35.3204 300.432 34.0539C301.274 32.9281 301.976 31.6617 302.678 30.5359C303.379 29.4102 304.081 28.2844 305.064 27.1586C305.204 27.0179 305.344 26.8772 305.625 26.7365C305.906 26.5958 306.046 26.4551 306.187 26.4551C306.327 26.3143 306.748 26.1736 307.169 26.0329C307.59 25.8922 308.011 25.7515 308.292 25.7515C310.117 25.1886 312.082 24.6257 313.907 23.9221C315.731 23.3593 317.696 22.7964 319.661 22.3743C319.381 23.5 319.1 24.6257 318.819 25.7515C318.539 26.8772 318.258 28.1437 317.977 29.4102C317.837 30.1138 317.696 30.8173 317.556 31.6617C317.416 32.3652 317.275 33.2096 317.275 34.0539C317.416 34.0539 317.416 34.1946 317.556 34.3353C317.696 34.6168 317.696 34.7575 317.837 35.0389C317.977 35.3204 317.977 35.3204 318.117 35.4611C318.258 35.4611 318.398 35.3204 318.679 35.0389C319.381 32.7874 319.942 30.5359 320.504 28.5658C321.065 26.4551 321.626 24.3443 322.328 21.952C323.17 21.6706 324.013 21.3892 324.714 21.2485C325.416 21.1077 325.978 20.9671 326.539 20.6856C327.101 20.4042 327.662 20.4042 328.223 20.1227C328.785 19.8413 329.346 19.7006 330.048 19.4191C330.329 19.4191 330.469 19.2784 330.75 19.1377C331.031 18.997 331.031 18.8563 331.171 18.7155C331.171 18.5748 331.031 18.4341 330.89 18.4341C330.61 18.4341 330.329 18.4341 329.908 18.4341C328.645 18.5748 327.802 18.5749 327.381 18.5749C326.96 18.5749 326.539 18.5749 326.258 18.5749C325.978 18.5749 325.697 18.5748 325.416 18.7155C325.136 18.7155 324.434 18.8563 323.451 18.997C322.749 17.7305 323.17 16.6048 323.592 15.479ZM276.29 19.4191C276.992 18.7155 277.974 18.1527 278.957 17.8713C278.957 18.012 278.957 18.0119 278.816 18.0119C278.395 18.5748 277.834 19.1377 277.272 19.7006C276.711 20.2635 276.149 20.6856 275.588 21.2485C275.307 21.3892 275.167 21.53 274.886 21.6707C274.605 21.8114 274.465 21.8114 274.184 21.8114C274.886 20.9671 275.588 20.1227 276.29 19.4191ZM280.22 24.6257C280.36 24.485 280.641 24.3443 281.062 24.2036C281.483 23.9222 281.904 23.7814 282.325 23.5C282.746 23.2186 283.167 22.9371 283.729 22.6556C284.15 22.3742 284.571 22.0928 284.852 21.952C284.992 21.8113 285.273 21.6707 285.273 21.6707C285.413 21.6707 285.554 21.5299 285.554 21.3892C285.694 21.3892 285.694 21.2485 285.694 21.2485C285.834 21.1077 285.975 20.9671 286.115 20.6856C286.255 20.5449 286.396 20.4042 286.536 20.2635C286.676 20.1228 286.676 19.982 286.676 19.8413C286.676 19.7006 286.536 19.7006 286.255 19.7006C286.255 19.7006 286.255 19.7006 286.115 19.7006H285.975C285.694 19.7006 285.554 19.8413 285.413 19.8413C285.273 19.982 285.132 19.982 284.992 20.1227C284.571 20.4042 284.15 20.5449 283.729 20.8263C283.308 21.1078 282.746 21.2485 282.325 21.5299C281.764 21.8113 281.343 22.0928 280.922 22.2335C280.501 22.3742 280.22 22.6557 279.799 22.7964C279.378 22.9371 279.097 23.0778 278.676 23.3592C278.255 23.6407 277.834 23.7814 277.272 24.0628C276.992 24.2035 276.711 24.3443 276.43 24.3443C276.149 24.485 275.728 24.6257 275.447 24.6257C275.026 24.7664 274.605 24.9072 274.184 25.0479C273.763 25.1886 273.202 25.3294 272.64 25.1886C272.36 25.0479 272.36 24.7665 272.219 24.485C272.219 24.2036 272.219 23.9221 272.36 23.6407C272.5 23.3592 272.64 23.0778 272.781 22.7964C272.921 22.515 273.061 22.3743 273.342 22.0928C273.763 22.0928 274.325 22.0928 274.746 22.0928C275.167 21.9521 275.588 21.8114 275.869 21.6707C276.992 20.9671 278.114 19.982 279.237 18.997C279.237 18.8563 279.378 18.7156 279.518 18.5749C279.658 18.4341 279.799 18.2934 279.939 18.1527C280.079 18.012 280.22 17.8712 280.36 17.7305C280.5 17.5898 280.641 17.4491 280.641 17.3084C280.641 17.0269 280.501 16.6047 280.22 16.3233C279.939 16.0419 279.237 15.7605 278.255 15.7605C278.114 15.7605 277.974 15.7605 277.974 15.9012C277.834 15.9012 277.834 16.0419 277.693 16.0419C277.413 16.1827 277.132 16.3234 276.711 16.4641C276.29 16.6048 276.009 16.7455 275.728 17.0269C275.026 17.4491 274.465 17.8713 273.763 18.5749C273.061 19.2784 272.5 19.8413 271.938 20.5449C271.938 20.6856 271.798 20.8264 271.798 20.9671C271.798 21.1078 271.658 21.2485 271.517 21.3892C271.377 21.6707 271.237 22.0928 271.096 22.3743C270.956 22.7964 270.816 23.0778 270.675 23.5C270.535 23.9222 270.535 24.2036 270.535 24.6257C270.535 25.0479 270.675 25.3293 270.816 25.6108C271.096 26.0329 271.377 26.1736 271.798 26.4551C272.219 26.5958 272.64 26.7365 273.061 26.7365C273.482 26.7365 273.904 26.7365 274.325 26.5958C274.746 26.4551 275.167 26.4551 275.447 26.3144C275.728 26.1737 276.009 26.1736 276.29 26.0329C276.57 26.0329 276.851 25.8922 276.992 25.7515L280.22 24.6257ZM261.131 22.2335C260.99 22.3742 260.99 22.515 260.85 22.7964C260.71 23.0778 260.569 23.3592 260.429 23.6407C260.289 23.9221 260.288 24.2036 260.148 24.485C260.148 24.6258 260.148 24.6257 260.148 24.7664C260.148 24.9071 260.148 24.9072 260.148 24.9072C260.148 25.0479 260.148 25.0479 260.148 25.1886C260.148 25.3294 260.288 25.3293 260.288 25.47C260.288 25.47 260.288 25.4701 260.288 25.6108V25.7515C260.288 25.8922 260.289 26.0329 260.429 26.1736C260.429 26.3143 260.569 26.3143 260.569 26.4551C260.71 26.4551 260.85 26.4551 260.85 26.5958C260.99 26.5958 260.99 26.5958 261.131 26.7365C261.131 26.7365 261.271 26.8772 261.411 26.8772C261.692 27.0179 262.113 27.1587 262.534 27.018C262.955 27.018 263.376 26.8772 263.657 26.7365H263.797C263.797 26.7365 263.938 26.7365 263.938 26.5958C263.938 26.5958 263.938 26.5958 264.078 26.5958C265.061 26.0329 265.903 25.4701 266.745 24.9072C267.587 24.3443 268.57 23.7814 269.693 23.3592C270.114 23.3592 270.395 23.2186 270.675 23.0779C270.956 22.9371 271.237 22.7964 271.517 22.6556C271.517 22.6556 271.658 22.6556 271.798 22.6556C271.938 22.6556 272.079 22.6556 272.079 22.6556C272.36 22.3742 272.36 22.2335 272.219 22.2335C272.079 22.2335 271.798 22.0928 271.517 22.2335L268.851 22.6556C268.429 22.7964 268.008 22.9371 267.587 23.2185C267.166 23.5 266.605 23.7814 266.184 24.0628C265.622 24.3443 265.061 24.6257 264.499 24.9072C263.938 25.1886 263.376 25.4701 262.675 25.6108C262.675 25.4701 262.675 25.3293 262.815 25.0479C262.815 24.7664 262.955 24.485 263.096 24.2036C263.236 23.9222 263.236 23.6407 263.376 23.3592C263.517 23.0778 263.517 22.9371 263.657 22.7964C263.938 22.0928 264.219 21.53 264.64 20.9671C264.78 20.8264 264.78 20.5449 264.92 20.4042C265.061 20.2635 265.061 19.982 265.061 19.8413C265.061 19.7006 265.061 19.5599 264.92 19.5599C264.92 19.5599 264.78 19.4192 264.64 19.2784C264.64 19.2784 264.499 19.2784 264.499 19.1377L264.359 18.997C264.219 18.8563 264.078 18.7155 263.797 18.7155H263.096C262.675 18.7155 262.394 18.8563 261.973 18.997C261.692 19.1377 261.271 19.2784 260.99 19.4191C260.569 19.7006 260.008 19.982 259.587 20.4042C259.166 20.8263 258.604 21.2485 258.043 21.6707C257.481 22.0928 257.06 22.5149 256.639 22.9371C256.218 23.3592 255.797 23.7814 255.376 24.0628C255.376 23.7814 255.516 23.6407 255.516 23.3592C255.516 23.2185 255.657 22.9371 255.657 22.7964C255.797 22.515 255.937 22.0928 255.937 21.8114C255.937 21.5299 256.078 21.2485 256.218 20.9671C256.218 20.8264 256.218 20.6856 256.358 20.5449C256.358 20.4041 256.499 20.2635 256.499 20.2635C256.499 20.1228 256.499 19.982 256.639 19.8413C256.779 19.7006 256.779 19.5598 256.779 19.4191C257.06 18.7155 257.201 18.1527 257.622 17.5898C257.902 17.0269 258.183 16.4641 258.464 15.7605C258.744 15.1976 259.025 14.7754 259.166 14.2125C259.306 13.6497 259.587 13.0868 259.867 12.6647C259.867 12.6647 260.008 12.6647 259.867 12.524V12.3832C259.867 12.1018 260.008 11.8204 260.148 11.5389C260.288 11.2575 260.429 10.976 260.429 10.6946C260.569 10.4131 260.71 9.99105 260.99 9.70961C261.131 9.42817 261.271 9.006 261.552 8.72456C261.552 8.58384 261.692 8.44314 261.692 8.30242C261.692 8.16171 261.832 8.02092 261.832 7.8802C261.832 7.73948 261.973 7.59878 261.973 7.45806C261.973 7.31734 261.973 7.17664 262.113 7.03592L262.254 6.89524C262.254 6.75452 262.394 6.75447 262.394 6.75447C262.254 6.61375 262.113 6.47308 262.113 6.19165C262.113 5.91021 261.973 5.76942 261.692 5.76942C261.271 5.6287 260.99 5.76947 260.71 5.91019C260.569 5.91019 260.429 6.05089 260.288 6.33233C260.148 6.47305 260.008 6.61375 259.867 6.75447C259.727 6.89519 259.727 6.8952 259.727 7.03592C259.727 7.17664 259.587 7.17661 259.587 7.17661C259.166 8.30235 258.604 9.28744 258.183 10.1317C257.762 10.9761 257.2 11.9611 256.779 13.0868L256.218 13.9312C256.218 14.0719 256.078 14.2126 256.078 14.3533C256.078 14.494 255.937 14.6347 255.937 14.7754C255.797 14.9162 255.657 15.0569 255.657 15.1976C255.516 15.3383 255.516 15.479 255.516 15.7605C255.376 15.9012 255.235 16.1826 255.095 16.4641C254.955 16.7455 254.814 16.8862 254.674 17.1677C254.534 17.7305 254.393 18.1527 254.113 18.5749C253.832 18.997 253.692 19.4192 253.411 19.982C253.411 20.2635 253.27 20.4041 253.27 20.5449C253.27 20.6856 253.13 20.8264 253.13 20.9671C252.99 21.3892 252.849 21.8114 252.709 22.0928C252.569 22.3743 252.428 22.7964 252.288 23.2185C252.288 23.2185 252.288 23.2185 252.147 23.3592C251.867 24.0628 251.726 24.7664 251.446 25.47C251.165 26.1736 251.025 26.8772 251.025 27.8622C250.884 28.003 250.884 28.1437 251.025 28.2844C251.025 28.4251 251.165 28.5659 251.305 28.7066C251.446 28.8473 251.586 28.8473 251.726 28.8473C251.867 28.8473 251.867 28.7065 251.867 28.5658H252.007H252.147C252.147 28.4251 252.147 28.4251 252.288 28.4251C252.288 28.4251 252.428 28.2844 252.569 28.2844C252.709 28.2844 252.709 28.1437 252.849 28.1437C252.849 28.1437 252.99 28.003 252.99 27.8622C253.27 27.8622 253.411 27.8623 253.411 27.7216C253.411 27.7216 253.551 27.5809 253.691 27.2994C254.253 26.8773 254.814 26.3144 255.235 25.8922C255.797 25.4701 256.218 25.0479 256.779 24.485C257.06 24.3443 257.341 24.0629 257.762 23.7815C258.183 23.5 258.604 23.0778 259.025 22.7964C259.446 22.515 259.867 22.0928 260.288 21.8114C260.71 21.5299 260.99 21.2485 261.271 21.1078C261.552 20.9671 261.692 20.9671 261.692 20.9671C261.692 21.1078 261.552 21.2485 261.271 21.6707C261.271 21.9521 261.271 22.0928 261.131 22.2335ZM245.55 29.1287C245.691 29.1287 245.831 29.1287 245.972 28.988C246.112 28.988 246.112 28.988 246.112 28.8473C246.112 28.8473 246.112 28.7066 246.252 28.7066C246.252 28.5659 246.252 28.4251 246.252 28.2844C246.252 28.1437 246.252 28.003 246.393 27.8622L246.673 27.4401C246.673 27.2994 246.673 27.1587 246.673 27.018C246.673 26.8772 246.673 26.7365 246.673 26.5958C246.673 26.4551 246.673 26.3143 246.814 26.1736C246.814 26.0329 246.814 25.8922 246.954 25.7515C246.954 25.6107 246.954 25.6107 247.095 25.47C247.235 25.3293 247.235 25.3293 247.235 25.3293C247.375 25.0479 247.375 24.9072 247.516 24.6257C247.656 24.3443 247.656 24.0629 247.796 23.9221C247.796 23.6407 247.937 23.3593 248.077 23.2185C248.217 22.9371 248.217 22.7964 248.358 22.515C248.779 20.9671 249.2 19.5598 249.761 18.0119C250.323 16.464 250.744 15.0568 251.165 13.5089L251.305 13.0868C252.428 12.8054 253.551 12.6647 254.674 12.524C255.937 12.3833 256.92 12.2425 258.043 12.1018V11.9611C258.183 11.9611 258.183 11.8204 258.323 11.8204C258.464 11.8204 258.604 11.8203 258.745 11.6796V11.5389C258.745 11.3982 258.744 11.3982 258.885 11.2575C258.885 11.2575 258.885 11.2574 258.885 11.3982C258.885 11.3982 258.885 11.2575 258.745 11.2575V11.1168C258.323 10.9761 258.043 10.976 257.762 10.976C257.481 10.976 257.06 10.976 256.779 10.976C256.358 10.976 255.937 11.1168 255.797 11.1168C255.657 11.1168 255.516 11.1168 255.376 11.1168C255.235 11.1168 255.095 11.1168 254.955 11.1168C254.814 11.1168 254.534 11.1168 253.972 11.2575C253.691 11.2575 253.27 11.3982 252.99 11.3982C252.709 11.3982 252.288 11.5389 252.007 11.5389C252.288 10.9761 252.569 10.2725 252.849 9.70961C253.13 9.14673 253.411 8.58379 253.691 7.8802C254.113 7.17661 254.393 6.61378 254.674 5.91019C254.955 5.2066 255.235 4.50301 255.516 3.79942C255.516 3.6587 255.657 3.518 255.657 3.37728C255.657 3.23656 255.657 3.09582 255.797 3.09582C255.937 2.9551 255.937 2.8144 256.078 2.67369C256.078 2.53297 256.218 2.39218 256.078 2.25146C256.078 1.97002 255.797 1.82936 255.516 1.68864C255.235 1.54792 254.955 1.54787 254.674 1.54787C254.393 1.54787 254.113 1.54792 253.832 1.68864C253.551 1.82936 253.411 1.97009 253.27 1.97009C253.13 2.11081 253.13 2.25151 253.13 2.39223C253.13 2.53295 252.99 2.67365 252.99 2.81437C252.99 2.95509 252.849 3.23651 252.709 3.23651C252.569 3.37723 252.569 3.51793 252.569 3.65865C252.569 3.65865 252.428 3.79938 252.428 3.9401C252.428 4.08082 252.428 4.08084 252.288 4.22155C252.288 4.36227 252.148 4.64371 252.007 4.92515C251.867 5.3473 251.726 5.62872 251.586 6.05088C251.446 6.47303 251.305 6.75445 251.025 7.17661C250.604 8.02092 250.323 8.8653 249.902 9.70961C249.621 10.5539 249.2 11.3982 248.919 12.2425C248.779 12.2425 248.638 12.3832 248.498 12.3832C248.358 12.3832 248.217 12.3833 248.077 12.524C247.937 12.524 247.796 12.5239 247.516 12.6647C247.235 12.6647 246.814 12.8053 246.533 12.8053C246.252 12.8053 245.831 12.9461 245.41 13.0868C245.129 13.2275 244.849 13.2276 244.568 13.2276L244.007 13.5089C244.007 13.6497 243.866 13.7904 243.866 13.9312C243.726 14.0719 243.726 14.2126 243.726 14.3533C243.726 14.6347 243.585 14.7754 243.585 14.9161C243.585 15.0568 243.726 15.1976 243.866 15.3383C243.866 15.3383 244.007 15.4791 244.007 15.3383C244.007 15.1976 244.287 15.3383 244.428 15.3383C244.568 15.3383 244.708 15.1976 244.708 15.1976C244.849 15.0569 244.849 15.0568 244.989 14.9161C245.129 14.9161 245.41 14.7754 245.55 14.7754C245.691 14.7754 245.972 14.6348 246.112 14.6348C246.533 14.3533 246.954 14.2125 247.375 14.2125C247.796 14.2125 248.077 14.0719 248.358 13.9312C248.217 14.3533 248.077 14.7754 247.937 15.1976C247.796 15.6197 247.656 16.0419 247.516 16.4641C247.235 17.5898 246.814 18.5749 246.533 19.5599C246.252 20.5449 245.831 21.6707 245.55 22.7964C245.27 23.6407 245.129 24.6257 244.989 25.6108C244.849 26.5958 244.708 27.5809 244.568 28.7066C244.568 28.8473 244.568 28.988 244.568 29.1287C244.568 29.2695 244.708 29.4102 244.989 29.5509C245.27 29.1287 245.41 29.1287 245.55 29.1287ZM225.9 26.8772L226.461 26.4551C226.742 26.3143 227.023 26.1736 227.444 26.0329C227.865 25.8922 228.426 25.6108 229.269 25.1886L229.83 25.0479C229.549 25.47 229.128 25.8922 228.707 26.3144C228.286 26.7365 227.725 27.1587 226.882 27.7216L225.76 28.2844C225.619 28.2844 225.479 28.4251 225.198 28.5658C224.917 28.7065 224.637 28.8473 224.356 28.8473C224.075 28.988 223.935 28.988 223.794 28.988C223.654 28.988 223.514 28.988 223.654 28.8473C223.654 28.7066 223.794 28.7066 223.935 28.4251C224.075 28.2844 224.216 28.1437 224.496 28.003C224.637 27.8623 224.777 27.7215 225.058 27.4401C225.619 27.1587 225.76 27.0179 225.9 26.8772ZM235.444 21.3892L232.497 22.2335L232.357 22.3743C232.357 22.3743 232.356 22.3743 232.216 22.3743C232.076 22.3743 232.076 22.3743 232.076 22.3743C232.076 22.3743 232.076 22.3743 231.935 22.3743V22.2335C231.935 22.2335 231.795 22.0928 231.514 21.952C231.234 21.8113 231.093 21.6707 230.672 21.6707C230.391 21.6707 230.111 21.5299 229.83 21.5299C229.409 21.5299 228.847 21.5299 228.426 21.5299C228.005 21.5299 227.444 21.6707 227.163 21.6707C226.742 21.8114 226.321 21.8114 225.9 21.8114C226.181 21.5299 226.461 21.2485 226.882 20.9671L227.303 20.6856L227.865 20.1227L228.286 19.8413C228.567 19.7006 228.847 19.5598 229.269 19.4191C229.69 19.2784 229.97 19.1377 230.251 18.8563C230.391 18.8563 230.532 18.7156 230.672 18.5749C230.813 18.4341 230.813 18.4341 230.813 18.5749C230.953 18.5749 231.093 18.4341 231.234 18.2934H231.374L231.795 18.0119C231.935 18.0119 231.935 17.8712 232.076 17.7305C232.076 17.5898 232.076 17.4491 231.935 17.1677C231.795 17.1677 231.655 17.0269 231.374 17.0269C231.234 17.0269 230.953 16.8862 230.813 16.8862L230.532 17.0269C230.111 17.0269 229.69 17.1676 229.269 17.3084C228.847 17.4491 228.426 17.7305 228.005 17.8713C227.584 18.1527 227.163 18.4341 226.882 18.7155C226.461 18.997 226.181 19.2784 225.76 19.4191L225.619 19.5599C225.198 19.9821 224.917 20.2634 224.637 20.5449C224.356 20.8263 224.216 20.967 224.075 21.2485C224.075 21.3892 223.935 21.3892 223.935 21.5299C223.794 21.6706 223.794 21.8113 223.794 21.952C223.794 22.0928 223.794 22.2335 223.935 22.515C224.075 22.6557 224.216 22.9371 224.356 23.0779C224.356 23.0779 224.496 23.0778 224.496 23.2185C224.637 23.2185 224.637 23.2185 224.777 23.2185C225.198 23.2185 225.479 23.2185 225.76 23.2185C226.04 23.2185 226.321 23.0779 226.602 23.0779C227.163 22.9371 227.725 22.7964 228.426 22.7964C228.988 22.7964 229.549 22.7964 229.83 22.7964H229.97C230.251 22.6557 230.391 22.7964 230.111 22.7964C229.83 22.9371 229.409 23.0778 228.848 23.3592C228.286 23.6407 227.584 23.9221 226.742 24.3443C225.9 24.7664 225.198 25.1886 224.496 25.6108C223.794 26.0329 223.233 26.5958 222.672 27.1586C222.11 27.7215 221.97 28.2844 221.97 28.7066C221.97 29.1288 222.11 29.4102 222.25 29.5509C222.391 29.8323 222.812 29.973 223.373 29.973C223.654 29.973 223.935 29.973 224.356 29.8323C224.777 29.6916 225.338 29.5509 225.9 29.1287C226.04 28.988 226.321 28.988 226.602 28.7066C226.882 28.5659 227.163 28.2844 227.444 28.1437C227.725 27.8623 228.146 27.5808 228.707 27.1586C229.128 26.7365 229.69 26.3143 230.391 25.7515L230.672 25.47C230.813 25.3293 231.093 25.0479 231.234 24.7664C231.374 24.485 231.795 23.9222 232.076 23.0779C232.076 23.0779 232.076 23.0779 232.216 23.0779H232.357C232.357 23.0779 232.637 23.0778 232.918 22.9371C233.339 22.7964 233.76 22.6557 234.181 22.515C234.602 22.3742 235.164 22.2335 235.585 22.0928C236.006 21.9521 236.427 21.8114 236.708 21.6707C236.988 21.6707 237.269 21.5299 237.41 21.2485C237.55 21.1077 237.41 20.8263 236.988 20.5449H236.708H236.567H236.287C236.146 20.5449 236.146 20.6856 236.006 20.6856C235.866 20.6856 235.866 20.6856 235.725 20.6856C235.725 21.3892 235.585 21.3892 235.444 21.3892ZM220.987 23.2185C220.426 23.5 220.005 23.7814 219.443 23.9221C219.303 24.0629 219.022 24.0628 218.741 24.3443C218.461 24.6257 218.32 24.6257 218.04 24.7664C217.759 24.9071 217.619 24.9071 217.478 24.7664C217.338 24.7664 217.197 24.485 217.197 24.0628L217.478 23.0779C217.619 22.9371 217.619 22.7964 217.619 22.6556C217.619 22.5149 217.619 22.515 217.619 22.3743C217.619 22.2336 217.759 22.0928 217.899 21.952V21.8114C218.04 21.6706 218.18 21.3892 218.18 21.1078C218.32 20.8263 218.461 20.5449 218.601 20.4042C218.741 20.1227 218.882 19.982 219.022 19.7006C219.022 19.4191 218.882 19.1377 218.741 19.1377C218.601 18.997 218.32 18.997 218.32 18.8563H217.759H217.478C217.338 18.8563 217.197 18.8563 217.197 18.8563L217.057 18.997C217.057 18.997 217.057 19.1377 217.057 19.2784C217.057 19.4192 216.917 19.4192 216.917 19.5599L216.776 19.7006H216.636C216.355 19.982 216.215 20.2635 215.934 20.4042C215.654 20.5449 215.513 20.6856 215.232 20.9671C214.25 21.6707 213.408 22.3742 212.566 22.9371C211.723 23.6407 210.741 24.2035 209.758 24.7664C209.618 24.9071 209.337 25.0479 209.056 25.1886C209.056 24.9072 209.197 24.7665 209.337 24.485C209.478 24.2036 209.618 24.0629 209.618 23.7815C209.758 23.6407 209.899 23.4999 209.899 23.3592C210.039 23.2185 210.179 23.0778 210.32 22.9371C210.46 22.7964 210.46 22.7964 210.46 22.6556C210.6 22.5149 210.881 22.5149 210.881 22.2335C210.881 21.9521 211.162 21.9521 211.302 21.8114C211.583 21.5299 211.723 21.3892 212.004 21.1078C212.285 20.8263 212.425 20.6856 212.706 20.4042C212.846 20.2635 212.987 20.1227 213.127 20.1227C213.267 19.982 213.408 19.8413 213.548 19.7006C213.829 19.5599 213.969 19.4192 214.25 19.2784C214.531 19.1377 214.671 18.997 214.952 18.997C214.952 18.8563 215.092 18.7155 215.232 18.7155C215.373 18.7155 215.373 18.7155 215.513 18.7155L215.653 18.5749L216.215 18.2934C216.496 18.012 216.776 17.8712 217.057 17.7305C217.197 17.7305 217.338 17.5898 217.338 17.7305C217.338 17.8712 217.478 17.7305 217.619 17.5898C217.759 17.5898 217.759 17.4491 217.899 17.3084C217.899 17.1676 217.899 17.0269 217.899 17.0269C217.899 16.8862 217.899 16.7455 217.759 16.6048C217.619 16.464 217.478 16.3233 217.338 16.1826C217.057 16.1826 216.917 16.1827 216.776 16.0419C216.776 16.0419 216.636 16.1827 216.636 16.0419H216.496C216.075 16.1827 215.794 16.3234 215.653 16.4641C215.513 16.7455 215.232 16.8862 214.952 17.0269C214.811 17.0269 214.531 17.3084 213.969 17.5898C213.548 17.8712 212.987 18.2934 212.566 18.8563C212.004 19.2785 211.583 19.8413 211.022 20.2635C210.6 20.6856 210.179 20.967 209.899 21.2485C209.618 21.6706 209.337 21.9521 209.056 22.3743C208.776 22.6557 208.495 23.0778 208.355 23.5C208.214 23.7814 208.074 23.9222 207.934 24.2036C207.793 24.485 207.653 24.7664 207.653 25.0479V25.1886C207.512 25.7515 207.653 26.0329 207.934 26.3144C208.074 26.4551 208.214 26.5958 208.495 26.5958C208.776 26.5958 208.916 26.5958 209.197 26.5958C209.337 26.5958 209.478 26.7365 209.618 26.7365H210.039C210.179 26.7365 210.46 26.7365 210.601 26.5958C210.741 26.4551 211.022 26.3143 211.162 26.1736C211.864 25.8922 212.566 25.47 213.267 25.0479C213.267 24.9072 213.408 24.9072 213.548 24.9072C213.688 24.9072 213.688 24.7664 213.829 24.7664C213.829 24.7664 213.969 24.6257 214.11 24.6257C214.25 24.6257 214.25 24.485 214.39 24.3443C214.531 24.2036 214.811 24.2035 214.811 24.0628C214.952 23.9221 215.092 23.7814 215.232 23.6407C215.373 23.6407 215.373 23.5 215.513 23.5L215.653 23.3592C215.653 23.3592 215.653 23.3592 215.794 23.3592C215.794 23.6407 215.653 24.0628 215.794 24.3443C215.794 24.6257 215.794 24.9072 215.934 25.1886C216.075 25.3294 216.075 25.6107 216.215 25.7515C216.355 25.8922 216.496 26.0329 216.776 26.1736C216.917 26.1736 216.917 26.1737 217.057 26.3144H217.197C217.759 26.4551 218.32 26.4551 218.741 26.3144C219.163 26.1737 219.584 26.0329 220.005 25.7515C220.426 25.47 220.707 25.1886 221.128 24.9072C221.549 24.6257 221.829 24.3443 222.391 24.2036C222.391 24.2036 222.531 24.2035 222.672 24.0628C222.812 23.9221 223.093 23.7814 223.514 23.3592C223.654 23.0778 223.654 23.0778 223.794 22.9371C223.935 22.9371 224.075 22.7964 224.075 22.7964C224.356 22.515 224.496 22.3742 224.356 22.2335C224.216 22.0928 223.654 22.2335 222.952 22.515C221.97 22.6557 221.408 22.9371 220.987 23.2185ZM209.478 16.4641C209.478 16.3234 209.478 16.3233 209.618 16.3233C209.618 16.3233 209.758 16.1827 209.758 16.0419C209.758 15.9012 209.618 15.7605 209.618 15.7605C209.618 15.7605 209.618 15.7605 209.478 15.7605C209.337 15.7605 209.197 15.7605 209.056 15.7605C208.214 16.3234 207.512 17.027 206.951 17.8713C206.249 18.5749 205.688 19.4192 205.126 20.2635C204.565 20.9671 204.144 21.5299 203.863 21.8114C203.582 22.0928 203.442 22.3742 203.302 22.515C203.161 22.6557 203.161 22.6556 203.161 22.6556C203.161 22.6556 203.021 22.7964 202.881 22.7964C202.74 22.9371 202.6 23.0778 202.319 23.3592C202.038 23.6407 201.617 24.0628 201.056 24.7664C200.915 24.9071 200.635 24.9072 200.494 24.6257C200.354 24.3443 200.073 24.0628 199.933 23.6407C199.652 23.2185 199.512 22.6557 199.231 22.2335C198.95 21.8113 198.81 21.1078 198.529 20.6856C198.249 20.2635 198.108 19.8413 197.968 19.5599C197.828 19.2785 197.547 19.1377 197.406 19.2784C197.126 19.2784 196.985 19.1377 196.985 18.997C196.985 18.8563 196.845 18.8563 196.705 18.8563C196.564 18.8563 196.424 18.8563 196.284 18.8563C196.143 18.8563 196.003 18.8563 196.003 18.8563C195.722 18.997 195.441 19.2785 195.301 19.5599C195.161 19.8413 194.88 20.1227 194.599 20.4042C193.897 21.2485 193.196 22.0928 192.634 22.9371C192.073 23.7814 191.371 24.6257 190.669 25.3293C190.669 24.7664 190.669 24.2036 190.809 23.6407C190.95 23.0778 191.09 22.515 191.231 22.0928C191.371 21.6707 191.652 21.1077 191.792 20.5449C192.073 20.1227 192.213 19.5598 192.354 19.1377C192.354 18.997 192.494 18.997 192.494 18.8563C192.634 18.7156 192.634 18.5748 192.634 18.4341C192.775 18.0119 192.634 17.5898 192.213 17.3084C191.932 17.0269 191.511 16.7455 191.09 16.6048C190.809 16.6048 190.529 16.6048 190.388 16.6048C190.248 16.6048 190.108 16.7455 190.108 16.7455C190.108 16.8862 190.108 16.8862 189.967 17.1677C189.827 17.4491 189.967 17.4491 189.967 17.7305C189.827 18.1526 189.827 18.5748 189.687 18.997C189.546 19.4191 189.406 19.982 189.266 20.4042C189.125 20.8263 188.985 21.3892 188.844 21.8114C188.704 22.2335 188.704 22.6557 188.704 23.0779C188.704 23.5 188.704 23.9221 188.564 24.3443C188.564 24.7664 188.564 25.1886 188.704 25.7515C188.704 25.8922 188.704 26.0329 188.704 26.1736C188.704 26.3143 188.704 26.4551 188.704 26.5958C188.844 27.018 188.985 27.2994 189.125 27.4401C189.265 27.5808 189.546 27.7215 189.967 27.8622C190.81 28.003 191.231 28.003 191.652 27.7216C192.073 27.4401 192.213 27.1586 192.634 26.8772C193.055 26.5958 193.476 26.1737 194.038 25.6108C194.318 25.3293 194.459 25.0479 194.599 24.7664C194.74 24.485 194.88 24.2035 195.02 24.0628C195.301 23.7814 195.441 23.5 195.722 23.2185C196.003 22.9371 196.143 22.6557 196.143 22.3743C196.284 22.2336 196.284 22.0928 196.424 21.952C196.564 21.8113 196.564 21.6707 196.845 21.6707C196.985 22.2336 197.126 22.9371 197.266 23.5C197.407 24.0629 197.687 24.7664 198.108 25.3293C198.108 25.47 198.249 25.4701 198.249 25.6108C198.389 25.7515 198.389 25.8922 198.529 26.0329C198.67 26.1736 198.67 26.3143 198.81 26.4551C198.95 26.5958 199.091 26.7365 199.091 26.7365C199.793 27.0179 200.354 27.2994 200.775 27.2994C201.196 27.2994 201.477 27.2994 201.758 27.1586C202.038 27.0179 202.319 26.7365 202.6 26.4551C202.881 26.1736 203.161 25.8922 203.582 25.47C203.863 25.1886 204.284 24.6257 204.705 24.0628C205.126 23.4999 205.547 22.7964 205.969 22.2335C206.39 21.5299 206.811 20.8263 207.372 20.1227C207.934 19.4191 208.214 18.8563 208.635 18.1527C208.776 17.7306 209.057 17.4491 209.197 17.1677C209.478 16.8862 209.618 16.6047 209.758 16.3233C209.758 16.464 209.618 16.4641 209.478 16.4641ZM171.019 19.4191C171.72 18.7155 172.703 18.1527 173.685 17.8713C173.685 18.012 173.685 18.0119 173.545 18.0119C173.124 18.5748 172.563 19.1377 172.001 19.7006C171.44 20.2635 170.878 20.6856 170.317 21.2485C170.036 21.3892 169.896 21.53 169.615 21.6707C169.334 21.8114 169.194 21.8114 168.913 21.8114C169.475 20.9671 170.176 20.1227 171.019 19.4191ZM174.808 24.6257C174.949 24.485 175.229 24.3443 175.65 24.2036C176.072 23.9222 176.493 23.7814 176.914 23.5C177.335 23.2186 177.756 22.9371 178.317 22.6556C178.738 22.3742 179.159 22.0928 179.44 21.952C179.581 21.8113 179.861 21.6707 179.861 21.6707C179.861 21.6707 180.142 21.5299 180.142 21.3892C180.282 21.3892 180.282 21.2485 180.282 21.2485C180.423 21.1077 180.563 20.9671 180.703 20.6856C180.844 20.4042 180.984 20.4042 181.125 20.2635C181.265 20.1228 181.265 19.982 181.265 19.8413C181.265 19.7006 181.125 19.7006 180.844 19.7006C180.844 19.7006 180.844 19.7006 180.703 19.7006C180.563 19.7006 180.563 19.7006 180.563 19.7006C180.282 19.7006 180.142 19.8413 180.002 19.8413C179.861 19.982 179.721 19.982 179.581 20.1227C179.159 20.4042 178.738 20.5449 178.317 20.8263C177.896 21.1078 177.335 21.2485 176.914 21.5299C176.352 21.8113 175.931 22.0928 175.51 22.2335C175.089 22.3742 174.808 22.6557 174.387 22.7964C173.966 22.9371 173.685 23.0778 173.264 23.3592C172.843 23.4999 172.422 23.7814 171.861 24.0628C171.58 24.2035 171.299 24.3443 171.019 24.3443C170.738 24.485 170.317 24.6257 170.036 24.6257C169.615 24.7664 169.194 24.9072 168.773 25.0479C168.352 25.1886 167.79 25.3294 167.369 25.1886C167.088 25.0479 167.088 24.7665 166.948 24.485C166.948 24.2036 166.948 23.9221 167.088 23.6407C167.229 23.3592 167.369 23.0778 167.509 22.7964C167.65 22.515 167.79 22.3743 168.071 22.0928C168.492 22.0928 169.053 22.0928 169.474 22.0928C169.896 22.0928 170.317 21.8114 170.597 21.6707C171.72 20.9671 172.843 19.982 173.966 18.997C173.966 18.8563 174.106 18.7156 174.247 18.5749C174.387 18.4341 174.528 18.2934 174.668 18.1527C174.808 18.012 174.808 17.8712 175.089 17.7305C175.229 17.5898 175.37 17.4491 175.37 17.3084C175.37 17.0269 175.229 16.6047 174.949 16.3233C174.668 16.0419 173.966 15.7605 172.984 15.7605C172.843 15.7605 172.703 15.7605 172.703 15.9012C172.703 15.9012 172.563 16.0419 172.422 16.0419C172.141 16.1827 171.861 16.3234 171.44 16.4641C171.019 16.6048 170.738 16.7455 170.457 17.0269C169.755 17.4491 169.194 17.8713 168.492 18.5749C167.79 19.2784 167.229 19.8413 166.667 20.5449C166.667 20.6856 166.527 20.8264 166.527 20.9671C166.387 21.1078 166.387 21.2485 166.246 21.3892C166.106 21.6707 165.965 22.0928 165.825 22.3743C165.685 22.7964 165.544 23.0778 165.404 23.5C165.264 23.9222 165.264 24.2036 165.264 24.6257C165.264 25.0479 165.404 25.3293 165.544 25.6108C165.825 26.0329 166.106 26.1736 166.527 26.4551C166.948 26.5958 167.369 26.7365 167.79 26.7365C168.211 26.7365 168.632 26.7365 169.053 26.5958C169.475 26.4551 169.896 26.4551 170.176 26.3144C170.457 26.1737 170.738 26.1736 171.019 26.0329C171.299 26.0329 171.58 25.8922 171.72 25.7515L174.808 24.6257ZM154.596 26.8772L155.158 26.4551C155.438 26.3143 155.719 26.1736 156.14 26.0329C156.561 25.8922 157.123 25.6108 157.965 25.1886L158.526 25.0479C158.246 25.47 157.825 25.8922 157.403 26.3144C156.982 26.7365 156.421 27.1587 155.579 27.7216L154.456 28.2844C154.316 28.2844 154.175 28.4251 153.894 28.5658C153.614 28.7065 153.333 28.8473 153.052 28.8473C152.772 28.988 152.631 28.988 152.491 28.988C152.35 28.988 152.21 28.988 152.35 28.8473C152.35 28.7066 152.491 28.7066 152.631 28.4251C152.771 28.2844 152.912 28.1437 153.193 28.003C153.333 27.8623 153.473 27.7215 153.754 27.4401C154.175 27.1587 154.315 27.0179 154.596 26.8772ZM164.141 21.3892L161.193 22.2335L161.053 22.3743C161.053 22.3743 161.053 22.3743 160.912 22.3743C160.772 22.3743 160.772 22.3743 160.772 22.3743C160.772 22.3743 160.772 22.3743 160.632 22.3743V22.2335C160.632 22.2335 160.491 22.0928 160.211 21.952C159.93 21.8113 159.79 21.6707 159.369 21.6707C159.088 21.6707 158.807 21.5299 158.526 21.5299C158.105 21.5299 157.544 21.5299 157.123 21.5299C156.702 21.5299 156.14 21.6707 155.859 21.6707C155.438 21.8114 155.158 21.8114 154.596 21.8114C154.877 21.5299 155.158 21.2485 155.579 20.9671L156 20.6856L156.561 20.1227L156.982 19.8413C157.263 19.7006 157.544 19.5598 157.965 19.4191C158.386 19.2784 158.667 19.1377 158.947 18.8563C159.088 18.8563 159.228 18.7156 159.369 18.5749C159.509 18.4341 159.509 18.4341 159.509 18.5749C159.649 18.5749 159.79 18.4341 159.93 18.2934H160.07L160.491 18.0119C160.632 18.0119 160.632 17.8712 160.772 17.7305C160.772 17.5898 160.772 17.4491 160.632 17.1677C160.491 17.1677 160.351 17.0269 160.07 17.0269C159.93 17.0269 159.649 16.8862 159.509 16.8862L159.228 17.0269C158.807 17.0269 158.386 17.1676 157.965 17.3084C157.544 17.4491 157.123 17.7305 156.702 17.8713C156.281 18.1527 156 18.4341 155.579 18.7155C155.158 18.997 154.877 19.2784 154.456 19.4191L154.315 19.5599C153.894 19.9821 153.614 20.2634 153.333 20.5449C153.052 20.8263 152.912 20.967 152.772 21.2485C152.772 21.3892 152.631 21.3892 152.631 21.5299C152.631 21.6706 152.491 21.8113 152.491 21.952C152.491 22.0928 152.491 22.2335 152.631 22.515C152.771 22.6557 152.912 22.9371 153.052 23.0779C153.052 23.0779 153.193 23.0778 153.193 23.2185C153.333 23.2185 153.333 23.2185 153.473 23.2185C153.894 23.2185 154.175 23.2185 154.456 23.2185C154.737 23.2185 155.017 23.0779 155.298 23.0779C155.859 22.9371 156.421 22.7964 157.123 22.7964C157.684 22.7964 158.246 22.7964 158.526 22.7964H158.667C158.947 22.6557 159.088 22.7964 158.807 22.7964C158.526 22.9371 158.105 23.0778 157.544 23.3592C156.982 23.6407 156.281 23.9221 155.438 24.3443C154.596 24.7664 153.894 25.1886 153.193 25.6108C152.491 26.0329 151.929 26.5958 151.368 27.1586C150.947 27.7215 150.666 28.2844 150.666 28.7066C150.666 29.1288 150.806 29.4102 150.947 29.5509C151.087 29.8323 151.508 29.973 152.07 29.973C152.35 29.973 152.631 29.973 153.052 29.8323C153.473 29.6916 154.035 29.5509 154.596 29.1287C154.737 28.988 155.017 28.988 155.298 28.7066C155.579 28.5659 155.859 28.2844 156.14 28.1437C156.421 28.003 156.842 27.5808 157.403 27.1586C157.965 26.7365 158.386 26.3143 159.088 25.7515L159.369 25.47C159.509 25.3293 159.79 25.0479 159.93 24.7664C160.07 24.485 160.491 23.9222 160.772 23.0779C160.772 23.0779 160.772 23.0779 160.912 23.0779H161.053C161.053 23.0779 161.334 23.0778 161.614 22.9371C162.035 22.7964 162.456 22.6557 162.878 22.515C163.299 22.3742 163.86 22.2335 164.281 22.0928C164.702 21.9521 165.123 21.8114 165.404 21.6707C165.685 21.6707 165.966 21.5299 166.106 21.2485C166.246 21.1077 166.106 20.8263 165.685 20.5449H165.264H165.123H164.843C164.702 20.5449 164.702 20.6856 164.562 20.6856C164.421 20.6856 164.422 20.6856 164.281 20.6856C164.281 21.3892 164.141 21.3892 164.141 21.3892ZM143.087 19.4191C143.788 18.7155 144.771 18.1527 145.753 17.8713C145.753 18.012 145.753 18.0119 145.613 18.0119C145.192 18.5748 144.631 19.1377 144.069 19.7006C143.508 20.2635 142.946 20.6856 142.385 21.2485C142.104 21.3892 141.964 21.53 141.683 21.6707C141.402 21.8114 141.262 21.8114 140.981 21.8114C141.543 20.9671 142.385 20.1227 143.087 19.4191ZM147.017 24.6257C147.157 24.485 147.578 24.3443 147.859 24.2036C148.28 23.9222 148.701 23.7814 149.122 23.5C149.543 23.2186 149.964 22.9371 150.526 22.6556C150.947 22.3742 151.368 22.0928 151.649 21.952C151.789 21.8113 152.07 21.6707 152.07 21.6707C152.21 21.6707 152.35 21.5299 152.35 21.3892C152.491 21.3892 152.491 21.2485 152.491 21.2485C152.631 21.1077 152.771 20.9671 152.912 20.6856C153.052 20.4042 153.193 20.4042 153.333 20.2635C153.473 20.1228 153.473 19.982 153.473 19.8413C153.473 19.7006 153.333 19.7006 153.052 19.7006C153.052 19.7006 153.052 19.7006 152.912 19.7006C152.771 19.7006 152.772 19.7006 152.772 19.7006C152.491 19.7006 152.35 19.8413 152.21 19.8413C152.07 19.982 151.929 19.982 151.789 20.1227C151.368 20.4042 150.947 20.5449 150.526 20.8263C150.105 21.1078 149.543 21.2485 149.122 21.5299C148.561 21.8113 148.14 22.0928 147.718 22.2335C147.297 22.3742 147.017 22.6557 146.596 22.7964C146.174 22.9371 145.894 23.0778 145.473 23.3592C145.052 23.6407 144.631 23.7814 144.069 24.0628C143.788 24.2035 143.508 24.3443 143.227 24.3443C142.946 24.485 142.525 24.6257 142.244 24.6257C141.823 24.7664 141.402 24.9072 140.981 25.0479C140.56 25.1886 139.999 25.3294 139.437 25.1886C139.156 25.0479 139.156 24.7665 139.016 24.485C139.016 24.2036 139.016 23.9221 139.156 23.6407C139.297 23.3592 139.437 23.0778 139.577 22.7964C139.718 22.515 139.858 22.3743 140.139 22.0928C140.56 22.0928 141.122 22.0928 141.543 22.0928C141.964 21.9521 142.385 21.8114 142.665 21.6707C143.788 20.9671 144.911 19.982 146.034 18.997C146.034 18.8563 146.174 18.7156 146.315 18.5749C146.455 18.4341 146.596 18.2934 146.736 18.1527C146.876 18.012 147.017 17.8712 147.157 17.7305C147.297 17.5898 147.438 17.4491 147.438 17.3084C147.438 17.0269 147.297 16.6047 147.017 16.3233C146.736 16.0419 146.034 15.7605 145.052 15.7605C144.911 15.7605 144.771 15.7605 144.771 15.9012C144.771 15.9012 144.631 16.0419 144.49 16.0419C144.209 16.1827 143.929 16.3234 143.508 16.4641C143.087 16.6048 142.806 16.7455 142.525 17.0269C141.823 17.4491 141.262 17.8713 140.56 18.5749C139.858 19.2784 139.297 19.8413 138.735 20.5449C138.735 20.6856 138.595 20.8264 138.595 20.9671C138.595 21.1078 138.455 21.2485 138.314 21.3892C138.174 21.6707 138.034 22.0928 137.893 22.3743C137.753 22.7964 137.612 23.0778 137.472 23.5C137.332 23.9222 137.332 24.2036 137.332 24.6257C137.332 25.0479 137.472 25.3293 137.612 25.6108C137.893 26.0329 138.174 26.1736 138.595 26.4551C139.016 26.5958 139.437 26.7365 139.858 26.7365C140.279 26.7365 140.7 26.7365 141.122 26.5958C141.543 26.4551 141.964 26.4551 142.244 26.3144C142.525 26.1737 142.806 26.1736 143.087 26.0329C143.367 26.0329 143.648 25.8922 143.788 25.7515L147.017 24.6257ZM127.928 22.2335C127.787 22.3742 127.787 22.515 127.647 22.7964C127.506 23.0778 127.366 23.3592 127.226 23.6407C127.085 23.9221 127.085 24.2036 126.945 24.485C126.945 24.6258 126.945 24.6257 126.945 24.7664V24.9072C126.945 25.0479 126.945 25.0479 126.945 25.1886C126.945 25.3294 127.085 25.3293 127.085 25.47C127.085 25.47 127.085 25.4701 127.085 25.6108V25.7515C127.085 25.8922 127.085 26.0329 127.226 26.1736C127.226 26.3143 127.366 26.3143 127.366 26.4551C127.506 26.4551 127.647 26.4551 127.647 26.5958C127.787 26.5958 127.787 26.5958 127.928 26.7365C127.928 26.7365 128.068 26.8772 128.208 26.8772C128.489 27.0179 128.91 27.1587 129.331 27.018C129.752 27.018 130.173 26.8772 130.454 26.7365H130.594C130.594 26.7365 130.735 26.7365 130.735 26.5958C130.735 26.5958 130.735 26.5958 130.875 26.5958C131.858 26.0329 132.7 25.4701 133.542 24.9072C134.384 24.3443 135.367 23.7814 136.49 23.3592C136.911 23.3592 137.191 23.2186 137.472 23.0779C137.753 22.9371 138.034 22.7964 138.314 22.6556C138.314 22.6556 138.455 22.6556 138.595 22.6556C138.735 22.6556 138.876 22.6556 138.876 22.6556C139.156 22.3742 139.156 22.2335 139.016 22.2335C138.876 22.0928 138.595 22.0928 138.314 22.2335L135.647 22.6556C135.226 22.7964 134.805 22.9371 134.384 23.2185C133.963 23.5 133.402 23.7814 132.98 24.0628C132.419 24.3443 131.858 24.6257 131.296 24.9072C130.735 25.1886 130.173 25.4701 129.471 25.6108C129.471 25.4701 129.472 25.3293 129.612 25.0479C129.612 24.7664 129.752 24.485 129.893 24.2036C130.033 23.9222 130.033 23.6407 130.173 23.3592C130.314 23.0778 130.314 22.9371 130.454 22.7964C130.735 22.0928 131.015 21.53 131.437 20.9671C131.577 20.8264 131.577 20.5449 131.717 20.4042C131.858 20.2635 131.858 19.982 131.858 19.8413C131.858 19.7006 131.858 19.5599 131.717 19.5599C131.717 19.5599 131.577 19.4192 131.437 19.2784C131.437 19.2784 131.296 19.2784 131.296 19.1377L131.156 18.997C131.015 18.8563 130.875 18.7155 130.594 18.7155H129.893C129.472 18.7155 129.191 18.8563 128.77 18.997C128.489 19.1377 128.068 19.2784 127.787 19.4191C127.366 19.7006 126.805 19.982 126.384 20.4042C125.822 20.8263 125.401 21.2485 124.84 21.6707C124.278 22.0928 123.857 22.5149 123.436 22.9371C123.015 23.3592 122.594 23.7814 122.173 24.0628C122.173 23.7814 122.313 23.6407 122.313 23.3592C122.313 23.2185 122.453 22.9371 122.453 22.7964C122.594 22.515 122.734 22.0928 122.734 21.8114C122.734 21.5299 122.874 21.2485 123.015 20.9671C123.015 20.8264 123.015 20.6856 123.155 20.5449C123.155 20.4041 123.296 20.2635 123.296 20.2635C123.296 20.1228 123.296 19.982 123.436 19.8413C123.576 19.7006 123.576 19.5598 123.576 19.4191C123.857 18.7155 123.997 18.1527 124.418 17.5898C124.699 17.0269 124.98 16.4641 125.261 15.7605C125.541 15.1976 125.822 14.7754 125.962 14.2125C126.103 13.6497 126.383 13.0868 126.664 12.6647C126.664 12.6647 126.805 12.6647 126.664 12.524V12.3832C126.664 12.1018 126.805 11.8204 126.945 11.5389C127.085 11.2575 127.226 10.976 127.226 10.6946C127.366 10.4131 127.506 9.99105 127.787 9.70961C127.928 9.42817 128.068 9.006 128.349 8.72456C128.349 8.58384 128.489 8.44314 128.489 8.30242C128.489 8.16171 128.629 8.02092 128.77 7.8802C128.77 7.73948 128.91 7.59878 128.91 7.45806C128.91 7.31734 128.91 7.17664 129.05 7.03592L129.191 6.89524C129.191 6.75452 129.331 6.75447 129.331 6.75447C129.191 6.61375 129.05 6.47308 129.05 6.19165C129.05 5.91021 128.91 5.76942 128.629 5.76942C128.208 5.6287 127.927 5.76947 127.647 5.91019C127.506 5.91019 127.366 6.05089 127.226 6.33233C127.085 6.47305 126.945 6.61375 126.805 6.75447C126.664 6.89519 126.664 6.8952 126.664 7.03592C126.664 7.17664 126.524 7.17661 126.384 7.17661C125.962 8.30235 125.401 9.28744 124.98 10.1317C124.419 10.9761 123.997 11.9611 123.576 13.0868L123.015 13.9312C123.015 14.0719 122.875 14.2126 122.875 14.3533C122.875 14.494 122.734 14.6347 122.734 14.7754C122.594 14.9162 122.594 15.0569 122.453 15.1976C122.313 15.3383 122.313 15.479 122.313 15.7605C122.173 15.9012 122.032 16.1826 121.892 16.4641C121.752 16.7455 121.611 16.8862 121.471 17.1677C121.331 17.7305 121.19 18.1527 120.909 18.5749C120.629 18.997 120.488 19.4192 120.208 19.982C120.208 20.2635 120.067 20.4041 120.067 20.5449C120.067 20.6856 119.927 20.8264 119.927 20.9671C119.787 21.3892 119.646 21.8114 119.506 22.0928C119.365 22.3743 119.225 22.7964 119.085 23.2185C119.085 23.2185 119.085 23.2185 118.944 23.3592C118.664 24.0628 118.523 24.7664 118.243 25.47C117.962 26.1736 117.821 26.8772 117.821 27.8622C117.681 28.003 117.681 28.1437 117.821 28.2844C117.962 28.4251 117.962 28.5659 118.102 28.7066C118.243 28.8473 118.383 28.8473 118.523 28.8473C118.664 28.8473 118.664 28.7065 118.664 28.5658H118.804H118.944C118.944 28.4251 118.944 28.4251 119.085 28.4251L119.225 28.2844C119.365 28.2844 119.365 28.1437 119.506 28.1437C119.506 28.1437 119.646 28.003 119.646 27.8622C119.927 27.8622 120.067 27.8623 120.067 27.7216C120.067 27.7216 120.208 27.5809 120.348 27.2994C120.909 26.8773 121.471 26.3144 121.892 25.8922C122.453 25.4701 122.874 25.0479 123.436 24.485C123.717 24.3443 123.997 24.0629 124.418 23.7815C124.84 23.5 125.261 23.0778 125.682 22.7964C126.103 22.515 126.524 22.0928 126.945 21.8114C127.366 21.5299 127.647 21.2485 127.928 21.1078C128.208 20.9671 128.349 20.9671 128.349 20.9671C128.349 21.1078 128.208 21.2485 127.928 21.6707C128.068 21.9521 128.068 22.0928 127.928 22.2335ZM112.347 29.1287C112.488 29.1287 112.628 29.1287 112.768 28.988C112.909 28.988 112.909 28.988 112.909 28.8473C112.909 28.8473 112.909 28.7066 113.049 28.7066C113.049 28.5659 113.049 28.4251 113.049 28.2844C113.049 28.1437 113.049 28.003 113.19 27.8622L113.47 27.4401C113.47 27.2994 113.47 27.1587 113.47 27.018C113.47 26.8772 113.47 26.7365 113.47 26.5958C113.47 26.4551 113.47 26.3143 113.611 26.1736C113.611 26.0329 113.611 25.8922 113.751 25.7515C113.751 25.6107 113.751 25.6107 113.891 25.47C114.032 25.3293 114.032 25.3293 114.032 25.3293C114.172 25.0479 114.172 24.9072 114.312 24.6257C114.312 24.3443 114.453 24.0629 114.593 23.9221C114.593 23.6407 114.734 23.3593 114.874 23.2185C115.014 22.9371 115.014 22.7964 115.155 22.515C115.576 20.9671 115.997 19.5598 116.558 18.0119C117.12 16.464 117.541 15.0568 117.962 13.5089L118.102 13.0868C119.225 12.8054 120.348 12.6647 121.471 12.524C122.594 12.3833 123.717 12.2425 124.84 12.1018V11.9611C124.98 11.9611 124.98 11.8204 125.12 11.8204C125.261 11.8204 125.401 11.8203 125.541 11.6796V11.5389C125.541 11.3982 125.541 11.3982 125.682 11.2575C125.682 11.2575 125.682 11.2574 125.682 11.3982C125.682 11.3982 125.682 11.2575 125.541 11.2575V11.1168C125.12 10.9761 124.84 10.976 124.559 10.976C124.278 10.976 123.857 10.976 123.576 10.976C123.155 10.976 122.734 11.1168 122.594 11.1168C122.453 11.1168 122.313 11.1168 122.173 11.1168C122.032 11.1168 121.892 11.1168 121.752 11.1168C121.611 11.1168 121.331 11.1168 120.769 11.2575C120.488 11.2575 120.067 11.3982 119.787 11.3982C119.506 11.3982 119.085 11.5389 118.804 11.5389C119.085 10.9761 119.365 10.2725 119.646 9.70961C119.927 9.14673 120.208 8.58379 120.488 7.8802C120.909 7.17661 121.19 6.61378 121.471 5.91019C121.752 5.2066 122.032 4.50301 122.313 3.79942C122.313 3.6587 122.453 3.518 122.453 3.37728C122.453 3.23656 122.453 3.09582 122.594 3.09582C122.734 2.9551 122.734 2.8144 122.875 2.67369C122.875 2.53297 123.015 2.39218 122.875 2.25146C122.875 1.97002 122.594 1.82936 122.313 1.68864C122.032 1.54792 121.752 1.54787 121.471 1.54787C121.19 1.54787 120.909 1.54792 120.629 1.68864C120.348 1.82936 120.208 1.97009 120.067 1.97009C119.927 2.11081 119.927 2.25151 119.927 2.39223C119.927 2.53295 119.787 2.67365 119.787 2.81437C119.787 2.95509 119.646 3.23651 119.506 3.23651C119.365 3.37723 119.365 3.51793 119.365 3.65865C119.365 3.65865 119.225 3.79938 119.225 3.9401C119.225 4.08082 119.225 4.08084 119.085 4.22155C119.085 4.36227 118.944 4.64371 118.804 4.92515C118.664 5.3473 118.523 5.62872 118.383 6.05088C118.243 6.47303 118.102 6.75445 117.821 7.17661C117.4 8.02092 117.12 8.8653 116.699 9.70961C116.418 10.5539 115.997 11.3982 115.716 12.2425C115.576 12.2425 115.435 12.3832 115.295 12.3832C115.155 12.3832 115.014 12.3833 114.874 12.524C114.734 12.524 114.593 12.5239 114.312 12.6647C114.032 12.6647 113.611 12.8053 113.33 12.8053C113.049 12.8053 112.628 12.9461 112.207 13.0868C111.926 13.2275 111.646 13.2276 111.365 13.2276L110.803 13.5089C110.803 13.6497 110.663 13.7904 110.663 13.9312C110.523 14.0719 110.523 14.2126 110.523 14.3533C110.523 14.6347 110.382 14.7754 110.382 14.9161C110.382 15.0568 110.382 15.1976 110.523 15.3383C110.523 15.3383 110.663 15.4791 110.663 15.3383C110.803 15.3383 110.944 15.3383 111.084 15.3383C111.224 15.3383 111.365 15.1976 111.365 15.1976C111.505 15.0569 111.505 15.0568 111.646 14.9161C111.786 14.9161 112.067 14.7754 112.207 14.7754C112.488 14.7754 112.628 14.6348 112.768 14.6348C113.19 14.3533 113.611 14.2125 114.032 14.2125C114.312 14.0718 114.734 14.0719 115.014 13.9312C114.874 14.3533 114.734 14.7754 114.593 15.1976C114.453 15.6197 114.312 16.0419 114.172 16.4641C113.891 17.5898 113.47 18.5749 113.19 19.5599C112.768 20.5449 112.488 21.6707 112.207 22.7964C111.926 23.6407 111.786 24.6257 111.646 25.6108C111.505 26.5958 111.365 27.5809 111.224 28.7066C111.224 28.8473 111.224 28.988 111.224 29.1287C111.224 29.2695 111.365 29.4102 111.646 29.5509C112.067 29.1287 112.207 29.1287 112.347 29.1287ZM89.0473 22.515C88.907 22.3742 88.907 22.3743 88.907 22.3743H89.0473V22.515ZM92.2756 21.1078C92.416 20.8263 92.5564 20.4042 92.6968 19.982C92.8371 19.5599 93.1178 18.997 93.2582 18.5749C93.5389 18.012 93.6793 17.4491 93.96 17.0269C93.96 17.0269 93.96 16.8862 94.1004 16.7455C94.2408 16.6048 94.2408 16.6048 94.1004 16.4641H94.2407C94.2407 16.3234 94.2407 16.3233 94.3811 16.1826C94.5214 16.1826 94.5214 16.0419 94.3811 15.9012C94.5214 15.9012 94.6618 15.7604 94.6618 15.6197C94.6618 15.479 94.6618 15.3383 94.8022 15.1976C94.8022 15.0569 94.9425 15.0569 95.0829 15.0569L94.9425 14.9161C95.0829 14.9161 95.2233 14.7755 95.2233 14.6348C95.3636 14.494 95.3637 14.3532 95.504 14.2125C95.504 14.2125 95.6443 14.0718 95.7847 13.7904C95.925 13.509 96.0655 13.3682 96.2058 13.0868C96.3462 12.8054 96.4865 12.6646 96.4865 12.3832C96.6268 12.1018 96.6269 11.9611 96.6269 11.9611C96.7673 11.8204 96.9076 11.6796 96.9076 11.5389C97.048 11.3982 97.1883 11.2575 97.3287 10.976C97.6094 10.6946 97.7498 10.2724 98.0305 9.99098C98.3112 9.56882 98.4515 9.28745 98.5919 9.00602C98.7323 8.72458 98.8726 8.58383 98.8726 8.44311H99.0131C99.2938 7.88023 99.7148 7.45811 100.276 6.89524C100.838 6.47308 101.259 6.05089 101.68 5.62874H101.82H101.961C101.82 6.33233 101.54 7.03592 101.259 7.73952C100.838 8.30239 100.557 9.00596 100.417 9.56884C99.1534 11.8203 97.8901 13.7904 96.6269 15.7605C95.3636 17.7305 93.8196 19.5598 92.2756 21.5299C92.1353 21.5299 92.1353 21.3892 92.2756 21.1078ZM90.0299 26.4551C90.1702 25.7515 90.451 25.1886 90.7317 24.6257C91.0124 24.6257 91.1528 24.6257 91.2932 24.7664C91.4335 24.9071 91.5739 25.0479 91.7142 25.1886C91.995 25.6108 92.2757 25.8922 92.416 26.3144C92.6968 26.7365 92.8371 27.1587 92.9774 27.7216C93.2582 28.5659 93.2582 29.4102 93.2582 30.2545C93.1178 31.0988 93.1178 31.8023 92.9774 32.5059C92.416 34.6167 91.7142 36.7275 90.7317 38.6976C90.451 39.4012 90.0299 39.9641 89.6088 40.6677C89.1877 41.2305 88.7666 41.7933 88.0648 42.3562C87.6437 42.2155 87.363 41.9341 87.0823 41.2305C86.8016 40.3862 86.6612 39.6826 86.8016 38.8383C86.8016 38.1347 86.9419 37.2904 86.9419 36.5868C87.0823 35.4611 87.363 34.476 87.6437 33.491C87.9244 32.5059 88.2052 31.521 88.4859 30.5359C88.6263 30.1138 88.6262 29.8323 88.7666 29.5509C88.907 29.2694 89.0474 28.8473 89.1877 28.5658C89.6088 27.8622 89.8895 27.1586 90.0299 26.4551ZM92.6968 22.9371C93.2582 22.6557 93.8196 22.2336 94.2407 21.6707C94.6618 21.2485 95.2233 20.6856 95.504 20.1227C95.9251 19.5598 96.3462 18.997 96.6269 18.4341C97.048 17.8712 97.3287 17.3084 97.7498 16.7455C97.7498 16.7455 97.8901 16.7455 97.8901 16.6048C97.8901 16.6048 97.8901 16.4641 98.0305 16.4641C98.0305 16.4641 98.0305 16.3233 98.1708 16.3233C98.3112 16.3233 98.3112 16.1827 98.3112 16.0419C98.4516 16.0419 98.5919 15.9012 98.5919 15.7605C98.5919 15.6198 98.7323 15.4791 98.7323 15.3383C99.013 15.0569 99.1534 14.7754 99.4341 14.494C99.5745 14.2125 99.8552 13.9311 99.9955 13.6497C100.417 13.2276 100.838 12.6646 101.118 12.1018C101.399 11.5389 101.68 10.976 102.101 10.5539C102.101 10.4132 102.241 10.2724 102.241 10.2724C102.382 10.2724 102.382 10.1317 102.382 9.99098C102.382 9.99098 102.382 9.99098 102.522 9.99098C102.522 9.99098 102.382 9.85029 102.522 9.85029C102.522 9.85029 102.522 9.85033 102.522 9.70961C102.803 9.28745 102.943 8.86523 103.224 8.58379C103.364 8.16164 103.645 7.88022 103.926 7.45806V7.31738C104.066 7.31738 104.066 7.31738 104.066 7.31738C104.066 7.31738 104.066 7.17661 104.206 7.17661C104.206 6.89517 104.347 6.47308 104.487 6.19165C104.627 5.91021 104.627 5.48804 104.487 5.2066C104.347 5.06588 104.347 4.92518 104.206 4.78446C104.066 4.64374 103.926 4.50296 103.926 4.36224L101.961 3.79942C101.82 3.94013 101.82 3.9401 101.68 3.9401C101.54 3.9401 101.539 3.9401 101.399 3.9401C100.978 3.9401 100.557 3.94012 100.276 4.22155C99.9955 4.50299 99.7148 4.64371 99.5745 4.92515C99.4341 5.20658 99.1534 5.3473 99.0131 5.62874C98.8727 5.91018 98.592 6.05089 98.3112 6.33233V6.47301C98.3112 6.47301 98.3112 6.47307 98.3112 6.61378C98.1709 6.7545 98.0305 6.8952 97.8901 7.03592C97.7497 7.17664 97.6094 7.45811 97.3287 7.59883L97.048 8.02097C97.048 8.02097 97.048 8.02097 96.9076 8.02097L96.2058 9.1467C95.9251 9.56886 95.6443 9.99099 95.3636 10.2724C95.0829 10.6946 94.8022 11.1168 94.6618 11.5389C94.5214 11.6796 94.3811 11.8204 94.2407 11.9611C94.1004 12.1018 94.1003 12.3833 93.96 12.524C93.8196 12.6647 93.6793 12.8054 93.5389 13.0868C93.3986 13.2275 93.2582 13.509 93.2582 13.6497V13.7904C93.1178 14.0718 92.9775 14.2125 92.8371 14.494C92.6968 14.7754 92.5564 14.9161 92.5564 15.1976C92.416 15.3383 92.416 15.479 92.2756 15.6197C92.1353 15.7604 92.1353 15.9012 91.995 16.0419L91.8546 16.4641C91.8546 16.4641 91.7142 16.6048 91.7142 16.7455C91.7142 16.8862 91.7142 16.8862 91.7142 17.0269C91.7142 17.0269 91.5739 17.0269 91.7142 17.0269C91.5739 17.3083 91.4335 17.7305 91.2932 18.0119C91.1528 18.2934 91.0124 18.7156 90.7317 18.997L90.5914 19.8413L90.0299 20.6856L89.8896 21.3892L89.7491 21.6707L89.6088 21.952L89.4684 21.8114C89.1877 22.7964 88.7666 23.7814 88.3455 25.0479C87.9244 26.3143 87.5034 27.4401 87.0823 28.7066C86.6612 29.9731 86.3804 31.2395 85.9594 32.5059C85.5383 33.7724 85.3979 34.8981 85.2576 36.0239C85.1172 36.7275 84.9769 37.5718 84.9769 38.2754C84.9769 39.1197 84.9768 39.8234 85.2576 40.6677C85.3979 40.9491 85.398 41.2305 85.6787 41.6526C85.9594 42.0748 85.9594 42.2156 86.2401 42.497C86.2401 42.497 86.3805 42.6377 86.5208 42.6377C86.6612 42.6377 86.6612 42.7784 86.8016 42.7784C86.9419 42.9192 87.2226 42.9191 87.363 43.0598C87.5033 43.2005 87.7841 43.2005 88.0648 43.0598C88.3455 43.0598 88.4859 42.9192 88.6263 42.7784C88.7666 42.6377 88.907 42.6377 89.0473 42.6377C89.0473 42.6377 89.1877 42.6377 89.3281 42.6377C89.4684 42.6377 89.4684 42.6377 89.4684 42.6377C89.7491 42.6377 89.8896 42.4969 89.8896 42.3562C89.8896 42.2155 90.0298 42.2156 90.1702 42.0749C90.4509 41.7934 90.7317 41.6527 90.872 41.3713C91.0124 41.2305 91.2931 40.9491 91.5738 40.6677C91.9949 40.2455 92.2757 39.964 92.6968 39.5419C92.9775 39.1197 93.2582 38.6976 93.3986 38.2754C93.6793 37.8533 93.8197 37.4311 94.1004 37.0089C94.5215 36.0239 94.8021 35.1796 95.0829 34.1946C95.3636 33.2095 95.6443 32.3652 95.7847 31.3802C95.7847 31.2395 95.7847 31.2395 95.7847 31.2395H95.6443C95.7847 30.8174 95.7847 30.2544 95.7847 29.6916C95.7847 29.1287 95.7847 28.4251 95.6443 27.8622C95.504 27.1586 95.3636 26.5958 95.2233 26.0329C94.9426 25.47 94.6618 24.9072 94.3811 24.3443C95.2232 24.3443 95.9251 24.3443 96.3462 24.3443C96.7672 24.3443 97.3287 24.2036 97.7498 23.9221C98.1709 23.7814 98.592 23.6407 99.0131 23.3592C99.4341 23.0778 100.136 22.9371 100.838 22.6556C100.978 22.5149 101.118 22.3742 101.399 22.2335C101.68 22.0928 101.82 21.9521 102.101 21.8114C102.382 21.5299 102.803 21.3892 103.083 21.2485C103.364 21.1077 103.785 20.8263 104.206 20.6856C104.206 20.6856 104.206 20.5449 104.066 20.5449L104.768 20.2635C104.768 19.9821 104.908 19.8413 105.049 19.7006C105.189 19.5599 105.329 19.4191 105.329 19.1377C105.189 19.1377 104.908 19.1377 104.768 19.2784C104.627 19.2784 104.487 19.4191 104.206 19.4191L102.943 19.982C101.961 20.4042 101.259 20.8263 100.557 21.2485C99.8552 21.6706 99.2937 21.9521 98.5919 22.2335C97.8901 22.5149 97.3286 22.6557 96.4865 22.7964C95.7847 22.9371 94.8021 22.9371 93.6792 22.7964C93.5389 22.7964 93.539 22.7964 93.3986 22.7964L93.2582 22.9371C92.8371 23.0778 92.8371 23.0778 92.6968 22.9371C92.6968 22.9371 92.8371 22.9371 92.6968 22.9371ZM82.4503 19.2784C82.4503 19.7006 82.31 20.2634 82.1697 20.8263C82.0293 21.3892 81.7485 21.9521 81.3274 22.515C81.0467 23.0778 80.766 23.3592 80.6256 23.6407L80.3449 23.9221C79.9238 24.3443 79.5028 24.7664 79.0817 25.0479C78.6606 25.3293 78.0991 25.6108 77.3973 25.8922C77.257 25.4701 77.1167 25.0479 77.257 24.6257C77.3974 24.2036 77.5377 23.7814 77.5377 23.5C77.5377 23.3593 77.678 23.0778 77.8184 22.6556C77.9588 22.3742 78.2395 21.9521 78.3799 21.5299C78.6606 21.1078 78.801 20.8263 79.0817 20.4042C79.3624 20.1227 79.5027 19.8413 79.6431 19.7006C79.7835 19.4191 79.9239 19.2784 80.0642 19.1377C80.2046 18.997 80.345 18.7156 80.4853 18.5749L80.6256 18.4341C80.766 18.5748 80.9063 18.5749 81.0467 18.5749C81.1871 18.5749 81.3275 18.5748 81.4679 18.7155C82.1697 18.5748 82.31 18.8563 82.4503 19.2784ZM84.6962 20.4042C84.6962 20.4042 84.6962 20.2634 84.6962 20.1227C84.9769 19.982 85.2576 19.982 85.6787 19.8413C86.0998 19.7006 86.5208 19.7006 86.9419 19.5599C87.363 19.4192 87.7841 19.4192 88.2052 19.2784C88.6263 19.2784 89.0473 19.1377 89.4684 19.1377C89.8895 19.1377 90.3106 19.1377 90.4509 19.1377C90.5913 19.1377 90.7317 19.1377 90.872 18.997L91.0124 18.8563C91.0124 18.8563 91.2931 18.7155 91.5738 18.7155C91.7142 18.7155 91.8546 18.5748 91.8546 18.4341C91.9949 18.2934 91.8546 18.1527 91.7142 18.0119C91.5739 18.0119 91.5738 18.012 91.5738 17.8713C91.5738 17.8713 91.4335 17.8713 91.2932 17.8713C91.2932 17.8713 91.2931 17.8713 91.1528 17.8713C91.1528 17.8713 91.1528 17.8713 91.0124 17.8713H90.872C90.5913 17.7305 90.0298 17.5898 89.4684 17.5898C88.7666 17.5898 88.0648 17.5898 87.2226 17.7305C86.3805 17.7305 85.6787 17.8712 84.9769 18.0119C84.2751 18.1527 83.7136 18.1527 83.4329 18.2934L83.0118 17.7305C83.0118 17.7305 82.8714 17.5898 82.7311 17.5898C82.5907 17.5898 82.4504 17.4491 82.31 17.4491C82.1696 17.4491 82.0293 17.3084 81.8889 17.3084C81.7486 17.3084 81.6082 17.3084 81.6082 17.3084H81.4679H81.3274C81.1871 17.1676 80.9064 17.1676 80.6256 17.0269C80.3449 16.8862 80.2046 16.7455 79.9238 16.7455C79.6431 16.7455 79.3624 16.8862 79.222 17.1677C78.9413 17.3084 78.8009 17.5898 78.5202 17.8713C78.3799 18.1527 78.0992 18.2934 77.9588 18.5749C77.6781 18.8563 77.3973 19.2784 77.1166 19.7006C76.8359 20.1227 76.5552 20.5449 76.4148 20.8263C76.4148 20.8263 76.2745 20.8264 76.2745 20.9671C76.2745 20.9671 76.2744 21.1078 76.1341 21.1078L75.4322 23.2185C75.4322 23.3593 75.4323 23.6407 75.2919 23.7815C75.1516 24.0629 75.1516 24.2036 75.2919 24.485C75.1516 24.485 75.1516 24.6257 75.1516 24.7664C75.1516 24.9071 75.1516 25.0479 75.1516 25.0479C75.1516 25.47 75.2919 25.8922 75.5727 26.1736C75.8534 26.455 76.1341 26.7365 76.4148 26.8772C76.6955 27.0179 77.1166 27.1586 77.5377 27.1586C77.9588 27.1586 78.3799 27.1587 78.801 27.018C79.0817 27.018 79.5027 27.0179 79.9238 26.7365C80.3449 26.4551 80.766 26.1737 81.1871 25.8922C81.6082 25.6108 82.0293 25.0479 82.5907 24.485C82.8715 24.3443 83.0118 24.0628 83.1521 23.6407C83.2925 23.2185 83.5732 22.9371 83.7136 22.7964C83.854 22.6557 83.9944 22.3742 83.9944 22.2335C84.1347 21.9521 84.1347 21.8114 84.1347 21.6707C84.275 21.53 84.2751 21.3892 84.4154 21.1078C84.4154 20.8263 84.4154 20.6856 84.4154 20.4042V20.4042H84.6962ZM58.0275 19.4191C58.7293 18.7155 59.7117 18.1527 60.6943 17.8713C60.6943 18.012 60.6943 18.0119 60.554 18.0119C60.1329 18.5748 59.5715 19.1377 59.01 19.7006C58.4486 20.2635 57.8871 20.6856 57.3257 21.2485C57.0449 21.3892 56.9046 21.53 56.6238 21.6707C56.3431 21.8114 56.2028 21.8114 55.922 21.8114C56.4835 20.9671 57.1853 20.1227 58.0275 19.4191ZM61.9576 24.6257C62.0979 24.485 62.519 24.3443 62.7997 24.2036C63.2208 23.9222 63.6419 23.7814 64.063 23.5C64.4841 23.2186 64.9052 22.9371 65.4666 22.6556C66.0281 22.3742 66.3088 22.0928 66.5895 21.952C66.7298 21.8113 67.0105 21.6707 67.0105 21.6707C67.0105 21.6707 67.2913 21.5299 67.2913 21.3892C67.4317 21.3892 67.4317 21.2485 67.4317 21.2485C67.5721 21.1077 67.7124 20.9671 67.8528 20.6856C67.9931 20.4042 68.1335 20.4042 68.2738 20.2635C68.4142 20.1228 68.4142 19.982 68.4142 19.8413C68.4142 19.7006 68.2738 19.7006 67.9931 19.7006C67.9931 19.7006 67.9931 19.7006 67.8528 19.7006H67.7124C67.4316 19.7006 67.2913 19.8413 67.151 19.8413C67.0106 19.982 66.8703 19.982 66.7299 20.1227C66.3088 20.4042 65.8877 20.5449 65.4666 20.8263C65.0455 21.1078 64.4841 21.2485 64.063 21.5299C63.5015 21.8113 63.0805 22.0928 62.6594 22.2335C62.2383 22.3742 61.9576 22.6557 61.5365 22.7964C61.1154 22.9371 60.8347 23.0778 60.4136 23.3592C59.9925 23.4999 59.5715 23.7814 59.01 24.0628C58.7293 24.2035 58.4485 24.3443 58.1678 24.3443C57.8871 24.485 57.466 24.6257 57.1852 24.6257C56.7642 24.7664 56.3431 24.9072 55.922 25.0479C55.501 25.1886 54.9395 25.3294 54.5184 25.1886C54.2377 25.0479 54.2377 24.7665 54.0974 24.485C54.0974 24.2036 54.0973 23.9221 54.2377 23.6407C54.378 23.3592 54.5184 23.0778 54.6587 22.7964C54.7991 22.515 54.9395 22.3743 55.2202 22.0928C55.6413 22.0928 56.2028 22.0928 56.6238 22.0928C57.0449 22.0928 57.466 21.8114 57.7467 21.6707C58.8696 20.9671 59.9925 19.982 61.1154 18.997C61.1154 18.8563 61.2557 18.7156 61.3961 18.5749C61.5364 18.4341 61.6769 18.2934 61.8172 18.1527C61.9576 18.012 61.9576 17.8712 62.2383 17.7305C62.3787 17.5898 62.519 17.4491 62.519 17.3084C62.519 17.0269 62.3786 16.6047 62.0979 16.3233C61.8172 16.0419 61.1154 15.7605 60.1329 15.7605C59.9925 15.7605 59.8521 15.7605 59.8521 15.9012C59.8521 15.9012 59.7118 16.0419 59.5714 16.0419C59.2907 16.1827 59.0099 16.3234 58.5889 16.4641C58.1678 16.6048 57.8871 16.7455 57.6064 17.0269C56.9046 17.4491 56.3431 17.8713 55.6413 18.5749C54.9395 19.2784 54.3781 19.8413 53.8166 20.5449C53.8166 20.6856 53.6762 20.8264 53.6762 20.9671C53.6762 21.1078 53.5359 21.2485 53.3955 21.3892C53.2552 21.6707 53.1148 22.0928 52.9744 22.3743C52.834 22.7964 52.6937 23.0778 52.5533 23.5C52.413 23.9222 52.413 24.2036 52.413 24.6257C52.413 25.0479 52.5534 25.3293 52.6937 25.6108C52.9745 26.0329 53.2551 26.1736 53.6762 26.4551C54.0973 26.5958 54.5184 26.7365 54.9395 26.7365C55.3606 26.7365 55.7817 26.7365 56.2028 26.5958C56.6239 26.4551 57.0449 26.4551 57.3257 26.3144C57.6064 26.1737 57.8871 26.1736 58.1678 26.0329C58.4485 26.0329 58.7292 25.8922 58.8696 25.7515L61.9576 24.6257ZM39.219 21.3892C39.3593 20.9671 39.6401 20.5449 39.7805 20.2635C39.7805 20.1228 39.9208 19.982 39.9208 19.8413C39.9208 19.7006 39.9208 19.5599 40.0612 19.2784C40.2016 18.997 40.3419 18.8563 40.4823 18.5749C40.6226 18.2934 40.6226 18.0119 40.4823 17.7305C40.4823 17.4491 40.2015 17.3084 39.7805 17.1677C39.3594 17.027 39.0786 17.1676 38.7979 17.3084C38.6575 17.3084 38.6575 17.4491 38.5172 17.5898C38.3768 17.7305 38.3768 17.7305 38.3768 17.8713C38.3768 18.012 38.3768 18.1527 38.2364 18.2934C38.2364 18.4341 38.0961 18.7156 38.0961 18.8563C38.0961 18.997 37.9557 19.1377 37.8154 19.2784C37.675 19.4192 37.675 19.5599 37.5346 19.7006C37.1135 20.6856 36.6925 21.6706 36.2714 22.6556C35.8503 23.6407 35.4293 24.6258 35.1485 25.8922C35.0082 26.0329 35.0082 26.3144 34.8678 26.5958C34.8678 26.8773 34.7274 27.0179 34.8678 27.1586C34.8678 27.4401 35.1485 27.5808 35.4292 27.7216C35.7099 27.8623 35.9907 28.003 36.2714 27.8622C36.5521 27.8622 36.9732 27.4401 37.5346 26.7365C38.0961 26.0329 38.9383 25.1886 39.7805 24.2036C40.0612 23.9222 40.4823 23.6407 40.763 23.3592C41.0437 23.0778 41.4647 22.7964 41.7455 22.6556C42.1665 22.2335 42.728 21.6707 43.1491 21.3892C43.5702 20.9671 44.1317 20.5449 44.6931 20.2635C44.8335 20.1228 44.9738 19.982 45.2545 19.8413C45.3949 19.7006 45.6756 19.5599 45.816 19.5599C45.816 19.8413 45.6757 20.1227 45.6757 20.5449C45.5353 20.8263 45.5352 21.2485 45.5352 21.6707C45.5352 21.8114 45.3949 22.0928 45.3949 22.6556C45.2546 23.0778 45.2545 23.6407 45.1142 24.0628C44.9738 24.485 44.9738 25.0479 44.8334 25.47C44.6931 25.8922 44.6931 26.1737 44.6931 26.3144C44.6931 26.5958 44.8335 27.018 45.1142 27.2994C45.3949 27.7216 45.6756 27.8623 45.9563 27.7216C46.0967 27.7216 46.3774 27.7216 46.6581 27.7216C46.9388 27.7216 47.2196 27.7215 47.5003 27.5808C47.7811 27.4401 48.2021 27.2994 48.6232 27.018C49.0443 26.7365 49.325 26.5958 49.6058 26.3144C49.8865 26.0329 50.1672 25.8922 50.3076 25.8922C50.4479 25.8922 50.448 25.7515 50.5883 25.7515L50.7286 25.6108C50.7286 25.6108 51.0094 25.3294 51.2901 25.1886C51.4305 25.0479 51.5708 25.0479 51.7112 24.9072C51.8516 24.7665 51.9919 24.6258 52.1323 24.485C52.5533 24.3443 52.834 24.0629 52.9744 23.7815C52.9744 23.6407 53.1148 23.4999 53.1148 23.3592C53.1148 23.2185 52.9745 23.2186 52.6937 23.0779C52.5534 23.2186 52.413 23.3593 52.1323 23.5C51.8515 23.6407 51.7112 23.7814 51.4304 23.9221C51.2901 23.9221 51.0094 23.9221 51.0094 24.0628C50.869 24.2035 50.5883 24.2036 50.4479 24.485C50.3075 24.6258 50.0269 24.7665 49.8865 24.9072C49.6058 25.0479 49.325 25.1886 49.325 25.1886C49.325 25.1886 49.1847 25.1886 49.1847 25.3293H49.0443C48.9039 25.3293 48.7636 25.4701 48.4829 25.6108C48.2022 25.7515 47.9214 25.8922 47.7811 25.8922C47.6407 26.0329 47.36 26.0329 47.0793 26.1736C47.0793 25.8922 47.0793 25.6107 47.0793 25.0479C47.0793 24.485 47.2196 24.0629 47.3599 23.5C47.5003 22.9371 47.5003 22.3742 47.6407 21.952C47.781 21.3892 47.7811 21.1078 47.7811 20.8263C47.9214 20.5449 47.9214 20.1227 48.0617 19.8413C48.2021 19.5598 48.2022 19.1377 48.2022 18.8563C48.2022 18.5749 48.0618 18.4342 47.6407 18.1527C47.3599 17.8713 47.0793 17.8713 46.7985 17.8713C46.3774 17.8713 45.9564 18.012 45.6757 18.2934C45.2546 18.5748 44.9738 18.7156 44.5527 18.997C43.7105 19.5599 42.8684 20.1227 42.1666 20.8263C41.4648 21.5299 40.763 22.0928 40.0612 22.7964C39.9208 22.9371 39.7804 23.0778 39.64 23.2185C39.4997 23.3593 39.3594 23.5 39.0786 23.5C38.9383 22.2335 39.0786 21.8114 39.219 21.3892ZM29.2533 7.45806C29.2533 7.45806 29.2533 7.59878 29.1129 8.16165C29.1129 8.58381 28.9726 9.1467 28.8323 9.85029C28.6919 10.5539 28.5515 11.1168 28.4111 11.8204C28.2708 12.524 27.9901 13.0868 27.8497 13.5089C26.5865 13.6497 25.1828 13.9312 23.7792 13.9312C22.3756 14.0719 20.8316 13.9311 19.2876 13.6497C18.7262 13.509 18.1648 13.3682 17.7437 13.0868C17.3226 12.8054 17.0419 12.3833 16.9015 11.8204C16.9015 11.6797 16.7611 11.3982 16.7611 11.1168C16.7611 10.8354 16.7612 10.6946 16.9015 10.4132C16.9015 10.2725 17.1822 10.1317 17.3226 9.85029C17.6033 9.70957 17.7436 9.56887 17.884 9.42815C18.3051 9.14672 18.7262 8.86523 19.1473 8.58379C19.5684 8.30235 19.9895 8.16164 20.4106 7.8802C20.6913 7.73948 21.1124 7.59878 21.5335 7.45806C21.9545 7.31734 22.2352 7.17662 22.3756 6.75447C22.5159 6.33231 22.3756 5.91018 22.0948 5.62874C21.8141 5.3473 21.3931 5.06586 20.972 4.92515C20.5509 4.78443 20.1298 4.64369 19.8491 4.64369C19.5684 4.64369 19.2876 4.64374 19.1473 4.78446C19.1473 4.64374 19.2876 4.36227 19.5684 4.22155C19.8491 4.08084 20.1298 3.94013 20.1298 3.79942L20.2702 3.51796C20.5509 3.23652 20.8316 3.09581 21.2527 2.81437C21.6738 2.53293 21.9545 2.39218 22.3756 2.25146C22.6563 2.25146 22.7967 2.11078 22.9371 2.11078C23.0774 2.11078 23.2177 1.97004 23.4985 1.82932C23.6388 1.82932 23.7792 1.82932 24.0599 1.82932C24.3407 1.82932 24.7618 1.68864 25.0425 1.68864C25.3232 1.68864 25.7443 1.54787 26.025 1.54787C26.3058 1.54787 26.4461 1.54792 26.5864 1.68864C26.8672 1.82936 27.1479 1.97008 27.2882 2.39223C27.569 2.81439 27.7094 3.09579 27.8497 3.23651C27.9901 3.65866 28.1304 3.94008 28.2708 4.36224C28.4111 4.78439 28.4112 5.06585 28.5515 5.34728L29.2533 7.45806ZM14.375 12.8053C14.5153 12.9461 14.6558 13.0869 14.7961 13.2276C14.9365 13.3683 15.0768 13.509 15.2172 13.7904C15.6383 14.2125 16.1997 14.494 16.9015 14.9161C17.6033 15.1976 18.3051 15.479 19.2876 15.6197C20.6912 15.7604 22.0949 15.9012 23.3581 15.9012C24.6214 15.9012 25.8847 15.7605 27.1479 15.7605C25.8847 18.2934 24.481 20.6856 22.9371 22.7964C21.3931 24.9072 19.5684 27.0179 17.7437 28.988C16.9015 29.8323 15.9189 30.8173 15.0768 31.6617C14.2346 32.506 13.2521 33.3503 12.1292 34.1946C11.5678 34.6167 11.1467 34.8981 10.5853 35.3203C10.0238 35.6017 9.60268 36.0239 9.04124 36.3053C8.47979 36.5868 7.91836 36.8683 7.21655 37.1497C6.51474 37.4311 5.81294 37.5718 5.11113 37.5718C4.97077 37.5718 4.97075 37.5718 4.83039 37.5718C4.69003 37.5718 4.54965 37.5718 4.54965 37.4311C4.12856 37.1496 3.84787 36.7275 3.70751 36.1647C3.56715 35.6018 3.42681 35.0389 3.28645 34.476C3.14608 33.491 3.28641 32.506 3.42677 31.521C3.56713 30.5359 3.84791 29.5509 4.26899 28.7066C4.69008 27.8623 4.97078 26.8772 5.39187 26.0329C5.81295 25.1886 6.23402 24.3443 6.51474 23.6407C8.62017 19.1377 11.287 15.6197 14.375 12.8053ZM15.0768 7.31738C14.796 7.88025 14.5153 8.44307 14.375 9.28738C13.1117 10.4131 11.8485 11.6796 10.5853 13.0868C9.32201 14.494 8.19912 15.9012 7.07623 17.4491C5.81297 19.1377 4.69008 20.8263 3.56719 22.7964C2.44429 24.7665 1.60209 26.7365 0.900282 28.988C0.619559 29.973 0.338836 30.8174 0.198474 31.9431C0.0581125 33.0689 -0.0822148 33.9132 0.0581468 34.7575C0.198508 35.6018 0.33887 36.4461 0.759955 37.1497C1.18104 37.8533 1.74247 38.2754 2.58464 38.6976C2.725 38.8383 3.00567 38.8383 3.14603 38.8383C3.28639 38.8383 3.56715 38.8383 3.70751 38.8383C3.84787 38.8383 4.12863 38.8383 4.26899 38.979C4.40936 38.979 4.69003 39.1197 4.83039 39.1197C5.39184 39.1197 5.9533 39.1197 6.51474 38.979C7.07619 38.8383 7.6376 38.6976 8.05869 38.5569C9.04122 38.2755 10.0237 37.8533 10.8659 37.2904C11.7081 36.8682 12.5503 36.3053 13.2521 35.6018C13.9539 34.8982 14.7961 34.3353 15.4979 33.7724C15.7786 33.6317 15.919 33.491 16.1997 33.2095C16.4805 32.9281 16.7611 32.7874 17.0419 32.6467C17.6033 32.0838 18.4455 31.3802 19.428 30.2545C20.4106 29.2694 21.3931 28.1437 22.3756 27.018C23.3581 25.8922 24.2003 24.7664 25.0425 23.6407C25.8847 22.5149 26.4461 21.6707 26.7268 20.9671C27.1479 20.1228 27.7093 19.1377 28.2708 18.1527C28.8322 17.1677 29.3936 16.1826 29.8147 15.1976L34.3063 14.0718C34.8678 13.9311 35.4292 13.7904 35.9907 13.5089C36.5521 13.3682 37.1136 13.0868 37.675 12.9461C37.9558 12.8054 38.0961 12.8053 38.3768 12.8053C38.6576 12.8053 38.7979 12.6647 39.0786 12.524C39.219 12.524 39.4997 12.3832 39.9208 12.2425C40.3419 12.1018 40.9034 11.9611 41.4648 11.6796C42.0263 11.3982 42.5877 11.2575 43.2895 10.976C43.9913 10.6946 44.5528 10.5539 44.9739 10.2724C45.5353 10.1317 45.9564 9.85033 46.3775 9.70961C46.7986 9.56889 46.9389 9.42815 46.9389 9.42815C47.2196 9.14672 47.2196 9.00602 47.3599 9.00602C47.5003 9.00602 47.2196 8.86525 46.9389 8.86525C46.6581 8.72453 46.0967 8.86525 45.5352 8.86525C44.9738 9.00596 44.272 9.14672 43.4298 9.42815C42.728 9.70959 41.8858 9.85031 41.0437 10.1317C40.2015 10.4132 39.4997 10.5539 38.9382 10.6946C37.9557 10.976 36.8329 11.2575 35.8503 11.5389C34.8678 11.8204 33.8853 11.9611 32.7624 12.3832C32.3413 12.5239 32.0606 12.5239 31.6395 12.6647C31.2184 12.8054 30.9376 12.8053 30.5165 12.8053C30.7973 12.2425 30.9377 11.6796 31.078 10.976C31.2184 10.2724 31.3588 9.70957 31.3588 9.1467C31.4991 8.44311 31.4991 7.73952 31.4991 7.03592C31.3587 6.33233 31.3588 5.76942 31.3588 5.06583C31.2184 4.36224 30.9377 3.65865 30.3762 2.95505C29.8148 2.25146 29.3937 1.68866 28.8323 1.2665C28.5515 0.985064 28.1304 0.844345 27.7093 0.562908C27.2882 0.42219 26.8672 0.281403 26.4461 0.140684C26.025 -3.43572e-05 25.6039 0 25.1828 0C24.7617 0 24.3407 0.140736 23.9196 0.281454C23.6389 0.281454 23.2178 0.422155 22.6563 0.703592C22.0949 0.985029 21.6738 1.12578 21.393 1.2665C20.5509 1.68866 19.7088 2.11081 19.007 2.67369C18.3052 3.23656 17.6033 3.79942 16.9015 4.50301C16.9015 4.64373 16.7611 4.92516 16.4804 5.2066C16.1997 5.48804 16.0593 5.6287 15.7786 5.76942C15.6382 6.19158 15.3575 6.7545 15.0768 7.31738Z" fill="white"/>
</svg>
