<svg width="306" height="89" viewBox="0 0 306 89" fill="none" xmlns="http://www.w3.org/2000/svg">
<path d="M281.45 56.0321L282.642 55.138C283.238 54.84 283.834 54.5419 284.728 54.2439C285.622 53.9458 286.815 53.3497 288.603 52.4556L289.795 52.1576C289.199 53.0517 288.305 53.9458 287.411 54.8399C286.516 55.7341 285.324 56.6282 283.536 57.8204L281.152 59.0125C280.854 59.0125 280.556 59.3106 279.96 59.6087C279.364 59.9067 278.768 60.2047 278.172 60.2047C277.576 60.5028 277.278 60.5028 276.98 60.5028C276.682 60.5028 276.384 60.5028 276.682 60.2047C276.682 59.9067 276.98 59.9067 277.278 59.3106C277.576 59.0126 277.874 58.7145 278.47 58.4165C278.768 58.1184 279.066 57.8204 279.662 57.2243C280.854 56.6282 281.152 56.3301 281.45 56.0321ZM301.716 44.4084L295.457 46.1967L295.159 46.4947C295.159 46.4947 295.159 46.4947 294.861 46.4947C294.563 46.4947 294.563 46.4947 294.563 46.4947C294.563 46.4947 294.563 46.4947 294.265 46.4947V46.1967C294.265 46.1967 293.967 45.8986 293.371 45.6006C292.775 45.3025 292.477 45.0045 291.583 45.0045C290.987 45.0045 290.391 44.7065 289.795 44.7065C288.901 44.7065 287.709 44.7065 286.814 44.7065C285.92 44.7065 284.728 45.0045 284.132 45.0045C283.238 45.3026 282.642 45.3026 281.45 45.3026C282.046 44.7065 282.642 44.1104 283.536 43.5143L284.43 42.9182L285.622 41.7261L286.517 41.1299C287.113 40.8319 287.709 40.5339 288.603 40.2358C289.497 39.9378 290.093 39.6397 290.689 39.0436C290.987 39.0436 291.285 38.7456 291.583 38.4476C291.881 38.1495 291.881 38.1495 291.881 38.4476C292.179 38.4476 292.477 38.1495 292.775 38.1495H293.073L293.967 37.5534C294.265 37.5534 294.265 37.2554 294.563 36.9574C294.563 36.6593 294.563 36.3613 294.265 35.7652C293.967 35.7652 293.669 35.4671 293.073 35.4671C292.775 35.4671 292.179 35.1691 291.881 35.1691L291.285 35.4671C290.391 35.4671 289.497 35.7652 288.603 36.0632C287.709 36.3613 286.814 36.9574 285.92 37.2554C285.026 37.8515 284.43 38.4476 283.536 39.0436C282.642 39.6397 282.046 40.2358 281.152 40.5339L280.854 40.8319C279.96 41.7261 279.364 42.3221 278.768 42.9182C278.172 43.5143 277.874 43.8123 277.576 44.4084C277.576 44.7065 277.278 44.7065 277.278 45.0045C277.278 45.3026 276.98 45.6006 276.98 45.8986C276.98 46.1967 276.98 46.4947 277.278 47.0908C277.576 47.3888 277.874 47.985 278.172 48.283C278.172 48.283 278.47 48.283 278.47 48.581C278.47 48.8791 278.768 48.581 279.066 48.581C279.96 48.581 280.556 48.581 281.152 48.581C281.748 48.581 282.344 48.283 282.94 48.283C284.132 47.985 285.324 47.6869 286.814 47.6869C288.305 47.6869 289.199 47.6869 289.795 47.6869H290.093C290.689 47.3889 290.987 47.6869 290.391 47.6869C289.795 47.6869 288.901 48.283 287.709 48.8791C286.516 49.4752 285.026 50.0712 283.238 50.9654C281.45 51.8595 279.96 52.7537 278.47 53.6478C276.98 54.5419 275.788 55.7341 274.595 56.9262C273.701 58.1184 273.105 59.3106 273.105 60.2047C273.105 61.0989 273.403 61.6949 273.701 61.993C273.999 62.5891 274.893 62.8871 276.086 62.8871C276.682 62.8871 277.278 62.8871 278.172 62.5891C279.066 62.291 280.258 61.993 281.45 61.3969C281.748 61.0988 282.344 61.0988 282.94 60.5028C283.536 60.2047 284.132 59.6086 284.728 59.3106C285.324 58.7145 286.218 58.1184 287.411 57.2243C288.305 56.3302 289.497 55.436 290.987 54.2439L291.583 53.6478C291.881 53.3498 292.477 52.7537 292.775 52.1576C293.073 51.5615 293.967 50.3693 294.563 48.581C294.563 48.581 294.563 48.581 294.861 48.581H295.159C295.159 48.581 295.755 48.581 296.351 48.283C297.245 47.985 298.14 47.6869 299.034 47.3889C299.928 47.0908 301.12 46.7928 302.014 46.4947C302.908 46.1967 303.802 45.8986 304.398 45.6006C304.994 45.6006 305.59 45.3026 305.888 44.7065C306.186 44.4085 305.888 43.8124 304.994 43.2163H304.1H303.802H303.206C302.908 43.2163 302.908 43.5143 302.61 43.5143C302.312 43.5143 302.312 43.5143 302.014 43.5143C302.312 44.4084 302.014 44.4084 301.716 44.4084ZM272.211 45.6006C272.211 45.3025 272.509 44.4085 273.105 43.2163C273.403 42.0241 273.999 40.8319 274.297 39.6397C274.595 38.4475 275.191 36.9573 275.489 36.0632C275.788 34.871 276.086 34.2749 276.086 33.6789C276.384 33.0828 276.682 32.4867 276.682 31.8906C276.98 31.2945 276.98 30.6984 277.278 30.1023C278.172 27.1219 278.768 24.4395 279.364 21.7571C279.96 19.0747 280.556 16.3924 281.45 13.4119C282.046 11.6237 282.642 9.83542 282.94 8.04716C283.536 6.2589 283.536 4.47063 283.238 2.68237C282.94 2.38433 282.642 2.08629 282.642 2.08629C282.642 2.08629 282.344 1.78826 282.344 1.49022C282.344 1.19217 282.046 0.894094 282.046 0.894094C282.046 0.59605 281.748 0.596059 281.45 0.298016C281.152 0.298016 281.152 0.298016 281.152 0.298016C281.152 0.596059 281.152 0.596059 280.854 0.298016C280.258 0.298016 279.96 0.298016 279.662 0.298016C279.364 0.596059 279.066 0.894112 278.768 1.19216C278.172 2.68237 277.576 3.87454 276.98 4.76867C276.384 5.6628 275.489 6.55693 274.893 7.7491C274.297 8.64323 273.999 9.23932 273.403 10.1335C272.807 10.7295 272.509 11.6237 271.913 12.5178L254.032 38.7456C250.753 43.8124 247.177 48.5811 243.601 53.6478C240.024 58.7145 236.15 63.1852 231.978 67.3578C231.084 68.2519 230.189 69.146 228.997 70.0402C227.805 70.9343 226.911 71.2323 225.719 70.9343C225.421 70.3382 225.421 69.7421 225.421 68.848C225.421 68.2519 225.421 67.3577 225.421 66.4636C225.719 63.1851 226.017 60.2047 226.613 57.2243C227.209 54.2439 227.805 51.5615 228.401 48.581C228.997 45.8986 229.891 43.2163 230.785 40.8319C231.68 38.4476 232.574 35.7652 233.468 33.3808C234.362 30.9965 235.256 28.6121 236.15 25.9298C237.044 23.5454 237.938 21.161 238.832 18.7767C239.428 16.9884 240.322 15.2002 241.216 13.71C242.11 11.9217 242.706 10.4315 243.601 8.64324C243.899 8.04715 244.197 7.45106 244.197 7.15302C244.495 6.55693 244.495 5.96083 244.793 5.36474C245.091 4.76866 245.091 4.1726 245.091 3.57651C245.091 2.98042 244.793 2.38432 244.495 1.78823C243.899 1.49019 243.601 1.19214 243.303 0.894094C243.005 0.59605 242.408 0.298043 242.11 0C241.812 0.298043 241.514 0.298016 241.216 0.298016C240.918 0.298016 240.62 0.298007 240.322 0.894094C240.024 1.49018 239.726 2.08627 239.428 2.38431C239.13 2.68235 238.832 3.27844 238.534 3.87453V4.17259C238.534 4.17259 238.832 4.17261 238.534 4.47065C237.342 7.15304 236.448 9.83542 235.256 12.5178C234.064 15.2002 233.17 17.8826 231.978 20.565C231.68 21.4591 231.381 22.3532 231.083 23.2473C230.785 24.1415 230.487 25.0356 230.189 25.9298L229.891 27.1219C229.593 27.718 229.295 28.6121 228.997 29.2082C228.699 29.8043 228.401 30.6985 228.103 31.2945C227.209 33.3808 226.613 35.4671 226.017 37.8515C225.421 39.9378 224.825 42.3221 223.931 44.4084C223.037 47.3889 222.441 50.6673 221.547 53.9458C220.951 57.2243 220.355 60.8008 220.057 64.6754C220.057 65.5695 220.057 66.1656 220.057 66.7617C220.057 67.3578 220.057 67.9539 220.057 68.55C220.057 71.2323 220.056 73.3187 220.355 74.5108C220.653 76.001 221.547 76.8952 223.335 77.1932C223.931 77.1932 224.229 77.1932 224.527 77.1932C224.825 77.1932 225.421 76.8951 225.719 76.8951C227.507 76.5971 228.997 76.001 230.189 75.1069C231.381 74.2128 232.574 73.0206 233.766 72.1265C235.852 70.0402 237.938 67.9539 240.024 65.5695C242.11 63.4832 243.899 61.0988 245.985 59.0125C246.879 57.8204 248.071 56.6282 248.667 55.436C249.561 54.2439 250.455 53.0517 251.349 51.8595C255.224 46.4947 258.8 41.428 262.376 36.3613C265.655 31.2945 269.231 26.2278 272.807 21.161C272.509 22.3532 272.211 23.5454 271.913 24.7376C271.615 25.9297 271.317 27.1219 271.019 28.0161C271.019 28.9102 271.019 29.8043 270.721 30.6984C270.423 31.5926 270.125 32.4867 269.827 33.3808C268.933 36.9574 268.039 40.8319 266.847 44.4084C265.953 47.985 264.76 51.8595 263.866 55.7341C263.866 56.3302 263.568 57.2243 263.27 58.7145C262.972 60.2047 262.674 61.993 262.078 63.7812C261.482 65.5695 261.482 67.3578 261.184 69.146C260.886 70.9343 260.886 72.4245 260.886 73.3186C260.886 74.5108 261.184 74.8088 261.482 74.8088C261.78 74.8088 262.674 73.9147 263.568 72.1265C263.866 72.1265 263.866 72.1265 263.866 72.1265C263.866 72.1265 263.866 71.8284 264.164 71.5304L272.211 45.6006ZM196.214 60.8008C196.512 60.8008 196.81 60.8008 197.108 60.5028C197.406 60.5028 197.406 60.5028 197.406 60.2047C197.406 60.2047 197.407 59.9067 197.705 59.9067C197.705 59.6086 197.705 59.3106 197.705 59.0125C197.705 58.7145 197.704 58.4165 198.003 58.1184L198.599 57.2243C198.599 56.9263 198.599 56.9263 198.599 56.3302C198.599 55.7341 198.599 55.7341 198.599 55.436C198.599 55.138 198.599 54.8399 198.897 54.5419C198.897 54.2438 198.897 53.9458 199.195 53.6478C199.195 53.3498 199.195 53.3497 199.493 53.0517C199.493 52.7536 199.791 52.7536 199.791 52.4556C200.089 51.8595 200.089 51.5615 200.387 50.9654C200.387 50.3693 200.685 49.7732 200.983 49.4752C200.983 48.8791 201.281 48.283 201.579 47.9849C201.877 47.3889 201.877 47.0908 202.175 46.4947C203.069 43.2163 203.963 40.2358 205.155 36.9574C206.347 33.6789 207.241 30.6985 208.433 27.42L208.731 26.5258C211.116 25.9297 213.5 25.6317 215.884 25.3337C218.566 25.0356 220.653 24.7376 223.037 24.4395V24.1415C223.335 24.1415 223.335 23.8435 223.633 23.8435C223.931 23.8435 224.229 23.8434 224.527 23.5454C224.527 23.5454 224.527 23.2474 224.527 22.9493C224.527 22.6513 224.527 22.6513 224.825 22.3532C224.825 22.3532 224.825 22.3532 224.825 22.6513C224.825 22.6513 224.825 22.3532 224.527 22.3532V22.0552C223.633 21.7571 223.037 21.7571 222.441 21.7571C221.845 21.7571 220.951 21.7571 220.355 21.7571C219.46 21.7571 218.566 22.0552 218.268 22.0552C217.97 22.0552 217.672 22.0552 217.374 22.0552C217.076 22.0552 216.778 22.0552 216.48 22.0552C216.182 22.0552 215.586 22.0552 214.394 22.3532C213.798 22.3532 212.904 22.6513 212.308 22.6513C211.712 22.6513 210.818 22.9493 210.222 22.9493C210.818 21.7572 211.414 20.2669 212.01 19.0748C212.606 17.8826 213.202 16.3924 213.798 15.2002C214.692 13.71 215.288 12.5178 215.884 11.0276C216.48 9.53738 217.076 8.04716 217.672 6.55694C217.672 6.2589 217.97 5.96085 217.97 5.6628C217.97 5.36476 217.97 5.06673 218.268 5.06673C218.566 4.76868 218.566 4.47063 218.864 4.17259C218.864 3.87454 219.162 3.57649 218.864 3.27845C218.864 2.68236 218.268 2.38434 217.672 2.08629C217.076 1.78825 216.48 1.78823 215.884 1.78823C215.288 1.78823 214.692 1.78825 214.096 2.08629C213.5 2.38434 213.202 2.38433 212.904 2.68237C212.606 2.98041 212.606 3.27847 212.606 3.57651C212.606 3.87455 212.308 4.17261 212.308 4.47065C212.308 4.76869 212.01 5.36474 212.01 5.36474C212.01 5.36474 211.712 5.96084 211.712 6.25888L211.414 6.55694C211.414 6.55694 211.414 6.85498 211.116 7.15302C211.116 7.45106 210.818 8.04715 210.52 8.64324C210.222 9.53737 209.924 10.1335 209.626 11.0276C209.328 11.9217 209.03 12.5178 208.433 13.4119C207.539 15.2002 206.943 16.9884 206.049 18.7767C205.155 20.565 204.559 22.3532 203.963 24.1415C203.665 24.1415 203.367 24.4395 203.069 24.4395C202.771 24.4395 202.473 24.4395 202.175 24.7376C201.877 24.7376 201.579 24.7376 200.983 25.0356C200.387 25.0356 199.493 25.3337 198.897 25.6317C198.002 25.9297 197.406 25.9297 196.512 26.2278C195.618 26.5258 195.32 26.5258 194.724 26.5258L193.532 26.8239C193.532 27.1219 193.234 27.4199 193.234 27.718C193.234 28.016 192.936 28.3141 192.936 28.6121C192.936 29.2082 192.638 29.5063 192.638 29.8043C192.638 30.1024 192.638 30.4004 192.936 30.6984C192.936 30.6984 193.234 30.9965 193.234 30.6984C193.532 30.6984 193.83 30.6984 194.128 30.6984C194.426 30.6984 194.724 30.4004 194.724 30.4004C195.022 30.1024 195.022 30.1024 195.32 29.8043C195.618 29.8043 196.214 29.5063 196.512 29.5063C196.81 29.2082 197.407 29.2082 197.705 29.2082C198.599 28.6121 199.493 28.3141 200.387 28.3141C200.983 28.0161 201.877 28.016 202.473 27.718C202.175 28.6121 201.877 29.5063 201.579 30.4004C201.281 31.2945 200.983 32.1886 200.685 33.0828C200.089 35.4671 199.195 37.5534 198.599 39.6397C197.705 41.726 197.108 44.1104 196.512 46.4947C195.916 48.283 195.618 50.3693 195.32 52.4556C195.022 54.5419 194.724 56.6282 194.426 59.0125C194.426 59.3106 194.426 59.6086 194.426 59.9067C194.426 60.2047 194.724 60.5028 195.32 60.8008C195.618 61.0989 195.916 60.8008 196.214 60.8008ZM183.399 51.8595C181.909 52.4556 180.121 52.7536 178.929 53.3497C177.737 53.9458 176.247 53.9458 175.353 53.9458C174.458 53.9458 174.16 53.3497 174.458 52.4556C174.756 51.8595 175.055 51.2634 175.353 50.6674C175.651 50.0713 176.247 49.4752 176.545 49.1771C176.843 48.5811 177.141 48.283 177.737 47.6869C178.333 47.3889 178.631 46.7928 179.227 46.4947L181.313 45.0045L182.803 43.8124C183.101 43.5143 183.399 43.2163 183.697 43.2163C183.995 43.2163 184.293 42.9182 184.293 42.9182C184.293 42.9182 184.591 42.6202 184.889 42.9182C185.187 42.9182 185.485 42.9182 185.485 42.9182C185.485 42.6202 185.783 42.6202 186.081 42.6202C186.379 42.6202 186.379 42.6202 186.678 42.6202C186.976 42.3221 187.572 42.0241 187.572 41.7261C187.87 41.7261 188.168 41.428 188.764 41.1299C189.062 41.1299 189.062 40.8319 189.36 40.2358C189.36 39.9378 189.658 39.3417 189.658 39.0436C189.658 38.4476 189.658 38.1495 189.658 37.5534C189.658 36.9573 189.36 36.6593 189.062 36.6593C187.87 36.3612 187.274 36.0632 186.678 36.0632C186.379 36.0632 186.081 36.0632 185.783 36.3613C185.485 36.6593 185.485 36.6593 185.187 36.9574C184.889 36.9574 184.591 37.2554 184.591 37.2554C184.591 37.2554 184.293 37.5534 183.995 37.5534C183.399 37.8515 183.101 38.1495 182.803 38.4476C182.505 38.7456 182.207 39.0437 181.611 39.3417C181.015 39.9378 180.121 40.8319 179.525 41.428C178.929 42.0241 178.035 42.6202 177.439 43.2163C176.544 43.8124 175.949 44.4085 175.65 44.7065C175.352 45.0045 174.756 45.6006 174.16 46.4947C173.266 47.0908 172.67 47.9849 172.074 48.581C171.478 49.1771 170.882 50.0712 170.584 50.9654C169.69 52.7536 169.392 53.9458 169.69 54.8399C169.988 55.7341 170.584 56.6282 171.478 57.2243C171.776 57.5223 172.074 57.5223 172.67 57.8204C172.968 58.1184 173.564 58.1184 174.16 58.1184C175.054 58.1184 175.651 58.1184 176.247 58.1184C176.843 58.1184 177.439 58.1184 178.035 57.8204H178.333C178.333 57.8204 178.333 57.8204 178.631 57.8204C178.631 57.8204 178.929 57.8204 179.227 57.8204C179.525 57.8204 179.823 57.5223 179.823 57.5223C180.419 57.2243 180.717 57.2243 181.015 56.9262C181.313 56.6282 181.611 56.6282 181.909 56.6282C184.293 55.7341 186.976 54.8399 189.062 53.9458C191.446 53.0517 193.83 51.8595 196.214 50.6674C196.512 50.6674 196.81 50.3693 197.108 50.3693C197.406 50.0713 197.704 49.7732 198.3 49.4752C198.897 49.1771 199.195 48.8791 199.493 48.581C199.791 48.283 200.089 48.283 200.387 47.9849C200.387 47.6869 200.685 47.3889 201.281 47.3889C201.579 47.3889 201.877 47.0908 201.877 47.0908L202.175 46.7928C202.473 46.4947 202.771 46.4947 202.771 46.4947V46.1967C202.771 46.1967 202.771 45.8986 203.069 45.8986C203.069 45.8986 203.069 45.8986 202.771 45.6006C202.771 45.6006 202.175 45.6006 201.579 45.8986H200.983C200.685 45.8986 200.685 45.8986 200.387 45.8986C199.791 46.1967 199.195 46.1967 198.599 46.4947C198.003 46.7928 197.406 47.0908 197.108 47.3889C195.916 47.6869 195.32 47.985 194.724 48.283C194.128 48.283 193.83 48.581 193.532 48.581C193.234 48.581 193.234 48.8791 192.936 48.8791C192.638 48.8791 192.638 49.1771 192.34 49.1771C192.042 49.1771 191.446 49.4752 190.85 49.7732C190.254 50.0713 189.36 50.3693 188.168 50.9654C186.081 50.9654 184.889 51.2634 183.399 51.8595ZM168.796 48.283C167.604 48.8791 166.71 49.4752 165.816 49.7732C165.518 50.0713 164.922 50.0713 164.326 50.6674C163.729 51.2634 163.431 51.2634 162.835 51.5615C162.239 51.8595 161.941 51.8595 161.643 51.5615C161.345 51.2634 161.345 50.9654 161.345 50.0712L161.941 47.9849C162.239 47.6869 162.239 47.3888 162.239 47.0908C162.239 46.7928 162.239 46.7928 162.239 46.4947C162.239 46.1967 162.537 45.8986 162.835 45.6006V45.3026C163.133 45.0045 163.431 44.4084 163.431 43.8124C163.729 43.2163 164.027 42.6202 164.326 42.3221C164.624 42.0241 164.922 41.428 165.22 40.8319C165.22 40.2358 164.921 39.6397 164.623 39.6397C164.325 39.6397 164.027 39.3417 163.729 39.0436H162.537H161.941C161.643 39.0436 161.345 39.0436 161.345 39.0436C161.345 39.0436 161.047 39.3417 161.047 39.6397C161.047 39.9378 161.047 39.9378 161.047 39.9378C161.047 40.2358 161.047 40.2358 160.749 40.5339L160.451 40.8319H160.153C159.557 41.428 159.259 42.0241 158.663 42.3221C158.067 42.6202 157.769 42.9182 157.173 43.5143C155.087 45.0045 153.299 46.4948 151.51 47.6869C149.722 48.8791 147.636 50.3693 145.848 51.5615C145.55 51.8595 144.954 52.1575 144.358 52.4556C144.358 51.8595 144.656 51.5615 144.954 51.2634C145.252 50.9654 145.55 50.3693 145.55 49.7732C145.848 49.4752 146.146 49.1771 146.146 48.8791C146.444 48.581 146.742 48.283 147.04 47.9849C147.338 47.6869 147.338 47.6869 147.338 47.3889C147.636 47.0908 148.232 47.0908 148.232 46.4947C148.53 46.1967 148.828 45.8986 149.126 45.6006C149.722 45.0045 150.02 44.7065 150.616 44.1104C151.212 43.5143 151.51 43.2162 152.106 42.6202C152.404 42.3221 152.702 42.0241 153.001 42.0241C153.299 41.726 153.597 41.428 153.895 41.1299C154.491 40.8319 154.789 40.5339 155.385 40.2358C155.981 39.9378 156.279 39.6397 156.875 39.6397C156.875 39.3417 157.173 39.0436 157.471 39.0436C157.769 39.0436 157.769 39.0436 158.067 39.0436L158.365 38.7456L159.557 38.1495C160.153 37.5534 160.749 37.2554 161.345 36.9574C161.643 36.9574 161.941 36.6593 161.941 36.9574C162.239 36.9574 162.537 36.9573 162.537 36.6593C162.835 36.6593 162.835 36.3613 163.133 36.0632C163.133 35.7652 163.133 35.4671 163.133 35.4671C163.133 35.1691 163.133 34.871 162.537 34.573C162.239 34.275 161.941 33.9769 161.643 33.6789C161.047 33.6789 160.749 33.6789 160.451 33.3808C160.451 33.3808 160.153 33.6789 160.153 33.3808C159.855 33.3808 159.855 33.3808 159.855 33.3808C158.961 33.6789 158.365 33.9769 158.067 34.275C157.769 34.573 157.173 35.1691 156.577 35.4671C156.279 35.4671 155.683 36.0632 154.491 36.6593C153.597 37.2554 152.404 38.1495 151.212 39.3417C150.02 40.2358 149.126 41.428 147.934 42.3221C147.04 43.2163 146.146 43.8123 145.55 44.4084C144.954 45.3026 144.358 45.8987 143.762 46.7928C143.166 47.3889 142.569 48.283 142.271 49.1771C141.973 49.7732 141.675 50.0713 141.377 50.6674C141.079 51.2634 140.781 51.8595 140.781 52.4556V52.7537C140.483 53.9458 140.781 54.5419 141.377 55.138C141.675 55.4361 141.974 55.7341 142.57 55.7341C143.166 55.7341 143.464 55.7341 144.06 55.7341C144.358 55.7341 144.656 56.0321 144.954 56.0321H145.848C146.146 56.0321 146.742 56.0321 147.04 55.7341C147.636 55.436 147.934 55.138 148.232 54.8399C149.722 54.2439 151.212 53.3497 152.702 52.4556C152.702 52.1575 153 52.1576 153.298 52.1576C153.597 52.1576 153.597 51.8595 153.895 51.8595C153.895 51.8595 154.193 51.5615 154.491 51.5615C154.789 51.5615 154.789 51.2634 155.087 50.9654C155.385 50.6673 155.981 50.6673 155.981 50.3693C156.279 50.0713 156.577 49.7732 156.875 49.4752C157.173 49.4752 157.173 49.1771 157.173 49.1771L157.471 48.8791C157.471 48.8791 157.471 48.8791 157.769 48.8791C157.769 49.4752 157.471 50.3693 157.769 50.9654C158.067 51.5615 157.769 52.1576 158.067 52.7537C158.365 53.0517 158.365 53.6478 158.663 53.9458C158.961 54.2439 159.259 54.5419 159.855 54.8399C160.153 54.8399 160.153 54.84 160.451 55.138C160.749 55.138 160.749 55.138 160.749 55.138C161.941 55.4361 163.133 55.4361 164.027 55.138C164.921 54.84 165.816 54.5419 166.71 53.9458C167.604 53.3497 168.2 52.7537 169.094 52.1576C169.988 51.5615 170.882 50.9654 171.776 50.6674C171.776 50.6674 172.074 50.6673 172.372 50.3693C172.67 50.0713 173.266 49.7732 174.16 48.8791C174.458 48.283 174.458 48.283 174.756 47.9849C175.054 47.6869 175.353 47.6869 175.353 47.6869C175.949 47.0908 176.246 46.7928 175.948 46.4947C175.65 46.1967 174.458 46.4947 172.968 47.0908C170.882 47.0908 169.988 47.6869 168.796 48.283ZM131.543 60.8008C131.841 60.8008 132.139 60.8008 132.437 60.5028C132.735 60.5028 132.735 60.5028 132.735 60.2047C132.735 60.2047 132.735 59.9067 133.033 59.9067C133.033 59.6086 133.033 59.3106 133.033 59.0125C133.033 58.7145 133.033 58.4165 133.331 58.1184L133.927 57.2243C133.927 56.9263 133.927 56.9263 133.927 56.3302C133.927 55.7341 133.927 55.7341 133.927 55.436C133.927 55.138 133.927 54.8399 134.225 54.5419C134.225 54.2438 134.225 53.9458 134.523 53.6478C134.523 53.3498 134.523 53.3497 134.821 53.0517C135.119 52.7536 135.119 52.7536 135.119 52.4556C135.417 51.8595 135.417 51.5615 135.715 50.9654C135.715 50.3693 136.013 49.7732 136.311 49.4752C136.311 48.8791 136.609 48.283 136.907 47.9849C137.205 47.3889 137.205 47.0908 137.503 46.4947C138.397 43.2163 139.291 40.2358 140.483 36.9574C141.675 33.6789 142.57 30.6985 143.464 27.42L143.762 26.5258C146.146 25.9297 148.53 25.6317 150.914 25.3337C153.597 25.0356 155.683 24.7376 158.067 24.4395V24.1415C158.365 24.1415 158.365 23.8435 158.663 23.8435C158.961 23.8435 159.259 23.8434 159.557 23.5454C159.557 23.5454 159.557 23.2474 159.557 22.9493C159.557 22.6513 159.557 22.6513 159.855 22.3532C159.855 22.3532 159.855 22.3532 159.855 22.6513C159.855 22.6513 159.855 22.3532 159.557 22.3532V22.0552C158.663 21.7571 158.067 21.7571 157.471 21.7571C156.875 21.7571 155.981 21.7571 155.385 21.7571C154.491 21.7571 153.597 22.0552 153.298 22.0552C153 22.0552 152.702 22.0552 152.404 22.0552C152.106 22.0552 151.808 22.0552 151.51 22.0552C151.212 22.0552 150.616 22.0552 149.424 22.3532C148.828 22.3532 147.934 22.6513 147.338 22.6513C146.742 22.6513 145.848 22.9493 145.252 22.9493C145.848 21.7572 146.444 20.2669 147.04 19.0748C147.636 17.8826 148.232 16.3924 148.828 15.2002C149.722 13.71 150.318 12.5178 150.914 11.0276C151.51 9.53738 152.106 8.04716 152.702 6.55694C152.702 6.2589 153.001 5.96085 153.001 5.6628C153.001 5.36476 153 5.06673 153.298 5.06673C153.597 4.76868 153.597 4.47063 153.895 4.17259C153.895 3.87454 154.193 3.57649 153.895 3.27845C153.895 2.68236 153.298 2.38434 152.702 2.08629C152.106 1.78825 151.51 1.78823 150.914 1.78823C150.318 1.78823 149.722 1.78825 149.126 2.08629C148.53 2.38434 148.232 2.38433 147.934 2.68237C147.636 2.98041 147.636 3.27847 147.636 3.57651C147.636 3.87455 147.338 4.17261 147.338 4.47065C147.338 4.76869 147.04 5.36474 146.742 5.36474C146.444 5.66279 146.444 5.96084 146.444 6.25888L146.146 6.55694C146.146 6.55694 146.146 6.85498 145.848 7.15302C145.848 7.45106 145.55 8.04715 145.252 8.64324C144.954 9.53737 144.656 10.1335 144.358 11.0276C144.06 11.9217 143.762 12.5178 143.165 13.4119C142.271 15.2002 141.675 16.9884 140.781 18.7767C140.185 20.565 139.291 22.3532 138.695 24.1415C138.397 24.1415 138.099 24.4395 137.801 24.4395C137.503 24.4395 137.205 24.4395 136.907 24.7376C136.609 24.7376 136.311 24.7376 135.715 25.0356C135.119 25.0356 134.225 25.3337 133.629 25.6317C132.735 25.9297 132.139 25.9297 131.244 26.2278C130.648 26.5258 130.052 26.5258 129.456 26.5258L128.264 26.8239C128.264 27.1219 127.966 27.4199 127.966 27.718C127.668 28.016 127.668 28.3141 127.668 28.6121C127.668 29.2082 127.37 29.5063 127.37 29.8043C127.37 30.1024 127.37 30.4004 127.668 30.6984C127.668 30.6984 127.966 30.9965 127.966 30.6984C128.264 30.6984 128.562 30.6984 128.86 30.6984C129.158 30.6984 129.456 30.4004 129.456 30.4004C129.754 30.1024 129.754 30.1024 130.052 29.8043C130.35 29.8043 130.946 29.5063 131.244 29.5063C131.84 29.2082 132.139 29.2082 132.437 29.2082C133.331 28.6121 134.225 28.3141 135.119 28.3141C136.013 28.3141 136.609 28.016 137.205 27.718C136.907 28.6121 136.609 29.5063 136.311 30.4004C136.013 31.2945 135.715 32.1886 135.417 33.0828C134.821 35.4671 133.927 37.5534 133.331 39.6397C132.437 41.726 131.84 44.1104 131.244 46.4947C130.648 48.283 130.35 50.3693 130.052 52.4556C129.754 54.5419 129.456 56.6282 129.158 59.0125C129.158 59.3106 129.158 59.6086 129.158 59.9067C129.158 60.2047 129.456 60.5028 130.052 60.8008C130.947 61.0989 131.245 60.8008 131.543 60.8008ZM104.72 44.4084C105.018 43.5143 105.614 42.6202 105.912 42.0241C105.912 41.726 106.21 41.428 106.21 41.1299C106.21 40.8319 106.21 40.5339 106.508 39.9378C106.806 39.3417 107.104 39.0437 107.402 38.4476C107.7 37.8515 107.7 37.2554 107.402 36.6593C107.402 36.0632 106.806 35.7652 105.912 35.4671C105.018 35.1691 104.422 35.4672 103.826 35.7652C103.528 35.7652 103.528 36.0632 103.23 36.3613C103.23 36.6593 102.932 36.6593 102.932 36.9574C102.932 37.2554 102.932 37.5534 102.634 37.8515C102.336 38.1495 102.336 38.7456 102.336 39.0436C102.336 39.3417 102.038 39.6397 101.74 39.9378C101.442 40.2358 101.442 40.5339 101.144 40.8319C100.25 42.9182 99.3556 45.0045 98.4615 47.0908C97.5674 49.1771 96.6734 51.2634 96.0773 53.9458C95.7793 54.2439 95.7792 54.84 95.4812 55.138C95.4812 55.7341 95.1832 56.0321 95.4812 56.3302C95.4812 56.9263 96.0773 57.2243 96.6734 57.5223C97.2694 57.8204 97.8654 58.1184 98.4615 57.8204C99.0575 57.8204 99.9517 56.9262 101.144 55.436C102.336 53.9458 104.124 52.1575 105.912 50.0712C106.508 49.4752 107.402 48.8791 107.998 48.283C108.594 47.6869 109.489 47.0908 110.085 46.7928C110.979 45.8987 112.171 44.7065 113.065 44.1104C113.959 43.2162 115.151 42.3221 116.343 41.7261C116.641 41.428 116.939 41.13 117.535 40.8319C118.131 40.5339 118.429 40.2358 118.727 40.2358C118.727 40.8319 118.429 41.428 118.131 42.3221C117.833 42.9182 117.833 43.8124 117.833 44.7065C117.833 45.0045 117.535 45.6006 117.535 46.7928C117.237 47.6869 117.237 48.8791 116.939 49.7732C116.641 50.6674 116.641 51.8595 116.343 52.7537C116.045 53.6478 116.045 54.2438 116.045 54.5419C116.045 55.138 116.343 56.0321 116.939 56.6282C117.535 57.5224 118.131 57.8204 118.727 57.5223C119.025 57.5223 119.622 57.5223 120.218 57.5223C120.814 57.5223 121.41 57.5223 122.006 57.2243C122.602 56.9263 123.496 56.6282 124.39 56.0321C125.284 55.436 125.88 55.138 126.476 54.5419C127.072 53.9458 127.668 53.6478 127.966 53.6478C128.264 53.6478 128.264 53.3497 128.562 53.3497C128.86 53.3497 128.86 53.0517 128.86 53.0517C129.158 52.7536 129.456 52.4556 130.052 52.1576C130.35 51.8595 130.648 51.8595 130.946 51.5615C131.244 51.2634 131.542 50.9654 131.841 50.6674C132.735 50.3693 133.331 49.7732 133.629 49.1771C133.629 48.8791 133.927 48.581 133.927 48.283C133.927 47.985 133.629 47.985 133.033 47.6869C132.735 47.985 132.437 48.283 131.841 48.581C131.542 48.8791 130.946 49.1771 130.35 49.4752C130.052 49.4752 129.754 49.4752 129.456 49.7732C129.158 50.0713 128.562 50.0713 128.264 50.6674C127.966 50.9654 127.37 51.2634 127.072 51.5615C126.476 51.8595 125.88 52.1576 125.88 52.1576L125.582 52.4556H125.284C125.284 52.4556 124.688 52.7536 124.092 53.0517C123.496 53.3497 122.9 53.6478 122.602 53.6478C122.304 53.9458 121.708 53.9458 121.112 54.2439C121.112 53.6478 121.112 53.0517 121.112 51.8595C121.112 50.6673 121.41 49.7732 121.708 48.581C122.006 47.3888 122.006 46.1967 122.304 45.3026C122.602 44.1104 122.602 43.5143 122.602 42.9182C122.9 42.3221 122.9 41.428 123.198 40.8319C123.496 40.2358 123.496 39.3417 123.496 38.7456C123.496 38.1495 123.198 37.8515 122.304 37.2554C121.708 36.6593 121.112 36.6593 120.516 36.6593C119.621 36.6593 118.727 36.9573 118.131 37.5534C117.237 38.1495 116.641 38.4476 115.747 39.0436C113.959 40.2358 112.171 41.428 110.681 42.9182C109.191 44.4084 107.7 45.6006 106.21 47.0908C105.912 47.3888 105.614 47.6869 105.316 47.9849C105.018 48.283 104.72 48.581 104.124 48.581C103.826 46.1967 104.124 45.3026 104.72 44.4084ZM84.7523 39.9378C84.7523 40.8319 84.4543 42.0241 84.1562 43.2163C83.8582 44.4085 83.2622 45.6006 82.3681 46.7928C81.7721 47.985 81.176 48.5811 80.878 49.1771L80.2819 49.7732C79.3878 50.6674 78.4937 51.5615 77.5996 52.1576C76.7055 52.7537 75.5136 53.3497 74.0234 53.9458C73.7254 53.0517 73.4273 52.1576 73.7253 51.2634C74.0233 50.3693 74.3214 49.4752 74.3214 48.8791C74.3214 48.581 74.6194 47.9849 74.9175 47.0908C75.2155 46.4947 75.8114 45.6006 76.1095 44.7065C76.7055 43.8124 77.0035 43.2163 77.5996 42.3221C78.1957 41.7261 78.4938 41.13 78.7918 40.8319C79.0898 40.2358 79.3878 39.9378 79.6858 39.3417C79.9838 39.0437 80.2818 38.4475 80.5799 38.1495L80.878 37.8515C81.176 38.1495 81.474 38.1495 81.772 38.1495C82.0701 38.1495 82.3681 38.1495 82.6661 38.4476C84.1562 38.7456 84.7523 39.0437 84.7523 39.9378ZM89.5207 42.6202C89.5207 42.6202 89.5207 42.3221 89.5207 42.0241C90.1167 41.726 90.7128 41.726 91.6069 41.428C92.501 41.13 93.3951 41.13 94.2892 40.8319C95.1833 40.5339 96.0773 40.5339 96.9713 40.2358C97.8654 40.2358 98.7596 39.9378 99.6537 39.9378C100.548 39.9378 101.442 39.9378 101.74 39.9378C102.038 39.9378 102.336 39.9378 102.634 39.6397C102.634 39.6397 102.932 39.3417 103.23 39.3417C103.23 39.3417 103.826 39.0436 104.422 39.0436C104.72 39.0436 104.72 38.7456 105.018 38.4476C105.316 38.1495 105.018 37.8515 104.72 37.5534C104.422 37.5534 104.422 37.5535 104.422 37.2554C104.422 37.2554 104.124 36.9574 103.826 37.2554C103.826 37.2554 103.826 37.2554 103.528 37.2554C103.528 37.2554 103.528 37.2554 103.23 37.2554C102.932 37.2554 102.932 37.2554 102.932 37.2554C102.336 36.9574 101.144 36.6593 99.6537 36.6593C98.1635 36.6593 96.6735 36.6593 94.8853 36.9574C93.0971 36.9574 91.6069 37.2554 90.1168 37.5534C88.6266 37.8515 87.4346 37.8515 86.8385 38.1495L85.9445 36.9574C85.9445 36.9574 85.6464 36.6593 85.3484 36.6593C85.0504 36.6593 84.7524 36.3613 84.4544 36.3613C84.1563 36.3613 83.8582 36.0632 83.5601 36.0632C83.2621 36.0632 82.9642 36.0632 82.9642 36.0632H82.6661H82.3681C82.0701 35.7652 81.4741 35.7652 80.878 35.4671C80.2819 35.1691 79.9839 34.8711 79.3879 34.8711C78.7918 34.8711 78.1958 35.1691 77.8977 35.7652C77.3017 36.0632 77.0037 36.6593 76.4076 37.2554C76.1096 37.8515 75.5134 38.4476 75.2154 38.7456C74.6194 39.3417 74.0234 40.2358 73.4273 41.1299C72.8313 42.0241 72.2352 42.9182 71.9372 43.5143C71.9372 43.5143 71.6391 43.5143 71.6391 43.8124C71.6391 43.8124 71.6391 44.1104 71.3411 44.1104L69.851 48.581C69.851 48.8791 69.851 49.4752 69.553 49.7732C69.255 50.3693 69.255 50.6674 69.553 51.2634C69.255 51.2634 69.2549 51.5615 69.2549 51.8595C69.2549 52.1576 69.2549 52.4556 69.2549 52.4556C69.2549 53.3497 69.5529 54.2439 70.1489 54.8399C70.745 55.436 71.3411 56.0321 71.9372 56.3302C72.5333 56.6282 73.4273 56.9262 74.3214 56.9262C75.2155 56.9262 76.1096 56.9263 77.0037 56.6282C77.5997 56.6282 78.4938 56.6282 79.3879 56.0321C80.2819 55.436 81.1759 54.84 82.07 54.2439C82.9641 53.6478 83.8582 52.4556 85.0503 51.2634C85.6463 50.9654 85.9444 50.3693 86.2424 49.4752C86.5405 48.581 87.1366 47.985 87.4346 47.6869C87.7327 47.3889 88.0305 46.7928 88.0305 46.4947C88.0305 46.1967 88.3287 45.6006 88.3287 45.3026C88.6267 45.0045 88.6267 44.7065 88.9248 44.1104C88.9248 43.5143 88.9248 43.2162 88.9248 42.6202V42.6202H89.5207ZM50.7772 62.8871C51.6713 62.291 52.5653 61.695 53.7575 61.0989C54.6515 60.5028 55.8436 59.6086 56.7377 59.0125C57.6318 58.4165 58.526 57.8204 59.1221 57.5223C59.4201 57.2243 60.0162 56.9263 60.6122 56.6282C61.2083 56.3302 61.5063 56.0321 61.5063 55.7341C65.3806 53.0517 68.0627 51.2634 70.1489 49.7732C72.2351 48.283 73.4273 47.0908 73.7253 46.7928C74.0233 46.1967 74.0234 45.8987 72.8312 46.1967C71.9372 46.4948 70.447 47.0908 68.3608 47.9849C66.2747 48.8791 63.8904 50.0713 61.2081 51.8595C58.2279 53.3497 55.2477 55.138 51.9694 57.2243L34.0878 67.6558H33.7898C33.4918 67.9539 33.1937 68.2519 32.5976 68.55C32.0016 68.848 31.7035 68.848 31.4054 69.146C30.8094 69.4441 30.5114 69.7421 29.9153 69.7421C29.3193 70.0402 29.0213 70.0401 28.7233 70.3382C27.2332 70.9343 25.7429 71.8284 23.9548 72.7225C22.4646 73.6167 20.6766 74.2128 19.1864 75.1069C18.5904 75.4049 17.6963 75.4049 16.8022 75.703C15.9082 76.001 15.3121 76.001 14.4181 76.2991C13.524 76.5971 12.6298 76.5971 11.1397 76.8951C9.64953 77.1932 8.75545 76.8951 8.15939 76.2991C7.26531 75.703 6.66922 74.8089 6.07317 73.6167C5.47711 72.4245 5.17912 71.2323 5.17912 70.0402C5.17912 68.55 5.17912 67.0597 5.17912 65.5695C5.47715 64.3774 5.77514 62.8871 6.07317 61.695C6.07317 61.3969 6.3713 61.0989 6.3713 60.8008C6.3713 60.5028 6.37123 60.2047 6.66926 60.2047C6.66926 59.3106 6.96725 58.4165 7.5633 57.5223C8.15936 56.6282 8.1595 55.7341 8.45753 54.8399C9.05358 53.9458 9.35157 53.3497 9.35157 52.7537C9.6496 52.1576 9.94759 51.5615 10.2456 50.6674C10.2456 50.3693 10.2456 50.3693 10.2456 50.0712C10.5436 50.0712 10.5436 49.7732 10.2456 49.4752H10.5436C10.5436 49.4752 10.5437 49.1771 10.8417 49.1771H10.5436C10.8416 48.8791 11.1397 48.581 11.1397 47.9849C11.1397 47.3889 11.4377 47.0908 12.0337 46.7928C12.9278 45.3026 13.8219 43.5143 14.716 42.0241C15.6101 40.5339 16.5042 39.0436 17.6963 37.5534C17.9943 37.5534 17.9942 37.2554 17.9942 36.9574C17.9942 36.6593 18.2924 36.6593 18.2924 36.3613C18.5904 35.7652 19.1865 35.1691 19.7825 33.9769C20.6766 32.7847 21.2726 31.8906 22.1667 30.6984C23.0608 29.5063 23.9549 28.6121 24.849 27.42C25.7431 26.5258 26.3391 25.6317 26.6371 25.3337C26.6371 25.3337 26.6371 25.3337 26.6371 25.0356C26.6371 25.0356 26.6371 25.0356 26.6371 24.7376L26.935 24.4395C26.935 24.1415 27.2331 23.8435 27.5311 23.8435C27.8292 23.5454 27.8292 23.5454 28.1272 23.2473C28.7233 22.6513 29.0213 22.3532 29.6174 21.7571C30.2134 21.161 30.8095 20.863 31.1075 20.2669C31.1075 20.2669 31.1074 19.9689 31.4054 19.9689C31.7035 19.9689 31.7036 19.6708 31.7036 19.6708C32.0016 19.3728 32.2996 19.0747 32.5976 18.7767C32.8957 18.4786 33.1936 18.1806 33.4917 17.8826C33.7897 17.5846 34.0877 17.2865 34.3857 16.9885C34.6837 16.6904 34.9819 16.3924 35.2799 16.0943C36.472 15.2002 37.3661 14.3061 38.5582 13.4119L38.8561 13.1139C38.8561 13.1139 39.1543 13.1139 39.1543 12.8158C39.4523 12.5178 39.7503 12.5178 40.0483 12.2197C40.3463 11.9217 40.6443 11.6237 40.9423 11.6237C41.2404 11.3256 41.5384 11.3256 41.8364 11.0276C42.1344 10.7295 42.4325 10.7296 42.4325 10.4315C43.3266 10.1335 43.9226 9.83542 44.5187 9.53738C45.1148 9.23933 45.7108 8.94126 46.6049 8.34518C47.201 8.04713 48.0951 7.74913 48.6911 7.45108C49.2872 7.15304 50.1812 6.85496 51.0753 6.85496C51.9694 6.85496 52.5655 6.85498 53.1615 7.15302C53.7576 7.45106 54.0556 8.04715 54.0556 8.64324C54.0556 9.23932 54.0555 10.1334 53.7575 10.7295C53.4594 11.6237 53.4596 12.2198 53.1615 13.1139C53.1615 13.4119 52.8634 13.71 52.8634 14.008C52.8634 14.3061 52.8635 14.6041 52.5655 14.9022C52.2674 15.4983 51.9694 15.7963 51.6714 16.3924C51.3734 16.9885 51.3734 17.5845 51.6714 18.1806C51.9694 19.0747 52.8635 19.9689 54.0556 20.565C54.3536 20.565 54.3537 20.565 54.6517 20.565C54.9497 20.565 54.9496 20.565 55.2476 20.565C55.2476 20.565 55.5457 20.565 55.5457 20.2669C55.5457 19.9689 55.8438 19.9689 56.1418 19.9689V19.6708C56.4398 19.6708 56.4397 19.6709 56.7377 19.3728C57.0357 19.0748 57.3339 18.1806 57.6319 17.2865C57.6319 16.9884 57.9298 16.6904 58.2279 16.3924C58.5259 16.0943 58.5259 15.7963 58.8239 15.4982C58.8239 15.2002 59.122 14.9021 59.42 14.306C59.7181 13.71 59.718 13.4119 59.718 13.1139C59.718 12.5178 59.718 11.9217 59.718 11.3256C59.718 10.7295 59.42 9.83543 59.42 8.9413C59.122 8.04717 58.824 7.45105 58.526 6.85496C58.228 6.25887 57.9299 5.66279 57.3338 5.36474C55.8437 3.57648 54.0556 2.68235 51.9694 2.38431C49.8832 2.38431 47.499 2.68235 45.1148 3.87453C42.7306 5.0667 40.0482 6.55693 37.366 8.64324C34.6837 10.7295 32.0016 12.8159 29.3194 15.4982C26.6372 18.1806 23.9548 20.565 21.5706 23.5454C19.1864 26.2278 16.8021 28.9102 15.014 31.5926C13.2258 34.275 11.4377 36.6593 10.2456 38.7456C9.05351 40.8319 8.15936 42.6202 7.5633 43.8124V44.1104C6.96725 44.7065 6.66922 45.6006 6.07317 46.7928C5.77514 47.6869 5.17909 48.581 4.58303 49.4752C4.58303 49.4752 4.58311 49.7732 4.28508 50.3693C3.98705 50.6673 3.98702 51.2634 3.68899 51.8595C3.39096 52.4556 3.39093 52.7536 3.0929 53.3497C2.79487 53.6478 2.79495 53.9458 2.79495 53.9458C2.79495 54.2439 2.79502 54.5419 2.49699 54.5419C2.19897 54.8399 2.19897 54.84 2.49699 55.138C2.19897 55.138 2.19886 55.436 2.19886 55.7341C2.19886 56.0321 2.19893 56.0321 1.9009 56.3302C1.9009 56.3302 1.9009 56.3302 1.9009 56.6282C0.112742 62.8871 -0.483312 67.9538 0.410768 71.8284C1.00682 76.001 2.79502 78.6834 5.47726 80.4717C8.1595 81.9619 12.0337 82.558 16.5041 81.3658C20.9745 80.1736 26.637 78.0873 32.8956 73.9147C33.7897 73.6167 34.3858 73.3186 34.9818 72.7225C35.5779 72.4245 35.8759 72.4245 36.4719 72.1265C36.77 71.8284 37.3661 71.5304 37.6641 71.2323C37.9621 71.2323 38.2601 70.9343 38.5582 70.9343C38.8562 70.9343 39.1543 70.6362 39.1543 70.3382C39.4523 70.3382 39.7503 70.0402 40.0483 69.7421C40.6444 69.4441 41.2403 69.146 41.8364 68.55C42.4324 67.9539 43.0286 67.6558 43.6247 67.3578C44.2207 67.0597 44.5187 66.7617 45.1148 66.4636H45.4127C45.7108 66.1656 46.0088 65.8675 46.3068 65.8675C46.6048 65.8675 47.2009 65.5695 47.499 65.2715C47.797 65.2715 48.095 65.2714 48.393 64.9734C48.691 64.6754 48.9891 64.6754 48.9891 64.3773C48.9891 64.0793 49.8831 63.4832 50.7772 62.8871Z" fill="#AB8D60"/>
<rect x="3" y="84" width="290" height="5" fill="#AB8D60"/>
</svg>
