<svg width="279" height="85" viewBox="0 0 279 85" fill="none" xmlns="http://www.w3.org/2000/svg">
<path d="M3 61.1095H6.52816L7.61375 53.5104H13.2588L14.3444 61.1095H17.8726L12.2275 23.114H8.64506L3 61.1095ZM7.9937 49.9823L10.4363 32.7757L12.8789 49.9823H7.9937ZM22.0952 55.5188C22.0952 59.0469 24.7006 61.6523 28.2288 61.6523C31.7569 61.6523 34.3624 59.0469 34.3624 55.5188V40.9719H28.2288V44.5001H30.7799V55.5188C30.7799 57.0386 29.6943 58.1242 28.2288 58.1242C26.7632 58.1242 25.6777 57.0386 25.6777 55.5188V28.6505C25.6777 27.1306 26.7632 26.0451 28.2288 26.0451C29.6943 26.0451 30.7799 27.1306 30.7799 28.6505V35.2726H34.3624V28.6505C34.3624 25.1223 31.7569 22.5712 28.2288 22.5712C24.7006 22.5712 22.0952 25.1223 22.0952 28.6505V55.5188ZM38.585 61.1095H42.1132L43.1988 53.5104H48.8438L49.9294 61.1095H53.4576L47.8125 23.114H44.2301L38.585 61.1095ZM43.5787 49.9823L46.0213 32.7757L48.4639 49.9823H43.5787ZM54.5703 23.114L60.2154 61.1095H63.7978L69.4429 23.114H65.9147L62.0066 51.3935L58.0985 23.114H54.5703ZM73.964 61.1095H84.6028V57.5814H77.5465V43.8487H83.5172V40.3205H77.5465V26.5878H84.6028V23.114H73.964V61.1095Z" fill="#AB8D60"/>
<path d="M178.802 48.8424V55.5188C178.802 59.0469 181.407 61.6523 184.935 61.6523C188.463 61.6523 191.069 59.0469 191.069 55.5188V50.2537C191.069 42.7088 182.384 39.235 182.384 33.8613V28.6505C182.384 27.1306 183.47 26.0451 184.935 26.0451C186.401 26.0451 187.486 27.1306 187.486 28.6505V35.2726H191.069V28.6505C191.069 25.1223 188.463 22.5712 184.935 22.5712C181.407 22.5712 178.802 25.1223 178.802 28.6505V33.8613C178.802 41.4604 187.486 44.88 187.486 50.2537V55.5188C187.486 57.0386 186.401 58.1242 184.935 58.1242C183.47 58.1242 182.384 57.0386 182.384 55.5188V48.8424H178.802ZM196.176 61.1095H199.758V46.3456H202.309C205.838 46.3456 208.443 43.7401 208.443 40.212V29.1933C208.443 25.6651 205.838 23.114 202.309 23.114H196.176V61.1095ZM199.758 42.8174V26.5878H202.309C203.775 26.5878 204.86 27.6734 204.86 29.1933V40.212C204.86 41.7318 203.775 42.8174 202.309 42.8174H199.758ZM213.551 61.1095H217.133V23.114H213.551V61.1095ZM222.256 61.1095H225.839V44.7172H228.39C229.855 44.7172 230.941 45.8028 230.941 47.3226V61.1095H234.523V48.0282C234.523 45.8028 233.492 43.9573 231.81 42.9802C233.492 41.8946 234.523 40.0491 234.523 37.8237V29.1933C234.523 25.6651 231.918 23.114 228.39 23.114H222.256V61.1095ZM225.839 41.189V26.5878H228.39C229.855 26.5878 230.941 27.6734 230.941 29.1933V38.5836C230.941 40.1034 229.855 41.189 228.39 41.189H225.839ZM239.647 61.1095H243.23V23.114H239.647V61.1095ZM252.065 61.1095H255.647V26.5878H260.641V23.114H247.071V26.5878H252.065V61.1095ZM263.733 48.8424V55.5188C263.733 59.0469 266.338 61.6523 269.866 61.6523C273.395 61.6523 276 59.0469 276 55.5188V50.2537C276 42.7088 267.315 39.235 267.315 33.8613V28.6505C267.315 27.1306 268.401 26.0451 269.866 26.0451C271.332 26.0451 272.417 27.1306 272.417 28.6505V35.2726H276V28.6505C276 25.1223 273.395 22.5712 269.866 22.5712C266.338 22.5712 263.733 25.1223 263.733 28.6505V33.8613C263.733 41.4604 272.417 44.88 272.417 50.2537V55.5188C272.417 57.0386 271.332 58.1242 269.866 58.1242C268.401 58.1242 267.315 57.0386 267.315 55.5188V48.8424H263.733Z" fill="#AB8D60"/>
<path d="M157.031 37.7021C155.299 39.7292 152.986 42.1189 150 44.5956C151.053 45.828 153.057 48.0089 155.849 50.4459C163.569 47.3249 168.759 43.8231 171.162 42.0138C165.145 40.7334 160.235 39.0006 157.031 37.7021Z" fill="#FCFCFA"/>
<path d="M127.638 17.1266C129.665 18.8594 132.055 21.1725 134.531 24.1586C135.764 23.105 137.945 21.1029 140.384 18.3089C137.265 10.604 133.757 5.40782 131.947 3.00004C130.668 9.0181 128.936 13.9269 127.638 17.1266Z" fill="#FCFCFA"/>
<path d="M152.83 56.6537C151.544 56.7546 150.109 56.82 148.521 56.82C147.061 56.82 145.577 56.7483 144.09 56.6376L144.094 56.6425L144.055 56.6349C143.698 56.6077 143.342 56.5938 142.985 56.5611C142.858 58.177 142.731 61.1317 142.981 64.8331C150.633 68.0788 156.79 69.2736 159.772 69.6932C156.423 64.536 154.175 59.8346 152.83 56.6537Z" fill="#FCFCFA"/>
<path d="M146.596 21.3268C146.804 23.9844 146.857 27.3101 146.498 31.1702C147.425 31.2425 148.846 31.3212 150.619 31.3212C152.007 31.3212 153.392 31.2641 154.773 31.1716C158.023 23.5077 159.213 17.363 159.633 14.3846C154.476 17.7339 149.777 19.9809 146.596 21.3268Z" fill="#FCFCFA"/>
<path d="M117.5 62.8966C117.291 60.2376 117.235 56.9106 117.594 53.0505C116.673 52.9767 115.256 52.8981 113.481 52.8981C112.09 52.8981 110.706 52.9544 109.323 53.0491C106.079 60.6997 104.883 66.8541 104.461 69.8374C109.608 66.4943 114.312 64.2459 117.5 62.8966Z" fill="#FCFCFA"/>
<path d="M111.262 27.5663C112.552 27.464 113.991 27.3979 115.583 27.3979C117.041 27.3979 118.524 27.4689 120.009 27.5802H120.014C120.379 27.6074 120.745 27.6227 121.108 27.6575C121.228 26.1307 121.358 23.1384 121.108 19.3882C113.457 16.1426 107.305 14.9463 104.321 14.5246C107.663 19.6728 109.913 24.3791 111.262 27.5663Z" fill="#FCFCFA"/>
<path d="M107.061 46.5217C108.793 44.4946 111.108 42.1049 114.094 39.6282C113.038 38.3923 111.033 36.2086 108.244 33.7744C100.538 36.8941 95.3432 40.3986 92.9375 42.21C98.9263 43.4856 103.848 45.2211 107.061 46.5217Z" fill="#FCFCFA"/>
<path d="M132.146 81.2236C133.425 75.2111 135.159 70.2989 136.456 67.0957C134.429 65.3629 132.041 63.0498 129.566 60.0658C128.401 61.0609 126.189 63.086 123.713 65.9161C126.834 73.6322 130.336 78.8228 132.146 81.2236Z" fill="#FCFCFA"/>
<path d="M157.377 54.1589C152.701 50.5249 149.575 47.0281 148.3 45.5048C147.015 46.209 144.46 47.4261 140.766 48.2675C141.09 49.566 141.802 51.9766 143.111 54.6606C144.925 54.8304 146.743 54.9341 148.521 54.9341C152.482 54.9341 155.543 54.5047 157.377 54.1589Z" fill="#FCFCFA"/>
<path d="M144.098 16.7827C140.461 21.4591 136.963 24.585 135.441 25.8571C136.144 27.1417 137.361 29.6984 138.208 33.3964C139.553 33.0602 141.939 32.3463 144.601 31.0491C145.219 24.45 144.585 19.3742 144.098 16.7827Z" fill="#FCFCFA"/>
<path d="M106.716 30.061C111.383 33.6873 114.52 37.1946 115.796 38.72C117.083 38.0143 119.64 36.7972 123.335 35.9573C123.002 34.6149 122.292 32.2322 120.992 29.5579C119.176 29.3881 117.361 29.2844 115.581 29.2844C111.616 29.2844 108.55 29.7138 106.716 30.061Z" fill="#FCFCFA"/>
<path d="M158.477 32.7201C155.888 33.0436 153.253 33.2072 150.619 33.2072C148.507 33.2072 146.878 33.0993 145.946 33.0172C145.53 34.434 144.568 37.1167 142.564 40.3004C143.718 40.9907 145.93 42.1953 148.745 43.1667C153.85 38.9357 156.99 34.8975 158.477 32.7201Z" fill="#FCFCFA"/>
<path d="M105.615 51.5002C108.206 51.1767 110.843 51.011 113.48 51.011C115.606 51.011 117.23 51.121 118.155 51.2031C118.573 49.7849 119.535 47.1022 121.533 43.9213C120.351 43.2073 118.167 42.025 115.346 41.0577C110.23 45.2971 107.098 49.3256 105.615 51.5002Z" fill="#FCFCFA"/>
<path d="M119.998 67.4417C123.643 62.7465 127.136 59.6282 128.657 58.361C127.953 57.0764 126.734 54.5197 125.892 50.828C124.553 51.1599 122.174 51.8704 119.49 53.1766C118.873 59.7903 119.509 64.855 119.998 67.4417Z" fill="#FCFCFA"/>
<path d="M141.138 56.0056C139.721 55.5887 137.038 54.6263 133.861 52.6284C133.171 53.7787 131.966 55.9917 130.993 58.8107C135.223 63.9144 139.258 67.0528 141.435 68.5406C140.701 62.6785 140.962 57.993 141.138 56.0056Z" fill="#FCFCFA"/>
<path d="M122.957 28.2156C124.371 28.6304 127.055 29.5949 130.239 31.5977C130.926 30.4578 132.124 28.2595 133.104 25.4168C128.863 20.2971 124.833 17.1649 122.657 15.6806C123.394 21.5553 123.135 26.2344 122.957 28.2156Z" fill="#FCFCFA"/>
<path d="M138.981 35.1438C139.553 35.5022 140.09 35.9204 140.522 36.4319C140.629 36.5544 140.72 36.6803 140.817 36.8167C141.142 37.2712 141.395 37.7332 141.569 38.196C141.578 38.2134 141.584 38.2412 141.59 38.26C142.697 36.3435 143.393 34.6755 143.81 33.4862C141.851 34.3213 140.144 34.839 138.981 35.1438Z" fill="#FCFCFA"/>
<path d="M130.785 34.2152L130.002 33.6919C127.346 31.9167 124.982 30.9021 123.431 30.3565C124.259 32.3064 124.775 34.0043 125.077 35.163C125.273 35.0377 125.459 34.8958 125.664 34.7935C126.278 34.4935 126.928 34.2966 127.594 34.2089C128.382 34.1143 129.108 34.1505 129.876 34.3363C130.632 34.52 131.36 34.8394 132.046 35.2889C132.737 34.8345 133.472 34.5137 134.238 34.33C135.012 34.1491 135.742 34.1268 136.45 34.2117C135.826 31.3252 134.939 29.1067 134.266 27.7037C133.001 30.8422 131.619 32.9758 131.31 33.4337L130.785 34.2152Z" fill="#FCFCFA"/>
<path d="M126.429 48.7711L127.357 48.5839L127.54 49.5115C128.165 52.6472 129.121 55.0355 129.833 56.5184C130.596 54.6221 131.401 53.0967 132 52.0654L131.008 51.2178C130.662 50.9221 130.003 50.348 129.234 49.6674C129.053 49.5129 128.851 49.3327 128.645 49.1483L127.157 47.8059C126.616 47.3055 126.121 46.8275 125.671 46.3682C125.404 46.0968 125.137 45.8247 124.897 45.5554C124.7 45.3341 124.506 45.1184 124.325 44.9061C124.088 44.625 123.872 44.3529 123.676 44.0871L123.629 44.158C121.855 46.8136 120.839 49.1817 120.293 50.7349C123.264 49.4705 125.665 48.927 126.429 48.7711Z" fill="#FCFCFA"/>
<path d="M146.457 44.3292C144.312 43.4663 142.649 42.5526 141.631 41.9409C141.199 43.222 140.424 44.4002 139.193 45.6472C138.935 45.9061 138.665 46.1691 138.38 46.4329C137.922 46.8532 137.434 47.2819 136.914 47.7363L133.936 50.4252L134.095 50.5324C136.752 52.3076 139.117 53.3215 140.671 53.8671C139.4 50.888 138.862 48.4913 138.71 47.7286L138.526 46.8024L139.451 46.6187C142.587 45.9959 144.974 45.0397 146.457 44.3292Z" fill="#FCFCFA"/>
<path d="M122.571 38.0921C120.438 38.6662 118.772 39.3503 117.638 39.8938C119.923 40.8124 121.669 41.7936 122.663 42.4004C122.596 42.2529 122.525 42.1046 122.472 41.9606C122.413 41.8138 122.376 41.7101 122.347 41.6126C122.214 41.1394 122.151 40.6488 122.154 40.1457C122.161 39.4589 122.299 38.7748 122.563 38.1109C122.564 38.1047 122.569 38.0998 122.571 38.0921Z" fill="#FCFCFA"/>
<path d="M125.927 35.4772C125.291 35.7902 124.714 36.2431 124.252 36.7838L124.006 37.107L124.851 37.9504L127.632 35.1816L127.461 35.0093C126.933 35.0843 126.415 35.2337 125.927 35.4772ZM136.364 35.1705L139.145 37.9488L139.983 37.1118L139.753 36.8051C139.29 36.2565 138.708 35.7989 138.067 35.4859C137.574 35.2377 137.053 35.0867 136.522 35.0148L136.364 35.1705ZM132.246 36.3949L131.998 36.6114L131.734 36.3949C130.86 35.6606 130.014 35.2907 129.283 35.112L129.224 35.1705L132.002 37.9488L134.782 35.1705L134.717 35.1017C133.983 35.2796 133.128 35.6582 132.246 36.3949M132.796 38.7408L135.577 41.5192L138.351 38.7408L135.577 35.9625L132.796 38.7408ZM125.646 38.7487L128.424 41.5279L131.204 38.7487L128.424 35.9751L125.646 38.7487ZM123.12 39.6925L124.06 38.7487L123.439 38.1251C123.235 38.6404 123.126 39.1653 123.12 39.6925ZM140.023 38.7487L140.865 39.589C140.858 39.2886 140.82 38.9827 140.738 38.6824C140.693 38.5156 140.644 38.3519 140.578 38.1907L140.023 38.7487ZM136.364 42.3127L138.422 44.3686C139.445 43.3277 140.217 42.2835 140.635 41.0252L139.145 39.5344L136.364 42.3127ZM129.214 42.3215L131.998 45.0974L134.777 42.3215L131.998 39.5447L129.214 42.3215ZM123.357 41.0425C123.626 41.7792 124.165 42.636 125.032 43.6699C125.215 43.8794 125.413 44.1062 125.617 44.3315L127.632 42.3215L124.851 39.5447L123.357 41.0425ZM132.79 45.8894L134.669 47.773C135.199 47.294 135.679 46.864 135.973 46.6055L136.083 46.5154C136.618 46.0428 137.131 45.593 137.606 45.152L135.566 43.1127L132.79 45.8894ZM126.391 45.1432C126.854 45.612 127.361 46.0989 127.91 46.6095C128.35 47.0142 128.813 47.4331 129.26 47.8339L131.204 45.8957V45.8894L128.424 43.1127L126.391 45.1432ZM130.101 48.5792C130.912 49.289 131.61 49.8976 131.976 50.213C132.285 49.934 133.758 48.5934 133.835 48.5247L131.998 46.6869L130.101 48.5792Z" fill="url(#paint0_linear_1158_5497)"/>
<defs>
<linearGradient id="paint0_linear_1158_5497" x1="123.119" y1="50.213" x2="140.865" y2="50.213" gradientUnits="userSpaceOnUse">
<stop stop-color="#A58756"/>
<stop offset="0.382613" stop-color="#A58756"/>
<stop offset="0.615691" stop-color="#E6D4B3"/>
<stop offset="0.83994" stop-color="#A58756"/>
<stop offset="1" stop-color="#A58756"/>
</linearGradient>
</defs>
</svg>
