<svg width="726" height="95" viewBox="0 0 726 95" fill="none" xmlns="http://www.w3.org/2000/svg">
<path d="M699.325 57.4418L700.589 56.495C701.222 56.1794 701.854 55.8638 702.802 55.5481C703.751 55.2325 705.015 54.6014 706.912 53.6545L708.177 53.3389C707.545 54.2857 706.596 55.2326 705.648 56.1794C704.699 57.1263 703.435 58.0731 701.538 59.3356L699.009 60.598C698.692 60.598 698.376 60.9137 697.744 61.2293C697.112 61.5449 696.479 61.8604 695.847 61.8604C695.215 61.8604 694.899 62.1761 694.266 62.1761C693.634 62.1761 693.634 62.1761 693.95 61.8604C693.95 61.5448 694.266 61.5449 694.583 60.9136C694.899 60.598 695.215 60.2824 695.847 59.9668C696.163 59.6512 696.479 59.3355 697.112 58.7043C698.376 58.0731 698.693 57.7575 699.325 57.4418ZM720.823 45.1329L714.184 47.0266L713.868 47.3422C713.868 47.3422 713.868 47.3422 713.552 47.3422C713.236 47.3422 713.235 47.3422 713.235 47.3422C713.235 47.3422 713.235 47.3422 712.919 47.3422V47.0266C712.919 47.0266 712.603 46.7109 711.971 46.3953C711.339 46.0797 710.706 45.7642 710.074 45.7642C709.442 45.7642 708.809 45.4485 708.177 45.4485C707.229 45.4485 705.964 45.4485 705.016 45.4485C703.751 45.4485 702.802 45.7642 702.17 45.7642C701.222 46.0798 700.273 46.0797 699.325 46.0797C699.957 45.4485 700.59 44.8173 701.538 44.1861L702.486 43.5548L704.067 42.2924L705.016 41.6611C705.648 41.3455 706.28 41.0299 707.229 40.7143C708.177 40.3987 708.809 40.0831 709.442 39.4519C709.758 39.4519 710.074 39.1362 710.39 38.8206C710.706 38.505 710.706 38.505 710.706 38.8206C711.022 38.8206 711.338 38.505 711.655 38.505H711.971L712.919 37.8738C713.235 37.8738 713.236 37.5581 713.552 37.2425C713.552 36.9269 713.552 36.6113 713.235 35.9801C712.919 35.9801 712.603 35.6644 711.971 35.6644C711.655 35.6644 711.022 35.3488 710.706 35.3488L710.074 35.6644C709.125 35.6644 708.177 35.9801 707.229 36.2957C706.28 36.6113 705.332 37.2426 704.383 37.8738C703.435 38.505 702.486 39.1362 701.854 39.7674C700.906 40.3986 700.273 41.0299 699.325 41.3455L699.009 41.6611C698.06 42.6079 697.428 43.2392 696.796 43.8704C696.163 44.5017 695.847 44.8173 695.531 45.4485C695.531 45.7641 695.215 45.7641 695.215 46.0797C694.899 46.3953 694.899 46.711 694.899 47.0266C694.899 47.3422 694.899 47.6578 695.215 48.289C695.531 48.6047 695.847 49.2359 696.163 49.5515C696.163 49.5515 696.479 49.5515 696.479 49.8671C696.796 49.8671 696.796 49.8671 697.112 49.8671C698.06 49.8671 698.693 49.8671 699.325 49.8671C699.957 49.8671 700.589 49.5515 701.222 49.5515C702.486 49.2359 703.751 48.9203 705.332 48.9203C706.596 48.9203 707.861 48.9203 708.493 48.9203H708.809C709.442 48.6047 709.758 48.9203 709.125 48.9203C708.493 49.2359 707.545 49.5515 706.28 50.1827C705.016 50.814 703.435 51.4451 701.538 52.392C699.641 53.3388 698.06 54.2858 696.479 55.2326C694.899 56.1794 693.634 57.4418 692.37 58.7043C691.105 59.9667 690.789 61.2292 690.789 62.1761C690.789 63.1229 691.105 63.7542 691.421 64.0698C692.053 64.701 692.686 65.0166 693.95 65.0166C694.583 65.0166 695.215 65.0167 696.163 64.701C697.112 64.3854 698.376 64.0698 699.641 63.123C699.957 62.8074 700.589 62.8073 701.222 62.1761C701.854 61.8605 702.486 61.2292 703.119 60.9136C703.751 60.2824 704.699 59.6511 705.964 58.7043C706.912 57.7574 708.177 56.8106 709.758 55.5481L710.39 55.2326C710.706 54.917 711.338 54.2858 711.655 53.6545C711.971 53.0233 712.919 51.7608 713.552 49.8671C713.552 49.8671 713.552 49.8671 713.868 49.8671H714.184C714.184 49.8671 714.816 49.8671 715.765 49.5515C716.713 49.2359 717.662 48.9203 718.61 48.6047C719.558 48.2891 720.823 47.9734 721.771 47.6578C722.72 47.3422 723.668 47.0266 724.301 46.711C724.933 46.711 725.565 46.3954 725.881 45.7642C726.198 45.4485 725.881 44.8173 724.933 44.1861H723.985H723.669H723.036C722.72 44.1861 722.404 44.5016 722.404 44.5016H722.088C721.139 45.1328 720.823 45.1329 720.823 45.1329ZM673.717 57.4418L674.981 56.495C675.614 56.1794 676.246 55.8638 677.194 55.5481C678.143 55.2325 679.407 54.6014 681.304 53.6545L682.569 53.3389C681.937 54.2857 680.988 55.2326 680.04 56.1794C679.091 57.1263 677.827 58.0731 675.93 59.3356L673.401 60.598C673.084 60.598 672.768 60.9137 672.136 61.2293C671.504 61.5449 670.871 61.8604 670.239 61.8604C669.607 62.1761 669.29 62.1761 668.974 62.1761C668.658 62.1761 668.342 62.1761 668.658 61.8604C668.658 61.5448 668.974 61.5449 669.291 60.9136C669.607 60.2824 669.923 60.2824 670.555 59.9668C670.871 59.6512 671.187 59.3355 671.82 58.7043C672.452 58.0731 673.084 57.7575 673.717 57.4418ZM695.215 45.1329L688.576 47.0266L687.943 47.3422C687.943 47.3422 687.943 47.3422 687.627 47.3422H687.311C687.311 47.3422 687.311 47.3422 686.995 47.3422V47.0266C686.995 47.0266 686.679 46.7109 686.047 46.3953C685.414 46.0797 684.782 45.7642 684.15 45.7642C683.517 45.7642 682.885 45.4485 682.253 45.4485C681.304 45.4485 680.04 45.4485 679.091 45.4485C678.143 45.4485 676.878 45.7642 676.246 45.7642C675.297 46.0798 674.665 46.0797 673.401 46.0797C674.033 45.4485 674.665 44.8173 675.614 44.1861L676.562 43.5548L677.827 42.2924L678.775 41.6611C679.407 41.3455 680.04 41.0299 680.988 40.7143C681.937 40.3987 682.569 40.0831 683.201 39.4519C683.517 39.4519 683.834 39.1362 684.15 38.8206C684.466 38.505 684.466 38.505 684.466 38.8206C684.782 38.8206 685.098 38.505 685.414 38.505H685.73L686.679 37.8738C686.995 37.8738 686.995 37.5581 687.311 37.2425C687.311 36.9269 687.311 36.6113 686.995 35.9801C686.679 35.9801 686.363 35.6644 685.73 35.6644C685.098 35.6644 684.782 35.3488 684.466 35.3488L683.833 35.6644C682.885 35.6644 681.937 35.9801 680.988 36.2957C680.04 36.6113 679.091 37.2426 678.143 37.8738C677.194 38.505 676.562 39.1362 675.614 39.7674C674.665 40.3986 674.033 41.0299 673.084 41.3455L672.768 41.6611C671.82 42.6079 671.187 43.2392 670.555 43.8704C669.923 44.5017 669.607 44.8173 669.291 45.4485C669.291 45.7641 668.974 45.7641 668.974 46.0797C668.974 46.3953 668.658 46.711 668.658 47.0266C668.658 47.3422 668.658 47.6578 668.974 48.289C669.29 48.6047 669.607 49.2359 669.923 49.5515C669.923 49.5515 670.239 49.5515 670.239 49.8671C670.555 49.8671 670.555 49.8671 670.871 49.8671C671.82 49.8671 672.452 49.8671 673.084 49.8671C673.717 49.8671 674.349 49.5515 674.981 49.5515C676.246 49.2359 677.51 48.9203 679.091 48.9203C680.356 48.9203 681.62 48.9203 682.253 48.9203H682.569C683.201 48.6047 683.517 48.9203 682.885 48.9203C682.253 49.2359 681.304 49.5515 680.04 50.1827C678.775 50.814 677.194 51.4451 675.297 52.392C673.4 53.3388 671.82 54.2858 670.239 55.2326C668.658 56.1794 667.394 57.4418 666.129 58.7043C664.864 59.9667 664.548 61.2292 664.548 62.1761C664.548 63.1229 664.865 63.7542 665.181 64.0698C665.813 64.701 666.445 65.0166 667.71 65.0166C668.342 65.0166 668.974 65.0167 669.923 64.701C670.871 64.3854 672.136 64.0698 673.401 63.123C673.717 62.8074 674.349 62.8073 674.981 62.1761C675.614 61.8605 676.246 61.2292 676.878 60.9136C677.51 60.2824 678.459 59.6511 679.724 58.7043C680.672 57.7574 681.937 56.8106 683.517 55.5481L684.15 55.2326C684.466 54.917 685.098 54.2858 685.414 53.6545C685.73 53.0233 686.679 51.7608 687.311 49.8671C687.311 49.8671 687.311 49.8671 687.627 49.8671H687.943C687.943 49.8671 688.576 49.8671 689.208 49.5515C690.156 49.2359 691.105 48.9203 692.053 48.6047C693.002 48.2891 694.267 47.9734 695.215 47.6578C696.163 47.3422 697.112 47.0266 697.744 46.711C698.376 46.711 699.009 46.3954 699.325 45.7642C699.641 45.4485 699.325 44.8173 698.376 44.1861H697.428H697.112V44.1861C696.796 44.1861 696.796 44.5016 696.479 44.5016C696.163 44.5016 696.163 44.5016 696.163 44.5016C695.531 45.1328 695.215 45.1329 695.215 45.1329ZM653.167 40.7143C654.748 39.1362 656.961 37.8737 659.174 37.2425C659.174 37.5581 659.174 37.5581 658.858 37.5581C657.909 38.8206 656.644 40.083 655.38 41.3455C654.115 42.6079 652.851 43.5548 651.586 44.8173C650.954 45.1329 650.638 45.4485 650.005 45.7642C649.373 46.0798 649.057 46.0797 648.425 46.0797C649.689 44.186 651.27 42.2924 653.167 40.7143ZM662.019 52.7076C662.335 52.392 663.284 52.0764 663.916 51.7608C664.864 51.1296 665.813 50.814 666.761 50.1827C667.71 49.5515 668.658 48.9203 669.923 48.289C671.188 47.6578 671.82 47.0266 672.452 46.711C672.768 46.3953 673.401 46.0797 673.401 46.0797C673.717 46.0797 674.033 45.7642 674.033 45.7642C674.349 45.7642 674.349 45.4485 674.349 45.4485C674.665 45.1329 674.981 44.8173 675.297 44.1861C675.613 43.5549 675.93 43.5548 676.246 43.2392C676.562 42.9236 676.562 42.608 676.562 42.2924C676.562 41.9768 676.246 41.9767 675.614 41.9767C675.614 41.9767 675.613 41.9767 675.297 41.9767H674.981C674.349 41.9767 674.033 42.2924 673.717 42.2924C673.4 42.2924 673.084 42.6079 672.768 42.9235C671.82 43.5548 670.871 43.8704 669.923 44.5016C668.974 45.1328 667.71 45.4485 666.761 46.0797C665.497 46.7109 664.548 47.3422 663.6 47.6578C662.651 47.9734 662.019 48.6047 661.071 48.9203C660.122 49.2359 659.49 49.5515 658.541 50.1827C657.593 50.814 656.644 51.1296 655.38 51.7608C654.748 52.0764 654.115 52.392 653.483 52.392C652.851 52.7076 651.902 52.7076 651.27 53.0233C650.322 53.3389 649.373 53.6545 648.425 53.9701C647.476 54.2857 646.212 54.6013 644.947 54.2857C644.315 53.9701 644.315 53.3389 643.999 52.7076C643.682 52.0764 643.998 51.4451 644.315 50.8139C644.631 50.1827 644.947 49.5515 645.263 48.9203C645.579 48.2891 645.895 47.9735 646.528 47.3422C647.476 47.3422 648.741 47.3422 649.689 47.3422C650.638 47.0266 651.586 46.7109 652.218 46.3953C654.748 44.8173 657.277 42.608 659.806 40.3987C659.806 40.083 660.122 39.7675 660.438 39.4519C660.755 39.1362 661.071 38.8206 661.387 38.505C661.703 38.1893 662.019 37.8738 662.335 37.5581C662.651 37.2425 662.968 36.9269 662.968 36.6112C662.968 35.98 662.651 35.0332 662.019 34.402C661.387 33.7708 659.806 33.1396 657.593 33.1396C657.277 33.1396 656.961 33.1395 656.961 33.4551C656.961 33.4551 656.644 33.7707 656.328 33.7707C655.696 34.0863 655.064 34.402 654.115 34.7176C653.167 35.0333 652.535 35.3488 651.902 35.9801C650.322 36.9269 649.057 37.8738 647.476 39.4519C645.895 41.0299 644.631 42.2924 643.366 43.8704C643.366 44.1861 643.05 44.5016 643.05 44.8173C642.734 45.1329 642.734 45.4485 642.418 45.7642C642.102 46.3954 641.786 47.3422 641.469 47.9734C641.153 48.9202 640.837 49.5515 640.521 50.4984C640.205 51.4452 640.205 52.0764 640.205 53.0233C640.205 53.9701 640.521 54.6014 640.837 55.2326C641.469 56.1794 642.102 56.495 643.05 57.1262C643.999 57.4418 644.947 57.7575 645.895 57.7575C646.844 57.7575 647.792 57.7575 648.741 57.4418C649.689 57.1262 650.638 57.1263 651.27 56.8107C651.902 56.4951 652.535 56.495 653.167 56.1794C653.799 55.8638 654.431 55.8638 654.748 55.5481L662.019 52.7076ZM629.456 53.0233C627.875 53.6545 625.978 54.2857 624.713 54.6013C623.133 54.9169 621.868 55.2326 620.92 55.2326C619.971 55.2326 619.655 54.6014 619.971 53.6545C620.287 53.0233 620.603 52.392 620.92 51.7608C621.236 51.1296 621.868 50.4984 622.184 50.1827C622.5 49.5515 622.816 49.2359 623.449 48.9203C624.081 48.6047 624.397 47.9735 625.03 47.3422L627.243 45.7642L628.823 44.5016C629.14 44.186 629.456 43.8704 629.772 43.8704C630.088 43.8704 630.404 43.5548 630.404 43.5548C630.404 43.5548 630.72 43.2392 631.036 43.5548C631.352 43.8704 631.669 43.5548 631.669 43.5548C631.669 43.2392 631.985 43.2392 632.301 43.2392C632.617 43.2392 632.617 43.2392 632.933 43.2392C633.249 42.9236 633.882 42.608 633.882 42.2924C633.882 41.9768 634.514 41.9767 635.146 41.6611C635.463 41.6611 635.462 41.3455 635.779 40.7143C635.779 40.3987 636.095 39.7675 636.095 39.4519C636.095 39.1362 636.095 38.5049 636.095 38.1893C636.095 37.8737 635.779 37.2425 635.462 37.2425C634.198 36.9269 633.566 36.6112 632.933 36.6112C632.617 36.6112 632.301 36.6113 631.985 36.9269C631.669 37.2425 631.669 37.2425 631.353 37.5581C631.036 37.8738 630.72 37.8738 630.72 37.8738C630.404 37.8738 630.404 37.8737 630.088 38.1893C629.456 38.5049 629.14 38.8206 628.823 39.1362C628.507 39.4518 628.191 39.7674 627.559 40.083C626.926 40.7143 625.978 41.6611 625.346 42.2924C624.713 42.9236 623.765 43.5549 623.133 44.1861C622.184 44.8173 621.552 45.4485 621.236 45.7642C620.92 46.0798 620.287 46.7109 619.655 47.6578C618.706 48.289 618.074 49.2359 617.442 49.8671C616.81 50.4983 616.177 51.4451 615.861 52.392C614.913 54.2857 614.597 55.5482 614.913 56.495C615.229 57.4419 615.861 58.3887 616.809 59.0199C617.126 59.3355 617.442 59.3356 618.074 59.6512C618.39 59.9668 619.023 59.9668 619.655 59.9668C620.603 59.9668 621.236 59.9668 621.868 59.9668C622.184 59.9668 623.133 59.9668 623.765 59.6512H624.081C624.081 59.6512 624.081 59.6512 624.397 59.6512C624.397 59.6512 624.713 59.6512 625.03 59.6512C625.346 59.6512 625.662 59.3356 625.662 59.3356C626.294 59.0199 626.61 59.0199 626.926 58.7043C627.243 58.7043 627.559 58.3888 627.875 58.3888C630.404 57.4419 633.249 56.495 635.462 55.5481C637.992 54.6013 640.521 53.3389 643.05 52.0765C643.366 52.0765 643.682 51.7608 643.999 51.7608C644.315 51.4452 644.631 51.1295 645.263 50.8139C645.579 50.4983 646.212 50.1827 646.528 49.8671C646.844 49.5515 647.16 49.5515 647.476 49.2358C647.476 48.9202 647.792 48.6047 648.425 48.6047C648.741 48.6047 649.057 48.289 649.057 48.289C649.373 48.289 649.373 47.9734 649.373 47.9734C649.689 47.6578 650.005 47.6578 650.005 47.6578C650.005 47.6578 650.005 47.6578 650.005 47.3422C650.005 47.0266 650.005 47.0266 650.322 47.0266C650.322 47.0266 650.321 47.0266 650.005 46.711C650.005 46.711 649.373 46.711 648.741 47.0266H648.108C647.792 47.0266 647.792 47.0266 647.476 47.0266C646.844 47.3422 646.212 47.3422 645.579 47.6578C644.947 47.9734 644.315 48.2891 643.999 48.6047C642.734 48.9203 642.102 49.2359 641.469 49.5515C640.837 49.5515 640.521 49.8671 640.205 49.8671C639.889 49.8671 639.889 50.1827 639.572 50.1827C639.256 50.1827 639.256 50.4984 638.94 50.4984C638.624 50.4984 637.992 50.8139 637.359 51.1296C636.727 51.4452 635.779 51.7608 634.514 52.392C632.617 52.0764 631.352 52.392 629.456 53.0233ZM604.48 40.3987C604.48 41.3455 604.164 42.608 603.847 43.8704C603.215 45.1329 602.899 46.3953 601.951 47.6578C601.318 48.9202 600.686 49.5515 600.686 50.1827L600.054 50.8139C599.105 51.7608 598.157 52.7077 597.208 53.3389C596.26 53.9701 594.995 54.6014 593.414 55.2326C593.098 54.2858 592.782 53.3388 593.098 52.392C593.414 51.4451 593.731 50.4983 593.731 49.8671C593.731 49.5515 594.047 48.9202 594.363 47.9734C594.679 47.3422 595.311 46.3954 595.628 45.4485C596.26 44.5017 596.576 43.8704 597.208 42.9235C597.841 42.2923 598.157 41.6611 598.473 41.3455C598.789 40.7142 599.105 40.3986 599.421 39.7674C599.737 39.4518 600.054 38.8206 600.37 38.505L600.686 38.1893C601.002 38.5049 601.318 38.505 601.634 38.505C601.95 38.505 602.267 38.505 602.583 38.8206C603.847 39.1362 604.48 39.4518 604.48 40.3987ZM609.538 43.2392C609.538 43.2392 609.538 42.9236 609.538 42.608C610.17 42.2924 610.803 42.2924 611.751 41.9767C612.7 41.6611 613.648 41.6611 614.597 41.3455C615.545 41.0299 616.493 41.0299 617.442 40.7143C618.39 40.7143 619.339 40.3987 620.287 40.3987C621.236 40.3987 622.184 40.3987 622.5 40.3987C622.817 40.3987 623.133 40.3986 623.449 40.083L623.765 39.7674C623.765 39.7674 624.397 39.4519 625.03 39.4519C625.346 39.4519 625.662 39.1362 625.662 38.8206C625.662 38.505 625.662 38.1894 625.346 37.8738C625.029 37.8738 625.03 37.8738 625.03 37.5581C625.03 37.5581 624.713 37.5581 624.397 37.5581C624.397 37.5581 624.397 37.5581 624.081 37.5581C624.081 37.5581 624.081 37.5581 623.765 37.5581H623.449C622.816 37.2425 621.552 36.9269 620.287 36.9269C618.707 36.9269 617.126 36.9269 615.229 37.2425C613.332 37.2425 611.751 37.5582 610.17 37.8738C608.59 38.1894 607.325 38.1893 606.693 38.505L605.744 37.2425C605.744 37.2425 605.428 36.9269 605.112 36.9269C604.796 36.9269 604.48 36.6112 604.163 36.6112C603.847 36.6112 603.531 36.2957 603.215 36.2957C602.899 36.2957 602.583 36.2957 602.583 36.2957H602.267H601.951C601.634 35.9801 601.002 35.9801 600.37 35.6644C599.738 35.3488 599.421 35.0332 598.789 35.3488C598.157 35.3488 597.524 35.6645 597.208 36.2957C596.576 36.6113 596.26 37.2426 595.628 37.8738C594.995 38.505 594.679 39.1362 594.363 39.4519C593.731 40.0831 593.098 41.0299 592.466 41.9767C591.834 42.9236 591.201 43.8704 590.885 44.5016C590.885 44.5016 590.569 44.5016 590.569 44.8173C590.569 44.8173 590.569 45.1329 590.253 45.1329L588.672 49.8671C588.672 50.1827 588.672 50.8139 588.356 51.1296C588.04 51.7608 588.04 52.0764 588.356 52.392C588.04 52.392 588.04 52.7076 588.04 53.0233C588.04 53.3389 588.04 53.6545 588.04 53.6545C588.04 54.6014 588.356 55.5482 588.988 56.1794C589.621 56.8106 590.253 57.4419 590.885 57.7575C591.518 58.0731 592.466 58.3888 593.414 58.3888C594.363 58.3888 595.311 58.3887 596.26 58.0731C596.892 58.0731 597.841 58.0731 598.789 57.4418C599.738 56.8106 600.686 56.1794 601.634 55.5481C602.583 54.9169 603.531 53.6545 604.796 52.392C605.428 52.0764 605.744 51.4452 606.06 50.4984C606.377 49.5515 607.009 48.9203 607.325 48.6047C607.641 48.2891 607.957 47.6578 607.957 47.3422C608.273 46.711 608.274 46.3953 608.59 46.0797C608.906 45.7641 608.906 45.4485 609.222 44.8173C609.222 44.186 609.222 43.8704 609.222 43.2392V43.2392H609.538ZM589.305 35.9801C588.672 35.9801 588.04 35.9801 587.408 36.2957C585.511 36.2957 583.614 36.9269 581.401 37.5581C579.188 38.1894 576.975 39.4519 574.762 41.0299C574.762 40.7143 575.078 40.083 575.078 39.7674C575.078 39.1362 575.394 38.8206 575.394 38.1893C576.342 37.2425 576.342 36.2957 575.71 35.3488C575.394 35.0332 575.078 34.7176 574.445 34.7176H574.129C573.813 34.7176 573.813 34.7176 573.813 34.7176C573.497 34.7176 573.497 34.7176 573.181 35.0332C572.865 35.0332 572.548 35.0332 572.548 35.3488C572.232 35.3488 571.916 35.6644 571.6 35.6644C571.6 35.9801 571.284 35.9801 571.284 35.9801C571.284 35.9801 570.968 36.2956 570.968 36.6112C570.652 37.8737 570.019 38.8206 569.703 40.083C569.071 41.3455 568.755 42.608 568.439 43.8704C568.122 44.8173 567.49 45.7641 567.174 46.711C566.858 47.6578 566.542 48.6046 565.909 49.5515C565.909 49.8671 565.909 49.8671 565.909 50.1827C565.909 50.814 565.593 51.7608 564.961 53.0233C564.645 54.2857 564.329 55.2325 564.013 55.8638C563.696 56.8106 564.012 57.7575 564.645 58.3888C565.277 59.02 566.226 59.0199 567.174 58.7043C567.49 58.7043 567.806 58.7043 568.122 58.0731C568.439 57.7575 568.755 57.4418 568.755 57.1262C569.071 57.1262 569.071 56.8106 569.387 56.1794C569.703 55.5482 569.703 54.9169 570.019 54.2857C570.335 53.6545 570.335 52.7077 570.652 52.0765C570.968 51.4452 570.968 50.814 571.284 50.1827C571.6 49.5515 572.232 48.9203 572.865 48.289C573.497 47.6578 573.813 47.3422 574.445 46.711C575.078 46.0797 575.71 45.4485 576.975 44.5016C577.923 43.8704 579.188 43.2392 580.452 42.608C581.717 41.9768 582.982 41.3455 584.562 40.7143C585.827 40.0831 587.408 39.7675 588.672 39.4519C588.988 39.1362 589.304 38.8206 589.621 38.8206C589.937 38.8206 590.253 38.5049 590.253 38.1893C590.569 38.1893 590.569 38.1894 590.569 37.8738C590.885 37.8738 590.885 37.5581 590.885 37.5581V37.2425C590.569 35.9801 589.937 35.9801 589.305 35.9801ZM527.339 88.6877C527.655 87.1096 527.971 85.8472 528.287 84.5847C528.604 83.3223 528.92 82.0598 529.236 80.7973C529.236 80.4817 529.236 80.4818 529.552 80.4818C529.552 79.8506 529.552 79.2193 529.552 78.9037C529.868 78.2725 529.868 77.6413 530.184 77.3256C530.501 76.0632 531.133 75.1163 531.449 73.8539C531.765 72.5914 532.397 71.6445 532.714 70.3821C533.346 68.804 533.978 67.2259 534.927 65.6479C535.875 64.0698 536.507 62.8074 536.823 61.5449C534.61 71.0133 531.449 80.1661 527.339 88.6877ZM546.94 41.0299C547.256 40.3987 547.256 39.7675 547.256 39.1362C547.256 38.505 546.94 38.1894 545.992 37.8738C545.043 37.5582 544.727 37.2425 544.411 37.2425C543.779 36.9269 543.463 36.9269 542.514 37.2425C541.566 37.5581 541.25 37.5582 541.25 37.8738C540.934 38.1894 540.933 38.8206 540.933 39.4519C540.933 40.0831 540.933 41.0299 540.617 41.6611C540.617 42.6079 540.301 43.8704 540.301 45.1329C539.985 46.3953 539.985 47.6578 539.669 48.9203C539.353 50.1828 539.037 51.4452 538.72 52.7076C538.404 53.9701 538.088 54.9169 538.088 55.5481C537.14 57.1262 536.191 58.3887 535.559 59.6512C534.611 60.9137 533.978 62.1761 533.03 63.123C532.397 64.3854 531.449 65.6478 530.817 66.9103C530.184 68.1728 529.552 69.7508 528.604 71.3289C527.655 73.8538 526.707 76.3787 525.758 79.2193C524.81 82.0598 524.178 84.9004 523.861 87.7409C523.861 88.0565 523.861 88.6877 523.545 89.319C523.545 89.9502 523.545 90.5814 523.545 91.2127C523.545 91.8439 523.545 92.4752 523.545 93.1064C523.545 93.7376 523.861 94.0532 524.177 94.3688C524.494 94.6844 524.81 94.6844 525.442 95C526.074 95 526.707 95 527.023 95C527.339 95 527.339 94.6844 527.655 94.3688C527.971 94.3688 527.971 94.0532 527.971 94.3688H528.287C528.604 94.3688 528.92 94.0532 528.92 93.7376C528.92 93.4219 529.236 93.422 529.236 93.1064C529.868 92.1595 530.5 91.2127 531.133 89.9502C531.765 88.6878 532.081 87.7409 532.714 86.7941C533.978 83.6379 535.243 80.4818 536.191 77.01C537.14 73.8539 538.088 70.3821 539.353 67.2259C539.353 66.9103 539.353 66.5947 539.669 66.2791C539.985 65.9635 539.985 65.6479 539.985 65.6479C540.301 65.0166 540.301 64.3854 540.617 63.7541C540.933 63.1229 540.934 62.4917 541.25 61.8604C541.882 60.2824 542.198 59.0199 542.83 57.4418C543.463 55.8638 543.779 54.2857 544.411 52.7076C544.411 52.392 544.727 52.0764 544.727 51.7608C544.727 51.4452 544.727 51.1295 545.043 50.8139C545.043 50.4983 545.359 50.1827 545.676 50.1827C545.992 49.8671 546.308 49.5515 546.624 49.2358C547.889 47.6578 549.153 46.3953 550.734 44.8173C552.315 43.5548 553.896 42.2924 555.476 41.0299C556.741 39.7675 557.689 39.1362 558.322 38.8206C558.954 38.505 559.27 38.8206 559.586 39.1362C559.902 39.4518 559.586 40.0831 559.586 41.0299C559.27 41.9768 558.954 42.9236 558.322 43.5548C557.373 45.4485 556.425 47.0266 554.844 48.6047C553.579 50.1827 551.999 51.4452 550.734 53.0233C550.102 53.6545 549.153 54.2857 548.205 54.917C547.257 55.5482 546.624 56.1794 546.308 57.1262C546.308 57.4418 546.308 57.7575 546.624 57.7575C546.94 57.7575 547.256 58.0731 547.256 58.0731L550.734 57.4418C551.366 57.1262 551.999 56.8106 552.631 56.1794C553.263 55.8638 553.896 55.2326 554.528 54.917C555.16 54.2857 555.793 53.6545 556.425 53.3389C556.741 52.7077 557.373 52.0764 558.006 51.4452C558.322 51.1296 558.954 50.1828 559.902 48.9203C560.851 47.6578 561.483 46.0797 562.432 44.8173C563.38 43.5548 564.012 41.9768 564.329 40.7143C564.961 39.4518 564.961 38.505 564.645 37.8738C564.645 37.5582 564.329 37.2425 564.329 37.2425C564.012 36.9269 564.013 36.6113 564.013 36.2957C564.013 35.9801 563.696 35.9801 563.696 35.6644L563.38 35.3488H562.748C562.748 35.3488 562.432 35.0332 562.116 35.0332C561.799 35.0332 561.483 34.7176 561.167 34.7176C560.535 34.7176 559.586 34.7176 558.954 35.0332C558.322 35.3488 557.373 35.6645 556.741 35.9801C554.844 36.9269 552.947 38.1893 551.367 39.7674C549.786 41.3455 548.205 42.608 546.624 44.1861C546.624 42.2924 546.94 41.6612 546.94 41.0299ZM490.982 45.1329C491.298 44.186 491.93 43.2392 492.246 42.608C492.246 42.2924 492.562 41.9767 492.562 41.6611C492.562 41.3455 492.563 41.0299 492.879 40.3987C493.195 39.7674 493.511 39.4518 493.827 38.8206C494.143 38.1894 494.143 37.5581 493.827 36.9269C493.827 36.2957 493.195 35.9801 492.246 35.6644C491.298 35.3488 490.666 35.6645 490.033 35.9801C489.717 35.9801 489.717 36.2956 489.401 36.6112C489.401 36.9269 489.085 36.9269 489.085 37.2425C489.085 37.5581 489.085 37.8737 488.769 38.1893C488.769 38.5049 488.452 39.1362 488.452 39.4519C488.452 39.7675 488.136 40.083 487.82 40.3987C487.504 40.7143 487.504 41.0299 487.188 41.3455C486.239 43.5548 485.291 45.7641 484.343 47.9734C483.394 50.1827 482.446 52.3921 481.813 55.2326C481.497 55.5482 481.497 56.1794 481.181 56.495C480.865 57.1263 480.865 57.4419 481.181 57.7575C481.181 58.3887 481.813 58.7043 482.446 59.0199C483.078 59.3355 483.71 59.6512 484.343 59.3356C484.975 59.3356 485.923 58.3888 487.188 56.8107C488.452 55.2326 490.349 53.3389 492.562 51.1296C493.195 50.4983 494.143 49.8671 494.775 49.2358C495.408 48.6046 496.356 47.9734 496.989 47.6578C497.937 46.7109 499.202 45.7641 500.15 44.8173C501.099 43.8704 502.363 42.9236 503.628 42.2924C503.944 41.9768 504.26 41.6611 504.892 41.3455C505.208 41.0299 505.841 40.7143 506.157 40.7143C506.157 41.3455 505.841 41.9767 505.841 42.9235C505.525 43.5548 505.525 44.5017 505.525 45.4485C505.525 45.7641 505.208 46.3953 505.208 47.6578C504.892 48.6046 504.892 49.8671 504.576 50.8139C504.26 51.7608 504.26 53.0232 503.944 53.9701C503.628 54.9169 503.628 55.5482 503.628 55.8638C503.628 56.495 503.944 57.4419 504.576 58.0731C505.208 59.02 505.841 59.3355 506.473 59.0199C506.789 59.0199 507.422 59.0199 508.054 59.0199C508.686 59.0199 509.318 59.0199 509.951 58.7043C510.583 58.3887 511.531 58.0731 512.48 57.4418C513.428 56.8106 514.061 56.495 514.693 55.8638C515.325 55.2325 515.958 54.917 516.274 54.917C516.59 54.917 516.59 54.6013 516.906 54.6013C517.222 54.6013 517.222 54.2857 517.222 54.2857C517.538 53.9701 517.854 53.6545 518.487 53.3389C518.803 53.0233 519.119 53.0232 519.435 52.7076C519.751 52.392 520.067 52.0764 520.384 51.7608C521.332 51.4452 521.964 50.814 522.281 50.1827C522.281 49.8671 522.597 49.5515 522.597 49.2358C522.597 48.9202 522.281 48.9203 521.648 48.6047C521.332 48.9203 521.016 49.2359 520.384 49.5515C520.067 49.8671 519.435 50.1828 518.803 50.4984C518.487 50.4984 518.171 50.4983 517.854 50.8139C517.538 51.1295 516.906 51.1296 516.59 51.7608C516.274 52.0764 515.641 52.392 515.325 52.7076C514.693 53.0232 514.061 53.3389 514.061 53.3389C514.061 53.3389 513.745 53.3389 513.745 53.6545H513.428C513.428 53.6545 512.796 53.9701 512.164 54.2857C511.531 54.6013 510.899 54.917 510.583 54.917C510.267 55.2326 509.635 55.2325 509.002 55.5481C509.002 54.9169 509.002 54.2857 509.002 53.0233C509.002 51.7608 509.318 50.8139 509.635 49.5515C509.951 48.289 509.951 47.0265 510.267 46.0797C510.583 44.8172 510.583 44.186 510.583 43.5548C510.899 42.9236 510.899 42.2923 511.215 41.3455C511.532 40.7142 511.531 39.7675 511.531 39.1362C511.531 38.505 511.215 38.1894 510.267 37.5581C509.635 37.2425 509.002 36.9269 508.37 36.9269C507.421 36.9269 506.473 37.2426 505.841 37.8738C504.892 38.505 504.26 38.8206 503.312 39.4519C501.415 40.7143 499.518 41.9767 497.937 43.5548C496.356 45.1329 494.775 46.3953 493.195 47.9734C492.879 48.289 492.562 48.6047 492.246 48.9203C491.93 49.2359 491.614 49.5515 490.982 49.5515C490.033 47.0266 490.349 46.0797 490.982 45.1329ZM469.8 40.3987C469.8 41.3455 469.484 42.608 469.167 43.8704C468.535 45.1329 468.219 46.3953 467.27 47.6578C466.638 48.9202 466.006 49.5515 466.006 50.1827L465.374 50.8139C464.425 51.7608 463.477 52.7077 462.528 53.3389C461.58 53.9701 460.315 54.6014 458.734 55.2326C458.418 54.2858 458.102 53.3388 458.418 52.392C458.734 51.4451 459.051 50.4983 459.051 49.8671C459.051 49.5515 459.367 48.9202 459.683 47.9734C459.999 47.0266 460.631 46.3954 460.947 45.4485C461.264 44.5017 461.896 43.8704 462.528 42.9235C463.16 42.2923 463.477 41.6611 463.793 41.3455C464.109 40.7142 464.425 40.3986 464.741 39.7674C465.057 39.4518 465.373 38.8206 465.69 38.505L466.006 38.1893C466.322 38.5049 466.638 38.505 466.954 38.505C467.27 38.505 467.587 38.505 467.903 38.8206C469.167 39.1362 469.8 39.4518 469.8 40.3987ZM474.858 43.2392C474.858 43.2392 474.858 42.9236 474.858 42.608C475.49 42.2924 476.123 42.2924 477.071 41.9767C478.02 41.6611 478.968 41.6611 479.916 41.3455C480.865 41.0299 481.813 41.0299 482.762 40.7143C483.71 40.7143 484.659 40.3987 485.607 40.3987C486.556 40.3987 487.504 40.3987 487.82 40.3987C488.136 40.3987 488.452 40.3986 488.769 40.083L489.085 39.7674C489.085 39.7674 489.717 39.4519 490.349 39.4519C490.665 39.4519 490.982 39.1362 490.982 38.8206C490.982 38.505 490.982 38.1894 490.666 37.8738C490.349 37.8738 490.349 37.8738 490.349 37.5581C490.349 37.5581 490.033 37.5581 489.717 37.5581C489.717 37.5581 489.717 37.5581 489.401 37.5581C489.401 37.5581 489.401 37.5581 489.085 37.5581H488.769C488.136 37.2425 486.872 36.9269 485.607 36.9269C484.026 36.9269 482.446 36.9269 480.549 37.2425C478.652 37.2425 477.071 37.5582 475.49 37.8738C473.91 38.1894 472.645 38.1893 472.013 38.505L471.064 37.2425C471.064 37.2425 470.748 36.9269 470.432 36.9269C470.116 36.9269 469.8 36.6112 469.483 36.6112C469.167 36.6112 468.851 36.2957 468.535 36.2957C468.219 36.2957 467.903 36.2957 467.903 36.2957H467.587H467.27C466.954 35.9801 466.322 35.9801 465.69 35.6644C465.057 35.3488 464.741 35.0332 464.109 35.3488C463.477 35.3488 462.844 35.6645 462.528 36.2957C461.896 36.6113 461.58 37.2426 460.947 37.8738C460.315 38.505 459.999 39.1362 459.683 39.4519C459.051 40.0831 458.418 41.0299 457.786 41.9767C457.154 42.9236 456.521 43.8704 456.205 44.5016C456.205 44.5016 455.889 44.5016 455.889 44.8173C455.889 44.8173 455.889 45.1329 455.573 45.1329L453.992 49.8671C453.992 50.1827 453.992 50.8139 453.676 51.1296C453.36 51.7608 453.36 52.0764 453.676 52.392C453.36 52.392 453.36 52.7076 453.36 53.0233C453.36 53.3389 453.36 53.6545 453.36 53.6545C453.36 54.6014 453.676 55.5482 454.308 56.1794C454.941 56.8106 455.573 57.4419 456.205 57.7575C456.837 58.0731 457.786 58.3888 458.734 58.3888C459.683 58.3888 460.631 58.3887 461.58 58.0731C462.212 58.0731 463.16 58.0731 464.109 57.4418C465.057 56.8106 466.006 56.1794 466.954 55.5481C467.903 54.9169 468.851 53.6545 470.116 52.392C470.748 52.0764 471.064 51.4452 471.38 50.4984C471.696 49.5515 472.329 48.9203 472.645 48.6047C472.961 48.2891 472.961 47.6578 473.277 47.3422C473.593 46.711 473.593 46.3953 473.91 46.0797C474.226 45.7641 474.226 45.4485 474.542 44.8173C474.542 44.186 474.542 43.8704 474.542 43.2392V43.2392H474.858ZM441.346 30.9302C441.346 31.2458 441.03 31.5614 441.03 32.1927C441.03 32.8239 441.03 32.8239 441.03 33.1396C441.03 33.4552 441.346 33.7707 441.662 33.7707C441.978 33.7707 441.978 33.7707 442.295 33.7707H442.611C442.927 33.4551 443.243 33.4552 443.559 33.1396C443.875 32.8239 444.191 32.8239 444.507 32.5083H444.824C444.824 32.5083 444.824 32.5083 445.14 32.5083C445.14 32.1927 445.14 32.1926 445.456 31.877C445.772 31.5614 445.772 31.5615 445.772 31.2459C446.088 31.2459 446.088 31.2458 446.088 30.9302C446.088 30.6146 446.088 30.6146 446.405 30.6146V30.299C446.405 30.299 446.405 30.299 446.405 29.9834C447.037 29.6678 447.353 29.3522 447.353 28.4053C447.353 27.4585 447.353 27.1429 447.037 26.5116C447.037 26.5116 447.037 26.5116 446.721 26.5116H446.405C446.088 26.196 445.772 25.8804 445.14 26.196C444.508 26.5116 444.191 26.8272 443.559 27.1428C442.927 27.4584 442.611 28.0896 442.295 28.7209C441.978 29.3521 441.662 29.6678 441.978 29.6678C441.346 29.9834 441.346 30.299 441.346 30.9302ZM437.552 51.7608C437.868 51.1296 438.185 50.4983 438.501 49.5515C438.817 48.6046 439.449 47.6578 439.765 46.711C440.398 45.7641 440.714 44.8173 441.346 43.8704C441.346 43.8704 441.662 43.8704 441.662 43.5548C441.662 43.2392 441.662 43.2392 441.978 43.2392C441.978 42.9236 442.295 42.608 442.295 42.608C442.295 42.2924 442.611 42.2924 442.611 41.9767C442.927 41.3455 442.927 41.0299 442.927 40.7143C442.927 40.3987 443.243 40.083 442.927 39.7674C442.927 39.4518 442.927 39.1362 442.927 38.8206C442.927 38.505 442.611 38.1893 442.611 38.1893C442.295 37.8737 442.294 37.8738 441.978 37.5581C441.662 37.5581 441.662 37.5581 441.346 37.5581C441.03 37.2425 440.714 37.2425 440.398 37.5581C440.081 37.5581 439.449 37.8737 439.133 38.1893C438.185 39.4518 437.552 40.7143 436.604 42.2924C435.655 43.8704 435.023 45.1329 434.391 46.711C434.075 47.3422 434.075 47.6578 433.758 48.289C433.442 48.9203 433.126 49.2359 433.126 49.8671C433.126 50.4983 432.81 50.814 432.494 51.4452C432.178 51.7608 432.178 52.392 431.861 52.7076C431.545 53.6545 431.229 54.6014 431.229 55.2326C430.913 55.8638 430.913 56.8106 431.229 57.4418C431.862 58.0731 432.494 58.7043 433.126 58.7043C433.758 59.0199 434.707 59.0199 435.655 59.0199C435.971 59.0199 435.972 59.0199 435.972 59.0199C435.972 59.0199 436.288 59.0199 436.288 58.7043C436.604 59.0199 437.552 58.7043 438.817 57.7575C440.081 57.1263 441.346 56.1794 442.611 55.2326C444.191 54.2858 445.456 53.3388 446.721 52.392C447.985 51.4451 448.934 50.8139 449.566 50.8139C450.198 50.4983 451.147 50.1827 451.779 49.5515C452.411 49.2359 453.36 48.6047 453.676 48.289C454.308 47.9734 454.94 47.6578 455.573 47.3422C456.205 47.0266 456.521 46.3953 457.154 46.0797L457.786 45.4485C458.102 45.1329 458.418 44.8172 458.418 44.5016C458.418 44.5016 458.418 44.5016 458.102 44.5016C458.102 44.5016 458.102 44.5016 457.786 44.5016C457.786 44.186 457.786 44.186 457.786 44.5016C457.786 44.8172 457.786 44.8173 457.47 44.8173C456.837 44.8173 456.205 45.1329 455.573 45.4485C454.94 45.7641 454.624 46.0797 453.992 46.3953C453.676 46.7109 453.36 46.711 452.728 47.0266C452.095 47.3422 451.463 47.3422 451.147 47.6578C449.566 48.289 447.985 48.9202 446.405 49.5515C444.824 50.1827 443.243 51.1296 441.978 51.4452C440.714 52.0764 439.449 52.392 438.817 52.7076C437.868 53.0232 437.552 53.0233 437.236 53.0233C437.552 52.7076 437.552 52.392 437.552 51.7608ZM418.267 62.4917C418.583 62.4917 418.899 62.4917 419.215 62.1761C419.532 62.1761 419.532 62.1761 419.532 61.8604C419.532 61.5448 419.532 61.5449 419.848 61.5449C419.848 61.2293 419.848 60.9136 419.848 60.598C419.848 60.2824 419.848 59.9668 420.164 59.6512L420.796 58.7043C420.796 58.3887 420.796 58.3887 420.796 57.7575C420.796 57.1263 420.796 57.1263 420.796 56.8107C420.796 56.4951 420.796 56.1794 421.112 55.8638C421.429 55.5482 421.112 55.2326 421.429 54.917C421.429 54.6014 421.429 54.6013 421.745 54.2857C422.061 53.9701 422.061 53.9701 422.061 53.9701C422.377 53.3388 422.377 53.0232 422.693 52.392C422.693 51.7608 423.009 51.1295 423.326 50.8139C423.326 50.1827 423.642 49.5515 423.958 49.2358C424.274 48.6046 424.274 48.289 424.59 47.6578C425.539 44.186 426.487 41.0299 427.752 37.5581C429.016 34.0864 429.965 30.9302 430.913 27.4584L431.229 26.5116C433.759 25.8804 436.288 25.5648 438.817 25.2492C441.346 24.9336 443.875 24.6179 446.405 24.3023V23.9867C446.721 23.9867 446.721 23.6711 447.037 23.6711C447.353 23.6711 447.669 23.6711 447.985 23.3555V23.0398C447.985 22.7242 447.985 22.7242 448.301 22.4086C448.301 22.4086 448.301 22.4086 448.301 22.7242C448.301 22.7242 448.301 22.4086 447.985 22.4086C447.669 22.4086 447.985 22.093 447.985 22.093C447.037 21.7774 446.404 21.7774 445.772 21.7774C445.14 21.7774 444.191 21.7774 443.559 21.7774C442.611 21.7774 441.662 22.093 441.346 22.093C441.03 22.093 440.714 22.093 440.398 22.093C440.081 22.093 439.765 22.093 439.449 22.093C439.133 22.093 438.501 22.093 437.236 22.4086C436.604 22.4086 435.655 22.7242 435.023 22.7242C434.391 22.7242 433.442 23.0398 432.81 23.0398C433.442 21.7774 434.075 20.1994 434.707 18.9369C435.339 17.6744 435.971 16.4119 436.604 14.8338C437.552 13.2558 438.185 11.9933 438.817 10.4153C439.449 8.83718 440.082 7.2591 440.714 5.68103C440.714 5.36541 441.03 5.04984 441.03 4.73422C441.03 4.41861 441.03 4.10295 441.346 4.10295C441.662 3.78734 441.662 3.47176 441.978 3.15615C442.294 2.84053 442.294 2.52486 441.978 2.20925C441.978 1.57802 441.346 1.26242 440.714 0.946806C440.082 0.631191 439.449 0.631172 438.817 0.631172C438.185 0.631172 437.552 0.631191 436.92 0.946806C436.288 1.26242 435.971 1.26246 435.655 1.57807C435.339 1.89369 435.339 1.89365 435.339 2.52488C435.339 2.8405 435.023 3.15607 435.023 3.47169C435.023 3.7873 434.707 4.41859 434.707 4.41859C434.707 4.41859 434.391 5.04978 434.391 5.36539L434.075 5.68103C434.075 5.68103 434.075 5.99668 433.758 6.3123C433.758 6.62791 433.442 7.25914 433.126 7.89037C432.81 8.83722 432.494 9.46841 432.178 10.4153C431.862 11.3621 431.545 11.9933 430.913 12.9401C429.965 14.8338 429.332 16.7276 428.384 18.6213C427.752 20.5149 426.803 22.4086 426.171 24.3023C425.855 24.3023 425.539 24.6179 425.222 24.6179C424.906 24.6179 424.59 24.6179 424.274 24.9336C423.958 24.9336 423.642 24.9336 423.009 25.2492C422.377 25.5648 421.429 25.5647 420.796 25.5647C420.164 25.5647 419.215 25.8804 418.267 26.196C417.319 26.5116 417.003 26.5116 416.37 26.5116L415.106 26.8273C415.106 27.1429 414.789 27.4585 414.789 27.7741C414.789 28.0897 414.473 28.4053 414.473 28.7209C414.473 29.3521 414.157 29.6678 414.157 29.9834C414.157 30.299 414.157 30.6146 414.789 30.9302C414.789 30.9302 415.106 31.2458 415.106 30.9302C415.422 30.9302 415.738 30.9302 416.054 30.9302C416.37 30.9302 416.686 30.6146 416.686 30.6146C417.002 30.299 417.002 30.299 417.319 30.299C417.635 30.299 418.267 29.9834 418.583 29.9834C418.899 29.6678 419.532 29.6678 419.848 29.6678C420.796 29.0365 421.745 28.7209 422.693 28.7209C423.326 28.4053 424.274 28.4053 424.906 28.0897C424.59 29.0365 424.274 29.9834 423.958 30.9302C423.642 31.8771 423.325 32.8239 423.009 33.7707C422.377 36.2957 421.429 38.505 420.796 40.7143C419.848 42.9236 419.216 45.4485 418.583 47.9734C417.951 49.8671 417.635 52.0764 417.319 54.2857C417.002 56.495 416.686 58.7043 416.37 61.2293C416.37 61.5449 416.37 61.8605 416.37 62.1761C416.37 62.4917 416.686 62.8074 417.319 63.123C417.635 62.8074 417.951 62.4917 418.267 62.4917ZM404.673 53.0233C403.092 53.6545 401.195 54.2857 399.93 54.6013C398.666 54.9169 397.085 55.2326 396.137 55.2326C395.188 55.2326 394.872 54.6014 395.188 53.6545C395.504 53.0233 395.82 52.392 396.137 51.7608C396.453 51.1296 397.085 50.4984 397.401 50.1827C397.717 49.5515 398.033 49.2359 398.666 48.9203C399.298 48.6047 399.614 47.9735 400.246 47.3422L402.46 45.7642L404.04 44.5016C404.356 44.186 404.673 43.8704 404.989 43.8704C405.305 43.8704 405.621 43.5548 405.621 43.5548C405.621 43.5548 405.937 43.2392 406.253 43.5548C406.57 43.8704 406.886 43.5548 406.886 43.5548C406.886 43.2392 407.202 43.2392 407.518 43.2392C407.834 43.2392 407.834 43.2392 408.15 43.2392C408.466 42.9236 409.099 42.608 409.099 42.2924C409.415 42.2924 409.731 41.9767 410.363 41.6611C410.679 41.6611 410.679 41.3455 410.996 40.7143C410.996 40.3987 411.312 39.7675 411.312 39.4519C411.312 39.1362 411.312 38.5049 411.312 38.1893C411.312 37.8737 410.996 37.2425 410.68 37.2425C409.415 36.9269 408.782 36.6112 408.15 36.6112C407.834 36.6112 407.518 36.6113 407.202 36.9269C406.886 37.2425 406.886 37.2425 406.569 37.5581C406.253 37.5581 405.937 37.8738 405.937 37.8738C405.937 37.8738 405.621 37.8737 405.305 38.1893C404.673 38.5049 404.356 38.8206 404.04 39.1362C403.724 39.4518 403.408 39.7674 402.776 40.083C402.143 40.7143 401.195 41.6611 400.563 42.2924C399.93 42.9236 398.982 43.5549 398.35 44.1861C397.401 44.8173 396.769 45.4485 396.453 45.7642C396.137 46.0798 395.504 46.7109 394.872 47.6578C393.924 48.289 393.291 49.2359 392.659 49.8671C392.027 50.4983 391.394 51.4451 391.078 52.392C390.13 54.2857 389.814 55.5482 390.13 56.495C390.446 57.4419 391.078 58.3887 392.027 59.0199C392.343 59.3355 392.659 59.3356 393.291 59.6512C393.924 59.9668 394.24 59.9668 394.872 59.9668C395.82 59.9668 396.453 59.9668 397.085 59.9668C397.401 59.9668 398.35 59.9668 398.982 59.6512H399.298C399.298 59.6512 399.298 59.6512 399.614 59.6512C399.614 59.6512 399.93 59.6512 400.246 59.6512C400.563 59.6512 400.879 59.3356 400.879 59.3356C401.511 59.0199 401.827 59.0199 402.143 58.7043C402.46 58.3887 402.776 58.3888 403.092 58.3888C405.621 57.4419 408.466 56.495 410.68 55.5481C413.209 54.6013 415.738 53.3389 418.267 52.0765C418.583 52.0765 418.899 51.7608 419.215 51.7608C419.532 51.7608 419.848 51.1295 420.48 50.8139C420.796 50.4983 421.429 50.1827 421.745 49.8671C422.061 49.5515 422.377 49.5515 422.693 49.2358C422.693 48.9202 423.009 48.6047 423.642 48.6047C423.958 48.6047 424.274 48.289 424.274 48.289L424.59 47.9734C424.906 47.6578 425.222 47.6578 425.222 47.6578C425.222 47.6578 425.222 47.6578 425.222 47.3422C425.222 47.0266 425.222 47.0266 425.538 47.0266C425.538 47.0266 425.539 47.0266 425.222 46.711C425.222 46.711 424.59 46.711 423.958 47.0266H423.326C423.009 47.0266 423.009 47.0266 422.693 47.0266C422.061 47.3422 421.429 47.3422 420.796 47.6578C420.164 47.9734 419.532 48.2891 419.215 48.6047C417.951 48.9203 417.319 49.2359 416.686 49.5515C416.054 49.5515 415.738 49.8671 415.422 49.8671C415.106 49.8671 415.106 50.1827 414.789 50.1827C414.473 50.1827 414.473 50.4984 414.157 50.4984C413.841 50.4984 413.209 50.8139 412.576 51.1296C411.944 51.4452 410.996 51.7608 409.731 52.392C407.834 52.0764 406.57 52.392 404.673 53.0233ZM358.198 50.8139C357.566 52.392 357.25 53.9701 357.25 55.2326C357.25 56.4951 357.566 57.4419 358.515 58.3888C359.463 59.02 361.044 59.3355 363.573 59.0199C363.889 58.7043 364.205 58.3887 364.521 58.0731C364.838 58.0731 365.154 57.7574 365.154 57.1262C365.154 57.1262 365.47 57.1263 365.47 56.8107L365.786 56.495C366.418 56.1794 366.734 56.1794 367.051 55.5481C367.683 55.2325 367.999 54.9169 368.315 54.2857C368.631 53.9701 368.948 53.3389 369.58 53.0233C370.212 52.392 370.845 51.7608 371.477 51.4452C372.109 51.1296 372.741 50.814 373.374 50.1827C373.374 49.8671 373.374 49.8671 373.374 49.8671C373.374 49.8671 373.374 49.8671 373.374 49.5515C373.374 49.5515 373.374 49.5515 373.69 49.5515C373.69 49.2359 374.006 49.2359 374.006 48.9203L374.322 48.6047C374.322 48.6047 374.638 48.6047 374.638 48.289C374.638 48.289 374.955 47.9734 375.271 47.9734C375.587 47.9734 375.903 47.6578 375.903 47.3422C376.219 47.0266 376.219 47.0266 376.535 46.711C376.535 47.0266 376.219 47.3422 376.219 47.6578C376.219 47.9734 376.219 48.2891 376.219 48.6047C376.219 49.2359 375.903 49.8671 375.903 50.4984C375.903 51.1296 375.587 52.0764 375.903 52.7076C375.903 53.3389 376.219 54.2857 376.219 54.917C376.535 55.5482 376.851 55.8638 377.484 56.1794C377.8 56.1794 378.116 56.495 378.748 56.495C379.381 56.495 379.697 56.495 380.329 56.495C380.961 56.495 381.277 56.1794 381.277 56.1794C381.594 56.1794 381.91 55.8638 382.226 55.8638C382.542 55.8638 383.174 55.5482 384.439 54.917C385.704 54.2857 386.968 53.3388 388.549 52.392L393.923 48.9203C393.923 48.9203 394.24 48.9203 394.24 48.6047C394.556 48.2891 394.556 48.289 394.872 48.289C395.188 47.9734 395.82 47.6578 396.453 47.3422C397.085 47.0266 397.401 46.3953 397.401 46.0797H397.085C396.769 46.0797 396.769 46.0797 397.085 46.0797C397.085 45.7641 397.085 45.7642 397.085 45.7642C395.188 46.3954 393.607 47.0266 392.975 47.3422C392.027 47.6578 391.394 47.9734 391.078 48.289C390.446 48.6047 389.813 48.9202 389.181 49.2358C388.233 49.5515 386.968 50.1827 385.071 51.1296C384.439 51.4452 383.807 51.7608 383.174 52.0765C382.542 52.0765 381.91 52.0764 380.961 51.7608C380.645 51.7608 380.329 51.1296 380.329 50.4984C380.329 49.8671 380.329 48.9202 380.329 47.9734C380.329 47.0266 380.645 46.0798 380.645 45.4485C380.645 44.5017 380.961 43.8704 380.961 43.5548C380.961 42.9236 381.278 42.2923 381.594 41.6611C381.91 41.0299 382.226 40.3986 382.542 39.7674C382.542 38.5049 382.542 37.8737 382.542 37.2425C382.226 36.6113 381.91 36.2957 381.594 36.2957C381.278 36.2957 380.961 36.2957 380.645 36.2957C380.329 36.6113 380.013 36.6113 379.697 36.9269C379.38 36.9269 379.381 37.2426 379.064 37.8738C378.748 38.1894 378.432 38.8206 378.116 39.1362C377.8 39.7675 377.484 40.0831 376.851 40.7143C376.535 41.3455 376.219 41.6611 375.903 41.9767C374.006 43.8704 371.793 46.0797 370.212 47.9734C368.315 49.8671 366.418 51.7608 364.205 53.0233C363.257 53.6545 362.625 53.9701 362.625 53.6545C362.308 53.3389 362.308 53.0232 362.625 52.7076C362.941 52.0764 362.941 51.4451 363.573 50.8139C363.889 50.1827 364.205 49.5515 364.205 49.2358C364.522 48.289 364.838 47.6578 365.154 47.3422C365.47 47.0266 365.786 46.3954 366.102 45.7642C366.418 44.8173 366.734 44.1861 367.051 43.8704C367.367 43.2392 367.367 42.9236 367.683 42.2924C367.999 41.9768 367.999 41.3455 368.315 41.0299C368.631 40.7143 368.948 40.0831 369.264 39.1362C369.58 38.8206 369.896 38.505 370.212 37.8738C370.528 37.2426 370.528 36.6113 370.212 35.9801C369.896 35.3488 369.58 35.0333 368.948 34.7176C368.315 34.7176 367.683 34.7176 367.051 35.0332C366.418 35.3488 365.786 35.6645 365.47 35.9801V36.2957C365.47 36.2957 365.47 36.2956 365.47 36.6112C365.154 36.9269 364.838 37.2425 364.838 37.5581C364.522 37.8738 364.522 38.1893 364.205 38.505C364.205 38.8206 364.205 38.8206 363.889 39.1362C363.889 39.4518 363.573 39.4518 363.573 39.7674C363.573 39.7674 363.573 39.7674 363.573 40.083V40.3987C363.257 40.7143 362.941 41.0299 362.625 41.6611C362.308 42.2923 361.992 42.6079 361.992 43.2392C361.676 43.8704 361.676 44.1861 361.676 44.1861C361.676 44.5017 361.36 44.5016 361.36 44.8173C361.36 45.1329 361.36 45.1329 361.044 45.4485C361.044 45.7641 360.728 46.0797 360.728 46.3953C359.463 47.6578 358.831 49.2358 358.198 50.8139ZM334.487 47.9734C334.803 47.9734 334.803 47.9734 334.487 47.9734V47.9734ZM334.171 48.6047C334.487 48.2891 334.487 48.2891 334.171 48.6047V48.6047ZM356.934 52.7076C356.934 52.7076 357.25 52.392 357.566 52.392C357.566 52.392 357.566 52.3921 357.566 52.0765C357.882 52.0765 357.882 52.0765 357.882 52.0765C358.515 51.7608 358.831 51.4452 359.147 51.1296C359.463 50.8139 359.779 50.4984 360.412 50.1827C360.728 50.1827 361.044 49.8671 361.044 49.5515C361.36 49.2359 361.676 49.2358 361.992 49.2358V48.9203C362.308 48.9203 362.625 48.6047 362.941 48.6047C363.257 48.6047 363.573 48.289 363.889 48.289H363.573C363.573 48.289 363.573 48.289 363.889 48.289C364.205 48.289 364.205 48.289 364.205 48.289C364.522 47.9734 364.521 47.6578 364.521 47.6578C364.521 47.3422 364.205 47.3422 364.205 47.0266C362.941 47.3422 361.676 47.9734 360.095 48.6047C358.831 49.2359 357.566 49.8671 356.302 50.1827C355.037 50.814 354.089 51.1296 353.14 51.7608C352.192 52.0764 351.559 52.392 351.243 52.7076C350.295 53.0232 349.346 53.3388 348.398 53.9701C347.133 54.2857 345.869 54.2857 344.604 53.9701C343.972 53.0232 343.972 52.392 343.972 51.4452C343.972 50.814 343.972 49.8671 343.972 48.9203C343.972 47.9735 344.288 47.0265 344.288 46.0797C344.288 45.1328 344.604 44.5017 344.92 43.8704C345.236 43.2392 345.553 42.6079 345.869 41.6611C346.185 41.0299 346.501 40.0831 346.817 39.1362C346.817 39.1362 346.817 39.1362 346.817 38.8206C346.817 38.505 346.817 38.5049 346.817 38.1893C346.817 37.8737 346.817 37.8738 346.817 37.5581C346.817 37.2425 347.133 37.2425 347.133 37.2425C347.133 36.9269 347.449 36.6113 347.449 36.2957C347.449 35.9801 347.766 35.9801 347.766 35.6644C348.082 35.0332 348.082 34.7176 348.398 34.402C348.398 33.7708 348.714 33.1395 349.03 32.5083C349.346 31.8771 349.662 31.2458 349.979 30.6146C350.295 29.6677 350.611 29.0365 351.243 28.0897C351.875 27.4585 352.192 26.5116 352.824 25.5647C352.824 25.5647 352.824 25.5648 352.824 25.2492C352.824 25.2492 352.824 25.2492 352.824 24.9336C353.14 24.6179 353.14 24.3023 353.456 23.9867C353.456 23.671 353.772 23.3555 354.089 23.3555C354.089 23.0399 354.405 22.7242 354.405 22.4086C354.405 22.093 354.721 21.7774 354.721 21.4618C354.721 21.4618 355.037 21.1461 355.037 20.8305C355.037 20.5149 355.037 20.5149 355.669 20.1993C355.669 19.8837 355.669 19.568 355.985 19.2524C355.985 18.9368 356.302 18.9369 356.302 18.6213C356.618 18.3056 356.618 17.99 356.618 17.3588C356.934 17.3588 356.934 17.0432 356.934 17.0432C356.934 17.0432 356.934 16.7275 357.25 16.7275C357.25 16.4119 357.25 16.0964 357.566 15.7807C357.882 15.4651 357.882 15.1495 357.882 14.8338C358.199 14.5182 358.198 14.2026 358.198 13.887C358.198 13.5714 358.198 13.2557 358.198 12.9401C358.515 12.6245 358.515 12.3089 358.515 11.6777C358.515 11.0465 358.515 10.7308 358.515 10.0996C358.515 9.46839 358.515 9.15277 358.198 8.52154C357.882 8.20593 357.882 7.89035 357.25 7.57474H356.934C356.618 7.57474 356.618 7.57474 356.618 7.57474C356.302 7.57474 355.669 7.57476 355.669 7.89037C355.353 8.20599 355.037 8.20593 354.721 8.52154C354.089 9.15277 353.772 9.78402 353.456 10.4153C353.14 11.0465 352.508 11.9934 352.192 12.6246C351.559 13.8871 350.927 15.1495 349.979 16.4119C349.346 17.6744 348.398 18.9369 347.766 20.515C347.133 21.7774 346.501 23.0398 345.869 24.3023C345.236 25.5647 344.92 26.8272 344.288 28.0897C343.972 28.7209 343.972 29.3521 343.656 30.299C343.339 30.9302 343.023 31.8771 343.023 32.5083L342.707 32.8239C342.707 33.1395 342.707 33.1395 342.391 33.4551C342.391 33.4551 342.391 33.4551 342.075 33.4551C342.075 33.4551 341.759 33.4551 341.759 33.7707C341.126 34.402 340.81 35.0332 340.178 35.6644C339.862 36.2957 339.229 36.9269 338.913 37.5581C338.597 37.8738 338.281 38.505 337.649 38.8206C337.016 39.1362 336.7 39.7674 336.384 40.083C336.068 40.3986 336.068 40.3987 336.384 40.3987C336.384 40.3987 336.7 40.083 337.016 40.083C337.332 39.7674 337.333 39.7674 337.649 39.7674C336.068 41.6611 334.171 43.2392 332.59 45.1329C331.01 46.711 329.113 48.6047 327.216 50.1827C326.583 50.814 325.951 51.4452 325.003 51.7608C324.37 52.392 323.422 53.0233 322.79 53.3389C322.473 53.6545 322.157 53.6545 321.841 53.9701C321.525 54.2857 321.209 54.2857 320.893 54.6013C320.577 54.6013 320.26 54.6013 319.944 54.6013C319.628 54.6013 319.312 54.6013 319.312 54.6013L318.996 54.2857C318.996 54.2857 318.68 54.2857 318.68 53.9701C318.68 53.0232 318.996 52.392 319.312 51.7608C319.628 51.1296 319.944 50.4984 320.577 50.1827V49.8671C320.577 49.8671 320.577 49.8671 320.577 49.5515C321.209 48.9202 321.525 48.289 321.841 47.6578C322.157 47.6578 322.473 47.3422 322.473 47.0266C323.422 46.0798 324.054 45.1328 325.003 44.5016C325.635 43.5548 326.583 42.9236 327.848 42.2924C328.797 41.6611 330.061 41.3455 331.326 40.7143C332.59 40.0831 333.855 39.7675 335.12 39.1362C335.436 38.8206 335.436 38.505 335.12 37.8738C334.803 37.5582 334.487 37.2425 334.171 36.9269C333.539 36.9269 333.223 36.9269 332.906 36.9269C332.59 36.9269 332.274 36.9269 331.958 36.9269C331.01 37.2425 330.061 37.5582 329.113 37.8738C328.164 38.1894 327.532 38.8206 326.583 39.1362C325.319 40.0831 324.054 41.0299 322.79 41.9767C321.525 42.9236 320.261 43.5548 318.996 44.5016C318.364 45.1328 317.731 45.7641 317.099 46.711C316.467 47.3422 315.834 48.289 315.518 49.2358C315.202 49.8671 314.886 50.814 314.57 51.7608C314.254 52.7077 314.254 53.6545 314.254 54.6013C314.254 54.9169 314.254 55.2325 314.254 55.5481C314.254 55.8638 314.254 55.8638 314.57 56.1794C314.57 56.8106 315.202 57.1262 315.518 57.4418C315.834 57.7575 316.783 58.0731 317.415 58.0731H317.731C318.364 58.3887 318.996 58.3887 319.944 58.0731C320.577 58.0731 321.525 57.7575 322.157 57.7575C322.474 57.7575 322.473 57.4418 322.473 57.4418C323.106 57.4418 323.422 57.4418 323.738 57.1262C324.054 57.1262 324.37 56.8107 324.687 56.8107C326.583 55.5482 328.164 53.9701 329.745 52.392C331.326 50.8139 332.906 49.2358 334.487 47.6578C334.487 47.6578 334.487 47.6578 334.803 47.3422L335.12 47.0266H335.436C335.436 47.0266 335.436 47.0266 335.436 46.711C335.436 46.711 335.436 46.7109 335.752 46.3953L335.436 46.711C335.436 46.711 335.436 46.7109 335.752 46.3953C335.752 46.3953 335.752 46.3953 336.068 46.0797L336.384 45.4485L336.7 45.1329C337.016 44.8173 337.016 44.8173 337.016 44.8173C337.649 44.5016 337.965 44.1861 338.281 43.8704C338.597 43.5548 338.913 43.2392 339.229 42.9235C339.229 43.8704 339.229 44.8173 339.229 45.4485C339.229 46.0798 339.23 47.0266 339.546 47.9734C339.546 48.289 339.546 48.2891 339.546 48.6047V48.9203C339.546 49.2359 339.546 49.2359 339.546 49.5515C339.546 49.8671 339.546 49.8671 339.546 50.1827C339.546 50.814 339.862 51.4452 340.178 51.7608C340.178 52.0764 340.494 52.7076 340.494 53.0233C340.81 53.3389 340.81 53.6545 340.81 53.9701C341.442 54.6013 342.075 55.2325 342.707 55.5481C343.339 55.8638 344.288 56.1794 345.236 56.1794C346.185 56.495 347.133 56.495 348.082 56.495C349.03 56.1794 350.295 55.8638 351.243 55.5481C352.192 55.2325 353.14 54.6013 354.089 54.2857C355.037 53.9701 355.669 53.3389 355.985 53.3389C356.302 53.0233 356.302 52.7076 356.302 52.7076C355.985 53.3389 355.986 53.3389 356.934 52.7076C356.934 53.0232 356.618 53.0232 356.934 52.7076ZM302.556 40.3987C302.556 41.3455 302.24 42.608 301.924 43.8704C301.608 45.1329 300.975 46.3953 300.027 47.6578C299.395 48.9202 298.762 49.5515 298.446 50.1827L297.814 50.8139C296.865 51.7608 295.917 52.7077 294.968 53.3389C294.02 53.9701 292.755 54.6014 291.175 55.2326C290.858 54.2858 290.542 53.3388 290.858 52.392C291.175 51.4451 291.491 50.4983 291.491 49.8671C291.491 49.5515 291.807 48.9202 292.123 47.9734C292.439 47.0266 293.071 46.3954 293.388 45.4485C293.704 44.5017 294.336 43.8704 294.968 42.9235C295.601 42.2923 295.917 41.6611 296.233 41.3455C296.549 40.7142 296.865 40.3986 297.181 39.7674C297.498 39.4518 297.814 38.8206 298.13 38.505L298.446 38.1893C298.762 38.5049 299.078 38.505 299.395 38.505C299.711 38.505 300.027 38.505 300.343 38.8206C301.924 39.1362 302.556 39.4518 302.556 40.3987ZM307.614 43.2392C307.614 43.2392 307.614 42.9236 307.614 42.608C308.247 42.2924 308.879 42.2924 309.827 41.9767C310.776 41.6611 311.724 41.6611 312.673 41.3455C313.621 41.0299 314.57 41.0299 315.518 40.7143C316.467 40.7143 317.415 40.3987 318.364 40.3987C319.312 40.3987 320.261 40.3987 320.577 40.3987C320.893 40.3987 321.209 40.3986 321.525 40.083C321.525 40.083 321.841 39.7674 322.157 39.7674C322.157 39.7674 322.79 39.4519 323.422 39.4519C323.738 39.4519 323.738 39.1362 324.054 38.8206C324.37 38.505 324.054 38.1894 323.738 37.8738C323.422 37.8738 323.422 37.8738 323.422 37.5581C323.422 37.5581 323.106 37.5581 322.79 37.5581C322.79 37.5581 322.79 37.5581 322.473 37.5581C322.473 37.5581 322.474 37.5581 322.157 37.5581C321.841 37.5581 321.841 37.5581 321.841 37.5581C321.209 37.2425 319.944 36.9269 318.68 36.9269C317.099 36.9269 315.518 36.9269 313.621 37.2425C311.724 37.2425 310.144 37.5582 308.563 37.8738C306.982 38.1894 305.718 38.1893 305.085 38.505L304.137 37.2425C304.137 37.2425 303.821 36.9269 303.504 36.9269C303.188 36.9269 302.872 36.6112 302.556 36.6112C302.24 36.6112 301.924 36.2957 301.608 36.2957C301.291 36.2957 300.975 36.2957 300.975 36.2957H300.659H300.343C300.027 35.9801 299.394 35.9801 298.762 35.6644C298.13 35.3488 297.814 35.0332 297.181 35.3488C296.549 35.3488 295.917 35.6645 295.601 36.2957C294.968 36.6113 294.652 37.2426 294.02 37.8738C293.704 38.505 293.071 39.1362 292.755 39.4519C292.123 40.0831 291.491 41.0299 290.858 41.9767C290.226 42.9236 289.594 43.8704 289.278 44.5016C289.278 44.5016 288.962 44.5016 288.962 44.8173C288.962 44.8173 288.961 45.1329 288.645 45.1329L287.065 49.8671C287.065 50.1827 287.065 50.8139 286.749 51.1296C286.432 51.7608 286.432 52.0764 286.749 52.392C286.432 52.392 286.432 52.7076 286.432 53.0233C286.432 53.3389 286.432 53.6545 286.432 53.6545C286.432 54.6014 286.749 55.5482 287.381 56.1794C288.013 56.8106 288.645 57.4419 289.278 57.7575C289.91 58.0731 290.858 58.3888 291.807 58.3888C292.755 58.3888 293.704 58.3887 294.652 58.0731C295.285 58.0731 296.233 58.0731 297.181 57.4418C298.13 56.8106 299.078 56.1794 300.027 55.5481C300.975 54.9169 301.924 53.6545 303.188 52.392C303.821 52.0764 304.137 51.4452 304.453 50.4984C304.769 49.5515 305.401 48.9203 305.718 48.6047C306.034 48.2891 306.35 47.6578 306.35 47.3422C306.666 46.711 306.666 46.3953 306.666 46.0797C306.982 45.7641 306.982 45.4485 307.298 44.8173C307.298 44.186 307.298 43.8704 307.298 43.2392V43.2392H307.614ZM287.381 35.9801C286.749 35.9801 286.116 35.9801 285.484 36.2957C283.587 36.2957 281.69 36.9269 279.477 37.5581C277.264 38.1894 275.051 39.4519 272.838 41.0299C272.838 40.7143 273.154 40.083 273.154 39.7674C273.47 39.1362 273.47 38.8206 273.47 38.1893C274.419 37.2425 274.419 36.2957 273.786 35.3488C273.47 35.0332 273.154 34.7176 272.522 34.7176H272.205C271.889 34.7176 271.889 34.7176 271.889 34.7176C271.573 34.7176 271.573 34.7176 271.257 35.0332C270.941 35.0332 270.625 35.0332 270.625 35.3488C270.625 35.6644 269.992 35.6644 269.676 35.6644C269.676 35.9801 269.36 35.9801 269.36 35.9801C269.36 35.9801 269.044 36.2956 269.044 36.6112C268.728 37.8737 268.096 38.8206 267.779 40.083C267.147 41.3455 266.831 42.608 266.515 43.8704C266.199 44.8173 265.566 45.7641 265.25 46.711C264.934 47.6578 264.618 48.6046 263.986 49.5515C263.986 49.8671 263.986 49.8671 263.986 50.1827C263.986 50.814 263.67 51.7608 263.037 53.0233C262.721 54.2857 262.405 55.2325 262.089 55.8638C261.773 56.8106 262.089 57.7575 262.721 58.3888C263.353 59.02 264.302 59.0199 265.25 58.7043C265.566 58.7043 265.883 58.7043 266.199 58.0731C266.515 57.7575 266.831 57.4418 266.831 57.1262C267.147 57.1262 267.147 56.8106 267.463 56.1794C267.779 55.5482 267.779 54.9169 268.096 54.2857C268.412 53.6545 268.412 52.7077 268.728 52.0765C269.044 51.4452 269.044 50.814 269.36 50.1827C269.676 49.5515 270.309 48.9203 270.941 48.289C271.573 47.6578 271.889 47.3422 272.522 46.711C273.154 46.0797 273.786 45.4485 275.051 44.5016C276.316 43.5548 277.264 43.2392 278.528 42.608C279.793 41.9768 281.058 41.3455 282.639 40.7143C284.219 40.0831 285.484 39.7675 286.749 39.4519C287.065 39.1362 287.381 38.8206 287.697 38.8206C288.013 38.8206 288.329 38.5049 288.329 38.1893C288.645 38.1893 288.645 38.1894 288.645 37.8738C288.961 37.8738 288.962 37.5581 288.962 37.5581V37.2425C288.645 35.9801 288.013 35.9801 287.381 35.9801ZM225.415 88.6877C225.731 87.1096 226.048 85.8472 226.364 84.5847C226.68 83.3223 226.996 82.0598 227.312 80.7973C227.312 80.4817 227.312 80.4818 227.628 80.4818C227.628 79.8506 227.628 79.2193 227.628 78.9037C227.944 78.2725 227.945 77.6413 228.261 77.3256C228.577 76.0632 229.209 75.1163 229.525 73.8539C229.841 72.5914 230.474 71.6445 230.79 70.3821C231.422 68.804 232.054 67.2259 233.003 65.6479C233.635 64.0698 234.584 62.8074 234.9 61.5449C232.687 71.0133 229.525 80.1661 225.415 88.6877ZM245.333 41.0299C245.649 40.3987 245.649 39.7675 245.649 39.1362C245.649 38.505 245.333 38.1894 244.384 37.8738C243.752 37.5582 243.12 37.2425 242.804 37.2425C242.171 36.9269 241.539 36.9269 240.907 37.2425C240.274 37.5581 239.642 37.5582 239.642 37.8738C239.326 38.1894 239.01 38.8206 239.01 39.4519C239.01 40.0831 239.01 41.0299 238.694 41.6611C238.694 42.6079 238.378 43.8704 238.378 45.1329C238.061 46.3953 237.745 47.6578 237.745 48.9203C237.429 50.1828 237.113 51.4452 236.797 52.7076C236.481 53.9701 236.164 54.9169 236.164 55.5481C235.216 57.1262 234.268 58.3887 233.635 59.6512C232.687 60.9137 232.054 62.1761 231.106 63.123C230.474 64.3854 229.525 65.6478 228.893 66.9103C228.261 68.1728 227.628 69.7508 226.68 71.3289C225.731 73.8538 224.783 76.3787 223.834 79.2193C222.886 82.0598 222.254 84.9004 221.938 87.7409C221.938 88.0565 221.938 88.6877 221.621 89.319C221.621 89.9502 221.621 90.5814 221.621 91.2127C221.621 91.8439 221.621 92.4752 221.621 93.1064C221.621 93.7376 221.938 94.0532 222.254 94.3688C222.57 94.6844 222.886 94.6844 223.518 95C224.151 95 224.783 95 225.099 95C225.415 95 225.415 94.6844 225.732 94.3688C226.048 94.3688 226.048 94.0532 226.364 94.3688H226.68C226.996 94.3688 227.312 94.0532 227.312 93.7376C227.628 93.4219 227.628 93.422 227.628 93.1064C228.261 92.1595 228.893 91.2127 229.525 89.9502C229.841 88.6878 230.474 87.7409 231.106 86.7941C232.371 83.6379 233.635 80.4818 234.584 77.01C235.532 73.8539 236.481 70.3821 237.745 67.2259C237.745 66.9103 237.745 66.5947 238.061 66.2791C238.061 65.9635 238.378 65.6479 238.378 65.6479C238.694 65.0166 238.694 64.3854 239.01 63.7541C239.326 63.1229 239.326 62.4917 239.642 61.8604C240.274 60.2824 240.59 59.0199 241.223 57.4418C241.855 55.8638 242.171 54.2857 242.804 52.7076C242.804 52.392 243.12 52.0764 243.12 51.7608C243.12 51.4452 243.12 51.1295 243.436 50.8139C243.436 50.4983 243.752 50.1827 244.068 50.1827C244.384 49.8671 244.7 49.5515 245.017 49.2358C246.281 47.6578 247.546 46.3953 249.127 44.8173C250.707 43.5548 251.972 42.2924 253.869 41.0299C255.133 39.7675 256.082 39.1362 256.714 38.8206C257.347 38.505 257.663 38.8206 257.979 39.1362C257.979 39.4518 257.979 40.0831 257.979 41.0299C257.663 41.9768 257.347 42.9236 256.714 43.5548C255.766 45.4485 254.817 47.0266 253.236 48.6047C251.656 50.1827 250.391 51.4452 249.127 53.0233C248.494 53.6545 247.546 54.2857 246.597 54.917C245.649 55.5482 245.017 56.1794 244.701 57.1262C244.701 57.4418 244.7 57.7575 245.017 57.7575C245.333 57.7575 245.649 58.0731 245.649 58.0731L249.127 57.4418C249.759 57.1262 250.391 56.8106 251.024 56.1794C251.656 55.8638 252.288 55.2326 252.92 54.917C253.553 54.2857 254.185 53.6545 254.817 53.3389C255.45 52.7077 255.766 52.0764 256.398 51.4452C256.714 51.1296 257.347 50.1828 258.295 48.9203C259.243 47.6578 259.876 46.0797 260.824 44.8173C261.773 43.2392 262.405 41.9768 262.721 40.7143C263.353 39.4518 263.353 38.505 263.037 37.8738C263.037 37.5582 262.721 37.2425 262.405 37.2425C262.089 36.9269 262.089 36.6113 262.089 36.2957C262.089 35.9801 261.773 35.9801 261.773 35.6644L261.456 35.3488H260.824C260.824 35.3488 260.508 35.0332 260.192 35.0332C259.876 35.0332 259.56 34.7176 259.243 34.7176C258.611 34.7176 257.663 34.7176 257.03 35.0332C256.398 35.3488 255.45 35.6645 254.817 35.9801C252.92 36.9269 251.024 38.1893 249.443 39.7674C247.862 41.3455 246.281 42.608 244.701 44.1861C244.701 42.2924 245.017 41.6612 245.333 41.0299ZM226.364 0.631172C226.048 0.315557 225.731 0.315615 225.415 0C224.783 0 224.151 -7.70591e-05 223.518 0.315538C222.886 0.631153 222.254 0.946825 222.254 1.26244C222.254 2.20928 221.938 3.15611 221.621 4.10295C221.305 5.36541 220.989 6.62791 220.357 7.89037C220.041 9.15283 219.408 10.4152 219.092 11.6777C218.46 13.2558 217.828 15.1495 217.195 16.7275C216.563 18.3056 215.931 19.8837 215.298 21.4618C214.982 22.093 214.666 23.3555 214.034 24.6179C213.402 25.8804 213.085 27.4584 212.453 28.7209C211.821 30.299 211.505 31.5615 210.872 32.8239C210.24 34.0864 209.924 35.3489 209.608 36.2957C209.608 36.6113 209.292 36.9269 209.292 37.2425C209.292 37.5581 208.975 37.8738 208.659 37.8738V38.1893C208.659 38.1893 208.659 38.1893 208.975 38.1893C208.343 40.3986 207.395 42.9236 206.762 45.1329C206.13 47.3422 205.498 50.1827 204.865 52.7076C204.549 53.3389 204.549 54.2858 204.233 55.2326C203.917 56.1794 203.917 57.1263 203.917 58.0731C203.917 58.3887 204.233 58.7043 204.233 59.0199C204.549 59.3355 204.549 59.3356 204.865 59.6512C205.182 59.6512 205.498 59.6511 205.814 60.2824C205.814 60.598 206.446 60.9136 206.762 60.9136C207.079 60.9136 207.078 60.598 207.395 60.598C207.395 60.2824 207.711 60.2824 208.027 60.2824C208.027 59.0199 208.027 58.0731 208.343 57.1262C208.343 56.8106 208.659 56.495 208.659 55.8638C208.975 54.6013 209.292 53.3388 209.608 52.392C209.924 51.1295 210.24 50.1828 210.556 48.9203C212.137 44.5017 213.718 40.3987 215.298 36.2957C216.879 32.1927 218.46 28.0897 220.357 24.3023C220.673 23.3554 220.989 22.4086 221.305 21.4618C221.621 20.5149 222.254 19.5681 222.886 18.6213C223.518 17.0432 224.151 15.4651 224.783 13.887C225.415 12.309 226.048 10.4153 226.68 8.83718C226.68 8.20595 226.996 7.57472 227.312 7.2591C227.628 6.94349 227.628 6.31226 227.944 5.68103C228.261 5.36541 228.261 5.04984 228.577 4.73422C228.893 4.41861 228.893 3.7873 228.893 3.47169C228.893 2.84046 228.893 2.52488 228.893 2.52488C228.893 2.20927 228.577 2.20923 228.261 1.89361C226.68 1.26238 226.68 0.946787 226.364 0.631172ZM200.123 49.2358C198.859 49.8671 197.91 50.4983 196.962 50.8139C196.646 51.1295 196.013 51.1296 195.381 51.7608C194.749 52.0764 194.433 52.392 193.8 52.7076C193.484 53.0232 192.852 53.0232 192.536 52.7076C192.22 52.7076 192.219 52.0764 192.219 51.1296L192.852 48.9203C193.168 48.6047 193.168 48.289 193.168 47.9734C193.168 47.6578 193.168 47.6578 193.168 47.3422C193.168 47.0266 193.484 46.7109 193.8 46.3953V46.0797C194.116 45.7641 194.433 45.1328 194.433 44.5016C194.749 43.8704 195.065 43.2392 195.381 42.9235C195.697 42.2923 196.013 41.9767 196.329 41.3455C196.329 40.7142 196.013 40.083 195.697 40.083C195.381 40.083 195.065 39.7674 194.749 39.7674H193.484H192.852C192.536 39.7674 192.536 39.7674 192.219 39.7674L191.903 40.083C191.903 40.083 191.903 40.3987 191.903 40.7143C191.903 41.0299 191.903 41.0299 191.587 41.3455L191.271 41.6611H190.955C190.323 42.2923 190.007 42.9236 189.374 43.2392C188.742 43.5548 188.426 43.8704 187.793 44.5016C185.58 46.0797 183.683 47.6578 181.787 48.9203C179.89 50.1828 177.677 51.7608 175.464 53.0233C175.147 53.3389 174.515 53.6545 173.883 53.9701C173.883 53.3388 174.199 53.0232 174.515 52.7076C174.831 52.392 175.147 51.7608 175.147 51.1296C175.464 50.8139 175.78 50.4984 175.78 50.1827C176.096 49.8671 176.412 49.5515 176.728 49.2358C177.044 48.9202 177.044 48.9203 177.044 48.6047C177.36 48.2891 177.993 48.289 177.993 47.6578C178.309 47.3422 178.625 47.0266 178.941 46.711C179.573 46.0797 179.89 45.7641 180.522 45.1329C181.154 44.5017 181.47 44.1861 182.103 43.8704C182.419 43.5548 182.735 43.2392 183.051 43.2392C183.367 42.9236 183.683 42.608 184 42.2924C184.632 41.9768 184.948 41.6611 185.58 41.3455C186.213 41.0299 186.529 40.7143 187.161 40.7143C187.161 40.3987 187.477 40.083 187.793 40.083C188.11 40.083 188.109 40.083 188.426 40.083L188.742 39.7674L190.006 39.1362C190.639 38.505 191.271 38.1894 191.903 37.8738C192.22 37.8738 192.536 37.5582 192.536 37.8738C192.852 37.8738 193.168 37.8738 193.168 37.5581C193.484 37.5581 193.484 37.2425 193.8 36.9269C194.116 36.6113 193.8 36.2957 193.8 36.2957C193.8 35.9801 193.484 35.6644 193.168 35.3488C192.852 35.0332 192.536 34.7176 192.219 34.402C191.587 34.402 191.271 34.402 190.955 34.0864C190.955 34.0864 190.639 34.402 190.639 34.0864C190.639 33.7708 190.323 34.0864 190.323 34.0864C189.374 34.402 188.742 34.7176 188.426 35.0332C188.109 35.3488 187.477 35.9801 186.845 36.2957C186.529 36.2957 185.897 36.9269 184.632 37.5581C183.367 38.1894 182.419 39.1362 181.47 40.3987C180.206 41.3455 179.257 42.608 177.993 43.5548C177.044 44.5017 176.096 45.1329 175.464 45.7642C174.831 46.711 174.199 47.3422 173.567 48.289C172.934 48.9203 172.302 49.8671 171.986 50.8139C171.67 51.4451 171.353 51.7608 171.037 52.392C170.721 53.0232 170.405 53.6545 170.405 54.2857V54.6013C170.089 55.8638 170.405 56.495 171.037 57.1262C171.353 57.4418 171.67 57.7575 172.302 57.7575C172.934 57.7575 173.25 57.7575 173.883 57.7575C174.199 57.7575 174.515 58.0731 174.831 58.0731H175.78C176.096 58.0731 176.728 58.0731 177.044 57.7575C177.677 57.4419 177.993 57.1263 178.309 56.8107C179.89 56.1794 181.47 55.2325 183.051 54.2857C183.051 53.9701 183.367 53.9701 183.683 53.9701C183.999 53.9701 184 53.6545 184.316 53.6545C184.316 53.6545 184.632 53.3389 184.948 53.3389C185.264 53.3389 185.264 53.0232 185.58 52.7076C185.897 52.392 186.529 52.3921 186.529 52.0765C186.529 51.7608 187.161 51.4452 187.477 51.1296C187.793 51.1296 187.793 50.8139 188.11 50.8139L188.426 50.4984C188.426 50.4984 188.426 50.4984 188.742 50.4984C188.742 51.1296 188.426 52.0764 188.742 52.7076C188.742 53.3389 188.742 53.9701 189.058 54.6013C189.374 54.9169 189.374 55.5482 189.69 55.8638C190.006 56.1794 190.323 56.4951 190.955 56.8107C191.271 56.8107 191.271 56.8106 191.587 57.1262H191.903C193.168 57.4418 194.433 57.4418 195.381 57.1262C196.329 56.8106 197.278 56.495 198.226 55.8638C199.175 55.2325 199.807 54.6013 200.756 53.9701C201.704 53.3388 202.336 52.7076 203.601 52.392C203.601 52.392 203.917 52.3921 204.233 52.0765C204.549 51.7608 205.182 51.4452 206.13 50.4984C206.446 49.8671 206.446 49.8671 206.762 49.5515C207.079 49.5515 207.395 49.2358 207.395 49.2358C208.027 48.6046 208.343 48.289 208.027 47.9734C207.711 47.6578 206.446 47.9734 204.865 48.6047C202.336 47.9734 201.072 48.6046 200.123 49.2358ZM160.921 53.0233C159.34 53.6545 157.443 54.2857 156.178 54.6013C154.598 54.9169 153.333 55.2326 152.385 55.2326C151.436 55.2326 151.12 54.6014 151.436 53.6545C151.752 53.0233 152.068 52.392 152.385 51.7608C152.701 51.1296 153.333 50.4984 153.649 50.1827C153.965 49.5515 154.281 49.2359 154.914 48.9203C155.546 48.6047 155.862 47.9735 156.494 47.3422L158.708 45.7642L160.288 44.5016C160.604 44.186 160.921 43.8704 161.237 43.8704C161.553 43.8704 161.869 43.5548 161.869 43.5548C161.869 43.5548 162.185 43.2392 162.501 43.5548C162.818 43.8704 163.134 43.5548 163.134 43.5548C163.134 43.2392 163.45 43.2392 163.766 43.2392C164.082 43.2392 164.082 43.2392 164.398 43.2392C164.714 42.9236 165.347 42.608 165.347 42.2924C165.663 42.2924 165.979 41.9767 166.611 41.6611C166.927 41.6611 166.928 41.3455 167.244 40.7143C167.244 40.3987 167.56 39.7675 167.56 39.4519C167.56 39.1362 167.56 38.5049 167.56 38.1893C167.56 37.8737 167.244 37.2425 166.927 37.2425C165.663 36.9269 164.714 36.6112 164.398 36.6112C164.082 36.6112 163.766 36.6113 163.45 36.9269C163.134 37.2425 163.134 37.2425 162.817 37.5581C162.501 37.5581 162.185 37.8738 162.185 37.8738C162.185 37.8738 161.869 37.8737 161.553 38.1893C160.921 38.5049 160.604 38.8206 160.288 39.1362C159.972 39.4518 159.656 39.7674 159.024 40.083C158.391 40.7143 157.443 41.6611 156.811 42.2924C156.178 42.9236 155.23 43.5549 154.598 44.1861C153.649 44.8173 153.017 45.4485 152.701 45.7642C152.384 46.0798 151.752 46.7109 151.12 47.6578C150.171 48.289 149.539 49.2359 148.907 49.8671C148.274 50.4983 147.642 51.4451 147.326 52.392C146.378 54.2857 146.061 55.5482 146.378 56.495C146.694 57.4419 147.326 58.3887 148.275 59.0199C148.591 59.3355 148.907 59.3356 149.539 59.6512C149.855 59.9668 150.488 59.9668 151.12 59.9668C152.068 59.9668 152.701 59.9668 153.333 59.9668C153.649 59.9668 154.598 59.9668 155.23 59.6512H155.546C155.546 59.6512 155.546 59.6512 155.862 59.6512C155.862 59.6512 156.178 59.6512 156.494 59.6512C156.811 59.6512 157.127 59.3356 157.127 59.3356C157.759 59.0199 158.075 59.0199 158.391 58.7043C158.707 58.3887 159.024 58.3888 159.34 58.3888C161.869 57.4419 164.714 56.495 166.927 55.5481C169.457 54.6013 171.986 53.3389 174.515 52.0765C174.831 52.0765 175.147 51.7608 175.464 51.7608C175.78 51.7608 176.096 51.1295 176.728 50.8139C177.044 50.4983 177.677 50.1827 177.993 49.8671C178.309 49.5515 178.625 49.5515 178.941 49.2358C178.941 48.9202 179.257 48.6047 179.89 48.6047C180.206 48.6047 180.522 48.289 180.522 48.289L180.838 47.9734C181.154 47.6578 181.47 47.6578 181.47 47.6578C181.47 47.6578 181.47 47.6578 181.47 47.3422C181.47 47.0266 181.47 47.0266 181.787 47.0266C181.787 47.0266 181.787 47.0266 181.47 46.711C181.47 46.711 180.838 46.711 180.206 47.0266H179.573C179.257 47.0266 179.257 47.0266 178.941 47.0266C178.309 47.3422 177.677 47.3422 177.044 47.6578C176.412 47.9734 175.78 48.2891 175.464 48.6047C174.199 48.9203 173.567 49.2359 172.934 49.5515C172.302 49.5515 171.986 49.8671 171.67 49.8671C171.354 49.8671 171.353 50.1827 171.037 50.1827C170.721 50.1827 170.721 50.4984 170.405 50.4984C170.089 50.4984 169.457 50.8139 168.824 51.1296C168.192 51.4452 167.244 51.7608 165.979 52.392C163.766 52.0764 162.501 52.392 160.921 53.0233ZM146.062 52.7076C145.429 52.7076 145.113 53.0233 144.797 53.0233C144.481 53.0233 144.165 53.0233 144.165 53.0233C144.165 53.0233 143.849 53.0233 142.9 53.0233C141.952 53.0233 140.687 53.3389 139.106 53.3389C137.525 53.6545 135.629 53.9701 133.416 54.2857C131.202 54.6013 128.989 55.2325 126.46 55.8638C126.46 55.2325 126.776 55.2326 127.093 55.2326C127.409 54.6014 128.041 53.9701 128.989 53.3389C129.938 52.7077 131.203 51.7608 132.467 50.1827C133.732 48.9203 134.996 47.9734 136.261 47.0266C137.525 46.0798 138.79 45.1328 139.739 44.5016C140.055 44.5016 140.371 44.1861 141.003 43.8704C141.635 43.5548 141.635 43.2392 141.635 42.608C142.268 42.608 142.268 42.608 142.268 42.2924C142.9 41.9768 143.532 41.3455 143.848 40.7143C144.797 40.3987 145.113 39.4518 145.429 38.8206C145.745 38.1894 145.429 36.9269 145.113 36.2957C144.797 35.9801 143.848 35.6644 142.584 35.6644C141.319 35.6644 139.738 35.9801 138.474 36.2957C136.893 36.6113 135.629 36.9269 134.048 37.2425C132.467 37.5581 131.519 37.8738 130.886 37.8738C130.254 37.8738 129.305 38.1893 128.357 38.1893C127.409 38.5049 126.46 38.8206 125.828 39.1362C125.196 39.4518 124.563 40.0831 123.931 40.7143C123.299 41.3455 123.299 42.2923 123.615 43.2392C123.615 43.8704 123.931 44.186 124.563 44.5016C125.196 44.8172 125.512 44.8173 125.828 44.8173C126.144 44.8173 126.776 44.8172 127.093 44.5016C127.409 44.186 127.725 44.1861 128.041 43.8704L128.357 43.5548C128.673 43.2392 129.306 42.9236 130.254 42.2924C130.886 41.9768 131.835 41.3455 132.783 41.0299C133.732 40.7143 134.68 40.3986 135.312 40.083C136.261 39.7674 136.893 39.7674 137.842 39.7674C138.158 39.7674 138.474 39.7674 138.474 40.083C138.474 40.083 138.158 40.3987 138.158 40.7143C137.842 41.0299 137.526 41.3455 137.209 41.6611C136.893 41.9767 136.577 42.2924 135.945 42.608C135.629 42.9236 135.629 43.2392 135.312 43.2392C134.996 43.2392 134.996 43.5548 134.68 43.5548C134.364 43.5548 134.364 43.5548 134.364 43.8704C134.048 43.8704 134.048 44.186 133.732 44.5016L133.416 44.8173L133.099 45.1329C133.099 45.1329 132.783 45.1329 132.467 45.4485C132.151 45.7641 131.835 46.0797 131.519 46.3953C131.202 46.7109 130.886 47.0266 130.57 47.3422C130.254 47.6578 129.938 47.9734 129.938 47.9734C129.305 48.6046 128.357 49.2359 127.409 50.1827C126.46 50.814 125.512 51.7608 124.563 52.7076C123.615 53.6545 122.983 54.6013 122.35 55.8638C122.034 57.1262 121.718 58.0731 122.35 59.3356C122.666 59.6512 122.666 59.6512 122.666 59.9668C122.666 59.9668 122.666 60.2824 123.299 60.2824C123.615 60.598 123.931 60.598 124.247 60.9136C124.563 61.2292 124.879 61.2292 124.879 60.9136C125.196 60.9136 125.512 60.9136 126.144 60.9136C126.46 60.9136 126.776 60.9136 127.093 60.9136C127.409 60.9136 127.725 60.598 128.041 60.598C128.357 60.598 128.673 60.2824 128.989 60.2824C129.306 60.2824 129.622 60.2824 129.622 60.2824C129.938 60.2824 130.254 60.2824 130.254 60.2824C130.886 60.2824 131.835 60.2824 132.783 59.9668C133.732 59.6512 134.68 59.3355 135.945 59.0199C137.209 58.7043 138.158 58.3887 139.106 58.0731C140.055 57.7575 141.003 57.4418 141.635 57.4418C141.319 57.4418 141.635 57.4418 142.268 57.4418C142.9 57.4418 143.532 57.1262 144.481 57.1262C145.429 56.8106 146.062 56.8107 147.01 56.495C147.958 56.1794 148.275 56.1794 148.275 56.1794C150.488 55.5482 152.068 54.9169 153.017 54.2857C153.965 53.6545 154.281 53.0232 153.965 52.7076C153.649 52.392 153.333 52.0765 152.385 52.0765C151.436 52.0765 150.488 52.0764 149.223 52.7076H146.062ZM105.278 40.7143C106.859 39.1362 109.072 37.8737 111.285 37.2425C111.285 37.5581 111.285 37.5581 110.969 37.5581C110.02 38.8206 108.756 40.083 107.491 41.3455C106.227 42.6079 104.962 43.5548 103.697 44.8173C103.065 45.1329 102.749 45.4485 102.117 45.7642C101.484 46.0798 101.168 46.0797 100.536 46.0797C102.117 44.186 103.697 42.2924 105.278 40.7143ZM114.13 52.7076C114.446 52.392 115.079 52.0764 116.027 51.7608C116.976 51.1296 117.924 50.814 118.873 50.1827C119.821 49.5515 120.769 48.9203 122.034 48.289C122.982 47.6578 123.931 47.0266 124.563 46.711C124.88 46.3953 125.512 46.0797 125.512 46.0797C125.828 46.0797 126.144 45.7642 126.144 45.7642C126.46 45.7642 126.46 45.4485 126.46 45.4485C126.776 45.1329 127.092 44.8173 127.409 44.1861C127.725 43.8705 128.041 43.5548 128.357 43.2392C128.673 42.9236 128.673 42.608 128.673 42.2924C128.673 41.9768 128.357 41.9767 127.725 41.9767C127.725 41.9767 127.725 41.9767 127.409 41.9767H127.093C126.46 41.9767 126.144 42.2924 125.828 42.2924C125.512 42.2924 125.196 42.6079 124.879 42.9235C123.931 43.5548 122.982 43.8704 122.034 44.5016C121.086 45.1328 119.821 45.4485 118.873 46.0797C117.608 46.7109 116.659 47.3422 115.711 47.6578C114.763 47.9734 114.13 48.6047 113.182 48.9203C112.233 49.2359 111.601 49.5515 110.653 50.1827C109.704 50.4984 108.756 51.1296 107.491 51.7608C106.859 52.0764 106.227 52.392 105.594 52.392C104.962 52.7076 104.014 52.7076 103.381 53.0233C102.433 53.3389 101.484 53.6545 100.536 53.9701C99.5874 54.2857 98.3228 54.6013 97.3743 54.2857C96.742 53.9701 96.742 53.3389 96.4259 52.7076C96.4259 52.0764 96.4258 51.4451 96.742 50.8139C97.0581 50.1827 97.3744 49.5515 97.6906 48.9203C98.0067 48.2891 98.3228 47.9735 98.9551 47.3422C99.9035 47.3422 101.168 47.3422 102.117 47.3422C103.065 47.3422 104.013 46.7109 104.646 46.3953C107.175 44.8173 109.704 42.608 112.233 40.3987C112.233 40.083 112.55 39.7675 112.866 39.4519C113.182 39.1362 113.498 38.8206 113.814 38.505C114.13 38.1893 114.13 37.8738 114.763 37.5581C115.079 37.2425 115.395 36.9269 115.395 36.6112C115.395 35.98 115.079 35.0332 114.447 34.402C113.814 33.7708 112.233 33.1396 110.02 33.1396C109.704 33.1396 109.388 33.1395 109.388 33.4551C109.388 33.4551 109.072 33.7707 108.756 33.7707C108.124 34.0863 107.491 34.402 106.543 34.7176C105.594 35.0333 104.962 35.3488 104.33 35.9801C102.749 36.9269 101.484 37.8738 99.9035 39.4519C98.3227 41.0299 97.0582 42.2924 95.7936 43.8704C95.7936 44.1861 95.4775 44.5016 95.4775 44.8173C95.1613 45.1329 95.1613 45.4485 94.8451 45.7642C94.529 46.3954 94.2129 47.3422 93.8967 47.9734C93.5806 48.9202 93.2645 49.5515 92.9483 50.4984C92.6322 51.4452 92.6321 52.0764 92.6321 53.0233C92.6321 53.9701 92.9482 54.6014 93.2644 55.2326C93.8967 56.1794 94.529 56.495 95.4775 57.1262C96.4259 57.4418 97.3743 57.7575 98.3227 57.7575C99.2712 57.7575 100.22 57.7575 101.168 57.4418C102.117 57.1262 103.065 57.1263 103.697 56.8107C104.33 56.4951 104.962 56.495 105.594 56.1794C106.227 55.8638 106.859 55.8638 107.175 55.5481L114.13 52.7076ZM82.1991 58.3888C83.1476 55.2326 84.0961 51.7608 85.0446 48.289C85.993 44.8173 86.9413 41.6611 87.8898 38.505C88.8382 35.3488 89.7867 32.8239 90.419 30.6146C91.0513 28.7209 91.6837 26.8272 92.316 24.9336C92.9483 23.0399 93.5805 21.1462 94.2128 18.9369C94.8451 17.3588 95.1613 16.0963 95.7936 14.5182C96.4259 12.9401 96.742 11.6777 97.3743 10.0996C97.3743 9.46839 97.6905 9.15277 98.0066 8.52154C98.3228 7.89031 98.3227 7.25908 98.3227 6.94347C98.3227 6.62785 97.6905 6.31226 97.0582 5.68103C96.4259 5.0498 96.1098 4.73422 95.4775 4.73422C94.8452 4.41861 94.529 4.41861 93.8967 4.73422C93.2644 5.04984 92.9483 5.04976 92.316 5.04976C91.3675 5.99661 90.419 6.62787 89.4705 7.2591C88.5221 7.89033 87.5738 8.52158 86.6253 9.15281C85.6769 9.78404 84.7283 10.4152 83.7799 11.3621C82.8314 11.9933 81.8829 12.9402 80.9344 13.5714C76.5083 17.3588 72.0824 21.1462 67.6563 25.2492C63.5463 29.3522 59.1201 33.4552 55.3263 37.5581C54.3779 38.1894 53.7456 39.1362 52.7972 40.083C52.1649 41.0299 51.2165 41.6611 50.268 42.2924C51.2165 39.4518 52.1648 36.2956 53.1132 33.4551C54.0617 30.6146 55.0102 27.4584 55.9587 24.3023C56.9071 22.093 57.5394 19.8837 58.4878 17.99C59.4363 16.0963 60.0686 13.5714 60.7009 11.3621C61.0171 10.7308 61.0171 9.78404 61.3333 9.15281C61.6494 8.20597 61.6493 7.5747 61.9654 6.94347C61.9654 5.36539 61.6494 4.41855 60.7009 3.78732C59.7525 3.15609 58.8039 2.52484 57.8555 1.89361C57.5393 1.89361 56.9072 1.57807 56.591 1.57807C56.2749 1.57807 55.6425 1.26244 55.3263 1.26244C54.694 1.26244 54.3779 1.26244 53.7456 1.26244C53.4294 1.57806 52.7971 1.578 52.4809 1.89361C52.1648 1.89361 51.8488 2.20927 51.8488 2.52488C51.5326 2.8405 51.5326 3.15607 51.2164 3.47169C50.9003 3.7873 50.5842 4.10297 50.268 4.41859C49.9519 4.7342 49.6355 5.04978 49.3194 5.36539C42.9964 11.0465 37.3058 17.3588 32.2474 23.6711C27.189 30.299 22.1306 36.9269 17.0722 43.8704C14.543 47.3422 12.0136 51.1296 9.80059 54.917C7.58753 58.7043 5.05848 62.4917 2.84543 66.5947C2.21313 67.2259 1.89686 68.1728 0.948413 68.804C0.316112 69.7508 0 70.382 0 71.3289C0 71.9601 0.316189 72.5914 0.63234 73.2226C0.94849 73.8538 1.58079 74.1694 2.21309 74.8007C2.84539 75.4319 3.79388 75.432 4.42618 75.7476C5.37464 76.0632 6.00678 76.0632 6.63908 75.7476C8.21984 75.432 9.48455 74.8007 10.1169 73.2226C10.433 72.2757 10.7492 71.6446 10.7492 70.6977C10.7492 69.7509 11.0652 68.804 11.3813 68.1727C11.6975 66.5947 12.3299 65.3322 13.2784 63.7541C14.8591 60.9136 16.4399 58.0731 18.0206 55.5481C19.6014 53.0232 21.182 50.1827 23.0789 47.6578C24.6597 45.1328 26.5566 42.2923 28.4535 40.083C30.3504 37.5581 32.2474 35.0332 33.8281 32.8239C36.6735 29.0365 39.5188 25.5648 42.6803 22.093C45.5257 18.6213 48.6873 15.1495 51.8488 11.9933C51.2165 15.4651 50.2678 18.9369 49.3194 22.093C48.3709 25.2492 47.4226 28.7209 46.4742 31.877C46.158 33.4551 45.5256 35.0332 45.2095 36.6112C44.5772 38.1893 44.261 40.083 43.6287 41.6611C43.3126 42.2923 43.3125 43.2392 42.9964 44.1861C42.6802 45.1329 42.6804 45.7641 42.3642 46.711C42.0481 47.6578 42.0481 48.6046 41.7319 49.5515C41.7319 50.4983 41.4156 51.4451 41.4156 52.392C41.4156 52.7076 41.4156 53.0233 41.4156 53.3389C41.4156 53.6545 41.4156 53.9701 41.4156 54.2857C41.4156 54.6013 41.7318 54.6014 42.048 54.917C42.3641 55.2326 42.9965 55.2326 43.3127 55.2326C43.945 55.2326 44.2611 55.2325 44.8934 55.5481C45.5257 55.5481 45.8417 55.5481 46.1579 55.5481C46.7902 55.2325 47.1063 54.9169 47.7386 54.2857C48.3709 53.6545 48.6872 53.0232 49.0033 52.392C50.2679 50.8139 51.5326 49.2359 52.7972 47.9734C54.0618 46.3953 55.3264 45.1329 56.591 43.8704C61.0171 39.1362 65.4431 34.402 69.8692 29.9834C74.2953 25.5648 79.0375 21.1462 84.0959 17.3588C85.0444 16.412 86.309 15.7807 87.2575 14.8338C88.2059 14.2026 89.4705 13.2558 90.419 12.6246C89.4705 16.412 88.5221 20.1994 87.2575 23.6711C85.9929 27.1429 84.7284 30.6146 83.4638 34.402C82.8315 35.9801 82.1991 38.1894 81.5668 41.0299C80.9345 43.8705 79.9861 46.711 79.0376 49.8671C78.0892 53.0233 77.4568 56.1794 76.8245 59.0199C76.1922 61.8605 75.5599 64.3854 75.2438 66.2791C75.2438 66.9104 74.9277 67.5415 74.9277 68.1727C74.9277 68.804 74.9276 69.1196 75.2438 69.7508C75.5599 71.3289 76.5085 71.9602 78.0892 72.2758C78.7215 72.2758 79.3538 72.2758 79.67 71.9602C79.9861 71.6445 80.3022 70.382 80.6184 68.1727C80.6184 64.0697 81.2507 61.5449 82.1991 58.3888Z" fill="#2C2E35"/>
<rect x="6" y="79" width="714" height="5" fill="#2C2E35"/>
</svg>
