<svg width="293" height="99" viewBox="0 0 293 99" fill="none" xmlns="http://www.w3.org/2000/svg">
<path d="M253.389 62.5583C253.087 63.1657 252.482 64.3803 251.575 65.8988C250.668 67.4172 249.761 69.2393 248.551 70.7577C247.342 72.2761 246.435 74.0982 245.527 75.3129C244.62 76.8313 244.016 77.4387 244.016 77.7423L243.108 78.957L242.806 79.2607C242.806 79.2607 242.806 79.2607 242.806 79.5644L239.782 84.1196L237.666 86.5491C237.061 87.1564 236.759 87.7638 236.154 88.6748C235.549 89.2822 234.944 89.8896 234.642 90.4969C234.037 91.1043 233.735 91.7116 233.13 92.0153C232.525 92.6227 232.223 92.9264 231.618 93.5337C231.013 93.8374 230.711 93.8374 230.711 94.1411C230.409 94.4448 230.106 94.4448 229.804 94.7484C229.502 95.0521 229.199 95.0521 228.897 95.0521C228.595 95.0521 228.292 95.3558 227.99 95.0521C227.687 95.0521 227.687 94.7484 227.687 94.1411C227.385 93.23 227.687 92.319 228.292 90.8006C228.897 89.2822 229.804 87.7638 230.711 86.2454C231.921 84.727 233.13 82.9049 234.34 81.0828C235.549 79.2607 237.061 77.7423 238.27 75.9202C239.48 74.0981 240.689 72.8834 241.899 71.6687C243.108 70.454 244.015 69.5429 244.62 68.9356L253.389 62.5583ZM259.134 50.1074C258.227 51.9294 257.32 54.0552 256.413 56.181L252.784 58.6104C252.784 58.6104 252.784 58.6104 252.482 58.6104H252.18C251.272 59.2178 250.063 60.1288 248.249 61.3435C246.434 62.5583 244.923 64.0767 243.108 65.8988C241.294 67.7208 239.782 68.9356 238.27 70.454C236.759 71.9724 235.549 73.1871 234.944 73.7945C234.642 74.0982 234.037 75.0092 233.13 75.9202C232.223 76.8313 231.618 78.046 230.711 79.2607C229.804 80.4755 228.897 81.9938 227.99 83.5123C227.083 85.0307 226.175 86.2454 225.571 87.7638C224.966 88.9785 224.361 90.1932 223.757 91.1043C223.454 92.0153 223.152 92.6227 223.454 92.9264C223.454 93.8374 223.152 94.4448 223.454 95.6595C223.454 96.5705 223.756 97.1779 224.059 97.7852H224.361C224.361 98.0889 224.361 98.3926 224.664 98.3926C224.966 98.3926 224.966 98.3926 224.966 98.6963C225.268 99 225.571 99 226.175 99C226.78 99 227.385 99 228.292 98.6963C229.199 98.6963 229.804 98.3926 230.711 98.0889C231.618 97.7853 232.223 97.4816 232.828 97.1779C233.432 96.8742 234.037 96.5705 234.34 96.2668C234.642 95.9632 235.549 95.3558 236.154 95.0521C236.759 94.7485 237.666 93.8374 238.573 92.6227C239.48 91.408 240.689 90.1932 241.899 88.6748C243.108 87.1564 244.318 85.638 245.527 84.1196C246.737 82.6012 247.946 81.0828 248.854 79.8681C249.761 78.6534 250.668 77.4386 251.272 76.5276C251.877 75.6165 252.18 75.0092 252.18 75.0092C252.482 74.4018 253.087 73.4908 253.691 72.2761C254.296 71.0613 255.203 69.8466 255.808 68.6319C256.413 67.4172 257.32 65.8988 257.925 64.684C258.529 63.1656 259.134 61.9509 259.739 60.4325C260.344 59.5215 260.948 58.9141 261.856 58.3067C262.763 57.6994 263.367 57.3957 263.367 57.092C263.367 56.7883 263.67 56.4847 264.274 56.181C264.879 55.5736 265.484 55.2699 266.089 54.6626C266.694 54.0552 267.298 53.7515 267.903 53.1442C268.508 52.8405 268.81 52.5368 268.81 52.5368C269.112 52.2331 269.415 51.9294 270.02 51.6258C270.624 51.0184 271.229 50.7147 271.834 50.4111C272.439 50.1074 273.346 49.5 274.555 48.8926C275.16 48.2853 275.765 47.9816 275.765 47.9816C276.067 47.9816 276.067 47.9816 276.369 47.6779C277.277 47.0705 277.579 46.7669 277.881 46.7669C278.184 46.7669 278.184 46.4632 278.486 46.4632C278.788 46.4632 278.789 46.1595 279.091 46.1595C279.393 45.8558 279.696 45.5522 280.603 45.2485C281.207 44.6411 282.115 44.3374 282.719 43.7301C283.324 43.1227 284.231 42.819 284.836 42.2117H285.138C285.138 42.2117 285.441 42.2117 285.441 41.908C285.743 41.3006 286.348 40.997 286.953 40.6933C287.557 40.3896 288.162 40.0859 288.767 39.7822C289.069 39.7822 289.372 39.4785 289.674 39.4785C289.976 39.1748 290.279 39.1748 290.581 38.8712C291.186 38.5675 291.488 38.2638 292.093 38.2638C292.698 38.2638 292.698 37.9601 293 37.3528C292.698 37.3528 292.395 37.3528 292.093 37.3528C291.791 37.6564 291.488 37.6564 291.488 37.3528L291.791 37.0491C292.093 37.0491 292.093 37.0491 292.093 36.7454C289.976 37.3528 288.162 38.2638 286.348 39.1749C284.534 40.0859 282.719 41.3006 280.905 42.2117C279.091 43.1227 277.579 44.0337 276.369 44.9448C275.16 45.8558 273.951 46.4632 273.043 47.0705C271.834 47.6779 270.927 48.5889 269.717 49.1963C268.508 49.8037 267.298 50.7147 265.484 51.9295C265.182 52.2331 265.182 52.2331 264.879 52.2331C264.879 52.2331 264.577 52.5368 264.274 52.2331C264.879 50.7147 265.484 48.8926 265.786 47.3742C266.391 45.5522 266.996 43.73 267.601 41.6043C267.601 41.3006 267.903 40.6933 267.903 40.3896C267.903 39.7822 268.206 39.4785 268.206 38.8712C268.206 38.2638 268.206 37.6564 268.206 37.3528C268.206 36.7454 267.903 36.4417 267.601 36.1381C266.996 35.8344 266.089 35.8344 265.484 35.8344C264.879 35.8344 263.972 35.8344 263.367 36.1381C263.367 36.4417 263.065 36.7454 263.065 37.0491C263.065 37.3527 263.065 37.6564 263.065 37.9601L262.46 38.2638L262.158 38.5675C262.158 38.5675 262.158 38.5675 261.856 38.8712C260.041 40.3896 258.227 41.6043 256.715 43.1227C254.901 44.6411 253.087 45.8558 251.272 47.0705L250.97 47.3742C250.97 47.3742 250.668 47.3742 250.365 47.3742C250.668 46.7669 250.668 46.4632 250.97 45.8558C250.97 45.2485 251.273 44.9448 251.575 44.6411C251.575 44.3374 251.575 44.0338 251.877 43.7301C252.18 43.4264 252.18 43.1227 252.482 42.819C252.482 42.819 252.784 42.5154 252.784 42.2117C253.087 41.908 253.087 41.6043 253.389 41.3006C253.691 40.9969 253.692 40.6932 253.994 40.0859C254.296 39.7822 254.296 39.4785 254.599 39.1749L255.203 38.8712C255.506 38.2638 255.506 37.6564 255.203 37.0491C254.901 36.4417 254.296 36.138 253.691 35.8344C253.087 35.5307 252.18 35.5307 251.575 35.8344C250.97 36.138 250.365 36.4417 250.063 36.7454C249.761 37.0491 249.761 37.3528 249.156 37.9601C248.853 38.5675 248.551 38.8712 248.249 39.4785C247.946 40.0859 247.644 40.6932 247.342 40.9969C247.039 41.6043 246.737 41.908 246.737 42.2117C246.434 42.5154 246.435 42.819 246.435 42.819C246.435 43.1227 246.132 43.1227 246.132 43.4264C246.132 43.4264 246.132 43.7301 245.83 43.7301C245.83 43.7301 245.83 44.0337 245.527 44.0337V44.3374C245.527 44.3374 245.527 44.6411 245.225 44.6411C245.225 44.9448 244.923 45.2485 244.923 45.8558C244.923 46.1595 244.62 46.7669 244.62 47.0705C244.62 47.6779 244.318 47.9816 244.62 48.5889C244.62 49.1963 244.62 49.5 244.923 49.8037C246.132 50.7147 247.342 51.3221 249.156 51.3221C249.761 51.6258 250.365 51.9294 250.97 51.6258C251.575 51.6258 252.18 51.3221 252.482 51.0184C252.784 50.7147 253.389 50.4111 254.296 49.8037C255.203 49.1963 256.111 48.5889 257.018 47.6779C257.925 47.0705 258.832 46.1595 259.437 45.5521C260.041 44.9448 260.646 44.6411 260.646 44.3374C260.646 46.1595 259.739 48.2853 259.134 50.1074ZM221.338 60.4325C221.942 60.4325 222.245 60.1288 222.547 59.8251C222.547 60.1288 222.547 60.1288 222.547 60.1288C222.547 60.1288 222.245 60.4325 222.547 60.7362C221.942 62.2546 221.035 63.773 220.128 65.8988C219.221 68.0245 218.011 70.1503 216.802 72.5798C215.592 75.0092 214.383 77.4386 212.871 79.8681C211.359 82.2975 209.847 84.4233 208.033 86.5491C206.521 88.6748 204.707 90.1932 202.893 91.7116C201.078 93.23 199.264 93.8374 197.148 94.1411C196.845 93.8374 196.845 93.5337 196.845 93.23C196.845 92.9264 196.845 92.6227 196.543 92.319C196.845 90.4969 197.148 88.6748 198.055 87.1564C198.66 85.638 199.567 84.1196 200.776 82.6012C201.986 81.0828 202.893 79.8681 203.8 78.6534C204.707 77.4387 205.916 76.2239 206.823 75.0092C207.126 74.7055 207.731 73.7945 208.638 72.8834C209.545 71.9724 210.754 70.7577 211.964 69.543C213.173 68.3282 214.685 66.8098 216.197 65.2914C217.709 63.773 219.221 62.2546 220.733 61.0399C220.43 60.7362 220.733 60.4325 221.338 60.4325ZM197.148 98.6963C197.752 98.6963 198.659 98.3926 199.264 98.0889C203.195 96.5705 206.521 94.1411 209.545 91.1043C212.569 88.0675 214.988 84.727 217.407 80.7791C219.523 77.135 221.64 72.8834 223.454 68.9356C225.268 64.684 226.78 61.0399 228.594 57.092C228.897 56.4847 229.199 55.5736 229.502 54.9663C229.804 54.3589 230.106 53.7515 230.711 53.4479C231.013 53.1442 231.013 52.8405 231.618 52.5368C231.921 52.2331 232.223 51.9294 232.828 51.6258L233.433 51.0184C233.735 50.7147 234.037 50.7147 234.34 50.4111C234.642 50.1074 234.944 50.1074 235.247 49.8037C235.851 49.1963 236.154 48.8926 236.759 48.5889C237.363 48.2853 237.968 47.9816 238.27 47.3742C238.875 47.0706 239.48 46.4632 240.387 45.8558C241.294 45.2485 242.201 44.6411 243.411 43.7301C244.318 43.1227 245.225 42.5153 246.132 41.6043C247.039 40.9969 247.644 40.3896 247.946 40.0859C247.644 40.0859 247.644 40.0859 247.644 39.7822C248.249 39.1749 248.551 38.8712 249.458 38.8712C250.063 38.5675 250.668 38.2638 251.272 37.9601C250.97 37.9601 250.668 38.2638 250.668 37.9601C250.668 37.9601 250.97 37.6565 251.272 37.6565C251.575 37.6565 251.575 37.3528 251.575 37.3528H251.272C251.575 37.0491 251.575 37.0491 251.877 37.0491C252.18 37.0491 252.18 36.7454 252.482 36.7454H252.18H251.877V36.4417H251.575C251.575 36.4417 251.575 36.4417 251.272 36.4417H251.575H251.877C250.365 36.7454 249.156 37.3528 247.946 37.9601C246.737 38.5675 245.527 39.1749 244.318 39.7822C243.713 39.7822 243.411 40.0859 243.108 40.0859C242.806 40.0859 242.504 40.3896 242.201 40.6933C242.201 40.6933 241.899 40.6932 241.899 40.9969L241.596 41.3006H241.294C240.992 41.6043 240.387 41.908 239.48 42.5153C238.573 42.819 237.666 43.4264 236.759 44.0337C235.851 44.6411 234.944 45.2485 234.037 45.8558C233.13 46.4632 232.525 47.0705 232.223 47.6779C232.525 46.7669 232.525 45.8558 233.13 45.2485C233.432 44.3374 233.735 43.4264 233.735 42.5153C234.037 41.908 234.037 41.6043 234.34 40.9969C234.34 40.3896 234.642 39.7822 234.642 39.4785C234.642 38.8712 234.642 38.5675 234.642 37.9601C234.642 37.6564 234.34 37.0491 233.735 36.7454C233.735 36.7454 233.432 36.4417 233.13 36.7454C232.828 36.7454 232.828 36.7454 232.828 36.7454C232.525 36.7454 232.525 36.7454 232.223 36.7454C232.223 36.7454 231.921 36.7454 231.618 36.7454C231.013 36.7454 230.711 36.7454 230.711 37.0491C230.409 37.3527 230.409 37.6565 230.106 37.6565C229.804 37.9601 229.804 38.2638 229.804 38.2638C229.804 38.2638 229.804 38.5675 229.804 38.8712C229.804 39.1748 229.502 39.4785 229.199 39.7822C228.897 40.0859 228.595 40.0859 228.292 40.3896C227.99 40.6933 227.687 40.9969 227.385 41.3006C227.083 41.6043 226.78 41.908 226.478 42.2117C225.268 43.1227 224.059 44.3374 222.849 45.2485C221.64 46.1595 220.43 47.3742 219.221 47.9816C218.919 47.9816 218.616 48.2853 218.616 48.2853C218.314 48.2853 218.314 48.589 218.011 48.8926C217.407 49.1963 217.104 49.5 216.499 49.8037C215.895 50.1074 215.592 50.411 215.29 50.7147C215.29 50.7147 214.988 50.7147 214.988 51.0184C214.988 51.0184 214.685 51.0184 214.383 51.0184V50.7147C214.383 50.411 214.383 50.411 214.383 50.1074C214.685 49.1963 214.988 48.2853 215.592 47.3742C216.197 46.4632 216.5 45.8558 217.104 44.9448C217.709 44.6411 218.011 44.0337 218.314 43.4264C218.616 42.819 219.221 42.2117 219.826 41.908C220.128 41.6043 220.43 41.3006 220.733 40.6933C221.035 40.3896 221.338 40.0859 221.64 39.7822C221.64 39.1749 221.942 38.8711 222.245 38.5675C222.547 38.2638 222.849 37.9601 223.152 37.6565C223.454 37.0491 223.756 36.7454 224.059 36.4417C224.361 36.138 224.664 35.8343 225.268 35.5307C225.571 35.227 226.176 34.6196 226.78 34.316C227.385 33.7086 228.292 33.4049 228.594 32.7975C229.199 32.1902 229.502 31.8865 229.502 31.5828C229.502 31.2792 229.199 30.9754 228.292 30.9754C228.292 30.9754 227.99 30.9754 227.687 30.9754C227.385 30.9754 227.083 30.9755 227.083 31.2791C226.478 31.5828 225.873 31.8865 224.966 32.1902C224.361 32.4939 223.757 33.1012 222.849 33.4049C222.849 33.4049 222.547 33.4049 222.245 33.7086C221.942 34.0123 221.64 34.0123 221.338 34.316C221.035 34.6196 220.733 34.6196 220.43 34.9233C220.128 35.227 220.128 35.227 219.826 35.227L218.011 37.0491C217.104 37.9601 216.197 38.8712 215.29 39.7822C214.383 40.6933 213.476 41.6043 212.569 42.819C211.662 44.0338 211.359 44.3374 211.057 44.9448H210.755C210.755 44.9448 210.754 44.9448 210.452 44.9448C210.452 45.2485 210.15 45.5522 210.15 45.8558C209.847 46.1595 209.847 46.4632 209.545 46.7669C209.545 47.0706 209.243 47.6779 209.243 47.9816C209.243 48.2853 208.94 48.8926 208.94 49.5C208.94 50.1074 208.94 50.411 208.94 51.0184C208.94 51.6258 209.243 51.9294 209.243 52.2331C209.545 52.2331 209.545 52.2331 209.545 52.5368L209.847 52.8405H209.545C209.545 52.8405 210.15 53.1442 210.452 53.1442C211.057 53.1442 211.662 53.1442 212.266 53.4479C212.871 53.4479 213.476 53.4479 214.081 53.4479C214.685 53.4479 214.988 53.4479 214.988 53.4479C215.29 53.4479 215.592 53.1442 216.197 53.1442C216.802 52.8405 217.104 52.8405 217.709 52.5368C218.314 52.2331 218.919 51.9294 219.221 51.6258C219.523 51.3221 220.128 51.0184 220.128 51.0184C220.733 50.411 221.035 50.1074 221.64 49.8037C222.245 49.5 222.849 48.8927 223.454 48.2853C223.454 47.9816 223.756 47.9816 224.059 47.9816L224.361 47.6779L224.664 47.3742C224.664 47.3742 224.664 47.3742 224.966 47.3742C224.966 47.0706 225.268 46.7669 225.268 46.7669C225.268 47.0706 225.268 47.3742 225.268 47.6779C225.268 47.9816 224.966 48.2853 224.966 48.5889C224.664 49.1963 224.664 49.5 224.664 49.5C224.664 49.8037 224.664 49.8037 224.361 50.1074C224.361 50.411 224.059 50.411 224.059 50.7147C224.059 51.0184 223.756 51.3221 223.454 51.6258C223.454 51.6258 223.454 51.9294 223.454 52.5368C223.152 53.1442 223.152 53.4479 223.152 53.4479L222.849 53.7515C222.547 53.7515 222.245 54.0552 221.64 54.3589C221.338 54.6626 220.733 54.9663 220.128 55.5736C219.523 56.181 218.919 56.7883 218.616 57.092C215.895 59.5215 212.871 62.2546 209.847 65.2914C206.823 68.3282 203.8 71.6687 201.381 75.0092C198.659 78.3497 196.543 81.6902 195.031 85.3344C193.519 88.6748 192.612 92.0153 192.612 95.3558C192.31 95.3558 192.612 95.6595 192.914 96.2668C193.217 96.8742 193.822 97.4816 194.426 98.0889C195.636 98.6963 196.241 98.6963 197.148 98.6963ZM196.845 38.8712C196.845 39.7822 196.543 40.997 196.24 42.2117C195.636 43.4264 195.333 44.6411 194.426 45.8558C193.822 47.0706 193.217 47.6779 193.217 48.2853L192.612 48.8926C191.705 49.8037 190.798 50.7147 189.891 51.3221C188.984 51.9295 187.774 52.5368 186.262 53.1442C185.96 52.2331 185.657 51.3221 185.96 50.4111C186.262 49.5 186.565 48.589 186.565 47.9816C186.565 47.6779 186.867 47.0705 187.169 46.1595C187.472 45.2484 188.076 44.6411 188.379 43.7301C188.681 42.819 189.286 42.2117 189.891 41.3006C190.495 40.6933 190.798 40.0859 191.1 39.7822C191.403 39.1749 191.705 38.8712 192.007 38.2638C192.31 37.9601 192.612 37.3527 192.914 37.0491L193.217 36.7454C193.519 37.0491 193.822 37.0491 194.124 37.0491C194.426 37.0491 194.729 37.0491 195.031 37.3528C196.241 37.6564 196.845 37.9601 196.845 38.8712ZM201.683 41.6043C201.683 41.6043 201.683 41.3006 201.683 40.9969C202.288 40.6932 202.893 40.6933 203.8 40.3896C204.707 40.0859 205.614 40.0859 206.521 39.7822C207.428 39.4785 208.336 39.4785 209.243 39.1749C210.15 39.1749 211.057 38.8712 211.964 38.8712C212.871 38.8712 213.778 38.8712 214.081 38.8712C214.383 38.8712 214.685 38.8711 214.988 38.5675C215.29 38.2638 215.29 38.2638 215.29 38.2638C215.592 38.2638 215.895 37.9601 216.499 37.9601C216.802 37.9601 217.104 37.6564 217.104 37.3528C217.104 37.0491 217.104 36.7454 216.802 36.4417C216.5 36.4417 216.499 36.4417 216.499 36.1381C216.499 36.1381 216.197 36.1381 215.895 36.1381C215.895 36.1381 215.895 36.1381 215.592 36.1381C215.592 36.1381 215.592 36.1381 215.29 36.1381H214.988C214.383 35.8344 213.173 35.5307 211.964 35.5307C210.452 35.5307 208.94 35.5307 207.126 35.8344C205.312 35.8344 203.8 36.138 202.288 36.4417C200.776 36.7454 199.567 36.7454 198.962 37.0491L198.055 35.8344C198.055 35.8344 197.752 35.5307 197.45 35.5307C197.148 35.5307 196.845 35.227 196.543 35.227C196.241 35.227 195.938 34.9233 195.636 34.9233C195.333 34.9233 195.031 34.9233 195.031 34.9233H194.729H194.426C194.124 34.6196 193.519 34.6196 192.914 34.316C192.31 34.0123 192.007 33.7086 191.403 34.0123C190.798 34.0123 190.193 34.3159 189.891 34.9233C189.286 35.227 188.984 35.8343 188.379 36.4417C187.774 37.0491 187.472 37.6564 187.169 37.9601C186.564 38.5675 185.96 39.4785 185.355 40.3896C184.75 41.3006 184.146 42.2117 183.843 42.819C183.843 42.819 183.541 42.819 183.541 43.1227C183.541 43.1227 183.541 43.4264 183.238 43.4264L181.727 47.9816C181.727 48.2853 181.727 48.8926 181.424 49.1963C181.122 49.8037 181.122 50.1074 181.424 50.4111C181.122 50.4111 181.122 50.7147 181.122 51.0184C181.122 51.3221 181.122 51.6258 181.122 51.6258C181.122 52.5368 181.424 53.4479 182.029 54.0552C182.634 54.6626 183.238 55.2699 183.843 55.5736C184.448 55.8773 185.355 56.181 186.262 56.181C187.169 56.181 188.076 56.181 188.984 55.8773C189.588 55.8773 190.495 55.8773 191.403 55.2699C192.31 54.6626 193.217 54.0552 194.124 53.4479C195.031 52.8405 195.938 51.6258 197.148 50.4111C197.752 50.1074 198.055 49.5 198.357 48.5889C198.659 47.6779 199.264 47.0706 199.567 46.7669C199.869 46.4632 199.869 45.8558 200.171 45.5521C200.474 44.9448 200.474 44.6411 200.776 44.3374C201.078 44.0338 201.078 43.73 201.381 43.1227C201.381 42.5153 201.381 42.2116 201.381 41.6043V41.6043H201.683ZM190.193 0.607353C189.891 0.303672 189.588 0.303681 189.286 0C188.681 0 188.076 1.85307e-05 187.472 0.303699C186.867 0.60738 186.262 0.911071 186.262 1.21475C186.262 2.12579 185.96 3.03682 185.657 3.94786C185.355 5.16258 185.053 6.3773 184.448 7.59202C183.843 8.80675 183.541 10.0215 182.936 11.2362C182.331 12.7546 181.726 14.5767 181.122 16.0951C180.517 17.6135 179.912 19.1319 179.308 20.6503C179.005 21.2577 178.703 22.4724 178.098 23.6871C177.493 24.9018 177.191 26.4203 176.586 27.635C175.981 28.8497 175.377 30.3681 175.074 31.5828C174.772 32.7976 174.167 34.0123 173.865 34.9233C173.865 35.227 173.562 35.5307 173.562 35.8344C173.562 36.138 173.26 36.4417 172.958 36.4417V36.7454C172.958 36.7454 172.958 36.7454 173.26 36.7454C172.655 38.8712 171.748 41.3006 171.143 43.4264C170.539 45.5521 169.934 48.2853 169.329 50.7147C169.027 51.3221 169.027 52.2331 168.724 53.1442C168.422 54.0552 168.422 54.9663 168.422 55.8773C168.422 56.181 168.724 56.4846 168.724 56.7883C169.027 57.092 169.027 57.092 169.329 57.3957C169.632 57.3957 169.934 57.3957 170.236 58.0031C170.236 58.3068 170.841 58.6104 171.143 58.6104C171.446 58.6104 171.446 58.3067 171.748 58.3067C171.748 58.003 172.051 58.0031 172.353 58.0031C172.353 56.7884 172.353 55.8773 172.655 54.9663C172.655 54.6626 172.958 54.3589 172.958 53.7515C173.26 52.5368 173.563 51.3221 173.865 50.4111C174.167 49.1963 174.47 48.2853 174.772 47.0705C176.284 42.819 177.493 38.8712 179.308 34.9233C180.819 30.9755 182.331 27.0276 184.145 23.3834C184.448 22.4724 184.75 21.5614 185.053 20.6503C185.355 19.7393 185.96 18.8282 186.565 17.9172C187.169 16.3988 187.774 14.8804 188.379 13.362C188.984 11.8436 189.588 10.0215 190.193 8.50308C190.193 7.89571 190.495 7.28835 190.798 6.98467C191.1 6.68099 191.1 6.07363 191.403 5.46627C191.705 5.16258 191.705 4.85889 192.007 4.55521C192.31 4.25153 192.31 3.64419 192.31 3.34051C192.31 2.73315 192.31 2.42946 192.31 2.42946C192.31 2.12578 192.007 2.12578 191.705 1.8221C190.495 1.21474 190.193 0.911033 190.193 0.607353ZM155.42 38.8712C155.42 39.7822 155.118 40.997 154.815 42.2117C154.211 43.4264 153.908 44.6411 153.001 45.8558C152.396 47.0706 151.792 47.6779 151.792 48.2853L151.187 48.8926C150.28 49.8037 149.373 50.7147 148.465 51.3221C147.558 51.9295 146.349 52.5368 144.837 53.1442C144.535 52.2331 144.232 51.3221 144.535 50.4111C144.837 49.5 145.139 48.589 145.139 47.9816C145.139 47.6779 145.442 47.0705 145.744 46.1595C146.047 45.2484 146.651 44.6411 146.954 43.7301C147.256 42.819 147.861 42.2117 148.465 41.3006C149.07 40.6933 149.373 40.0859 149.675 39.7822C149.977 39.1749 150.28 38.8712 150.582 38.2638C150.884 37.9601 151.187 37.3527 151.489 37.0491L151.792 36.7454C152.094 37.0491 152.396 37.0491 152.699 37.0491C153.001 37.0491 153.303 37.0491 153.606 37.3528C154.815 37.6564 155.42 37.9601 155.42 38.8712ZM160.258 41.6043C160.258 41.6043 160.258 41.3006 160.258 40.9969C160.863 40.6932 161.468 40.6933 162.375 40.3896C163.282 40.0859 164.189 40.0859 165.096 39.7822C166.003 39.4785 166.91 39.4785 167.817 39.1749C168.725 39.1749 169.632 38.8712 170.539 38.8712C171.446 38.8712 172.353 38.8712 172.655 38.8712C172.958 38.8712 173.26 38.8711 173.562 38.5675C173.865 38.2638 173.865 38.2638 173.865 38.2638C174.167 38.2638 174.47 37.9601 175.074 37.9601C175.377 37.9601 175.679 37.6564 175.679 37.3528C175.679 37.0491 175.679 36.7454 175.377 36.4417C175.074 36.4417 175.074 36.4417 175.074 36.1381C175.074 36.1381 174.772 36.1381 174.47 36.1381C174.47 36.1381 174.47 36.1381 174.167 36.1381C174.167 36.1381 174.167 36.1381 173.865 36.1381C173.563 36.1381 173.562 36.1381 173.562 36.1381C172.958 35.8344 171.748 35.5307 170.539 35.5307C169.027 35.5307 167.515 35.5307 165.701 35.8344C163.887 35.8344 162.375 36.138 160.863 36.4417C159.351 36.7454 158.141 36.7454 157.537 37.0491L156.63 35.8344C156.63 35.8344 156.327 35.5307 156.025 35.5307C155.722 35.5307 155.42 35.227 155.118 35.227C154.815 35.227 154.513 34.9233 154.211 34.9233C153.908 34.9233 153.606 34.9233 153.606 34.9233H153.304H153.001C152.699 34.6196 152.094 34.6196 151.489 34.316C150.884 34.0123 150.582 33.7086 149.977 34.0123C149.373 34.0123 148.768 34.3159 148.465 34.9233C147.861 35.227 147.558 35.8343 146.954 36.4417C146.349 37.0491 146.047 37.6564 145.744 37.9601C145.139 38.5675 144.535 39.4785 143.93 40.3896C143.325 41.3006 142.72 42.2117 142.418 42.819C142.418 42.819 142.116 42.819 142.116 43.1227C142.116 43.1227 142.116 43.4264 141.813 43.4264L140.301 47.9816C140.301 48.2853 140.301 48.8926 139.999 49.1963C139.697 49.8037 139.697 50.1074 139.999 50.4111C139.697 50.4111 139.697 50.7147 139.697 51.0184C139.697 51.3221 139.697 51.6258 139.697 51.6258C139.697 52.5368 139.999 53.4479 140.604 54.0552C141.209 54.6626 141.813 55.2699 142.418 55.5736C143.023 55.8773 143.93 56.181 144.837 56.181C145.744 56.181 146.651 56.181 147.558 55.8773C148.163 55.8773 149.07 55.8773 149.977 55.2699C150.884 54.6626 151.792 54.0552 152.699 53.4479C153.606 52.8405 154.513 51.6258 155.722 50.4111C156.327 50.1074 156.629 49.5 156.932 48.5889C157.234 47.6779 157.839 47.0706 158.141 46.7669C158.444 46.4632 158.444 45.8558 158.746 45.5521C159.049 44.9448 159.049 44.6411 159.351 44.3374C159.653 44.0338 159.653 43.73 159.956 43.1227C159.956 42.5153 160.258 42.2116 159.956 41.6043V41.6043H160.258ZM132.44 57.6994V57.3957C132.44 57.092 132.44 57.092 132.137 57.092L131.835 56.7883L130.625 55.2699L130.021 54.0552L128.509 51.6258L127.299 49.5C126.997 48.8926 126.695 48.589 126.392 47.9816C126.09 47.3742 125.787 47.0706 125.485 46.4632C125.485 46.1595 125.183 46.1595 125.183 45.8558C125.787 45.2485 126.695 44.3374 127.602 43.7301C128.509 43.1227 129.416 42.2116 130.323 41.6043L131.533 40.6933L133.347 39.4785L135.161 37.9601L136.673 36.7454L137.58 36.1381L138.487 35.5307C138.789 34.6196 138.789 34.0123 138.487 33.4049C138.185 32.7975 137.58 32.4938 136.975 32.4938H136.673C136.673 32.4938 136.673 32.4938 136.37 32.4938C136.068 32.4938 136.068 32.4938 135.766 32.4938L133.044 34.0123L132.44 34.6197L128.811 37.6565C127.904 38.5675 126.997 39.1748 125.787 40.0859C124.88 40.9969 123.973 41.6043 123.066 42.5153C121.857 40.3896 120.647 38.2638 119.135 36.4417L117.926 34.9233C117.321 34.0123 116.414 32.7976 115.809 31.5828C115.507 31.2792 115.204 30.9754 114.6 30.9754C113.995 30.9754 113.693 31.2791 113.39 31.8865C113.088 32.4939 113.088 32.7976 113.088 33.1012C113.088 33.4049 113.088 33.7086 113.088 34.0123C113.088 34.3159 113.088 34.316 113.088 34.6197V34.9233C113.39 35.5307 113.693 36.138 113.995 36.7454C114.297 37.3528 114.6 37.9601 114.902 38.5675L115.507 39.1749L116.111 40.6933C116.414 41.3006 116.716 42.2116 117.321 43.1227C117.623 44.0337 118.228 44.6411 118.531 45.5521L117.926 46.1595C116.111 47.6779 114.297 49.5 112.483 51.0184C110.669 52.8405 108.855 54.9662 106.436 57.6994C106.436 58.0031 106.435 58.0031 106.133 58.0031L104.924 59.5215L104.319 60.1288C104.319 60.1288 104.016 60.4325 104.016 60.7362C104.016 61.0399 104.016 61.0399 104.016 61.3435C103.714 61.9509 103.714 62.2546 104.016 62.5583C104.319 62.862 104.621 62.8619 104.924 62.8619C105.226 62.8619 105.528 62.862 105.528 62.5583L106.133 62.2546L107.343 61.0399L108.25 59.8251L108.552 59.5215L109.157 58.9141V58.6104V58.3067L109.459 58.0031L109.762 57.6994L120.647 48.2853C120.949 48.589 121.252 48.8926 121.252 48.8926C121.554 49.5 121.856 49.8037 122.159 50.1074C122.461 50.411 122.461 50.7147 122.764 50.7147C123.066 51.0184 123.368 51.0184 123.368 51.6258C123.671 51.9294 123.671 52.2331 123.973 52.5368L124.276 52.8405L124.578 53.1442L124.88 53.4479L125.485 54.0552H125.787L126.694 55.2699L128.206 56.7883L130.625 58.9141C130.625 58.9141 130.928 58.9141 130.928 58.6104H131.23H131.533C131.533 58.3067 131.533 58.3068 131.533 58.0031H131.835L132.44 57.6994ZM99.1785 29.7607C99.1785 30.0644 98.8762 30.3681 98.8762 30.9754C98.8762 31.2791 98.8762 31.5828 98.8762 31.8865C98.8762 32.1902 99.1785 32.4938 99.4808 32.4938C99.7832 32.4938 99.7832 32.4938 100.086 32.4938H100.388C100.69 32.1902 100.993 32.1902 101.295 31.8865C101.598 31.5828 101.9 31.5828 102.202 31.2791H102.505C102.505 31.2791 102.505 31.2791 102.807 31.2791C102.807 30.9755 102.807 30.9755 103.109 30.6718C103.412 30.3681 103.412 30.3681 103.412 30.0644C103.714 30.0644 103.714 30.0644 103.714 29.7607C103.714 29.4571 103.714 29.457 104.016 29.457V29.1534C104.016 29.1534 104.016 29.1534 104.016 28.8497C104.621 28.546 104.924 28.2423 104.924 27.3313C104.924 26.7239 104.924 26.1166 104.621 25.5092C104.621 25.5092 104.621 25.5092 104.319 25.5092H104.016C103.714 25.2055 103.412 24.9018 102.807 25.2055C102.202 25.5092 101.9 25.8129 101.295 26.1166C100.69 26.4203 100.388 27.0276 100.086 27.635C99.7832 28.2423 99.4808 28.546 99.4808 28.546C99.4808 28.8497 99.4809 29.1534 99.1785 29.7607ZM95.8525 49.8037C96.1549 49.1963 96.4572 48.5889 96.7596 47.6779C97.062 46.7669 97.6666 45.8558 97.969 44.9448C98.5737 44.0337 98.8761 43.1227 99.4808 42.2117C99.4808 42.2117 99.7833 42.2117 99.7833 41.908C99.7833 41.6043 99.7832 41.6043 100.086 41.6043C100.086 41.3006 100.388 40.9969 100.388 40.9969C100.388 40.6932 100.388 40.6933 100.69 40.3896C100.993 39.7822 100.993 39.4785 100.993 39.1749C100.993 38.8712 101.295 38.5675 100.993 38.2638C100.993 37.9601 100.993 37.6564 100.993 37.3528C100.993 37.0491 100.69 36.7454 100.69 36.7454C100.388 36.4417 100.388 36.4417 100.086 36.1381C99.7832 36.1381 99.7832 36.1381 99.4808 36.1381C99.1785 35.8344 98.8761 35.8344 98.5738 36.1381C98.2714 36.1381 97.6666 36.4417 97.0619 36.7454C96.1548 37.9601 95.5501 39.1749 94.6429 40.6933C93.7358 42.2117 93.131 43.4264 92.5263 44.9448C92.2239 45.5521 92.2239 45.8558 91.9215 46.4632C91.6191 47.0706 91.3169 47.3742 91.3169 47.9816C91.3169 48.589 91.0145 48.8926 90.7121 49.5C90.4097 49.8037 90.4097 50.411 90.1073 50.7147C89.805 51.6257 89.5025 52.5368 89.5025 53.1442C89.2002 53.7515 89.2002 54.6626 89.5025 55.2699C90.1073 55.8773 90.7121 56.4847 91.3169 56.4847C91.9216 56.7884 92.8287 56.7883 93.7358 56.7883C94.0382 56.7883 94.0381 56.7883 94.0381 56.7883C94.0381 56.7883 94.3406 56.7884 94.3406 56.4847C94.643 56.7884 95.5501 56.4847 96.7596 55.5736C97.9691 54.9663 99.1786 54.0552 100.388 53.1442C101.9 52.2331 103.109 51.3221 104.319 50.4111C105.528 49.5 106.435 48.8926 107.04 48.8926C107.645 48.589 108.552 48.2853 109.157 47.6779C109.762 47.3742 110.669 46.7669 110.971 46.4632C111.576 46.1595 112.181 45.8558 112.785 45.5521C113.39 45.2485 113.692 44.6411 114.297 44.3374L114.902 43.7301C115.204 43.4264 115.507 43.1227 115.507 42.819C115.507 42.819 115.507 42.819 115.204 42.819C115.204 42.819 115.204 42.819 114.902 42.819C114.902 42.5153 114.902 42.5153 114.902 42.819C114.902 43.1227 114.902 43.1227 114.6 43.1227C113.995 43.1227 113.39 43.4264 112.785 43.7301C112.181 44.0338 111.878 44.3374 111.273 44.6411C110.971 44.9448 110.669 44.9448 110.064 45.2485C109.459 45.5522 108.854 45.5522 108.552 45.8558C107.04 46.4632 105.528 47.0705 104.016 47.6779C102.505 48.2853 100.993 49.1963 99.7833 49.5C98.5738 50.1074 97.3643 50.411 96.7596 50.7147C95.8525 51.0184 95.5501 51.0184 95.2477 51.0184C95.5501 50.7147 95.5501 50.4111 95.8525 49.8037ZM78.3147 56.181C79.2218 53.1442 80.129 49.8037 81.0361 46.4632C81.9432 43.1227 82.8504 40.0859 83.7576 37.0491C84.6647 34.0123 85.5718 31.5828 86.1765 29.457C86.7813 27.635 87.3859 25.8129 87.9907 23.9908C88.5954 22.1687 89.2003 20.3466 89.805 18.2209C90.4098 16.7025 90.7121 15.4877 91.3169 13.9693C91.9216 12.4509 92.224 11.2362 92.8288 9.71778C92.8288 9.11042 93.131 8.80674 93.4334 8.19938C93.7357 7.59201 93.7358 6.98465 93.7358 6.68097C93.7358 6.37729 93.131 6.07363 92.5263 5.46627C91.9215 4.8589 91.6193 4.55521 91.3169 4.55521C90.7121 4.25153 90.4098 4.25153 89.805 4.55521C89.2003 4.55521 88.8979 4.85891 88.2932 4.85891C87.386 5.76996 86.4788 6.37731 85.5717 6.98467C84.6646 7.59203 83.7574 8.19941 82.8503 8.80677C81.9432 9.41414 81.0362 10.0215 80.129 10.9325C79.2219 11.5399 78.3147 12.4509 77.4076 13.0583C73.1744 16.7025 68.9411 20.3466 64.7079 24.2945C60.777 28.2423 56.5439 32.1902 52.9154 36.1381C52.0083 36.7454 51.4036 37.6564 50.4964 38.5675C49.8917 39.4785 48.9844 40.0859 48.0773 40.6933C48.9844 37.9601 49.8916 34.9233 50.7987 32.1902C51.7059 29.4571 52.6131 26.4202 53.5202 23.3834C54.4273 21.2577 55.032 19.1319 55.9391 17.3098C56.8463 15.4877 57.451 13.0583 58.0558 10.9325C58.3582 10.3252 58.358 9.41414 58.6604 8.80677C58.9628 7.89573 58.9628 7.28833 59.2652 6.68097C59.2652 5.16257 58.9628 4.25152 57.7533 3.64416C56.8462 3.0368 55.9392 2.42947 55.032 1.8221C54.7297 1.8221 54.1249 1.5184 53.8225 1.5184C53.5201 1.5184 52.9153 1.21475 52.6129 1.21475C52.0082 1.21475 51.7059 1.21475 51.4035 1.21475C51.1012 1.51843 50.4963 1.51842 50.194 1.8221C49.8916 1.8221 49.5892 2.12578 49.5892 2.42946C49.2868 2.73314 49.2869 3.03683 48.9846 3.34051C48.6822 3.64419 48.3797 3.94788 48.0773 4.25156C47.7749 4.55524 47.4726 4.85889 47.1702 5.16257C41.1227 10.6288 35.6801 16.7025 30.8422 22.7761C26.0042 29.1534 21.166 35.5307 16.3281 42.2117C13.9091 45.5522 11.4901 49.1963 9.37351 52.8405C7.25689 56.4847 4.83787 60.1288 2.72125 64.0767C2.11651 64.6841 1.81421 65.5951 0.907084 66.2024C0.302337 67.1135 0 67.7209 0 68.6319C0 69.2393 0.302411 69.8466 0.604784 70.454C0.907158 71.0613 1.51191 71.365 2.11665 71.9724C2.7214 72.276 3.62837 72.5797 4.23312 72.8834C4.83787 73.1871 5.74503 73.1871 6.34977 72.8834C7.86164 72.5797 9.07125 71.9724 9.676 70.454C9.97837 69.5429 10.2806 68.9356 10.2806 68.0246C10.2806 67.1135 10.583 66.2025 10.8854 65.5951C11.1878 64.0767 11.7926 62.8619 12.6997 61.3435C14.2116 58.6104 15.7235 55.8773 17.2353 53.4479C18.7472 51.0184 20.259 48.2853 22.0732 45.8558C23.5851 43.4264 25.3994 40.6932 27.2136 38.5675C29.0279 36.138 30.8422 33.7086 32.354 31.5828C35.0754 27.9387 37.7967 24.5982 40.8204 21.2577C43.8442 17.9172 46.5654 14.5767 49.5892 11.5399C48.9844 14.8804 48.0773 18.2209 47.1702 21.2577C46.2631 24.2945 45.3561 27.635 44.449 30.6718C44.1466 32.1902 43.5418 33.7086 43.2394 35.227C42.937 36.7454 42.3323 38.5675 41.7275 40.0859C41.4252 40.6932 41.1227 41.6043 41.1227 42.5153C41.1227 43.4264 40.8203 44.0337 40.518 44.9448C40.2156 45.8558 40.2157 46.7669 39.9134 47.6779C39.9134 48.5889 39.6109 49.5 39.6109 50.4111C39.6109 50.7147 39.6109 51.0184 39.6109 51.3221C39.6109 51.6258 39.6109 51.9294 39.6109 52.2331C39.6109 52.5368 39.9133 52.5368 40.2157 52.8405C40.518 53.1442 41.1229 53.1442 41.4252 53.1442C41.7276 53.1442 42.3324 53.1442 42.9371 53.4479C43.5418 53.4479 43.8441 53.4479 44.1465 53.4479C44.7512 53.1442 45.0536 52.8405 45.6584 52.2331C46.2631 51.6257 46.5655 51.0184 46.8679 50.4111C48.0774 48.8926 49.2869 47.3742 50.4964 46.1595C51.7059 44.6411 52.9153 43.4264 54.1248 42.2117C58.358 37.6565 62.5913 33.1012 66.8245 28.8497C71.0577 24.5982 75.5933 20.3466 80.4313 16.7025C81.3385 15.7914 82.5479 15.184 83.4551 14.273C84.3622 13.362 85.2693 12.7546 86.4788 12.1472C85.5717 15.7914 84.6646 19.4356 83.4551 22.7761C82.2456 26.1166 81.036 29.4571 79.8265 33.1012C79.2218 34.6197 78.6171 36.7454 78.0124 39.4785C77.4076 42.2116 76.5005 44.9448 75.5934 47.9816C74.6863 51.0184 74.0815 54.0552 73.4768 56.7883C72.872 59.5215 72.2673 61.9509 71.9649 63.773C71.9649 64.3804 71.6626 64.9877 71.6626 65.5951C71.6626 66.2025 71.6625 66.5061 71.9649 67.1135C72.2673 68.6319 73.1745 69.2393 74.6863 69.543C75.2911 69.543 75.8958 69.5429 76.1982 69.2393C76.5006 68.9356 76.8029 67.7209 77.1053 65.5951C76.8029 61.6472 77.4076 59.2178 78.3147 56.181Z" fill="#AB8D60"/>
<rect y="79" width="275" height="2" fill="#AB8D60"/>
</svg>
