<svg width="183" height="99" viewBox="0 0 183 99" fill="none" xmlns="http://www.w3.org/2000/svg">
<path d="M156.292 65.8939L157.558 64.939C158.191 64.6206 158.824 64.3023 159.774 63.984C160.723 63.6656 161.99 63.029 163.889 62.074L165.155 61.7557C164.522 62.7107 163.572 63.6656 162.623 64.6206C161.673 65.5756 160.407 66.5306 158.508 67.8039L155.975 69.0772C155.659 69.0772 155.342 69.3955 154.709 69.7139C154.076 70.0322 153.443 70.3505 152.81 70.3505C152.177 70.6689 151.86 70.6688 151.227 70.6688C150.911 70.6688 150.911 70.6689 150.911 70.3505C150.911 70.0322 151.227 70.0322 151.544 69.3955C151.86 69.0772 152.177 68.7589 152.81 68.4405C153.126 68.1222 153.443 67.8039 154.076 67.1672C155.342 66.5306 155.975 66.2122 156.292 65.8939ZM177.817 53.4791L171.169 55.3891L170.536 55.7074C170.536 55.7074 170.536 55.7074 170.22 55.7074H169.903C169.903 55.7074 169.903 55.7074 169.587 55.7074V55.3891C169.587 55.3891 169.27 55.0707 168.637 54.7524C168.004 54.4341 167.687 54.1158 166.738 54.1158C166.105 54.1158 165.472 53.7975 164.838 53.7975C163.889 53.7975 162.623 53.7975 161.673 53.7975C160.407 53.7975 159.457 54.1158 158.824 54.1158C157.874 54.4341 157.242 54.4341 155.975 54.7524C156.608 54.1158 157.242 53.4791 158.191 52.8425L159.141 52.2058L160.723 50.9325L161.673 50.2958C162.306 49.9775 162.939 49.6592 163.889 49.3409C164.838 49.0225 165.472 48.7042 166.105 48.0676C166.421 48.0676 166.738 47.7492 167.054 47.4309C167.371 47.1126 167.371 47.1126 167.371 47.4309C167.687 47.4309 168.004 47.1125 168.32 46.7942H168.637L169.587 46.1576C169.903 46.1576 169.903 45.8393 170.22 45.5209C170.22 45.2026 170.22 44.8843 169.903 44.2476C169.586 44.2476 169.27 43.9293 168.637 43.9293C168.32 43.611 167.687 43.6109 167.371 43.6109L166.738 43.9293C165.788 43.9293 164.838 44.2476 163.889 44.5659C162.939 44.8843 161.99 45.5209 161.04 45.8393C160.09 46.4759 159.141 47.1126 158.508 47.7492C157.558 48.3859 156.925 49.0225 155.975 49.3409L155.659 49.6592C154.709 50.6142 154.076 51.2508 153.443 51.8875C152.81 52.5241 152.493 52.8425 152.177 53.4791C152.177 53.7975 151.86 53.7974 151.86 54.1158C151.544 54.4341 151.544 54.7524 151.544 55.0708C151.544 55.3891 151.544 55.7074 151.86 56.3441C152.177 56.6624 152.493 57.2991 152.81 57.6174C152.81 57.6174 153.126 57.6174 153.126 57.9357C153.443 57.9357 153.443 57.9357 153.76 57.9357C154.709 57.9357 155.342 57.9357 155.975 57.9357C156.608 57.9357 157.241 57.6174 157.875 57.6174C159.141 57.2991 160.407 56.9808 161.99 56.9808C163.256 56.9808 164.522 56.9808 165.472 56.9808H165.788C166.421 56.6624 166.738 56.9808 166.105 56.9808C165.472 57.2991 164.522 57.6174 163.256 58.254C161.99 58.8907 160.407 59.5273 158.508 60.4823C156.608 61.4373 155.026 62.3923 153.443 63.3473C151.86 64.3023 150.594 65.5756 149.328 66.8489C148.062 68.1222 147.745 69.3955 147.745 70.3505C147.745 71.3055 148.062 71.9421 148.378 72.2605C148.695 72.8971 149.644 73.2155 150.911 73.2155C151.544 73.2155 152.177 73.2155 153.126 72.8972C154.076 72.5788 155.342 72.2605 156.608 71.6238C156.925 71.3055 157.558 71.3055 158.191 70.6688C158.824 70.3505 159.457 69.7139 160.09 69.3955C160.723 69.0772 161.673 68.1222 162.939 67.1672C163.889 66.2123 165.155 65.2573 166.738 63.984L167.371 63.6656C167.687 63.3473 168.32 62.7106 168.637 62.074C168.954 61.4373 169.903 60.164 170.536 58.254H170.853H171.169C171.169 58.254 171.802 58.254 172.752 57.9357C173.702 57.6174 174.651 57.2991 175.601 56.9808C176.551 56.6624 177.817 56.3441 178.766 56.0258C179.716 55.7074 180.666 55.3891 181.299 55.0708C181.932 55.0708 182.565 54.7524 182.881 54.1158C183.198 53.7974 182.881 53.1608 181.932 52.5241H180.665H180.349H179.716C179.399 52.5241 179.399 52.8425 179.083 52.8425C178.766 52.8425 178.766 52.8425 178.45 52.8425C178.133 53.4791 178.133 53.4791 177.817 53.4791ZM154.709 42.3376C154.709 42.0193 154.709 42.0193 155.026 42.0193C155.342 42.0193 155.342 41.701 155.342 41.701C155.342 41.3827 155.026 41.0644 155.026 41.0644C155.026 41.0644 155.026 41.0644 154.709 41.0644C154.393 41.0644 154.076 41.0644 153.76 41.0644C151.86 42.3377 150.278 43.9293 149.011 45.8393C147.745 47.7492 146.163 49.3409 144.896 51.2508C143.63 52.8425 142.681 54.1158 142.047 54.7524C141.414 55.3891 141.098 56.0257 140.781 56.3441C140.465 56.6624 140.465 56.6624 140.465 56.6624C140.465 56.6624 140.148 56.9808 139.832 56.9808C139.515 57.2991 139.199 57.6174 138.566 58.254C137.933 58.8907 136.983 59.8457 135.717 61.4373C135.4 61.7557 134.767 61.7556 134.451 61.119C134.134 60.4823 133.501 59.8457 133.184 58.8907C132.551 57.9357 132.235 56.6624 131.602 55.3891C130.969 54.1158 130.652 52.8425 130.019 51.8875C129.702 50.9325 129.069 49.9775 128.753 49.3409C128.436 48.7042 127.803 48.3859 127.487 48.7042C126.854 48.7042 126.537 48.3859 126.537 48.3859C126.537 48.3859 126.221 48.0676 125.904 48.0676C125.587 48.0676 125.271 48.0676 124.954 48.0676C124.638 48.0676 124.321 48.0676 124.321 48.0676C123.688 48.3859 123.055 49.0225 122.739 49.6592C122.422 50.2959 121.789 50.9325 121.472 51.5691C119.89 53.4791 118.307 55.3891 117.041 57.2991C115.775 59.209 114.192 61.119 112.609 62.7106C112.609 61.4373 112.609 60.164 112.926 58.8907C113.242 57.6174 113.559 56.3441 113.876 55.3891C114.192 54.4341 114.825 53.1608 115.142 51.8875C115.458 50.6142 116.091 49.6592 116.408 48.7042C116.408 48.3859 116.724 48.3859 116.724 48.0676C117.041 47.7492 117.041 47.4309 117.041 47.1126C117.357 46.1576 117.041 45.2026 116.091 44.5659C115.142 43.9293 114.508 43.2926 113.559 42.9743C112.926 42.9743 112.293 42.9743 111.976 42.9743C111.66 42.9743 111.343 43.2926 111.343 43.2926C111.343 43.2926 111.343 43.611 111.027 44.2476C110.71 44.8843 111.027 44.8843 111.027 45.5209C110.71 46.4759 110.71 47.4309 110.393 48.3859C110.077 49.3408 109.76 50.6142 109.444 51.5691C109.127 52.5241 108.811 53.7974 108.494 54.7524C108.178 55.7074 108.178 56.6624 108.178 57.6174C108.178 58.5724 107.861 59.5273 107.861 60.4823C107.861 61.4373 107.861 62.3923 108.178 63.6656C108.178 63.9839 108.178 64.3023 108.178 64.6206C108.178 64.9389 108.178 65.2573 108.178 65.5756C108.494 66.5306 108.811 67.1672 109.127 67.4855C109.444 67.8039 110.077 68.1222 111.027 68.4405C112.926 68.7589 113.875 68.7589 114.825 68.1222C115.775 67.4856 116.091 66.8489 117.041 66.2122C117.991 65.5756 118.94 64.6206 120.206 63.3473C120.839 62.7107 121.156 62.074 121.472 61.4373C121.789 60.8007 122.105 60.164 122.422 59.8457C123.055 59.209 123.372 58.5724 124.005 57.9357C124.638 57.299 124.954 56.6624 124.954 56.0258C125.271 55.7074 125.271 55.3891 125.587 55.0708C125.904 54.7524 125.904 54.4341 126.537 54.4341C126.854 55.7074 127.17 57.2991 127.487 58.8907C127.803 60.4823 128.436 61.7557 129.386 63.029C129.386 63.3473 129.703 63.3473 129.703 63.6656C129.703 63.9839 130.019 64.3023 130.335 64.6206C130.652 64.9389 130.652 65.2573 130.969 65.5756C131.285 65.8939 131.602 66.2122 131.602 66.2122C133.184 66.8489 134.451 67.4855 135.4 67.4855C136.35 67.4855 136.983 67.4856 137.616 67.1672C138.249 66.8489 138.882 66.2123 139.515 65.5756C140.148 64.9389 140.781 64.3023 141.731 63.3473C142.364 62.7107 143.314 61.4373 144.263 60.164C145.213 58.8907 146.163 57.2991 147.112 56.0258C148.062 54.4341 149.011 52.8425 150.278 51.2508C151.227 49.6592 152.177 48.3859 153.126 46.7942C153.443 45.8392 154.076 45.2026 154.393 44.5659C155.026 43.9293 155.342 43.2926 155.659 42.656C155.342 42.3377 155.026 42.3376 154.709 42.3376ZM90.135 49.0226C91.7177 47.4309 93.9333 46.1576 96.1491 45.5209C96.1491 45.8393 96.1492 45.8393 95.8327 45.8393C94.883 47.1126 93.6168 48.3859 92.3506 49.6592C91.0844 50.9325 89.8184 51.8875 88.5523 53.1608C87.9192 53.4791 87.6027 53.7974 86.9696 54.1158C86.3365 54.4341 86.0199 54.4341 85.3869 54.4341C86.653 52.5242 88.2357 50.6142 90.135 49.0226ZM98.9981 61.119C99.3146 60.8007 99.9476 60.4824 100.897 60.164C101.847 59.5274 102.797 59.2091 103.746 58.5724C104.696 57.9357 105.645 57.2991 106.912 56.6624C107.861 56.0258 108.811 55.3891 109.444 55.0708C109.76 54.7524 110.393 54.4341 110.393 54.4341C110.71 54.1158 111.027 54.1158 111.027 53.7975C111.343 53.7975 111.343 53.4791 111.343 53.4791C111.66 53.1608 111.976 52.8425 112.293 52.2058C112.609 51.8875 112.926 51.5692 113.242 51.2508C113.559 50.9325 113.559 50.6142 113.559 50.2958C113.559 49.9775 113.242 49.9775 112.609 49.9775C112.609 49.9775 112.609 49.9775 112.293 49.9775H111.976C111.343 49.9775 111.027 50.2958 110.71 50.2958C110.394 50.6142 110.077 50.6142 109.76 50.9325C108.811 51.5691 107.861 51.8875 106.912 52.5241C105.962 53.1608 104.696 53.4791 103.746 54.1158C102.48 54.7524 101.53 55.3891 100.581 55.7074C99.6311 56.0257 98.9981 56.6624 98.0485 56.9808C97.4154 57.2991 96.4656 57.6174 95.516 58.254C94.5664 58.5724 93.6168 59.209 92.3506 59.8457C91.7175 60.164 91.0845 60.4823 90.4514 60.4823C89.8184 60.8007 88.8687 60.8007 88.2356 61.119C87.286 61.4373 86.3365 61.7556 85.3869 62.074C84.4372 62.3923 83.1711 62.7106 82.2215 62.3923C81.5884 62.074 81.5882 61.4373 81.2717 60.8007C81.2717 60.164 81.2718 59.5273 81.5883 58.8907C81.9049 58.254 82.2214 57.6174 82.5379 56.9808C82.8545 56.3441 83.1711 56.0258 83.8042 55.3891C84.7538 55.3891 86.0199 55.3891 86.9696 55.3891C87.9192 55.3891 88.8688 54.7524 89.5019 54.4341C92.0342 52.8425 94.5664 50.6142 97.0987 48.3859C97.0987 48.0675 97.4153 47.7492 97.7318 47.4309C98.0484 47.1126 98.3649 46.7942 98.6814 46.4759C98.998 46.1576 98.9981 45.8393 99.6312 45.5209C100.264 45.2026 100.264 44.8843 100.264 44.5659C100.264 43.9293 99.9476 42.9743 99.3145 42.3376C98.6815 41.701 97.0989 41.0644 94.8831 41.0644C94.5665 41.0644 94.25 41.0643 94.25 41.3826C93.9334 41.3826 93.9334 41.701 93.6168 41.701C92.9838 42.0193 92.3506 42.3377 91.401 42.656C90.7679 42.9743 89.8183 43.2926 89.1852 43.9293C87.6025 44.8843 86.3365 45.8393 84.7537 47.4309C83.171 49.0226 81.9049 50.2958 80.6388 51.8875C80.6388 52.2058 80.3221 52.5242 80.3221 52.8425C80.0056 53.1608 80.0055 53.4791 79.689 53.7975C79.3724 54.4341 79.0559 55.3891 78.7394 56.0258C78.4229 56.9807 78.1064 57.6174 77.7898 58.5724C77.4733 59.5274 77.4734 60.164 77.4734 61.119C77.4734 62.074 77.7897 62.7107 78.1063 63.3473C78.7394 64.3023 79.3725 64.6206 80.3221 65.2573C81.2717 65.5756 82.2214 65.8939 83.171 65.8939C84.1207 65.8939 85.0702 65.8939 86.0198 65.5756C86.9694 65.2573 87.9192 65.2573 88.5523 64.939C89.1854 64.6206 89.8184 64.6206 90.4514 64.3023C91.0845 64.3023 91.7176 63.9839 92.0341 63.6656L98.9981 61.119ZM53.7328 78.627C54.6824 79.582 55.3155 79.9004 56.2651 79.9004C56.8982 79.9004 57.5312 79.2637 58.1643 78.3087C58.7974 77.3537 59.4304 76.0804 59.747 74.8071C60.3801 73.5338 60.6966 72.2605 61.3297 70.6688C61.9628 69.0772 62.596 68.1222 63.229 66.8489C64.8117 63.9839 66.3943 61.119 67.6605 58.254C68.9266 55.3891 70.1928 52.5242 71.7755 49.6592C73.6747 46.1576 74.941 43.611 75.8907 41.701C76.8403 39.791 77.4732 38.5177 78.1063 37.5627C78.7394 36.6077 79.0561 35.9711 79.0561 35.6527C79.3726 35.3344 79.6891 34.6977 80.0056 34.0611C80.3222 33.4244 80.9552 32.4695 81.9048 31.1962C82.8544 29.9228 84.1206 27.6946 86.0198 24.8296C86.0198 24.5113 86.3365 24.5113 86.3365 24.5113C86.3365 24.5113 86.6529 24.1929 86.6529 23.8746C86.3364 23.8746 86.3363 24.1929 86.0198 24.5113C86.0198 24.8296 85.7033 25.1479 85.7033 25.1479C86.9695 23.238 88.2357 21.328 89.5019 19.418C90.768 17.5081 92.0341 15.5981 93.6168 14.0065V13.6881C93.6168 13.6881 93.6168 13.6881 93.6168 13.3698C96.4657 10.1865 98.3649 7.63988 99.9477 5.72991C101.214 3.81995 102.164 2.54662 102.797 1.59164C103.43 0.636656 103.43 0.318328 103.113 0C102.797 0 102.48 0 101.847 0C101.214 0.318328 100.581 0.636666 99.9477 0.954994C99.3146 1.27332 98.998 1.59166 98.6814 1.90999C98.3649 2.22832 98.0484 2.54665 97.7318 2.86498C97.4153 3.18331 97.0988 3.5016 96.7822 3.81993C96.4657 4.13826 96.1492 4.45659 95.8327 4.77492C95.5161 5.09325 95.1996 5.41161 94.8831 6.04826C92.3508 9.23154 89.8184 12.4148 87.286 15.5981C84.7537 18.7814 82.8545 22.283 80.6388 25.4662C79.0561 27.6945 78.1063 29.6045 77.1567 30.8778C76.2071 32.4695 75.2575 33.7428 74.6244 34.6978C73.9913 35.6528 73.3583 36.6077 72.7252 37.5627C72.0922 38.5177 71.7756 39.4727 71.1425 40.746C70.5095 42.0193 69.8763 43.2926 68.9267 44.5659C67.9771 46.1576 67.0275 48.0675 65.7613 50.2958C64.1786 53.4791 62.5959 56.6624 61.0132 59.8457C59.4305 63.029 58.1644 66.2122 56.8982 69.3955C56.5817 69.7139 56.5816 70.3505 56.2651 70.6688C55.9486 71.3055 55.9485 71.6238 55.632 71.9422L54.3657 67.4855C53.7327 64.9389 52.7831 62.3923 52.4666 59.8457C51.8335 57.2991 51.2005 54.7525 50.5674 52.2058C49.9343 49.6592 49.3013 47.4309 48.9847 45.5209C48.6682 43.2926 48.035 41.0643 47.7185 38.836C47.4019 37.2444 47.0854 35.6528 46.7689 34.3794C46.4523 32.7878 46.4522 31.5145 46.4522 29.9229C46.4522 28.9679 46.1358 28.0129 46.1358 27.0579C45.8192 25.7846 45.8192 24.8296 45.5027 23.8746C45.5027 23.5563 45.5027 23.238 45.5027 22.6013C45.5027 22.283 45.5027 21.9646 45.1862 21.6463C45.1862 21.328 44.8696 21.328 44.5531 21.328C44.2365 21.328 44.2365 21.328 43.9199 21.0097C43.9199 21.0097 43.6034 21.0097 43.2868 20.6913C42.9703 20.6913 42.9704 20.373 42.6539 20.373C42.0208 20.6914 41.3877 20.6914 41.0712 20.373C40.7547 20.0547 40.1216 20.0547 39.4885 20.0547C38.8554 20.373 38.2223 20.373 37.9058 20.373C37.2727 20.373 36.9561 20.6913 36.6396 21.328L36.3231 22.6013L35.69 23.5563C35.0569 24.5113 34.4237 25.7846 33.7906 26.7396C33.1575 27.6946 32.5245 28.9679 31.8915 29.9229C29.6757 33.7428 27.46 37.881 25.2442 42.0193C23.0284 46.1576 20.8125 50.2958 18.5967 54.1158C18.2802 54.4341 17.9636 55.0708 17.9636 55.3891C17.6471 55.7074 17.6472 56.0257 17.3307 56.3441C17.0141 57.299 16.6974 57.9357 16.3809 58.8907C16.0644 59.8457 15.7478 60.4823 15.4313 61.119C15.1148 61.119 15.1148 61.4373 15.1148 61.7557C15.1148 62.074 15.1147 62.074 14.7982 62.3923C14.4816 63.029 14.1651 63.984 13.8486 64.6206C13.5321 65.2573 13.2156 66.2122 12.899 66.8489C12.5825 67.4856 12.266 68.1222 11.9494 69.0772C11.6329 69.7138 11.3164 70.6689 10.9999 71.3055C9.41716 74.1705 8.15084 77.3537 6.88468 80.2187C5.61852 83.0836 4.35251 85.9486 3.08635 89.1319L1.18699 93.5885C0.870448 94.5435 0.553946 95.1801 0.237405 96.1351C-0.0791351 97.0901 -0.0791351 97.7268 0.237405 98.6818C0.237405 98.6818 0.553984 99 0.870525 99C1.18707 99 1.50364 99 1.50364 99C1.82018 99 2.13657 99 2.13657 99C2.13657 99 2.45323 99.0001 2.45323 98.6818C2.13669 98.6818 2.13657 98.6818 2.13657 98.6818C2.13657 98.6818 2.45323 98.6817 2.45323 98.3634C2.45323 98.0451 2.45315 98.3634 2.76969 98.3634C2.76969 98.3634 2.76969 98.3634 2.76969 98.6818C3.08623 98.3634 3.40273 98.3634 3.71927 98.6818C4.03581 99.0001 4.03585 99.0001 4.35239 98.6818V98.3634C4.35239 98.3634 4.35239 98.3634 4.35239 98.0451C4.66893 98.0451 4.98544 98.0451 5.30198 98.0451C5.61852 97.7267 5.93521 97.7267 6.25175 98.0451C6.25175 97.7267 6.56821 97.4084 6.56821 97.4084C6.56821 97.09 6.88479 97.0901 7.20133 96.7718C8.4675 93.5885 10.0501 90.4052 11.6328 87.2219C13.2155 84.0386 14.4817 81.1737 16.0644 77.9904C17.6471 74.4888 19.2298 71.3055 21.129 68.1222C22.7117 64.939 24.6111 61.7557 26.1938 58.254C26.5103 57.9357 26.5103 57.6174 26.8269 57.2991C27.1434 56.9807 27.1433 56.6624 27.1433 56.3441C29.3591 52.2058 31.5749 48.0675 34.1073 43.9293C36.6396 39.791 39.1719 35.9711 42.0208 32.1512C43.2869 36.6077 44.553 41.0644 45.5027 45.8393C46.4523 50.6142 47.7186 55.3891 48.9847 59.8457C49.6178 62.074 50.2508 63.984 50.8839 66.2122C51.517 68.4405 52.1501 70.6688 53.0997 72.5788C51.8335 76.0804 52.7832 77.672 53.7328 78.627Z" fill="#2C2E35"/>
<rect x="20" y="90" width="156" height="3" fill="#2C2E35"/>
</svg>
