<svg width="383" height="95" viewBox="0 0 383 95" fill="none" xmlns="http://www.w3.org/2000/svg">
<path d="M352.876 47.1613C353.184 46.2365 353.798 45.3118 354.106 44.6954C354.106 44.3871 354.413 44.0788 354.413 43.7706C354.413 43.4623 354.413 43.1541 354.721 42.5376C355.028 41.9211 355.335 41.6129 355.643 40.9964C355.95 40.3799 355.95 39.7634 355.643 39.1469C355.643 38.5304 355.028 38.2222 354.106 37.9139C353.184 37.6057 352.569 37.914 351.954 38.2222C351.647 38.2222 351.647 38.5304 351.339 38.8386C351.032 39.1469 351.032 39.1469 351.032 39.4552C351.032 39.7634 351.032 40.0716 350.725 40.3799C350.725 40.6881 350.725 41.3047 350.417 41.6129C350.417 41.9212 350.11 42.2294 349.802 42.5376C349.495 42.8459 349.495 43.1541 349.188 43.4623C348.266 45.62 347.343 47.7777 346.421 49.9354C345.499 52.0931 344.577 54.2509 343.962 57.0251C343.655 57.3333 343.655 57.9498 343.347 58.5663C343.347 59.1828 343.04 59.491 343.347 59.7993C343.347 60.4158 343.962 60.724 344.577 61.0322C345.192 61.3405 345.807 61.6487 346.421 61.3405C347.036 61.3405 347.958 60.4157 349.188 58.8745C350.417 57.3333 352.261 55.4838 354.413 53.3261C355.028 52.7097 355.643 52.0931 356.565 51.4767C357.18 50.8602 358.102 50.2437 358.717 49.9354C359.639 49.0107 360.868 48.086 361.79 47.1613C362.713 46.2365 363.942 45.3118 364.864 44.6954C365.172 44.3871 365.479 44.0788 366.094 43.7706C366.401 43.4623 367.016 43.1541 367.323 43.1541C367.323 43.7706 367.016 44.3871 367.016 45.3118C367.016 46.2365 366.709 46.8531 366.709 47.7778C366.709 48.086 366.401 48.7025 366.401 49.9354C366.094 50.8602 366.094 52.0931 365.786 53.0179C365.479 54.2509 365.479 55.1756 365.172 56.1003C364.864 57.025 364.864 57.6416 364.864 57.9498C364.864 58.5663 365.172 59.4911 365.786 60.1075C366.401 61.0323 367.016 61.3405 367.631 61.0322C367.938 61.0322 368.553 61.0322 369.168 61.0322C369.783 61.0322 370.397 61.0322 371.012 60.724C371.627 60.4157 372.549 60.1075 373.471 59.491C374.393 58.8745 375.008 58.5663 375.623 57.9498C376.237 57.3333 376.852 57.0251 377.16 57.0251C377.467 57.0251 377.467 56.7168 377.467 56.7168L377.774 56.4086C378.082 56.4086 378.389 55.7921 379.004 55.4839C379.311 55.1756 379.619 55.1756 379.926 54.8674C380.234 54.5591 380.541 54.2509 380.848 53.9427C381.77 53.6344 382.385 53.0179 382.693 52.4014C382.693 52.0932 383 51.7849 383 51.4767C383 51.1684 382.692 51.1685 382.078 50.8602C381.77 51.1685 381.463 51.4767 380.848 51.7849C380.234 52.0932 379.926 52.4014 379.311 52.7096C379.004 52.7096 378.697 52.7096 378.389 53.0179C378.082 53.3261 377.467 53.3262 377.16 53.9427C376.852 54.2509 376.237 54.5591 375.93 54.8674C375.315 55.1756 375.008 55.4839 374.701 55.4839L374.393 55.7921H374.086C373.778 55.7921 373.471 56.1003 372.856 56.4086C372.241 56.7168 371.627 57.0251 371.319 57.0251C371.012 57.0251 370.397 57.3333 369.782 57.6415C369.782 57.025 369.782 56.4086 369.782 55.1756C369.782 53.9426 370.09 53.0179 370.397 51.7849C370.705 50.5519 370.705 49.319 371.012 48.3942C371.319 47.1612 371.319 46.5448 371.319 45.9283C371.627 45.3118 371.627 44.3871 371.934 43.7706C372.241 43.1541 372.242 42.2294 372.242 41.6129C372.242 40.9964 371.934 40.6882 371.012 40.0717C370.397 39.7635 369.783 39.4552 369.168 39.4552C368.246 39.4552 367.323 39.7634 366.709 40.3799C365.786 40.9964 365.172 41.3046 364.249 41.9211C362.405 43.1541 360.561 44.3871 359.024 45.9283C357.487 47.4695 355.95 48.7025 354.413 50.2437C354.106 50.5519 353.798 50.8602 353.491 51.1684C353.184 51.4766 352.876 51.7849 352.262 51.7849C352.262 49.0107 352.569 48.086 352.876 47.1613ZM332.282 42.5376C332.282 43.4623 331.974 44.6953 331.667 45.9283C331.36 47.1613 330.745 48.3942 329.822 49.6272C329.208 50.8602 328.593 51.4767 328.286 52.0932L327.671 52.7096C326.749 53.6343 325.827 54.5591 324.904 55.1756C323.982 55.7921 322.753 56.4086 321.216 57.0251C320.908 56.1004 320.601 55.1756 320.908 54.2508C321.216 53.3261 321.523 52.4014 321.523 51.7849C321.523 51.4767 321.831 50.8602 322.138 49.9354C322.445 49.319 323.06 48.3943 323.368 47.4695C323.982 46.5448 324.29 45.9283 324.904 45.0035C325.519 44.0788 325.827 43.7705 326.134 43.4623C326.441 42.8458 326.749 42.5376 327.056 41.9211C327.364 41.6128 327.671 40.9964 327.978 40.6881L328.286 40.3799C328.593 40.6881 328.9 40.6881 329.208 40.6881C329.515 40.6881 329.823 40.6881 330.13 40.9964C331.667 41.3046 332.282 41.6129 332.282 42.5376ZM337.2 45.3118C337.2 45.3118 337.2 45.0036 337.2 44.6954C337.815 44.3871 338.429 44.3871 339.352 44.0788C340.274 43.7706 341.196 43.7705 342.118 43.4623C343.04 43.1541 343.962 43.1541 344.884 42.8459C345.807 42.8459 346.729 42.5376 347.651 42.5376C348.573 42.5376 349.495 42.5376 349.802 42.5376C350.11 42.5376 350.417 42.5376 350.725 42.2293L351.032 41.9211C351.032 41.9211 351.647 41.6129 352.262 41.6129C352.569 41.6129 352.876 41.3046 352.876 40.9964C352.876 40.6881 352.876 40.3799 352.569 40.0717C352.262 40.0717 352.262 40.0717 352.262 39.7634C352.262 39.7634 351.954 39.4552 351.647 39.7634C351.647 39.7634 351.647 39.7634 351.339 39.7634C351.339 39.7634 351.339 39.7634 351.032 39.7634C350.725 39.7634 350.725 39.7634 350.725 39.7634C350.11 39.4552 348.88 39.1469 347.651 39.1469C346.114 39.1469 344.577 39.1469 342.733 39.4552C340.888 39.4552 339.352 39.7635 337.815 40.0717C336.278 40.3799 335.048 40.3799 334.433 40.6881L333.511 39.4552C333.511 39.4552 333.204 39.1469 332.896 39.1469C332.589 39.1469 332.282 38.8386 331.974 38.8386C331.667 38.8386 331.359 38.5305 331.052 38.5305C330.745 38.5305 330.437 38.5305 330.437 38.5305H330.13H329.822C329.515 38.2222 328.9 38.2222 328.286 37.9139C327.671 37.6057 327.363 37.2974 326.749 37.6057C326.134 37.6057 325.519 37.914 325.212 38.5305C324.597 38.8387 324.29 39.4552 323.675 40.0717C323.06 40.6882 322.753 41.3047 322.445 41.6129C321.831 42.2294 321.216 43.1541 320.601 44.0788C319.986 45.0036 319.371 45.9283 319.064 46.5447C319.064 46.5447 318.757 46.5448 318.757 46.853C318.757 46.853 318.757 47.1613 318.449 47.1613L316.913 51.7849C316.913 52.0932 316.912 52.7096 316.605 53.0179C316.298 53.6344 316.298 53.9426 316.605 54.5591C316.298 54.5591 316.298 54.8674 316.298 55.1756C316.298 55.4839 316.298 55.7921 316.298 55.7921C316.298 56.7168 316.605 57.6416 317.22 58.2581C317.835 58.8745 318.449 59.491 319.064 59.7993C319.679 60.1075 320.601 60.4157 321.523 60.4157C322.445 60.4157 323.367 60.4158 324.29 60.1075C324.904 60.1075 325.827 60.1075 326.749 59.491C327.671 58.8745 328.593 58.258 329.515 57.6415C330.437 57.025 331.359 55.7921 332.589 54.5591C333.204 54.2509 333.511 53.6343 333.819 52.7096C334.126 51.7849 334.741 51.1685 335.048 50.8602C335.355 50.552 335.663 49.9354 335.663 49.6272C335.663 49.3189 335.97 48.7025 336.278 48.3942C336.585 48.086 336.585 47.7778 336.892 47.1613C336.892 46.5448 336.892 46.2365 336.892 45.62V45.3118H337.2ZM304.617 33.2903C304.617 33.5985 304.31 33.9068 304.31 34.5232C304.31 34.8315 304.31 35.1398 304.31 35.448C304.31 35.7563 304.617 36.0645 304.925 36.0645C305.232 36.0645 305.232 36.0645 305.539 36.0645C305.847 36.0645 305.847 36.0645 305.847 36.0645C306.154 35.7562 306.461 35.7563 306.769 35.448C307.076 35.448 307.384 35.1398 307.691 34.8315H307.998C307.998 34.8315 307.998 34.8315 308.306 34.8315C308.306 34.5233 308.306 34.5232 308.613 34.215C308.921 33.9067 308.92 33.9068 308.92 33.5986C309.228 33.5986 309.228 33.5985 309.228 33.2903C309.228 32.982 309.228 32.982 309.535 32.982V32.6738C309.535 32.6738 309.535 32.6738 309.535 32.3656C310.15 32.0574 310.457 31.7491 310.457 30.8244C310.457 30.2079 310.457 29.5914 310.15 28.9749C310.15 28.9749 310.15 28.9749 309.843 28.9749H309.535C309.228 28.6667 308.92 28.3584 308.306 28.6666C307.691 28.9749 307.383 29.2831 306.769 29.5913C306.154 29.8996 305.847 30.5161 305.539 31.1325C305.232 31.749 304.924 32.0573 305.232 32.0573C304.924 32.3656 304.617 32.6738 304.617 33.2903ZM301.236 53.6344C301.543 53.0179 301.851 52.4014 302.158 51.4767C302.465 50.5519 303.08 49.6272 303.388 48.7025C304.002 47.7778 304.31 46.853 304.925 45.9283L305.232 45.62C305.232 45.62 305.232 45.3118 305.539 45.3118C305.539 45.0035 305.847 44.6954 305.847 44.6954C305.847 44.3871 305.847 44.3871 306.154 44.0788C306.461 43.4623 306.461 43.1541 306.461 42.5376C306.461 42.2294 306.769 41.9212 306.461 41.6129C306.461 41.3047 306.461 40.9964 306.461 40.6881C306.461 40.3799 306.154 40.0717 306.154 40.0717C305.847 39.7635 305.847 39.7634 305.539 39.4552C305.232 39.4552 305.232 39.4552 304.925 39.4552C304.617 39.4552 304.31 39.1469 304.002 39.4552C303.695 39.4552 303.08 39.7635 302.773 40.0717C301.851 41.3047 301.236 42.5376 300.314 44.0788C299.392 45.62 298.777 46.853 298.162 48.3942C297.855 49.0107 297.855 49.319 297.547 49.9354C297.24 50.5519 296.933 51.1684 296.933 51.4767C296.933 52.0931 296.625 52.4014 296.318 53.0179C296.01 53.3261 296.01 53.9426 295.703 54.2508C295.396 55.1756 295.088 56.1004 295.088 56.7168C294.781 57.3333 294.781 58.258 295.088 58.8745C295.703 59.491 296.318 60.1075 296.933 60.1075C297.547 60.4158 298.469 60.4157 299.392 60.4157C299.699 60.4157 299.699 60.4157 299.699 60.4157C299.699 60.4157 300.006 60.4158 300.006 60.1075C300.314 60.4158 301.236 60.1075 302.465 59.1828C303.695 58.5663 304.925 57.6416 306.154 56.7168C307.691 55.7921 308.921 54.8674 310.15 53.9427C311.38 53.0179 312.302 52.4014 312.916 52.4014C313.531 52.0932 314.453 51.7849 315.068 51.1684C315.683 50.8602 316.605 50.2437 316.913 49.6272C317.527 49.3189 318.142 49.0107 318.757 48.7025C319.372 48.3942 319.679 47.7778 320.294 47.4695L320.908 46.853C321.216 46.5448 321.523 46.2366 321.523 45.9283C321.523 45.9283 321.523 45.9283 321.216 45.9283H320.908C320.908 45.6201 320.908 45.6201 320.908 45.9283C320.908 46.2366 320.908 46.2366 320.601 46.2366C319.986 46.2366 319.372 46.5448 318.757 46.853C318.142 47.1612 317.835 47.4695 317.22 47.7778C316.912 48.086 316.605 48.086 315.99 48.3942C315.375 48.7025 314.761 48.7025 314.453 49.0107C312.916 49.6272 311.379 50.2437 309.843 50.8602C308.306 51.4767 306.769 52.4014 305.539 52.7096C304.31 53.3261 303.08 53.6343 302.465 54.2508C301.543 54.5591 301.236 54.5591 300.929 54.5591C300.929 54.5591 300.928 54.2509 301.236 53.6344ZM274.801 59.1828L276.03 58.2581C276.645 57.9498 277.26 57.6415 278.182 57.3333C279.104 57.025 280.334 56.4086 282.178 55.4839L283.408 55.1756C282.793 56.1004 281.871 57.0251 280.949 57.9498C280.026 58.8745 278.797 59.7993 276.953 61.0322L274.493 62.2652C274.186 62.2652 273.879 62.5735 273.264 62.8817C272.649 63.19 272.034 63.4981 271.42 63.4981C270.805 63.8064 270.497 63.8064 269.883 63.8064C269.575 63.8064 269.268 63.8064 269.575 63.4981C269.575 63.1899 269.883 63.1899 270.19 62.5735C270.498 61.957 270.805 61.957 271.42 61.6488C271.727 61.3405 272.034 61.0322 272.649 60.4157C273.879 59.7992 274.186 59.491 274.801 59.1828ZM295.703 47.1613L289.248 49.0107L288.633 49.319C288.633 49.319 288.633 49.319 288.326 49.319H288.018C288.018 49.319 288.018 49.319 287.711 49.319V49.0107C287.711 49.0107 287.404 48.7025 286.789 48.3942C286.174 48.086 285.559 47.7778 284.945 47.7778C284.33 47.7778 283.715 47.4695 283.1 47.4695C282.178 47.4695 280.949 47.4695 280.027 47.4695C279.104 47.4695 277.875 47.7778 277.26 47.7778C276.338 48.086 275.416 48.086 274.493 48.3942C275.108 47.7777 275.723 47.1612 276.645 46.5447L277.567 45.9283L279.104 44.6954L280.027 44.0788C280.641 43.7706 281.256 43.4624 282.178 43.1541C283.1 42.8459 283.715 42.5376 284.33 41.9211C284.637 41.9211 284.945 41.6129 285.252 41.3047C285.559 40.9964 285.559 40.9964 285.559 41.3047C285.867 41.3047 286.174 40.9964 286.481 40.9964H286.789L287.711 40.3799C288.018 40.3799 288.018 40.0717 288.326 39.7634C288.633 39.4552 288.326 39.147 288.018 38.5305C287.711 38.5305 287.404 38.2222 286.789 38.2222C286.481 38.2222 285.867 37.9139 285.559 37.9139L284.945 38.2222C284.022 38.2222 283.1 38.5304 282.178 38.8386C281.256 39.1469 280.334 39.7634 279.412 40.3799C278.49 40.9964 277.875 41.6129 276.953 42.2293C276.031 42.8458 275.416 43.4623 274.493 43.7706L274.186 44.0788C273.264 45.0036 272.649 45.6201 272.034 46.2366C271.42 46.8531 271.112 47.1613 270.805 47.7778C270.805 48.086 270.498 48.086 270.498 48.3942C270.498 48.7025 270.19 49.0108 270.19 49.319C270.19 49.6273 270.19 49.9355 270.498 50.552C270.805 50.8602 271.112 51.4767 271.42 51.7849C271.42 51.7849 271.727 51.7849 271.727 52.0932C272.035 52.0932 272.035 52.0932 272.342 52.0932C273.264 52.0932 273.879 52.0932 274.493 52.0932C275.108 52.0932 275.723 51.7849 276.338 51.7849C277.567 51.4767 278.797 51.1684 280.334 51.1684C281.563 51.1684 282.793 51.1684 283.408 51.1684H283.715C284.33 50.8602 284.637 51.1684 284.022 51.1684C283.408 51.4766 282.485 51.785 281.256 52.4014C280.026 53.0179 278.489 53.6344 276.645 54.5591C274.801 55.4838 273.264 56.4085 271.727 57.3333C270.19 58.258 268.961 59.491 267.731 60.724C266.502 61.9569 266.194 63.1899 266.194 64.1147C266.194 65.0394 266.501 65.6559 266.809 65.9642C267.116 66.2724 268.039 66.8888 269.268 66.8888C269.883 66.8888 270.497 66.8888 271.42 66.5806C272.342 66.2723 273.571 65.9641 274.801 65.3476C275.108 65.0394 275.723 65.0394 276.338 64.4229C276.953 63.8064 277.567 63.4982 278.182 63.19C278.797 62.8817 279.719 61.957 280.949 61.0322C281.871 60.1075 283.1 59.1828 284.637 57.9498L285.252 57.3333C285.559 57.025 286.174 56.4085 286.481 55.7921C287.096 55.1756 287.711 53.9426 288.326 52.0932C288.326 52.0932 288.326 52.0932 288.633 52.0932H288.941C288.941 52.0932 289.555 52.0932 290.477 51.7849C291.4 51.4767 292.322 51.1685 293.244 50.8602C294.166 50.552 295.396 50.2437 296.318 49.9354C297.24 49.6272 298.162 49.319 298.777 49.0107C299.392 49.0107 300.006 48.7024 300.314 48.086C300.621 47.4695 300.314 47.1612 299.392 46.5447H298.47H298.162H297.547C297.24 46.5447 296.933 46.853 296.933 46.853C296.625 46.853 296.625 46.853 296.625 46.853C296.01 47.1612 295.703 47.1613 295.703 47.1613ZM249.903 59.1828L251.132 58.2581C251.747 57.9498 252.362 57.6415 253.284 57.3333C254.206 57.025 255.436 56.4086 257.28 55.4839L258.51 55.1756C257.895 56.1004 256.973 57.0251 256.05 57.9498C255.128 58.8745 253.899 59.7993 252.055 61.0322L249.595 62.2652C249.288 62.2652 248.981 62.5735 248.366 62.8817C247.751 63.19 247.136 63.4981 246.522 63.4981C245.907 63.8064 245.599 63.8064 245.292 63.8064C244.985 63.8064 244.677 63.8064 244.985 63.4981C244.985 63.1899 245.292 63.1899 245.6 62.5735C245.907 61.957 246.214 61.957 246.829 61.6488C247.136 61.3405 247.444 61.0322 248.059 60.4157C248.981 59.7992 249.288 59.491 249.903 59.1828ZM270.805 47.1613L264.35 49.0107L264.043 49.319C264.043 49.319 264.042 49.319 263.735 49.319H263.428C263.428 49.319 263.428 49.319 263.12 49.319V49.0107C263.12 49.0107 262.813 48.7025 262.198 48.3942C261.583 48.086 260.969 47.7778 260.354 47.7778C259.739 47.7778 259.124 47.4695 258.51 47.4695C257.588 47.4695 256.358 47.4695 255.436 47.4695C254.514 47.4695 253.284 47.7778 252.669 47.7778C251.747 48.086 250.825 48.086 249.903 48.3942C250.518 47.7777 251.132 47.1612 252.055 46.5447L252.977 45.9283L254.206 44.6954L255.128 44.0788C255.743 43.7706 256.358 43.4624 257.28 43.1541C258.202 42.8459 258.817 42.5376 259.432 41.9211C259.739 41.9211 260.047 41.6129 260.354 41.3047C260.661 40.9964 260.661 40.9964 260.661 41.3047C260.969 41.3047 261.276 40.9964 261.584 40.9964H261.891L262.813 40.3799C263.12 40.3799 263.12 40.0717 263.428 39.7634C263.428 39.4552 263.428 39.147 263.12 38.5305C262.813 38.5305 262.506 38.2222 261.891 38.2222C261.583 38.2222 260.969 37.9139 260.661 37.9139L260.047 38.2222C259.124 38.2222 258.202 38.5304 257.28 38.8386C256.358 39.1469 255.436 39.7634 254.514 40.3799C253.591 40.9964 252.977 41.6129 252.055 42.2293C251.132 42.8458 250.518 43.4623 249.595 43.7706L249.288 44.0788C248.366 45.0036 247.751 45.6201 247.136 46.2366C246.522 46.8531 246.214 47.1613 245.907 47.7778C245.907 48.086 245.6 48.086 245.6 48.3942C245.6 48.7025 245.292 49.0108 245.292 49.319C245.292 49.6273 245.292 49.9355 245.6 50.552C245.907 50.8602 246.214 51.4767 246.522 51.7849C246.522 51.7849 246.829 51.7849 246.829 52.0932C247.136 52.0932 247.136 52.0932 247.444 52.0932C248.366 52.0932 248.981 52.0932 249.595 52.0932C250.21 52.0932 250.825 51.7849 251.44 51.7849C252.669 51.4767 253.899 51.1684 255.436 51.1684C256.665 51.1684 257.895 51.1684 258.51 51.1684H258.817C259.432 50.8602 259.739 51.1684 259.124 51.1684C258.51 51.4766 257.587 51.785 256.358 52.4014C255.128 53.0179 253.591 53.6344 251.747 54.5591C249.903 55.4838 248.366 56.4085 246.829 57.3333C245.292 58.258 244.063 59.491 242.833 60.724C241.911 61.9569 241.296 63.1899 241.296 64.1147C241.296 65.0394 241.603 65.6559 241.911 65.9642C242.218 66.2724 243.14 66.8888 244.37 66.8888C244.985 66.8888 245.599 66.8888 246.522 66.5806C247.444 66.2723 248.673 65.9641 249.903 65.3476C250.21 65.0394 250.825 65.0394 251.44 64.4229C252.054 64.1147 252.669 63.4982 253.284 63.19C253.899 62.8817 254.821 61.957 256.05 61.0322C256.973 60.1075 258.202 59.1828 259.739 57.9498L260.354 57.3333C260.661 57.025 261.276 56.4085 261.584 55.7921C262.198 55.1756 262.813 53.9426 263.428 52.0932C263.428 52.0932 263.428 52.0932 263.735 52.0932H264.043C264.043 52.0932 264.657 52.0932 265.579 51.7849C266.502 51.4767 267.424 51.1685 268.346 50.8602C269.268 50.552 270.497 50.2437 271.42 49.9354C272.342 49.6272 273.264 49.319 273.879 49.0107C274.494 49.0107 275.108 48.7024 275.416 48.086C275.723 47.7777 275.416 47.1612 274.493 46.5447H273.571H273.264H272.649C272.342 46.5447 272.034 46.853 272.034 46.853C271.727 46.853 271.727 46.853 271.727 46.853C271.112 47.1612 270.805 47.1613 270.805 47.1613ZM233.919 33.2903C233.919 33.5985 233.611 33.9068 233.611 34.5232C233.611 34.8315 233.611 35.1398 233.611 35.448C233.611 35.7563 233.919 36.0645 234.226 36.0645C234.534 36.0645 234.534 36.0645 234.841 36.0645C235.148 36.0645 235.148 36.0645 235.148 36.0645C235.456 35.7562 235.763 35.7563 236.071 35.448C236.378 35.448 236.685 35.1398 236.993 34.8315H237.3C237.3 34.8315 237.3 34.8315 237.607 34.8315C237.607 34.5233 237.608 34.5232 237.915 34.215C238.222 33.9067 238.222 33.9068 238.222 33.5986C238.53 33.5986 238.53 33.5985 238.53 33.2903C238.53 32.982 238.53 32.982 238.837 32.982V32.6738C238.837 32.6738 238.837 32.6738 238.837 32.3656C239.452 32.0574 239.759 31.7491 239.759 30.8244C240.067 30.2079 239.759 29.5914 239.452 28.9749C239.452 28.9749 239.452 28.9749 239.144 28.9749H238.837C238.53 28.6667 238.222 28.3584 237.607 28.6666C236.993 28.9749 236.685 29.2831 236.071 29.5913C235.456 29.8996 235.148 30.5161 234.841 31.1325C234.534 31.749 234.226 32.0573 234.226 32.0573C234.226 32.3656 234.226 32.6738 233.919 33.2903ZM230.538 53.6344C230.845 53.0179 231.152 52.4014 231.46 51.4767C231.767 50.5519 232.382 49.6272 232.689 48.7025C232.997 47.7778 233.612 46.853 234.226 45.9283L234.534 45.62C234.534 45.62 234.534 45.3118 234.841 45.3118C234.841 45.0035 235.148 44.6954 235.148 44.6954C235.148 44.6954 235.456 44.3871 235.456 44.0788C235.763 43.4623 235.763 43.1541 235.763 42.5376C235.763 42.2294 236.071 41.9212 235.763 41.6129C235.456 41.3047 235.763 40.9964 235.763 40.6881C235.763 40.3799 235.456 40.0717 235.456 40.0717C235.456 40.0717 235.148 39.7634 234.841 39.4552C234.534 39.4552 234.534 39.4552 234.226 39.4552C233.919 39.4552 233.612 39.1469 233.304 39.4552C232.997 39.4552 232.382 39.7635 231.767 40.0717C230.845 41.3047 230.23 42.5376 229.308 44.0788C228.693 45.62 227.771 46.853 227.157 48.3942C226.849 49.0107 226.849 49.319 226.542 49.9354C226.234 50.5519 225.927 51.1684 225.927 51.4767C225.927 52.0931 225.619 52.4014 225.312 53.0179C225.005 53.3261 225.005 53.9426 224.697 54.2508C224.39 55.1756 224.083 56.1004 224.083 56.7168C223.775 57.3333 223.775 58.258 224.083 58.8745C224.697 59.491 225.312 60.1075 225.927 60.1075C226.542 60.1075 227.464 60.4157 228.386 60.4157C228.693 60.4157 228.693 60.4157 228.693 60.4157C228.693 60.4157 229.001 60.4158 229.001 60.1075C229.308 60.4158 230.23 60.1075 231.46 59.1828C232.689 58.258 233.919 57.6416 235.148 56.7168C236.685 55.7921 237.915 54.8674 239.144 53.9427C240.374 53.0179 241.296 52.4014 241.911 52.4014C242.526 52.0932 243.448 51.7849 244.063 51.1684C244.677 50.5519 245.599 50.2437 245.907 49.6272C246.522 49.3189 247.136 49.0107 247.751 48.7025C248.366 48.3942 248.981 47.7778 249.288 47.4695L249.903 46.853C250.21 46.5448 250.21 46.2366 250.21 45.9283C250.21 45.9283 250.21 45.9283 249.903 45.9283C249.903 45.9283 249.903 45.9283 249.595 45.9283C249.595 45.6201 249.595 45.6201 249.595 45.9283C249.595 46.2366 249.596 46.2366 249.288 46.2366C248.673 46.2366 248.059 46.5448 247.444 46.853C246.829 47.1612 246.522 47.4695 245.907 47.7778C245.599 48.086 245.292 48.086 244.677 48.3942C244.063 48.7025 243.448 48.7025 243.14 49.0107C241.604 49.6272 240.067 50.2437 238.53 50.8602C236.993 51.4767 235.456 52.4014 234.226 52.7096C232.997 53.3261 231.767 53.6343 231.152 54.2508C230.538 54.8673 229.616 54.5591 229.616 54.5591C229.616 54.5591 230.23 54.2509 230.538 53.6344ZM212.709 60.1075C213.632 57.0251 214.554 53.6344 215.476 50.2437C216.398 46.853 217.32 43.7706 218.242 40.6881C219.164 37.6057 220.087 35.1397 220.701 32.982C221.316 31.1326 221.931 29.2831 222.546 27.4337C223.161 25.5842 223.775 23.7348 224.39 21.5771C225.005 20.0358 225.312 18.8028 225.927 17.2616C226.542 15.7204 226.849 14.4874 227.464 12.9462C227.464 12.3297 227.771 12.0215 228.079 11.405C228.386 10.7885 228.386 10.172 228.386 9.86375C228.386 9.5555 227.771 9.24726 227.157 8.32253C226.542 7.70604 225.927 7.39783 225.927 7.39783C225.312 7.08959 225.005 7.08959 224.39 7.39783C223.775 7.39783 223.468 7.70609 222.853 7.70609C221.931 8.63083 221.009 9.24726 220.087 9.86375C219.165 10.4802 218.242 11.0967 217.32 11.7132C216.398 12.3297 215.476 12.9462 214.554 13.871C213.632 14.4875 212.709 15.4121 211.787 16.0286C207.484 19.7275 203.181 23.4265 198.877 27.4337C194.574 31.4408 190.578 35.448 186.889 39.4552C185.967 40.0717 185.352 40.9964 184.43 41.9211C183.508 42.8458 182.893 43.4623 181.971 44.0788C182.893 41.3046 183.815 38.2222 184.738 35.448C185.66 32.6738 186.582 29.5913 187.504 26.5089C188.426 24.3512 189.041 22.1935 189.963 20.344C190.885 18.4946 191.5 16.0287 192.115 13.871C192.422 13.2545 192.422 12.3297 192.73 11.7132C193.037 10.7885 193.037 10.172 193.344 9.55548C193.344 8.01426 193.037 7.08953 192.115 6.47304C191.193 5.85656 190.271 5.24014 189.348 4.62366C189.041 4.62366 188.426 4.31538 188.119 4.00713C187.811 3.69889 187.197 3.69887 186.889 3.69887C186.274 3.69887 185.967 3.69887 185.66 3.69887C185.352 4.00711 184.738 4.00715 184.43 4.31539C184.123 4.31539 183.815 4.62358 183.815 4.93183C183.508 5.24007 183.508 5.54837 183.201 5.85661C182.893 6.16486 182.586 6.47306 182.278 6.78131C181.971 7.08955 181.664 7.39785 181.356 7.70609C175.209 13.2545 169.676 19.4193 164.758 25.5842C159.84 32.0573 154.921 38.5304 150.003 45.3118C147.544 48.7025 145.085 52.4014 142.933 56.1003C140.782 59.7992 138.323 63.4982 136.171 67.5054C135.556 68.1219 135.249 69.0465 134.327 69.663C133.712 70.5878 133.405 71.2043 133.405 72.129C133.405 72.7455 133.712 73.362 134.019 73.9785C134.327 74.595 134.941 74.9032 135.556 75.5197C136.171 75.828 137.093 76.1362 137.708 76.4444C138.323 76.7527 139.245 76.7527 139.86 76.4444C141.396 76.1362 142.626 75.5197 143.241 73.9785C143.548 73.0538 143.855 72.4372 143.855 71.5125C143.855 70.5878 144.163 69.6631 144.47 69.0466C144.778 67.5054 145.393 66.2724 146.315 64.7312C147.852 61.957 149.389 59.1828 150.925 56.7168C152.462 54.2509 153.999 51.4767 155.843 49.0107C157.38 46.5448 159.225 43.7706 160.762 41.6129C162.606 39.147 164.45 36.681 165.987 34.5232C168.754 30.8243 171.52 27.4337 174.594 24.043C177.36 20.6523 180.434 17.2616 183.508 14.1791C182.893 17.5698 181.971 20.9605 181.049 24.043C180.127 27.1254 179.205 30.5161 178.282 33.5986C177.975 35.1398 177.36 36.681 177.053 38.2222C176.746 39.7634 176.131 41.6129 175.516 43.1541C175.209 43.7706 174.901 44.6953 174.901 45.62C174.594 46.5448 174.594 47.1612 174.287 48.086C173.979 49.0107 173.979 49.9355 173.672 50.8602C173.672 51.785 173.364 52.7097 173.364 53.6344C173.364 53.9426 173.364 54.2509 173.364 54.5591C173.364 54.8673 173.364 55.1756 173.364 55.4839C173.364 55.7921 173.672 56.1003 173.979 56.1003C174.287 56.4086 174.901 56.4086 175.209 56.4086C175.823 56.4086 176.131 56.4086 176.746 56.7168C177.36 56.7168 177.668 56.7168 177.975 56.7168C178.59 56.4086 178.897 56.1004 179.512 55.4839C179.819 54.8674 180.434 54.2509 180.741 53.6344C181.971 52.0932 183.201 50.552 184.43 49.319C185.66 47.7778 186.889 46.5448 188.119 45.3118C192.422 40.6881 196.726 36.0645 201.029 31.7491C205.332 27.4337 209.943 23.1182 214.861 19.1111C215.783 18.1863 217.013 17.5699 217.935 16.6451C218.857 16.0287 219.779 15.1039 221.009 14.4874C220.087 18.1863 219.165 21.8852 217.935 24.9677C216.705 28.3584 215.476 31.749 214.246 35.7562C213.632 37.2974 213.017 39.4551 212.402 42.2293C211.48 45.0035 210.865 47.7778 209.943 50.8602C209.021 53.9427 208.406 57.0251 207.791 59.7993C207.177 62.5735 206.562 65.0394 206.254 66.8888C206.254 67.5053 205.947 68.1218 205.947 68.7383C205.947 69.3548 205.947 69.6631 206.254 70.2795C206.562 71.8208 207.484 72.4372 209.021 72.7455C209.636 72.7455 210.25 72.7455 210.558 72.4373C210.865 72.129 211.172 70.896 211.48 68.7383C211.172 65.6559 211.787 63.19 212.709 60.1075ZM125.72 38.2222C125.105 38.2222 124.49 38.2222 123.876 38.5305C122.031 38.5305 120.187 39.1469 118.035 39.7634C115.884 40.3799 113.732 41.6129 111.58 43.1541C111.58 42.8459 111.888 42.2293 111.888 41.9211C112.195 41.3046 112.195 40.9964 112.195 40.3799C113.117 39.4551 113.117 38.5304 112.502 37.6057C112.195 37.2974 111.888 36.9893 111.273 36.9893H110.966C110.658 36.9893 110.658 36.9893 110.658 36.9893C110.351 36.9893 110.351 36.9892 110.043 37.2974C109.736 37.2974 109.429 37.2974 109.429 37.6057C109.121 37.6057 108.814 37.9139 108.506 37.9139C108.506 38.2222 108.199 38.2222 108.199 38.2222C108.199 38.2222 107.892 38.5304 107.892 38.8386C107.584 40.0716 106.97 40.9964 106.662 42.2293C106.355 43.4623 105.74 44.6953 105.433 45.9283C105.125 46.853 104.51 47.7778 104.203 48.7025C103.896 49.6272 103.588 50.5519 102.973 51.4767C102.973 51.7849 102.973 51.7849 102.973 52.0932C102.973 52.7097 102.666 53.6344 102.051 54.8674C101.744 56.1003 101.437 57.025 101.129 57.6415C100.822 58.5663 101.129 59.4911 101.744 60.1075C102.359 60.724 103.281 60.724 104.203 60.4157C104.51 60.4157 104.818 60.4158 105.125 59.7993C105.433 59.491 105.74 59.1827 105.74 58.8745C106.047 58.8745 106.047 58.5663 106.355 57.9498C106.662 57.3333 106.662 56.7168 106.969 56.1003C107.277 55.4838 107.277 54.5592 107.584 53.9427C107.892 53.3262 107.892 52.7097 108.199 52.0932C108.506 51.4767 109.121 50.8602 109.736 50.2437C110.351 49.6272 110.658 49.319 111.273 48.7025C111.888 48.086 112.502 47.4695 113.732 46.5447C114.654 45.9283 115.884 45.3118 117.113 44.6954C118.343 44.0789 119.572 43.4624 121.109 42.8459C122.339 42.2294 123.876 41.9212 125.105 41.6129C125.413 41.3047 125.72 40.9964 126.027 40.9964C126.335 40.9964 126.642 40.6881 126.642 40.3799C126.949 40.3799 126.949 40.3799 126.949 40.0717C127.257 40.0717 127.257 39.7634 127.257 39.7634V39.4552C126.949 38.2222 126.335 38.2222 125.72 38.2222ZM69.1613 52.7096C68.5465 54.2508 68.2392 55.7921 68.2392 57.0251C68.2392 58.2581 68.5466 59.1828 69.4688 60.1075C70.3909 60.724 71.9278 61.0322 74.3869 60.724C74.6942 60.4157 75.0016 60.1075 75.309 59.7993C75.6164 59.491 75.9238 59.491 75.9238 58.8745C75.9238 58.8745 76.2311 58.8746 76.2311 58.5663L76.5386 58.2581C77.1533 57.9498 77.4606 57.6415 77.768 57.3333C78.3828 57.025 78.6902 56.7168 78.9976 56.1003C79.305 55.7921 79.6124 55.1756 80.2272 54.8674C80.842 54.2509 81.4567 53.6344 82.0714 53.3261C82.6862 53.0179 83.3009 52.7097 83.9157 52.0932C83.9157 51.7849 83.9157 51.7849 83.9157 51.7849C83.9157 51.7849 83.9157 51.7849 83.9157 51.4767C83.9157 51.4767 83.9158 51.4767 84.2232 51.4767C84.2232 51.1684 84.5305 51.1685 84.5305 50.8602L84.838 50.552C84.838 50.552 85.1453 50.5519 85.1453 50.2437C85.1453 50.2437 85.4527 49.9354 85.7601 49.9354C86.0675 49.9354 86.3749 49.6273 86.3749 49.319C86.3749 49.0108 86.6821 49.0107 86.9895 48.7025C86.9895 49.0107 86.6822 49.3189 86.6822 49.6272C86.6822 49.9354 86.6822 50.2437 86.6822 50.552C86.6822 51.1685 86.3749 51.785 86.3749 52.4014C86.3749 53.0179 86.0675 53.9426 86.3749 54.5591C86.3749 55.1756 86.6822 56.1004 86.6822 56.7168C86.9896 57.3333 87.297 57.6416 88.2191 57.9498C88.5265 57.9498 88.834 58.2581 89.4487 58.2581C90.0635 58.2581 90.3709 58.2581 90.9856 58.2581C91.6004 58.2581 91.9078 57.9498 91.9078 57.9498C92.2151 57.9498 92.5225 57.6415 92.8299 57.6415C93.1372 57.6415 93.7521 57.3333 94.9816 56.7168C96.2111 56.1004 97.4406 55.1756 98.9775 54.2508L104.203 50.8602C104.203 50.8602 104.511 50.8602 104.818 50.552C105.125 50.2437 105.125 50.2437 105.433 50.2437C105.74 49.9355 106.355 49.6273 106.662 49.319C107.277 49.0108 107.584 48.3942 107.584 48.086H107.277C107.277 48.086 106.97 48.086 107.277 48.086C107.277 47.7777 107.277 47.7778 107.277 47.4695C105.433 48.086 103.896 48.7025 103.281 49.0107C102.359 49.319 101.744 49.6272 101.437 49.9354C100.822 50.2437 100.207 50.552 99.5923 50.8602C98.6702 51.1685 97.4407 51.7849 95.5964 52.7096C94.9816 53.0179 94.3667 53.3262 93.752 53.6344C93.1372 53.6344 92.5224 53.6344 91.6003 53.3261C91.2929 53.3261 90.9856 52.7097 90.9856 52.0932C90.9856 51.4767 90.9856 50.5519 90.9856 49.6272C90.9856 48.7024 91.2929 47.7778 91.2929 47.1613C91.2929 46.2365 91.6003 45.62 91.6003 45.3118C91.6003 44.6953 91.9077 44.0788 92.2151 43.4623C92.5224 42.8458 92.8298 42.2294 93.1372 41.6129C93.1372 40.3799 93.1372 39.7634 93.1372 39.1469C92.8298 38.5304 92.5224 38.2222 92.2151 38.2222C91.9077 38.2222 91.6003 38.2222 91.2929 38.2222C90.9856 38.2222 90.6782 38.5304 90.3708 38.8386C90.0635 38.8386 90.0634 39.1469 89.756 39.7634C89.4486 40.0717 89.1413 40.6882 88.8339 41.3047C88.5265 41.9211 88.2191 42.2294 87.6043 42.8459C86.9895 43.4624 86.9896 43.7706 86.6822 44.0788C84.8379 45.9283 82.6862 48.086 81.1493 49.9354C79.305 51.7849 77.4607 53.6344 75.309 54.8674C74.3868 55.4838 73.772 55.7921 73.772 55.4839C73.4647 55.1756 73.4647 54.8673 73.772 54.5591C74.0794 53.9426 74.0794 53.3261 74.6942 52.7096C75.0015 52.0931 75.309 51.4766 75.309 51.1684C75.6164 50.2437 75.9237 49.6273 76.2311 49.319C76.5385 49.0108 76.846 48.3943 77.1534 47.7778C77.4608 46.8531 77.7681 46.2366 78.0755 45.9283C78.3829 45.3118 78.3829 45.0036 78.6903 44.3871C78.9977 43.7706 78.9975 43.4624 79.3049 43.1541C79.6123 42.5376 79.9198 42.2294 80.2272 41.3047C80.5346 40.9964 80.8419 40.6882 81.1493 40.0717C81.4567 39.4552 81.4567 38.8387 81.1493 38.2222C80.8419 37.6057 80.5345 37.2975 79.9197 36.9893C79.305 36.9893 78.6903 36.9892 78.0755 37.2974C77.4607 37.6057 76.846 37.914 76.5386 38.2222V38.5305V38.8386C76.2312 39.1469 75.9238 39.4552 75.9238 39.7634C75.6164 40.0717 75.6164 40.3799 75.309 40.6881C75.309 40.9964 75.309 40.9964 75.0017 41.3047C75.0017 41.6129 74.6942 41.6128 74.6942 41.9211C74.6942 41.9211 74.6942 41.9211 74.6942 42.2293V42.5376C74.3868 42.8459 74.0794 43.1541 73.772 43.7706C73.4647 44.3871 73.1572 44.6953 73.1572 45.3118C72.8499 45.9283 72.8499 46.2366 72.8499 46.2366C72.8499 46.5448 72.5426 46.5448 72.5426 46.853C72.5426 47.1612 72.5425 47.1613 72.2351 47.4695C72.2351 47.7778 71.9278 48.086 71.9278 48.3942C70.3909 49.6272 69.7761 51.1684 69.1613 52.7096ZM63.9357 16.6451C63.9357 16.6451 63.6284 16.9534 63.6284 18.1864C63.6284 19.4193 63.321 20.344 63.0136 21.8852C62.7062 23.4265 62.3989 24.6595 62.0915 26.2007C61.7841 27.7419 61.1693 28.9749 60.8619 29.8996C58.0955 30.2078 55.0217 30.8244 51.9479 30.8244C48.8741 31.1326 45.4928 30.8243 42.1116 30.2079C40.882 29.8996 39.6526 29.5914 38.7304 28.9749C37.8083 28.3584 37.1934 27.4337 36.886 26.2007C36.886 25.8925 36.5787 25.276 36.5787 24.6595C36.5787 24.043 36.5786 23.7348 36.886 23.1183C36.886 22.81 37.5008 22.5017 37.8081 21.8852C38.4229 21.577 38.7304 21.2688 39.0377 20.9605C39.9599 20.3441 40.8821 19.7275 41.8043 19.1111C42.7264 18.4946 43.6485 18.1863 44.5706 17.5698C45.1854 17.2616 46.1075 16.9534 47.0296 16.6451C47.9518 16.3369 48.5667 16.0287 48.8741 15.1039C49.1814 14.1792 48.874 13.2544 48.2593 12.6379C47.6445 12.0214 46.7224 11.4049 45.8002 11.0967C44.8781 10.7885 43.956 10.4803 43.3412 10.4803C42.419 10.4803 42.1117 10.4803 41.8043 10.7885C41.8043 10.4803 42.1116 9.86373 42.7264 9.55548C43.3412 9.24724 43.9558 8.93903 43.9558 8.63079L44.2633 8.32253C44.8781 7.70604 45.4929 7.39779 46.415 6.78131C47.3372 6.16482 47.9519 5.85659 48.8741 5.54835C49.4888 5.54835 49.7961 5.24009 50.1035 5.24009C50.4109 5.24009 50.7183 4.93183 51.3331 4.93183C51.6405 4.93183 51.9479 4.93183 52.5627 4.93183C53.1775 4.93183 54.0995 4.62366 54.7142 4.62366C55.329 4.62366 56.2512 4.31539 56.866 4.31539C57.4807 4.31539 58.0956 4.31541 58.0956 4.62366C58.7103 4.9319 59.3251 5.24014 59.6325 6.16488C60.2472 7.08961 60.5545 7.70602 60.8619 8.01426C61.1693 8.93899 61.4768 9.55554 61.7842 10.4803C62.0916 11.405 62.0914 12.0214 62.3988 12.6379L63.9357 16.6451ZM31.3532 28.3584C31.6605 28.6666 31.9679 28.9749 32.2753 29.2832C32.5827 29.5914 32.89 29.8996 33.1974 30.5161C34.1195 31.4408 35.3491 32.0573 36.886 32.982C38.4229 33.5985 39.9599 34.215 42.1116 34.5232C45.1854 34.8315 48.2593 35.1398 51.0258 35.1398C53.7922 35.1398 56.5585 34.8315 59.325 34.8315C56.5585 40.3799 53.4847 45.62 50.1035 50.2437C46.7223 54.8674 42.7264 59.491 38.7304 63.8064C36.8861 65.6559 34.7344 67.8136 32.8901 69.663C31.0458 71.5125 28.8942 73.362 26.4351 75.2115C25.2056 76.1362 24.2833 76.7526 23.0538 77.6774C21.8242 78.2939 20.9022 79.2186 19.6726 79.8351C18.4431 80.4516 17.2136 81.0681 15.6767 81.6846C14.1398 82.3011 12.6028 82.6093 11.0659 82.6093C10.7585 82.6093 10.7585 82.6093 10.4511 82.6093C10.1437 82.6093 9.83631 82.6093 9.83631 82.301C8.91416 81.6846 8.29947 80.7598 7.99208 79.5269C7.6847 78.2939 7.37717 77.0609 7.06978 75.8279C6.7624 73.6702 7.0699 71.5126 7.37728 69.3549C7.68466 67.1971 8.29936 65.0394 9.22151 63.19C10.1437 61.3405 10.7584 59.1827 11.6805 57.3333C12.6027 55.4838 13.525 53.6344 14.1398 52.0932C18.7505 42.2294 24.5907 34.5232 31.3532 28.3584ZM32.8901 16.3369C32.2753 17.5699 31.6605 18.8028 31.3532 20.6523C28.5867 23.1182 25.8202 25.8925 23.0538 28.9749C20.2873 32.0573 17.8282 35.1398 15.3692 38.5305C12.6027 42.2294 10.1437 45.9283 7.68459 50.2437C5.22552 54.5591 3.38133 58.8745 1.84441 63.8064C1.22965 65.9641 0.61488 67.8136 0.307496 70.2795C0.000112563 72.4373 0 74.595 0 76.4444C0.307384 78.2939 0.614767 80.1434 1.53692 81.6846C2.45907 83.2258 3.68856 84.1505 5.53287 85.0752C5.84025 85.3835 6.45509 85.3835 6.76248 85.3835C7.37724 85.3835 7.6847 85.3835 7.99208 85.3835C8.29947 85.3835 8.91412 85.3835 9.22151 85.6917C9.52889 86 10.1437 86 10.4511 86C11.6806 86 12.9102 86 14.1398 85.6917C15.3693 85.3835 16.5987 85.0753 17.5209 84.767C19.6726 84.1506 21.8243 83.2258 23.6686 81.9928C25.5129 81.068 27.3572 79.8351 28.8941 78.2939C30.431 76.7527 32.2753 75.5197 33.8122 73.9785C34.427 73.6703 34.7343 73.3619 35.3491 72.7455C35.9639 72.129 36.5788 71.8207 37.1935 71.5125C38.4231 70.2795 40.2672 68.7384 42.4189 66.2724C44.5706 64.1147 46.7224 61.6487 48.8741 59.1828C51.0257 56.7168 52.8699 54.2509 54.7142 51.7849C56.5585 49.319 57.7881 47.4695 58.4029 45.9283C59.325 44.0788 60.5547 41.9211 61.7842 39.7634C63.0137 37.6057 64.2432 35.448 65.1653 33.2903L75.0017 30.8244C76.2312 30.5161 77.4608 30.2078 78.6903 29.5913C79.9198 29.2831 81.1492 28.6666 82.3788 28.3584C82.9935 28.0501 83.3009 28.0501 83.9157 28.0501C84.5304 28.0501 84.8378 27.7419 85.4526 27.4337C85.76 27.4337 86.3748 27.1254 87.297 26.8172C88.2192 26.5089 89.4486 26.2007 90.6781 25.5842C91.9077 25.276 93.1372 24.6595 94.6741 24.043C95.9036 23.4265 97.4406 23.1182 98.3627 22.5018C99.2849 21.8853 100.514 21.577 101.437 21.2688C102.359 20.9606 102.666 20.6523 102.973 20.6523C103.588 20.0358 103.588 19.7276 103.896 19.7276C103.896 19.7276 103.588 19.4193 102.973 19.4193C102.359 19.1111 101.129 19.4193 99.8996 19.4193C98.3627 19.7276 96.8258 20.0358 95.2889 20.6523C93.4446 20.9605 91.9076 21.577 90.0633 22.1935C88.219 22.81 86.6821 23.1182 85.4526 23.4265C83.3009 24.0429 80.842 24.6594 78.6903 25.2759C76.5386 25.5842 74.3869 26.2007 71.9278 27.1254C71.0057 27.4337 70.3909 27.4337 69.4688 27.7419C68.854 28.0502 67.9317 28.0501 67.0096 28.0501C67.6243 26.8171 67.9318 25.5842 68.2392 24.043C68.5466 22.5018 68.854 21.2688 68.854 20.0358C69.1614 18.4946 69.1613 16.9534 69.1613 15.4122C68.8539 13.871 68.8539 12.6379 68.5465 11.0967C68.2391 9.55548 67.6245 8.01426 66.395 6.47304C65.4728 4.93183 64.2432 3.69891 63.0136 2.77418C62.3989 2.15769 61.4767 1.84944 60.5546 1.23296C59.6324 0.924713 58.7102 0.616412 57.7881 0.308169C56.8659 -7.52594e-05 55.9439 0 55.0217 0C54.0996 0 53.1774 0.308187 52.2552 0.616431C51.6404 0.616431 50.7184 0.924731 49.4889 1.54122C48.2593 1.84946 47.3371 2.46593 46.7223 2.77418C44.878 3.69891 43.0337 4.62364 41.4968 5.85661C39.9599 7.08959 38.4229 8.32253 36.886 9.86375C36.886 10.172 36.5787 10.7885 35.9639 11.405C35.3491 12.0215 35.0417 12.3297 34.7343 12.6379C34.1195 13.8709 33.5048 15.1039 32.8901 16.3369Z" fill="#AB8D60"/>
<rect y="92" width="383" height="3" fill="#AB8D60"/>
</svg>
