<svg width="412" height="93" viewBox="0 0 412 93" fill="none" xmlns="http://www.w3.org/2000/svg">
<path d="M379.685 58.9891L380.933 58.0578C381.556 57.7473 382.18 57.4368 383.116 57.1263C384.052 56.8158 385.299 56.195 387.17 55.2636L388.418 54.9531C387.794 55.8845 386.858 56.8159 385.923 57.7473C384.987 58.6787 383.74 59.6101 381.868 60.852L379.373 62.0938C379.061 62.0938 378.75 62.4043 378.126 62.7148C377.502 63.0253 376.878 63.3357 376.255 63.3357C375.631 63.6462 375.319 63.6462 374.695 63.6462C374.383 63.6462 374.383 63.6462 374.383 63.3357C374.383 63.0252 374.695 63.0253 375.007 62.4043C375.319 62.0939 375.631 61.7834 376.255 61.473C376.566 61.1625 376.878 60.8519 377.502 60.231C378.75 59.6101 379.061 59.2996 379.685 58.9891ZM400.893 46.8809L394.343 48.7437L393.72 49.0542C393.72 49.0542 393.72 49.0542 393.408 49.0542H393.096C393.096 49.0542 393.096 49.0542 392.784 49.0542V48.7437C392.784 48.7437 392.472 48.4332 391.848 48.1227C391.225 47.8123 390.913 47.5018 389.977 47.5018C389.042 47.5018 388.73 47.1914 388.106 47.1914C387.17 47.1914 385.923 47.1914 384.987 47.1914C384.051 47.1914 382.804 47.5018 382.18 47.5018C381.245 47.8123 380.621 47.8122 379.373 47.8122C379.997 47.1913 380.621 46.5704 381.557 45.9495L382.492 45.3285L384.052 44.0867L384.987 43.4657C385.611 43.1552 386.235 42.8448 387.17 42.5343C388.106 42.2238 388.73 41.9134 389.353 41.2925C389.665 41.2925 389.977 40.9819 390.289 40.6715C390.601 40.361 390.601 40.361 390.601 40.6715C390.913 40.6715 391.225 40.361 391.537 40.361H391.848L392.784 39.7401C393.096 39.7401 393.096 39.4296 393.408 39.1191C393.72 38.8087 393.408 38.4982 393.096 37.8773C392.784 37.8773 392.472 37.5668 391.848 37.5668C391.537 37.5668 390.913 37.2563 390.601 37.2563L389.977 37.5668C389.042 37.5668 388.106 37.8773 387.17 38.1878C386.235 38.4982 385.299 39.1192 384.363 39.4296C383.428 40.0506 382.492 40.6715 381.868 41.2925C380.933 41.9134 380.309 42.5343 379.373 42.8448L379.062 43.1552C378.126 44.0866 377.502 44.7076 376.878 45.3285C376.255 45.9495 375.943 46.2599 375.631 46.8809C375.631 47.1913 375.319 47.1914 375.319 47.5018C375.007 47.8123 375.007 48.1227 375.007 48.4332C375.007 48.7437 375.007 49.0541 375.319 49.6751C375.631 49.9855 375.943 50.6065 376.255 50.9169C376.255 50.9169 376.566 50.9169 376.566 51.2274C376.878 51.2274 376.878 51.2274 377.19 51.2274C378.126 51.2274 378.75 51.2274 379.373 51.2274C379.997 51.2274 380.621 50.9169 381.245 50.9169C382.492 50.6065 383.74 50.296 385.299 50.296C386.547 50.296 387.794 50.296 388.73 50.296H389.041C389.665 49.9856 389.977 50.296 389.353 50.296C388.73 50.6065 387.794 50.917 386.547 51.5379C385.299 52.1588 383.74 52.7798 381.868 53.7112C379.997 54.6426 378.438 55.574 376.878 56.5054C375.319 57.4368 374.071 58.6787 372.824 59.9206C371.576 61.1625 371.265 62.4043 371.265 63.3357C371.265 64.2671 371.576 64.8881 371.888 65.1985C372.512 65.8195 373.136 66.13 374.383 66.13C375.007 66.13 375.631 66.13 376.566 65.8195C377.502 65.509 378.75 65.1986 379.997 64.5776C380.309 64.2672 380.933 64.2671 381.557 63.6462C382.18 63.3357 382.804 62.7148 383.428 62.4043C384.051 62.0939 384.987 61.1624 386.235 60.231C387.482 59.2996 388.418 58.3682 389.977 57.1263L390.601 56.5054C390.913 56.195 391.537 55.574 391.848 54.9531C392.472 54.3321 393.096 53.0902 393.72 51.2274H394.032H394.343C394.343 51.2274 394.967 51.2274 395.903 50.9169C396.838 50.6065 397.774 50.296 398.71 49.9856C399.645 49.6751 400.893 49.3647 401.829 49.0542C402.764 48.7437 403.7 48.4332 404.324 48.1227C404.947 48.1227 405.571 47.8123 405.883 47.1914C406.195 46.8809 405.883 46.2599 404.947 45.639H404.012H403.7H402.764C402.452 45.639 402.14 45.9495 402.14 45.9495C401.829 45.9495 401.829 45.9495 401.517 45.9495C401.205 46.8809 400.893 46.8809 400.893 46.8809ZM362.22 63.9567C362.532 63.9567 362.844 63.9566 363.156 63.6462C363.468 63.6462 363.468 63.6462 363.468 63.3357C363.468 63.3357 363.468 63.0253 363.779 63.0253C363.779 62.7148 363.779 62.4043 363.779 62.0938C363.779 61.7834 363.779 61.4729 364.091 61.1625L364.715 60.231C364.715 59.9205 364.715 59.6101 364.715 59.2996C364.715 58.9892 364.715 58.6787 364.715 58.3683C364.715 58.0578 364.715 57.7473 365.027 57.4368C365.027 57.1263 365.027 56.8159 365.339 56.5054C365.339 56.195 365.339 56.1949 365.651 55.8845C365.962 55.574 365.963 55.574 365.963 55.574C366.274 54.953 366.275 54.6426 366.586 54.0216C366.586 53.4007 366.898 52.7797 367.21 52.4693C367.21 51.8483 367.522 51.2274 367.834 50.9169C368.146 50.296 368.146 49.9855 368.458 49.3646C369.393 45.9494 370.329 42.8448 371.576 39.4296C372.824 36.0145 373.76 32.9097 374.695 29.4946L375.007 28.5632C377.502 27.9423 379.997 27.6318 382.492 27.3213C385.299 27.0109 387.482 26.7003 389.977 26.3899V26.0794C390.289 26.0794 390.289 25.769 390.601 25.769C390.913 25.769 391.225 25.769 391.537 25.4585V25.148C391.537 24.8376 391.537 24.8375 391.848 24.527C391.848 24.527 391.848 24.5271 391.848 24.8375C391.848 24.8375 391.849 24.527 391.537 24.527C391.225 24.527 391.537 24.2167 391.537 24.2167C390.601 23.9062 389.977 23.9062 389.353 23.9062C388.73 23.9062 387.794 23.9062 387.17 23.9062C386.235 23.9062 385.299 24.2167 384.987 24.2167C384.675 24.2167 384.363 24.2167 384.052 24.2167C383.74 24.2167 383.428 24.2167 383.116 24.2167C382.804 24.2167 382.18 24.2166 380.933 24.527C380.309 24.527 379.373 24.8375 378.75 24.8375C378.126 24.8375 377.19 25.148 376.566 25.148C377.19 23.9061 377.814 22.3538 378.438 21.112C379.062 19.8701 379.685 18.3177 380.309 17.0758C381.245 15.5235 381.868 14.2816 382.492 12.7293C383.116 11.1769 383.74 9.62456 384.363 8.07222C384.363 7.76175 384.675 7.45132 384.675 7.14085C384.675 6.83038 384.675 6.51987 384.987 6.51987C385.299 6.2094 385.299 5.89897 385.611 5.5885C385.923 5.27803 385.923 4.96751 385.611 4.65704C385.611 4.0361 384.987 3.72565 384.363 3.41518C383.74 3.10471 383.116 3.10469 382.492 3.10469C381.868 3.10469 381.557 3.10471 380.621 3.41518C379.997 3.72565 379.685 3.72569 379.373 4.03616C379.061 4.34663 379.062 4.34659 379.062 4.96753C379.062 5.27799 378.75 5.58843 378.75 5.8989C378.75 6.20936 378.438 6.83036 378.438 6.83036C378.438 6.83036 378.126 7.45126 378.126 7.76173L377.814 8.07222C377.814 8.07222 377.814 8.38272 377.502 8.69319C377.502 9.00366 377.19 9.62458 376.878 9.93505C376.566 10.8665 376.255 11.4874 375.943 12.4188C375.631 13.3502 375.319 13.9712 374.695 14.9026C373.76 16.7654 373.136 18.6282 372.2 20.491C371.265 22.3538 370.641 24.2166 370.017 26.0794C369.705 26.0794 369.393 26.3899 369.081 26.3899C368.77 26.3899 368.458 26.3899 368.146 26.7004C367.834 26.7004 367.522 26.7004 366.898 27.0109C366.274 27.0109 365.339 27.3213 364.715 27.3213C364.091 27.3213 363.156 27.6318 362.22 27.9422C361.596 28.2527 360.973 28.2527 360.349 28.2527L359.101 28.5632C359.101 28.8737 358.789 29.1841 358.789 29.4946C358.478 29.805 358.477 30.1156 358.477 30.426C358.477 31.047 358.166 31.3574 358.166 31.6679C358.166 31.9784 358.166 32.2888 358.477 32.5993C358.477 32.5993 358.789 32.9097 358.789 32.5993C359.101 32.5993 359.413 32.5993 359.725 32.5993C360.037 32.5993 360.349 32.2888 360.349 32.2888C360.349 32.2888 360.661 31.9784 360.972 31.9784C361.284 31.9784 361.908 31.6679 362.22 31.6679C362.844 31.6679 363.156 31.3574 363.468 31.3574C364.403 30.7365 365.339 30.426 366.274 30.426C366.898 30.1156 367.834 30.1155 368.458 29.8051C368.146 30.7365 367.834 31.6679 367.522 32.5993C367.21 33.5307 366.898 34.4621 366.586 35.3935C365.963 37.8772 365.027 40.0505 364.403 42.2238C363.779 44.3971 362.844 46.8808 362.22 49.3646C361.596 51.2274 361.284 53.4007 360.972 55.574C360.661 57.7472 360.349 59.9206 360.037 62.4043C360.037 62.7148 360.037 63.0252 360.037 63.3357C360.037 63.6462 360.349 63.9567 360.972 64.2672C361.596 64.2672 361.908 63.9567 362.22 63.9567ZM348.809 54.6426C347.25 55.2635 345.379 55.574 344.131 56.1949C342.572 56.5054 341.324 56.8159 340.389 56.8159C339.453 56.8159 339.141 56.195 339.453 55.2636C339.765 54.6426 340.077 54.0217 340.389 53.4007C340.7 52.7798 341.324 52.1589 341.636 51.8484C341.948 51.2275 342.26 50.917 342.884 50.296C343.507 49.9856 343.819 49.3647 344.443 49.0542L346.626 47.5018L348.185 46.2599C348.497 45.9494 348.809 45.639 349.121 45.639C349.433 45.639 349.745 45.3285 349.745 45.3285C349.745 45.3285 350.057 45.018 350.369 45.3285C350.681 45.3285 350.992 45.3285 350.992 45.3285C350.992 45.018 351.304 45.018 351.616 45.018C351.928 45.018 351.928 45.018 352.24 45.018C352.552 44.7076 353.175 44.3971 353.175 44.0867C353.487 44.0867 353.799 43.7762 354.423 43.4657C354.735 43.4657 354.735 43.1553 355.047 42.5343C355.047 42.2238 355.359 41.6029 355.359 41.2925C355.359 40.982 355.359 40.361 355.359 39.7401C355.359 39.4296 355.047 38.8086 354.735 38.8086C353.487 38.4982 352.864 38.1878 352.24 38.1878C351.928 38.1878 351.616 38.1877 351.304 38.4982C350.992 38.8086 350.992 38.8087 350.68 39.1191C350.369 39.1191 350.057 39.4296 350.057 39.4296C349.745 39.4296 349.745 39.7401 349.433 39.7401C348.809 40.0506 348.497 40.361 348.185 40.6715C347.874 40.9819 347.562 41.2924 346.938 41.6029C346.314 42.2238 345.379 43.1552 344.755 43.7762C344.131 44.3971 343.195 45.0181 342.572 45.639C341.636 46.2599 341.012 46.8809 340.7 47.1914C340.388 47.5018 339.765 48.1228 339.141 49.0542C338.205 49.6751 337.582 50.6065 336.958 51.2274C336.334 51.8484 335.71 52.7798 335.399 53.7112C334.463 55.574 334.151 56.8159 334.463 57.7473C334.775 58.6787 335.399 59.6101 336.334 60.231C336.646 60.5415 336.958 60.852 337.582 60.852C337.893 61.1624 338.517 61.1625 339.141 61.1625C340.077 61.1625 340.7 61.1625 341.324 61.1625C341.948 61.1625 342.572 61.1624 343.196 60.852H343.507C343.507 60.852 343.507 60.852 343.819 60.852C343.819 60.852 344.131 60.852 344.443 60.852C344.755 60.852 345.067 60.5415 345.067 60.5415C345.69 60.231 346.002 60.2311 346.314 59.9206C346.626 59.6101 346.938 59.6101 347.25 59.6101C349.745 58.6787 352.552 57.7473 354.735 56.8159C357.23 55.8845 359.725 54.6426 362.22 53.4007C362.532 53.4007 362.844 53.0902 363.156 52.7798C363.468 52.4693 363.779 52.1589 364.403 51.8484C365.027 51.5379 365.339 51.2274 365.651 50.9169C365.962 50.6065 366.275 50.6065 366.586 50.296C366.586 49.9856 366.898 49.6751 367.522 49.6751C367.834 49.6751 368.146 49.3646 368.146 49.3646C368.458 49.3646 368.458 49.0542 368.458 49.0542C368.769 48.7437 369.081 48.7437 369.081 48.7437V48.4332C369.081 48.4332 369.081 48.1227 369.393 48.1227C369.393 48.1227 369.393 48.1227 369.081 47.8122C369.081 47.8122 368.458 47.8123 367.834 48.1227H367.21C366.898 48.1227 366.898 48.1227 366.586 48.1227C365.963 48.4332 365.339 48.4332 364.715 48.7437C364.091 49.0542 363.468 49.3646 363.156 49.6751C361.908 49.9855 361.284 50.2961 360.661 50.6065C360.037 50.6065 359.725 50.9169 359.413 50.9169C359.101 50.9169 359.101 51.2274 358.789 51.2274C358.478 51.2274 358.478 51.5379 358.166 51.5379C357.854 51.5379 357.23 51.8484 356.606 52.1589C355.982 52.4693 355.047 52.7798 353.799 53.4007C351.616 53.7112 350.369 54.0217 348.809 54.6426ZM302.651 52.4693C302.028 54.0216 301.716 55.574 301.716 56.8159C301.716 58.0578 302.027 58.9892 302.963 59.9206C303.899 60.5415 305.458 60.852 307.953 60.5415C308.265 60.231 308.577 59.9206 308.889 59.6101C309.201 59.2997 309.512 59.2996 309.512 58.6787C309.512 58.6787 309.824 58.6787 309.824 58.3683L310.136 58.0578C310.76 57.7473 311.072 57.4368 311.384 57.1263C312.008 56.8158 312.319 56.5054 312.631 55.8845C312.943 55.574 313.255 54.9531 313.879 54.6426C314.503 54.0217 315.126 53.4007 315.75 53.0902C316.374 52.7798 316.998 52.4693 317.621 51.8484C317.621 51.5379 317.621 51.5379 317.621 51.5379C317.621 51.5379 317.621 51.5379 317.621 51.2274C317.621 51.2274 317.621 51.2274 317.933 51.2274C317.933 50.9169 318.245 50.917 318.245 50.6065L318.557 50.296C318.557 50.296 318.869 50.296 318.869 49.9856C318.869 49.9856 319.181 49.6751 319.493 49.6751C319.805 49.6751 320.116 49.3647 320.116 49.0542C320.428 48.7437 320.428 48.7437 320.74 48.4332C320.74 48.7437 320.428 49.0541 320.428 49.3646C320.428 49.675 320.428 49.9856 320.428 50.296C320.428 50.917 320.116 51.5379 320.116 52.1589C320.116 52.7798 319.805 53.7112 320.116 54.3321C320.116 54.953 320.428 55.8845 320.428 56.5054C320.74 57.1264 321.052 57.4368 321.676 57.7473C321.988 57.7473 322.3 58.0578 322.923 58.0578C323.547 58.0578 323.859 58.0578 324.483 58.0578C325.107 58.0578 325.418 57.7473 325.418 57.7473C325.73 57.7473 326.042 57.4368 326.354 57.4368C326.666 57.4368 327.29 57.1264 328.537 56.5054C329.785 55.8845 331.032 54.953 332.592 54.0216L337.894 50.6065C337.894 50.6065 338.205 50.6065 338.205 50.296C338.517 49.9856 338.517 49.9856 338.829 49.9856C339.141 49.6751 339.765 49.3647 340.389 49.0542C341.012 48.7437 341.324 48.1227 341.324 47.8122H341.012C340.7 47.8122 340.7 47.8122 341.012 47.8122C341.012 47.5018 341.012 47.5018 341.012 47.5018C339.141 48.1228 337.582 48.7437 336.958 49.0542C336.022 49.3647 335.398 49.6751 335.087 49.9856C334.463 50.296 333.839 50.6065 333.215 50.9169C332.28 51.2274 331.032 51.8484 329.161 52.7798C328.537 53.0902 327.913 53.4008 327.29 53.7112C326.666 54.0217 326.042 53.7112 325.106 53.4007C324.795 53.4007 324.483 52.7798 324.483 52.1589C324.483 51.5379 324.483 50.6065 324.483 49.6751C324.483 48.7437 324.795 47.8123 324.795 47.1914C324.795 46.2599 325.106 45.639 325.106 45.3285C325.106 44.7076 325.418 44.0866 325.73 43.4657C326.042 42.8447 326.354 42.2238 326.666 41.6029C326.666 40.361 326.666 39.7401 326.666 39.1191C326.354 38.4982 326.042 38.1878 325.73 38.1878C325.418 37.8773 325.106 37.8773 324.795 38.1878C324.483 38.1878 324.171 38.4982 323.859 38.8086C323.547 38.8086 323.547 39.1192 323.235 39.7401C322.923 40.0506 322.612 40.6715 322.3 41.2925C321.988 41.9134 321.676 42.2239 321.052 42.8448C320.428 43.4657 320.428 43.7762 320.116 44.0867C318.245 45.9495 316.062 48.1227 314.503 49.9856C312.631 51.8484 310.76 53.7112 308.577 54.9531C307.641 55.574 307.018 55.8844 307.018 55.574C307.018 55.2635 306.706 54.9531 307.018 54.6426C307.329 54.0217 307.329 53.4007 307.953 52.7798C308.265 52.1588 308.577 51.5379 308.577 51.2274C308.889 50.296 309.201 49.675 309.512 49.3646C309.824 49.0541 310.136 48.4332 310.448 47.8122C310.76 46.8808 311.072 46.26 311.384 45.9495C311.696 45.3286 311.696 45.018 312.008 44.7075C312.32 44.3971 312.319 43.7762 312.631 43.4657C312.943 42.8447 313.255 42.5343 313.567 41.6029C313.879 41.2924 314.191 40.9819 314.503 40.361C314.815 39.7401 314.815 39.1191 314.503 38.4982C314.191 37.8772 313.879 37.5668 313.255 37.2563C312.631 37.2563 312.008 37.2563 311.384 37.5668C310.76 37.8773 310.136 38.1877 309.824 38.4982V38.8086V39.1191C309.513 39.4296 309.201 39.74 309.201 40.0505C308.889 40.361 308.889 40.6715 308.577 40.982C308.577 41.2924 308.577 41.2924 308.265 41.6029C308.265 41.9133 307.953 41.9134 307.953 42.2238C307.953 42.2238 307.953 42.2238 307.953 42.5343V42.8448C307.641 43.1553 307.329 43.4657 307.018 44.0867C306.706 44.7076 306.394 45.0181 306.394 45.639C306.082 46.2599 306.082 46.5704 306.082 46.5704C306.082 46.8808 305.77 46.8809 305.77 47.1914C305.77 47.5018 305.77 47.5018 305.458 47.8122C305.146 48.1227 305.146 48.4332 305.146 48.7437C303.899 49.3646 303.275 50.9169 302.651 52.4693ZM279.572 49.9856C279.572 49.9856 279.26 49.9856 279.572 49.9856C279.26 49.9856 279.572 49.9856 279.572 49.9856ZM308.577 49.6751C308.577 49.6751 308.889 49.6751 308.577 49.6751C308.889 49.6751 308.577 49.6751 308.577 49.6751ZM279.26 50.296C279.26 49.9856 279.26 49.9856 279.26 50.296V50.296ZM301.404 54.3321C301.404 54.3321 301.716 54.0216 302.028 54.0216C302.028 54.0216 302.028 54.0217 302.028 53.7112C302.028 53.4008 302.339 53.7112 302.339 53.7112C302.963 53.4008 303.275 53.0902 303.587 52.7798C303.899 52.4693 304.211 52.1589 304.834 51.8484C305.146 51.8484 305.458 51.5379 305.458 51.2274C305.77 50.9169 306.082 50.9169 306.394 50.9169V50.6065C306.706 50.6065 307.018 50.296 307.329 49.9856C307.641 49.6751 307.953 49.6751 308.265 49.6751H307.953C307.953 49.6751 307.953 49.6751 308.265 49.6751H308.577C308.889 49.3646 308.889 49.0542 308.889 49.0542C308.889 48.7437 308.577 48.7437 308.577 48.4332C307.329 48.7437 306.082 49.3646 304.523 49.9856C303.275 50.6065 302.027 51.2274 300.78 51.5379C299.532 52.1588 298.597 52.4693 297.661 53.0902C296.726 53.4007 296.102 53.7111 295.79 54.0216C294.854 54.3321 293.919 54.6426 292.983 55.2636C291.735 55.574 290.488 55.574 289.24 55.2636C288.617 54.3322 288.617 53.7112 288.617 52.7798C288.617 52.1588 288.617 51.2275 288.617 50.296C288.617 49.3646 288.929 48.4332 288.929 47.5018C289.24 46.8809 289.241 45.9495 289.552 45.3285C289.864 44.7076 290.176 44.0866 290.488 43.1552C290.8 42.5343 291.112 41.6029 291.424 40.6715C291.424 40.6715 291.424 40.6715 291.424 40.361C291.424 40.0505 291.424 40.0506 291.424 39.7401C291.424 39.4296 291.424 39.4296 291.424 39.1191C291.424 38.8087 291.736 38.8086 291.736 38.8086C291.736 38.4982 292.047 38.1877 292.047 37.8773C292.047 37.5668 292.359 37.5668 292.359 37.2563C292.671 36.6354 292.671 36.3249 292.671 36.0144C292.671 35.3935 292.983 34.7725 293.295 34.1516C293.607 33.5307 293.919 32.9097 294.231 32.2888C294.542 31.3574 294.854 30.7365 295.478 29.8051C296.102 29.1841 296.414 28.2528 297.037 27.3213C297.037 27.3213 296.725 27.3213 297.037 27.0109C297.037 27.0109 297.037 27.0108 297.037 26.7004C297.349 26.3899 297.349 26.0795 297.661 25.769C297.661 25.4585 297.973 25.148 298.285 25.148C298.285 24.8376 298.597 24.5271 298.597 24.2167C298.597 23.9062 298.909 23.5957 298.909 23.2852C298.909 23.2852 299.221 22.9748 299.221 22.6643C299.221 22.3538 299.221 22.3538 299.844 22.0433C299.844 21.7329 299.844 21.4224 300.156 21.112C300.156 20.8015 300.468 20.8015 300.468 20.491C300.78 20.1805 300.78 19.8701 300.78 19.2491C301.092 19.2491 301.092 18.9386 301.092 18.9386C301.092 18.9386 301.092 18.6282 301.404 18.6282C301.404 18.3177 301.404 18.0073 301.716 17.6968C302.027 17.3863 302.028 17.0758 302.028 16.7653C302.339 16.4548 302.339 16.1444 302.339 15.8339C302.339 15.5235 302.339 15.213 302.339 14.9026C302.651 14.5921 302.651 14.2816 302.651 13.6606C302.651 13.0397 302.651 12.7292 302.651 12.1083C302.651 11.4873 302.651 11.1769 302.339 10.5559C302.027 10.2455 302.027 9.93503 301.404 9.62456C301.404 9.62456 301.092 9.93503 301.092 9.62456C300.78 9.62456 300.78 9.62456 300.78 9.62456C300.468 9.62456 299.844 9.62458 299.844 9.93505C299.532 10.2455 299.221 10.2455 298.909 10.5559C298.285 11.1769 297.973 11.7978 297.661 12.4188C297.349 13.0397 296.726 13.9712 296.414 14.5921C295.79 15.834 295.166 17.0758 294.231 18.3177C293.607 19.5595 292.671 20.8015 292.047 22.3538C291.424 23.5957 290.8 24.8375 290.176 26.0794C289.552 27.3213 289.241 28.5632 288.617 29.8051C288.305 30.426 288.305 31.047 287.993 31.9784C287.681 32.5993 287.369 33.5307 287.369 34.1516L287.057 34.4621C287.057 34.7726 287.057 34.7726 286.745 35.0831C286.745 35.0831 286.745 35.0831 286.434 35.0831C286.434 35.0831 286.122 35.083 286.122 35.3935C285.498 36.0144 285.186 36.6354 284.562 37.2563C284.25 37.8772 283.627 38.4982 283.315 39.1191C283.003 39.4296 282.691 40.0505 282.067 40.361C281.755 40.9819 281.132 41.2924 280.82 41.6029C280.508 41.9133 280.508 41.9133 280.82 41.9133C280.82 41.9133 281.132 41.6029 281.443 41.6029C281.755 41.2924 281.755 41.2925 282.067 41.2925C280.508 43.1553 278.637 44.7076 277.077 46.5704C275.518 48.1227 273.647 49.9856 271.775 51.5379C271.152 52.1588 270.528 52.7798 269.592 53.0902C268.968 53.7112 268.033 54.3321 267.409 54.6426C267.097 54.9531 266.785 54.9531 266.473 55.2636C266.161 55.574 265.85 55.574 265.538 55.574C265.226 55.574 264.914 55.574 264.602 55.574C264.29 55.574 263.978 55.574 263.978 55.574L263.667 55.2636L263.355 54.9531C263.355 54.0217 263.666 53.4007 263.978 52.7798C264.29 52.1588 264.602 51.5379 265.226 51.2274V50.9169C265.226 50.9169 265.226 50.917 265.226 50.6065C265.85 49.9856 266.161 49.3646 266.473 48.7437C266.785 48.7437 267.097 48.4332 267.097 48.4332C268.033 47.5018 268.656 46.5704 269.592 45.9495C270.216 45.0181 271.152 44.3971 272.399 43.7762C273.335 43.1552 274.582 42.5343 275.83 42.2238C277.077 41.6029 278.325 41.2924 279.572 40.6715C279.884 40.361 279.884 40.0506 279.572 39.4296C279.26 39.1192 278.949 38.8086 278.637 38.4982C278.013 38.4982 277.701 38.4982 277.389 38.4982C277.077 38.4982 276.765 38.4982 276.453 38.4982C275.518 38.8086 274.582 39.1192 273.646 39.4296C273.023 39.7401 272.087 40.361 271.151 40.6715C269.904 41.6029 268.656 42.5343 267.409 43.4657C266.161 44.3971 264.914 45.0181 263.667 45.9495C263.043 46.5704 262.419 47.1913 261.795 48.1227C261.171 48.7437 260.548 49.6751 260.236 50.6065C259.924 51.2275 259.612 52.1588 259.3 53.0902C258.988 54.0217 258.988 54.953 258.988 55.8845C258.988 56.1949 258.988 56.5054 258.988 56.8159C258.988 57.1264 258.988 57.1263 259.3 57.4368C259.3 58.0577 259.924 58.3682 260.236 58.6787C260.859 58.9891 261.483 59.2996 262.107 59.2996H262.419C263.043 59.6101 263.666 59.6101 264.602 59.2996C265.226 59.2996 266.162 58.9891 266.785 58.9891C267.097 58.9891 267.097 58.6787 267.097 58.6787C267.721 58.6787 268.033 58.6787 268.345 58.3683C268.657 58.0578 268.968 58.0578 269.28 58.0578C271.152 56.8159 272.711 55.2636 274.27 53.7112C275.83 52.1589 277.389 50.917 278.948 49.0542C278.948 49.0542 278.949 49.0542 279.26 48.7437L279.572 48.4332H279.884C279.884 48.4332 279.884 48.4332 279.884 48.1227C279.884 48.1227 279.884 48.1227 280.196 47.8122L279.884 48.1227C279.884 48.1227 279.884 48.1227 280.196 47.8122C280.196 47.8122 280.196 47.8123 280.508 47.5018L280.82 46.8809L281.132 46.5704C281.444 46.2599 281.443 46.2599 281.443 46.2599C282.067 45.9494 282.379 45.639 282.691 45.3285C283.003 45.018 283.315 44.7076 283.627 44.3971C283.627 45.3286 283.627 46.2599 283.627 46.8809C283.627 47.5018 283.627 48.4332 283.939 49.3646C283.939 49.675 283.939 49.6751 283.939 49.9856C283.939 50.296 283.939 50.296 283.939 50.296C283.939 50.6065 283.939 50.6065 283.939 50.9169C283.939 50.9169 283.939 51.2274 283.939 51.5379C283.939 52.1588 284.25 52.7798 284.25 53.0902C284.25 53.4007 284.562 54.0216 284.874 54.3321C285.186 54.6426 285.186 54.9531 285.186 55.2636C285.81 55.8845 286.434 56.5054 287.057 56.8159C287.681 57.1264 288.617 57.4368 289.552 57.4368C290.488 57.7473 291.424 57.7473 292.359 57.7473C293.295 57.4368 294.542 57.1264 295.478 56.8159C296.414 56.5054 297.349 55.8844 298.285 55.574C299.221 54.953 299.844 54.6426 300.156 54.6426C300.468 54.3321 300.468 54.0216 300.468 54.0216C300.468 54.953 300.78 54.953 301.404 54.3321C301.404 54.6426 301.404 54.6426 301.404 54.3321ZM247.761 42.2238C247.761 43.1552 247.449 44.3971 247.137 45.639C246.825 46.8809 246.201 48.1227 245.266 49.3646C244.642 50.6065 244.018 51.2275 243.706 51.8484L243.082 52.4693C242.147 53.4007 241.211 54.3321 240.276 54.9531C239.34 55.574 238.092 56.195 236.533 56.8159C236.221 55.8845 235.909 54.953 236.221 54.0216C236.533 53.0902 236.845 52.1588 236.845 51.5379C236.845 51.2274 237.157 50.6065 237.469 49.6751C237.781 49.0541 238.404 48.1228 238.716 47.1914C239.34 46.2599 239.652 45.6389 240.276 44.7075C240.899 44.0866 241.211 43.4657 241.523 43.1552C241.835 42.5343 242.147 42.2238 242.459 41.9133C242.77 41.6029 243.083 40.9819 243.394 40.6715L243.706 40.361C244.018 40.6715 244.33 40.6715 244.642 40.6715C244.954 40.6715 245.266 40.6715 245.577 40.982C247.137 40.982 247.761 41.2924 247.761 42.2238ZM252.751 45.018C252.751 45.018 252.751 44.7076 252.751 44.3971C253.375 44.0867 253.998 44.0866 254.934 43.7762C255.869 43.4657 256.805 43.4657 257.741 43.1552C258.676 42.8447 259.612 42.8448 260.548 42.5343C261.483 42.5343 262.419 42.2238 263.355 42.2238C264.29 42.2238 265.226 42.2238 265.538 42.2238C265.85 42.2238 266.161 42.2238 266.473 41.9133C266.473 41.9133 266.785 41.6029 267.097 41.6029C267.097 41.6029 267.721 41.2925 268.345 41.2925C268.657 41.2925 268.656 40.9819 268.968 40.6715C269.28 40.361 268.968 40.0506 268.656 39.7401C268.345 39.7401 268.345 39.7401 268.345 39.4296C268.345 39.4296 268.033 39.1192 267.721 39.4296C267.721 39.4296 267.721 39.4296 267.409 39.4296C267.409 39.4296 267.409 39.4296 267.097 39.4296C266.785 39.4296 266.785 39.4296 266.785 39.4296C266.162 39.1192 264.914 38.8086 263.667 38.8086C262.419 38.8086 260.548 38.8087 258.676 39.1191C256.805 39.1191 255.246 39.4296 253.686 39.7401C252.127 40.0506 250.879 40.0505 250.256 40.361L249.32 39.1191C249.32 39.1191 249.008 38.8086 248.696 38.8086C248.384 38.8086 248.072 38.4982 247.761 38.4982C247.449 38.4982 247.137 38.1878 246.825 38.1878C246.513 38.1878 246.201 38.1878 246.201 38.1878H245.889H245.577C245.266 37.8773 244.642 37.8773 244.018 37.5668C243.394 37.2563 243.082 36.9458 242.459 37.2563C241.835 37.2563 241.211 37.5668 240.899 38.1878C240.275 38.4982 239.964 39.1192 239.34 39.7401C238.716 40.361 238.404 40.6715 238.092 41.2925C237.469 41.9134 236.845 42.8448 236.221 43.7762C235.597 44.7076 234.974 45.6389 234.662 46.2599C234.662 46.2599 234.35 46.2599 234.35 46.5704C234.35 46.5704 234.35 46.8809 234.038 46.8809L232.479 51.5379C232.479 51.8484 232.479 52.4693 232.167 52.7798C231.855 53.4007 231.855 53.7112 232.167 54.3321C231.855 54.3321 231.855 54.6426 231.855 54.9531C231.855 55.2636 231.855 55.574 231.855 55.574C231.855 56.5054 232.167 57.4368 232.79 58.0578C233.414 58.6787 234.038 59.2997 234.662 59.6101C235.285 59.9206 236.221 60.231 237.157 60.231C238.092 60.231 239.028 60.2311 239.964 59.9206C240.587 59.9206 241.523 59.9206 242.459 59.2996C243.394 58.6787 244.33 58.0577 245.266 57.4368C246.201 56.8159 247.137 55.574 248.384 54.3321C249.008 54.0216 249.32 53.4007 249.632 52.4693C249.944 51.5379 250.567 50.917 250.879 50.6065C251.191 50.2961 251.503 49.675 251.503 49.3646C251.815 48.7436 251.815 48.4332 252.127 48.1227C252.439 47.8123 252.439 47.5018 252.751 46.8809C252.751 46.2599 252.751 45.9495 252.751 45.3285V45.018V45.018ZM232.79 37.8773C232.167 37.8773 231.543 37.8773 230.919 38.1878C229.048 38.1878 227.177 38.8087 224.994 39.4296C222.81 40.0506 220.627 41.2925 218.444 42.8448C218.444 42.5343 218.756 41.9133 218.756 41.6029C218.756 40.9819 219.068 40.6714 219.068 40.0505C220.003 39.1191 220.003 38.1877 219.38 37.2563C219.068 36.9458 218.756 36.6354 218.132 36.6354H217.82C217.508 36.6354 217.508 36.6354 217.508 36.6354C217.196 36.6354 217.197 36.6353 216.885 36.9458C216.573 36.9458 216.261 36.9458 216.261 37.2563C215.949 37.2563 215.637 37.5668 215.325 37.5668C215.325 37.8773 215.013 37.8773 215.013 37.8773C215.013 37.8773 214.702 38.1877 214.702 38.4982C214.39 39.74 213.766 40.6715 213.454 41.9133C213.142 43.1552 212.518 44.3971 212.207 45.639C211.895 46.5704 211.271 47.5018 210.959 48.4332C210.647 49.3646 210.335 50.296 209.711 51.2274C209.711 51.5379 209.711 51.5379 209.711 51.8484C209.711 52.4693 209.4 53.4007 208.776 54.6426C208.152 55.8845 208.152 56.8159 207.84 57.4368C207.528 58.3682 207.84 59.2997 208.464 59.9206C209.088 60.5415 210.023 60.5415 210.959 60.231C211.271 60.231 211.583 60.2311 211.895 59.6101C212.206 59.2997 212.518 58.9891 212.518 58.6787C212.83 58.6787 212.83 58.0578 213.142 57.7473C213.454 57.1263 213.454 56.5054 213.766 55.8845C214.078 55.2635 214.078 54.3322 214.39 53.7112C214.701 53.0903 214.701 52.4693 215.013 51.8484C215.325 51.2275 215.949 50.6065 216.573 49.9856C217.197 49.3646 217.508 48.7437 218.132 48.4332C218.756 47.8123 219.38 47.1913 220.627 46.2599C221.875 45.3285 222.81 45.0181 224.058 44.3971C225.305 43.7762 226.553 43.1553 228.112 42.5343C229.36 41.9134 230.919 41.6029 232.167 40.982C232.479 40.6715 232.79 40.361 233.102 40.361C233.414 40.361 233.726 40.0506 233.726 39.7401C234.038 39.7401 234.038 39.7401 234.038 39.4296C234.35 39.4296 234.35 39.1191 234.35 39.1191V38.8086C234.038 37.8772 233.414 37.8773 232.79 37.8773ZM164.801 50.9169C165.113 50.9169 165.113 50.9169 165.425 50.9169V51.2274V50.9169C166.36 50.6065 167.296 49.9855 167.92 49.6751C168.855 49.3646 169.791 49.0542 170.415 48.7437C170.727 48.7437 171.038 48.4332 171.35 48.4332C171.662 48.4332 171.974 48.1227 172.286 48.1227C172.91 47.8123 173.534 47.5018 174.157 47.1914C174.781 46.8809 175.405 46.5704 176.029 46.2599C177.276 45.6389 178.524 45.0181 179.771 44.3971C181.019 43.7762 182.266 43.1553 183.514 42.5343C187.256 40.6715 190.999 38.8086 194.741 36.9458C198.484 35.083 202.226 32.9097 205.657 30.7364C206.905 30.1155 208.152 29.1841 209.088 28.5632C210.023 27.9423 211.271 27.0108 212.518 26.3899C214.078 25.148 215.637 23.9062 217.197 22.6643C218.756 21.4224 220.003 19.5596 220.939 17.6968C221.251 17.0758 221.563 16.4549 221.875 15.5235C222.187 14.9025 222.187 13.9712 222.187 13.0397C221.875 10.8665 221.563 9.31411 220.627 8.38271C219.691 7.14083 218.444 6.20944 217.197 5.5885C215.013 4.34663 212.518 3.72565 209.4 3.41518C206.281 3.10471 203.162 3.10469 199.731 3.10469C195.053 3.41516 190.687 4.03612 186.32 4.96753C181.954 5.89893 177.9 6.83034 174.157 8.07222C173.534 8.38269 172.91 8.69312 172.286 9.00359C171.662 9.31406 171.038 9.62458 170.727 9.93505C170.415 10.2455 170.103 10.556 169.791 11.1769C169.479 11.7978 169.167 12.4188 168.544 13.0397C168.232 13.6607 167.92 14.2816 167.608 14.9026C167.296 15.5235 166.984 16.1445 166.984 16.4549C166.049 18.9387 165.113 21.1119 164.489 23.2852C163.553 25.4585 162.618 27.6318 161.994 29.8051C161.37 31.6679 160.435 33.5307 159.811 35.704C158.875 37.5668 158.252 39.4296 157.628 41.6029C157.316 42.2238 157.004 42.8447 156.692 43.4657C156.38 44.0866 156.068 44.7076 156.068 45.3285C155.757 46.8809 155.445 48.1227 154.821 49.3646C154.509 50.6065 153.885 52.1589 153.573 53.4007L151.078 61.473C150.143 64.5776 149.519 67.6823 148.583 70.787C147.648 73.8917 147.024 76.9963 146.712 80.4115C147.024 80.4115 147.024 80.722 147.336 80.722C147.959 80.722 148.271 80.722 148.271 80.4115C148.583 80.4115 148.583 80.4115 148.895 80.4115C149.207 80.4115 149.207 80.722 149.519 80.4115C149.207 80.4115 148.895 80.4116 148.895 80.1011C149.519 80.4116 149.831 80.4115 150.454 80.4115C151.078 80.4115 151.39 80.1011 151.702 79.4801H152.014H152.326C152.638 77.9278 152.95 76.3754 153.261 74.8231C153.573 73.2707 153.885 72.0289 154.197 70.4765C154.509 68.9242 154.821 67.6823 155.133 66.13C155.445 64.8881 156.068 63.3357 156.38 61.7833C157.316 58.9891 158.252 56.195 159.187 53.7112C160.123 51.2275 161.058 48.7437 161.994 45.9495C162.93 43.1553 164.177 40.6715 165.113 38.1878C166.048 35.704 166.984 32.9098 168.232 30.426C168.855 29.1842 169.479 27.9422 170.103 26.3899C170.727 24.8375 171.35 23.2852 171.974 21.7328C172.598 20.1805 173.222 18.9387 173.845 17.6968C174.469 16.4549 174.781 15.5234 175.405 15.213C176.029 14.9025 176.652 14.2816 177.588 13.9711C178.524 13.6606 179.459 13.0397 180.707 12.7293C181.954 12.4188 182.89 11.7979 184.137 11.4874C185.385 11.1769 186.632 10.8664 187.568 10.5559C189.751 9.93499 191.934 9.62453 194.429 9.00359C196.924 8.69312 199.108 8.38269 201.603 8.07222C205.033 8.07222 208.152 8.07224 211.271 8.38271C214.39 8.69317 216.573 9.62456 218.444 11.1769C218.132 12.7293 217.508 13.9711 216.573 15.213C215.637 16.4548 214.702 17.3863 213.766 18.6282C212.83 19.5596 211.583 20.4909 210.647 21.4224C209.712 22.3538 208.464 22.9748 207.216 23.9062C204.721 25.4585 202.538 27.0109 200.043 28.5632C197.548 30.1155 195.053 31.3574 192.558 32.9098C190.063 34.1516 187.256 35.7039 184.761 36.9458C182.266 38.1877 179.459 39.4296 176.964 40.982C174.469 42.2238 171.662 43.7762 169.167 45.018C166.672 46.2599 164.177 47.8123 161.994 49.6751C161.994 49.9855 161.994 50.2961 161.994 50.6065C161.994 50.917 162.306 50.9169 162.306 51.2274C162.618 51.2274 162.93 51.2274 163.242 51.2274C163.242 51.5379 163.554 51.5379 163.865 51.8484C164.177 51.2275 164.489 50.9169 164.801 50.9169ZM127.687 37.8773C127.064 37.8773 126.44 37.8773 125.816 38.1878C123.945 38.1878 122.074 38.8087 119.89 39.4296C117.707 40.0506 115.524 41.2925 113.341 42.8448C113.341 42.5343 113.653 41.9133 113.653 41.6029C113.653 40.9819 113.965 40.6714 113.965 40.0505C114.9 39.1191 114.9 38.1877 114.277 37.2563C113.965 36.9458 113.653 36.6354 113.029 36.6354H112.717C112.405 36.6354 112.405 36.6354 112.405 36.6354C112.094 36.6354 112.094 36.6353 111.782 36.9458C111.47 36.9458 111.158 36.9458 111.158 37.2563C110.846 37.2563 110.534 37.5668 110.222 37.5668C110.222 37.8773 109.91 37.8773 109.91 37.8773C109.91 37.8773 109.598 38.1877 109.598 38.4982C109.287 39.74 108.663 40.6715 108.351 41.9133C108.039 43.1552 107.415 44.3971 107.103 45.639C106.792 46.5704 106.168 47.5018 105.856 48.4332C105.544 49.3646 105.232 50.296 104.608 51.2274C104.608 51.5379 104.608 51.5379 104.608 51.8484C104.608 52.4693 104.296 53.4007 103.673 54.6426C103.049 55.8845 103.049 56.8159 102.737 57.4368C102.425 58.3682 102.737 59.2997 103.361 59.9206C103.985 60.5415 104.92 60.5415 105.856 60.231C106.168 60.231 106.48 60.2311 106.791 59.6101C107.103 59.2997 107.415 58.9891 107.415 58.6787C107.727 58.6787 107.727 58.0578 108.039 57.7473C108.351 57.1263 108.351 56.5054 108.663 55.8845C108.975 55.2635 108.975 54.3322 109.287 53.7112C109.599 53.0903 109.598 52.4693 109.91 51.8484C110.222 51.2275 110.846 50.6065 111.47 49.9856C112.093 49.3646 112.405 48.7437 113.029 48.4332C113.653 47.8123 114.277 47.1913 115.524 46.2599C116.772 45.3285 117.707 45.0181 118.955 44.3971C120.202 43.7762 121.45 43.1553 123.009 42.5343C124.257 41.9134 125.816 41.6029 127.064 40.982C127.375 40.6715 127.687 40.361 127.999 40.361C128.311 40.361 128.623 40.0506 128.623 39.7401C128.935 39.7401 128.935 39.7401 128.935 39.4296C129.247 39.4296 129.247 39.1191 129.247 39.1191V38.8086C128.935 37.8772 128.311 37.8773 127.687 37.8773ZM70.3019 52.4693C69.6781 54.0216 69.3661 55.574 69.3661 56.8159C69.3661 58.0578 69.678 58.9892 70.6137 59.9206C71.5493 60.5415 73.1086 60.852 75.6036 60.5415C75.9155 60.231 76.2275 59.9206 76.5394 59.6101C76.8513 59.2997 77.163 59.2996 77.163 58.6787C77.163 58.6787 77.475 58.6787 77.475 58.3683L77.7868 58.0578C78.4106 57.7473 78.7225 57.4368 79.0344 57.1263C79.6582 56.8158 79.9699 56.5054 80.2818 55.8845C80.5937 55.574 80.9056 54.9531 81.5294 54.6426C82.1532 54.0217 82.7768 53.4007 83.4006 53.0902C84.0244 52.7798 84.6482 52.4693 85.272 51.8484C85.272 51.5379 85.272 51.5379 85.272 51.5379C85.272 51.5379 85.272 51.5379 85.272 51.2274C85.272 51.2274 85.2719 51.2274 85.5838 51.2274C85.5838 50.9169 85.8958 50.917 85.8958 50.6065L86.2076 50.296C86.2076 50.296 86.5194 50.296 86.5194 49.9856C86.5194 49.9856 86.8313 49.6751 87.1432 49.6751C87.4551 49.6751 87.767 49.3647 87.767 49.0542C88.0788 48.7437 88.0789 48.7437 88.3908 48.4332C88.3908 48.7437 88.0788 49.0541 88.0788 49.3646C88.0788 49.675 88.0788 49.9856 88.0788 50.296C88.0788 50.917 87.767 51.5379 87.767 52.1589C87.767 52.7798 87.4551 53.7112 87.767 54.3321C87.767 54.953 88.0788 55.8845 88.0788 56.5054C88.3907 57.1264 88.7025 57.4368 89.6382 57.7473C89.95 57.7473 90.262 58.0578 90.8858 58.0578C91.5095 58.0578 91.8214 58.0578 92.4451 58.0578C93.0689 58.0578 93.3807 57.7473 93.3807 57.7473C93.6926 57.7473 94.0045 57.4368 94.3163 57.4368C94.6282 57.4368 95.252 57.1264 96.4995 56.5054C97.747 55.8845 98.9945 54.953 100.554 54.0216L105.856 50.6065C105.856 50.6065 106.168 50.6065 106.48 50.296C106.792 49.9856 106.791 49.9856 106.791 49.9856C107.103 49.6751 107.727 49.3647 108.351 49.0542C108.975 48.7437 109.287 48.1227 109.287 47.8122H108.975C108.663 47.8122 108.663 47.8122 108.975 47.8122C108.975 47.5018 108.975 47.5018 108.975 47.5018C107.103 48.1228 105.544 48.7437 104.92 49.0542C103.985 49.3647 103.361 49.6751 103.049 49.9856C102.425 50.296 101.801 50.6065 101.178 50.9169C100.242 51.2274 98.9946 51.8484 97.1233 52.7798C96.4996 53.0902 95.8759 53.4008 95.2521 53.7112C94.6284 54.0217 94.0046 53.7112 93.0689 53.4007C92.7571 53.4007 92.4451 52.7798 92.4451 52.1589C92.4451 51.5379 92.4451 50.6065 92.4451 49.6751C92.4451 48.7437 92.757 47.8123 92.757 47.1914C92.757 46.2599 93.0689 45.639 93.0689 45.3285C93.0689 44.7076 93.3809 44.0866 93.6927 43.4657C94.0046 42.8447 94.3165 42.2238 94.6283 41.6029C94.6283 40.361 94.6283 39.7401 94.6283 39.1191C94.3165 38.4982 94.0046 38.1878 93.6927 38.1878C93.3809 37.8773 93.0688 37.8773 92.757 38.1878C92.4451 38.1878 92.1332 38.4982 91.8214 38.8086C91.5095 38.8086 91.5094 39.1192 91.1976 39.7401C90.8857 40.0506 90.5738 40.6715 90.262 41.2925C89.9501 41.9134 89.6383 42.2239 89.0146 42.8448C88.7027 43.4657 88.3907 43.7762 88.0788 44.0867C86.2075 45.9495 84.0244 48.1227 82.465 49.9856C80.5937 51.8484 78.7226 53.7112 76.5394 54.9531C75.6038 55.574 74.98 55.8844 74.98 55.574C74.98 55.2635 74.6682 54.9531 74.98 54.6426C75.2919 54.0217 75.2919 53.4007 75.9156 52.7798C76.2275 52.1588 76.5394 51.5379 76.5394 51.2274C76.8513 50.296 77.1631 49.675 77.475 49.3646C77.7869 49.0541 78.0987 48.4332 78.4106 47.8122C78.7225 46.8808 79.0343 46.26 79.3462 45.9495C79.6581 45.3286 79.6581 45.018 79.97 44.7075C80.2819 44.3971 80.2819 43.7762 80.5938 43.4657C80.9057 42.8447 81.2175 42.5343 81.5294 41.6029C81.8413 41.2924 82.1531 40.9819 82.465 40.361C82.7769 39.7401 82.7769 39.1191 82.465 38.4982C82.1531 37.8772 81.8414 37.5668 81.2176 37.2563C80.5938 37.2563 79.97 37.2563 79.3462 37.5668C78.7225 37.8773 78.0987 38.1877 77.7868 38.4982V38.8086V39.1191C77.4749 39.4296 77.163 39.74 77.163 40.0505C76.8511 40.361 76.8513 40.6715 76.5394 40.982C76.5394 41.2924 76.5393 41.2924 76.2274 41.6029C76.2274 41.9133 75.9156 41.9134 75.9156 42.2238C75.9156 42.2238 75.9156 42.2238 75.9156 42.5343V42.8448C75.6037 43.1553 75.2919 43.4657 74.98 44.0867C74.6682 44.7076 74.3562 45.0181 74.3562 45.639C74.0444 46.2599 74.0442 46.5704 74.0442 46.5704C74.0442 46.8808 73.7324 46.8809 73.7324 47.1914C73.7324 47.5018 73.7325 47.5018 73.4206 47.8122C73.1088 48.1227 73.1086 48.4332 73.1086 48.7437C71.5493 49.3646 70.9256 50.9169 70.3019 52.4693ZM64.9999 16.1444C64.9999 16.1444 64.9998 16.4549 64.6879 17.6968C64.6879 18.6282 64.3762 19.87 64.0643 21.4224C63.7524 22.9747 63.4404 24.2167 63.1285 25.769C62.8166 27.3213 62.193 28.5632 61.8811 29.4946C59.0742 29.805 56.2673 30.426 53.1485 30.426C50.0298 30.426 46.5991 30.426 43.1684 29.8051C41.9209 29.4946 40.6732 29.1841 39.7376 28.5632C38.802 27.9423 38.1783 27.0109 37.8664 25.769C37.8664 25.4585 37.5546 24.8376 37.5546 24.2167C37.5546 23.5957 37.5545 23.2852 37.8664 22.6643C37.8664 22.3538 38.4901 22.0433 38.802 21.4224C39.1139 20.8014 39.7377 20.8015 40.0496 20.491C40.9852 19.87 41.9208 19.2491 42.8564 18.6282C43.792 18.0072 44.7277 17.6967 45.6634 17.0758C46.2871 16.7653 47.2227 16.4549 48.1584 16.1444C49.094 15.834 49.7179 15.5235 50.0298 14.5921C50.3416 13.6607 50.0297 12.7292 49.406 12.1083C48.7822 11.4873 47.8466 10.8664 46.911 10.5559C45.9753 10.2455 45.0395 9.93505 44.4158 9.93505C43.4802 9.93505 43.1683 9.93507 42.8564 10.2455C42.8564 9.93507 43.1684 9.31406 43.7922 9.00359C44.4159 8.69312 45.0396 8.38269 45.0396 8.07222L45.3516 7.76173C45.9753 7.14079 46.5989 6.83032 47.5346 6.20938C48.4702 5.89891 49.0941 5.27799 50.0298 4.96753C50.6535 4.96753 50.9653 4.65704 51.2772 4.65704C51.589 4.65704 51.901 4.34655 52.5247 4.34655C52.8366 4.34655 53.1484 4.34655 53.7721 4.34655C54.3959 4.34655 55.3316 4.03616 55.9553 4.03616C56.5791 4.03616 57.5148 3.72567 58.1385 3.72567C58.7623 3.72567 59.3861 3.72569 59.3861 4.03616C60.0099 4.34663 60.6336 4.65709 60.9455 5.5885C61.2574 6.51991 61.881 7.14077 62.1929 7.45124C62.5048 8.38265 62.8166 9.00364 63.1285 9.93505C63.4404 10.556 63.4404 11.4873 63.7523 12.1083L64.9999 16.1444ZM31.9407 27.9422C32.2525 28.2527 32.5646 28.5632 32.8764 28.8737C33.1883 29.1842 33.5002 29.4946 33.812 30.1155C34.7477 31.047 35.9952 31.6679 37.5546 32.5993C39.114 33.2202 40.6732 33.8411 42.8564 34.1516C45.9752 34.4621 49.094 34.7726 51.9009 34.7726C54.7079 34.7726 57.5148 34.4621 60.3217 34.4621C57.5148 40.0505 54.396 45.3285 50.9653 49.9856C47.5347 54.6426 43.4802 59.2996 39.4258 63.6462C37.5545 65.509 35.3713 67.6823 33.5 69.5451C31.3169 71.4079 29.4457 73.2708 26.9507 75.1336C25.7032 76.065 24.7676 76.6859 23.5201 77.6173C22.2726 78.5487 21.3368 79.1697 20.0893 79.7906C18.8418 80.4116 17.5943 81.0325 16.0349 81.6534C14.4755 82.2744 12.9161 82.5848 11.3567 82.5848C11.0449 82.5848 11.0448 82.5848 10.733 82.5848C10.4211 82.5848 10.1092 82.5848 10.1092 82.2743C9.17352 81.6534 8.54984 80.722 8.23796 79.4801C7.92609 78.2383 7.61425 76.9963 7.30237 75.7545C6.99049 73.5812 7.30229 71.408 7.61417 69.2347C7.92605 67.0614 8.54992 64.8881 9.48555 63.0253C10.1093 60.852 11.0449 58.9891 11.9805 57.1263C12.9162 55.2635 13.8518 53.4007 14.4755 51.8484C19.1537 41.9134 25.0793 34.1516 31.9407 27.9422ZM33.5 15.8339C32.8763 17.0758 32.2525 18.3177 31.9407 20.1805C29.1337 22.6642 26.327 25.4585 23.5201 28.5632C20.7132 31.6679 18.2182 34.7726 15.7231 38.1878C12.9162 41.9134 10.4212 45.639 7.92616 49.9856C5.43113 54.3321 3.55979 58.6787 2.00039 63.6462C1.37664 65.8195 0.752881 67.6823 0.441002 70.1661C0.129124 72.3393 -0.182678 74.5126 0.1292 76.3754C0.441079 78.2383 0.752957 80.1011 1.68859 81.6534C2.62423 83.2058 3.8717 84.1371 5.74297 85.0685C6.05485 85.379 6.6785 85.379 6.99037 85.379C7.30225 85.379 7.92609 85.379 8.23796 85.379C8.54984 85.379 9.17368 85.379 9.48555 85.6895C9.79743 86 10.4211 86 10.733 86C11.9805 86 13.228 86 14.4755 85.6895C15.723 85.379 16.9705 85.0686 17.9061 84.7581C20.0893 84.1372 22.2724 83.2057 24.1437 81.9638C26.015 81.0324 27.8863 79.7906 29.4457 78.2383C31.0051 76.6859 32.8764 75.444 34.4358 74.2021C35.0596 73.8916 35.3715 73.5812 35.9952 72.9603C36.619 72.3393 37.2427 72.0289 37.8664 71.7184C39.1139 70.4765 40.9852 68.9241 43.1684 66.4404C45.3515 63.9566 47.5346 61.7834 49.7178 59.2996C51.9009 56.8159 53.7723 54.3321 55.6435 51.8484C57.5148 49.3646 58.7623 47.5018 59.3861 45.9495C60.3217 44.0867 61.5692 41.9134 62.8167 39.7401C64.0642 37.5668 65.3116 35.3935 66.2473 33.2202L76.2274 30.7364C77.4749 30.426 78.7225 30.1155 79.97 29.4946C81.2175 29.1841 82.4651 28.5632 83.7126 28.2527C84.3363 27.9422 84.6482 27.9422 85.272 27.9422C85.8957 27.9422 86.2076 27.6318 86.8314 27.3213C87.1433 27.3213 87.7669 27.0108 88.7026 26.7004C89.6382 26.3899 90.8858 26.0794 92.1333 25.4585C93.3809 25.148 94.6283 24.5271 96.1877 23.9062C97.4352 23.2852 98.9947 22.9748 99.9303 22.3538C101.178 22.0433 102.113 21.4224 103.049 21.112C103.985 20.8015 104.297 20.491 104.608 20.491C105.232 19.87 105.232 19.5596 105.544 19.5596C105.544 19.5596 105.232 19.2491 104.608 19.2491C103.985 18.9387 102.737 19.2491 101.49 19.2491C100.242 19.2491 98.3709 19.87 96.8115 20.491C95.2521 21.1119 93.3808 21.4224 91.5096 22.0433C89.6383 22.6643 88.0789 22.9747 86.8314 23.2852C84.6482 23.9061 82.1532 24.5271 79.97 25.148C77.7869 25.4585 75.6037 26.0794 73.1086 27.0109C72.173 27.3213 71.5493 27.3213 70.6137 27.6317C69.678 27.9422 69.0543 27.9422 68.1187 27.9422C68.7424 26.7003 69.0542 25.4585 69.3661 23.9062C69.6779 22.3538 69.9899 21.1119 69.9899 19.87C70.3017 18.3177 70.3019 16.7653 70.3019 15.213C69.99 13.6606 69.9899 12.4188 69.6781 11.1769C69.3662 9.62456 68.7424 8.07222 67.4949 6.51987C66.2474 4.96753 65.3118 3.72561 64.0643 2.7942C63.4405 2.17327 62.5047 1.8628 61.5691 1.24186C60.6335 0.931389 59.6979 0.620957 58.7623 0.310488C57.8267 1.89449e-05 56.891 0 55.9553 0C55.0197 0 54.0842 0.310507 53.1485 0.620976C52.5248 0.620976 51.5891 0.931408 50.3416 1.55235C49.094 1.86282 48.1583 2.48373 47.5346 2.7942C45.6633 3.72561 43.7922 4.65702 42.2328 5.8989C40.6734 7.14077 39.114 8.38271 37.5546 9.93505C37.5546 10.2455 37.2426 10.8665 36.6188 11.4874C35.9951 12.1083 35.6832 12.4188 35.0594 12.7293C34.7476 13.3502 34.1238 14.5921 33.5 15.8339Z" fill="#AB8D60"/>
<rect x="6" y="89" width="406" height="4" fill="#AB8D60"/>
</svg>
