<svg width="455" height="110" viewBox="0 0 455 110" fill="none" xmlns="http://www.w3.org/2000/svg">
<path d="M431.966 48.3021C433.544 46.7282 435.753 45.469 437.961 44.8394C437.961 45.1542 437.961 45.1542 437.646 45.1542C436.699 46.4134 435.437 47.6725 434.175 48.9316C432.913 50.1907 431.651 51.1351 430.388 52.3943C429.757 52.709 429.442 53.0239 428.811 53.3387C428.18 53.6535 427.864 53.9682 427.233 53.9682C428.495 51.7647 430.073 49.876 431.966 48.3021ZM440.486 60.2639C440.801 59.9491 441.748 59.6344 442.379 59.3196C443.325 58.69 444.272 58.3752 445.219 57.7456C446.165 57.1161 447.112 56.4865 448.374 55.8569C449.32 55.2273 450.267 54.5978 450.898 54.283C451.214 53.9682 451.845 53.6534 451.845 53.6534C452.16 53.6534 452.476 53.3387 452.476 53.3387C452.791 53.0239 452.791 53.0239 452.791 53.0239C453.107 52.7091 453.422 52.3943 453.738 51.7647C454.054 51.45 454.369 51.1351 454.685 50.8203C455 50.5055 455 50.1908 455 49.876C455 49.5612 454.685 49.5612 454.053 49.5612C454.053 49.5612 454.054 49.5612 453.738 49.5612H453.422C452.791 49.5612 452.476 49.876 452.16 49.876C451.845 50.1908 451.529 50.1907 451.214 50.5055C450.267 51.1351 449.32 51.4499 448.374 52.0795C447.427 52.709 446.165 53.0238 445.219 53.6534C443.956 54.283 443.01 54.9125 442.063 55.2273C441.117 55.5421 440.486 56.1717 439.539 56.4865C438.908 56.8013 437.961 57.1161 437.015 57.7456C436.068 58.0604 435.122 58.69 433.859 59.3196C433.228 59.6344 432.597 59.9491 431.966 59.9491C431.335 59.9491 430.388 60.2639 429.757 60.5787C428.811 60.8935 427.864 61.2082 426.918 61.523C425.971 61.8378 424.709 62.1526 423.447 61.8378C422.816 61.523 422.816 60.8935 422.5 60.2639C422.5 59.6343 422.5 59.0047 422.816 58.3752C423.131 57.7456 423.447 57.1161 423.762 56.4865C424.078 55.857 424.393 55.5422 425.024 54.9126C425.971 54.9126 427.233 54.9126 428.18 54.9126C429.126 54.5978 430.073 54.283 430.704 53.9682C433.228 52.3943 435.752 50.1908 438.277 47.9873C438.277 47.6725 438.592 47.3578 438.908 47.043C439.223 46.7282 439.539 46.4133 439.854 46.0986C440.17 45.7838 440.485 45.469 440.801 45.1542C441.117 44.8395 441.432 44.5246 441.432 44.2098C441.432 43.5803 441.117 42.636 440.486 42.0064C439.854 41.3768 438.277 40.7473 436.068 40.7473C435.752 40.7473 435.437 40.7472 435.437 41.062C435.437 41.062 435.121 41.3768 434.806 41.3768C434.175 41.6916 433.544 42.0064 432.597 42.3212C431.966 42.636 431.019 42.9507 430.388 43.5803C428.811 44.5247 427.549 45.469 425.971 47.043C424.393 48.6169 423.131 49.876 421.869 51.4499C421.869 51.7647 421.553 52.0795 421.553 52.3943C421.553 52.709 421.238 53.0239 420.922 53.3387C420.607 53.9682 420.291 54.9125 419.976 55.5421C419.66 56.4865 419.345 57.1161 419.029 58.0605C418.714 59.0048 418.714 59.6343 418.714 60.5787C418.714 61.523 419.029 62.1527 419.345 62.7822C419.976 63.7266 420.607 64.0413 421.553 64.6709C422.5 64.9856 423.447 65.3005 424.393 65.3005C425.34 65.3005 426.286 65.3005 427.233 64.9857C428.18 64.6709 429.126 64.6709 429.757 64.3562C430.388 64.0414 431.02 64.0413 431.651 63.7265C432.282 63.7265 432.913 63.4117 433.228 63.0969L440.486 60.2639ZM422.5 42.9507C421.869 43.5803 420.922 44.2099 420.291 44.8394C419.66 45.469 418.714 46.4134 417.767 47.043C416.82 47.6725 416.505 48.3021 416.189 48.6169C415.558 49.2465 415.243 49.5612 414.612 50.1908C413.981 50.8204 413.665 51.45 413.034 51.7647C412.403 52.7091 411.456 53.6534 410.194 54.5978C408.932 55.8569 407.354 56.8013 406.092 57.7456C404.83 58.69 403.568 59.3195 402.306 59.9491C401.359 60.2639 400.728 60.2639 400.413 59.6344C400.728 58.69 401.044 57.4308 401.675 55.8569C402.306 54.5978 402.621 53.3386 402.937 52.0795C402.937 52.0795 402.937 52.0795 402.937 51.7647C402.937 51.7647 402.937 51.4499 402.937 51.1351C402.937 50.8204 402.937 50.8203 403.253 50.5055V50.1908C403.253 50.1908 403.253 50.1908 403.253 49.876C403.253 49.5612 403.568 49.2464 403.568 48.9316C403.568 48.6168 403.884 48.3021 403.884 47.9873C404.199 47.9873 404.199 47.9873 404.199 47.9873C404.199 47.6725 404.199 47.6725 404.199 47.3577V47.043C404.199 46.7282 404.199 46.4134 403.884 46.4134C403.884 46.4134 403.568 46.4133 403.253 46.0986C402.937 46.0986 402.937 45.7837 402.937 45.7837C402.937 45.7837 402.622 45.469 402.306 45.469C401.359 45.1543 400.728 45.1542 400.413 45.7837C400.097 46.4133 399.466 46.7282 399.151 47.043C399.151 47.6725 398.835 47.9873 398.835 48.3021C398.519 48.6169 398.519 49.2464 398.204 49.5612C398.204 50.1908 398.204 50.5055 397.888 50.8203C397.573 51.1351 397.573 51.4499 397.257 52.0795C396.942 52.3942 396.942 52.7091 396.626 53.3387C396.311 53.9682 396.311 54.283 396.311 54.5978C395.995 55.5421 395.995 56.1717 395.68 57.116C395.364 57.7456 395.364 58.69 395.364 59.6344C395.364 59.6344 395.364 59.9491 395.68 60.2639C395.68 60.5787 395.68 60.8935 395.68 60.8935C396.311 63.097 397.257 64.6709 398.204 65.3005C399.15 65.93 400.413 66.2448 401.675 65.6153C402.937 65.3005 404.199 64.3561 405.777 63.4117C407.354 62.4674 408.617 61.2083 409.563 59.6344C410.825 58.3752 411.772 57.1161 412.719 55.8569C413.665 54.5978 414.296 53.9682 414.927 53.3387C415.243 53.0239 415.874 52.3943 416.82 51.4499C417.767 50.5056 418.714 49.5612 419.345 48.3021C420.291 47.3577 420.922 46.4134 421.553 45.469C422.185 44.5247 422.5 44.2098 422.5 44.2098C423.131 42.9507 423.447 42.3212 423.762 42.0064C424.078 41.6916 424.078 41.3768 423.762 41.3768C423.762 41.3768 423.447 41.3768 423.131 41.3768C422.816 41.3768 422.816 41.3768 422.816 41.3768C422.816 41.062 422.816 41.062 422.816 41.062H422.5C423.447 42.3211 423.131 42.6359 422.5 42.9507ZM392.84 56.8012C391.578 57.4308 390.631 58.0604 389.685 58.3752C389.369 58.6899 388.738 58.69 388.107 59.3196C387.476 59.6344 387.16 59.9491 386.529 60.2639C385.898 60.5787 385.583 60.5787 385.267 60.2639C384.952 59.9491 384.952 59.6343 384.952 59.0048L385.583 56.8012C385.898 56.4864 385.898 56.1717 385.898 55.8569C385.898 55.5421 385.898 55.5421 385.898 55.2273C385.898 54.9125 386.214 54.5978 386.529 54.283V53.6534C386.845 53.3386 387.16 52.709 387.16 52.0795C387.476 51.4499 387.791 50.8203 388.107 50.5055C388.422 50.1907 388.738 49.5612 389.053 48.9316C389.053 48.302 388.738 47.6725 388.422 47.6725C388.107 47.6725 387.791 47.3578 387.476 47.043H386.214H385.583C385.267 47.043 384.952 47.043 384.952 47.043L384.636 47.3577V47.6725C384.636 47.9873 384.636 47.9873 384.32 48.3021C384.32 48.3021 384.005 48.6168 384.005 48.9316H383.689C383.058 49.5612 382.743 50.1907 382.112 50.5055C381.481 50.8203 381.165 51.1352 380.534 51.7647C378.325 53.3387 376.432 54.9126 374.539 56.1717C372.646 57.7456 370.437 59.0047 368.544 60.2639C368.228 60.5787 367.597 60.8935 366.966 61.2083C366.966 60.5787 367.282 60.2639 367.597 59.6344C367.913 59.0048 368.228 58.69 368.228 58.0605C368.544 57.7457 368.859 57.4308 368.859 57.116C369.175 56.8013 369.49 56.4865 369.806 56.1717C370.121 55.8569 370.121 55.8569 370.121 55.5421C370.437 55.2273 371.068 55.2274 371.068 54.5978C371.384 54.283 371.699 53.9682 372.015 53.6534C372.646 53.0238 372.961 52.709 373.592 52.0795C374.223 51.4499 374.539 51.1351 375.17 50.8203C375.485 50.5055 375.801 50.1908 376.116 50.1908C376.432 49.876 376.748 49.5612 377.063 49.2464C377.694 48.9316 378.01 48.6169 378.641 48.3021C379.272 47.9873 379.588 47.6725 380.219 47.6725C380.219 47.3577 380.534 47.043 380.849 47.043C381.165 47.043 381.165 47.043 381.481 47.043L381.796 46.7282L383.058 46.0986C383.689 45.469 384.321 45.1542 384.952 44.8394C385.267 44.8394 385.583 44.5246 385.583 44.8394C385.898 44.8394 386.214 44.8394 386.214 44.5246C386.529 44.5246 386.529 44.2099 386.845 43.8951C386.845 43.5803 386.845 43.2655 386.845 43.2655C386.845 42.9507 386.845 42.636 386.214 42.3212C385.898 42.0064 385.583 41.6916 385.267 41.3768C384.636 41.3768 384.32 41.3768 384.005 41.062C384.005 41.062 383.689 41.3768 383.689 41.062C383.374 41.062 383.374 41.062 383.374 41.062C382.427 41.3768 381.796 41.6916 381.481 42.0064C381.165 42.3212 380.534 42.9507 379.903 43.2655C379.587 43.2655 378.956 43.8951 377.694 44.5246C376.748 45.1542 375.485 46.0985 374.223 47.3577C372.961 48.302 372.015 49.5612 370.753 50.5055C369.806 51.4499 368.859 52.3943 368.228 52.7091C367.597 53.6534 366.966 54.283 366.335 55.2273C365.704 55.8569 365.073 56.8013 364.757 57.7456C364.442 58.3752 364.126 58.69 363.811 59.3196C363.495 59.9491 363.18 60.5787 363.18 61.2083V61.523C362.864 62.7822 363.18 63.4118 363.811 64.0413C364.126 64.3561 364.442 64.6709 365.073 64.6709C365.704 64.6709 366.019 64.6709 366.65 64.6709C366.966 64.6709 367.282 64.9857 367.597 64.9857H368.544C368.859 64.9857 369.49 64.9856 369.806 64.6709C370.437 64.3561 370.752 64.0413 371.068 63.7265C372.646 63.097 374.223 62.1527 375.801 61.2083C375.801 60.8935 376.117 60.8935 376.432 60.8935C376.748 60.8935 376.748 60.5787 377.063 60.5787C377.063 60.5787 377.379 60.2639 377.694 60.2639C378.01 60.2639 378.01 59.9492 378.325 59.6344C378.641 59.3196 379.272 59.3196 379.272 59.0048C379.587 58.69 379.903 58.3752 380.219 58.0605C380.534 58.0605 380.534 57.7456 380.534 57.7456L380.849 57.4308C380.849 57.4308 380.85 57.4308 381.165 57.4308C381.165 58.0604 380.85 59.0048 381.165 59.6344C381.481 60.2639 381.165 60.8934 381.481 61.523C381.796 61.8378 381.796 62.4674 382.112 62.7822C382.427 63.097 382.743 63.4118 383.374 63.7265C383.689 63.7265 383.689 63.7266 384.005 64.0413C384.32 64.0413 384.32 64.0413 384.32 64.0413C385.583 64.3561 386.845 64.3561 387.791 64.0413C388.738 63.7266 389.685 63.4118 390.631 62.7822C391.578 62.1527 392.209 61.5231 393.155 60.8935C394.102 60.2639 395.049 59.6344 395.995 59.3196C395.995 59.3196 396.311 59.3196 396.626 59.0048C396.942 58.69 397.573 58.3752 398.52 57.4308C398.835 56.8013 398.835 56.8013 399.151 56.4865C399.466 56.4865 399.782 56.1717 399.782 56.1717C400.413 55.5421 400.728 55.2274 400.413 54.9126C400.097 54.5978 398.835 54.9125 397.257 55.5421C395.049 55.5421 394.102 56.1717 392.84 56.8012ZM342.985 70.3371C343.616 70.3371 343.932 70.0222 344.248 69.7074C344.248 70.0222 344.248 70.0223 344.248 70.3371C343.932 70.3371 343.932 70.6518 344.248 70.9666C343.617 72.5405 342.67 74.1145 341.723 76.318C340.777 78.5214 339.515 80.725 338.252 83.2433C336.99 85.7615 335.728 88.2798 334.15 90.7981C332.573 93.3164 330.995 95.5198 329.102 97.7233C327.524 99.9268 325.631 101.501 323.738 103.075C321.845 104.649 319.951 105.278 317.743 105.593C317.427 105.278 317.427 104.963 317.427 104.649C317.427 104.334 317.427 104.019 317.112 103.704C317.427 101.816 317.743 99.9268 318.689 98.3529C319.321 96.779 320.267 95.2051 321.529 93.6311C322.791 92.0572 323.738 90.7981 324.684 89.539C325.947 88.2798 326.893 87.0206 327.84 85.7615C328.155 85.4467 328.787 84.5023 329.733 83.558C330.68 82.6136 331.942 81.3546 333.204 80.0954C334.466 78.8363 336.044 77.2623 337.621 75.6883C339.199 74.1144 340.777 72.5405 342.354 71.2814C342.039 70.6518 342.354 70.3371 342.985 70.3371ZM317.743 110C318.374 110 319.32 109.685 319.951 109.37C324.053 107.796 327.524 105.278 330.68 102.13C333.835 98.9825 336.359 95.5198 338.883 91.4276C341.092 87.6502 343.301 83.2432 345.194 79.151C347.087 74.744 348.665 70.9666 350.558 66.8744C350.874 66.2448 351.189 65.6152 351.505 64.6709C351.82 64.0413 352.136 63.4117 352.767 63.0969C353.083 62.7822 353.083 62.4674 353.714 62.1526C354.029 61.8378 354.345 61.5231 354.976 61.2083L355.607 60.5787C355.922 60.2639 356.238 60.2639 356.554 59.9491C356.869 59.6343 357.185 59.6344 357.5 59.6344C358.131 59.0048 358.447 58.6899 359.078 58.3752C359.709 58.0604 360.34 57.7456 360.655 57.116C361.286 56.8013 361.918 56.1717 362.864 55.5421C363.811 54.9125 364.757 54.283 366.02 53.3387C366.966 52.7091 367.913 51.7647 368.859 51.1351C369.806 50.5056 370.437 49.876 370.753 49.5612C370.437 49.5612 370.437 49.5612 370.437 49.2464C371.068 48.6168 371.384 48.3021 372.33 48.3021C372.961 47.9873 373.592 47.6725 374.223 47.3577C373.908 47.3577 373.592 47.3577 373.592 47.3577C373.592 47.3577 373.908 47.043 374.223 47.043C374.539 47.043 374.539 46.7282 374.854 46.7282H374.539C374.854 46.4134 374.854 46.4134 375.17 46.4134C375.485 46.4134 375.485 46.0986 375.801 46.0986H375.486H375.17V45.7837H374.854C374.854 45.7837 374.854 45.7837 374.539 45.7837H374.854H375.17C373.592 46.0985 372.33 46.7281 371.068 47.3577C369.806 47.9872 368.544 48.6168 367.282 49.2464C366.65 49.2464 366.335 49.5612 366.02 49.5612C365.704 49.876 365.388 49.876 365.073 50.1908C365.073 50.1908 364.757 50.1907 364.757 50.5055C364.442 50.5055 364.442 50.8203 364.442 50.8203H364.126C363.811 51.1351 363.18 51.4499 362.233 52.0795C361.286 52.709 360.34 53.0238 359.393 53.6534C358.447 54.283 357.5 54.9125 356.554 55.5421C355.607 56.1717 354.976 56.8013 354.66 57.4308C354.976 56.4865 354.976 55.5422 355.607 54.9126C355.922 53.9682 356.238 53.0238 356.238 52.0795C356.553 51.4499 356.553 51.1351 356.869 50.5055C356.869 49.876 357.184 49.2464 357.184 48.9316C357.184 48.302 357.184 47.9872 357.184 47.3577C357.184 47.0429 356.869 46.4133 356.238 46.0986C356.238 46.0986 355.922 45.7838 355.922 46.0986C355.607 46.0986 355.607 46.0986 355.607 46.0986C355.291 46.0986 355.291 46.0986 354.976 46.0986C354.66 46.0986 354.66 46.0986 354.345 46.0986C353.714 46.0986 353.398 46.0986 353.398 46.4134C353.083 46.7281 353.083 47.043 352.767 47.043C352.452 47.3578 352.451 47.6725 352.451 47.6725C352.451 47.6725 352.451 47.9873 352.451 48.3021C352.451 48.6169 352.136 48.9316 351.821 49.2464C351.505 49.5612 351.189 49.5612 350.874 49.876C350.558 50.1908 350.243 50.5055 349.927 50.8203C349.612 51.1351 349.296 51.45 348.981 51.7647C347.718 52.7091 346.456 53.9682 345.194 54.9126C343.932 55.857 342.67 56.8013 341.408 57.7456C341.092 57.7456 340.777 58.0605 340.777 58.0605C340.461 58.0605 340.461 58.3752 340.146 58.69C339.515 59.0047 339.199 59.3196 338.568 59.6344C338.253 59.9492 337.621 60.2639 337.306 60.5787C337.306 60.5787 336.99 60.5787 336.99 60.8935C336.675 60.8935 336.675 60.8935 336.359 60.8935C336.359 60.8935 336.359 60.5787 336.359 60.2639C336.359 59.9491 336.359 59.9492 336.359 59.6344C336.675 58.69 336.99 57.7456 337.621 56.8012C338.253 55.8569 338.568 55.2273 339.199 54.283C339.83 53.9682 340.146 53.3386 340.461 52.7091C340.777 52.0795 341.408 51.4499 342.039 51.1351C342.354 50.8204 342.67 50.5056 342.985 49.876C343.301 49.5612 343.617 49.2464 343.932 48.9316C343.932 48.302 344.248 47.9873 344.563 47.6725C344.879 47.3577 345.194 47.0429 345.51 46.7282C345.825 46.0986 346.141 45.7838 346.456 45.469C346.772 45.1543 347.087 44.8394 347.718 44.5246C348.034 44.2098 348.665 43.5803 349.296 43.2655C349.927 42.6359 350.874 42.3212 351.189 41.6916C351.82 41.3768 352.136 40.7472 352.136 40.4325C352.136 40.1177 351.82 39.8029 350.874 39.8029C350.874 39.8029 350.558 39.8029 350.243 39.8029C349.927 39.8029 349.612 39.8029 349.612 40.1177C348.981 40.4324 348.35 40.7472 347.403 41.062C346.772 41.3768 346.141 42.0064 345.194 42.3212C345.194 42.3212 344.879 42.3211 344.563 42.6359C344.248 42.9507 343.932 42.9507 343.617 43.2655C343.301 43.5803 342.985 43.5803 342.67 43.8951C342.354 44.2099 342.354 44.2098 342.039 44.2098L340.146 46.0986C339.199 47.0429 338.252 47.9872 337.306 48.9316C336.359 49.876 335.413 50.8203 334.466 52.0795C333.52 53.0238 333.204 53.6534 332.888 54.283H332.573C332.573 54.283 332.573 54.283 332.257 54.283C332.257 54.5978 331.942 54.9125 331.942 55.2273C331.626 55.5421 331.626 55.8569 331.311 56.1717C331.311 56.4865 330.995 57.1161 330.995 57.4308C330.995 58.0604 330.68 58.3752 330.68 59.0048C330.68 59.6343 330.68 60.2639 330.68 60.5787C330.68 61.2083 330.995 61.523 330.995 61.8378C331.311 61.8378 331.311 61.8378 331.626 62.1526C331.626 62.1526 331.626 62.4674 331.942 62.4674H331.626C331.626 62.4674 332.257 62.7822 332.573 62.7822C333.204 62.7822 333.835 62.7822 334.466 63.0969C335.097 63.0969 335.728 63.0969 336.359 63.0969C336.99 63.0969 337.306 63.0969 337.306 63.0969C337.621 63.0969 337.937 62.7822 338.568 62.7822C339.199 62.4674 339.515 62.4674 340.146 62.1526C340.777 61.8378 341.092 61.5231 341.723 61.2083C342.354 60.8935 342.67 60.5787 342.67 60.5787C343.301 59.9491 343.617 59.6344 344.248 59.3196C344.879 59.0048 345.51 58.3752 346.141 57.7456C346.141 57.4309 346.456 57.4308 346.772 57.116L347.088 56.8012L347.403 56.4865C347.403 56.4865 347.403 56.4865 347.718 56.4865C347.718 56.1717 348.034 55.8569 348.034 55.8569C348.034 56.1717 348.034 56.4864 348.034 56.8012C348.034 57.116 347.718 57.4309 347.718 57.7456C347.403 58.3752 347.403 58.69 347.403 58.69C347.403 59.0047 347.403 59.0048 347.088 59.3196C347.088 59.6344 346.772 59.6343 346.772 59.9491C346.772 60.2639 346.456 60.5787 346.141 60.8935C346.141 60.8935 346.141 61.2082 346.141 61.8378C345.825 62.4674 345.825 62.7822 345.825 62.7822L345.51 63.0969C345.194 63.0969 344.879 63.4118 344.248 63.7265C343.932 64.0413 343.301 64.3561 342.67 64.9857C342.039 65.6152 341.408 66.2448 341.092 66.5596C338.252 69.0779 335.097 71.911 331.942 75.0588C328.786 78.2067 325.631 81.6693 323.107 85.1319C320.267 88.5945 318.058 92.0572 316.481 95.8347C314.903 99.2973 313.956 102.76 313.956 106.223C313.641 106.223 313.956 106.537 314.272 107.167C314.587 107.796 315.218 108.426 315.85 109.056C316.165 110 316.796 110 317.743 110ZM311.748 39.8029C310.801 42.6359 310.17 45.469 309.223 48.3021C304.806 49.2464 300.073 50.1908 295.34 51.4499C290.607 52.7091 286.189 53.6535 282.087 54.9126C284.612 50.8204 287.136 47.3578 289.976 43.8951C292.816 40.4325 295.971 37.2846 298.811 33.822C300.388 32.248 301.966 30.3593 303.859 28.7854C305.752 26.8967 307.33 25.3227 309.223 23.7488C311.117 22.1749 313.01 20.2862 314.587 18.7123C316.481 17.1384 318.058 15.5645 319.951 13.9905C319.951 13.9905 319.952 13.6757 320.267 13.6757C319.321 16.5088 318.689 19.6566 317.743 22.8045C316.796 25.9523 315.849 28.7854 314.587 31.6184C313.325 34.4515 312.379 37.2846 311.748 39.8029ZM317.743 39.488C318.689 36.9698 319.636 34.4515 320.583 31.9332C321.529 29.4149 322.476 26.8967 323.422 24.3784C324.369 21.8601 325.316 19.3418 325.947 16.5088C326.262 15.8792 326.578 14.9348 326.578 14.3052C326.893 13.6757 326.893 12.7314 327.209 12.1018C327.209 11.1574 327.209 10.8427 327.209 10.5279C326.893 10.2131 326.893 9.89824 326.578 9.58346C326.578 9.26867 326.262 9.26875 326.262 9.26875C326.262 9.26875 326.262 8.95395 325.947 8.95395C325.631 8.32438 325 8.00961 324.684 7.69483C324.053 7.38004 323.422 7.06524 322.791 7.38002C320.898 7.69481 319.32 8.00961 317.743 9.26875C316.165 10.2131 314.587 11.1575 313.641 12.4166C309.539 15.8792 305.752 19.3419 301.966 23.1193C298.18 26.8967 294.709 30.9889 291.238 35.0811C287.767 39.1733 284.296 43.2655 281.141 47.3577C277.985 51.4499 274.83 55.8569 271.675 59.9491C269.466 60.5787 267.257 61.2083 264.733 62.1526C262.524 62.7822 260.316 63.7265 258.107 64.6709C256.529 65.3004 254.636 65.6152 253.058 66.2448C251.165 66.8744 249.587 67.1892 248.01 68.1335C247.063 68.4483 246.432 69.0779 245.801 69.3926C245.17 70.0222 244.854 70.3371 244.539 70.6519C244.223 70.9666 244.223 71.2814 244.539 71.5962C244.854 71.911 245.17 71.911 246.117 71.5962C247.694 71.2814 249.272 70.6518 250.85 70.3371C252.427 70.0223 254.005 69.7074 256.214 69.3926C256.845 69.3926 257.16 69.3927 257.791 69.0779C258.422 68.7631 258.738 68.7631 259.369 68.4483C260.315 68.1335 260.947 68.1335 261.578 68.1335C262.209 68.1335 262.524 68.1335 263.155 67.8187C263.786 67.5039 264.102 67.504 264.733 67.504C265.364 67.504 266.311 67.1892 267.257 66.8744C264.733 70.6518 261.893 74.7441 259.369 78.5215C256.845 82.2989 254.32 86.3911 251.796 90.4833C251.165 91.4276 250.534 92.372 249.903 93.3163C249.272 94.2607 248.641 95.205 247.694 96.1494C247.379 96.4642 247.379 96.4642 247.063 96.779C246.748 97.0938 246.432 97.0938 246.117 97.4086C245.801 97.7234 245.801 98.0381 245.485 98.3529C245.17 98.6677 245.485 98.9825 245.485 99.612C245.801 100.556 246.432 101.501 247.379 102.13C248.325 103.075 249.272 103.389 250.534 103.389C251.481 103.389 252.112 103.389 252.743 103.075C253.374 102.76 253.689 102.445 254.32 102.13C254.636 101.816 254.951 101.186 255.267 100.556C255.582 99.9269 255.583 99.2973 255.898 98.6677C257.16 95.5199 258.738 92.6867 260.316 89.8537C261.893 87.3354 263.786 84.5024 265.68 81.6693C267.573 79.1511 269.151 76.318 270.728 73.7997C272.306 71.2814 273.884 68.7631 276.092 66.2448C276.408 65.93 276.723 65.6153 277.354 65.3005C277.985 64.9857 278.301 64.6709 278.617 64.6709C278.932 64.3561 279.563 64.0413 280.825 63.7265C281.772 63.4118 282.719 63.0969 283.35 63.0969C287.452 61.8378 291.869 60.5787 295.971 59.0048C300.073 57.7456 304.49 56.4865 308.908 55.5421C308.277 58.0604 307.646 60.5787 307.015 63.0969C306.384 65.6152 305.752 68.4483 305.121 71.2814C304.806 72.8553 304.49 74.744 304.175 76.318C303.859 77.8919 303.544 79.7806 303.859 81.6693C304.175 81.6693 304.175 81.9841 304.49 82.2988C304.49 82.9284 304.806 83.2432 305.121 83.8728C305.437 84.1876 305.437 84.5024 305.752 84.8172C306.068 84.8172 306.384 84.5023 307.015 83.8728C308.592 78.8362 309.854 73.7997 311.117 69.0779C312.379 64.3562 313.641 59.6343 315.218 54.283C317.112 53.6534 319.005 53.0238 320.583 52.7091C322.16 52.3943 323.422 52.0795 324.684 51.4499C325.947 51.1352 327.209 50.8204 328.471 50.1908C329.733 49.876 330.995 49.2465 332.573 48.6169C333.204 48.6169 333.519 48.3021 334.15 47.9873C334.782 47.6725 334.782 47.3578 335.097 47.043C335.097 46.7282 334.782 46.4134 334.466 46.4134C333.835 46.4134 333.204 46.4134 332.257 46.4134C329.418 46.7281 327.524 46.7282 326.578 46.7282C325.631 46.7282 324.684 46.7282 324.053 46.7282C323.422 46.7282 322.791 46.7282 322.16 47.043C321.529 47.043 319.951 47.3577 317.743 47.6725C315.849 44.5246 316.796 42.0063 317.743 39.488ZM200.048 55.2273C199.733 54.9125 199.733 54.9126 199.733 54.9126H200.048V55.2273ZM207.306 52.0795C207.621 51.4499 207.937 50.5056 208.253 49.5612C208.568 48.6169 209.199 47.3577 209.515 46.4134C210.146 45.1542 210.461 43.8951 211.092 42.9507C211.092 42.9507 211.092 42.6359 211.408 42.6359C211.723 42.3211 211.723 42.3212 211.408 42.0064H211.723C211.723 41.6916 211.723 41.6916 212.039 41.3768C212.354 41.3768 212.354 41.062 212.039 40.7473C212.354 40.7473 212.67 40.4324 212.67 40.1177C212.67 39.8029 212.986 39.4881 212.986 39.1733C212.986 38.8586 213.301 38.8585 213.301 38.8585L212.986 38.5437C213.301 38.5437 213.616 38.2289 213.616 37.9141C213.932 37.5993 213.932 37.2846 214.248 36.9698C214.248 36.9698 214.563 36.6551 214.879 36.0255C215.194 35.3959 215.51 35.0811 215.825 34.4516C216.141 33.822 216.456 33.5072 216.456 32.8776C216.772 32.2481 216.772 31.9332 216.772 31.9332C217.087 31.6184 217.403 31.3037 217.403 30.9889C217.718 30.6741 218.034 30.3594 218.349 29.7298C218.665 29.1002 219.296 28.1558 219.927 27.5262C220.558 26.5819 220.874 25.9523 221.189 25.3227C221.505 24.6931 221.82 24.0636 221.82 24.0636H222.136C222.767 22.8045 223.714 21.8601 224.976 20.6009C226.238 19.6566 227.185 18.7122 228.131 17.7679H228.447H228.762C228.447 19.3418 227.816 20.9157 227.185 22.4897C226.553 23.7488 225.607 25.3228 225.291 26.5819C222.451 31.6185 219.612 36.0255 216.772 40.4325C213.932 44.8395 210.461 48.9317 206.99 53.3387C206.99 53.3387 206.99 52.709 207.306 52.0795ZM202.257 64.3562C202.573 62.7822 203.204 61.523 203.835 60.2639C204.466 60.2639 204.782 60.2639 205.097 60.5787C205.413 60.8935 205.728 61.2082 206.044 61.523C206.675 62.4674 207.306 63.097 207.621 64.0413C208.252 64.9857 208.568 65.9301 208.883 67.1892C209.514 69.0779 209.515 70.9666 209.515 72.8553C209.515 74.744 209.199 76.318 208.883 77.8919C207.621 82.6137 206.044 87.3354 203.835 91.7424C203.204 93.3163 202.257 94.5755 201.311 96.1494C200.364 97.4085 199.417 98.6677 197.84 99.9268C196.893 99.6121 196.262 98.9825 195.631 97.4086C195 95.5199 194.684 93.9459 195 92.0572C195 90.4833 195.315 88.5946 195.315 87.0206C195.631 84.5023 196.262 82.2989 196.893 80.0954C197.524 77.8919 198.155 75.6884 198.786 73.4849C199.102 72.5405 199.102 71.9109 199.417 71.2814C199.733 70.6518 200.049 69.7075 200.364 69.0779C201.311 67.1892 201.942 65.6153 202.257 64.3562ZM208.253 56.1717C208.253 56.1717 208.253 56.4865 208.253 56.1717C209.515 55.5421 210.777 54.5978 211.723 53.3387C212.67 52.3943 213.932 51.1352 214.563 49.876C215.51 48.6169 216.456 47.3577 217.087 46.0986C218.034 44.8394 218.665 43.5803 219.612 42.3212C219.612 42.3212 219.927 42.3212 219.927 42.0064C219.927 42.0064 219.927 41.6916 220.243 41.6916C220.243 41.6916 220.243 41.3768 220.558 41.3768C220.874 41.3768 220.874 41.062 220.874 41.062C221.189 41.062 221.505 40.7472 221.505 40.4325C221.505 40.1177 221.82 39.8028 221.82 39.488C222.451 38.8585 222.767 38.229 223.398 37.5994C223.714 36.9698 224.345 36.3403 224.66 35.7107C225.607 34.7663 226.553 33.5072 227.185 32.248C227.816 30.9889 228.447 29.7297 229.393 28.7854C229.393 28.4706 229.709 28.1559 229.709 28.1559C230.024 28.1559 230.024 27.841 230.024 27.5262C230.024 27.5262 230.024 27.5262 230.34 27.5262V27.2114C230.34 27.2114 230.34 27.2114 230.34 26.8966C230.971 25.9523 231.286 25.3228 231.918 24.3784C232.233 23.434 232.864 22.8045 233.495 21.8602V21.5454C233.811 21.5454 233.811 21.5454 233.811 21.5454C233.811 21.5454 233.811 21.2305 234.126 21.2305C234.126 20.601 234.442 19.6566 234.757 19.027C235.073 18.3974 235.073 17.4531 234.757 16.8236C234.442 16.5088 234.442 16.1939 234.126 15.8792C233.811 15.5644 233.495 15.2496 233.495 14.9348L229.078 13.6757C228.762 13.9905 228.762 13.9905 228.447 13.9905C228.131 13.9905 228.131 13.9905 227.815 13.9905C226.869 13.9905 225.922 13.9905 225.291 14.62C224.66 15.2496 224.029 15.5644 223.714 16.194C223.398 16.8235 222.767 17.4531 222.452 17.7679C221.82 18.3975 221.505 18.7122 220.874 19.3418V19.6566C220.874 19.6566 220.874 19.6566 220.874 19.9714C220.558 20.2862 220.243 20.601 219.927 20.9157C219.612 21.2305 219.296 21.8601 218.665 22.1749L218.034 23.1193C218.034 23.1193 218.034 23.1193 217.719 23.1193C217.403 23.1193 217.719 23.1193 217.719 23.1193L216.141 25.6375C215.51 26.5819 214.879 27.5263 214.248 28.1559C213.616 29.1002 212.985 30.0445 212.67 30.9889C212.354 31.3037 212.039 31.6184 211.723 31.9332C211.408 32.248 211.408 32.8776 211.092 33.1923C210.777 33.5071 210.461 33.822 210.146 34.4516C209.83 34.7663 209.515 35.3959 209.515 35.7107V36.0255C209.199 36.6551 208.883 36.9698 208.568 37.5994C208.252 38.229 207.937 38.5438 207.937 39.1733C207.621 39.4881 207.621 39.8029 207.306 40.1177C206.99 40.4324 206.675 40.7472 206.675 41.062L206.359 42.0064C206.359 42.0064 206.044 42.3211 206.044 42.6359C206.044 42.9507 206.044 42.9507 206.044 43.2655C206.044 43.2655 205.728 43.2655 206.044 43.2655C205.728 43.8951 205.413 44.8395 205.097 45.469C204.782 46.0986 204.466 47.0429 203.835 47.6725L203.519 49.5612L202.257 51.4499L201.942 53.0239L201.626 53.6534L201.311 54.283L200.995 53.9682C200.364 56.1717 199.417 58.3752 198.471 61.2083C197.524 63.7266 196.578 66.5596 195.631 69.3926C194.685 72.2257 194.053 75.0588 193.107 77.8919C192.476 80.7249 191.845 83.2432 191.529 85.7615C191.214 87.3354 190.898 89.2242 190.898 90.7981C190.898 92.6868 190.898 94.2607 191.529 96.1494C191.845 96.7789 191.845 97.4086 192.476 98.3529C192.791 98.9825 193.107 99.6121 193.738 100.242C193.738 100.242 194.053 100.556 194.369 100.556C194.684 100.556 194.684 100.871 195 100.871C195.316 101.186 195.947 101.186 196.262 101.501C196.893 101.816 197.209 101.816 197.84 101.501C198.471 101.501 198.786 101.186 199.102 101.186C199.417 101.186 199.733 100.871 200.048 100.871H200.364H200.68C201.311 100.871 201.626 100.556 201.626 100.242C201.626 99.9269 201.942 99.9268 202.257 99.612C202.888 98.9825 203.519 98.6677 203.835 98.0381C204.15 97.7233 204.782 97.0938 205.413 96.4642C206.359 95.5198 206.99 94.8903 207.937 93.9459C208.568 93.0016 209.199 92.0572 209.515 91.1129C210.146 90.1685 210.461 89.2241 211.092 88.2797C212.039 86.0763 212.67 84.1875 213.301 81.984C213.932 79.7805 214.563 77.8918 214.879 75.6883C214.879 75.3736 214.879 75.3736 214.879 75.3736H214.563C214.879 74.4293 214.879 73.1701 214.879 71.911C214.879 70.6518 214.879 69.0779 214.563 67.8187C214.248 66.2448 213.932 64.9857 213.616 63.7265C213.301 62.4674 212.354 61.2082 211.723 59.9491C213.617 59.9491 215.194 59.9491 216.141 59.9491C217.087 59.9491 218.35 59.6343 219.296 59.0048C220.243 58.69 221.189 58.3752 222.136 57.7456C223.082 57.1161 224.66 56.8013 226.238 56.1717C226.553 55.8569 226.869 55.5421 227.5 55.2273C228.131 54.9125 228.447 54.5978 229.078 54.283C229.709 53.6534 230.655 53.3387 231.286 53.0239C231.918 52.7091 232.864 52.0795 233.811 51.7647C233.811 51.7647 233.811 51.4499 233.495 51.4499C233.18 51.4499 233.495 51.4499 233.495 51.4499L235.073 50.8203C235.073 50.1908 235.388 49.876 235.704 49.5612C236.019 49.2464 236.335 48.9317 236.335 48.3021C236.019 48.3021 235.388 48.3021 235.073 48.6169C234.757 48.6169 234.442 48.9316 233.811 48.9316L230.971 50.1908C228.762 51.1352 227.185 52.0795 225.607 53.0239C224.029 53.9682 222.767 54.5977 221.189 55.2273C219.612 55.8569 218.35 56.1717 216.456 56.4865C214.879 56.8013 212.67 56.8013 210.146 56.4865C209.83 56.4865 209.83 56.4865 209.515 56.4865L209.199 56.8012C208.568 56.8012 208.568 56.4865 208.253 56.1717C208.253 56.1717 208.568 56.1717 208.253 56.1717ZM188.058 47.9873C188.058 48.9316 187.743 50.1908 187.427 51.4499C186.796 52.7091 186.481 53.9682 185.534 55.2273C184.903 56.4864 184.272 57.1161 183.956 57.7456L183.325 58.3752C182.379 59.3195 181.432 60.2639 180.485 60.8935C179.539 61.5231 178.277 62.1527 176.699 62.7822C176.384 61.8379 176.068 60.8934 176.383 59.9491C176.699 59.0047 177.015 58.0604 177.015 57.4308C177.015 57.1161 177.33 56.4865 177.646 55.5421C177.961 54.5978 178.592 53.9682 178.908 53.0239C179.539 52.0795 179.854 51.4499 180.485 50.5055C181.116 49.876 181.432 49.2464 181.748 48.9316C182.063 48.302 182.379 47.9872 182.694 47.3577C183.01 47.0429 183.325 46.4133 183.641 46.0986L183.956 45.7837C184.272 46.0985 184.587 46.0986 184.903 46.0986C185.218 46.0986 185.534 46.0986 185.849 46.4134C187.427 46.7281 188.058 47.0429 188.058 47.9873ZM193.107 50.8203C193.107 50.8203 193.107 50.5056 193.107 50.1908C193.738 49.876 194.369 49.876 195.315 49.5612C196.262 49.2464 197.209 49.2464 198.155 48.9316C199.102 48.6168 200.048 48.6169 200.995 48.3021C201.942 48.3021 202.888 47.9873 203.835 47.9873C204.782 47.9873 205.728 47.9873 206.044 47.9873C206.359 47.9873 206.675 47.9873 206.99 47.6725C207.306 47.6725 207.306 47.3577 207.621 47.3577C207.621 47.3577 208.252 47.043 208.883 47.043C209.199 47.043 209.199 46.7281 209.515 46.4134C209.83 46.0986 209.515 45.7838 209.199 45.469C208.884 45.469 208.883 45.469 208.883 45.1542C208.883 45.1542 208.568 44.8395 208.253 45.1542C208.253 45.1542 208.252 45.1542 207.937 45.1542C207.937 45.1542 207.937 45.1542 207.621 45.1542H207.306C206.675 44.8395 205.413 44.5246 203.835 44.5246C202.257 44.5246 200.68 44.5246 198.786 44.8394C196.893 44.8394 195.315 45.1543 193.738 45.469C192.16 45.7838 190.898 45.7838 190.267 46.0986L189.32 44.8394C189.32 44.8394 189.005 44.5246 188.689 44.5246C188.374 44.5246 188.058 44.2098 187.743 44.2098C187.427 44.2098 187.112 43.8951 186.796 43.8951C186.48 43.8951 186.165 43.8951 186.165 43.8951H185.849H185.534C185.218 43.5803 184.587 43.5803 183.956 43.2655C183.325 42.9507 183.01 42.6359 182.379 42.6359C181.748 42.6359 181.117 42.9507 180.801 43.5803C180.17 43.8951 179.854 44.5247 179.223 45.1542C178.908 45.7838 178.277 46.4134 177.961 46.7282C177.33 47.3577 176.699 48.302 176.068 49.2464C175.437 50.1908 174.806 51.1352 174.49 51.7647C174.49 51.7647 174.175 51.7647 174.175 52.0795C174.175 52.3942 174.175 52.3943 173.859 52.3943L172.282 57.116C172.282 57.4308 172.282 58.0604 171.966 58.3752C171.651 59.0047 171.651 59.3195 171.966 59.9491C171.651 59.9491 171.65 60.2639 171.65 60.5787C171.65 60.8935 171.65 61.2083 171.65 61.2083C171.65 62.1527 171.966 63.097 172.597 63.7265C173.228 64.3561 173.859 64.9857 174.49 65.3005C175.121 65.6153 176.068 65.9301 177.015 65.9301C177.961 65.9301 178.908 65.9301 179.854 65.6153C180.486 65.6153 181.432 65.6152 182.379 64.9857C183.325 64.3561 184.272 63.7265 185.218 63.0969C186.165 62.4674 187.112 61.2082 188.374 59.9491C189.005 59.6343 189.32 59.0048 189.636 58.0605C189.951 57.1161 190.583 56.4865 190.898 56.1717C191.214 55.8569 191.214 55.2274 191.529 54.9126C191.845 54.283 191.845 53.9682 191.845 53.6534C192.16 53.3386 192.16 53.0238 192.476 52.3943C192.476 51.7647 192.791 51.4499 192.476 50.8203V50.8203H193.107ZM130 64.9857L131.262 64.0413C131.893 63.7266 132.524 63.4117 133.471 63.0969C134.417 62.7822 135.68 62.1527 137.573 61.2083L138.835 60.8935C138.204 61.8379 137.257 62.7822 136.311 63.7265C135.364 64.6709 134.102 65.6153 132.209 66.8744L129.684 68.1335C129.369 68.1335 129.053 68.4483 128.422 68.7631C127.791 69.0779 127.16 69.3926 126.529 69.3926C125.898 69.7074 125.582 69.7074 124.951 69.7074C124.636 69.7074 124.32 69.7074 124.636 69.3926C124.636 69.0779 124.951 69.0779 125.267 68.4483C125.582 67.8188 125.898 67.8188 126.529 67.504C126.845 67.1892 127.16 66.8744 127.791 66.2448C129.369 65.6152 129.684 65.3005 130 64.9857ZM151.456 52.7091L144.83 54.5978L144.199 54.9126C144.199 54.9126 144.199 54.9126 143.883 54.9126H143.568C143.568 54.9126 143.568 54.9126 143.252 54.9126V54.5978C143.252 54.5978 142.937 54.283 142.306 53.9682C141.675 53.6534 141.044 53.3387 140.413 53.3387C139.782 53.3387 139.15 53.0239 138.519 53.0239C137.573 53.0239 136.311 53.0239 135.364 53.0239C134.417 53.0239 133.155 53.3387 132.524 53.3387C131.578 53.6535 130.631 53.6534 129.684 53.9682C130.316 53.3386 130.947 52.709 131.893 52.0795L132.84 51.4499L134.417 50.1908L135.364 49.5612C135.995 49.2464 136.626 48.9317 137.573 48.6169C138.519 48.3021 139.15 47.9872 139.782 47.3577C140.097 47.3577 140.413 47.0429 140.728 46.7282C141.044 46.4134 141.044 46.4134 141.044 46.7282C141.359 46.7282 141.675 46.4134 141.99 46.4134H142.306L143.252 45.7837C143.568 45.7837 143.568 45.469 143.883 45.1542C144.199 44.8395 143.884 44.5247 143.568 43.8951C143.252 43.8951 142.937 43.5803 142.306 43.5803C141.99 43.5803 141.359 43.2655 141.044 43.2655L140.413 43.5803C139.466 43.5803 138.519 43.895 137.573 44.2098C136.626 44.5246 135.68 45.1542 134.733 45.7837C133.786 46.4133 133.155 47.0429 132.209 47.6725C131.262 48.3021 130.631 48.9316 129.684 49.2464L129.369 49.5612C128.422 50.5056 127.791 51.1352 127.16 51.7647C126.529 52.3943 126.214 52.7091 125.898 53.3387C125.898 53.6535 125.583 53.6534 125.583 53.9682C125.583 54.283 125.267 54.5978 125.267 54.9126C125.267 55.2274 125.267 55.5421 125.583 56.1717C125.898 56.4865 126.214 57.1161 126.529 57.4308C126.529 57.4308 126.845 57.4309 126.845 57.7456C127.16 57.7456 127.16 57.7456 127.476 57.7456C128.422 57.7456 129.053 57.7456 129.684 57.7456C130.316 57.7456 130.946 57.4308 131.578 57.4308C132.84 57.1161 134.102 56.8012 135.68 56.8012C137.257 56.8012 138.204 56.8012 138.835 56.8012H139.15C139.782 56.4864 140.097 56.8012 139.466 56.8012C138.835 56.8012 137.888 57.4309 136.626 58.0605C135.364 58.69 133.786 59.3195 131.893 60.2639C130 61.2082 128.422 62.1526 126.845 63.0969C125.267 64.0413 124.005 65.3005 122.743 66.5596C121.481 67.8187 121.165 69.0779 121.165 70.0222C121.165 70.9666 121.481 71.5962 121.796 71.911C122.112 72.2258 123.058 72.8553 124.32 72.8553C124.951 72.8553 125.582 72.8553 126.529 72.5405C127.476 72.2257 128.738 71.9109 130 71.2814C130.315 70.9666 130.946 70.9666 131.578 70.3371C132.209 69.7075 132.84 69.3927 133.471 69.0779C134.102 68.7631 135.048 67.8188 136.311 66.8744C137.257 65.93 138.519 64.9857 140.097 63.7265L140.728 63.0969C141.044 62.7822 141.675 62.1526 141.99 61.523C142.621 60.8934 143.252 59.6344 143.883 57.7456C143.883 57.7456 143.883 57.7456 144.199 57.7456H144.515C144.515 57.7456 145.146 57.7456 146.092 57.4308C147.039 57.1161 147.985 56.8013 148.932 56.4865C149.879 56.1717 151.141 55.8569 152.087 55.5421C153.034 55.2273 153.981 54.9126 154.612 54.5978C155.243 54.5978 155.874 54.283 156.189 53.6534C156.505 53.0238 156.189 52.709 155.243 52.0795H154.296H153.981H153.349C153.034 52.0795 152.718 52.3943 152.718 52.3943C152.403 52.3943 152.403 52.3943 152.403 52.3943C152.087 52.709 151.772 52.7091 151.456 52.7091ZM109.49 48.3021C111.068 46.7282 113.277 45.469 115.485 44.8394C115.485 45.1542 115.485 45.1542 115.17 45.1542C114.223 46.4134 112.961 47.6725 111.699 48.9316C110.437 50.1907 109.175 51.1351 107.913 52.3943C107.281 52.709 106.966 53.0239 106.335 53.3387C105.704 53.6535 105.388 53.9682 104.757 53.9682C106.335 51.7647 107.913 49.876 109.49 48.3021ZM118.325 60.2639C118.641 59.9491 119.272 59.6344 120.218 59.3196C121.165 58.69 122.112 58.3752 123.058 57.7456C124.005 57.1161 124.952 56.4865 126.214 55.8569C127.16 55.2273 128.107 54.5978 128.738 54.283C129.053 53.9682 129.684 53.6534 129.684 53.6534C130 53.6534 130.316 53.3387 130.316 53.3387C130.631 53.0239 130.631 53.0239 130.631 53.0239C130.947 52.7091 131.262 52.3943 131.578 51.7647C131.893 51.45 132.209 51.1351 132.524 50.8203C132.84 50.5055 132.84 50.1908 132.84 49.876C132.84 49.5612 132.524 49.5612 131.893 49.5612C131.893 49.5612 131.893 49.5612 131.578 49.5612H131.262C130.631 49.5612 130.315 49.876 130 49.876C129.684 50.1908 129.369 50.1907 129.053 50.5055C128.107 51.1351 127.16 51.4499 126.214 52.0795C125.267 52.709 124.005 53.0238 123.058 53.6534C121.796 54.283 120.85 54.9125 119.903 55.2273C118.956 55.5421 118.325 56.1717 117.379 56.4865C116.747 56.8013 115.801 57.1161 114.854 57.7456C113.908 58.0604 112.961 58.69 111.699 59.3196C111.068 59.6344 110.437 59.9491 109.806 59.9491C109.175 60.2639 108.228 60.2639 107.597 60.5787C106.65 60.8935 105.704 61.2082 104.757 61.523C103.811 61.8378 102.548 62.1526 101.602 61.8378C100.971 61.523 100.971 60.8935 100.655 60.2639C100.655 59.6343 100.655 59.0047 100.971 58.3752C101.286 57.7456 101.602 57.1161 101.917 56.4865C102.233 55.857 102.548 55.5422 103.179 54.9126C104.126 54.9126 105.388 54.9126 106.335 54.9126C107.281 54.9126 108.228 54.283 108.859 53.9682C111.384 52.3943 113.908 50.1908 116.432 47.9873C116.432 47.6725 116.748 47.3578 117.063 47.043C117.379 46.7282 117.694 46.4133 118.01 46.0986C118.325 45.7838 118.325 45.469 118.956 45.1542C119.272 44.8395 119.587 44.5246 119.587 44.2098C119.587 43.5803 119.272 42.636 118.641 42.0064C118.01 41.3768 116.432 40.7473 114.223 40.7473C113.908 40.7473 113.592 40.7472 113.592 41.062C113.592 41.062 113.277 41.3768 112.961 41.3768C112.33 41.6916 111.699 42.0064 110.752 42.3212C110.121 42.636 109.175 42.9507 108.544 43.5803C106.966 44.5247 105.704 45.469 104.126 47.043C102.549 48.6169 101.286 49.876 100.024 51.4499C100.024 51.7647 99.7087 52.0795 99.7087 52.3943C99.3932 52.709 99.3931 53.0239 99.0776 53.3387C98.7621 53.9682 98.4466 54.9125 98.131 55.5421C97.8155 56.4865 97.5 57.1161 97.1845 58.0605C96.8689 59.0048 96.8688 59.6343 96.8688 60.5787C96.8688 61.523 97.1844 62.1527 97.4999 62.7822C98.131 63.7266 98.7621 64.0413 99.7087 64.6709C100.655 64.9856 101.602 65.3005 102.549 65.3005C103.495 65.3005 104.442 65.3005 105.388 64.9857C106.335 64.6709 107.281 64.6709 107.913 64.3562C108.544 64.0414 109.175 64.0413 109.806 63.7265C110.437 63.7265 111.068 63.4117 111.383 63.0969L118.325 60.2639ZM60.898 96.1494C61.2136 94.8902 61.5291 93.3163 61.8446 92.0572C62.1601 90.7981 62.4756 89.5389 62.7912 88.2797C62.7912 87.965 62.7913 87.965 63.1068 87.965C63.1068 87.3355 63.1068 86.7059 63.1068 86.3911C63.1068 86.0763 63.4222 85.4468 63.7377 84.8172C64.0533 83.558 64.6844 82.6137 64.9999 81.3545C65.3155 80.0954 65.9466 79.151 66.2622 77.8919C66.8932 76.318 67.5241 74.744 68.4707 73.1701C69.1018 71.911 70.0485 70.3371 70.3641 69.0779C68.1553 78.5215 65 87.6502 60.898 96.1494ZM80.4612 48.6169C80.7767 47.9873 80.7767 47.3577 80.7767 46.7282C80.7767 46.0986 80.461 45.7838 79.5144 45.469C78.8834 45.1543 78.2523 44.8394 77.9368 44.8394C77.3057 44.5246 76.9902 44.5246 76.0436 44.8394C75.4126 45.1542 75.097 45.1543 74.7814 45.469C74.4659 45.7838 74.1505 46.4134 74.1505 47.043C74.1505 47.9873 74.1504 48.6168 73.8349 49.2464C73.8349 50.1908 73.5194 51.4499 73.5194 52.7091C73.2039 53.9682 73.2038 55.2274 72.8883 56.4865C72.5728 57.7457 72.2573 59.0047 71.9417 60.2639C71.6262 61.523 71.3106 62.4674 71.3106 63.0969C70.364 64.6709 69.4175 65.9301 68.7864 67.1892C67.8398 68.4483 67.2088 69.7075 66.2622 70.6519C65.6311 71.911 64.6845 73.1701 64.0534 74.4292C63.4223 75.6884 62.7912 77.2623 61.8446 78.8362C60.898 81.3545 59.9513 83.8728 59.0047 86.7058C58.0581 89.5389 57.4271 92.372 57.1116 95.2051C57.1116 95.5198 57.1117 96.1494 56.7961 96.779C56.4806 97.4086 56.7961 98.0381 56.7961 98.6677C56.7961 99.2973 56.7961 99.9269 56.7961 100.556C56.7961 101.186 57.1115 101.501 57.4271 101.816C57.7426 102.13 58.0582 102.13 58.6893 102.445C59.3203 102.445 59.9514 102.445 60.2669 102.445C60.5825 102.445 60.5825 102.13 60.898 101.816C61.2136 101.816 61.2135 101.501 61.2135 101.816H61.5291C61.8447 101.816 62.1601 101.501 62.1601 101.186C62.1601 100.871 62.4757 100.871 62.4757 100.556C63.1068 99.6121 63.7378 98.6677 64.3688 97.4086C64.6844 96.1495 65.3154 95.2051 65.9465 94.2607C67.2086 91.1129 68.4709 87.965 69.4175 84.5024C70.3641 81.3545 71.3107 77.8919 72.5728 74.744C72.5728 74.4292 72.5728 74.1145 72.8883 73.7997C72.8883 73.4849 73.2038 73.1701 73.2038 73.1701C73.5193 72.5405 73.5193 71.9109 73.8349 71.2814C74.1504 70.6518 74.1504 70.0222 74.466 69.3926C75.097 67.8187 75.4126 66.5596 76.0436 64.9857C76.3592 63.4117 76.9902 61.8378 77.6213 60.2639C77.6213 59.9491 77.9368 59.6344 77.9368 59.3196C77.9368 59.0048 77.9369 58.6899 78.2524 58.3752C78.2524 58.0604 78.568 57.7456 78.8835 57.7456C79.1991 57.4309 79.5146 57.116 79.8301 56.8012C81.0922 55.2273 82.3543 53.9682 83.932 52.7091C85.5097 51.4499 86.7718 50.1907 88.665 48.9316C89.9271 47.6725 90.8738 47.0429 91.5049 46.7282C92.136 46.4134 92.4514 46.7282 92.7669 47.043C92.7669 47.3578 92.7669 48.302 92.7669 48.9316C92.4514 49.876 92.136 50.8204 91.5049 51.4499C90.5583 53.3387 89.6116 54.9126 88.0339 56.4865C86.7718 58.0605 85.1941 59.6344 83.932 60.8935C83.3009 61.5231 82.3544 62.1527 81.4078 62.7822C80.4612 63.4118 79.83 64.0413 79.5144 64.9857C79.5144 65.3005 79.5146 65.6153 79.8301 65.6153C80.1456 65.6153 80.4612 65.9301 80.4612 65.9301L83.932 65.3005C84.5631 64.9857 85.1941 64.6709 85.8251 64.0413C86.4562 63.7266 87.0874 63.097 87.7184 62.7822C88.3495 62.1527 88.9805 61.5231 89.6116 61.2083C89.9271 60.5787 90.5582 59.9491 91.1892 59.3196C91.5048 59.0048 92.136 58.0604 93.0826 56.8012C94.0292 55.5421 94.6602 53.9682 95.6068 52.7091C96.5534 51.1351 97.1844 49.876 97.4999 48.3021C98.131 47.0429 98.1311 46.0986 97.8156 45.469C97.8156 45.1543 97.5 44.8394 97.1845 44.8394C96.8689 44.5246 96.8688 44.2099 96.8688 43.8951C96.8688 43.5803 96.5534 43.5803 96.5534 43.2655L96.2379 42.9507H95.6068C95.6068 42.9507 95.2912 42.9507 94.9757 42.6359C94.6602 42.6359 94.3447 42.3212 94.0291 42.3212C93.3981 42.3212 92.4514 42.3211 91.8203 42.6359C91.1893 42.9507 90.2426 43.2655 89.6116 43.5803C87.7184 44.5247 85.8251 45.7837 84.2474 47.3577C82.6698 48.9316 81.0921 50.5056 79.5144 51.7647C79.83 49.876 80.1457 49.2465 80.4612 48.6169ZM44.1748 72.5405C43.8592 73.1701 43.2281 74.4292 42.2815 76.0031C41.3349 77.5771 40.3882 79.4658 39.1261 81.0397C38.1795 82.9284 36.9174 84.5024 35.9708 85.7615C35.0242 87.3354 34.3931 87.965 34.3931 88.2797L33.4465 89.539L33.1311 89.8537C33.1311 89.8537 33.1311 89.8537 33.1311 90.1685L29.9757 94.8903L27.767 97.4086C27.1359 98.0382 26.8204 98.6677 26.1893 99.612C25.5582 100.242 24.9272 100.871 24.6116 101.501C23.9806 102.13 23.665 102.76 23.034 103.075C22.4029 103.704 22.0873 104.019 21.4563 104.649C20.8252 104.963 20.5097 104.963 20.5097 105.278C20.1942 105.593 19.8785 105.593 19.563 105.908C19.2474 106.223 18.9319 106.223 18.6164 106.537C18.3009 106.537 17.9854 106.537 17.6698 106.537C17.3543 106.537 17.3544 106.223 17.3544 105.593C17.0388 104.649 17.3542 103.704 17.9853 102.13C18.6164 100.556 19.5631 98.9825 20.5097 97.4086C21.7719 95.8347 23.0338 93.9459 24.296 92.0572C25.5581 90.1685 27.1359 88.5945 28.3981 86.7058C29.6602 85.1319 30.9222 83.558 32.1843 82.2988C33.4465 81.0397 34.3931 80.0954 35.0242 79.4658L44.1748 72.5405ZM50.1698 59.6344C49.2232 61.8379 48.2767 63.7266 47.3301 65.9301L43.5437 68.4483C43.5437 68.4483 43.5436 68.4483 43.228 68.4483H42.9126C41.966 69.0779 40.7039 70.0222 38.8107 71.2814C37.233 72.8553 35.3397 74.1144 33.4465 76.0031C31.5533 77.5771 29.9756 79.151 28.0824 80.7249C26.5047 82.2988 25.2427 83.558 24.6116 84.1876C24.2961 84.5024 23.6649 85.4468 22.7183 86.3911C21.7717 87.3355 21.1407 88.5945 20.1941 89.8537C19.2475 91.1128 18.301 92.6868 17.3544 94.2607C16.4078 95.8347 15.461 97.0938 14.8299 98.3529C14.1989 99.6121 13.5679 100.871 12.9368 101.816C12.6213 102.76 12.3058 103.39 12.6214 103.704C12.6214 104.649 12.3058 105.278 12.6214 106.537C12.9369 107.796 12.9367 108.111 13.2523 108.741H13.5679C13.5679 109.056 13.5679 109.056 13.8834 109.056C14.1989 109.056 14.199 109.056 14.199 109.37C14.5146 109.685 14.83 109.685 15.4611 109.685C16.0921 109.685 16.7232 109.685 17.6698 109.37C18.6164 109.056 19.2475 109.056 20.1941 108.741C21.1407 108.426 21.7718 108.111 22.4028 107.796C23.0339 107.482 23.665 107.167 23.9805 106.852C24.296 106.537 24.927 105.908 25.8736 105.593C26.5047 105.278 27.4515 104.334 28.3981 103.075C29.3447 101.816 30.6067 100.556 31.8689 98.9825C33.131 97.4086 34.3932 95.8347 35.6553 94.2607C36.9175 92.6868 38.1795 91.1128 39.1261 89.8537C40.0727 88.5945 41.0193 87.3355 41.6503 86.3911C42.2814 85.4468 42.5971 84.8172 42.5971 84.8172C42.9126 84.1876 43.5437 83.2432 44.1748 81.984C44.8058 80.7249 45.4368 79.4658 46.3834 78.2067C47.0144 76.9475 47.9611 75.3736 48.5921 74.1144C49.2232 72.5405 49.8544 71.2814 50.4855 69.7074C51.1165 68.7631 51.7474 68.1336 52.694 67.504C53.6406 66.8744 54.2717 66.5596 54.2717 66.2448C54.2717 65.93 54.5874 65.6153 55.2185 65.3005C55.8495 64.6709 56.4805 64.3561 57.1116 63.7265C57.7427 63.097 58.3737 62.7822 59.0047 62.1526C59.6358 61.8378 59.9515 61.523 59.9515 61.523C60.267 61.2082 60.5824 60.8935 61.2135 60.5787C61.8446 60.2639 62.4758 59.6344 63.1068 59.3196C63.7379 59.0048 64.6844 58.3752 65.9465 57.7456C66.5776 57.1161 67.2087 56.8012 67.2087 56.8012C67.2087 56.8012 67.5243 56.8013 67.8398 56.4865C68.7864 55.857 69.102 55.5421 69.4175 55.5421C69.733 55.5421 69.7329 55.2273 70.0484 55.2273C70.0484 55.2273 70.364 54.9126 70.6795 54.9126C70.9951 54.5978 71.3106 54.283 72.2572 53.9682C72.8883 53.3386 73.8349 53.0238 74.466 52.3943C75.097 51.7647 76.0437 51.4499 76.6747 50.8203H76.9902C76.9902 50.8203 77.3059 50.8203 77.3059 50.5055C77.6214 49.876 78.2525 49.5612 78.8835 49.2464C79.5146 48.9316 80.1456 48.6169 80.7767 48.3021C81.0922 48.3021 81.4077 47.9873 81.7232 47.9873C82.0387 47.6725 82.3542 47.6725 82.6698 47.3577C83.3008 47.0429 83.6164 46.7282 84.2474 46.7282C84.8785 46.7282 84.8787 46.4133 85.1942 45.7837C84.8787 45.7837 84.563 45.7837 84.2474 45.7837C83.9319 46.0985 83.6165 46.0985 83.6165 45.7837L83.932 45.469C83.932 45.469 84.2474 45.469 84.2474 45.1542C82.0387 45.7838 80.1456 46.7281 78.2524 47.6725C76.3592 48.6168 74.466 49.876 72.5728 50.8203C70.6796 51.7647 69.102 52.709 67.8398 53.6534C66.5777 54.5977 65.3154 55.2273 64.3688 55.8569C63.4222 56.4865 62.1602 57.4309 60.898 58.0605C59.6359 58.69 58.3737 59.6344 56.4805 60.8935C56.165 61.2083 56.1649 61.2083 55.8494 61.2083C55.8494 61.2083 55.534 61.5231 55.2185 61.2083C55.8495 59.6344 56.4806 57.7456 56.7961 55.8569C57.1117 53.9682 58.0582 52.0795 58.6893 49.876C58.6893 49.5612 59.0047 48.9317 59.0047 48.6169C59.0047 48.3021 59.3204 47.6725 59.3204 47.043C59.3204 46.4134 59.3204 45.7838 59.3204 45.469C59.3204 44.8395 59.0048 44.5246 58.6893 44.2098C58.0582 43.895 57.1116 43.5803 56.4805 43.5803C55.8494 43.5803 54.9028 43.5803 54.2717 44.2098C54.2717 44.5246 53.9563 44.8395 53.9563 45.1542C53.9563 45.469 53.9563 45.7838 53.9563 46.0986L53.3251 46.4134L53.0097 46.7282C53.0097 46.7282 53.0096 46.7282 52.694 47.043C50.8008 48.6169 48.9078 49.876 47.3301 51.4499C45.4369 53.0239 43.5436 54.283 41.6503 55.5421L41.3349 55.8569C41.0194 55.8569 41.0193 55.8569 40.7038 55.8569C41.0193 55.2273 41.0194 54.9126 41.3349 54.283C41.6504 53.6534 41.6505 53.3387 41.966 53.0239C41.966 52.7091 41.9659 52.3942 42.2815 52.0795C42.597 51.7647 42.597 51.4499 42.9126 51.1351C42.9126 51.1351 43.228 50.8203 43.228 50.5055C43.5436 50.1907 43.5436 49.876 43.8591 49.5612C44.1747 49.2464 44.1747 48.9317 44.4902 48.3021C44.8058 47.9873 44.8057 47.6725 44.8057 47.3577L45.1213 47.043C45.4369 46.4134 45.4369 45.7838 45.1213 45.1542C44.8058 44.5247 44.1747 44.2099 43.5437 43.8951C42.9126 43.5803 41.966 43.5803 41.3349 43.8951C40.7038 44.2099 40.0728 44.5246 39.7572 44.8394C39.4417 45.1542 39.4417 45.469 38.8107 46.0986C38.4951 46.7281 38.1796 47.0429 37.8641 47.6725C37.5486 48.3021 37.2329 48.9316 36.9173 49.2464C36.6018 49.876 36.2864 50.1907 36.2864 50.5055C35.9709 50.8203 35.9708 51.1351 35.9708 51.1351C35.9708 51.4499 35.9708 51.45 35.6553 51.7647C35.6553 51.7647 35.6552 52.0795 35.3397 52.0795C35.3397 52.0795 35.3397 52.0795 35.0242 52.3943C35.0242 52.3943 35.0242 52.3943 35.0242 52.7091C35.0242 53.0238 35.0243 53.0239 34.7088 53.0239C34.7088 53.3387 34.3931 53.6534 34.3931 54.283C34.0776 54.5978 34.0776 55.2273 34.0776 55.5421C34.0776 56.1717 33.7621 56.4865 34.0776 57.116C34.0776 57.7456 34.0776 58.0604 34.3931 58.3752C35.6552 59.3195 36.9175 59.9491 38.8107 59.9491C39.4417 60.2639 40.0727 60.5787 40.7038 60.2639C41.3349 59.9491 41.9659 59.9492 42.2815 59.6344C42.597 59.3196 43.2282 59.0047 44.1748 58.3752C45.1214 57.7456 46.0679 57.1161 47.0145 56.1717C47.9611 55.5421 48.9076 54.5978 49.5387 53.9682C50.1698 53.3386 50.8009 53.0238 50.8009 52.7091C51.7475 55.5421 51.1164 57.7457 50.1698 59.6344ZM66.2622 5.80609V5.49129C66.2622 5.17651 66.5776 5.17649 66.5776 5.17649C66.5776 4.8617 66.5776 4.86168 66.5776 4.86168C66.5776 4.86168 66.5776 4.54695 66.5776 4.23217C66.8932 4.23217 66.8931 4.23215 66.8931 3.91736C66.8931 3.91736 66.8931 3.91735 66.8931 3.60256C66.8931 3.28778 66.5776 3.28783 66.5776 2.97305C66.5776 2.65826 66.5775 2.65824 66.8931 2.65824C66.8931 2.65824 67.2087 2.97303 67.2087 2.65824C66.2621 1.71389 65.6311 1.0843 64.6845 0.769513C63.7379 0.454728 63.1067 0.139905 62.1601 0.139905C61.529 0.139905 60.5825 -0.174881 59.9515 0.139905C59.3204 0.139905 58.6892 0.139905 58.0582 0.139905C55.2184 0.139905 52.3785 0.139924 49.5387 0.454709C46.6989 0.769494 43.8592 1.08426 41.3349 1.71383C39.7572 2.02862 38.4951 2.34346 37.233 2.65824C35.9708 2.97303 34.3932 3.28778 33.1311 3.60256C30.2913 4.54692 27.4514 5.49125 24.9271 6.43561C22.0873 7.37996 19.5631 8.63912 16.7233 9.89826C14.8301 10.8426 12.6213 11.787 10.4126 12.7313C8.20385 13.6757 6.31064 14.62 4.1019 15.8792C3.47084 16.1939 2.83973 16.5088 1.89313 17.1384C1.26206 17.4532 0.631068 18.0827 0 19.027C0 19.6566 0 19.9714 0 20.6009C0 21.2305 0.31538 21.2306 0.630914 21.5454C1.26198 21.8601 1.89317 21.8601 2.52423 21.5454C3.1553 21.2306 3.78629 20.9157 4.41736 20.6009C5.04843 20.2862 5.99507 19.9714 6.62614 19.6566C7.25721 19.3418 7.8882 19.0271 8.51927 18.7123C9.7814 18.0827 11.0437 17.1384 12.6214 16.8236C13.8835 16.194 15.1455 15.8792 16.4076 15.5645C18.3008 14.6201 20.5096 13.9905 22.4028 13.3609C24.296 12.7313 26.5049 12.1018 28.3981 11.787C29.0291 11.787 29.6601 11.4722 30.6067 11.4722C31.2377 11.4722 31.8689 11.1574 32.5 11.1574C35.3398 10.5278 37.864 9.89832 40.7038 9.26875C43.5436 8.63918 46.068 8.00961 48.9078 7.69483C50.1699 7.38004 51.432 7.06522 53.0097 7.06522C54.5874 7.06522 55.8495 6.75039 57.1116 6.43561C58.3737 6.12082 59.9514 6.12082 61.2135 6.43561C62.4756 6.43561 64.0533 6.75043 65.3154 7.06522C65.3154 7.06522 65.9466 6.43567 66.2622 5.80609C66.2622 6.12088 66.2622 6.12088 66.2622 5.80609ZM12.3057 76.9476C12.6212 76.318 12.6213 75.3736 12.9368 74.744C12.9368 74.4292 13.2524 74.1145 13.5679 73.4849C13.8835 73.1701 13.8835 72.5406 14.199 72.2258C14.8301 70.9666 15.1455 70.0223 15.4611 68.7631C15.7766 67.504 16.0922 66.5596 16.7233 65.3005C17.3543 64.0413 17.6699 62.7822 18.3009 61.523C18.932 60.2639 19.2474 59.3196 19.563 58.0605C19.8785 56.8013 20.1941 55.5421 20.8252 54.5978C21.1407 53.3387 21.7718 52.3943 22.4028 51.1351C23.3494 48.9316 24.2961 46.7281 25.2427 44.2098C26.1893 42.0063 27.1358 39.4881 28.0824 37.2846C29.029 35.0811 29.9757 32.8776 30.9223 30.6741C31.5534 29.1002 32.5 27.5262 33.1311 25.9523C33.7621 24.3784 34.7087 22.8045 35.6553 21.5454C35.9708 20.9158 36.6018 20.2862 36.9173 19.6566C37.5484 19.0271 37.5486 18.3975 37.8641 17.7679C37.8641 17.1383 37.864 16.5088 37.5484 16.194C37.2329 15.5644 36.9175 15.2496 36.2864 14.62C35.6554 14.3053 35.0242 13.9905 34.3931 13.6757C33.762 13.3609 33.131 13.3609 32.5 13.6757C32.1844 13.6757 31.5534 13.9905 30.9223 14.3052C30.2912 14.62 29.6601 14.9349 29.6601 15.2496C29.6601 15.5644 29.3446 15.8792 29.6601 16.194C29.9756 16.5088 29.6601 16.8236 29.6601 17.1384C29.3446 18.3975 29.0291 19.6566 28.3981 20.6009C27.767 21.8601 27.4515 23.1193 26.8204 24.3784C26.1893 25.6375 25.8738 26.8967 25.2427 28.1559C24.6117 29.415 24.2961 30.6741 23.6651 31.9332C22.7185 34.4515 21.4563 36.6551 20.5097 39.1733C19.5631 41.6916 18.6165 44.2099 17.3544 47.043C16.4078 49.5612 15.4611 52.0795 14.5145 54.5978C13.5679 57.1161 12.6212 59.9492 11.6746 62.7822C11.3591 64.0414 10.7281 65.3005 10.4126 66.8744C9.78152 68.4483 9.46591 69.7074 9.15037 70.9666C8.83484 71.5961 8.8348 72.2257 8.51927 72.8553C8.20373 73.4849 8.20389 74.4293 7.88835 75.0588C7.57282 75.6884 7.5727 76.318 7.5727 76.9476C7.5727 77.5771 7.57282 77.8919 7.88835 78.2067L8.20381 78.5215C8.20381 78.5215 8.51938 78.5215 8.83492 78.5215C8.83492 78.5215 9.15049 78.8362 9.46602 78.8362C9.78156 78.8362 9.7814 79.151 10.0969 79.151C10.4125 79.151 10.7282 79.151 11.0437 79.151C11.3592 79.151 11.3591 79.151 11.6746 79.151H11.9903C11.9903 78.5214 12.3057 77.8919 12.3057 76.9476Z" fill="#AB8D60"/>
<rect y="89" width="439" height="3" fill="#AB8D60"/>
</svg>
