<svg width="479" height="90" viewBox="0 0 479 90" fill="none" xmlns="http://www.w3.org/2000/svg">
<path d="M476.727 6.47482C476.402 6.15108 476.077 6.15113 475.753 5.82739C475.103 5.82739 474.454 5.82731 473.804 6.15106C473.155 6.4748 472.505 6.7986 472.505 7.12234C472.505 8.09356 472.18 9.06476 471.856 10.036C471.531 11.3309 471.206 12.626 470.557 13.9209C470.232 15.2159 469.582 16.5108 468.933 17.8057C468.283 19.4244 467.634 21.3669 466.984 22.9856C466.335 24.6043 465.685 26.223 465.036 27.8417C464.711 28.4892 464.386 29.7842 463.737 31.0791C463.087 32.3741 462.763 33.9928 462.113 35.2877C461.464 36.5827 461.139 38.2015 460.489 39.4964C459.84 40.7914 459.515 42.0864 459.191 43.0576C459.191 43.3813 458.866 43.705 458.866 44.0288C458.866 44.3525 458.541 44.6763 458.216 44.6763V45C458.216 45 458.216 45 458.541 45C457.892 47.2661 456.917 49.8561 456.268 52.1223C455.618 54.7122 454.969 57.3021 454.319 59.892C453.995 60.5395 453.995 61.5108 453.67 62.482C453.345 63.4533 453.345 64.4245 453.345 65.3957C453.345 65.7194 453.67 66.0431 453.67 66.3669C453.995 66.6906 453.995 66.6906 454.319 67.0144C454.644 67.0144 454.969 67.0143 455.294 67.6618C455.294 67.9855 455.943 68.3093 456.268 68.3093C456.593 68.3093 456.593 67.9856 456.917 67.9856C456.917 67.6618 457.242 67.6618 457.567 67.6618C457.567 66.3668 457.567 65.3956 457.892 64.4244C457.892 64.1007 458.216 63.7769 458.216 63.1295C458.541 61.8345 458.866 60.5395 459.191 59.5683C459.515 58.2733 459.84 57.3022 460.165 56.0072C461.789 51.4748 463.088 47.2662 465.036 43.0576C466.66 38.849 468.283 34.6403 470.232 30.7554C470.557 29.7842 470.881 28.813 471.206 27.8417C471.531 26.8705 472.18 25.8993 472.83 24.9281C473.479 23.3094 474.129 21.6907 474.778 20.072C475.428 18.4533 476.077 16.5108 476.727 14.8921C476.727 14.2446 477.052 13.5971 477.376 13.2734C477.701 12.9497 477.701 12.3022 478.026 11.6547C478.351 11.3309 478.351 11.0072 478.675 10.6835C479 10.3598 479 9.7122 479 9.38846C479 8.74098 479 8.41728 479 8.41728C479 8.09354 478.675 8.0935 478.35 7.76976C477.052 7.12228 477.052 6.79856 476.727 6.47482ZM449.773 56.3309C448.474 56.9784 447.5 57.6258 446.525 57.9496C446.201 58.2733 445.551 58.2734 444.902 58.9209C444.252 59.2446 443.927 59.5683 443.278 59.892C442.953 60.2158 442.304 60.2158 441.979 59.892C441.654 59.892 441.654 59.2446 441.654 58.2733L442.304 56.0072C442.629 55.6835 442.628 55.3597 442.628 55.0359C442.628 54.7122 442.628 54.7123 442.628 54.3885C442.628 54.0648 442.953 53.741 443.278 53.4172V52.7698C443.603 52.4461 443.928 51.7986 443.928 51.1511C444.252 50.5036 444.577 50.1799 444.902 49.5324C445.226 48.8849 445.551 48.5612 445.876 47.9137C445.876 47.2662 445.551 46.6187 445.227 46.6187C444.902 46.2949 444.577 46.295 444.252 46.295H442.953H442.304C441.979 46.295 441.654 46.295 441.654 46.295L441.33 46.6187C441.33 46.9424 441.33 46.9424 441.33 46.9424C441.33 47.2662 441.329 47.2662 441.005 47.5899C441.005 47.5899 440.68 47.9136 440.68 48.2374H440.355C439.706 48.8848 439.381 49.5323 438.732 49.8561C438.082 50.1798 437.757 50.5036 437.108 51.1511C434.835 52.7698 432.886 54.3885 430.938 55.6835C428.989 56.9784 426.716 58.5971 424.443 59.892C424.118 60.2158 423.469 60.5396 422.819 60.8633C422.819 60.2158 423.144 59.8921 423.469 59.2446C423.793 58.9209 424.118 58.2734 424.118 57.6259C424.443 57.3022 424.767 56.9784 424.767 56.6546C424.767 56.3309 425.417 56.0072 425.742 55.6835C426.067 55.3597 426.066 55.3597 426.066 55.0359C426.391 54.7122 427.041 54.7122 427.041 54.0648C427.041 53.4173 427.69 53.4172 428.015 53.0935C428.664 52.446 428.989 52.1222 429.639 51.4748C430.288 50.8273 430.938 50.5035 431.262 49.8561C431.587 49.5323 431.912 49.2086 432.237 49.2086C432.561 48.8849 432.886 48.5611 433.211 48.2374C433.86 47.9136 434.185 47.5899 434.835 47.2662C435.484 46.9424 435.809 46.6187 436.458 46.6187C436.458 46.2949 436.783 45.9712 437.108 45.9712C437.433 45.9712 437.433 45.9712 437.757 45.9712L438.082 45.6475L439.381 45C440.03 44.3525 440.68 44.0287 441.33 43.705C441.654 43.705 441.979 43.3813 441.979 43.705C442.304 43.705 442.304 43.705 442.628 43.3812C442.953 43.3812 442.953 43.0576 443.278 42.7338C443.278 42.4101 443.278 42.0863 443.278 42.0863C443.278 41.7626 442.953 41.4389 442.628 41.1151C442.304 40.7914 441.979 40.4676 441.654 40.1438C441.005 40.1438 440.68 40.1439 440.355 39.8202C440.355 39.8202 440.031 40.1439 440.031 39.8202C439.706 39.8202 439.706 39.8202 439.706 39.8202C438.732 40.1439 438.082 40.4676 437.757 40.7914C437.433 41.1151 436.783 41.7626 436.134 42.0863C435.809 42.0863 435.159 42.7338 433.86 43.3812C432.886 44.0287 431.587 45 430.288 46.295C428.989 47.2662 428.015 48.5612 426.716 49.5324C425.742 50.5036 424.768 51.151 424.118 51.7985C423.469 52.7697 422.819 53.4173 422.17 54.3885C421.52 55.036 420.871 56.0072 420.546 56.9784C420.221 57.6259 419.896 57.9496 419.572 58.5971C419.247 59.2446 418.922 59.8921 418.922 60.5396V60.8633C418.597 62.1583 418.922 62.8057 419.572 63.4532C419.896 63.777 420.221 64.1007 420.871 64.1007C421.52 64.1007 421.845 64.1007 422.494 64.1007C422.819 64.1007 423.144 64.4244 423.469 64.4244H424.443C424.768 64.4244 425.417 64.4245 425.742 64.1007C426.067 63.777 426.716 63.4532 427.041 63.1295C428.664 62.482 430.288 61.5108 431.912 60.5396C431.912 60.2158 432.237 60.2158 432.561 60.2158C432.886 60.2158 432.886 59.892 433.211 59.892C433.211 59.892 433.536 59.5683 433.86 59.5683C434.185 59.5683 434.185 59.2446 434.51 58.9209C434.835 58.5971 435.484 58.5971 435.484 58.2733C435.809 57.9496 436.134 57.6259 436.458 57.3022C436.783 57.3022 436.783 56.9784 436.783 56.9784L437.108 56.6546C437.108 56.6546 437.108 56.6546 437.433 56.6546C437.433 57.3021 437.108 58.2734 437.433 58.9209C437.433 59.5683 437.433 60.2158 437.757 60.8633C438.082 61.1871 438.082 61.8345 438.407 62.1583C438.732 62.482 439.056 62.8057 439.706 63.1295C440.031 63.1295 440.031 63.1295 440.355 63.4532C440.68 63.4532 440.68 63.4532 440.68 63.4532C441.979 63.777 443.278 63.777 444.252 63.4532C445.226 63.1295 446.201 62.8058 447.175 62.1583C448.149 61.5108 448.799 60.8633 449.773 60.2158C450.747 59.5683 451.397 58.9208 452.696 58.5971C452.696 58.5971 453.02 58.5971 453.345 58.2733C453.67 57.9496 454.319 57.6259 455.294 56.6546C455.618 56.0072 455.618 56.0072 455.943 55.6835C456.268 55.6835 456.593 55.3597 456.593 55.3597C457.242 54.7122 457.567 54.3885 457.242 54.0648C456.917 53.741 455.618 54.0647 453.995 54.7122C452.046 55.0359 450.747 55.6834 449.773 56.3309ZM409.505 60.2158C407.881 60.8633 405.932 61.5108 404.633 61.8345C403.01 62.1583 401.711 62.482 400.736 62.482C399.762 62.482 399.437 61.8346 399.762 60.8633C400.087 60.2158 400.412 59.5683 400.736 58.9209C401.061 58.2734 401.71 57.6259 402.035 57.3022C402.36 56.6547 402.685 56.3309 403.334 55.6835C403.984 55.3597 404.309 54.7122 404.958 54.0648L407.231 52.446L408.855 51.1511C409.18 50.8274 409.504 50.5036 409.829 50.5036C410.154 50.5036 410.479 50.1798 410.479 50.1798C410.479 50.1798 410.804 49.8561 411.128 50.1798C411.453 50.1798 411.778 50.1798 411.778 50.1798C411.778 49.8561 412.102 49.8561 412.427 49.8561C412.752 49.8561 412.752 49.8561 413.077 49.8561C413.401 49.5323 414.051 49.2086 414.051 48.8849C414.376 48.8849 414.7 48.5611 415.35 48.2374C415.675 48.2374 415.675 47.9137 415.999 47.2662C415.999 46.9424 416.324 46.295 416.324 45.9712C416.324 45.6475 416.324 45 416.324 44.3525C416.324 44.0288 415.999 43.3812 415.675 43.3812C414.376 43.0575 413.401 42.7338 413.077 42.7338C412.752 42.7338 412.427 42.7338 412.102 43.0576C411.778 43.3813 411.778 43.3813 411.453 43.705C411.128 43.705 410.803 44.0288 410.803 44.0288C410.479 44.0288 410.479 44.3525 410.154 44.3525C409.504 44.6763 409.18 45 408.855 45.3237C408.53 45.6475 408.205 45.9713 407.556 46.295C406.906 46.9425 405.932 47.9136 405.283 48.5611C404.308 49.2086 403.659 49.8561 403.01 50.5036C402.035 51.1511 401.386 51.7985 401.061 52.1223C400.736 52.446 400.087 53.0935 399.437 54.0648C398.463 54.7122 397.814 55.6834 397.164 56.3309C396.515 56.9784 395.865 57.9496 395.54 58.9209C394.566 60.8633 394.241 62.1582 394.566 63.1295C394.891 64.1007 395.54 65.072 396.515 65.7194C396.839 66.0432 397.164 66.0431 397.814 66.3669C398.138 66.6906 398.788 66.6906 399.437 66.6906C400.412 66.6906 401.061 66.6906 401.711 66.6906C402.36 66.6906 403.009 66.6906 403.659 66.3669H403.984C403.984 66.3669 403.984 66.3669 404.308 66.3669C404.308 66.3669 404.633 66.3669 404.958 66.3669C405.283 66.3669 405.608 66.0431 405.608 66.0431C406.257 65.7194 406.582 65.7194 406.906 65.3957C407.231 65.3957 407.556 65.0719 407.881 65.0719C410.479 64.1007 413.401 63.1295 415.675 62.1583C418.273 61.187 420.871 59.8921 423.469 58.5971C423.793 58.5971 424.118 58.2733 424.443 58.2733C424.768 57.9496 425.092 57.6259 425.742 57.3022C426.067 56.9784 426.716 56.6546 427.041 56.3309C427.365 56.0071 427.69 56.0072 428.015 55.6835C428.015 55.3597 428.34 55.0359 428.989 55.0359C429.314 55.0359 429.639 54.7122 429.639 54.7122L429.963 54.3885C430.288 54.0648 430.613 54.0648 430.613 54.0648C430.613 54.0648 430.613 54.0647 430.613 53.741C430.613 53.4173 430.613 53.4172 430.938 53.4172C430.938 53.4172 430.938 53.4172 430.613 53.0935C430.613 53.0935 429.963 53.0935 429.314 53.4172H428.664C428.34 53.4172 428.34 53.4172 428.34 53.4172C427.69 53.741 427.041 53.741 426.391 54.0648C425.742 54.3885 425.092 54.7122 424.767 55.0359C423.468 55.3597 422.819 55.6835 422.17 56.0072C421.52 56.0072 421.195 56.3309 420.871 56.3309C420.546 56.3309 420.546 56.6546 420.221 56.6546C419.896 56.6546 419.896 56.9784 419.572 56.9784C419.247 56.9784 418.597 57.3022 417.948 57.6259C417.298 57.9497 416.324 58.2734 415.025 58.9209C412.427 59.2446 411.128 59.5683 409.505 60.2158ZM394.241 59.892C393.592 59.892 393.267 60.2158 392.942 60.2158C392.618 60.2158 392.293 60.2158 392.293 60.2158C392.293 60.2158 391.968 60.2158 390.994 60.2158C390.02 60.2158 388.721 60.5396 387.097 60.5396C385.473 60.8633 383.525 61.187 381.252 61.5108C378.978 61.8345 376.705 62.482 374.107 63.1295C374.107 62.482 374.432 62.482 374.757 62.482C375.081 61.8346 375.731 61.187 376.705 60.5396C377.679 59.8921 378.978 58.9209 380.277 57.3022C381.576 56.0072 382.875 55.036 384.174 54.0648C385.473 53.0935 386.772 52.1222 387.747 51.4748C388.071 51.4748 388.396 51.1511 389.045 50.8273C389.37 50.5036 389.695 50.1799 389.695 49.5324C390.344 49.5324 390.344 49.5324 390.344 49.2086C390.994 48.8849 391.644 48.2374 391.644 47.5899C392.618 47.2662 392.943 46.295 393.267 45.6475C393.592 44.6762 393.267 43.7051 392.942 43.0576C392.618 42.7338 391.643 42.4101 390.344 42.4101C389.045 42.4101 387.422 42.7338 386.123 43.0576C384.824 43.3813 383.2 43.705 381.576 44.0288C380.277 44.3525 378.978 44.6763 378.329 44.6763C377.679 44.6763 376.705 45 375.731 45C374.757 45.3237 373.782 45.6475 373.133 45.9712C372.159 46.295 371.834 46.9425 371.184 47.5899C370.86 48.2374 370.535 49.2086 370.86 50.1798C370.86 50.8273 371.184 51.151 371.834 51.4748C372.159 51.7985 372.808 51.7985 373.133 51.7985C373.458 51.7985 374.107 51.7985 374.432 51.4748C374.757 51.151 375.081 51.1511 375.406 50.8273L375.731 50.5036C376.056 50.1798 376.705 49.8561 377.679 49.2086C378.654 48.5612 379.303 48.2374 380.277 47.9137C381.252 47.59 382.226 47.2662 382.875 46.9424C383.85 46.6187 384.499 46.6187 385.473 46.6187C385.798 46.6187 386.123 46.6187 386.123 46.9424C386.123 46.9424 385.798 47.2662 385.798 47.5899C385.473 47.9137 385.148 48.2374 384.824 48.5611C384.499 48.8849 384.174 49.2087 383.525 49.5324C383.2 49.8561 382.875 50.1798 382.875 50.1798C382.551 50.1798 382.551 50.5036 382.226 50.5036C382.226 50.5036 381.901 50.5036 381.576 50.8273C381.576 50.8273 381.251 51.151 380.927 51.4748L380.602 51.7985L380.277 52.1223C380.277 52.1223 379.953 52.1223 379.628 52.446C379.303 52.7698 378.978 53.0935 378.654 53.4172C378.329 53.741 378.004 54.0648 377.679 54.3885C377.355 54.7123 377.03 55.0359 377.03 55.0359C376.38 55.6834 375.406 56.3309 374.432 57.3022C373.458 57.9496 372.483 58.9208 371.509 59.892C370.535 60.8633 369.885 61.8345 369.236 63.1295C368.586 64.4244 368.586 65.3957 369.236 66.6906C369.561 67.0144 369.561 67.0144 369.561 67.0144C369.561 67.0144 369.561 67.3381 370.21 67.3381C370.535 67.6619 370.86 67.6618 371.184 67.9856C371.509 67.9856 371.834 68.3093 371.834 67.9856C372.159 67.9856 372.483 67.9856 373.133 67.9856C373.458 67.9856 373.782 67.9856 374.107 67.9856C374.432 67.9856 374.757 67.6618 375.081 67.6618C375.406 67.6618 375.731 67.3381 376.056 67.3381C376.38 67.3381 376.705 67.6619 376.705 67.3381C377.03 67.3381 377.355 67.3381 377.355 67.3381C378.004 67.3381 378.978 67.3381 379.953 67.0144C380.927 66.6906 381.901 66.3668 383.2 66.0431C384.174 65.7194 385.473 65.3957 386.447 65.0719C387.422 64.7482 388.396 64.4244 389.045 64.4244C388.721 64.4244 389.045 64.4244 389.695 64.4244C390.344 64.4244 390.994 64.1007 391.968 64.1007C392.942 64.1007 393.592 63.777 394.566 63.4532C395.216 63.1295 395.865 63.1295 395.865 63.1295C398.138 62.482 399.762 61.8345 400.736 61.187C401.711 60.5395 402.035 60.2158 401.711 59.5683C401.386 59.2445 401.061 58.9209 400.087 58.9209C399.113 58.9209 398.138 58.9208 396.839 59.5683L394.241 59.892ZM352.349 47.5899C353.973 45.9712 356.246 44.6762 358.519 44.0288C358.519 44.3525 358.519 44.3525 358.195 44.3525C357.22 45.6475 355.921 46.9424 354.622 48.2374C353.323 49.5323 352.024 50.5036 350.725 51.7985C350.076 52.1223 349.751 52.4461 349.102 52.7698C348.452 53.0935 348.127 53.4172 347.478 53.4172C349.102 51.151 350.725 49.2086 352.349 47.5899ZM361.442 59.892C361.767 59.5683 362.416 59.2446 363.391 58.9209C364.365 58.2734 365.339 57.9496 366.313 57.3022C367.287 56.6547 368.262 56.0072 369.561 55.3597C370.535 54.7122 371.509 54.0647 372.159 53.741C372.484 53.4173 373.133 53.0935 373.133 53.0935L373.783 52.7698C374.107 52.7698 374.107 52.446 374.107 52.446C374.432 52.1223 374.757 51.7986 375.081 51.1511C375.406 50.5036 375.731 50.5036 376.056 50.1798C376.38 49.8561 376.38 49.5324 376.38 49.2086C376.38 48.8849 376.056 48.8849 375.406 48.8849C375.406 48.8849 375.406 48.8849 375.081 48.8849C374.757 48.8849 374.757 48.8849 374.757 48.8849C374.107 48.8849 373.782 49.2086 373.458 49.2086C373.133 49.2086 372.808 49.5323 372.483 49.8561C371.509 50.5035 370.535 50.8273 369.561 51.4748C368.586 52.1222 367.287 52.446 366.313 53.0935C365.014 53.741 364.04 54.3884 363.066 54.7122C362.091 55.0359 361.442 55.6835 360.468 56.0072C359.818 56.331 358.844 56.6547 357.87 57.3022C356.896 57.6259 355.921 58.2734 354.622 58.9209C353.973 59.2446 353.324 59.5683 352.674 59.5683C352.025 59.892 351.05 59.8921 350.401 60.2158C349.427 60.5395 348.452 60.8632 347.478 61.187C346.504 61.5107 345.205 61.8345 344.231 61.5108C343.581 61.187 343.581 60.5395 343.256 59.892C343.256 59.2446 343.256 58.5971 343.581 57.9496C343.906 57.3021 344.231 56.6547 344.555 56.0072C344.88 55.3597 345.205 55.036 345.854 54.3885C346.828 54.3885 348.127 54.3885 349.102 54.3885C350.076 54.0648 351.05 53.741 351.7 53.4172C354.298 51.7985 356.896 49.5324 359.494 47.2662C359.494 46.9424 359.818 46.6187 360.143 46.295C360.468 45.9713 360.793 45.6475 361.117 45.3237C361.442 45 361.442 44.6763 362.092 44.3525C362.416 44.0288 362.741 43.705 362.741 43.3812C362.741 42.7338 362.416 41.7626 361.767 41.1151C361.117 40.4676 359.494 39.8202 357.22 39.8202C356.896 39.8202 356.571 39.8201 356.571 40.1438C356.571 40.1438 356.246 40.4676 355.921 40.4676C355.272 40.7913 354.622 41.1151 353.648 41.4389C352.674 41.7626 352.024 42.0863 351.375 42.7338C349.751 43.705 348.452 44.6763 346.828 46.295C345.205 47.9137 343.906 49.2086 342.607 50.8273C342.607 51.1511 342.282 51.4748 342.282 51.7985C341.957 52.1223 341.957 52.4461 341.633 52.7698C341.308 53.4173 340.983 54.3885 340.658 55.0359C340.334 55.6834 340.009 56.6547 339.684 57.6259C339.359 58.5971 339.359 59.2446 339.359 60.2158C339.359 61.187 339.684 61.8346 340.009 62.482C340.658 63.4533 341.308 63.7769 342.282 64.4244C343.256 65.0719 344.23 65.0719 345.205 65.0719C346.179 65.0719 347.153 65.0719 348.128 64.7482C349.102 64.4244 350.076 64.4245 350.725 64.1007C351.375 63.777 352.025 63.777 352.674 63.4532C353.324 63.1295 353.973 63.1294 354.298 62.8057L361.442 59.892ZM328.643 65.7194C329.617 62.482 330.591 58.9208 331.566 55.3597C332.54 51.7985 333.514 48.5611 334.488 45.3237C335.462 42.0863 336.437 39.4964 337.086 37.2302C337.736 35.2877 338.385 33.3453 339.035 31.4029C339.684 29.4605 340.334 27.518 340.983 25.2518C341.633 23.6331 341.957 22.3381 342.607 20.7194C343.256 19.1007 343.581 17.8057 344.231 16.187C344.231 15.5396 344.555 15.2158 344.88 14.5683C345.205 13.9209 345.205 13.2734 345.205 12.9496C345.205 12.6259 344.555 12.3022 343.906 11.3309C343.256 10.6834 342.932 10.3597 342.607 10.3597C341.957 10.036 341.633 10.036 340.983 10.3597C340.334 10.3597 340.009 10.6835 339.359 10.6835C338.385 11.6547 337.411 12.3022 336.437 12.9496C335.463 13.5971 334.488 14.2446 333.514 14.8921C332.54 15.5396 331.565 16.1871 330.591 17.1583C329.617 17.8058 328.643 18.777 327.669 19.4244C323.122 23.3093 318.576 27.1943 314.029 31.4029C309.483 35.6115 305.261 39.8201 301.364 44.0288C300.39 44.6762 299.74 45.6474 298.766 46.6187C298.117 47.5899 297.142 48.2374 296.168 48.8849C297.142 45.9712 298.117 42.7338 299.091 39.8202C300.065 36.9065 301.039 33.669 302.014 30.4316C302.988 28.1654 303.637 25.8992 304.611 23.9568C305.586 22.0144 306.235 19.4245 306.885 17.1583C307.21 16.5108 307.21 15.5396 307.534 14.8921C307.859 13.9209 307.859 13.2734 308.184 12.6259C308.184 11.0072 307.859 10.0359 306.56 9.38846C305.586 8.74098 304.612 8.09358 303.637 7.4461C303.313 7.4461 302.663 7.12232 302.338 6.79858C302.014 6.47484 301.364 6.47482 301.039 6.47482C300.39 6.47482 300.065 6.47482 299.416 6.47482C299.091 6.79856 298.441 6.7986 298.117 7.12234C297.792 7.12234 297.467 7.44602 297.467 7.76976C297.143 8.0935 297.142 8.4173 296.818 8.74104C296.493 9.06478 296.168 9.38848 295.844 9.71222C295.519 10.036 295.194 10.3598 294.869 10.6835C288.374 16.5108 282.529 22.9856 277.333 29.4604C272.137 36.259 266.941 43.0575 261.745 50.1798C259.147 53.741 256.549 57.6259 254.276 61.5108C252.003 65.3956 249.405 69.2806 247.132 73.4892C246.482 74.1367 246.157 75.1078 245.183 75.7553C244.534 76.7265 244.209 77.3741 244.209 78.3453C244.209 78.9928 244.534 79.6403 244.858 80.2878C245.183 80.9353 245.833 81.259 246.482 81.5827C247.132 81.9065 248.106 82.2302 248.755 82.5539C249.73 82.8776 250.379 82.8776 251.028 82.5539C252.652 82.2302 253.951 81.5827 254.601 79.964C254.926 78.9928 255.25 78.3453 255.25 77.374C255.25 76.4028 255.575 75.4316 255.9 74.7841C256.224 73.1654 256.874 71.8705 257.848 70.2518C259.472 67.3381 261.096 64.4244 262.719 61.8345C264.343 59.2446 265.967 56.3309 267.915 53.741C269.539 51.1511 271.488 48.2374 273.436 45.9712C275.384 43.3813 277.333 40.7913 278.957 38.5251C281.879 34.6402 284.802 31.0791 288.05 27.518C291.297 23.9568 294.22 20.3957 297.467 17.1583C296.818 20.7195 295.843 24.2806 294.869 27.518C293.895 30.7554 292.921 34.3165 291.947 37.554C291.622 39.1727 290.972 40.7914 290.647 42.4101C290.323 44.0288 289.673 45.9712 289.024 47.5899C288.699 48.2374 288.374 49.2086 288.374 50.1798C288.049 51.151 288.05 51.7986 287.725 52.7698C287.4 53.741 287.4 54.7122 287.075 55.6835C287.075 56.6547 286.75 57.6259 286.75 58.5971C286.75 58.9208 286.75 59.2445 286.75 59.5683C286.75 59.892 286.75 60.2158 286.75 60.5396C286.75 60.8633 287.075 61.187 287.4 61.187C287.725 61.187 288.374 61.5108 288.699 61.5108C289.349 61.5108 289.673 61.5108 290.323 61.8345C290.972 62.1583 291.297 61.8345 291.622 61.8345C292.271 61.5108 292.596 61.187 293.245 60.5396C293.895 59.8921 294.22 59.2446 294.544 58.5971C295.843 56.9784 297.142 55.3597 298.441 54.0648C299.74 52.7698 301.039 51.151 302.338 49.8561C306.885 45 311.431 40.1439 315.978 35.6115C320.524 31.0791 325.395 26.5467 330.591 22.3381C331.565 21.3669 332.864 20.7194 333.839 19.7482C334.813 19.1007 335.787 18.1295 337.086 17.482C336.112 21.3669 335.138 25.2518 333.839 28.4892C332.54 32.0504 331.241 35.6115 329.942 39.8202C329.292 41.4389 328.643 43.705 327.993 46.6187C327.344 49.5323 326.37 52.446 325.395 55.6835C324.421 58.9209 323.772 62.1583 323.122 65.0719C322.473 67.9856 321.823 70.5755 321.498 72.5179C321.498 73.1654 321.174 73.8129 321.174 74.4604C321.174 75.1079 321.174 75.4316 321.498 76.0791C321.823 77.6978 322.797 78.3453 324.421 78.6691C325.071 78.6691 325.72 78.6691 326.045 78.3453C326.37 78.0216 326.694 76.7266 327.019 74.4604C327.019 71.5467 327.669 68.9568 328.643 65.7194ZM213.683 64.7482L214.982 63.777C215.631 63.4532 216.281 63.1294 217.255 62.8057C218.229 62.482 219.528 61.8346 221.477 60.8633L222.776 60.5396C222.126 61.5108 221.152 62.482 220.178 63.4532C219.203 64.4244 217.904 65.3957 215.956 66.6906L213.358 67.9856C213.033 67.9856 212.708 68.3093 212.059 68.6331C211.409 68.9568 210.76 69.2805 210.111 69.2805C209.461 69.6043 209.136 69.6043 208.487 69.6043C207.837 69.6043 208.162 69.6043 208.162 69.2805C208.162 68.9568 208.487 68.6331 208.811 68.3093C209.136 67.9856 209.461 67.6619 210.111 67.3381C210.435 67.0144 210.76 66.6906 211.41 66.0431C212.709 65.3956 213.033 65.0719 213.683 64.7482ZM235.766 52.1223L228.946 54.0648L228.296 54.3885C228.296 54.3885 228.296 54.3885 227.972 54.3885H227.647C227.647 54.3885 227.647 54.3885 227.322 54.3885V54.0648C227.322 54.0648 226.997 53.741 226.348 53.4172C225.698 53.0935 225.049 52.7698 224.399 52.7698C223.75 52.7698 223.1 52.446 222.451 52.446C221.477 52.446 220.178 52.446 219.203 52.446C218.229 52.446 216.93 52.7698 216.281 52.7698C215.307 53.0935 214.657 53.0935 213.358 53.4172C214.008 52.7697 214.657 52.1222 215.631 51.4748L216.605 50.8273L218.229 49.5324L219.203 48.8849C219.853 48.5611 220.502 48.2374 221.477 47.9137C222.451 47.59 223.1 47.2661 223.75 46.6187C224.075 46.6187 224.399 46.295 224.724 45.9712C225.049 45.6475 225.049 45.6475 225.049 45.9712C225.374 45.9712 225.698 45.6475 226.023 45.6475H226.348L227.322 45C227.647 45 227.647 44.6763 227.972 44.3525C228.296 44.0288 227.972 43.7051 227.647 43.0576C227.322 43.0576 226.997 42.7338 226.348 42.7338C225.698 42.7338 225.374 42.4101 225.049 42.4101L224.399 42.7338C223.425 42.7338 222.451 43.0575 221.477 43.3812C220.502 43.705 219.528 44.3525 218.554 45C217.58 45.6474 216.605 46.2949 215.956 46.9424C215.306 47.5899 214.332 48.2374 213.358 48.5611L213.033 48.8849C212.059 49.8561 211.41 50.5036 210.76 51.1511C210.111 51.7986 209.786 52.1223 209.461 52.7698C209.461 53.0935 209.136 53.0935 209.136 53.4172C208.812 53.741 208.811 54.0648 208.811 54.3885C208.811 54.7123 208.812 55.036 209.136 55.6835C209.461 56.0072 209.786 56.6547 210.111 56.9784C210.111 56.9784 210.435 56.9784 210.435 57.3022C210.76 57.3022 210.76 57.3022 211.085 57.3022C212.059 57.3022 212.709 57.3022 213.358 57.3022C214.008 57.3022 214.657 56.9784 215.306 56.9784C216.605 56.6547 217.905 56.3309 219.528 56.3309C220.827 56.3309 222.126 56.3309 223.1 56.3309H223.425C224.075 56.0071 224.399 56.3309 223.75 56.3309C223.1 56.6546 222.126 56.9784 220.827 57.6259C219.528 58.2734 217.904 58.9208 215.956 59.892C214.007 60.8633 212.384 61.8345 210.76 62.8057C209.136 63.7769 207.837 65.0719 206.538 66.3669C205.239 67.6618 204.915 68.9568 204.915 69.928C204.915 70.8993 205.239 71.5468 205.564 71.8705C206.214 72.518 206.863 72.8417 208.162 72.8417C208.812 72.8417 209.461 72.8417 210.435 72.5179C211.409 72.1942 212.709 71.8705 214.008 71.223C214.332 70.8992 214.982 70.8993 215.631 70.2518C216.281 69.9281 216.93 69.2806 217.58 68.9568C218.229 68.6331 219.203 67.6618 220.502 66.6906C221.477 65.7194 222.776 64.7482 224.399 63.4532L225.049 63.1295C225.374 62.8057 226.023 62.1582 226.348 61.5108C226.997 60.8633 227.647 59.5684 228.296 57.6259C228.296 57.6259 228.296 57.6259 228.621 57.6259H228.946C228.946 57.6259 229.595 57.6259 230.569 57.3022C231.544 56.9784 232.518 56.6546 233.492 56.3309C234.467 56.0071 235.766 55.6834 236.74 55.3597C237.714 55.036 238.688 54.7123 239.338 54.3885C239.987 54.3885 240.637 54.0647 240.961 53.4172C241.286 52.7697 240.961 52.446 239.987 51.7985H239.013H238.688H237.714C237.389 51.7985 237.064 52.1223 237.064 52.1223C236.74 52.1223 236.74 52.1223 236.415 52.1223C236.09 52.1223 235.766 52.1223 235.766 52.1223ZM196.796 37.554C196.796 37.8777 196.471 38.2014 196.471 38.8489C196.471 39.1726 196.471 39.4964 196.471 39.8202C196.471 40.1439 196.796 40.4676 197.121 40.4676C197.445 40.4676 197.446 40.4676 197.77 40.4676H198.095C198.42 40.1439 198.744 40.1439 199.069 39.8202C199.394 39.8202 199.719 39.4964 200.044 39.1727H200.368C200.368 39.1727 200.368 39.1727 200.693 39.1727C200.693 38.8489 200.693 38.8489 201.018 38.5251C201.342 38.2014 201.342 38.2015 201.342 37.8777C201.667 37.8777 201.667 37.8777 201.667 37.554C201.667 37.2302 201.667 37.2302 201.992 37.2302V36.9064C201.992 36.9064 201.992 36.9065 201.992 36.5828C202.641 36.259 202.966 35.9353 202.966 34.9641C202.966 33.9928 202.966 33.6691 202.641 33.0216C202.641 33.0216 202.641 33.0216 202.317 33.0216H201.992C201.667 32.6979 201.342 32.3741 200.693 32.6978C200.043 33.0216 199.719 33.3453 199.069 33.669C198.42 33.9928 198.095 34.6402 197.77 35.2877C197.446 35.9352 197.121 36.259 197.445 36.259C197.121 36.5827 197.121 36.9065 196.796 37.554ZM193.224 58.9209C193.548 58.2734 193.873 57.6259 194.198 56.6546C194.523 55.6834 195.172 54.7122 195.822 53.741C196.471 52.7698 196.796 51.7986 197.445 50.8273C197.445 50.8273 197.77 50.8273 197.77 50.5036C197.77 50.5036 197.77 50.1798 198.095 50.1798C198.095 49.8561 198.42 49.5324 198.42 49.5324C198.42 49.2087 198.42 49.2086 198.744 48.8849C199.069 48.2374 199.069 47.9137 199.069 47.2662C199.069 46.9424 199.394 46.6187 199.069 46.295C199.069 45.9713 199.069 45.6475 199.069 45.3237C199.069 45 198.744 44.6763 198.744 44.6763C198.42 44.3525 198.42 44.3525 198.095 44.0288C197.77 44.0288 197.77 44.0288 197.445 44.0288C197.121 44.0288 196.796 43.705 196.471 44.0288C196.146 44.0288 195.497 44.3525 195.172 44.6763C194.198 45.9713 193.548 47.2662 192.574 48.8849C191.925 50.5036 190.951 51.7985 190.301 53.4172C189.976 54.0647 189.976 54.3885 189.652 55.0359C189.327 55.6834 189.002 56.3309 189.002 56.6546C189.002 57.3021 188.677 57.6259 188.353 58.2733C188.028 58.5971 188.028 59.2446 187.703 59.892C187.378 60.8633 187.054 61.8346 187.054 62.482C186.729 63.1295 186.729 64.1007 187.054 64.7482C187.703 65.3956 188.353 66.0431 189.002 66.0431C189.652 66.3668 190.626 66.3669 191.6 66.3669C191.925 66.3669 191.925 66.3669 191.925 66.3669C191.925 66.3669 192.25 66.3668 192.25 66.0431C192.574 66.3668 193.548 66.0431 194.847 65.0719C196.146 64.1007 197.445 63.4533 198.744 62.482C200.368 61.5108 201.667 60.5395 202.966 59.5683C204.265 58.5971 205.239 57.9496 205.889 57.9496C206.538 57.6258 207.513 57.3021 208.162 56.6546C208.812 56.0072 209.786 55.6834 210.111 55.0359C210.76 54.7122 211.409 54.3885 212.059 54.0648C212.708 53.741 213.033 53.0935 213.683 52.7698L214.332 52.1223C214.657 51.7985 214.982 51.4748 214.982 51.1511C214.982 51.1511 214.982 51.1511 214.657 51.1511C214.657 51.1511 214.657 51.1511 214.332 51.1511C214.332 50.8274 214.332 50.8274 214.332 51.1511C214.332 51.1511 214.332 51.4748 214.008 51.4748C213.358 51.4748 212.708 51.7985 212.059 52.1223C211.409 52.446 211.085 52.7697 210.435 53.0935C210.11 53.4172 209.786 53.4173 209.136 53.741C208.487 54.0647 207.837 54.0648 207.513 54.3885C205.889 55.036 204.265 55.6834 202.641 56.3309C201.018 56.9784 199.394 57.9496 198.095 58.2733C196.796 58.5971 195.497 59.2446 194.847 59.892C193.873 60.2158 193.548 60.2158 193.224 60.2158C192.899 60.2158 192.899 59.5683 193.224 58.9209ZM152.631 69.928C152.955 69.928 153.28 69.928 153.605 69.6043C153.929 69.6043 153.93 69.6043 153.93 69.2805C153.93 69.2805 153.929 68.9568 154.254 68.9568C154.254 68.6331 154.254 68.3093 154.254 67.9856C154.254 67.6618 154.254 67.3381 154.579 67.0144L155.228 66.0431C155.228 65.7194 155.228 65.7194 155.228 65.0719C155.228 64.4244 155.228 64.4245 155.228 64.1007C155.228 63.777 155.229 63.4532 155.553 63.1295C155.553 62.8057 155.878 62.482 155.878 62.1583C155.878 61.8345 155.878 61.8345 156.203 61.5108C156.203 61.187 156.528 61.187 156.528 61.187C156.852 60.5395 156.852 60.2158 157.177 59.5683C157.177 58.9208 157.502 58.2733 157.827 57.9496C157.827 57.3021 158.151 56.9784 158.476 56.3309C158.801 55.6834 158.801 55.3597 159.125 54.7122C160.1 51.151 161.074 47.9137 162.373 44.3525C163.672 40.7914 164.646 37.5539 165.62 33.9928L165.945 33.0216C168.543 32.3741 171.141 32.0504 173.739 31.7267C176.337 31.4029 178.935 31.0791 181.533 30.7554V30.4316C181.858 30.4316 181.858 30.108 182.182 30.108C182.507 30.108 182.832 30.1079 183.157 29.7842V29.4604C183.157 29.4604 183.157 29.1367 183.481 28.8129C183.481 28.8129 183.481 28.8129 183.481 29.1367C183.481 29.1367 183.481 28.8129 183.157 28.8129V28.4892C182.182 28.1655 181.533 28.1655 180.883 28.1655C180.234 28.1655 179.26 28.1655 178.61 28.1655C177.636 28.1655 176.662 28.4892 176.337 28.4892C176.012 28.4892 175.687 28.4892 175.363 28.4892C175.038 28.4892 174.713 28.4892 174.389 28.4892C174.064 28.4892 173.414 28.4892 172.115 28.8129C171.466 28.8129 170.816 29.1367 169.842 29.1367C169.193 29.1367 168.218 29.4604 167.569 29.4604C168.218 28.1655 168.868 26.5468 169.517 25.2518C170.167 23.9569 170.816 22.3381 171.466 21.0432C172.44 19.4244 173.089 18.1295 173.739 16.5108C174.388 14.8921 175.038 13.2734 175.688 11.6547C175.688 11.3309 176.012 11.0072 176.012 10.6835C176.012 10.3598 176.012 10.036 176.337 10.036C176.662 9.71224 176.662 9.38854 176.986 9.0648C177.311 8.74106 177.311 8.41726 176.986 8.09352C176.986 7.44604 176.337 7.12232 175.688 6.79858C175.038 6.47484 174.388 6.47482 173.739 6.47482C173.089 6.47482 172.44 6.47484 171.791 6.79858C171.141 7.12232 170.492 7.12236 170.492 7.4461C170.167 7.76984 170.167 7.7698 170.167 8.41728C170.167 9.06476 169.842 9.06472 169.842 9.38846C169.842 9.7122 169.517 10.3597 169.517 10.3597C169.193 10.6835 169.193 11.0072 169.193 11.3309L168.868 11.6547C168.868 11.9784 168.868 11.9785 168.543 12.3022C168.543 12.626 168.218 13.2734 167.894 13.5972C167.569 14.5684 167.244 15.2158 166.919 16.187C166.595 17.1583 166.27 17.8058 165.62 18.777C164.646 20.7195 163.997 22.6619 163.022 24.6043C162.048 26.5468 161.399 28.4892 160.749 30.4316C160.424 30.4316 160.1 30.7554 159.775 30.7554C159.45 30.7554 159.126 30.7554 158.801 31.0791C158.476 31.0791 158.151 31.0792 157.502 31.4029C156.852 31.4029 155.878 31.7267 155.228 31.7267C154.579 31.7267 153.605 32.0503 152.631 32.3741C151.656 32.6978 151.332 32.6978 150.682 32.6978L149.383 33.0216C149.383 33.3453 149.058 33.669 149.058 33.9928C149.058 34.3165 148.734 34.6403 148.734 34.9641C148.734 35.6115 148.409 35.9353 148.409 36.259C148.409 36.5827 148.734 36.9065 149.058 37.2302C149.058 37.2302 149.383 37.5539 149.383 37.2302C149.708 37.2302 150.033 37.2302 150.357 37.2302C150.682 37.2302 151.007 36.9064 151.007 36.9064C151.332 36.5827 151.332 36.5828 151.656 36.5828C151.981 36.5828 152.631 36.259 152.955 36.259C153.28 35.9353 153.929 35.9352 154.254 35.9352C155.228 35.2878 156.203 34.9641 157.177 34.9641C157.827 34.6403 158.801 34.6403 159.45 34.3165C159.126 35.2878 158.801 36.259 158.476 37.2302C158.151 38.2014 157.826 39.1726 157.502 40.1438C156.852 42.7338 155.878 45 155.228 47.2662C154.579 49.5324 153.605 52.1222 152.955 54.7122C152.306 56.6546 151.981 58.9208 151.656 61.187C151.332 63.4532 151.007 65.7194 150.682 68.3093C150.682 68.6331 150.682 68.9568 150.682 69.2805C150.682 69.6043 151.007 69.9281 151.656 70.2518C151.981 70.2518 152.306 69.928 152.631 69.928ZM148.409 56.3309C147.11 56.9784 146.136 57.6258 145.161 57.9496C144.837 58.2733 144.187 58.2734 143.538 58.9209C142.888 59.2446 142.563 59.5683 141.914 59.892C141.589 60.2158 140.94 60.2158 140.615 59.892C140.29 59.892 140.29 59.2446 140.29 58.2733L140.94 56.0072C141.264 55.6835 141.264 55.3597 141.264 55.0359C141.264 54.7122 141.264 54.7123 141.264 54.3885C141.264 54.0648 141.589 53.741 141.914 53.4172V52.7698C142.239 52.4461 142.563 51.7986 142.563 51.1511C142.888 50.5036 143.213 50.1799 143.538 49.5324C143.862 48.8849 144.187 48.5612 144.512 47.9137C144.512 47.2662 144.187 46.6187 143.862 46.6187C143.538 46.2949 142.888 46.295 142.888 46.295H141.589H140.94C140.615 46.295 140.29 46.295 140.29 46.295L139.966 46.6187C139.966 46.9424 139.966 46.9424 139.966 46.9424C139.966 47.2662 139.641 47.2662 139.641 47.5899C139.641 47.5899 139.316 47.9136 139.316 48.2374H138.991C138.342 48.8848 138.017 49.5323 137.367 49.8561C136.718 50.1798 136.393 50.5036 135.744 51.1511C133.47 52.7698 131.522 54.3885 129.574 55.6835C127.625 56.9784 125.352 58.5971 123.079 59.892C122.754 60.2158 122.104 60.5396 121.455 60.8633C121.455 60.2158 121.78 59.8921 122.105 59.2446C122.429 58.9209 122.754 58.2734 122.754 57.6259C123.079 57.3022 123.403 56.9784 123.403 56.6546C123.728 56.3309 124.053 56.0072 124.378 55.6835C124.702 55.3597 124.702 55.3597 124.702 55.0359C125.027 54.7122 125.677 54.7122 125.677 54.0648C126.001 53.741 126.326 53.4172 126.651 53.0935C127.3 52.446 127.625 52.1222 128.275 51.4748C128.924 50.8273 129.249 50.5035 129.898 49.8561C130.223 49.5323 130.548 49.2086 130.873 49.2086C131.197 48.8849 131.522 48.5611 131.847 48.2374C132.496 47.9136 132.821 47.5899 133.471 47.2662C134.12 46.9424 134.445 46.6187 135.094 46.6187C135.094 46.2949 135.419 45.9712 135.744 45.9712C136.068 45.9712 136.068 45.9712 136.393 45.9712L136.718 45.6475L138.017 45C138.666 44.3525 139.316 44.0287 139.966 43.705C140.29 43.705 140.615 43.3813 140.615 43.705C140.94 43.705 140.94 43.705 141.264 43.3812C141.589 43.3812 141.589 43.0576 141.914 42.7338C141.914 42.4101 141.914 42.0863 141.914 42.0863C141.914 41.7626 141.589 41.4389 141.264 41.1151C140.94 40.7914 140.615 40.4676 140.29 40.1438C139.641 40.1438 139.316 40.1439 138.991 39.8202C138.991 39.8202 138.666 40.1439 138.666 39.8202C138.342 39.8202 138.342 39.8202 138.342 39.8202C137.368 40.1439 136.718 40.4676 136.393 40.7914C136.068 41.1151 135.419 41.7626 134.769 42.0863C134.445 42.0863 133.795 42.7338 132.496 43.3812C131.522 44.0287 130.223 45 129.249 46.295C127.95 47.2662 126.976 48.5612 125.677 49.5324C124.702 50.5036 123.728 51.151 123.079 51.7985C122.429 52.7697 121.78 53.4173 121.13 54.3885C120.481 55.036 119.831 56.0072 119.506 56.9784C119.182 57.6259 118.857 57.9496 118.532 58.5971C118.207 59.2446 117.883 59.8921 117.883 60.5396V60.8633C117.558 62.1583 117.883 62.8057 118.532 63.4532C118.857 63.777 119.182 64.1007 119.831 64.1007C120.481 64.1007 120.806 64.1007 121.455 64.1007C121.78 64.1007 122.104 64.4244 122.429 64.4244H123.403C123.728 64.4244 124.378 64.4245 124.702 64.1007C125.352 63.777 125.677 63.4532 126.001 63.1295C127.625 62.482 129.249 61.5108 130.873 60.5396C130.873 60.2158 131.197 60.2158 131.522 60.2158C131.847 60.2158 131.847 59.892 132.172 59.892C132.172 59.892 132.496 59.5683 132.821 59.5683C133.146 59.5683 133.146 59.2446 133.471 58.9209C133.795 58.5971 134.445 58.5971 134.445 58.2733C134.77 57.9496 135.094 57.6259 135.419 57.3022C135.744 57.3022 135.744 56.9784 136.069 56.9784L136.393 56.6546C136.393 56.6546 136.393 56.6546 136.718 56.6546C136.718 57.3021 136.393 58.2734 136.718 58.9209C136.718 59.5683 136.718 60.2158 137.043 60.8633C137.368 61.1871 137.368 61.8345 137.692 62.1583C138.017 62.482 138.342 62.8057 138.991 63.1295C139.316 63.1295 139.316 63.1295 139.641 63.4532H139.966C141.265 63.777 142.563 63.777 143.538 63.4532C144.512 63.1295 145.486 62.8058 146.46 62.1583C147.435 61.5108 148.084 60.8633 149.058 60.2158C150.033 59.5683 150.682 58.9208 151.981 58.5971C151.981 58.5971 152.306 58.5971 152.631 58.2733C152.955 57.9496 153.605 57.6259 154.579 56.6546C154.904 56.0072 154.904 56.0072 155.228 55.6835C155.553 55.6835 155.878 55.3597 155.878 55.3597C156.527 54.7122 156.852 54.3885 156.528 54.0648C156.203 53.741 154.904 54.0647 153.28 54.7122C150.682 55.0359 149.708 55.6834 148.409 56.3309ZM102.944 54.0648C102.62 54.3885 102.62 54.7122 102.295 55.3597C101.97 56.0072 101.645 56.6547 101.321 57.3022C100.996 57.9496 100.996 58.5971 100.671 59.2446C100.671 59.5684 100.671 59.5683 100.671 59.892C100.671 60.2158 100.671 60.2158 100.671 60.2158C100.671 60.5395 100.671 60.5396 100.671 60.8633C100.671 61.1871 100.996 61.187 100.996 61.5108C100.996 61.5108 100.996 61.5108 100.996 61.8345V62.1583C100.996 62.482 100.996 62.8057 101.321 63.1295C101.321 63.4532 101.645 63.777 101.645 63.777C101.97 63.777 102.295 63.777 102.295 64.1007C102.62 64.1007 102.62 64.4244 102.944 64.4244C102.944 64.4244 103.269 64.7482 103.594 64.7482C104.243 65.0719 105.218 65.3957 106.192 65.0719C107.166 65.0719 108.14 64.7481 108.79 64.4244H109.115C109.115 64.4244 109.439 64.4245 109.439 64.1007C109.439 64.1007 109.439 64.1007 109.764 64.1007C112.037 62.8058 113.986 61.5108 115.934 60.2158C117.883 58.9208 120.156 57.6259 122.754 56.6546C123.728 56.6546 124.378 56.331 125.027 56.0072C125.677 55.6835 126.326 55.3597 126.976 55.0359C126.976 55.0359 127.3 55.0359 127.625 55.0359C127.95 55.0359 128.275 55.0359 128.275 55.0359C128.924 54.3885 128.924 54.0648 128.599 54.0648C128.275 53.741 127.625 53.741 126.976 54.0648L120.805 55.0359C119.831 55.3597 118.857 55.6834 117.883 56.3309C116.908 56.9784 115.61 57.6259 114.311 58.2733C113.012 58.9208 111.713 59.5683 110.414 60.2158C109.115 60.8633 107.816 61.5108 106.192 61.8345C106.192 61.5108 106.192 61.187 106.517 60.5396C106.517 59.8921 106.841 59.2446 107.166 58.5971C107.491 57.9496 107.491 57.3021 107.816 56.6546C108.14 56.0072 108.14 55.6834 108.465 55.3597C109.115 53.741 109.764 52.446 110.738 50.8273C111.063 50.5036 111.063 49.8561 111.388 49.5324C111.713 49.2087 111.713 48.5611 111.713 48.2374C111.713 47.9136 111.713 47.5899 111.388 47.5899C111.388 47.5899 111.063 47.2662 110.738 46.9424L110.414 46.6187C110.414 46.6187 110.414 46.295 110.089 46.295C109.764 45.9713 109.439 45.9712 108.79 45.9712H107.166C106.192 45.9712 105.542 46.2949 104.568 46.6187C103.919 46.9424 102.944 47.2662 102.295 47.5899C101.321 48.2374 100.022 48.8848 99.0475 49.8561C98.0732 50.8273 96.7743 51.7986 95.4753 52.7698C94.1764 53.741 93.2021 54.7122 92.2279 55.6835C91.2536 56.6547 90.2793 57.6259 89.3051 58.2733C89.3051 57.6259 89.63 57.3021 89.63 56.6546C89.63 56.3309 89.9546 55.6834 89.9546 55.3597C90.2794 54.7122 90.6042 53.741 90.6042 53.0935C90.9289 52.446 90.9289 51.7986 91.2537 51.1511C91.2537 50.8274 91.2536 50.5036 91.5783 50.1798C91.5783 49.8561 91.903 49.5324 91.903 49.5324C91.903 49.2087 91.9031 48.8849 92.2279 48.5611C92.5526 48.2374 92.5525 47.9137 92.5525 47.5899C93.202 45.9712 93.5269 44.6762 94.5011 43.3812C95.4754 42.0863 95.8 40.7914 96.4495 39.1727C97.099 37.8777 97.7485 36.9065 98.0733 35.6115C98.398 34.3165 99.0476 33.0215 99.3723 32.0503C99.3723 32.0503 99.6971 32.0504 99.3723 31.7267V31.4029C99.3723 30.7554 99.6969 30.1079 100.022 29.4604C100.346 28.813 100.671 28.1654 100.671 27.518C100.996 26.8705 101.321 26.2231 101.97 25.2518C102.295 24.6044 102.62 23.6331 103.269 22.9856C103.269 22.6619 103.594 22.3382 103.594 22.0144C103.919 21.6907 103.919 21.3669 104.244 21.0432C104.244 20.7194 104.568 20.3957 104.568 20.072C104.568 19.7482 104.893 19.4244 104.893 19.1007L105.218 18.777L105.542 18.4533C105.218 18.1295 104.893 17.8058 104.893 17.1583C104.893 16.5108 104.568 16.187 103.919 16.187C102.944 15.8633 102.295 16.1871 101.645 16.5108C101.321 16.5108 100.996 16.8345 100.671 17.482C100.346 18.1295 100.022 18.1295 99.697 18.4533C99.3722 18.777 99.3723 18.7769 99.3723 19.1007C99.3723 19.4244 99.0475 19.4245 98.7228 19.7482C97.7486 22.3381 96.4496 24.6043 95.4753 26.5468C94.1764 28.4892 93.2021 30.7554 92.2279 33.3454L90.9288 35.2877C90.9288 35.6115 90.6042 35.9353 90.6042 36.259C90.6042 36.5827 90.2793 36.9065 90.2793 37.2302C89.9545 37.5539 89.63 37.8777 89.63 38.2015C89.63 38.5252 89.3051 38.8489 89.3051 39.4964C88.9803 39.8202 88.6556 40.4676 88.3309 41.1151C88.0061 41.7626 87.6814 42.0863 87.3567 42.7338C87.0319 44.0288 86.7071 45 86.0576 45.9712C85.4081 46.9425 85.0834 48.2374 84.4339 49.2086C84.4339 49.8561 84.1092 50.1798 84.1092 50.5036C83.7845 50.8273 83.7844 51.151 83.7844 51.4748C83.4596 52.446 83.1349 53.4173 82.8102 54.0648C82.4854 54.7122 82.1607 55.6834 81.836 56.6546C81.836 56.6546 81.8361 56.6547 81.5113 56.9784C80.8618 58.5971 80.5371 60.2158 79.8876 61.8345C79.2381 63.4532 78.9132 65.0719 78.9132 67.0144C78.5884 67.3381 78.5884 67.6618 78.9132 67.9856C79.2379 68.3093 79.238 68.6331 79.5627 68.9568C79.8875 69.2806 80.2122 69.2805 80.5369 69.2805C80.8617 69.2805 80.8618 68.9568 80.8618 68.6331H81.1864H81.5113C81.5113 68.3093 81.5112 68.3093 81.836 68.3093C81.836 68.3093 82.1608 67.9856 82.4855 67.9856C82.8103 67.9856 82.8103 67.6618 83.135 67.6618C83.135 67.6618 83.4597 67.3381 83.4597 67.0144C84.1092 67.0144 84.4339 67.0144 84.4339 66.6906C84.4339 66.6906 84.7587 66.3669 85.0834 65.7194C86.3824 64.7482 87.6813 63.4533 88.6556 62.482C89.9545 61.5108 90.9289 60.5396 92.2279 59.2446C92.8774 58.9209 93.5269 58.2734 94.5011 57.6259C95.4754 56.9784 96.4495 56.0072 97.4237 55.3597C98.398 54.7122 99.3723 53.741 100.347 53.0935C101.321 52.446 101.97 51.7985 102.62 51.4748C103.269 51.151 103.594 51.1511 103.594 51.1511C103.594 51.4748 103.269 51.7986 102.62 52.7698C103.269 53.4173 102.944 53.741 102.944 54.0648ZM80.5369 41.1151C81.1864 40.4676 81.5112 40.1439 81.836 39.4964C82.1607 38.8489 82.4854 38.5252 82.8102 37.8777L83.135 37.554V37.2302C83.4598 37.5539 83.4597 37.5539 83.4597 37.2302C83.7844 36.5827 84.1092 35.9352 84.4339 35.6115C84.7586 35.2877 85.0834 34.6403 85.4081 33.9928C86.7071 32.3741 87.6814 30.7554 88.9804 28.8129C90.2794 26.8705 91.5784 24.9281 92.8774 22.9856C94.1764 21.0432 95.1506 19.1008 96.4495 17.1583C97.4238 15.2159 98.7228 13.5972 99.697 11.9784C100.671 10.3597 101.321 9.06474 102.295 8.09352C103.269 7.1223 103.594 6.4748 103.919 6.15106C103.919 5.82731 103.919 5.82739 103.919 5.82739V5.50363C104.568 4.53241 105.218 3.88487 105.867 2.91365C106.192 1.94242 106.841 0.971222 107.166 0H106.841H106.517C104.568 1.6187 102.944 3.56119 101.321 5.50363C99.697 7.44608 98.3979 9.38848 96.7742 11.3309C95.1505 13.2734 93.5269 15.2158 92.2279 17.482C90.9289 19.4244 89.3052 21.367 87.3567 23.6331C85.4082 26.2231 83.7844 28.4892 82.8102 29.7842C81.8359 31.0792 80.8617 32.3741 80.2122 33.3454C79.5628 34.3166 79.2379 34.964 78.9132 35.2877C78.5884 35.9352 78.2638 36.5827 77.6143 37.554C76.9648 38.5252 76.3154 39.4964 75.0164 41.1151C73.7174 42.7338 72.4183 44.6763 70.4699 47.5899C68.8461 49.5324 67.5471 51.7986 65.9234 54.0648C64.6244 56.3309 63.0008 58.2734 61.377 60.5396C59.7533 62.482 58.4544 64.7482 57.1554 66.6906C55.8564 68.6331 54.2327 70.8992 52.2842 72.5179C51.6347 70.8992 51.3098 68.9568 51.3098 66.6906C50.985 63.4532 50.9852 59.892 50.6605 56.6546C50.3357 53.4172 50.3356 49.5324 50.3356 46.295C50.3356 44.3525 50.3357 42.4101 50.0109 40.7914C50.0109 38.8489 49.6861 37.2302 49.6861 35.2877C49.6861 34.3165 49.6861 33.3453 49.6861 32.6978C49.6861 32.0504 49.3614 31.0791 49.3614 30.4316C49.0367 30.4316 48.7119 30.108 48.3872 30.108C48.0625 30.108 47.7377 29.7842 47.413 29.7842C46.4388 29.7842 45.7892 29.7842 45.4644 30.108C44.8149 30.4317 44.4903 30.7554 44.1655 31.4029C43.5161 31.7266 43.1913 32.0503 42.5418 32.3741C41.8923 32.6978 41.5675 33.0215 41.2428 33.669C37.9953 36.5827 35.0725 39.8201 32.4746 43.3812C29.8766 46.9424 26.9539 50.1798 24.3559 53.741C22.7322 55.6834 21.1085 57.6258 19.4847 59.5683C17.861 61.5107 16.5622 63.4533 14.9384 65.7194C13.6394 67.6619 12.0156 69.9281 10.7166 72.1943C9.41759 74.4604 7.7939 76.4029 6.49492 78.3453C6.81966 76.0791 7.14449 73.8129 7.79398 71.5467C8.44347 69.2805 8.76822 67.0144 9.41771 65.0719C9.74245 63.1295 10.3919 61.187 11.0414 58.9209C11.6909 56.9784 12.0157 55.0359 12.6652 53.0935C12.9899 51.7985 13.3146 50.8274 13.6394 49.5324C13.9641 48.2374 14.2888 47.2662 14.6136 45.9712C15.2631 43.3813 16.2374 41.1151 16.5622 38.5251C17.2116 36.2589 17.8611 33.6691 18.5105 31.4029C18.8353 30.4317 18.8353 29.4605 19.1601 28.4892C19.4848 27.518 19.4849 26.5467 19.8096 25.8993C20.1344 25.2518 20.4591 24.2806 20.7838 23.6331C21.1086 22.9857 21.4332 22.0144 22.0827 21.3669C22.4074 20.3957 22.7322 19.7482 23.3817 18.777C23.7065 17.8058 24.0313 17.1583 24.0313 16.187C24.0313 15.2158 24.0311 14.5683 23.7064 14.2446C23.3817 13.5971 23.0569 13.2734 22.7322 12.9496C22.4075 12.6259 21.758 12.3022 21.1085 11.9784C20.459 11.6547 19.8096 11.3309 19.1601 11.0072C18.5106 11.3309 17.5363 11.6547 16.8868 11.9784C16.2373 12.3022 15.5878 12.9497 15.2631 13.9209C15.2631 14.2447 15.2631 14.2446 15.2631 14.5683C15.2631 14.8921 15.2631 14.8921 15.2631 15.2159C15.2631 15.8633 14.9383 16.8345 14.6136 17.8057C14.2888 18.777 13.9641 19.7482 13.6394 20.3957C12.9899 22.6619 12.3405 25.2518 11.691 27.518C11.0415 30.1079 10.7167 32.3741 10.0672 34.6403C10.0672 35.2878 9.74237 35.6115 9.74237 36.259C9.41763 36.5827 9.41771 37.2302 9.41771 37.554C9.41771 39.1727 9.093 40.7914 8.44351 42.7338C7.79402 44.3525 7.46919 46.295 7.14445 47.9137C6.17021 51.1511 5.52068 54.3884 4.87119 57.9496C4.2217 61.187 3.57228 64.7482 2.92279 67.9856C2.59805 69.6043 2.27334 71.5467 1.94859 73.1654C1.62385 74.7841 1.29906 76.7266 1.29906 78.3453C1.29906 78.9928 0.974198 79.964 0.974198 80.6114C0.974198 81.2589 0.974277 81.9064 0.649531 82.5539C0.649531 83.2014 0.64961 83.8489 0.324865 84.1726C0.324865 84.8201 0 85.1438 0 85.4675C0 85.7913 0.000118921 86.4389 0.324865 86.7626C0.324865 87.0863 0.649531 87.7338 0.649531 88.0575C0.649531 88.705 0.649571 89.0287 1.29906 89.3525C1.62381 89.6762 1.94851 90 2.27326 90C2.59801 90 2.92279 90 2.92279 90C2.92279 90 3.24758 89.6762 3.57232 89.6762C3.89707 89.6762 3.89699 89.3525 3.89699 89.3525C4.22173 89.0287 4.54656 89.0287 5.19605 89.0287C5.84554 89.0287 6.17017 88.705 6.49492 88.3813C7.14441 87.7338 7.79402 86.7626 8.44351 86.1151C9.093 85.1438 9.74241 84.4964 10.3919 83.5252C11.6909 81.9065 12.9899 79.964 14.2889 78.3453C15.5879 76.7266 16.8868 74.7841 17.861 73.1654L24.3559 64.1007C25.9797 62.1583 27.6034 59.892 29.2271 57.9496C30.8508 55.6834 32.4746 53.741 34.0983 51.7985C34.7478 50.5036 35.722 49.2087 36.6962 47.9137C37.6705 46.6187 38.6448 45.3237 39.619 44.0288C40.5933 42.7338 41.5676 41.4388 42.5418 40.4676C43.5161 39.4964 44.815 38.2014 45.7893 37.2302C46.114 41.4388 46.1139 45.9712 46.4386 50.8273C46.7634 55.6835 46.7634 60.2158 47.0881 64.4244C47.0881 65.7194 47.0881 66.6906 47.0881 67.9856C47.0881 69.2805 47.413 70.5755 47.413 71.8705C47.413 73.1655 48.0625 74.1367 48.3872 75.1079C48.7119 76.0791 49.3614 76.7265 50.3356 77.374C50.9851 77.374 51.3099 77.374 51.6347 77.374C51.9594 77.374 52.2841 77.0504 52.6089 77.0504C52.6089 77.0504 52.6089 77.3741 52.6089 77.0504C53.2583 77.0504 53.9078 77.0504 54.5573 77.0504C55.2067 77.0504 55.8564 77.0503 56.5058 76.7266C57.1553 76.7266 57.8048 76.4028 58.1296 76.0791C58.7791 75.7553 59.1037 75.4316 59.4284 74.7841C60.0779 74.1367 60.7275 73.4892 61.377 72.8417C62.0265 72.1942 62.676 71.5468 63.0008 70.5756C63.6503 69.6043 63.975 68.633 64.6245 67.6618C65.274 66.6906 65.5987 65.7194 66.2482 64.7482H66.5729C67.5471 63.1295 68.5214 61.8345 69.4957 60.2158C70.4699 58.5971 71.1193 57.3022 72.4183 55.6835H72.7431L80.5369 41.1151Z" fill="#2C2E35"/>
</svg>
