<svg width="225" height="225" viewBox="0 0 225 225" fill="none" xmlns="http://www.w3.org/2000/svg">
<circle cx="112.5" cy="112.5" r="112.5" fill="#C6B191"/>
<path d="M129.953 131.134C129.953 131.429 129.953 131.724 129.953 131.724C130.691 132.756 130.986 134.083 132.165 134.82C133.345 135.558 134.23 136.59 135.115 137.475C135.704 137.475 136.147 137.475 136.737 137.475C137.621 137.475 138.359 137.622 139.244 137.622C141.751 137.622 144.11 137.77 146.617 137.622C148.239 137.622 149.714 137.327 151.336 137.327C153.4 137.327 155.465 137.327 157.677 137.327C158.856 137.327 159.889 137.18 161.068 137.032C162.985 136.885 165.05 136.59 166.967 136.59C168.884 136.442 170.948 136.59 172.865 136.59C173.603 136.59 174.193 136.885 174.93 137.032C175.667 137.18 176.405 137.18 177.142 137.18C178.174 137.18 178.912 137.77 179.059 138.949C179.206 140.277 179.206 141.751 179.354 143.078C179.501 144.7 179.796 146.175 179.944 147.797C180.091 148.977 180.091 150.304 180.091 151.484C180.091 152.369 180.386 153.253 180.386 154.138C180.534 155.318 180.681 156.35 180.829 157.53C180.976 159.447 181.271 161.364 181.418 163.281C181.566 165.051 181.861 166.82 182.008 168.737C182.156 169.917 182.303 170.949 182.451 172.129C182.598 172.719 182.156 173.161 181.566 173.014C181.123 173.014 180.681 173.014 180.091 173.014C178.764 163.428 177.437 153.696 176.257 143.963C175.815 145.29 174.635 145.143 173.75 145.29C171.096 145.438 168.442 145.29 165.787 145.29C163.133 145.29 160.626 145.438 157.972 145.585C156.792 145.585 155.612 145.733 154.58 145.88C154.58 146.912 154.58 147.797 154.58 148.83C154.58 149.419 153.695 150.157 153.105 150.009C152.515 149.862 152.22 149.419 152.22 148.682C152.22 147.797 152.073 146.912 152.073 145.88C148.829 146.323 145.585 146.765 142.34 147.207C142.34 147.355 142.34 147.355 142.193 147.502C142.93 147.797 143.52 148.092 144.257 148.387C144.995 148.535 145.29 148.977 144.995 149.714C144.847 150.157 144.552 150.599 144.405 151.189C146.174 151.041 147.797 150.894 149.566 150.747C149.861 150.747 150.156 150.747 150.451 150.747C151.483 150.894 152.515 150.894 153.695 151.041C153.99 151.041 154.138 151.484 154.432 151.631C154.138 151.779 153.99 151.926 153.695 151.926C151.778 152.369 149.861 152.664 147.797 152.811C145.29 152.958 142.783 153.401 140.128 153.696C138.801 153.843 137.622 153.843 136.294 153.843C136.294 155.023 136.442 156.203 136.442 157.382C136.589 158.415 136.589 159.594 136.737 160.627C136.884 162.986 137.179 165.493 137.327 167.852C137.474 169.475 137.327 171.244 137.327 172.866C137.327 173.014 137.327 173.309 137.327 173.456C137.327 174.193 137.179 174.783 136.442 175.226C136.147 175.373 135.999 175.816 135.999 176.11C135.704 177.733 135.557 177.88 134.082 177.585C133.787 176.7 133.493 175.815 133.345 174.931H133.198C133.492 176.405 133.935 177.88 133.64 179.502C133.492 180.387 132.755 179.944 132.46 180.239C132.313 180.387 132.018 180.534 132.018 180.682C132.018 180.977 132.018 181.272 132.018 181.567C132.018 182.746 131.281 183.336 130.101 183.189C129.953 183.189 129.806 183.189 129.658 183.189C129.364 183.189 128.921 183.041 128.626 183.041C127.299 183.041 126.119 183.041 124.792 183.041C122.728 183.189 120.516 183.041 118.451 183.336C116.682 183.631 115.059 183.484 113.29 183.631C112.258 183.779 111.078 183.779 110.046 183.779C107.981 183.779 105.917 183.926 103.852 183.926C102.525 183.926 101.198 183.779 99.8706 183.779C98.6909 183.779 97.5111 183.926 96.3314 184.074C94.8568 184.221 93.3822 184.368 91.7601 184.516C89.2532 184.663 86.7462 184.663 84.2393 184.663C82.7647 184.663 81.4376 184.811 79.9629 184.811C77.8984 184.811 75.8339 184.663 73.7694 184.663C71.8524 184.663 70.0828 184.811 68.1658 184.811C65.6589 184.811 63.2994 184.811 60.7925 184.958C59.023 184.958 57.1059 184.958 55.3363 184.958C54.8939 184.958 54.4515 184.958 54.0091 184.811C53.7142 184.663 53.4193 184.516 53.4193 184.221C53.2719 183.926 53.5667 183.631 53.5667 183.336C52.682 182.894 52.6819 181.862 52.5345 180.977C52.387 180.092 52.3871 179.207 52.2396 178.027C50.9124 178.175 49.7327 178.47 48.4055 178.617C48.553 180.387 48.553 182.156 48.7004 183.779C47.8157 183.926 47.0784 184.074 46.341 184.074C46.1936 184.074 45.8986 183.779 45.8986 183.631C45.7511 181.567 45.4562 179.65 45.4562 177.585C45.3087 174.931 45.3087 172.276 45.1613 169.769C45.0138 167.41 45.1613 164.903 44.7189 162.544C44.424 160.332 44.5714 158.12 44.4239 155.908C44.4239 154.876 44.2765 153.696 44.4239 152.664C44.5714 152.074 45.1613 151.484 45.4562 151.041C45.7511 150.599 46.1935 150.009 46.6359 149.567C46.7834 149.419 46.7834 149.272 46.7834 149.124C46.1936 148.387 46.9309 147.945 47.2258 147.355C48.258 146.028 49.2903 144.7 50.3225 143.226C50.7649 142.636 51.0599 141.899 51.5023 141.309C51.7972 140.866 52.0921 140.424 52.3871 140.129C51.9447 139.834 51.5022 139.539 51.0598 139.244C51.6497 138.36 52.3871 138.065 53.4193 137.77C54.7465 137.475 56.0737 137.917 57.4009 137.327C57.8433 137.18 58.4331 137.475 59.0229 137.475C60.0552 137.475 61.0874 137.327 62.1197 137.327C62.1197 137.032 62.1197 136.885 62.1197 136.59C62.2671 135.705 61.5298 134.82 62.857 134.083C61.5298 133.788 62.2671 132.903 62.1197 132.461C62.1197 132.019 62.4147 131.576 61.8248 131.281C61.6773 131.281 61.6773 130.986 61.6773 130.839C61.2349 129.512 61.6773 128.184 61.5299 126.857C61.3824 124.055 61.3824 121.401 61.2349 118.599C61.2349 117.42 61.0875 116.24 61.0875 115.06C60.94 112.701 60.7925 110.489 60.645 108.129C60.645 107.539 60.94 106.802 60.94 106.212C60.94 104.885 60.7925 103.558 60.645 102.231C60.645 102.083 60.645 101.788 60.645 101.641C60.645 101.199 60.94 100.756 60.3502 100.461C60.2027 100.461 60.2026 100.019 60.2026 99.8713C60.2026 98.2492 60.3502 96.4796 60.3502 94.8575C60.3502 94.4151 60.0552 93.8253 60.0552 93.3829C60.0552 93.088 60.0552 92.6456 60.2026 92.3506C60.645 91.0234 60.2027 89.6963 60.0552 88.2216C60.0552 87.6318 60.0552 87.0419 60.2026 86.5995C60.3501 85.8622 60.4976 84.9774 60.7925 84.2401C60.7925 84.0926 60.645 83.9452 60.645 83.7977C60.645 83.5028 60.6451 83.2078 60.4976 82.9129C60.6451 82.9129 60.6451 82.9129 60.7925 82.9129C60.94 83.0604 60.94 83.2078 61.2349 83.5028C61.8248 83.0604 62.4146 82.618 63.0045 82.1756C64.6266 80.9959 66.3962 80.2585 68.3132 79.6687C68.4607 79.6687 68.6081 79.8162 68.7556 79.9636C69.198 78.9314 70.2302 79.3738 70.9675 79.0788C71.8523 78.7839 72.7372 78.6364 73.622 78.489C75.6865 78.1941 77.7509 77.8991 79.9629 77.4567C79.8155 76.8669 79.668 75.9821 79.668 75.2447C79.668 73.4752 79.668 71.5582 79.668 69.7886C79.668 68.7563 79.8154 67.7241 79.8154 66.8393C80.1103 63.3002 80.7002 59.761 82.6173 56.5168C83.6495 54.8947 85.1241 53.715 86.7462 52.6827C87.7785 52.0929 88.6633 51.503 89.6955 50.7657C90.8752 49.8809 92.2025 49.7334 93.5297 49.291C94.8568 48.9961 96.1839 48.5537 97.5111 48.2588C99.2807 47.8164 101.198 47.8164 102.967 48.1113C103.705 48.2588 104.442 48.2588 105.032 48.4063C106.801 48.5537 108.424 48.8486 110.193 49.1436C111.373 49.291 112.552 49.586 113.732 49.8809C114.764 50.1758 115.649 50.6182 116.681 50.9131C118.156 51.3555 119.631 51.7979 120.958 52.2403C121.99 52.6827 123.023 53.1251 124.202 53.5675C125.529 54.0099 126.857 54.5998 128.184 55.0422C129.069 55.3371 130.101 55.7795 130.986 56.2218C133.198 57.2541 135.557 58.2864 137.621 59.4661C139.391 60.3509 140.866 61.3831 142.488 62.4154C143.962 63.4476 145.437 64.4799 146.912 65.5121C147.796 66.102 148.681 66.6918 149.566 67.2817C149.714 67.4291 149.861 67.4292 149.861 67.5766C150.746 68.9038 152.073 69.4937 153.253 70.3784C153.4 70.5259 153.843 70.5259 154.137 70.5259C155.022 70.5259 155.907 70.231 156.792 70.231C158.119 70.231 159.299 70.3784 160.626 70.5259C161.658 70.6734 162.69 70.9683 163.723 71.1158C164.902 71.2632 166.082 71.4107 167.409 71.7056C167.704 71.7056 167.999 71.8531 168.294 71.7056C169.179 71.5581 169.769 72.0005 170.211 72.5904C170.654 73.1803 170.948 73.1803 171.538 72.7379C173.16 73.3277 173.308 74.9498 173.603 76.277C174.193 79.0788 174.783 81.8807 175.372 84.6825C175.52 85.7148 175.667 86.747 175.815 87.9267C175.962 88.9589 176.11 89.9912 176.11 91.0235C176.11 91.4658 175.962 92.0557 175.962 92.4981C176.11 94.4151 176.257 96.4796 176.257 98.3967C176.257 100.461 176.11 102.378 176.11 104.443C176.11 105.033 176.257 105.475 176.257 106.065C176.11 109.014 175.815 111.963 175.667 114.765C175.667 115.65 175.52 116.682 175.372 117.567C175.077 118.894 174.635 120.369 174.34 121.696C174.045 123.171 173.898 124.645 173.603 125.973C174.488 125.973 175.52 126.12 176.405 126.12C177.289 126.12 178.027 126.267 178.911 126.12C179.796 125.973 180.829 127.005 180.534 127.742C180.239 128.184 179.501 128.774 178.911 128.922C177.732 129.217 176.405 129.217 175.225 128.479C174.782 128.184 174.488 127.89 174.193 127.595C173.898 128.774 173.013 129.659 172.128 130.544C171.833 130.691 171.833 131.134 171.538 131.281C171.391 131.429 171.391 131.576 171.243 131.576C170.064 132.166 169.179 133.051 167.852 133.198C167.409 133.198 166.967 133.788 166.525 133.936C165.935 134.231 165.197 134.378 164.46 134.525C162.69 134.968 161.068 135.263 159.299 135.558C158.414 135.705 157.382 135.558 156.497 135.705C154.137 135.705 151.778 135.853 149.419 135.853C147.944 135.853 146.322 135.558 144.847 135.263C142.193 134.82 139.686 134.231 137.032 133.788C135.557 133.493 134.23 133.051 133.492 131.576C133.492 131.429 133.198 131.281 133.05 131.281C132.165 131.134 131.133 131.134 129.953 131.134ZM143.815 77.6042C144.552 77.4567 144.7 77.7517 144.7 78.489C144.7 79.9636 144.552 81.5857 144.552 83.0604C144.552 83.7977 144.405 84.535 144.257 85.2724C144.11 86.747 144.11 88.2217 143.962 89.8438C145.879 89.8438 147.649 89.8438 149.419 89.8438C149.419 86.5995 149.419 83.3553 149.419 80.1111C149.566 80.1111 149.566 80.1111 149.714 80.1111C149.714 80.2586 149.861 80.5535 149.861 80.8484C150.008 80.701 150.156 80.406 150.303 80.2586C150.451 80.5535 150.303 80.8484 150.303 81.1433C150.303 82.323 150.303 83.5028 150.303 84.8299C150.303 86.3046 150.451 87.7792 150.451 89.2539C150.451 89.4013 150.893 89.8438 151.041 89.8438C153.105 89.6963 155.022 89.4013 157.087 89.2539C157.382 89.2539 157.677 88.9589 157.824 88.664C157.972 88.2216 157.824 87.6318 157.824 87.0419C157.677 85.1249 157.677 83.2078 157.234 81.2908C157.087 80.406 157.234 79.9636 157.972 79.2263C158.856 80.7009 158.709 82.3231 158.856 83.7977C159.004 85.4198 159.004 87.0419 159.151 88.664C159.299 88.664 159.299 88.664 159.446 88.664C160.773 88.5166 161.953 88.2216 163.28 88.0742C164.018 88.0742 164.018 87.6318 164.018 87.1894C163.87 85.8622 163.575 84.3876 163.575 83.0604C163.428 80.9959 163.133 78.9314 162.543 77.0143C161.806 77.1618 160.921 77.3093 160.183 77.3093C158.709 77.4567 157.234 77.7517 155.76 77.8991C154.58 78.0466 153.253 77.8991 152.073 77.8991C150.303 77.8991 148.681 77.7517 146.912 77.7517C146.764 77.7517 146.617 77.7517 146.469 77.7517C145.437 77.6042 144.405 77.3093 143.373 77.1618C143.668 77.1618 143.668 77.4567 143.815 77.6042C143.373 77.3093 142.783 76.8669 142.34 76.7194C141.456 76.5719 140.571 76.572 139.981 76.572C138.949 80.5535 137.916 84.3876 137.032 88.3691C138.949 88.664 140.718 88.959 142.488 89.1064C142.635 87.1894 142.635 85.4198 142.783 83.5028C142.783 82.7654 142.93 82.0281 143.078 81.2908C143.225 80.5535 143.225 79.8162 143.373 79.0788C143.373 78.6364 143.668 78.194 143.815 77.6042ZM145.585 69.9361C145.585 69.7886 145.585 69.7886 145.585 69.6411C145.142 69.4937 144.7 69.1987 144.405 69.0513C143.52 68.4614 142.783 67.7241 141.75 67.1342C140.718 66.5443 139.539 65.9545 138.506 65.3647C137.769 64.9223 137.179 64.3324 136.442 63.89C135.557 63.4476 134.525 63.1527 133.64 62.5628C131.428 61.3831 129.216 60.2034 127.004 59.0237C125.529 58.2863 124.055 57.6965 122.285 57.4016C120.663 57.1067 119.188 56.5168 117.566 56.0744C116.092 55.632 114.617 55.3371 113.142 54.8947C111.373 54.4523 109.456 54.1574 107.686 53.715C105.769 53.4201 103.852 53.1251 102.083 52.9777C100.903 52.8302 99.7231 52.9776 98.5434 53.1251C98.3959 53.1251 98.2485 53.2726 98.101 53.2726C97.0688 53.715 96.184 54.3048 95.1517 54.5997C93.972 55.0421 92.7923 55.632 91.9075 56.6643C91.1702 57.5491 90.4329 58.2863 89.6955 59.1711C89.2531 59.761 88.5159 60.0559 88.0735 60.6458C87.6311 61.3831 87.4835 62.4154 87.1886 63.3002C86.8937 64.7748 86.5988 66.3969 86.4513 68.019C86.3038 69.4936 86.0089 71.1158 86.7462 72.5904C87.0412 73.3277 87.1886 73.9176 87.1886 74.6549C87.1886 75.2448 87.3361 75.9821 87.3361 76.572C87.7785 76.572 88.2209 76.572 88.6633 76.572C89.9904 76.7194 91.3177 76.7194 92.4974 76.8669C93.5296 77.0143 94.7094 77.3092 95.7416 77.4567C97.3637 77.7516 98.9858 78.0466 100.608 78.3415C101.64 78.489 102.525 78.7839 103.557 79.0788C104.442 79.3738 105.327 79.5212 106.064 79.9636C107.391 80.7009 108.718 81.7332 109.898 82.618C110.93 83.5028 111.668 84.535 111.52 86.0097C111.373 86.8945 111.373 87.7792 111.373 88.8115C111.373 90.1387 111.373 91.6133 111.373 92.9405C111.373 93.8253 111.52 94.7101 111.52 95.5949C111.373 97.5119 111.225 99.2815 111.078 101.198C111.078 102.821 111.078 104.443 111.078 106.065C111.078 106.95 111.078 107.834 111.078 108.719C111.078 109.457 111.225 110.194 111.225 110.931C111.225 112.406 110.93 113.88 110.93 115.355C110.93 116.387 110.783 117.272 110.93 118.304C111.078 119.337 110.93 120.516 110.93 121.696C110.783 123.023 110.93 124.35 111.078 125.678C111.225 128.184 111.225 130.839 111.373 133.346C111.373 134.083 111.225 134.673 111.225 135.41C112.7 135.41 114.027 135.41 115.354 135.41C116.239 135.41 117.124 135.705 118.009 135.558C119.188 135.263 119.926 135.853 120.958 136.148C121.105 136.148 121.253 136.442 121.253 136.59C121.4 137.475 121.99 138.065 122.58 138.507C123.465 139.392 123.465 140.129 122.58 141.014C123.465 142.046 124.35 142.931 125.087 143.963L125.235 143.816C125.235 142.489 125.087 141.161 125.087 139.982C125.087 138.654 125.087 137.475 125.087 136.148C125.087 135.263 125.382 134.378 124.792 133.493C124.645 133.198 124.792 132.313 124.94 132.166C125.529 131.871 125.677 131.576 125.529 130.839C125.382 130.396 125.677 129.807 125.824 129.364C125.972 128.627 126.414 127.89 125.824 127.152C125.677 127.005 125.824 126.562 125.972 126.415C126.119 126.12 126.267 125.973 126.414 125.825C126.709 125.825 127.004 125.973 127.299 125.973C128.921 125.973 130.543 125.53 132.018 126.415C131.723 124.645 131.575 123.023 131.281 121.254C130.986 119.632 130.691 118.009 130.396 116.387C130.248 114.913 130.248 113.438 130.248 111.963C130.101 110.194 129.953 108.277 129.953 106.507C129.806 104.148 129.806 101.788 129.806 99.4289C129.806 99.2815 129.806 98.9865 129.806 98.8391C129.953 97.2169 130.101 95.4474 130.248 93.8253C130.396 92.2032 130.543 90.5811 130.838 89.1064C130.986 87.9267 131.428 86.747 131.723 85.5673C132.313 82.7654 132.755 80.1111 133.345 77.3093C133.64 76.1296 134.377 74.9498 134.967 73.7701C135.115 73.4752 135.557 73.3277 135.852 73.0328C136.737 72.4429 137.474 71.7056 138.506 71.4107C139.981 70.8209 141.75 70.6734 143.225 70.231C144.405 70.0835 144.995 69.9361 145.585 69.9361ZM93.8245 106.95V107.097C92.7923 107.392 91.9075 107.982 90.8752 108.129C88.6633 108.424 86.5988 108.424 84.3868 108.424C82.6173 108.572 80.8476 108.572 79.0781 108.572C78.6357 108.572 78.1933 108.719 77.7509 108.719C76.2763 108.719 74.9491 108.572 73.622 108.424C71.9999 108.277 70.5252 108.424 68.9031 108.277C67.281 108.129 65.5114 107.687 63.8893 107.392C63.4469 107.392 63.152 107.392 63.2995 107.982C63.4469 108.424 63.5943 108.719 63.4469 109.309C63.2994 110.046 63.5943 110.931 63.5943 111.668C63.5943 111.963 63.7418 112.258 63.5943 112.553C63.4468 113.586 63.2994 114.618 63.7418 115.503C63.8893 115.945 63.8893 116.535 63.8893 116.977C63.8893 117.862 64.0368 118.599 64.0368 119.484C64.0368 120.369 64.3317 121.254 64.1842 121.991C63.7418 123.908 64.1842 125.825 64.0368 127.595C64.0368 127.742 64.3317 128.037 64.4792 128.037C65.5114 128.332 66.6911 128.479 67.7234 128.627C68.9031 128.922 70.0828 129.217 71.2625 129.512C72.1473 129.659 73.032 129.807 73.9168 129.954C74.6541 130.102 75.539 130.102 76.2763 130.102C78.1933 130.249 79.9629 130.396 81.8799 130.544C83.502 130.544 85.1241 130.396 86.7462 130.396C87.0412 130.396 87.3362 130.396 87.6311 130.396C89.1057 130.249 90.7278 130.249 92.2024 130.102C92.7923 130.102 93.3822 129.954 93.972 129.807C95.5941 129.364 97.0688 128.627 98.6909 128.922C98.8384 128.922 99.1333 128.774 99.2807 128.774C100.166 128.479 101.05 127.89 101.935 127.89C103.115 127.89 104.147 127.595 105.032 127.005C105.917 126.562 106.801 125.973 107.686 125.678C108.424 125.383 108.571 125.088 108.571 124.498C108.571 123.466 108.424 122.581 108.424 121.549C108.424 119.042 108.571 116.535 108.571 114.175C108.571 112.996 108.718 111.816 108.718 110.489C108.718 109.899 108.718 109.457 108.718 108.867C108.718 107.834 108.866 106.802 108.866 105.917C107.834 106.212 106.949 106.36 106.064 106.655C105.327 106.95 104.737 107.539 104 106.95C103.852 106.802 103.41 106.655 103.41 106.507C103.41 106.36 103.557 105.917 103.705 105.917C104.589 105.328 105.622 104.738 106.654 104.148C106.801 104 106.949 104 107.096 103.853C107.096 103.705 107.096 103.705 106.949 103.558C106.506 103.558 105.917 103.558 105.474 103.705C104.884 103.853 104.295 104 103.705 104.148C100.166 104.738 96.6264 105.328 92.9398 105.77C90.4329 106.065 87.926 105.917 85.4191 105.77C84.0919 105.77 82.9122 105.622 81.585 105.622C79.373 105.622 77.0136 105.622 74.8017 105.475C72.5897 105.327 70.3777 105.033 68.1658 104.738C66.6911 104.59 65.3639 104.443 63.8893 104.295C63.5943 104.295 63.2994 104.148 63.0045 104.148C63.0045 104.148 63.0045 104.295 62.857 104.295C63.0045 104.443 63.152 104.59 63.2995 104.59C66.2487 105.033 69.198 105.622 72.1473 106.065C73.7694 106.36 75.244 106.507 76.8661 106.802C78.1933 106.95 79.668 107.245 80.9952 107.097C83.0597 107.097 85.2716 106.802 87.3361 106.655C89.2532 106.655 91.1702 106.802 93.0872 106.802C93.6771 106.802 93.6771 106.95 93.8245 106.95ZM109.603 131.576C108.276 131.871 106.949 131.871 105.769 132.166C104.884 132.461 104.147 132.903 103.115 133.051C101.788 133.198 100.608 133.493 99.2807 133.788C99.1333 134.378 98.101 134.673 97.3637 134.673C96.4789 134.525 95.5941 134.673 94.5618 134.673C94.5618 134.82 94.5618 134.968 94.5618 135.115C93.6771 135.41 92.6449 135.558 91.7601 135.853C91.7601 135.558 91.7601 135.41 91.7601 135.115C89.6956 135.263 87.7785 135.41 85.5665 135.558C86.7463 135.263 87.7785 134.968 88.8108 134.82C90.7278 134.378 92.4974 133.936 94.4144 133.788C95.8891 133.788 97.3637 133.198 98.8383 132.756C100.166 132.461 101.345 131.871 102.672 131.576C104 131.281 105.327 130.986 106.654 130.102C107.244 129.659 107.981 129.512 108.571 129.217C109.013 129.069 109.161 128.922 109.013 128.479C109.013 128.184 108.866 128.037 108.866 127.89C107.539 128.184 106.212 128.332 105.032 128.627C104.295 128.774 103.41 128.922 102.82 129.364C102.23 129.807 101.788 129.659 101.345 129.659C100.608 129.659 99.5757 129.069 99.1333 130.249C98.9858 130.544 97.5111 130.691 97.0688 130.396C95.889 129.807 94.7093 129.954 93.6771 130.544C93.5296 130.691 93.2347 130.839 93.0872 130.986C92.2024 131.134 91.3176 131.281 90.4329 131.429C89.843 131.576 89.4006 131.576 88.8108 131.576C86.4513 131.724 83.9444 132.019 81.585 132.166C80.7002 132.313 79.8155 132.461 78.7832 132.461C77.0136 132.461 75.0966 132.461 73.327 132.313C71.8524 132.166 70.5252 131.871 69.198 131.724C67.281 131.429 65.5114 131.134 63.4469 130.839C63.4469 131.134 63.2995 131.429 63.2995 131.724C63.8893 131.724 64.4791 131.724 64.9215 131.871C67.281 132.166 69.4929 132.314 71.8524 132.608C71.9998 132.608 72.1473 132.608 72.2947 132.608C74.5067 132.756 76.7187 133.051 78.9306 133.198C80.8477 133.346 82.9121 133.051 84.9767 133.051C86.8937 133.051 88.6633 133.051 90.5804 133.051C91.0228 133.051 91.3177 133.051 91.7601 133.051C91.7601 133.198 91.7601 133.198 91.7601 133.346C90.2854 133.641 88.8108 134.083 87.3361 134.378C87.3361 134.378 87.4836 134.378 87.6311 134.525C86.5988 134.673 85.5666 134.82 84.3868 134.82C83.3546 134.968 82.1749 134.82 81.1426 135.263C79.9629 135.705 78.7832 135.558 77.7509 135.558C76.4238 135.705 75.0966 135.41 73.7694 135.263C72.4422 135.263 71.115 135.263 69.7878 135.263C69.4929 135.263 69.0505 135.115 68.7556 135.115C67.7233 134.968 66.6911 134.82 65.3639 134.82C65.3639 135.853 65.5114 136.737 65.5114 137.622C65.5114 137.77 65.5114 137.917 65.5114 138.065C65.5114 138.36 65.3639 138.802 65.3639 139.097C65.5114 140.572 65.8063 141.899 66.1012 143.373C66.2487 143.816 66.3962 144.406 66.6911 144.406C68.0183 144.995 68.6082 146.47 70.3777 146.175C70.8201 146.028 71.4099 146.175 71.9998 146.175C74.3592 146.47 76.7186 146.765 79.0781 146.912C80.2578 147.06 81.4375 146.912 82.7647 146.912C84.9767 146.765 87.1887 146.765 89.5481 146.618C90.138 146.618 90.7278 146.618 91.3177 146.618C93.3822 146.323 95.4466 146.028 97.5111 145.88C98.6908 145.733 99.8706 145.733 100.903 145.438C102.967 144.995 104.884 144.258 106.949 143.668C108.129 143.226 109.013 142.489 109.308 141.309C109.456 140.424 109.456 139.539 109.603 138.654C109.456 136.442 109.456 134.083 109.603 131.576ZM62.7096 101.493C64.7741 101.936 66.6911 102.378 68.6081 102.673C70.3777 102.968 72.1472 103.263 73.9168 103.558C75.6864 103.853 77.3085 104 79.0781 104.148C79.9629 104.148 80.8477 104 81.7325 104C83.5021 104 85.419 104.148 87.1886 104.148C90.1379 104.295 92.9398 104 95.7416 103.558C97.9536 103.263 100.313 102.821 102.525 102.378C104 102.083 105.327 101.788 106.801 101.346C107.391 101.199 107.981 100.756 108.571 100.609C109.013 100.461 109.161 100.314 109.161 99.8713C109.161 98.3967 109.161 96.922 109.161 95.5949C109.161 94.1202 109.161 92.6456 109.161 91.3184C109.161 90.7285 109.013 89.9912 109.013 89.5488C107.834 89.6963 106.506 90.2861 105.474 89.9912C103.705 89.5488 102.083 89.8437 100.46 89.9912C98.8383 90.1387 97.2162 90.876 95.5941 91.0235C94.7093 91.1709 93.8245 92.0557 92.6448 91.1709C92.2024 90.876 91.3177 91.0235 90.7278 91.1709C90.2854 91.1709 89.843 91.4658 89.4006 91.4658C87.0412 91.6133 84.6818 91.7608 82.1749 91.6133C79.3731 91.6133 76.5712 91.3184 73.7694 91.0235C72.8846 91.0235 71.9998 90.7285 71.2625 90.4336C70.2302 89.9912 69.198 89.6963 68.1658 89.4013C67.5759 89.2539 66.8386 89.4013 66.2487 89.2539C65.8063 89.1064 65.3639 88.8115 64.9215 88.5165C65.069 88.5165 65.2165 88.5165 65.5114 88.5165V88.3691C65.069 88.2217 64.6266 88.0742 64.0368 87.7792C63.5944 92.4981 63.152 96.922 62.7096 101.493ZM70.6727 153.253V153.401C71.1151 153.401 71.41 153.401 71.8524 153.401C73.1796 153.401 74.5068 153.401 75.8339 153.401C77.0136 153.401 78.1933 153.696 79.373 153.548C81.585 153.253 83.6495 153.401 85.8615 153.401C87.3361 153.401 88.6633 153.401 90.1379 153.253C91.6125 153.106 93.0872 152.959 94.5618 152.959C95.0042 152.959 95.4467 153.106 95.7416 153.106C96.7739 152.959 97.6587 152.811 98.6909 152.664C100.166 152.516 101.788 152.516 103.262 152.369C104.737 152.221 106.212 152.074 107.686 151.779C109.013 151.631 110.341 151.336 111.668 151.189C112.995 151.041 114.47 151.041 115.797 151.189C118.009 151.336 120.073 150.894 122.285 150.747C123.17 150.599 124.202 150.304 125.087 150.599C126.119 150.747 127.004 150.747 128.036 150.599C127.889 150.304 127.741 150.157 127.594 149.862C125.972 148.092 124.202 146.175 122.433 144.406C121.253 143.226 119.483 140.277 119.041 138.654C118.894 138.36 118.599 138.212 118.304 138.065C118.009 137.917 117.566 138.065 117.124 138.065C115.207 138.36 113.29 138.802 111.225 138.36C111.225 138.949 111.078 139.392 111.078 139.982C111.078 139.982 111.225 139.982 111.225 139.834C111.52 140.424 111.963 141.014 111.963 141.456C111.815 142.341 111.52 143.226 111.225 144.111C111.078 144.553 110.636 145.143 110.193 145.438C109.161 146.028 107.981 146.47 106.949 146.912C105.179 147.502 103.41 148.24 101.64 148.535C98.8384 148.977 96.0365 149.272 93.2347 149.567C90.4329 149.714 87.631 149.862 84.8292 149.862C82.0274 149.862 79.3731 149.862 76.5713 149.862C76.4238 149.862 76.1288 149.862 75.9814 149.862C73.9169 149.714 71.9999 149.124 69.9354 149.124C68.6082 149.124 67.2809 148.682 66.1012 148.24C65.2164 147.945 64.6266 147.06 63.8893 146.618C63.1519 146.028 62.5621 145.438 62.5621 144.258C62.5621 142.783 62.5621 141.161 62.5621 139.687C62.2672 139.687 62.1197 139.687 61.9722 139.687C59.9077 139.834 57.6958 139.982 55.6313 140.129C55.3364 140.129 55.1889 140.571 54.894 140.866C54.7465 141.161 54.5991 141.604 54.4516 141.899C53.1244 144.258 50.9124 146.028 50.1751 148.977C49.8802 150.304 48.8479 151.336 48.2581 152.516C48.1106 152.811 47.8156 152.959 47.6682 153.253C48.1106 153.253 48.5529 153.253 48.8479 153.106C49.5852 153.106 50.3225 153.106 51.0598 153.106C54.1566 152.959 57.1059 152.664 60.2026 152.516C60.645 152.516 61.2349 152.664 61.6773 152.664C63.1519 152.664 64.7741 152.369 66.2487 152.369C67.8709 152.369 69.4929 152.664 71.1151 152.811C71.1151 152.811 71.115 152.811 71.2625 152.959C70.9676 153.106 70.8201 153.106 70.6727 153.253ZM114.764 168.147C114.764 168.295 114.764 168.295 114.764 168.442C114.175 168.442 113.437 168.295 112.847 168.295C111.963 168.295 111.078 168.147 110.193 168.147C109.161 168.147 108.276 168.442 107.244 168.59C106.801 168.59 106.506 168.885 106.654 169.327C106.801 170.654 106.801 171.981 106.949 173.161C107.096 173.898 106.654 174.193 106.064 174.488C105.622 174.636 105.327 174.341 105.032 173.898C104.295 173.161 104.295 172.276 104.295 171.392C104.147 170.507 104.147 169.622 104 168.885C96.0365 168.885 88.0735 168.885 80.2579 168.885C80.2579 170.802 80.2579 172.571 80.2579 174.488C80.7003 174.488 80.9952 174.488 81.4376 174.488C82.1749 174.488 83.0596 174.341 83.797 174.341C84.9767 174.341 86.0089 174.341 87.1886 174.341C88.2209 174.341 89.2532 174.341 90.2854 174.488C91.1702 174.636 92.055 174.783 92.9398 174.931C94.1195 174.931 95.4467 174.931 96.6264 174.931C96.9213 174.931 97.2162 174.931 97.5111 174.931C98.5434 174.783 99.7231 174.636 100.755 174.783C103.41 174.783 105.917 174.931 108.571 174.931C110.93 174.931 113.142 174.783 115.502 174.636C116.682 174.636 118.009 174.488 119.188 174.488C120.663 174.488 122.138 174.488 123.465 174.488C125.087 174.488 126.709 174.488 128.479 174.488C128.774 174.488 129.216 174.341 128.921 173.751C128.774 173.456 128.626 173.161 128.626 172.866C128.479 172.276 128.331 171.686 127.594 171.539L127.446 171.392C127.004 170.212 126.267 169.032 127.446 167.557C127.004 167.557 126.709 167.41 126.414 167.557C125.677 167.852 124.792 167.263 124.055 167.705C123.465 168 122.58 167.705 121.843 167.705C121.695 167.705 121.695 167.705 121.548 167.705C120.663 167.852 119.631 168 118.746 168.147C118.009 168.295 117.124 168.147 116.387 168.59C116.239 168.737 115.502 168.442 115.354 168.147C115.059 167.705 114.764 167.41 114.322 167.41C114.175 167.41 113.88 167.41 113.732 167.263V167.115C114.027 167.115 114.322 167.263 114.617 167.263C114.47 164.903 114.175 162.544 114.027 160.184C107.686 160.184 101.05 160.184 94.5618 160.184C94.5618 161.511 94.5618 162.839 94.5618 164.313C94.5618 164.608 94.4144 164.756 94.267 165.051C93.9721 165.788 93.0873 166.23 93.5297 167.115C95.2992 167.115 97.0688 167.115 98.8383 167.115C99.8706 167.115 101.05 167.115 102.083 167.115C103.852 167.115 105.622 167.263 107.391 167.263C109.161 167.263 111.078 167.115 112.847 167.115C112.847 167.263 112.847 167.263 112.847 167.41C112.7 167.41 112.7 167.557 112.553 167.557C112.405 167.557 112.258 167.557 112.11 167.557C112.847 168.295 114.027 167.263 114.764 168.147ZM117.419 181.714C117.271 180.239 117.124 178.912 117.124 177.733C117.124 177.585 117.271 177.29 117.271 177.143C117.271 176.995 117.419 176.848 117.566 176.7C117.271 176.553 116.976 176.405 116.829 176.405C115.207 176.405 113.437 176.405 111.815 176.405C111.225 176.405 110.635 176.258 109.898 176.405C108.276 176.405 106.654 176.7 104.884 176.553C103.262 176.553 101.64 176.258 99.8706 176.258C98.2485 176.258 96.4789 176.258 94.8568 176.258C93.5296 176.258 92.2024 175.963 90.8752 175.963C88.8107 175.963 86.7462 176.11 84.5343 176.11C81.585 176.11 78.6357 176.11 75.6864 176.11C74.3592 176.11 73.1795 176.11 71.7049 176.11C71.8523 176.848 71.8523 177.438 71.9998 178.027C72.2947 179.502 72.4422 180.977 72.7371 182.451C72.7371 182.599 73.1796 182.894 73.327 182.894C75.3915 183.041 77.3085 183.041 79.373 183.041C82.1748 183.041 84.9767 183.189 87.9259 183.189C88.2209 183.189 88.5159 183.189 88.8108 183.189C89.843 183.189 90.8752 183.336 91.9075 183.336C91.76 181.862 91.76 180.534 91.6125 179.207C91.4651 177.88 92.055 176.995 93.2347 176.405C93.5296 176.7 93.972 177.143 93.972 177.438C94.1195 179.355 94.2669 181.272 94.4144 183.041C95.4467 183.484 96.7739 182.599 97.6586 183.631C99.5757 183.484 101.345 183.336 103.115 183.189V183.041C103.115 183.041 102.967 183.041 102.967 182.894C103.115 182.746 103.262 182.894 103.41 182.746C105.179 182.451 106.949 182.009 108.718 182.156C109.308 182.156 110.046 182.156 110.635 182.156C113.142 182.009 115.354 181.862 117.419 181.714ZM80.5527 81.2908C80.7002 81.1433 80.9952 80.9959 80.9952 80.8484C80.9952 80.1111 80.7002 79.8162 79.9629 79.8162C79.3731 79.8162 78.7831 79.9636 78.3408 80.1111C76.2763 80.701 74.2118 81.2908 72.1473 81.8806C70.2303 82.4705 68.4606 82.9129 66.5436 83.5028C66.2487 83.6502 65.8063 83.7977 65.8063 84.0926C65.6588 84.6825 66.5436 85.8622 67.2809 85.8622C69.9353 86.3046 72.5897 86.747 75.244 87.1894C76.5712 87.3368 77.8984 87.4843 79.2256 87.4843C80.5528 87.6318 81.8799 87.6318 83.0596 87.6318C83.502 87.6318 83.9445 87.4843 84.3868 87.4843C85.714 87.4843 87.0412 87.7792 88.3684 87.7792C91.0228 87.7792 93.6771 87.6318 96.3314 87.4843C97.6586 87.4843 98.9858 87.4843 100.313 87.3368C101.05 87.1894 101.788 86.747 102.525 86.5995C103.852 86.3046 105.327 86.0096 106.654 85.5673C107.686 85.2723 107.981 84.0926 107.244 83.5028C106.507 82.9129 105.769 82.4705 105.032 81.7332C104.442 81.1434 103.852 80.406 102.672 80.8484C102.525 80.8484 102.377 80.7009 102.23 80.7009C101.935 80.5535 101.493 80.5535 101.198 80.406C99.4282 80.1111 97.8061 79.9636 96.0365 79.6687C93.972 79.3738 92.055 79.0788 89.9905 78.9314C89.843 78.9314 89.4006 79.0788 89.4006 79.0788C89.548 79.8162 88.9582 79.6687 88.6633 79.6687C88.0734 79.8161 87.4836 79.8162 87.0412 79.8162C86.7463 80.2585 86.5988 80.8484 86.3039 80.8484C85.714 80.8484 85.5666 81.2908 85.4191 81.7332C85.2717 82.3231 84.6818 82.618 84.0919 82.618C83.2071 82.4705 82.3223 82.4705 81.585 82.3231C81.4375 82.3231 81.2901 82.1756 81.1426 82.0281C80.9951 82.0281 80.8476 81.7332 80.5527 81.2908ZM143.668 93.9727C142.93 96.1847 143.668 98.6916 143.078 101.051C142.783 102.083 143.078 103.263 143.225 104.443C143.225 104.738 143.52 104.885 143.52 105.18C143.373 106.065 143.373 106.95 143.668 107.982C143.962 109.162 143.962 110.636 144.11 111.963C144.257 113.733 144.405 115.65 144.552 117.42C144.552 117.567 144.847 117.862 144.995 117.862C146.764 117.862 148.681 117.862 150.598 117.862C150.451 115.355 150.451 112.996 150.303 110.489C150.303 109.751 150.303 109.014 150.303 108.129C150.303 107.245 150.303 106.36 150.303 105.475C150.303 104 150.451 102.526 150.451 101.051C150.451 99.8713 150.303 98.5441 150.156 97.3644C150.156 96.4796 150.009 95.5949 150.009 94.7101C150.009 94.5626 149.714 94.2677 149.566 94.2677C147.502 93.8253 145.585 93.9727 143.668 93.9727ZM157.824 116.83C157.824 112.996 157.824 109.014 157.824 105.18C157.824 101.346 158.266 97.3644 157.824 93.3829C157.529 93.3829 157.382 93.3829 157.234 93.3829C155.17 93.5304 153.253 93.6778 151.188 93.8253C150.598 93.8253 150.746 94.2677 150.746 94.5626C150.746 95.5948 150.893 96.6271 150.893 97.6594C150.893 99.2815 151.041 100.904 151.041 102.526C151.041 103.853 151.188 105.18 151.336 106.507C151.483 109.309 151.778 111.963 151.926 114.765C151.926 115.355 151.926 116.092 151.926 116.682C151.926 117.42 152.368 117.42 152.958 117.42C154.58 117.272 156.202 116.977 157.824 116.83ZM136.147 92.9405C135.999 95.005 135.704 96.9221 135.704 98.6916C135.704 101.936 135.999 105.18 136.147 108.424C136.294 109.751 136.442 111.226 136.589 112.553C136.737 113.586 136.737 114.765 136.737 115.945C136.737 116.535 137.032 116.83 137.621 116.83C138.654 116.83 139.686 116.977 140.718 117.125C141.456 117.272 142.045 117.42 142.783 117.567C142.783 117.125 142.783 116.83 142.783 116.682C142.635 113.88 142.34 111.079 142.193 108.277C142.045 106.802 142.045 105.328 142.045 103.853C142.045 103.705 142.045 103.705 142.045 103.558C142.045 101.493 141.898 99.5764 141.898 97.5119C141.898 96.3322 141.898 95.005 141.898 93.8253C140.128 93.5303 138.211 93.2354 136.147 92.9405ZM92.2024 165.198C91.6126 163.723 91.4652 162.249 92.055 160.627C92.2025 160.184 92.055 159.742 91.4651 159.742C89.843 159.742 88.0734 159.594 86.4513 159.594C85.714 159.594 85.1242 159.742 84.3868 159.742C83.3546 159.889 82.3223 159.889 81.4376 160.037C79.668 160.184 77.8984 160.627 76.1288 160.627C74.2117 160.774 72.2947 160.627 70.5252 160.627C70.5252 161.659 70.6727 162.691 70.6727 163.576C70.6727 164.461 71.5574 165.346 70.5252 166.378C71.115 166.378 71.4099 166.378 71.7049 166.378C74.9491 166.378 78.3408 166.378 81.585 166.378C84.5343 166.525 87.3361 166.82 90.2854 166.968C90.8753 166.968 91.3177 166.968 91.4651 166.083C91.1702 165.788 91.4651 165.198 92.2024 165.198ZM159.299 93.0879C159.299 100.904 159.299 108.719 159.299 116.682C160.036 116.535 160.773 116.387 161.216 116.24C162.101 115.945 163.133 115.65 164.018 115.208C164.165 115.06 164.46 114.913 164.46 114.765C164.607 112.848 164.607 110.931 164.607 109.014C164.607 105.328 164.607 101.641 164.607 97.9543C164.607 96.3322 164.46 94.5626 164.313 92.9405C164.313 92.793 163.87 92.4981 163.723 92.4981C162.395 92.6456 160.773 92.9405 159.299 93.0879ZM169.769 90.7285C168.884 91.0234 167.852 91.3184 166.967 91.6133C165.787 91.9082 165.787 91.9082 165.935 93.0879C165.935 95.005 166.082 96.7746 166.082 98.6916C166.082 102.673 166.082 106.655 166.082 110.636C166.082 110.931 166.082 111.079 166.082 111.374C166.082 112.406 165.935 113.586 165.935 114.765C166.23 114.765 166.524 114.618 166.672 114.618C167.557 114.323 168.589 113.88 169.474 113.438C169.769 113.291 170.359 113.291 170.359 112.553C170.359 111.226 170.506 109.899 170.506 108.572C170.211 102.673 170.653 96.7746 169.769 90.7285ZM69.3455 175.963C67.8708 176.11 66.3962 176.405 64.7741 176.405C63.8893 176.405 63.4469 176.7 63.4469 177.585C63.4469 177.733 63.4469 177.88 63.4469 178.027C63.4469 178.912 63.0045 179.06 62.2672 178.617C61.9723 178.47 61.6773 178.027 61.5299 177.733C61.2349 176.995 60.94 176.848 60.3502 177.143C60.2027 177.143 60.0552 177.143 59.9077 177.29C58.1381 177.438 56.3686 177.733 54.599 177.88C55.0414 179.65 55.4838 181.419 54.894 183.041C60.0552 183.041 65.069 183.041 70.2302 183.041C69.9353 180.534 69.6404 178.322 69.3455 175.963ZM77.3086 168.737C75.2441 168.59 73.327 168.442 71.2625 168.442C68.903 168.442 66.5436 168.59 64.3316 168.737C63.8892 168.737 63.2994 168.59 63.0045 168.885C62.7096 169.032 62.857 169.769 62.857 170.064C63.0045 171.392 63.0045 172.571 63.1519 173.898C63.1519 174.193 63.4468 174.488 63.5943 174.488C64.9215 174.488 66.2487 174.488 67.5759 174.488C68.903 174.488 70.3777 174.341 71.7049 174.341C73.6219 174.341 75.3915 174.341 77.3086 174.341C77.3086 172.571 77.3086 170.654 77.3086 168.737ZM106.359 155.17C106.359 156.055 106.359 156.793 106.359 157.53C106.359 157.677 106.359 157.972 106.212 158.12C106.064 158.415 105.769 158.562 105.622 158.71C105.917 158.71 106.212 158.857 106.654 158.857C108.276 158.857 109.898 159.005 111.52 159.005C113.585 158.857 115.502 158.71 117.419 158.415C118.156 158.415 118.893 158.415 119.631 158.415C121.105 158.267 122.58 158.267 123.907 158.12C124.94 156.94 126.119 157.235 127.299 157.087C127.594 155.613 127.004 154.286 126.857 152.959C126.857 152.959 126.709 152.811 126.562 152.811C126.119 152.811 125.529 152.811 125.087 152.811C125.529 153.401 125.972 154.138 126.414 154.728C125.972 155.023 125.677 155.17 125.529 155.465C124.94 156.055 124.202 155.908 123.612 155.465C123.317 155.17 122.728 154.581 122.285 154.581C120.811 154.581 119.483 154.876 118.009 154.876C117.271 154.876 116.534 154.876 115.797 154.876V154.728C116.092 154.581 116.387 154.581 116.976 154.286C115.649 154.138 115.207 153.991 115.649 153.401C112.995 153.548 110.341 153.843 107.834 153.991V154.138C108.866 154.138 110.046 154.138 111.078 154.138C111.078 154.286 111.078 154.286 111.078 154.433C110.341 154.581 109.603 154.581 108.866 154.728V154.876C109.308 154.876 109.751 155.023 110.193 155.023C110.193 155.17 110.193 155.17 110.193 155.318C108.866 155.318 107.686 155.17 106.359 155.17ZM68.3132 160.774C67.8708 160.774 67.2809 160.627 66.8385 160.627C66.1012 160.627 65.5114 160.774 64.7741 160.774C64.4792 160.774 64.0368 160.774 63.7418 160.774C62.2672 160.922 60.7925 161.069 59.1704 161.217C57.4008 161.364 55.6312 161.659 54.0091 161.806C53.8617 161.806 53.5667 162.101 53.5667 162.101C53.8617 162.986 53.4193 164.018 54.0091 164.903C54.3041 165.493 54.4515 166.083 54.7464 166.673C59.4653 166.525 64.3317 166.378 69.198 166.083C68.0183 164.461 68.0183 162.691 68.3132 160.774ZM48.2581 175.963C52.5345 175.521 56.6635 175.226 60.645 174.783C60.645 172.719 60.645 170.949 60.645 168.885C56.3686 169.18 52.2396 169.474 47.9631 169.622C47.9631 171.834 48.1106 173.898 48.2581 175.963ZM116.976 167.263C118.746 166.968 120.368 166.82 121.99 166.673C123.17 166.525 124.202 166.378 125.382 166.23C126.119 166.083 126.857 166.083 127.594 165.935C127.741 165.935 128.036 165.64 128.036 165.493C128.036 164.166 127.889 162.986 127.741 161.659C127.741 161.216 127.299 160.627 127.152 160.627C125.824 160.922 124.792 160.037 123.317 160.184C121.105 160.479 118.893 160.332 116.681 160.332C116.092 160.332 116.092 160.627 116.092 161.069C116.239 162.101 116.239 162.986 116.387 164.018C116.682 164.903 116.829 166.083 116.976 167.263ZM176.257 143.963L176.405 143.816C176.257 142.636 176.11 141.309 175.962 140.129C175.962 139.982 175.667 139.834 175.372 139.834C172.718 139.244 170.211 138.802 167.409 138.949C165.197 139.097 162.985 139.097 160.921 139.097C160.036 139.097 159.151 139.097 158.266 139.097C158.119 139.097 157.972 139.539 157.972 139.687C158.414 140.277 158.856 141.014 159.594 141.456C160.184 141.899 160.036 142.341 160.036 142.783C160.036 142.931 159.889 143.226 159.889 143.521C161.806 143.373 163.723 143.078 165.64 142.931C165.64 142.636 165.64 142.194 165.787 141.899C166.23 141.456 166.819 141.161 167.557 140.572C167.852 141.309 168.147 142.046 168.442 142.931C170.211 142.931 172.128 142.931 174.045 142.931C174.93 142.931 175.667 142.931 176.257 143.963ZM135.262 116.535C135.41 116.535 135.41 116.387 135.557 116.387C135.557 115.945 135.409 115.65 135.409 115.208C135.262 111.374 135.115 107.539 134.967 103.853C134.967 103.558 134.82 103.41 134.82 103.116C134.672 102.083 134.525 100.904 134.672 99.8713C134.672 98.1017 134.82 96.4796 134.967 94.7101C134.967 94.1202 135.262 93.2354 134.967 92.793C134.672 92.3507 133.787 92.3507 133.05 92.0557H132.903C132.608 94.4152 132.46 96.7746 132.313 99.134C132.165 101.199 132.313 103.116 132.313 105.18C132.165 108.277 132.46 111.374 132.755 114.323C132.755 114.618 132.755 115.06 132.903 115.06C133.64 115.797 134.377 116.24 135.262 116.535ZM102.672 153.991C101.345 154.138 99.8706 154.433 98.396 154.581C98.396 154.728 98.3959 154.876 98.5434 155.023C96.184 155.318 93.6771 155.76 91.3177 156.055C88.9583 156.203 86.4514 156.203 83.9445 156.35C83.9445 156.94 83.797 157.677 83.797 158.267C83.797 158.415 83.9444 158.71 84.0919 158.71C84.8292 158.71 85.4191 158.562 86.1564 158.562C87.6311 158.415 89.1057 158.12 90.4329 158.12C92.4974 158.12 94.5619 158.267 96.4789 158.415C97.3637 158.415 98.2485 158.562 99.1333 158.71C100.313 158.857 101.345 159.005 102.525 159.005C102.672 159.005 102.967 158.562 102.967 158.415C102.82 157.382 102.672 156.35 102.525 155.17C102.377 154.728 102.525 154.433 102.672 153.991ZM150.598 122.433C149.861 122.286 149.124 122.286 148.534 122.138C147.502 122.138 146.322 122.138 145.29 122.138C145.142 122.138 144.995 122.433 144.995 122.581C145.142 124.793 145.29 127.152 145.437 129.364C145.437 129.954 145.585 130.544 145.585 131.134C145.585 131.281 145.879 131.576 146.027 131.576C147.502 131.724 148.976 131.724 150.451 131.871C150.598 128.774 150.598 125.678 150.598 122.433ZM152.368 131.871C153.99 131.576 155.76 132.166 157.234 131.576C157.087 131.281 157.087 130.986 157.087 130.839C157.087 130.102 157.234 129.217 157.382 128.479C157.529 127.447 157.677 126.267 157.677 125.235C157.677 124.203 157.677 123.318 157.677 122.286C156.055 122.433 154.285 122.581 152.368 122.728C152.368 125.678 152.368 128.774 152.368 131.871ZM158.414 131.724C159.299 131.724 160.183 131.724 160.921 131.724C161.511 131.724 161.658 131.576 161.806 130.986C161.953 130.102 162.101 129.069 163.133 128.479C163.28 128.332 163.428 128.184 163.428 127.89C163.723 125.235 164.018 122.581 164.165 119.926C163.87 119.926 163.723 119.926 163.575 120.074C162.396 120.516 161.216 121.106 159.889 121.549C159.299 121.696 159.004 121.991 159.004 122.581C159.004 124.203 158.856 125.825 158.709 127.447C158.709 128.774 158.561 130.249 158.414 131.724ZM143.225 122.433C141.308 122.286 139.391 122.138 137.327 121.991C137.916 124.793 138.359 127.742 138.949 130.544C140.718 130.839 142.34 131.281 143.962 131.576C143.815 128.479 143.52 125.53 143.225 122.433ZM128.479 180.977C128.626 179.502 128.774 178.027 128.921 176.7C128.921 176.405 128.921 175.963 128.331 176.11C127.889 176.258 127.446 176.258 127.152 176.11C125.972 175.668 124.792 176.11 123.612 176.258C122.728 176.258 121.843 176.258 120.958 176.258C120.073 176.258 119.041 176.258 118.156 176.258V176.405C118.304 176.405 118.451 176.405 118.599 176.553C118.894 176.7 119.483 176.995 119.483 177.29C119.778 178.47 119.926 179.65 119.926 180.829C119.926 181.419 120.221 181.419 120.663 181.419C121.105 181.419 121.4 181.272 121.843 181.272C122.875 181.124 123.907 180.977 125.087 180.977C126.267 180.977 127.299 180.977 128.479 180.977ZM78.3408 158.71C78.4882 157.972 77.8984 157.382 78.3408 156.793C78.3408 156.793 78.0458 156.35 77.8984 156.35C76.5712 156.203 75.244 156.055 73.9168 156.055C70.8201 156.055 67.8709 156.055 64.7741 156.203C63.8893 156.203 63.0045 156.203 61.9722 156.203C62.2672 157.088 62.7096 157.825 63.0045 158.71C63.4469 158.71 64.0367 158.71 64.6266 158.71C65.069 158.71 65.9538 158.562 66.1012 158.857C66.3962 159.594 66.986 159.299 67.4284 159.299C69.0505 159.299 70.6726 159.152 72.2947 159.152C73.7694 159.152 75.244 159.152 76.7187 159.005C77.1611 158.857 77.7509 158.71 78.3408 158.71ZM173.455 112.701C173.455 112.406 173.603 112.111 173.603 111.816C173.603 110.194 173.75 108.572 173.75 107.097C173.898 105.475 174.045 103.853 174.045 102.231C174.045 99.2815 174.045 96.4797 173.898 93.5304C173.898 92.3507 173.75 91.1709 173.603 90.1387C173.603 89.9912 173.308 89.6963 173.308 89.6963C172.718 89.8438 172.128 90.1387 171.538 90.2861V90.5811C171.686 92.6456 171.981 94.7101 172.128 96.7746C172.276 99.134 172.276 101.493 172.276 103.705C172.276 104.443 172.128 105.18 172.128 105.917C172.128 107.539 171.981 109.162 171.981 110.931C171.981 111.374 171.981 111.816 171.981 112.258C172.423 112.111 173.013 111.816 173.455 112.701ZM169.769 86.0097C169.621 84.6825 169.621 83.5028 169.326 82.1756C169.031 80.406 168.442 78.6364 168.147 76.8669C167.999 76.1295 167.557 76.1295 167.114 76.1295C166.377 76.277 165.492 76.277 164.755 76.4245C164.313 76.4245 164.165 76.572 164.313 77.1618C165.05 79.3738 165.05 81.7332 165.345 84.0926C165.492 85.1249 165.492 86.3046 165.64 87.4843C166.967 86.8945 168.294 86.4521 169.769 86.0097ZM169.769 118.157C168.736 118.452 167.704 118.747 166.819 118.894C165.787 119.189 165.64 119.337 165.492 120.516C165.345 122.286 165.197 124.203 165.05 125.973C164.902 127.005 164.607 128.037 164.46 129.217C164.313 129.807 165.197 130.691 165.787 130.396C166.377 130.102 167.114 129.807 167.704 129.512C167.852 129.364 167.999 129.217 168.147 128.922C168.589 126.415 169.031 123.908 169.474 121.401C169.621 120.221 169.769 119.189 169.769 118.157ZM58.728 156.055C57.8432 155.908 56.9585 155.76 55.9262 155.76C55.1889 155.76 54.3041 156.055 53.5667 156.055C51.6497 156.055 49.7327 156.645 47.6682 155.908C47.6682 157.235 47.6682 158.562 47.6682 159.742C47.6682 159.889 47.9631 160.037 48.1105 160.037C49.5852 159.889 50.9124 159.742 52.3871 159.447C53.7142 159.299 55.0414 159.152 56.3686 159.005C57.1059 159.005 57.9907 159.005 58.728 159.005C58.728 157.972 58.728 157.088 58.728 156.055ZM89.9905 52.8302C90.7278 52.5353 91.4652 52.3878 92.055 52.2403C94.1195 51.6505 96.0365 50.6182 98.2484 50.7657C99.2807 50.7657 100.313 50.6182 101.345 50.7657C103.41 51.0606 105.474 51.208 107.539 51.6504C109.013 51.9454 110.488 52.0928 111.815 52.5352C112.995 52.9776 114.322 53.42 115.502 53.8624C116.239 54.1573 117.124 54.3048 117.861 54.5997C118.894 54.8947 119.926 55.3371 120.958 55.632C122.285 55.9269 123.612 56.0744 124.792 56.5168C126.709 57.1067 128.479 57.844 130.248 58.5813C130.543 58.7288 130.986 58.8762 131.281 59.0237C131.281 58.8762 131.428 58.8762 131.428 58.7288C130.101 58.1389 128.774 57.4016 127.446 56.9592C125.235 56.2218 123.17 55.4846 121.105 54.4523C120.958 54.4523 120.811 54.3048 120.811 54.3048C118.599 53.5675 116.387 52.8302 114.027 52.2403C111.52 51.6505 108.866 51.0606 106.359 50.6182C104.884 50.3233 103.557 50.3233 102.083 50.0284C100.46 49.7334 98.9858 49.8809 97.3637 50.1758C96.0365 50.4707 94.7093 50.9131 93.3821 51.3555C92.2024 51.503 90.8753 51.7979 89.9905 52.8302ZM145.88 144.553C145.585 143.668 145.437 143.078 145.142 142.341C144.11 142.194 142.93 142.194 141.898 142.046C141.456 142.046 141.013 141.899 140.571 141.751C140.423 141.751 140.128 141.751 139.981 141.899C139.539 142.489 139.096 142.636 138.359 142.341C137.621 142.046 136.737 141.899 135.999 141.751C136.147 143.373 136.294 144.848 136.294 146.175C139.244 144.7 142.635 144.995 145.88 144.553ZM135.409 88.2216C136.442 84.2401 137.474 80.406 138.506 76.7194C138.064 76.5719 137.769 76.4245 137.327 76.277C137.179 76.277 137.179 75.9821 137.032 75.8346C137.032 75.8346 136.884 75.6872 136.737 75.6872C136.589 75.8346 136.294 75.9821 136.294 76.1295C135.999 77.6042 135.557 79.0788 135.262 80.406C134.672 82.4705 134.23 84.535 133.64 86.4521C133.492 86.747 133.64 87.3368 133.787 87.3368C134.377 87.9267 134.967 88.0742 135.409 88.2216ZM153.695 144.111C154.727 144.406 155.907 144.258 157.087 143.816C156.939 143.521 156.792 143.226 156.644 143.078C156.055 142.194 155.76 141.309 155.76 140.277C155.76 139.982 156.202 139.687 156.644 139.392C155.317 139.539 154.138 139.244 152.958 139.687C153.253 140.277 153.4 140.719 153.548 141.161C153.843 142.046 153.253 142.636 152.368 142.489C151.778 142.489 151.188 142.341 150.598 142.341C150.156 142.341 149.566 142.489 149.271 142.783C148.829 143.226 148.829 143.963 148.534 144.553C150.303 144.553 151.926 144.553 153.695 144.111ZM87.3361 54.4523C87.1887 54.4523 87.0412 54.4523 86.8938 54.5997C86.3039 55.1896 85.8615 55.7795 85.2716 56.3693C84.2393 57.549 83.3546 59.0237 83.0596 60.4983C82.4698 63.3001 82.1749 66.2495 81.8799 69.1987C81.7325 71.7056 81.7325 74.0651 82.3223 76.572C82.4698 77.1618 82.6172 77.7517 82.7647 78.3415C82.9121 78.3415 82.9122 78.3415 83.0596 78.3415C82.9122 77.6042 82.7647 76.7194 82.7647 75.9821C82.7647 74.2125 82.6172 72.443 82.7647 70.6734C82.7647 69.3462 83.0597 67.8715 83.2071 66.5444C83.2071 66.102 83.0597 65.6596 83.2071 65.3647C83.6495 63.3002 84.2393 61.2356 85.2716 59.3186C86.0089 57.549 86.5988 56.0744 87.3361 54.4523ZM163.28 74.36C161.511 74.36 159.594 74.36 157.824 74.36C155.907 74.36 153.99 74.2125 152.073 74.9498C151.483 75.2448 150.598 75.0973 150.156 74.8024C149.714 74.5074 149.271 74.36 148.681 74.5074C147.944 74.5074 147.207 74.6549 146.469 74.8024C144.11 75.0973 141.75 75.2448 139.391 75.5397C147.502 75.9821 155.465 75.9821 163.28 74.36ZM47.6682 162.396C47.6682 164.018 47.6682 165.64 47.6682 167.557C49.2903 167.41 50.7649 167.263 52.3871 166.968C51.2073 165.493 50.9124 164.018 51.2074 162.249C50.0276 162.396 48.8479 162.396 47.6682 162.396ZM136.294 151.336C138.211 151.189 139.981 151.041 141.75 150.894C141.603 150.747 141.456 150.452 141.456 150.304C141.308 149.714 141.013 148.977 140.866 148.387C140.866 148.24 141.456 147.945 141.75 147.65C141.75 147.65 141.75 147.502 141.75 147.207C140.718 147.355 139.686 147.65 138.654 147.65C137.769 147.65 136.884 148.092 136.147 147.502C136.294 148.829 136.294 150.009 136.294 151.336ZM171.243 85.4198C171.686 85.2724 172.276 85.1249 172.718 84.6825C172.865 84.535 172.718 83.7977 172.718 83.5028C172.571 82.9129 172.276 82.3231 172.128 81.5857C171.833 80.406 171.686 79.2263 171.391 78.194C171.096 77.1618 170.801 76.1296 170.654 75.0973C170.064 75.2448 169.621 75.3922 169.326 75.3922C169.916 78.9314 170.653 82.1756 171.243 85.4198ZM136.884 129.364C136.884 129.217 136.884 128.922 136.884 128.774C136.589 126.857 136.294 124.793 135.999 122.876C135.999 122.433 135.852 121.843 135.557 121.696C134.967 121.401 134.23 121.401 133.64 121.254C133.64 121.991 133.64 122.433 133.787 122.876C133.935 124.498 134.23 125.973 134.377 127.595C134.377 127.742 134.525 127.89 134.672 128.037C135.409 128.479 136.147 128.922 136.884 129.364ZM172.865 116.682C172.718 116.682 172.718 116.535 172.571 116.535C172.128 116.977 171.538 117.272 171.391 117.862C171.096 118.894 171.096 119.926 170.948 121.106C170.801 122.286 170.654 123.466 170.359 124.793C170.211 125.973 169.916 127.005 169.621 128.037L169.769 128.185C170.211 127.595 170.948 127.152 171.096 126.562C171.686 123.613 172.128 120.664 172.571 117.715C172.718 117.272 172.865 116.977 172.865 116.682ZM132.903 59.4661L132.755 59.6136C133.64 60.2034 134.525 60.7932 135.557 61.2356C136.884 61.8255 138.359 62.4153 139.538 63.4476C140.276 64.0375 141.161 64.3324 141.898 64.7748L142.045 64.6273C139.096 62.4154 136.294 60.4983 132.903 59.4661ZM82.9122 79.8162C82.9122 80.8484 83.2071 81.4383 83.797 81.2908C83.9444 81.2908 84.3868 80.7009 84.2393 80.5535C84.2393 79.9636 84.0919 79.6687 82.9122 79.8162ZM80.9952 158.562C81.1426 158.562 81.1426 158.415 81.29 158.415C81.1426 157.677 80.9952 156.94 80.9952 156.35C80.7003 156.35 80.5528 156.35 80.2579 156.35C80.4053 157.087 80.7003 157.825 80.9952 158.562ZM132.313 143.816C132.903 142.636 132.608 141.604 132.018 141.604C132.165 142.341 132.313 142.931 132.313 143.816ZM78.9306 89.6963V89.5488C77.7509 89.4013 76.5712 89.4013 75.3915 89.2539V89.4013C76.5712 89.4013 77.7509 89.5488 78.9306 89.6963ZM134.23 165.64C134.377 166.82 134.377 167.705 134.525 168.737C134.525 167.705 134.672 166.673 134.672 165.788C134.672 165.788 134.672 165.788 134.525 165.788C134.525 165.935 134.525 166.083 134.377 166.23C134.525 166.083 134.525 165.935 134.23 165.64ZM64.7741 81.8806C64.7741 82.0281 64.7741 82.0281 64.9215 82.1756C65.9538 81.8807 66.8386 81.4383 67.8708 81.1433V80.9959C66.6911 81.2908 65.8063 81.5857 64.7741 81.8806ZM119.041 167.852C117.124 167.557 117.124 167.557 116.976 168.147C117.714 168 118.451 167.852 119.041 167.852Z" fill="black"/>
<path d="M167.262 149.567C166.967 148.977 166.525 148.387 166.23 147.649C165.935 146.765 166.672 145.732 167.557 145.585H167.704C168.884 145.88 169.916 147.797 169.179 148.829C169.031 149.124 168.442 149.272 168.147 149.419C167.999 149.567 167.704 149.714 167.557 149.714C167.704 150.009 167.852 150.304 167.999 150.599C166.672 151.631 164.755 151.926 161.658 151.336C161.953 151.041 162.248 150.746 162.69 150.451C162.248 150.451 162.101 150.451 161.806 150.451V150.304C163.575 150.009 165.492 149.714 167.262 149.567Z" fill="black"/>
<path d="M150.156 164.608C149.714 164.018 150.156 163.576 150.598 163.133C151.041 162.839 151.188 162.839 151.631 162.986C151.925 163.133 152.22 163.133 152.515 163.133C153.105 163.133 153.843 163.428 153.843 163.871C153.99 164.461 153.695 165.198 153.4 165.64C153.105 165.935 152.81 166.378 152.22 166.525C151.041 166.525 150.156 165.935 150.156 164.608Z" fill="black"/>
<path d="M138.949 158.119C139.096 157.824 139.244 157.529 139.539 157.234C139.686 157.087 139.833 156.939 139.833 156.792C139.981 156.202 140.276 156.349 140.718 156.644C141.013 156.792 141.308 156.939 141.603 156.939C142.635 157.087 142.783 157.529 142.488 158.414C142.34 158.709 142.193 159.004 142.193 159.446C141.898 160.331 141.161 160.478 140.423 160.478C140.128 160.478 139.686 159.889 139.391 159.594C139.244 159.151 139.244 158.709 138.949 158.119Z" fill="black"/>
<path d="M157.381 155.464C158.119 155.907 158.856 156.202 159.446 156.644C159.593 156.792 159.741 157.086 159.741 157.381C159.593 157.971 159.593 158.709 159.003 159.151C158.561 159.593 157.824 159.593 157.381 159.446C156.939 159.298 156.497 158.561 156.349 158.119C156.202 157.381 155.907 156.497 157.086 156.202C157.234 156.054 157.234 155.759 157.381 155.464Z" fill="black"/>
<path d="M167.704 159.889C166.967 159.741 166.229 158.856 166.082 158.119C165.935 157.234 166.377 156.497 167.114 155.907C167.262 155.76 167.409 155.76 167.557 155.907C168.736 156.202 169.474 157.824 168.884 158.856C168.589 159.151 168.147 159.446 167.704 159.889Z" fill="black"/>
<path d="M166.524 162.543C167.262 162.838 167.852 162.986 168.294 163.871C168.441 164.46 168.294 165.05 168.147 165.345C167.852 165.788 167.114 166.083 166.672 166.083C166.377 166.083 165.935 165.345 165.787 164.903C165.197 164.018 165.787 163.281 166.524 162.543Z" fill="black"/>
<path d="M93.8239 106.949C93.6764 106.949 93.6765 106.949 93.529 106.949C91.612 106.949 89.6949 106.802 87.7779 106.802C85.7134 106.802 83.5014 107.097 81.4369 107.244C80.1098 107.244 78.6351 107.097 77.3079 106.949C75.6858 106.802 74.2112 106.507 72.5891 106.212C69.6398 105.77 66.6905 105.327 63.7412 104.737C63.5937 104.737 63.4463 104.59 63.2988 104.442C63.2988 104.442 63.2988 104.295 63.4463 104.295C63.7412 104.295 64.0361 104.442 64.331 104.442C65.8057 104.59 67.2803 104.737 68.6075 104.885C70.8195 105.18 73.0314 105.475 75.2434 105.622C77.4554 105.77 79.8148 105.77 82.0267 105.77C83.3539 105.77 84.5337 105.77 85.8609 105.917C88.3678 106.065 90.8746 106.212 93.3815 105.917C96.9207 105.622 100.46 104.885 104.146 104.295C104.736 104.147 105.326 104 105.916 103.853C106.358 103.705 106.948 103.705 107.391 103.705C107.391 103.853 107.391 103.853 107.538 104C107.391 104.147 107.243 104.147 107.096 104.295C106.063 104.885 105.179 105.475 104.146 106.065C103.999 106.212 103.704 106.507 103.852 106.654C103.852 106.802 104.294 106.949 104.441 107.097C105.179 107.834 105.916 107.097 106.506 106.802C107.391 106.507 108.275 106.359 109.308 106.065C109.308 107.097 109.16 108.129 109.16 109.014C109.16 109.604 109.16 110.046 109.16 110.636C109.16 111.816 109.013 112.995 109.013 114.322C109.013 116.829 108.865 119.336 108.865 121.696C108.865 122.728 109.013 123.613 109.013 124.645C109.013 125.235 108.865 125.53 108.128 125.825C107.243 126.12 106.358 126.71 105.474 127.152C104.441 127.742 103.557 128.037 102.377 128.037C101.492 128.037 100.607 128.627 99.7225 128.922C99.575 128.922 99.2801 129.069 99.1327 129.069C97.3631 128.774 95.8884 129.511 94.4138 129.954C93.8239 130.101 93.234 130.101 92.6442 130.249C91.1695 130.396 89.5475 130.396 88.0728 130.544C87.7779 130.544 87.4829 130.544 87.188 130.544C85.5659 130.544 83.9438 130.691 82.3217 130.691C80.4046 130.691 78.6351 130.396 76.7181 130.249C75.9807 130.249 75.096 130.101 74.3587 130.101C73.4739 129.954 72.589 129.954 71.7042 129.659C70.5245 129.364 69.3449 129.069 68.1651 128.774C67.1329 128.479 65.9532 128.332 64.9209 128.184C64.7734 128.184 64.4785 127.889 64.4785 127.742C64.4785 125.825 64.0361 124.055 64.626 122.138C64.7734 121.401 64.626 120.516 64.4785 119.631C64.4785 118.746 64.331 118.009 64.331 117.124C64.331 116.682 64.331 116.092 64.1836 115.65C63.7412 114.617 63.8887 113.733 64.0362 112.7C64.0362 112.405 64.0362 112.111 64.0362 111.816C63.8887 111.078 63.7412 110.194 63.8886 109.456C64.0361 108.866 63.8887 108.571 63.7412 108.129C63.5937 107.687 63.8886 107.539 64.331 107.539C65.9531 107.834 67.7227 108.276 69.3448 108.424C70.8195 108.571 72.4416 108.571 74.0637 108.571C75.5384 108.571 76.8655 108.719 78.1927 108.866C78.6351 108.866 79.0775 108.719 79.5199 108.719C81.2895 108.719 83.059 108.571 84.8286 108.571C87.0406 108.424 89.1051 108.424 91.3171 108.276C92.3493 108.129 93.3816 107.539 94.2664 107.244C93.824 106.949 93.8239 106.949 93.8239 106.949ZM103.409 106.802C103.409 106.654 103.409 106.654 103.262 106.507C102.377 106.507 101.345 106.507 100.46 106.507C99.7225 106.507 99.1326 106.507 98.5428 106.654C98.3953 106.654 98.2479 106.949 98.1004 107.097C98.2479 107.244 98.5428 107.392 98.6903 107.539C98.8378 107.539 99.1327 107.392 99.4276 107.392C100.607 107.244 101.934 107.097 103.409 106.802Z" fill="white"/>
<path d="M109.603 131.575C109.456 134.23 109.308 136.589 109.308 138.948C109.308 139.833 109.308 140.718 109.013 141.603C108.718 142.783 107.834 143.667 106.654 143.962C104.589 144.552 102.672 145.289 100.608 145.732C99.4281 146.027 98.2484 146.027 97.2162 146.174C95.1517 146.469 93.0871 146.764 91.0226 146.912C90.4328 146.912 89.8429 146.912 89.253 146.912C87.0411 147.059 84.8291 147.206 82.4697 147.206C81.29 147.206 79.9628 147.354 78.7831 147.206C76.4237 147.059 74.0642 146.617 71.7047 146.469C71.1149 146.469 70.6725 146.322 70.0827 146.469C68.4606 146.764 67.7232 145.142 66.3961 144.7C66.1011 144.552 65.8062 143.962 65.8062 143.667C65.5112 142.34 65.2163 140.865 65.0688 139.391C65.0688 139.096 65.0689 138.654 65.2164 138.359C65.2164 138.211 65.2164 138.064 65.2164 137.916C65.2164 137.031 65.0688 135.999 65.0688 135.114C66.2486 135.262 67.2809 135.409 68.4606 135.409C68.7555 135.409 69.1978 135.557 69.4928 135.557C70.82 135.557 72.1472 135.557 73.4743 135.557C74.8015 135.557 76.1287 135.999 77.4559 135.852C78.6356 135.704 79.8153 135.999 80.8476 135.557C81.8798 135.262 82.9121 135.262 84.0918 135.114C85.124 134.967 86.1563 134.967 87.336 134.819C87.1886 134.819 87.1885 134.672 87.0411 134.672C88.5157 134.377 89.9904 133.935 91.465 133.64C91.465 133.492 91.465 133.492 91.465 133.345C91.0226 133.345 90.7277 133.345 90.2853 133.345C88.3683 133.345 86.5987 133.345 84.6817 133.345C82.6172 133.345 80.7001 133.492 78.6356 133.492C76.4236 133.345 74.2117 133.05 71.9997 132.902C71.8522 132.902 71.7048 132.902 71.5573 132.902C69.1979 132.607 66.9859 132.46 64.6265 132.165C64.1841 132.165 63.5943 132.165 63.0044 132.018C63.0044 131.723 63.1518 131.428 63.1518 131.133C65.0689 131.428 66.9859 131.723 68.903 132.018C70.2302 132.165 71.7048 132.608 73.032 132.608C74.8015 132.755 76.7186 132.755 78.4882 132.755C79.3729 132.755 80.2577 132.608 81.2899 132.46C83.6494 132.313 86.1563 132.018 88.5157 131.87C89.1056 131.87 89.5479 131.723 90.1378 131.723C91.0226 131.575 91.9074 131.428 92.7922 131.28C92.9397 131.28 93.2346 130.985 93.382 130.838C94.5617 130.248 95.594 130.101 96.7737 130.69C97.2161 130.838 98.6908 130.838 98.8382 130.543C99.2806 129.363 100.313 129.953 101.05 129.953C101.64 129.953 102.082 130.101 102.525 129.658C103.115 129.216 103.999 129.068 104.737 128.921C106.064 128.626 107.244 128.331 108.571 128.184C108.571 128.331 108.718 128.626 108.718 128.773C108.866 129.216 108.571 129.363 108.276 129.511C107.539 129.806 106.801 129.953 106.359 130.396C105.179 131.28 103.852 131.575 102.377 131.87C101.05 132.165 99.8705 132.608 98.5433 133.05C97.0686 133.492 95.594 133.935 94.1193 134.082C92.2023 134.23 90.2853 134.672 88.5157 135.114C87.4835 135.409 86.4512 135.557 85.2715 135.852C87.4835 135.704 89.4005 135.557 91.465 135.409C91.465 135.557 91.465 135.852 91.465 136.147C92.4973 135.852 93.3821 135.704 94.2669 135.409C94.2669 135.262 94.2669 135.114 94.2669 134.967C95.1517 134.967 96.1838 134.967 97.0686 134.967C97.806 134.967 98.6907 134.672 98.9857 134.082C100.313 133.787 101.493 133.492 102.82 133.345C103.852 133.197 104.589 132.755 105.474 132.46C106.949 131.87 108.276 131.723 109.603 131.575Z" fill="white"/>
<path d="M62.7095 101.493C63.1519 96.9216 63.5942 92.4977 63.8892 87.9263C64.479 88.0737 64.9214 88.3687 65.3638 88.5161V88.6636C65.0689 88.6636 64.9215 88.6636 64.774 88.6636C65.2164 88.9585 65.6587 89.2534 66.1011 89.4009C66.691 89.5484 67.4283 89.5484 68.0182 89.5484C69.0504 89.6959 70.0827 89.9908 71.115 90.5807C71.8523 90.8756 72.7371 91.1705 73.6219 91.1705C76.4237 91.4654 79.2255 91.6129 82.0273 91.7604C84.3867 91.7604 86.7462 91.6129 89.2531 91.6129C89.6955 91.6129 90.1379 91.318 90.5803 91.318C91.3176 91.318 92.0549 91.023 92.4973 91.318C93.5296 92.0553 94.4143 91.1705 95.4466 91.1705C97.0687 91.023 98.6908 90.2857 100.313 90.1382C101.935 89.9908 103.557 89.6958 105.327 90.1382C106.359 90.4332 107.539 89.8433 108.866 89.6959C108.866 90.1383 109.013 90.7281 109.013 91.4654C109.013 92.9401 109.013 94.4147 109.013 95.7419C109.013 97.2166 109.013 98.6912 109.013 100.018C109.013 100.461 108.866 100.608 108.423 100.756C107.834 100.903 107.244 101.346 106.654 101.493C105.327 101.935 103.852 102.23 102.377 102.525C100.165 102.968 97.806 103.41 95.594 103.705C92.7922 104.147 89.8429 104.295 87.0411 104.295C85.2715 104.295 83.3545 104.147 81.5849 104.147C80.7001 104.147 79.8153 104.295 78.9306 104.295C77.161 104.147 75.5389 104 73.7693 103.705C71.9997 103.41 70.2302 103.115 68.4606 102.82C66.691 102.378 64.774 101.935 62.7095 101.493Z" fill="white"/>
<path d="M70.6729 153.253C70.8204 153.105 70.9678 153.105 71.1153 152.958C71.1153 152.811 70.9678 152.811 70.9678 152.811C69.3457 152.663 67.7236 152.368 66.1015 152.368C64.6268 152.368 63.0048 152.516 61.5301 152.663C61.0877 152.663 60.4979 152.516 60.0555 152.516C56.9587 152.663 54.0094 152.958 50.9127 153.105C50.1753 153.105 49.438 153.105 48.7007 153.105C48.2583 153.105 47.9634 153.105 47.521 153.253C47.6685 152.958 47.9633 152.811 48.1108 152.516C48.8481 151.336 49.733 150.156 50.0279 148.976C50.6178 146.175 52.9771 144.258 54.3043 141.898C54.4518 141.603 54.5992 141.161 54.7467 140.866C54.8942 140.571 55.1891 140.276 55.484 140.129C57.5485 139.981 59.6131 139.834 61.8251 139.686C61.9725 139.686 62.1199 139.686 62.4149 139.686C62.4149 141.308 62.5623 142.783 62.4149 144.258C62.4149 145.29 63.0048 146.027 63.7421 146.617C64.4794 147.207 65.0693 147.944 65.954 148.239C67.1338 148.682 68.4609 149.124 69.7881 149.124C71.8526 149.124 73.9171 149.566 75.8342 149.861C75.9816 149.861 76.2765 149.861 76.424 149.861C79.2258 149.861 81.8802 149.861 84.682 149.861C87.4839 149.861 90.2856 149.714 93.0874 149.566C95.8893 149.419 98.6911 149.124 101.493 148.534C103.263 148.239 105.032 147.502 106.802 146.912C107.981 146.47 109.014 146.027 110.046 145.437C110.488 145.142 110.783 144.553 111.078 144.11C111.373 143.225 111.815 142.341 111.815 141.456C111.815 140.866 111.373 140.276 111.078 139.834C111.078 139.834 110.931 139.834 110.931 139.981C110.931 139.539 111.078 138.949 111.078 138.359C113.143 138.801 115.06 138.359 116.977 138.064C117.272 138.064 117.714 137.917 118.156 138.064C118.451 138.212 118.894 138.359 118.894 138.654C119.336 140.276 121.106 143.225 122.285 144.405C124.055 146.175 125.677 147.944 127.447 149.861C127.594 150.009 127.742 150.304 127.889 150.599C126.857 150.893 125.972 150.893 124.94 150.599C124.055 150.451 123.023 150.746 122.138 150.746C119.926 151.041 117.862 151.336 115.65 151.188C114.322 151.041 112.848 151.041 111.52 151.188C110.193 151.336 108.866 151.631 107.539 151.778C106.064 151.926 104.59 152.221 103.115 152.368C101.64 152.516 100.018 152.516 98.5436 152.663C97.5114 152.811 96.6266 152.958 95.5944 153.105C95.152 153.105 94.7096 152.958 94.4147 152.958C92.94 153.105 91.4654 153.253 89.9907 153.253C88.5161 153.4 87.1889 153.4 85.7142 153.4C83.5023 153.253 81.4378 153.253 79.2258 153.548C78.0461 153.695 76.8664 153.548 75.6867 153.4C74.3595 153.4 73.0323 153.4 71.7051 153.4C71.2627 153.4 70.9678 153.4 70.5254 153.4C70.6729 153.4 70.6729 153.253 70.6729 153.253Z" fill="white"/>
<path d="M114.764 168.147C114.027 167.262 112.847 168.294 112.11 167.409C112.257 167.409 112.405 167.409 112.552 167.409C112.699 167.409 112.699 167.262 112.847 167.262C112.847 167.114 112.847 167.114 112.847 166.967C111.077 166.967 109.16 167.114 107.391 167.114C105.621 167.114 103.852 166.967 102.082 166.967C101.05 166.967 99.8701 166.967 98.8378 166.967C97.0682 166.967 95.2987 166.967 93.5291 166.967C93.0867 166.082 93.9715 165.64 94.2664 164.902C94.4139 164.755 94.5613 164.46 94.5613 164.165C94.5613 162.838 94.5613 161.363 94.5613 160.036C101.05 160.036 107.686 160.036 114.027 160.036C114.174 162.396 114.469 164.755 114.617 167.114C114.322 167.114 114.027 166.967 113.732 166.967V167.114C113.879 167.114 114.174 167.262 114.322 167.262C114.911 167.262 115.206 167.409 115.354 167.999C115.501 168.294 116.091 168.589 116.386 168.442C117.123 167.999 117.861 168.147 118.746 167.999C119.63 167.852 120.663 167.704 121.547 167.557C121.695 167.557 121.695 167.557 121.842 167.557C122.58 167.557 123.464 167.852 124.054 167.557C124.939 167.114 125.676 167.704 126.414 167.409C126.709 167.262 127.004 167.409 127.446 167.409C126.414 168.737 127.004 170.064 127.446 171.243C127.446 171.243 127.446 171.391 127.593 171.391C128.331 171.538 128.331 172.128 128.626 172.718C128.773 173.013 128.773 173.308 128.921 173.603C129.068 174.045 128.773 174.34 128.478 174.34C126.856 174.34 125.234 174.34 123.464 174.34C121.99 174.34 120.515 174.34 119.188 174.34C118.008 174.34 116.681 174.488 115.501 174.488C113.142 174.635 110.93 174.783 108.57 174.783C105.916 174.783 103.409 174.635 100.755 174.635C99.7226 174.635 98.5428 174.783 97.5106 174.783C97.2157 174.783 96.9208 174.783 96.6258 174.783C95.4461 174.783 94.1189 174.93 92.9392 174.783C92.0544 174.783 91.1697 174.488 90.2849 174.34C89.2526 174.193 88.2203 174.193 87.1881 174.193C86.0084 174.193 84.9761 174.193 83.7964 174.193C83.0591 174.193 82.1743 174.193 81.437 174.34C80.9946 174.34 80.6997 174.34 80.2573 174.34C80.2573 172.423 80.2573 170.506 80.2573 168.737C88.0729 168.737 96.036 168.737 103.999 168.737C104.147 169.474 104.147 170.359 104.294 171.243C104.441 172.128 104.294 173.013 105.031 173.75C105.326 174.045 105.621 174.488 106.064 174.34C106.653 174.193 106.948 173.75 106.948 173.013C106.801 171.686 106.801 170.359 106.653 169.179C106.653 168.737 106.801 168.442 107.243 168.442C108.276 168.294 109.16 168.147 110.193 167.999C111.077 167.999 111.962 167.999 112.847 168.147C113.437 168.147 114.174 168.294 114.764 168.294C114.616 168.294 114.764 168.147 114.764 168.147Z" fill="white"/>
<path d="M117.419 181.713C115.354 181.86 113.143 182.155 110.783 182.303C110.193 182.303 109.456 182.303 108.866 182.303C107.096 182.155 105.327 182.598 103.557 182.893C103.41 182.893 103.262 182.893 103.115 183.04C103.115 183.04 103.262 183.04 103.262 183.188V183.335C101.493 183.483 99.5758 183.63 97.8062 183.777C96.9215 182.745 95.5943 183.63 94.562 183.188C94.4145 181.271 94.2671 179.501 94.1196 177.584C94.1196 177.142 93.6772 176.847 93.3823 176.552C92.2026 177.142 91.6128 178.026 91.7602 179.354C91.9077 180.681 91.9077 182.008 92.0552 183.483C91.0229 183.483 89.9906 183.335 88.9584 183.335C88.6634 183.335 88.3686 183.335 88.0736 183.335C85.2718 183.335 82.47 183.188 79.5207 183.188C77.4562 183.188 75.5391 183.04 73.4746 183.04C73.3271 183.04 72.8848 182.745 72.8848 182.598C72.5899 181.123 72.295 179.649 72.1475 178.174C72 177.584 72 176.994 71.8525 176.257C73.1797 176.257 74.5069 176.257 75.8341 176.257C78.7834 176.257 81.7327 176.257 84.682 176.257C86.7465 176.257 88.9584 176.109 91.0229 176.109C92.3501 176.109 93.6773 176.404 95.0045 176.404C96.6266 176.404 98.3961 176.404 100.018 176.404C101.64 176.404 103.262 176.699 105.032 176.699C106.654 176.699 108.276 176.552 110.046 176.552C110.636 176.552 111.226 176.552 111.963 176.552C113.585 176.552 115.355 176.552 116.977 176.552C117.272 176.552 117.566 176.699 117.714 176.847C117.566 176.994 117.566 177.142 117.419 177.289C117.272 177.437 117.124 177.731 117.272 177.879C117.124 178.911 117.272 180.238 117.419 181.713Z" fill="white"/>
<path d="M80.5525 81.2906C80.7 81.5855 80.9949 82.0279 81.2899 82.3228C81.4373 82.4703 81.5849 82.6177 81.7323 82.6177C82.6171 82.7652 83.5018 82.9127 84.2391 82.9127C84.829 82.9127 85.4189 82.6177 85.5664 82.0279C85.7138 81.5855 85.7138 81.2906 86.4511 81.1431C86.746 81.1431 86.8935 80.4058 87.1884 80.1109C87.6308 80.1109 88.2207 79.9634 88.8106 79.9634C89.1055 79.9634 89.6954 80.1109 89.5479 79.3735C89.5479 79.3735 89.9903 79.2261 90.1377 79.2261C92.2022 79.521 94.1193 79.6685 96.1838 79.9634C97.9534 80.1109 99.5755 80.4058 101.345 80.7007C101.64 80.7007 102.082 80.8482 102.377 80.9957C102.525 80.9957 102.672 81.1431 102.82 81.1431C103.852 80.7007 104.589 81.5855 105.179 82.0279C105.916 82.6177 106.654 83.2076 107.391 83.7975C108.128 84.3873 107.834 85.4196 106.801 85.862C105.474 86.3044 103.999 86.4518 102.672 86.8942C101.935 87.0417 101.198 87.4841 100.46 87.6316C99.1331 87.779 97.8059 87.779 96.4788 87.779C93.8244 87.9265 91.17 88.0739 88.5156 88.0739C87.1885 88.0739 85.8613 87.9265 84.5341 87.779C84.0917 87.779 83.6494 87.9265 83.207 87.9265C81.8798 87.9265 80.5526 87.779 79.3728 87.779C78.0457 87.6315 76.7185 87.6316 75.3913 87.4841C72.7369 87.0417 70.0826 86.5993 67.4283 86.1569C66.8384 86.0095 65.9536 84.9772 65.9536 84.3873C65.9536 84.0924 66.396 83.9449 66.6909 83.7975C68.4605 83.2076 70.3775 82.7652 72.2946 82.1754C74.3591 81.5855 76.4236 80.9956 78.4881 80.4058C79.0779 80.2583 79.5203 80.2583 80.1102 80.1109C80.8475 80.1109 81.1424 80.2583 81.1424 81.1431C80.995 81.1431 80.7 81.2906 80.5525 81.2906Z" fill="white"/>
<path d="M143.815 77.6035C143.668 77.3086 143.667 77.1611 143.52 76.7187C144.552 76.8662 145.585 77.1611 146.617 77.3086C146.764 77.3086 146.912 77.3086 147.059 77.3086C148.829 77.3086 150.451 77.456 152.22 77.456C153.4 77.456 154.727 77.6035 155.907 77.456C157.382 77.3086 158.856 77.1611 160.331 76.8662C161.068 76.7187 161.953 76.7188 162.69 76.5713C163.428 78.4883 163.723 80.5528 163.723 82.6173C163.723 83.9445 164.018 85.4191 164.165 86.7463C164.165 87.1887 164.165 87.6311 163.428 87.6311C162.101 87.7786 160.921 88.0735 159.594 88.221C159.446 88.221 159.446 88.221 159.299 88.221C159.151 86.5989 159.151 84.9767 159.004 83.3546C158.856 81.88 158.856 80.2579 158.119 78.7833C157.529 79.5206 157.234 79.963 157.382 80.8477C157.677 82.7648 157.824 84.6818 157.972 86.5989C157.972 87.1887 158.119 87.6311 157.972 88.221C157.972 88.5159 157.529 88.8108 157.234 88.8108C155.17 89.1057 153.253 89.2532 151.188 89.4007C151.041 89.4007 150.598 89.1057 150.598 88.8108C150.451 87.3362 150.451 85.8615 150.451 84.3869C150.451 83.2072 150.451 82.0275 150.451 80.7003C150.451 80.4053 150.598 80.1104 150.451 79.8155C150.303 79.9629 150.156 80.1104 150.008 80.4053C150.008 80.1104 149.861 79.9629 149.861 79.668C149.714 79.668 149.714 79.668 149.566 79.668C149.566 82.9122 149.566 86.1564 149.566 89.4007C147.797 89.4007 146.027 89.4007 144.11 89.4007C144.257 87.7786 144.257 86.3039 144.405 84.8293C144.405 84.0919 144.552 83.3546 144.7 82.6173C144.847 81.1427 144.847 79.5206 144.847 78.0459C144.7 77.751 144.552 77.456 143.815 77.6035Z" fill="white"/>
<path d="M143.667 93.9722C145.584 93.9722 147.501 93.9722 149.418 93.9722C149.566 93.9722 149.861 94.2671 149.861 94.4145C150.008 95.2993 150.008 96.1841 150.008 97.0689C150.156 98.2486 150.303 99.5758 150.303 100.756C150.303 102.23 150.156 103.705 150.156 105.179C150.156 106.064 150.156 106.949 150.156 107.834C150.156 108.571 150.156 109.308 150.156 110.193C150.303 112.7 150.303 115.207 150.451 117.566C148.534 117.566 146.617 117.566 144.847 117.566C144.699 117.566 144.405 117.272 144.405 117.124C144.257 115.355 144.11 113.437 143.962 111.668C143.815 110.341 143.962 109.014 143.52 107.686C143.225 106.802 143.225 105.917 143.372 104.885C143.372 104.737 143.077 104.442 143.077 104.147C142.93 102.967 142.635 101.935 142.93 100.756C143.815 98.5436 143.077 96.1841 143.667 93.9722Z" fill="white"/>
<path d="M157.824 116.829C156.202 117.124 154.58 117.271 152.958 117.566C152.368 117.713 151.926 117.566 151.926 116.829C151.926 116.239 151.926 115.501 151.926 114.912C151.778 112.11 151.483 109.455 151.336 106.654C151.188 105.326 151.041 103.999 151.041 102.672C150.893 101.05 150.893 99.4279 150.893 97.8058C150.893 96.7735 150.746 95.7412 150.746 94.709C150.746 94.4141 150.598 93.9717 151.188 93.9717C153.253 93.8242 155.17 93.6768 157.234 93.5293C157.382 93.5293 157.529 93.5293 157.824 93.5293C158.267 97.5108 157.824 101.345 157.824 105.326C157.824 109.013 157.824 112.995 157.824 116.829Z" fill="white"/>
<path d="M136.146 92.9399C138.211 93.2349 139.981 93.5298 141.898 93.8247C141.898 95.1519 141.898 96.3316 141.898 97.5113C141.898 99.5758 142.045 101.493 142.045 103.557C142.045 103.705 142.045 103.705 142.045 103.852C142.045 105.327 142.045 106.802 142.193 108.276C142.34 111.078 142.635 113.88 142.782 116.682C142.782 116.977 142.782 117.124 142.782 117.567C142.045 117.419 141.455 117.272 140.718 117.124C139.686 116.977 138.653 116.829 137.621 116.829C136.884 116.829 136.736 116.534 136.736 115.944C136.736 114.765 136.736 113.732 136.589 112.553C136.441 111.226 136.146 109.751 136.146 108.424C135.999 105.179 135.704 101.935 135.704 98.6911C135.704 96.7741 135.999 94.857 136.146 92.9399Z" fill="white"/>
<path d="M92.2022 165.197C91.4649 165.345 91.1699 165.935 91.0225 166.377C90.875 167.114 90.4326 167.262 89.8428 167.262C86.8935 167.114 84.0916 166.819 81.1424 166.672C77.8981 166.525 74.5064 166.672 71.2622 166.672C70.9673 166.672 70.6724 166.672 70.0825 166.672C71.1148 165.64 70.2299 164.755 70.2299 163.87C70.2299 162.838 70.23 161.953 70.0825 160.921C71.8521 160.921 73.7691 161.068 75.6861 160.921C77.4557 160.773 79.2253 160.479 80.9949 160.331C82.0272 160.184 83.0594 160.184 83.9442 160.036C84.6815 160.036 85.2713 159.889 86.0087 159.889C87.6308 159.889 89.4004 160.036 91.0225 160.036C91.6123 160.036 91.7598 160.479 91.6123 160.921C91.6123 162.248 91.6123 163.723 92.2022 165.197Z" fill="white"/>
<path d="M159.298 93.0874C160.773 92.7925 162.248 92.4976 163.722 92.3501C163.87 92.3501 164.312 92.6451 164.312 92.7925C164.46 94.4146 164.607 96.1842 164.607 97.8063C164.607 101.493 164.607 105.18 164.607 108.866C164.607 110.783 164.46 112.7 164.46 114.617C164.46 114.765 164.165 115.06 164.017 115.06C163.132 115.355 162.248 115.797 161.215 116.092C160.626 116.239 160.036 116.387 159.298 116.534C159.298 108.719 159.298 100.903 159.298 93.0874Z" fill="white"/>
<path d="M169.768 90.728C170.653 96.7741 170.358 102.673 170.358 108.571C170.358 109.898 170.211 111.226 170.211 112.553C170.211 113.143 169.621 113.29 169.326 113.438C168.441 113.88 167.409 114.175 166.524 114.617C166.376 114.617 166.082 114.765 165.787 114.765C165.934 113.585 165.934 112.405 165.934 111.373C165.934 111.078 165.934 110.931 165.934 110.636C165.934 106.654 165.934 102.673 165.934 98.6911C165.934 96.7741 165.787 95.0045 165.787 93.0875C165.787 91.9078 165.787 91.9078 166.819 91.6128C167.851 91.3179 168.883 91.023 169.768 90.728Z" fill="white"/>
<path d="M69.3451 175.963C69.64 178.322 69.9349 180.534 70.2298 183.041C65.216 183.041 60.0548 183.041 54.8936 183.041C55.4834 181.272 55.041 179.649 54.5986 177.88C56.3682 177.732 58.1377 177.438 59.9073 177.29C60.0548 177.29 60.2023 177.29 60.3498 177.143C60.9396 176.995 61.382 177.143 61.5295 177.732C61.6769 178.027 61.9719 178.47 62.2668 178.617C63.0041 179.06 63.4465 178.765 63.4465 178.027C63.4465 177.88 63.4465 177.732 63.4465 177.585C63.4465 176.7 63.8889 176.553 64.7737 176.405C66.3958 176.405 67.8704 176.11 69.3451 175.963Z" fill="white"/>
<path d="M77.3087 168.737C77.3087 170.654 77.3087 172.423 77.3087 174.34C75.5392 174.34 73.6221 174.34 71.705 174.34C70.3778 174.34 68.9032 174.488 67.576 174.488C66.2489 174.488 64.9217 174.488 63.5945 174.488C63.447 174.488 63.1521 174.046 63.1521 173.898C63.0046 172.571 62.8572 171.391 62.8572 170.064C62.8572 169.622 62.7097 169.032 63.0047 168.884C63.2996 168.589 63.8894 168.884 64.3318 168.737C66.6912 168.589 69.0507 168.442 71.2626 168.442C73.1797 168.442 75.2442 168.737 77.3087 168.737Z" fill="white"/>
<path d="M106.359 155.17C107.686 155.317 108.866 155.317 110.045 155.317C110.045 155.17 110.045 155.17 110.045 155.023C109.603 155.023 109.161 154.875 108.718 154.875V154.728C109.456 154.58 110.193 154.58 110.93 154.433C110.93 154.285 110.93 154.285 110.93 154.138C109.898 154.138 108.718 154.138 107.686 154.138V153.99C110.34 153.843 112.847 153.548 115.502 153.4C115.207 153.99 115.502 154.138 116.829 154.285C116.387 154.433 116.092 154.58 115.649 154.728V154.875C116.387 154.875 117.124 154.875 117.861 154.875C119.336 154.728 120.663 154.58 122.138 154.58C122.58 154.58 123.022 155.023 123.465 155.465C124.055 156.055 124.792 156.055 125.382 155.465C125.677 155.317 125.824 155.17 126.267 154.728C125.824 154.138 125.382 153.548 124.939 152.811C125.382 152.811 125.824 152.811 126.414 152.811C126.562 152.811 126.709 152.958 126.709 152.958C127.004 154.285 127.446 155.612 127.151 157.087C126.119 157.234 124.792 156.792 123.76 158.119C122.433 158.267 120.958 158.267 119.483 158.414C118.746 158.414 118.009 158.414 117.271 158.414C115.354 158.562 113.29 158.857 111.373 159.004C109.751 159.152 108.128 159.004 106.506 158.857C106.211 158.857 105.917 158.709 105.474 158.709C105.622 158.562 105.917 158.267 106.064 158.119C106.211 157.972 106.211 157.824 106.211 157.529C106.359 156.792 106.359 156.055 106.359 155.17Z" fill="white"/>
<path d="M68.3133 160.774C68.0184 162.691 67.871 164.608 69.1982 166.525C64.3319 166.672 59.4655 166.82 54.7466 167.115C54.4517 166.525 54.4517 165.788 54.0093 165.345C53.4194 164.46 53.8618 163.428 53.5669 162.543C53.5669 162.543 53.8618 162.248 54.0093 162.248C55.7788 161.953 57.5484 161.806 59.1705 161.659C60.6452 161.511 62.1199 161.364 63.742 161.216C64.0369 161.216 64.4793 161.216 64.7742 161.216C65.5116 161.216 66.1014 161.069 66.8387 161.069C67.4285 160.626 67.8709 160.626 68.3133 160.774Z" fill="white"/>
<path d="M48.2578 175.963C48.1104 173.898 47.9629 171.834 47.9629 169.769C52.2394 169.474 56.5158 169.179 60.6448 169.032C60.6448 170.949 60.6448 172.866 60.6448 174.93C56.6633 175.225 52.5343 175.52 48.2578 175.963Z" fill="white"/>
<path d="M116.977 167.262C116.829 165.935 116.682 164.903 116.534 163.723C116.387 162.691 116.387 161.806 116.239 160.774C116.239 160.331 116.239 160.036 116.829 160.036C119.041 160.036 121.253 160.184 123.465 159.889C124.792 159.741 125.972 160.626 127.299 160.331C127.447 160.331 127.889 160.921 127.889 161.363C128.036 162.691 128.184 163.87 128.184 165.197C128.184 165.345 127.889 165.64 127.741 165.64C127.004 165.787 126.267 165.787 125.529 165.935C124.35 166.082 123.318 166.23 122.138 166.377C120.368 166.82 118.746 167.115 116.977 167.262Z" fill="white"/>
<path d="M176.257 143.963C175.667 143.078 174.93 143.078 174.045 143.078C172.128 143.078 170.211 143.078 168.442 143.078C168.147 142.193 167.852 141.456 167.557 140.719C166.82 141.161 166.23 141.456 165.787 142.046C165.64 142.193 165.64 142.783 165.64 143.078C163.723 143.225 161.953 143.52 159.889 143.668C160.036 143.373 160.036 143.078 160.036 142.931C160.036 142.488 160.184 142.046 159.594 141.603C159.004 141.161 158.562 140.571 157.972 139.834C157.972 139.686 158.119 139.244 158.267 139.244C159.151 139.244 160.036 139.244 160.921 139.244C163.133 139.244 165.345 139.244 167.409 139.097C170.064 138.802 172.718 139.391 175.373 139.981C175.52 139.981 175.962 140.129 175.962 140.276C176.11 141.456 176.257 142.783 176.405 143.963C176.405 143.815 176.257 143.815 176.257 143.963Z" fill="white"/>
<path d="M135.262 116.534C134.378 116.092 133.64 115.797 132.756 115.355C132.608 115.207 132.608 114.765 132.608 114.617C132.313 111.521 132.018 108.571 132.166 105.475C132.166 103.41 132.166 101.493 132.166 99.4285C132.313 97.0691 132.608 94.7096 132.756 92.3502C132.756 92.3502 132.903 92.2027 132.903 92.3502C133.493 92.4977 134.378 92.6451 134.82 93.0875C135.115 93.5299 134.968 94.4147 134.82 95.0046C134.673 96.7742 134.525 98.3963 134.525 100.166C134.525 101.198 134.673 102.378 134.673 103.41C134.673 103.705 134.82 103.852 134.82 104.147C134.968 107.981 135.115 111.816 135.262 115.502C135.262 115.945 135.41 116.239 135.41 116.682C135.41 116.387 135.262 116.534 135.262 116.534Z" fill="white"/>
<path d="M143.815 77.6035C143.667 78.1934 143.372 78.6358 143.372 79.2257C143.225 79.963 143.077 80.7003 143.077 81.4376C142.93 82.175 142.782 82.9123 142.782 83.6496C142.635 85.4192 142.487 87.3362 142.487 89.2532C140.718 88.9583 138.948 88.6634 137.031 88.5159C138.064 84.5344 138.948 80.7003 139.981 76.7188C140.718 76.7188 141.603 76.7188 142.34 76.8662C142.782 76.8662 143.372 77.3086 143.815 77.6035Z" fill="white"/>
<path d="M102.673 153.99C102.673 154.432 102.525 154.875 102.525 155.022C102.673 156.054 102.82 157.086 102.968 158.266C102.968 158.414 102.673 158.856 102.525 158.856C101.346 158.856 100.313 158.709 99.1337 158.561C98.2489 158.414 97.3641 158.266 96.4794 158.266C94.4149 158.119 92.3503 157.971 90.4333 157.971C88.9586 157.971 87.484 158.266 86.1568 158.414C85.4195 158.414 84.8296 158.561 84.0923 158.561C83.9448 158.561 83.7974 158.266 83.7974 158.119C83.7974 157.381 83.9449 156.792 83.9449 156.202C86.4518 156.202 88.8112 156.202 91.3181 155.907C93.6775 155.759 96.1844 155.317 98.5438 154.874C98.5438 154.727 98.5438 154.58 98.3964 154.432C99.7236 154.432 101.198 154.137 102.673 153.99Z" fill="white"/>
<path d="M150.598 122.433C150.598 125.529 150.598 128.774 150.598 132.018C148.976 131.87 147.648 131.87 146.174 131.723C146.026 131.723 145.731 131.428 145.731 131.28C145.584 130.691 145.584 130.101 145.584 129.511C145.437 127.299 145.289 124.939 145.142 122.728C145.142 122.58 145.289 122.285 145.436 122.285C146.469 122.285 147.648 122.285 148.681 122.285C149.271 122.285 149.86 122.433 150.598 122.433Z" fill="white"/>
<path d="M152.368 131.871C152.368 128.774 152.368 125.677 152.368 122.581C154.285 122.433 156.055 122.286 157.677 122.138C157.677 123.023 157.677 124.055 157.677 125.087C157.677 126.12 157.529 127.299 157.382 128.332C157.235 129.069 157.235 129.954 157.087 130.691C157.087 130.839 157.234 131.133 157.234 131.428C155.76 132.166 153.99 131.576 152.368 131.871Z" fill="white"/>
<path d="M158.414 131.723C158.561 130.249 158.708 128.922 158.708 127.447C158.856 125.825 159.003 124.203 159.003 122.581C159.003 121.991 159.298 121.696 159.888 121.548C161.068 121.106 162.248 120.516 163.575 120.074C163.722 120.074 164.017 120.074 164.165 119.926C163.87 122.581 163.722 125.235 163.427 127.889C163.427 128.037 163.28 128.332 163.132 128.479C162.248 129.069 161.953 129.954 161.805 130.986C161.658 131.576 161.51 131.723 160.92 131.723C160.183 131.576 159.446 131.723 158.414 131.723Z" fill="white"/>
<path d="M143.225 122.433C143.52 125.529 143.668 128.479 143.963 131.428C142.34 131.133 140.718 130.838 138.949 130.396C138.359 127.594 137.917 124.792 137.327 121.843C139.539 122.138 141.308 122.285 143.225 122.433Z" fill="white"/>
<path d="M128.479 180.976C127.299 180.976 126.267 180.976 125.235 180.976C124.202 180.976 123.17 181.123 121.99 181.271C121.548 181.271 121.253 181.418 120.811 181.418C120.368 181.418 120.073 181.271 120.073 180.828C119.926 179.649 119.778 178.469 119.631 177.289C119.631 176.994 119.041 176.847 118.746 176.552C118.599 176.404 118.451 176.552 118.304 176.404V176.257C119.188 176.257 120.221 176.257 121.105 176.257C121.99 176.257 122.875 176.257 123.76 176.257C124.94 176.11 126.119 175.667 127.299 176.11C127.594 176.257 128.036 176.257 128.479 176.11C129.069 175.962 129.069 176.404 129.069 176.699C128.774 178.027 128.626 179.501 128.479 180.976Z" fill="white"/>
<path d="M78.3407 158.709C77.8983 158.709 77.3085 158.857 76.7186 158.857C75.244 158.857 73.7693 158.857 72.2947 159.004C70.6726 159.004 69.0505 159.151 67.4284 159.151C66.986 159.151 66.5435 159.446 66.1012 158.709C65.9537 158.562 65.2164 158.709 64.6265 158.562C64.0367 158.562 63.4468 158.562 63.0044 158.562C62.7095 157.677 62.2671 156.939 61.9722 156.055C63.0044 156.055 63.8892 156.055 64.774 156.055C67.8708 156.055 70.82 155.907 73.9167 155.907C75.2439 155.907 76.5711 156.055 77.8983 156.202C78.0458 156.202 78.3407 156.645 78.3407 156.645C77.7508 157.382 78.4881 157.972 78.3407 158.709Z" fill="white"/>
<path d="M173.455 112.7C173.16 111.815 172.423 112.11 171.833 112.11C171.833 111.668 171.833 111.226 171.833 110.783C171.833 109.161 171.98 107.539 171.98 105.769C171.98 105.032 172.128 104.295 172.128 103.557C172.128 101.198 172.128 98.8386 171.98 96.6266C171.833 94.5621 171.686 92.4976 171.391 90.4331C171.391 90.2857 171.391 90.1382 171.391 90.1382C171.98 89.9907 172.57 89.6958 173.16 89.5483C173.308 89.5483 173.455 89.8433 173.455 89.9907C173.603 91.1704 173.75 92.3502 173.75 93.3824C173.897 96.3317 173.898 99.1335 173.898 102.083C173.898 103.705 173.75 105.327 173.603 106.949C173.455 108.571 173.455 110.193 173.455 111.668C173.455 112.11 173.455 112.405 173.455 112.7Z" fill="white"/>
<path d="M169.769 86.009C168.442 86.4514 167.114 86.8938 165.64 87.4837C165.492 86.1565 165.492 85.1242 165.345 84.092C165.05 81.7325 165.197 79.3731 164.313 77.1612C164.165 76.7188 164.313 76.5713 164.755 76.4239C165.492 76.2764 166.377 76.2764 167.114 76.1289C167.704 76.1289 167.999 76.1289 168.147 76.8662C168.442 78.6358 169.031 80.4054 169.326 82.175C169.621 83.3547 169.621 84.6819 169.769 86.009Z" fill="white"/>
<path d="M169.769 118.156C169.621 119.189 169.621 120.221 169.326 121.253C168.884 123.76 168.442 126.267 167.999 128.774C167.999 128.921 167.852 129.216 167.557 129.364C166.967 129.658 166.377 129.953 165.64 130.248C165.05 130.543 164.165 129.658 164.313 129.069C164.46 128.036 164.755 127.004 164.903 125.824C165.05 124.055 165.197 122.285 165.345 120.368C165.492 119.336 165.492 119.041 166.672 118.746C167.852 118.599 168.737 118.304 169.769 118.156Z" fill="white"/>
<path d="M58.7283 156.055C58.7283 157.087 58.7283 157.972 58.7283 159.152C57.991 159.152 57.1062 159.152 56.3689 159.152C55.0417 159.299 53.7145 159.446 52.3873 159.594C50.9127 159.741 49.5855 160.036 48.1108 160.184C47.9634 160.184 47.6685 160.036 47.6685 159.889C47.6685 158.709 47.6685 157.382 47.6685 156.055C49.733 156.792 51.65 156.202 53.567 156.202C54.3044 156.202 55.1892 155.907 55.9265 155.907C56.9588 155.76 57.8435 155.907 58.7283 156.055Z" fill="white"/>
<path d="M89.9902 52.8296C91.0225 51.7974 92.2022 51.5024 93.3819 51.2075C94.7091 50.9126 96.0363 50.4702 97.3635 50.0278C98.8381 49.5854 100.46 49.5854 102.082 49.8803C103.557 50.1753 105.032 50.1753 106.359 50.4702C108.866 50.9126 111.52 51.5025 114.027 52.0923C116.386 52.6822 118.598 53.4195 120.81 54.1568C120.958 54.1568 121.105 54.3043 121.105 54.3043C123.022 55.484 125.234 56.0738 127.446 56.8111C128.773 57.2535 130.101 57.9909 131.428 58.5807C131.428 58.7282 131.28 58.7282 131.28 58.8757C130.985 58.7282 130.69 58.5807 130.248 58.4333C128.478 57.6959 126.709 56.9586 124.792 56.3688C123.465 55.9264 122.137 55.7789 120.958 55.484C119.926 55.189 118.893 54.7467 117.861 54.4518C117.124 54.1568 116.239 54.0094 115.502 53.7144C114.322 53.272 112.995 52.8296 111.815 52.3872C110.488 51.7974 109.013 51.7974 107.539 51.5025C105.474 51.0601 103.41 50.7651 101.345 50.6177C100.313 50.4702 99.2805 50.7651 98.2482 50.6177C96.0362 50.4702 94.1193 51.5025 92.0548 52.0923C91.4649 52.3872 90.7276 52.5347 89.9902 52.8296Z" fill="white"/>
<path d="M145.88 144.552C142.635 144.995 139.391 144.847 136.294 146.174C136.147 144.7 136.147 143.225 136 141.751C136.884 141.898 137.622 142.193 138.359 142.34C138.949 142.488 139.539 142.488 139.981 141.898C140.129 141.751 140.423 141.603 140.571 141.751C141.013 141.751 141.456 141.898 141.898 142.045C143.078 142.193 144.11 142.34 145.142 142.34C145.29 142.93 145.585 143.668 145.88 144.552Z" fill="white"/>
<path d="M135.41 88.221C134.967 88.0736 134.377 87.9261 133.935 87.6312C133.788 87.4837 133.788 87.0413 133.788 86.7464C134.23 84.6819 134.82 82.6174 135.41 80.7003C135.705 79.2257 136.147 77.751 136.442 76.4239C136.442 76.2764 136.737 76.1289 136.884 75.9814C136.884 75.9814 137.032 75.9815 137.179 76.1289C137.327 76.2764 137.327 76.4239 137.474 76.5713C137.917 76.7188 138.359 76.8662 138.654 77.0137C137.474 80.5529 136.442 84.2395 135.41 88.221Z" fill="white"/>
<path d="M153.695 144.11C151.925 144.553 150.303 144.553 148.534 144.258C148.829 143.668 148.829 143.078 149.271 142.488C149.566 142.193 150.156 142.046 150.598 142.046C151.188 142.046 151.778 142.046 152.368 142.193C153.253 142.341 153.842 141.751 153.547 140.866C153.4 140.424 153.105 139.981 152.958 139.392C154.137 138.949 155.465 139.244 156.644 139.097C156.349 139.392 155.759 139.687 155.759 139.981C155.759 141.014 156.054 141.899 156.644 142.783C156.792 143.078 156.939 143.373 157.087 143.521C155.907 144.258 154.727 144.258 153.695 144.11Z" fill="white"/>
<path d="M87.3365 54.4517C86.5991 55.9263 86.0093 57.401 85.2719 58.8756C84.2397 60.7927 83.6499 62.8571 83.2075 64.9216C83.06 65.364 83.3549 65.8064 83.2075 66.1014C83.06 67.4285 82.765 68.9032 82.765 70.2303C82.765 71.9999 82.765 73.7695 82.765 75.5391C82.765 76.2764 82.9125 77.1612 83.06 77.8985C82.9125 77.8985 82.9125 77.8985 82.765 77.8985C82.6176 77.3087 82.4701 76.7188 82.3226 76.1289C81.7328 73.7695 81.7328 71.2626 81.8803 68.7557C82.1752 65.8064 82.4701 63.0046 83.06 60.0553C83.3549 58.5807 84.0922 57.106 85.2719 55.9263C85.8618 55.3365 86.3042 54.7466 86.8941 54.1567C87.0416 54.5991 87.189 54.5991 87.3365 54.4517Z" fill="white"/>
<path d="M163.28 74.3597C155.465 75.9818 147.502 75.9818 139.539 75.5394C141.898 75.2445 144.258 75.097 146.617 74.8021C147.354 74.6546 148.092 74.5071 148.829 74.5071C149.271 74.5071 149.714 74.5071 150.304 74.8021C150.746 75.097 151.631 75.097 152.221 74.9495C154.138 74.2122 156.055 74.3597 157.972 74.3597C159.594 74.3597 161.511 74.3597 163.28 74.3597Z" fill="white"/>
<path d="M47.6685 162.396C48.8482 162.396 49.8805 162.396 51.2076 162.396C50.9127 164.165 51.2076 165.64 52.3873 167.114C50.7652 167.262 49.2906 167.409 47.6685 167.704C47.6685 165.64 47.6685 164.018 47.6685 162.396Z" fill="white"/>
<path d="M136.294 151.336C136.294 150.009 136.294 148.829 136.294 147.502C137.031 148.239 137.916 147.797 138.801 147.649C139.833 147.502 140.718 147.354 141.898 147.207C141.898 147.502 141.898 147.649 141.898 147.649C141.603 147.944 141.013 148.092 141.013 148.387C141.013 148.977 141.308 149.714 141.603 150.304C141.603 150.451 141.75 150.599 141.898 150.894C139.981 151.041 138.064 151.189 136.294 151.336Z" fill="white"/>
<path d="M171.244 85.4192C170.654 82.0275 169.917 78.7833 169.327 75.5391C169.622 75.3916 170.064 75.3916 170.654 75.2441C170.949 76.2764 171.244 77.3087 171.391 78.3409C171.686 79.5206 171.834 80.7004 172.129 81.7326C172.276 82.3225 172.571 82.9123 172.718 83.6496C172.866 84.092 173.013 84.6819 172.718 84.8293C172.276 85.1243 171.686 85.2718 171.244 85.4192Z" fill="white"/>
<path d="M136.884 129.363C136.147 128.921 135.41 128.479 134.82 127.889C134.672 127.741 134.525 127.594 134.525 127.446C134.23 125.824 134.082 124.35 133.935 122.728C133.935 122.285 133.935 121.695 133.788 121.105C134.525 121.253 135.115 121.253 135.705 121.548C136 121.695 136 122.285 136.147 122.728C136.442 124.645 136.737 126.709 137.032 128.626C136.884 129.069 136.884 129.216 136.884 129.363Z" fill="white"/>
<path d="M172.865 116.682C172.865 116.977 172.718 117.271 172.718 117.566C172.275 120.516 171.833 123.465 171.243 126.414C171.096 127.004 170.358 127.594 169.916 128.036L169.769 127.889C170.063 126.857 170.358 125.677 170.506 124.645C170.801 123.465 170.948 122.285 171.096 120.958C171.243 119.926 171.243 118.746 171.538 117.714C171.686 117.271 172.275 116.829 172.718 116.387C172.718 116.534 172.865 116.682 172.865 116.682Z" fill="white"/>
<path d="M132.902 59.4658C136.294 60.4981 139.243 62.4151 142.045 64.4796L141.898 64.6271C141.16 64.1847 140.276 63.8898 139.538 63.2999C138.358 62.2677 136.884 61.8253 135.557 61.0879C134.672 60.6455 133.787 60.0557 132.755 59.4658C132.755 59.6133 132.755 59.6133 132.902 59.4658Z" fill="white"/>
<path d="M82.9121 79.8157C84.0918 79.5207 84.2392 79.8157 84.2392 80.553C84.2392 80.8479 83.9443 81.2903 83.7969 81.2903C83.207 81.4378 82.9121 80.9954 82.9121 79.8157Z" fill="white"/>
<path d="M80.9952 158.562C80.7003 157.824 80.4053 157.087 80.1104 156.35C80.4053 156.35 80.7002 156.35 80.8477 156.35C80.9951 157.087 81.1426 157.824 81.1426 158.414C81.1426 158.562 81.1427 158.562 80.9952 158.562Z" fill="white"/>
<path d="M132.313 143.815C132.165 142.93 132.165 142.193 132.018 141.603C132.755 141.603 133.05 142.635 132.313 143.815Z" fill="white"/>
<path d="M78.9308 89.6958C77.7511 89.5484 76.5713 89.5484 75.3916 89.4009V89.2534C76.5713 89.4009 77.7511 89.4009 78.9308 89.5484C78.9308 89.5484 78.9308 89.5484 78.9308 89.6958Z" fill="white"/>
<path d="M134.229 165.64C134.377 165.935 134.377 165.935 134.524 166.083C134.524 165.935 134.672 165.788 134.672 165.64C134.672 165.64 134.672 165.64 134.819 165.64C134.819 166.672 134.672 167.705 134.672 168.589C134.524 167.852 134.377 166.82 134.229 165.64Z" fill="white"/>
<path d="M64.7734 81.8804C65.8057 81.5854 66.6905 81.1431 67.7227 80.8481V80.9956C66.6905 81.2905 65.8057 81.7329 64.7734 82.0278C64.7734 82.0278 64.7734 82.0278 64.7734 81.8804Z" fill="white"/>
<path d="M119.041 167.852C118.304 168 117.714 168 116.977 168.147C117.124 167.557 117.124 167.557 119.041 167.852Z" fill="white"/>
<path d="M103.409 106.802C102.082 107.097 100.755 107.244 99.4278 107.539C99.1329 107.539 98.9854 107.687 98.6905 107.687C98.543 107.687 98.2481 107.392 98.1006 107.244C98.2481 107.097 98.3955 106.802 98.543 106.802C99.1328 106.654 99.8701 106.654 100.46 106.654C101.345 106.654 102.377 106.654 103.262 106.654C103.262 106.654 103.262 106.654 103.409 106.802Z" fill="black"/>
</svg>
