<svg width="225" height="225" viewBox="0 0 225 225" fill="none" xmlns="http://www.w3.org/2000/svg">
<circle cx="112.5" cy="112.5" r="112.5" fill="#C6B191"/>
<path d="M97.284 139.164C97.458 138.99 97.458 138.816 97.632 138.642C97.806 139.338 97.9799 140.033 97.9799 140.729H98.1539C98.1539 139.86 98.1539 138.816 98.1539 137.598C96.5882 137.598 94.8484 137.424 92.7608 137.424C92.7608 138.12 92.9348 138.642 92.9348 139.164H92.7608C92.7608 138.816 92.5869 138.468 92.5869 138.12C92.4129 137.772 92.4129 137.598 92.2389 137.25C92.0649 137.25 92.0649 137.25 91.891 137.424C92.0649 138.294 92.0649 139.338 92.2389 140.207C92.4129 140.903 92.4129 141.599 92.5869 142.295C93.1088 144.905 92.9348 147.514 93.4567 150.124C93.6307 151.342 93.6307 152.559 93.8046 153.777C94.1526 156.909 94.3265 160.04 94.6745 163.172C94.8485 165.259 95.0224 167.521 95.3704 169.608C95.7183 171.696 96.2402 173.784 96.5882 175.871C95.8923 175.697 95.1964 175.002 94.8485 176.393C94.3266 173.784 93.8047 171.348 93.4567 168.913C93.1088 166.999 93.1088 165.085 92.9348 162.998C92.7608 160.736 92.5869 158.474 92.4129 156.213C92.2389 153.951 91.891 151.69 91.543 149.254C91.543 148.558 91.717 147.862 91.717 146.992C91.5431 147.34 91.543 147.34 91.3691 147.514C91.0211 143.861 90.6732 140.381 90.3252 136.728C89.4554 136.902 88.2376 137.076 87.1938 137.25C87.3678 142.469 87.5417 147.34 87.5417 152.385C87.5417 155.169 87.3678 157.952 87.1938 160.562C87.1938 160.91 87.1938 161.258 87.1938 161.606C87.1938 166.651 87.1938 171.696 87.1938 176.741C87.1938 177.437 87.3677 178.133 86.1499 178.133C85.976 178.133 85.802 179.003 85.6281 179.525C85.4541 179.525 85.1061 179.699 84.7582 179.699C84.5842 178.133 84.5842 176.393 84.5842 174.654C84.5842 172.392 84.9322 170.13 84.4102 167.869C83.7144 164.563 84.2362 161.258 84.0623 157.778C84.0623 154.647 84.2363 151.516 84.2363 148.558C84.2363 145.427 83.8883 142.295 83.7144 138.99C83.7144 138.642 83.7144 138.294 83.7144 138.12C84.0623 136.728 83.1925 136.728 82.1486 136.728C81.4528 136.728 80.7569 136.554 79.887 136.38C79.713 137.772 79.3651 138.99 79.1911 140.381C78.6692 142.991 78.1473 145.775 77.6254 148.384C77.1035 151.342 76.7555 154.299 76.2336 157.257C76.0596 158.996 75.8857 160.562 75.7117 162.302C75.5377 164.737 75.1898 167.347 75.0158 169.782C75.0158 170.304 75.0158 170.826 75.0158 171.348C75.1898 172.74 74.8419 173.958 73.972 174.48C73.798 173.784 73.4501 173.088 73.624 172.392C73.798 169.608 73.972 166.999 74.32 164.215C74.4939 161.606 74.8419 158.996 75.1898 156.387C75.3638 154.647 75.7117 153.081 75.8857 151.342C76.0597 149.08 76.2336 146.818 76.4076 144.557C76.5816 143.165 76.9295 141.599 77.2774 140.207C77.6254 138.816 77.7994 137.598 78.1473 136.206C77.7994 136.032 77.4514 136.032 76.9295 135.858C76.9295 136.38 76.9295 136.902 76.9295 137.424C76.9295 138.12 77.1035 138.816 76.4076 139.164C76.2336 139.164 76.2336 139.686 76.2336 139.86C76.2336 141.599 76.2336 143.165 76.0597 144.905C76.0597 144.557 75.8857 144.383 75.8857 144.035C75.8857 141.599 75.5377 139.338 75.3638 136.902C75.1898 135.51 74.8419 135.51 73.798 135.51C73.2761 135.51 72.7542 135.336 72.4063 135.336C71.1885 141.251 70.8406 146.992 70.6666 152.907C70.4926 152.907 70.4926 152.733 70.3186 152.733C70.1446 153.081 69.9707 153.255 69.7967 153.603C69.6228 153.951 69.6227 154.299 69.4488 154.647C69.9707 148.21 70.1447 141.773 71.7104 135.336C71.0145 135.162 70.1447 134.988 69.1009 134.814C68.5789 140.381 68.057 145.948 68.7529 151.516C67.5351 145.948 68.9269 140.207 68.231 134.64C68.057 134.64 67.7091 134.466 67.3612 134.292C67.3612 134.292 67.1872 134.292 67.0132 134.292C66.8392 136.902 66.4913 139.686 66.8392 142.295C67.0132 143.339 66.4913 144.383 66.3173 145.427C66.1433 146.122 65.9694 146.644 65.9694 147.34C65.9694 149.428 65.9693 151.516 65.7954 153.603C65.7954 153.255 65.6214 152.733 65.6214 152.385C65.6214 150.124 65.6214 147.862 65.6214 145.775C65.6214 142.469 65.4475 139.164 65.4475 135.858C65.4475 135.336 65.4475 134.814 65.4475 134.292C65.4475 134.118 65.2735 133.771 65.0995 133.771C63.3598 133.423 61.6201 132.901 59.7064 132.553C59.7064 133.075 59.7064 133.423 59.7064 133.944C59.7064 137.25 59.5325 140.555 59.5325 143.687C59.3585 147.166 59.0105 150.472 58.8366 153.777C58.6626 156.561 58.4886 159.17 58.3147 161.954C58.3147 163.172 57.9667 164.389 58.1407 165.607C58.3147 167.347 58.4886 168.913 59.0105 170.478C59.5324 172.044 59.3585 173.436 59.3585 174.828C59.3585 175.175 58.6626 175.523 58.1407 176.045C57.9667 175.523 57.6188 175.176 57.4448 174.654C57.4448 174.654 57.2708 174.828 57.2708 175.002C57.2708 174.828 57.2708 174.654 57.2708 174.654C57.2708 172.914 57.2708 171 57.0969 169.261C57.0969 168.913 56.575 168.565 56.0531 168.391C55.5312 165.955 55.5311 163.519 55.8791 161.084C55.8791 160.91 55.8791 160.562 55.8791 160.388C56.0531 156.561 56.227 152.559 56.401 148.732C56.401 146.47 56.575 144.035 56.575 141.773C56.575 138.642 56.7489 135.51 56.7489 132.553C56.7489 131.857 56.575 131.509 55.8791 131.161C52.9216 129.943 49.9641 128.899 47.0066 127.508C45.6148 126.986 44.397 126.116 42.8313 125.42C42.8313 127.508 42.8313 129.421 42.8313 131.161C43.0053 134.64 43.0053 138.12 43.3532 141.599C43.5272 144.209 44.0491 146.818 44.397 149.428C44.571 150.646 44.571 151.863 44.571 153.081C44.745 155.517 44.745 158.126 45.0929 160.562C45.2669 161.78 44.0491 162.128 43.7012 162.998C43.5272 162.824 43.0053 162.65 43.0053 162.476C42.8313 161.606 42.8313 160.736 42.8313 160.04C42.6573 157.257 42.3094 154.647 42.1354 151.863C41.9615 149.08 41.6135 146.296 41.4395 143.513C41.2655 141.425 41.0916 139.338 40.9176 137.25C40.9176 136.032 40.9176 134.814 40.9176 133.597C40.9176 131.335 40.7436 129.073 40.5697 126.812C40.5697 126.464 40.3957 125.942 40.5697 125.768C40.9176 124.898 40.5697 124.55 39.6998 124.202C39.6998 124.724 39.8738 125.072 39.8738 125.594C39.6998 127.508 39.5259 129.247 39.5259 131.161C39.5259 132.031 39.6998 132.901 39.6998 133.944C39.6998 137.076 39.5259 140.033 39.3519 143.165C39.3519 147.862 39.3519 152.385 39.5259 157.083C39.5259 158.648 39.5258 160.214 39.6998 161.78C39.8738 164.563 40.2217 167.347 40.2217 170.13C40.2217 171.348 40.5697 172.74 39.5259 173.958C39.004 174.48 37.7861 174.48 37.2642 173.958C36.2204 172.566 36.3944 171 36.2204 169.435C36.0464 167.347 36.0465 165.085 36.0465 162.998C35.8725 159.518 35.8725 156.039 35.8725 152.559C35.8725 149.428 35.6985 146.296 35.6985 143.165C35.5245 139.338 35.1766 135.684 35.0026 131.857C34.8287 130.117 34.8286 128.203 34.8286 126.464C34.8286 125.072 34.4807 123.68 34.6547 122.115C34.8286 119.331 35.3505 116.374 35.5245 113.59C35.6985 110.806 35.3505 108.197 35.3505 105.413C35.3505 104.543 35.3505 103.674 35.3505 102.804C35.3505 102.108 35.5245 101.586 35.5245 100.89C35.6985 97.9326 36.0464 94.8012 36.2204 91.8437C36.2204 91.3218 36.0465 90.7999 36.0465 90.2779C36.0465 89.5821 36.2204 88.8862 36.2204 88.1903C36.3944 86.4506 36.5684 84.7109 36.7423 83.1451C36.7423 82.6232 36.9163 82.1013 37.2642 81.5794C37.7861 80.7096 38.308 80.0136 39.0039 79.1438C39.1779 78.9698 39.1779 78.7959 39.3519 78.7959C40.5697 78.6219 41.2656 77.5781 41.7875 76.7082C43.1792 74.7945 44.9189 73.4028 47.0066 72.5329C48.2244 72.011 49.6162 71.6631 50.834 70.9672C53.9654 68.8796 57.9667 68.7056 61.2722 66.9659C63.5338 65.7481 66.1433 65.0522 68.5789 64.5303C70.4926 64.1823 72.5802 63.8344 74.4939 63.6604C78.4952 63.3125 82.4966 62.9645 86.4979 62.6166C88.2376 62.4426 89.9773 62.6166 91.717 62.6166C94.8485 62.6166 97.806 62.4427 100.937 62.4427C102.677 62.4427 104.591 62.0947 106.331 62.0947C108.418 62.0947 110.506 61.9207 112.593 61.9207C115.203 61.9207 117.813 61.9207 120.248 62.0947C124.423 62.4426 128.599 63.1385 132.6 63.6604C134.862 64.0084 136.949 64.0084 139.211 64.3563C141.647 64.7042 143.908 65.2262 146.344 65.5741C148.083 65.9221 149.823 66.096 151.389 66.27C151.563 66.27 152.085 65.9221 152.259 65.7481C153.824 62.9646 155.39 60.181 156.956 57.5715C159.218 53.7441 161.479 50.0907 163.741 46.2634C164.263 45.3935 164.611 44.3497 165.133 43.4798C165.307 43.1319 165.654 42.9579 166.002 42.784C167.394 42.436 170.352 43.6538 170.874 44.8716C171.048 45.3936 170.874 46.0894 170.526 46.6113C169.134 49.2209 167.916 52.0044 166.002 54.0921C164.263 56.1797 163.393 58.4413 162.175 60.703C160.957 62.6166 159.913 64.5303 158.87 66.6179C158.696 66.7919 158.696 67.1399 158.522 67.4878C162.697 68.1837 166.698 69.0535 170.526 70.7932C174.353 72.5329 177.658 74.7946 180.964 77.2302C181.834 76.3603 182.53 75.4904 183.921 76.1863C184.617 77.5781 183.921 78.7958 183.573 80.0136C183.399 80.5356 183.573 81.0575 183.747 81.5794C183.747 81.9274 183.921 82.1013 183.921 82.4493C184.095 85.7547 184.269 88.8861 184.443 92.1916C184.443 93.0614 184.443 93.9313 184.617 94.6272C185.487 97.0628 184.791 99.4983 185.139 101.76C185.313 102.456 185.835 102.978 186.009 103.5C186.183 103.848 186.357 104.196 186.357 104.543C187.401 105.065 187.575 105.761 187.401 106.979C186.879 108.893 186.531 110.98 186.183 112.894C186.009 113.416 186.009 113.938 186.183 114.46C186.357 117.243 186.531 120.027 186.531 122.81C186.705 126.464 186.879 130.117 186.879 133.771C187.053 139.338 187.053 144.731 187.053 150.298C187.053 152.037 186.879 153.777 186.879 155.517C186.879 157.605 187.227 159.692 187.227 161.954C187.227 162.998 187.053 164.041 186.879 164.911V165.085C186.705 166.825 186.531 168.391 186.531 170.13C186.357 170.13 186.183 170.13 186.183 170.13C185.661 168.565 185.313 166.825 184.791 165.085C183.747 165.259 182.53 165.085 182.53 163.346C182.008 163.346 181.486 163.346 180.964 163.346C180.79 162.476 180.616 161.606 180.616 160.736C180.442 159.17 180.268 157.605 180.094 156.213C179.746 153.429 179.398 150.646 179.224 147.862C179.05 146.818 179.398 145.601 179.224 144.557C178.528 140.729 178.876 136.902 178.876 132.901C178.876 130.291 178.702 127.682 178.702 125.072C178.702 124.202 178.354 123.506 178.18 122.636C178.006 121.419 177.658 120.201 177.484 119.157C173.831 121.071 170.004 123.158 166.35 125.072C166.35 127.508 166.35 130.117 166.35 132.553C166.35 136.206 166.176 139.859 166.176 143.513C166.176 146.644 166.35 149.776 166.35 152.733C166.35 154.125 166.524 155.517 166.524 157.083C166.872 160.04 167.046 163.172 167.394 166.129C167.568 168.217 167.916 170.304 167.046 172.392C166.872 172.74 167.046 173.088 166.872 173.436C166.524 171.696 166.176 169.782 165.828 168.043H165.654C165.654 168.217 165.481 168.217 165.481 168.391C165.307 167.869 165.307 167.521 165.307 167.173C165.307 166.129 165.307 165.085 165.133 164.215C165.133 164.041 164.785 163.867 164.263 163.693C164.089 160.91 163.567 157.778 163.567 154.647C163.393 149.776 163.393 144.731 163.393 139.86C163.393 135.858 163.219 131.683 163.045 127.682C163.045 127.508 163.045 127.16 163.219 126.638C161.479 127.334 159.913 128.029 158.522 128.725C158.522 132.553 158.522 136.206 158.522 139.86C158.522 142.121 158.87 144.383 158.87 146.644C158.87 147.862 158.696 149.08 158.696 150.298C158.87 153.081 159.218 155.865 159.566 158.474C159.739 159.692 159.566 160.736 159.566 161.954C159.566 163.867 159.565 165.607 159.739 167.521C159.739 168.217 159.913 168.913 159.913 169.608C159.913 171 160.087 172.392 160.087 173.784C160.087 174.654 160.087 175.697 159.739 176.567C159.565 177.089 158.696 177.437 158.174 177.611C158 177.785 157.478 177.263 157.13 177.089C156.956 176.915 156.782 176.393 156.956 176.219C157.13 175.697 157.478 174.306 157.478 173.958C157.13 171.348 156.782 168.565 156.26 165.955C155.912 164.215 155.564 162.302 155.216 160.562C155.216 161.084 155.216 161.78 155.216 162.302H155.042C154.694 160.214 154.52 158.126 154.172 156.039C153.998 156.039 153.998 156.039 153.824 156.039C153.998 157.083 153.998 158.126 154.172 159.344H153.998C153.824 158.3 153.651 157.083 153.477 156.039C153.303 155.169 153.129 154.125 153.303 153.081C153.651 150.646 153.477 148.384 153.129 145.948C152.955 144.383 152.955 142.643 152.781 141.077C152.607 139.338 152.085 137.598 151.737 135.858C151.737 135.858 151.563 135.684 151.215 135.51C151.563 137.772 151.911 139.686 152.259 141.599C152.085 141.599 152.085 141.599 151.911 141.599C151.563 139.164 151.041 136.728 150.693 134.118C151.563 134.292 152.085 134.466 152.781 134.466C152.955 134.466 153.303 134.292 153.303 134.118C153.303 133.597 153.303 133.075 153.129 132.727C152.781 132.031 152.781 131.509 153.303 130.813C153.477 133.249 153.65 135.51 153.824 137.598C153.998 139.164 154.346 140.903 154.52 142.469C154.52 142.643 154.694 142.991 154.694 143.165C154.694 145.775 154.694 148.558 155.042 151.168C155.39 154.299 155.912 157.257 156.26 160.388C156.26 160.562 156.26 160.562 156.26 160.736C156.086 163.693 156.608 166.651 157.13 169.435C157.13 169.608 157.13 169.782 157.13 169.956C157.478 169.956 157.652 169.956 158.174 170.13C158 168.217 157.826 166.303 157.652 164.389C157.652 163.867 157.652 163.172 157.652 162.65C157.478 159.866 157.304 157.083 157.13 154.299C157.13 153.081 156.956 152.037 156.956 150.82C156.782 147.688 156.782 144.557 156.782 141.251C156.608 137.946 156.434 134.64 156.26 131.335C156.26 130.639 155.912 129.943 155.912 129.421C154.868 129.595 154.694 130.117 154.694 130.987C154.694 132.205 154.52 133.423 154.52 134.64C154.346 134.64 154.346 134.64 154.172 134.64C153.998 133.249 153.998 131.683 153.824 129.943C152.955 130.117 151.737 130.117 150.693 130.291C150.519 130.291 150.345 130.465 150.345 130.465C149.301 131.683 148.779 132.031 147.04 132.379C147.214 132.031 147.214 131.857 147.388 131.335C146.692 131.509 145.996 131.683 145.3 131.857V132.031C145.474 132.031 145.822 132.205 146.17 132.205C144.778 132.553 143.56 132.901 142.342 133.075C142.516 134.292 142.69 135.51 142.864 136.728C143.038 139.338 143.386 142.121 143.212 144.731C143.212 147.34 142.864 149.776 142.516 152.385C142.516 153.081 142.342 153.603 142.342 154.299C142.168 158.3 141.82 162.302 141.647 166.303C141.647 167.695 141.821 169.261 141.821 170.652C141.821 172.392 141.994 174.306 141.994 176.045C141.994 176.567 141.994 177.089 141.994 177.611C140.951 177.785 140.777 177.611 140.777 176.567C140.777 175.002 140.603 173.61 140.603 172.044C140.603 168.913 140.429 165.781 140.429 162.65C140.429 162.302 140.429 161.78 140.255 161.432C140.255 161.78 140.255 162.128 140.081 162.476C140.081 157.083 140.081 151.689 140.081 146.296H140.255C140.255 146.47 140.081 146.47 140.081 146.644C140.081 146.47 139.907 146.47 139.907 146.296C139.733 143.165 139.559 139.859 139.559 136.728C139.559 135.684 139.733 134.64 139.733 133.423C139.037 133.597 138.341 133.597 137.819 133.771C137.471 133.423 137.123 133.249 136.949 133.075C137.471 132.901 137.993 132.727 138.689 132.727C138.689 132.553 138.689 132.553 138.689 132.379C137.645 132.553 136.601 132.727 135.732 132.901C135.036 133.075 134.34 132.901 133.47 133.075C133.122 133.075 132.948 133.423 132.774 133.597C132.774 133.597 132.948 133.597 133.122 133.771C132.774 133.945 132.426 134.118 132.252 134.118C131.034 133.771 129.991 134.814 128.947 134.988C128.773 134.988 128.425 135.684 128.425 136.032C128.251 136.554 128.425 137.076 128.425 137.772C128.251 137.598 128.251 137.598 128.077 137.25C128.077 137.598 127.903 137.946 128.077 138.12C129.121 139.338 128.599 140.729 128.773 141.947C128.773 142.121 128.599 142.295 128.425 142.469C128.251 142.817 128.077 143.165 128.077 143.513C128.077 144.383 128.077 145.427 128.251 146.296C128.599 147.514 128.077 148.384 127.729 149.254C127.555 149.776 127.729 150.472 127.729 150.994C127.555 150.994 127.555 150.994 127.381 150.994C126.859 145.775 126.163 140.555 125.467 135.336C122.51 135.684 119.552 136.032 116.595 136.38C116.595 139.338 116.595 142.295 116.595 145.253C116.595 146.992 116.769 148.732 116.769 150.472C116.769 152.907 116.943 155.169 116.943 157.604C116.943 159.17 116.943 160.736 116.769 162.302C116.595 164.041 116.247 165.781 116.073 167.521C116.073 167.869 115.899 168.217 115.551 168.739C115.551 167.869 115.551 166.825 115.551 165.607C114.681 166.651 114.855 174.132 115.377 180.221C114.855 179.873 114.333 179.873 114.333 179.003C114.333 177.959 113.985 176.741 114.159 175.697C114.507 174.132 113.637 172.566 113.985 171C114.333 169.087 114.681 167.173 114.681 165.259C114.681 164.215 114.333 163.172 114.333 161.954C114.333 161.432 114.507 160.736 114.507 160.04C114.507 159.518 114.159 158.996 114.159 158.648C113.985 155.169 113.985 151.863 113.811 148.384C113.637 145.427 113.289 142.643 113.115 139.686C113.115 138.816 113.115 137.946 113.289 136.902C112.42 136.902 111.724 136.902 111.028 136.902C110.506 136.902 109.81 137.598 109.636 136.554C109.462 136.554 109.288 136.728 108.94 136.728C108.94 136.902 108.94 136.902 108.94 137.076C108.418 137.076 107.896 137.076 107.2 137.076C106.505 142.469 105.809 148.036 105.287 153.603H105.113C105.113 152.385 105.287 151.168 105.287 149.95C105.113 149.95 105.113 149.95 104.939 149.95C104.765 153.429 104.591 156.909 104.417 160.388C104.417 160.388 104.417 160.388 104.243 160.388C104.243 155.865 104.243 151.342 104.243 147.166C104.069 148.732 103.895 150.472 103.721 152.211C103.373 156.039 103.199 159.866 102.851 163.867C102.677 166.651 102.329 169.434 101.981 172.218C101.807 173.61 101.459 175.002 101.459 176.219C101.459 176.915 101.633 177.611 101.633 178.133C101.633 178.481 101.111 178.829 100.937 179.177C100.589 178.829 100.068 178.655 99.8936 178.307C99.5457 177.089 99.3717 175.697 99.1977 174.48C99.0238 172.392 98.6758 170.478 98.5019 168.391C98.3279 166.999 98.5018 165.433 98.1539 164.041C97.632 162.302 98.5019 160.562 97.458 158.822C97.1101 158.126 97.284 157.257 97.1101 156.387C96.7621 153.429 96.5882 150.646 96.2402 147.688C96.0662 145.775 96.0663 143.861 95.7183 141.947C95.5444 140.555 95.8923 139.338 96.2402 137.946C96.2402 137.598 96.5882 137.424 96.9361 137.25C96.7622 137.598 96.5882 137.946 96.4142 138.294C97.1101 139.164 97.284 139.164 97.284 139.164ZM78.3213 121.767C78.4952 121.593 78.6692 121.245 79.0171 120.897C78.8432 122.81 78.6692 124.55 78.4953 126.464C80.061 126.638 81.4528 126.812 83.0185 126.986C83.0185 119.331 83.0185 112.024 83.0185 104.543C81.6267 104.543 80.4089 104.37 79.0171 104.37C79.0171 106.457 79.0171 108.371 79.0171 110.285C78.8432 110.285 78.6692 110.285 78.4953 110.285C78.4953 108.719 78.4953 107.153 78.4953 105.413C78.4953 104.022 78.3213 103.848 76.9295 103.674C76.7556 103.674 76.4076 103.674 76.2336 103.5C73.4501 102.978 70.6666 102.282 68.057 101.76C67.8831 102.108 67.883 102.282 67.883 102.282C67.5351 102.108 67.3611 101.76 67.0132 101.586C66.3173 101.238 65.4475 101.238 64.7516 100.89C63.5338 100.542 62.316 100.02 60.7502 99.4984C60.2283 107.153 59.7064 114.46 59.3585 122.115C61.2722 122.636 63.0118 123.158 64.9255 123.68C65.2735 119.853 65.6214 116.026 66.1433 112.024C66.4913 112.546 66.6652 112.72 66.8392 113.068C67.0132 111.328 67.3611 109.589 67.5351 108.023C67.7091 106.457 68.057 104.891 68.231 103.5C68.405 103.5 68.4049 103.5 68.5789 103.5C68.231 105.935 67.883 108.197 67.5351 110.98C67.883 110.459 67.8831 110.285 68.057 109.937C68.057 111.328 67.7091 112.72 67.5351 114.112C67.1871 117.069 67.1871 120.027 66.6652 123.158C66.4913 124.376 67.0132 124.376 67.7091 124.202C67.7091 117.243 69.2748 109.589 69.9707 107.849C69.7967 108.719 69.6227 109.241 69.6227 109.937C69.4488 112.198 69.4488 114.286 69.4488 116.547C69.2748 118.809 69.1008 121.245 68.7529 123.506C68.5789 124.55 69.2748 124.55 69.9707 124.724C70.6666 124.898 70.4926 124.202 70.6666 123.68C70.8406 123.158 70.8405 122.636 71.0145 122.115C70.1446 121.941 70.1446 121.071 70.1446 120.375C69.9707 117.417 70.6666 114.634 71.3625 111.85C71.8844 109.415 72.4063 106.805 73.972 104.37C75.0158 107.849 74.4939 111.154 74.4939 114.46C74.6679 114.286 74.6679 114.286 74.6679 114.112C74.6679 114.112 74.6679 114.112 74.8419 114.112C74.6679 114.982 75.3638 115.852 74.6679 116.721C74.3199 117.069 74.8419 117.939 74.8419 118.461C74.8419 120.549 74.8419 122.81 74.8419 124.898C74.8419 125.42 75.0158 125.768 75.5377 125.942C76.0596 125.942 76.5816 126.116 77.2774 126.116C77.2774 125.072 77.4514 124.028 77.6254 122.984C77.6254 122.636 77.9733 122.288 77.9733 121.941C78.1473 121.767 78.1473 121.767 78.3213 121.767ZM143.038 82.7972C141.473 82.4492 140.255 82.2753 139.037 82.1013C137.645 81.9273 136.253 82.1013 135.036 81.7533C133.992 81.5794 132.6 82.4493 131.73 81.4054C131.73 81.4054 131.73 81.4054 131.556 81.4054C128.773 81.4054 126.163 81.2315 123.38 81.2315C121.988 81.2315 120.422 81.0575 119.03 80.8835C116.943 80.5356 114.855 80.5356 112.941 80.5356C111.55 80.5356 109.984 80.7096 108.592 80.7096C106.852 80.7096 105.113 80.5356 103.373 80.5356C101.111 80.5356 98.8498 80.7096 96.5882 80.7096C95.1964 80.7096 93.8047 80.5356 92.4129 80.5356C90.1513 80.7096 87.8897 80.8835 85.6281 81.2315C83.1925 81.5794 80.5829 82.2753 78.1473 82.6232C76.5816 82.9711 74.8419 82.9712 73.1022 83.1451C72.5802 83.1451 72.2323 83.4931 71.7104 83.667C71.3625 83.841 71.0145 84.015 70.6666 84.015C69.4488 84.3629 67.883 84.3629 66.8392 84.8848C64.7516 85.9287 62.8379 87.1464 60.4023 87.1464C60.5763 87.8423 60.5763 88.3642 60.7502 89.0601C62.8379 88.8862 65.0995 88.5382 67.3612 88.3643C67.3612 88.5382 67.5351 88.5382 67.5351 88.7122C65.4474 89.756 63.3598 90.7998 61.2722 91.6697C61.4462 91.6697 61.7941 91.8437 61.9681 91.8437C63.1858 92.0176 64.4037 92.1916 65.6214 92.3656C68.405 92.7135 71.0145 93.2354 73.798 93.5834C75.5377 93.7573 77.2774 93.9313 79.0171 94.2792C80.9308 94.4532 82.8445 94.9751 84.7582 94.9751C89.1075 95.1491 93.4567 94.9751 97.806 94.9751C98.8498 94.9751 100.242 94.6272 100.416 96.3669C101.633 96.1929 102.851 96.0189 103.895 96.0189C106.331 96.0189 108.592 96.3669 111.028 96.3669C113.637 96.3669 116.421 96.1929 119.03 96.1929C120.074 96.1929 120.944 96.1929 121.988 96.1929C123.38 96.1929 124.945 96.0189 126.337 96.0189C128.077 96.0189 129.817 95.845 131.556 95.845C132.426 95.845 133.296 96.0189 134.166 95.845C134.862 95.671 135.732 95.671 136.253 94.6272C137.645 92.0176 139.211 89.582 140.603 86.9725C141.125 85.5807 141.994 84.3629 143.038 82.7972ZM182.182 109.067C181.834 109.241 181.486 109.415 181.312 109.589C178.702 110.98 176.441 112.894 173.831 114.286C168.438 117.243 163.045 120.027 157.304 121.767C153.998 122.81 150.693 124.028 147.214 124.898C144.778 125.594 142.342 126.29 140.081 126.29C136.253 126.464 132.426 127.16 128.599 127.682C125.815 128.03 122.858 128.203 120.074 128.377C119.378 128.377 118.682 128.377 118.161 128.551C116.769 128.725 115.203 128.899 113.811 129.073C112.419 129.247 111.028 129.247 109.636 129.247C108.766 129.247 107.896 129.247 106.852 129.247C107.2 129.073 107.2 128.899 107.548 128.725C105.461 128.899 103.721 129.073 101.807 129.247C99.8936 129.247 98.1539 129.247 96.2402 129.247C95.0224 129.247 93.6307 129.247 92.4129 129.247C92.065 129.073 91.717 128.899 91.3691 128.725C89.6294 128.551 87.7157 128.203 85.976 128.03C85.2801 128.03 84.5842 127.856 83.8884 127.856C82.4966 127.856 81.1048 127.856 79.5391 128.03C79.0172 128.03 78.4952 128.029 77.9733 127.856C77.1035 127.682 76.4076 127.16 75.5377 127.16C74.8419 126.986 73.972 127.334 73.2761 127.16C72.7542 127.16 72.4063 126.812 71.8843 126.638C70.8405 126.29 69.6227 126.116 68.5789 125.768C68.7529 125.594 68.7529 125.42 68.7529 125.42C67.883 125.42 67.0132 125.246 66.3173 125.246C66.1433 126.116 65.9694 126.812 65.6214 127.682C65.4475 127.682 65.4475 127.682 65.2735 127.682C65.0995 126.986 64.9256 126.29 64.7516 125.594C64.5776 125.246 64.2297 124.724 63.8817 124.724C63.1859 124.55 62.316 124.55 61.6201 124.376C59.7064 123.68 57.7928 123.854 55.8791 123.68C54.6613 123.506 53.4435 123.68 52.3997 123.332C49.4422 122.462 46.4847 121.245 43.7012 120.201C42.3094 119.679 41.0916 119.331 39.5259 118.635C39.6998 119.505 39.1779 120.375 40.0478 120.897C40.3957 121.071 40.7437 120.897 41.2656 121.071C41.2656 121.071 41.4395 121.245 41.6135 121.593C41.7875 121.245 41.7875 120.897 41.9614 120.723C43.0053 120.723 43.0053 121.245 42.8313 121.941C43.7012 122.288 44.571 122.81 45.4409 123.158C46.6587 123.68 48.0504 124.028 49.4422 124.376C50.312 124.724 51.1819 125.072 51.8777 125.42C53.2695 125.942 54.8352 126.464 56.227 126.986C57.0969 127.334 57.9667 127.682 58.8366 127.856C60.2283 128.203 61.4461 128.551 62.8379 128.899C63.8817 129.247 64.7516 129.943 65.9694 129.247C66.1433 129.073 66.8392 129.421 67.3612 129.595C67.8831 129.769 68.231 130.291 68.5789 130.465C70.3186 130.987 72.0583 131.509 73.798 132.031C74.3199 132.205 75.0158 132.205 75.5377 132.379C75.7117 131.683 75.8857 131.161 76.0597 130.465C76.2336 130.465 76.2336 130.465 76.4076 130.639C76.7555 131.335 76.9295 132.031 77.4514 132.901C78.4952 133.075 79.887 133.249 81.2788 133.423C82.1486 133.597 83.1924 133.597 84.0623 133.771C85.976 133.945 87.8897 134.118 89.8033 134.292C91.717 134.466 93.6307 134.64 95.5443 134.814C95.7183 134.814 95.8923 134.814 95.8923 134.988C96.0663 135.858 96.5882 135.51 97.1101 135.51C97.8059 135.51 98.3279 135.336 99.0238 135.336C101.459 135.336 103.721 134.466 105.983 134.814H106.157C108.766 134.466 111.376 134.119 113.811 133.771C115.551 133.597 117.117 133.075 118.856 132.901C120.248 132.727 121.814 132.727 123.206 132.727C124.075 132.727 125.119 132.901 125.989 132.727C127.729 132.379 129.469 131.857 131.208 131.509C132.252 131.335 133.47 131.161 134.514 130.987C135.905 130.813 137.471 130.465 138.863 130.117C141.299 129.595 143.908 129.247 146.344 128.725C148.257 128.203 149.997 127.682 151.911 126.812C156.608 124.724 161.305 122.81 166.002 120.549C168.09 119.505 170.178 118.287 172.091 117.069C174.875 115.33 177.484 113.416 180.268 111.85C182.182 110.98 182.53 110.285 182.182 109.067ZM127.033 105.761C128.425 108.023 127.903 110.285 128.077 112.372C128.251 114.46 128.251 116.721 128.251 118.809C128.251 120.897 128.251 122.984 128.251 125.072H128.425C128.599 123.158 128.599 121.071 128.773 119.157C128.773 119.505 128.947 119.679 128.947 120.375C129.121 115.33 129.991 110.458 130.686 109.589C131.382 112.024 131.73 114.46 131.73 116.895C131.73 119.505 131.556 122.115 131.382 124.55C133.644 124.202 135.732 123.68 137.993 123.332C138.689 123.158 139.037 122.984 138.863 122.288C138.689 120.897 138.689 119.505 138.689 117.939C138.689 115.852 138.689 113.59 138.689 111.502C138.689 110.111 138.863 108.893 138.167 107.501C137.645 106.631 137.819 105.239 137.645 104.022C137.471 102.804 137.297 102.63 135.906 102.804C133.296 103.152 130.686 103.674 128.077 103.848C124.945 104.196 121.64 104.37 118.508 104.543C117.639 104.543 116.769 104.717 116.073 104.891C115.899 112.198 115.725 119.157 115.725 126.464C115.725 126.464 115.725 126.464 115.899 126.464C119.204 126.116 122.336 125.768 125.641 125.246C125.989 125.246 126.337 124.55 126.337 124.202C126.511 123.332 126.337 122.462 126.337 121.593C126.337 118.809 126.337 116.026 126.337 113.068C126.337 110.98 126.163 108.893 126.163 106.805C126.337 106.805 126.685 106.283 127.033 105.761ZM161.827 116.547C161.827 116.373 161.827 116.2 161.653 116.026C161.653 115.156 161.653 114.112 161.479 113.242C161.305 112.546 160.783 111.85 160.783 110.98C160.609 107.153 160.435 103.326 160.261 99.4984C160.261 99.1504 160.261 98.8025 160.261 98.4545C159.392 98.6285 158.522 98.6285 157.826 98.8025C156.434 99.1504 155.042 99.8463 153.477 100.194C151.389 100.716 149.301 101.064 147.214 101.412C145.3 101.76 143.386 102.108 141.647 102.456C140.777 102.63 140.777 102.978 140.777 103.5C141.125 106.979 141.473 110.458 141.647 113.938C141.82 116.721 141.994 119.505 142.168 122.288C142.168 122.462 142.342 122.636 142.516 122.81C144.952 122.115 147.388 121.593 149.475 121.071C149.475 118.461 149.475 116.2 149.475 113.938C149.649 113.938 149.649 113.938 149.823 113.938C149.997 114.634 149.997 115.33 150.171 116.026C150.345 115.852 150.519 115.504 150.693 115.156C150.867 115.852 151.215 116.373 151.215 116.895C151.215 117.591 150.867 118.287 150.693 118.983C150.867 118.983 150.867 118.983 151.041 118.983C151.041 118.461 151.041 117.939 151.215 117.417H151.389C151.389 118.287 151.389 119.331 151.389 120.201C152.607 119.853 153.824 119.505 154.868 119.157C153.998 116.373 154.172 113.938 154.346 111.154C155.39 111.676 155.39 110.98 155.564 110.285C156.086 113.068 156.608 115.678 156.26 118.635C158.174 118.113 160.087 117.243 161.827 116.547ZM57.4448 121.593C57.6188 121.593 57.6188 121.593 57.7928 121.593C57.7928 118.983 57.7928 116.374 57.7928 113.59C57.7928 111.154 57.9667 108.719 57.9667 106.283C57.9667 105.413 58.1407 104.717 58.1407 103.848C58.1407 102.63 58.1407 101.412 58.3147 100.194C58.4886 99.3244 58.3147 98.9764 57.4448 98.6285C54.6613 97.7587 51.8778 96.7148 49.0942 95.671C47.0066 94.8011 45.0929 93.9313 43.5272 92.0176C43.3532 91.8437 43.0053 91.6697 42.8313 91.8437C42.6573 92.0176 42.4833 92.3656 42.4833 92.5395C42.3094 96.8888 42.1354 101.238 41.9614 105.587C41.9614 107.849 41.9614 109.937 41.9614 112.198C41.9614 112.372 41.9614 112.72 41.9614 112.894C41.4395 113.938 42.1354 114.112 42.8313 114.46C43.8751 115.156 44.7449 115.678 45.7888 116.374C45.7888 116.374 45.7888 116.721 45.6148 116.895C45.6148 117.069 45.4408 117.417 45.2669 117.765C46.3107 118.287 47.3545 118.635 48.3983 119.157C48.3983 116.721 48.3983 114.46 48.3983 112.198C48.3983 111.85 48.5723 111.154 48.7463 110.98C49.6161 110.632 49.4422 109.937 49.4422 109.241C49.4422 107.849 49.6161 106.457 49.6161 105.065C49.7901 106.631 49.7901 108.197 49.6161 109.763C49.6161 110.458 50.138 110.98 50.138 111.502C50.486 113.938 50.486 116.373 50.66 118.635C50.66 119.505 50.66 120.027 51.7038 120.201C52.5737 120.375 53.4435 120.897 54.4873 120.897C55.3571 120.897 56.0531 121.941 56.9229 120.897C57.4448 121.245 57.4448 121.419 57.4448 121.593ZM112.767 126.986C112.767 119.853 112.767 112.72 112.767 105.587C108.766 105.587 104.591 105.587 100.416 105.587C100.242 107.327 100.242 109.067 100.068 110.632C99.8936 113.068 99.7196 115.678 99.7196 118.113C99.5457 120.897 99.5457 123.68 99.5457 126.464C99.5457 126.986 99.7196 127.682 99.8936 128.377C104.069 127.856 108.244 127.334 112.767 126.986ZM178.876 89.756C175.223 94.9751 169.656 96.3669 164.263 97.7587C164.437 103.5 164.611 109.067 164.611 114.982C167.916 113.242 171.048 111.502 174.179 109.937C173.483 109.415 172.961 105.587 173.309 105.065C173.483 105.239 173.831 105.413 174.179 105.587C174.179 103.152 174.179 101.064 174.179 98.9765C174.527 98.9765 174.875 98.9765 175.397 98.9765C175.571 99.3244 175.745 99.6723 175.919 100.02H176.093C176.093 99.6723 176.093 99.4983 175.919 99.1504C176.093 99.1504 176.093 99.1504 176.267 99.1504C175.919 100.716 177.484 101.934 176.615 103.674C175.919 105.065 176.093 106.979 175.919 108.545C175.919 108.545 175.919 108.545 176.093 108.545C178.006 106.979 179.92 105.587 182.008 104.022C182.182 103.848 182.008 103.5 182.008 103.326C181.312 103.326 180.79 103.5 180.094 103.5C179.92 98.9764 179.92 94.4532 178.876 89.756ZM119.378 69.2275C113.289 69.0535 106.852 68.1837 100.763 68.3577C101.111 71.6631 101.459 74.7946 101.807 77.926C107.548 77.926 113.289 77.926 119.378 77.926C119.378 74.7946 119.378 72.011 119.378 69.2275ZM93.9786 105.587C93.2827 105.587 92.4129 105.413 91.543 105.413C90.1513 105.239 88.7595 105.239 87.1938 105.065C86.15 104.891 85.6281 105.239 85.6281 106.457C85.6281 109.067 85.802 111.85 85.802 114.46C85.802 117.939 85.802 121.419 85.802 124.898C85.802 126.986 85.802 126.986 88.0636 127.334C89.4554 127.508 90.8471 127.682 92.2389 127.856C92.0649 124.724 91.891 121.767 91.543 118.983C91.3691 116.547 90.8472 114.112 90.6732 111.676C90.6732 110.806 89.6294 109.763 91.3691 108.893C92.4129 115.156 92.7608 121.419 93.4567 128.203C93.8047 127.682 94.1526 127.508 94.1526 127.334C94.3266 125.594 94.5006 124.028 94.3266 122.288C94.3266 119.679 93.9786 117.069 93.9786 114.634C93.9786 113.938 93.8046 113.242 93.8046 112.546C93.9786 110.111 93.9786 107.849 93.9786 105.587ZM168.786 87.8423C165.828 87.1464 163.045 86.2766 160.261 85.5807C156.956 84.8848 153.65 84.3629 150.171 83.841C149.475 83.667 148.953 83.667 148.605 84.5369C148.257 85.4067 147.562 86.2766 147.04 86.9725C145.822 88.8861 144.43 90.6259 143.212 92.5395C142.864 93.0614 142.69 93.7573 142.342 94.4532C151.737 94.1053 160.609 92.7135 168.786 87.8423ZM66.3173 71.4891C66.4913 74.4466 66.6652 77.4041 66.8392 80.1876C67.7091 80.0137 68.4049 80.0137 69.2748 79.8397C72.5802 79.4918 76.0597 79.1438 79.3651 78.7959C81.4528 78.6219 81.4527 78.7959 81.6267 76.7082C81.6267 76.5342 81.8007 76.3603 81.8007 76.1863C81.9747 73.9247 82.1486 71.8371 81.6267 69.4015C76.4076 70.0974 71.1885 70.7932 66.3173 71.4891ZM99.1977 68.5316C99.1977 68.3577 99.0238 68.1837 99.0238 68.1837C94.1526 68.5316 89.2814 68.8796 84.5842 69.2275C84.4103 72.359 84.2362 75.4904 84.0623 78.4479C88.7595 78.2739 93.6307 78.1 98.6758 77.926C98.6758 77.7521 98.8498 77.4041 98.8498 77.0562C98.6758 74.9685 98.3279 72.8809 98.1539 70.7932C98.1539 69.9234 97.9799 68.8796 99.1977 68.5316ZM49.7901 85.7547C54.6613 84.189 59.3585 82.4492 64.2297 80.8835C63.8817 78.1 63.7077 75.1425 63.3598 72.011C61.2722 72.359 59.5325 72.5329 57.7928 73.2288C56.0531 73.9247 53.7914 73.9247 52.9216 76.1863C52.9216 76.3603 52.5736 76.5342 52.3997 76.5342C51.8778 76.8822 51.1819 77.2301 50.66 77.752C50.1381 78.1 49.6161 78.7959 49.6161 79.3178C49.7901 81.5794 49.7901 83.6671 49.7901 85.7547ZM147.388 71.3151C143.038 70.9672 138.863 70.6193 134.34 70.0974C134.34 72.8809 134.34 75.6644 134.34 78.1C137.123 78.448 139.907 78.9698 142.516 79.1438C143.56 79.3178 144.604 79.6657 145.3 78.2739C145.822 77.2301 146.518 76.1863 147.214 75.1425C147.388 74.9685 147.388 74.6206 147.214 74.4466C147.214 73.9247 147.04 73.5767 147.04 73.0548C147.214 72.7069 147.388 72.011 147.388 71.3151ZM131.73 78.1C131.73 75.3165 131.73 72.7069 131.73 70.0974C128.599 69.9234 125.467 69.5755 122.162 69.4015C122.336 70.7932 122.51 71.837 122.51 73.0548C122.51 74.2726 122.336 75.6644 122.162 76.8822C121.988 77.5781 122.162 78.1 123.032 78.1C125.641 78.1 128.599 78.1 131.73 78.1ZM99.5457 153.255C99.3717 153.255 99.3717 153.255 99.1977 153.255C99.7196 158.648 100.068 163.867 100.589 169.435C100.763 169.087 100.937 168.913 100.937 168.739C101.111 169.782 101.111 170.652 101.285 171.522C101.285 171.522 101.285 171.522 101.111 171.522C101.111 171.348 100.937 171.174 100.937 171C100.937 171 100.937 171 100.763 171C100.937 172.392 101.111 173.784 101.285 175.176C103.199 169.608 103.373 163.867 103.721 158.126C104.069 152.385 104.243 146.644 104.417 140.903C104.069 141.425 103.895 141.947 103.721 142.469C103.373 143.165 102.851 144.035 102.851 144.731C102.677 146.644 102.677 148.384 102.503 150.298C102.503 151.516 102.329 152.733 101.807 153.951C101.459 154.473 101.807 155.169 102.851 155.169C101.807 155.691 100.068 154.473 99.5457 153.255ZM171.917 81.2315C172.091 82.4492 172.265 83.4931 172.265 84.5369C172.091 84.5369 172.091 84.5369 171.917 84.5369C171.743 84.3629 171.569 84.189 171.395 83.841C171.222 84.189 171.048 84.3629 171.048 84.7109C172.439 85.4067 172.613 85.4068 173.135 85.0588C173.657 84.7109 174.005 84.015 174.353 83.667C174.875 82.9712 174.701 82.2753 174.005 81.7533C172.961 81.0575 171.917 80.1876 171.743 78.6219C171.743 78.4479 171.395 78.274 171.222 78.1C168.438 77.0562 165.828 76.0123 163.045 74.9685C163.045 76.1863 163.219 77.2301 163.219 78.2739C163.219 79.3178 163.219 80.3616 163.045 81.2315C162.871 82.2753 162.871 82.7972 164.089 83.1451C165.654 83.4931 167.046 84.015 168.612 84.3629C169.308 84.5369 169.83 84.7109 170.526 84.7109C169.134 83.841 169.134 82.9712 170.352 81.2315C170.7 81.4054 170.874 81.5794 171.222 81.9273C171.395 81.7534 171.569 81.5794 171.917 81.2315ZM94.8485 105.761C94.8485 107.327 94.8485 108.719 94.8485 110.285C94.8485 110.806 94.8485 111.328 94.8485 111.85C94.8485 114.286 95.0225 116.721 95.1964 119.157C95.1964 120.549 95.1964 121.767 95.3704 122.984C95.5443 124.028 94.5005 125.246 95.5443 126.29C95.5443 126.29 95.1964 126.638 95.3704 126.812C95.7183 128.03 96.4142 128.377 98.1539 128.03C98.1539 120.723 98.1539 113.242 98.1539 105.935C97.1101 105.761 96.0663 105.761 94.8485 105.761ZM151.215 80.3616C151.563 80.5356 151.563 80.5356 151.737 80.5356C154.172 80.8835 156.608 81.2314 158.87 81.7533C160.261 82.1013 160.087 81.4054 160.087 80.5356C160.087 78.274 160.087 76.1863 160.087 73.9247C158.696 73.5767 157.304 73.2288 155.738 72.7069C154.172 75.3165 152.607 77.926 151.215 80.3616ZM101.459 154.647C101.633 152.733 101.981 150.994 101.981 149.08C101.807 146.296 102.329 143.687 102.677 141.077C102.851 140.381 103.199 139.512 103.025 138.816C102.851 138.294 103.199 138.12 103.373 137.946C103.373 137.772 103.547 137.772 103.721 137.598C102.677 137.424 101.633 137.424 100.589 137.424C99.8936 137.424 99.5457 137.946 99.7196 138.468C99.7196 139.338 100.068 140.381 100.068 141.251C100.242 143.513 100.242 145.774 100.416 148.036C100.242 147.862 100.068 147.688 99.8936 147.514C99.8936 147.862 99.7196 148.036 99.7196 148.384C99.5457 148.384 99.5457 148.384 99.3717 148.384C99.1977 147.514 99.0238 146.644 99.0238 145.775C98.8498 149.08 99.1977 152.037 101.459 154.647ZM73.2761 125.072C74.146 119.331 73.6241 113.764 73.972 108.023C73.1022 111.328 72.4063 114.46 71.8843 117.765C71.7104 119.331 71.5364 120.723 71.3625 122.288C71.1885 124.376 71.3625 124.55 73.2761 125.072ZM72.4063 96.7148C65.6214 94.2792 58.6626 93.7573 51.7038 92.5395C51.8778 92.7135 52.0517 92.8875 52.2257 92.8875C54.8353 93.5834 57.4448 94.2792 60.0544 94.9751C61.6201 95.3231 63.1858 95.671 64.9255 95.845C67.3611 96.1929 69.9707 96.3669 72.4063 96.7148ZM98.3279 102.108C96.5882 101.586 86.4979 101.586 84.9321 102.108C85.802 102.456 86.3239 102.804 86.8458 102.804C88.9335 102.978 91.1951 103.152 93.2827 103.326C94.8485 103.5 96.5882 103.5 98.1539 103.674C98.1539 102.978 98.3279 102.63 98.3279 102.108ZM100.242 103.326C104.591 102.978 109.114 103.848 113.463 102.63C113.463 102.108 113.637 101.76 112.767 101.76C110.68 101.76 108.592 101.586 106.505 101.586C104.417 101.586 102.329 101.76 100.242 101.76C100.242 102.456 100.242 102.804 100.242 103.326ZM182.356 115.678C182.182 115.678 182.008 115.678 181.66 115.678C181.66 124.202 181.138 132.727 182.356 141.251C182.356 132.727 182.356 124.202 182.356 115.678ZM46.6586 81.2315C46.4847 81.0575 46.3107 80.8835 46.1367 80.8835C45.4408 81.7533 44.745 82.7972 43.8751 83.667C43.3532 84.3629 43.3532 84.8848 43.8751 85.4067C44.745 86.1026 45.6148 86.7985 46.6586 87.6684C46.6586 85.2328 46.6586 83.3191 46.6586 81.2315ZM127.381 65.9221C120.77 65.2262 114.159 64.1824 107.548 64.7043C114.159 65.4001 120.77 65.7481 127.381 65.9221ZM39.6998 112.72C39.8738 112.72 39.8738 112.72 40.0478 112.72C40.0478 112.198 40.2217 111.676 40.2217 111.328C40.2217 109.241 40.0478 107.153 40.0478 104.891C40.0478 102.63 40.2218 100.368 40.3957 98.1066C40.5697 95.4971 40.7436 93.0614 40.7436 90.4519C40.7436 90.2779 40.3957 90.104 40.2217 89.93C40.3957 97.9326 39.5258 105.239 39.6998 112.72ZM155.216 66.27C155.39 66.27 155.564 66.444 155.564 66.444C157.826 62.2687 160.261 58.0934 162.523 53.9181C162.349 53.9181 162.349 53.7441 162.175 53.7441C160.087 58.0934 157.652 62.0947 155.216 66.27ZM75.3638 101.238C77.9733 101.586 80.5829 101.934 83.5404 102.456C83.0185 101.412 77.7993 100.716 75.3638 101.238ZM71.1885 116.547C71.3624 116.547 71.3625 116.547 71.5364 116.721C72.2323 113.416 73.1021 109.937 73.798 106.631C73.6241 106.631 73.6241 106.631 73.4501 106.631C72.7542 109.763 71.8844 113.068 71.1885 116.547ZM116.073 102.456C118.682 102.282 121.118 101.934 123.554 101.76C120.074 101.412 116.421 101.76 116.073 102.456ZM176.789 83.1451C176.093 84.7109 175.571 85.9286 175.223 86.9725C176.093 86.7985 177.484 85.0588 177.484 84.015C177.484 83.4931 177.31 82.7972 176.789 83.1451ZM122.858 135.858C121.988 136.032 121.118 136.032 120.248 136.206C121.64 136.902 122.51 136.902 122.858 135.858ZM59.7064 103.152C59.8804 103.152 59.8804 103.152 60.0544 103.152C60.2283 101.934 60.4023 100.716 60.5763 99.4984C60.4023 99.4984 60.4023 99.4984 60.2284 99.4984C59.8804 100.716 59.8804 101.934 59.7064 103.152Z" fill="black"/>
<path d="M174.353 133.944C174.701 133.596 174.875 133.422 175.049 133.248C175.223 133.422 175.397 133.596 175.571 133.944C175.745 133.77 175.919 133.596 176.093 133.422C176.962 134.466 176.788 135.336 176.266 136.554C175.919 137.25 175.919 138.12 175.919 138.989C175.745 140.033 175.745 141.251 175.745 142.295C175.745 143.165 175.049 143.513 174.005 143.513C173.483 141.773 172.787 140.033 172.439 138.12C172.091 136.206 172.265 134.118 172.961 132.204C173.135 131.857 173.135 131.683 172.961 131.335C172.787 129.595 172.613 128.029 172.265 126.463C172.091 125.246 172.439 124.202 173.309 123.332C174.701 124.55 174.527 126.116 174.701 127.681C174.701 129.595 174.353 131.509 174.179 133.596C174.353 133.422 174.353 133.596 174.353 133.944Z" fill="black"/>
<path d="M52.5733 150.819C52.3993 148.905 52.2253 146.818 52.0513 144.904C51.8774 142.12 51.5294 139.337 51.3555 136.553C51.3555 135.336 51.3555 134.292 51.5294 133.074C51.5294 132.726 51.7034 132.552 52.0513 132.204C52.0513 132.552 52.0513 133.074 52.0513 133.596C52.2253 133.074 52.3993 132.726 52.3993 132.378C52.5733 132.378 52.5732 132.378 52.7472 132.378C52.7472 132.726 52.9212 133.248 52.9212 133.596C53.2691 136.727 53.6171 139.859 53.791 142.99C53.965 144.208 53.791 145.426 53.791 146.47C53.791 147.34 53.965 148.209 53.791 149.079C53.6171 149.775 53.0952 150.297 52.7472 150.993C52.7472 150.819 52.5733 150.819 52.5733 150.819Z" fill="black"/>
<path d="M49.2675 143.512C48.9195 144.208 48.5716 144.382 48.2237 143.86C47.8757 143.512 47.3538 143.339 47.0059 143.165C47.7017 142.817 48.3976 142.469 49.0935 142.121C49.4415 141.947 49.9633 141.947 50.3113 142.121C50.6592 142.295 50.6592 142.817 51.0072 143.512C50.3113 142.991 49.7894 142.469 49.4414 142.121C49.2675 142.121 49.2675 142.295 49.0935 142.295C50.8332 143.512 51.0072 144.73 49.9634 146.296C49.7894 145.426 49.7894 144.382 49.6154 143.339C49.4414 143.512 49.4414 143.512 49.2675 143.512Z" fill="black"/>
<path d="M48.2243 144.382C48.2243 145.774 48.3982 146.991 48.3982 148.209C48.5722 148.209 48.7462 148.209 49.2681 148.209C48.7462 148.557 48.3983 148.557 48.0503 148.731C47.3544 147.339 47.3544 146.122 48.2243 144.382Z" fill="black"/>
<path d="M128.25 159.691C128.25 161.605 128.25 163.345 128.25 165.258C128.25 165.258 128.076 165.258 128.076 165.432C127.902 165.084 127.554 164.91 127.554 164.563C127.728 162.997 127.902 161.257 128.076 159.691C128.076 159.691 128.076 159.691 128.25 159.691Z" fill="black"/>
<path d="M66.3167 164.215C66.1427 162.302 66.1427 160.388 65.9688 158.474C66.1427 158.474 66.3167 158.474 66.3167 158.474C66.4907 160.388 66.4907 162.302 66.6646 164.215C66.6646 164.215 66.4907 164.215 66.3167 164.215Z" fill="black"/>
<path d="M65.9688 157.778C65.9688 156.734 66.1427 155.69 66.1427 154.473C66.3167 154.473 66.3167 154.473 66.4907 154.473C66.4907 154.995 66.4907 155.69 66.4907 156.212C66.4907 156.734 66.4907 157.256 66.6646 157.778C66.3167 157.952 66.1427 157.778 65.9688 157.778Z" fill="black"/>
<path d="M115.898 176.741C116.072 177.959 116.072 179.177 116.246 180.395C116.072 180.395 116.072 180.395 115.898 180.395C115.898 179.177 115.724 177.959 115.724 176.741H115.898Z" fill="black"/>
<path d="M143.038 82.7968C141.995 84.3625 141.125 85.5803 140.429 86.972C138.863 89.4076 137.471 92.0172 136.08 94.6268C135.558 95.6706 134.688 95.6706 133.992 95.8445C133.122 96.0185 132.252 95.8445 131.382 95.8445C129.643 95.8445 127.903 96.0185 126.163 96.0185C124.772 96.0185 123.206 96.1925 121.814 96.1925C120.77 96.1925 119.9 96.1925 118.857 96.1925C116.247 96.1925 113.463 96.3665 110.854 96.3665C108.418 96.3665 106.157 96.0185 103.721 96.0185C102.503 96.0185 101.46 96.1925 100.242 96.3665C99.8938 94.6268 98.502 94.9747 97.6322 94.9747C93.2829 94.8007 88.9336 94.9747 84.5844 94.9747C82.6707 94.9747 80.757 94.6268 78.8433 94.2788C77.1036 94.1048 75.3639 93.9309 73.6242 93.5829C70.8407 93.235 68.2312 92.887 65.4476 92.3651C64.2298 92.1912 63.012 92.0172 61.7942 91.8432C61.4463 91.8432 61.2723 91.6693 61.0984 91.6693C63.186 90.6254 65.2737 89.5816 67.3613 88.7117C67.3613 88.5378 67.1873 88.5378 67.1873 88.3638C64.9257 88.5378 62.6641 88.8857 60.5764 89.0597C60.4025 88.3638 60.4025 87.8419 60.2285 87.146C62.6641 87.146 64.5777 85.9282 66.6654 84.8844C67.8832 84.3625 69.275 84.3625 70.4928 84.0146C70.8407 84.0146 71.1887 83.6666 71.5366 83.6666C71.8845 83.4926 72.4064 83.3187 72.9283 83.1447C74.668 82.9707 76.2338 82.9707 77.9735 82.6228C80.4091 82.2748 83.0186 81.579 85.4542 81.231C87.7158 80.8831 89.9775 80.7091 92.2391 80.5352C93.6308 80.5352 95.0226 80.7091 96.4144 80.7091C98.676 80.7091 100.938 80.5352 103.199 80.5352C104.939 80.5352 106.679 80.7091 108.418 80.7091C109.81 80.7091 111.376 80.5352 112.768 80.5352C114.855 80.5352 116.943 80.5351 118.857 80.8831C120.422 81.057 121.814 81.0571 123.206 81.231C125.989 81.405 128.599 81.405 131.382 81.405H131.556C132.6 82.4488 133.818 81.5789 134.862 81.7529C136.254 81.9269 137.645 81.9269 138.863 82.1009C140.255 82.2749 141.473 82.4488 143.038 82.7968ZM71.7106 87.146C71.3626 87.494 71.0147 87.8419 70.6667 88.0159C70.6667 88.0159 71.0147 88.1899 71.1886 88.3638C70.3188 88.8857 69.6229 89.2336 68.927 89.5816C68.927 89.7556 69.101 89.7556 69.101 89.9296C69.7969 89.7556 70.4928 89.4077 71.3626 89.4077C72.0585 89.2337 72.7544 89.4077 73.4503 89.4077C73.4503 89.5816 73.4503 89.5816 73.4503 89.7556C72.9284 89.9295 72.4065 90.1035 71.7106 90.2775C73.1023 91.1474 74.4941 89.9295 76.0598 90.6254C74.3201 90.9734 72.7544 91.1473 71.1886 91.4953C72.7544 92.0172 74.3201 91.6692 75.8859 91.4953C76.9297 91.3213 78.1475 91.3213 79.1913 91.1474C80.0611 91.1474 80.931 91.1474 81.8008 91.1474C82.1488 91.1474 82.4967 90.6255 83.1926 90.2775C80.0611 89.5816 77.1036 89.7556 74.668 88.0159C75.7119 87.494 76.7557 86.9721 77.9735 86.7981C81.2789 86.2762 84.5844 85.9282 87.8898 85.7543C88.9336 85.5803 89.9774 85.7543 91.0213 85.7543C91.0213 85.5803 91.0213 85.5803 91.0213 85.4063C90.8473 85.2323 90.6733 85.2323 90.4994 85.2323C90.8473 84.8844 91.0213 84.5365 91.3692 84.0146C86.672 83.3187 82.3227 84.1885 78.1475 85.7543C79.5392 85.5803 80.757 85.4063 82.1488 85.2323C81.6269 85.5803 80.931 85.7543 80.4091 85.9283C78.6694 85.9283 76.9296 86.4501 75.3639 87.146C73.9722 87.32 72.7544 88.1898 71.7106 87.146ZM93.1089 89.9296C93.2829 89.7556 93.4568 89.5816 93.6308 89.2337C94.1527 89.4077 94.6747 89.5816 95.1966 89.7556C98.85 90.6254 102.503 91.4953 106.331 92.3651C106.853 92.5391 107.375 92.5391 108.07 92.3651C108.592 92.3651 108.94 91.8432 109.288 91.6693C106.853 89.2337 103.199 89.7556 100.068 88.5378C100.242 88.8857 100.242 89.0597 100.416 89.5816C96.7623 88.5378 93.4569 87.668 89.9775 86.7981C90.3254 86.9721 90.6733 87.146 91.1952 87.494C90.6733 87.6679 90.3254 87.6679 89.8035 87.8419C91.0213 88.3638 92.0651 88.7118 93.1089 89.2337V89.4077C91.3692 89.5816 89.4555 89.5816 87.7158 89.7556C87.7158 89.9295 87.7158 89.9296 87.7158 90.1035C87.8898 90.1035 88.2377 90.1035 88.5857 90.1035C87.5419 90.7994 87.8898 91.4953 88.5857 91.8432C89.4555 92.1912 90.4994 92.7131 91.3692 92.7131C92.0651 92.7131 93.1089 92.7131 93.2829 91.4953C93.2829 91.1473 93.8048 90.7994 94.1528 90.4514C93.9788 90.6254 93.9788 90.6254 93.8048 90.7994C93.6308 90.4515 93.4569 90.1035 93.1089 89.9296ZM96.7623 86.1022C96.5883 86.2762 96.5883 86.2762 96.4144 86.4501C96.9363 87.146 97.6321 87.8419 98.1541 88.3638C97.6321 88.1899 96.9363 88.1898 96.4144 88.0159V88.1898C97.4582 88.3638 98.502 88.7117 99.5459 88.8857V88.7117C99.1979 88.7117 99.0239 88.5378 98.676 88.5378C99.3719 88.0159 100.068 87.8419 100.59 87.32C101.112 86.9721 101.46 86.2762 101.981 85.7543C99.8938 84.3625 98.328 85.7542 96.7623 86.1022ZM112.942 86.1022C111.55 85.9282 110.158 85.7543 108.94 85.5803C108.244 85.5803 107.374 85.9282 107.896 86.972C108.07 87.4939 108.418 87.8419 108.592 88.1898C108.94 88.7118 109.288 88.7118 109.81 88.1898C109.984 87.8419 110.506 87.32 110.68 87.32C111.724 87.32 112.42 87.146 112.942 86.1022ZM122.162 88.3638C122.162 88.1899 122.162 88.0159 122.162 88.0159C121.64 88.0159 120.944 88.0159 120.422 88.1898C119.378 88.7118 118.509 89.2337 117.465 89.7556C116.943 90.1035 116.421 90.2775 116.073 90.6254C115.899 90.7994 115.725 90.9734 115.551 90.9734C115.725 90.9734 116.073 91.1474 116.247 91.1474C118.161 90.1035 120.074 89.2337 122.162 88.3638ZM104.417 84.7104C104.417 85.2323 104.591 85.9282 104.591 86.4501C104.939 86.4501 105.635 86.2762 105.635 86.2762C105.809 85.5803 105.635 85.0584 105.635 84.1885C104.939 84.3625 104.243 84.5365 103.721 84.7104C103.721 84.8844 103.721 84.8844 103.721 85.0584C104.069 84.8844 104.243 84.7104 104.417 84.7104ZM117.987 87.668C118.161 86.9721 118.335 86.4501 118.509 86.1022C117.987 86.2762 117.639 86.2762 116.943 86.4501C117.291 86.7981 117.639 87.146 117.987 87.668Z" fill="white"/>
<path d="M182.182 109.067C182.356 110.285 182.008 111.155 180.964 111.676C178.18 113.242 175.571 115.156 172.787 116.896C170.873 118.113 168.786 119.331 166.698 120.375C162.001 122.463 157.304 124.55 152.607 126.638C150.867 127.334 148.953 128.03 147.04 128.552C144.604 129.074 142.168 129.595 139.559 129.943C138.167 130.291 136.601 130.639 135.21 130.813C134.166 130.987 132.948 130.987 131.904 131.335C130.164 131.683 128.425 132.205 126.685 132.553C125.815 132.727 124.771 132.553 123.902 132.553C122.51 132.553 120.944 132.727 119.552 132.727C117.813 132.901 116.247 133.249 114.507 133.597C111.898 133.945 109.288 134.293 106.852 134.641H106.678C104.243 134.119 101.981 135.162 99.7196 135.162C99.0237 135.162 98.5018 135.336 97.8059 135.336C97.284 135.336 96.7621 135.684 96.5881 134.815C96.5881 134.815 96.4141 134.641 96.2402 134.641C94.3265 134.467 92.4128 134.293 90.4991 134.119C88.5855 133.945 86.6718 133.771 84.7581 133.597C83.8883 133.423 82.8445 133.423 81.9746 133.249C80.5828 133.075 79.1911 132.901 78.1472 132.727C77.7993 131.857 77.4513 131.161 77.1034 130.465C76.9294 130.465 76.9295 130.465 76.7555 130.291C76.5815 130.813 76.4075 131.509 76.2335 132.205C75.7116 132.205 75.1897 132.031 74.4938 131.857C72.7541 131.335 71.0144 130.813 69.2747 130.291C68.7528 130.117 68.4049 129.595 68.057 129.421C67.709 129.247 67.0131 128.9 66.6652 129.073C65.4474 129.769 64.5775 129.073 63.5337 128.726C62.142 128.378 60.7502 128.03 59.5324 127.682C58.6626 127.334 57.7927 126.986 56.9229 126.812C55.5311 126.29 53.9654 125.768 52.5736 125.246C51.7038 124.898 50.8339 124.55 50.138 124.202C48.9202 123.68 47.5284 123.332 46.1367 122.985C45.2668 122.637 44.397 122.289 43.5271 121.767C43.7011 121.071 43.7011 120.549 42.6573 120.549C42.4833 120.723 42.4833 121.071 42.3093 121.419C42.1353 121.071 41.9614 120.897 41.9614 120.897C41.4395 120.897 41.0915 120.897 40.7436 120.723C39.8737 120.201 40.3957 119.331 40.2217 118.461C41.7874 118.983 43.1792 119.505 44.397 120.027C47.3545 121.071 50.138 122.289 53.0955 123.159C54.1393 123.506 55.5311 123.332 56.5749 123.506C58.4886 123.68 60.4022 123.506 62.3159 124.202C63.0118 124.55 63.8817 124.376 64.5776 124.55C64.9255 124.724 65.2734 125.072 65.4474 125.42C65.7954 126.116 65.7953 126.812 65.9693 127.508C66.1433 127.508 66.1433 127.508 66.3173 127.508C66.4912 126.812 66.6652 125.942 67.0131 125.072C67.709 125.072 68.5789 125.246 69.4487 125.246C69.4487 125.246 69.2747 125.42 69.2747 125.594C70.4925 125.942 71.5364 126.116 72.5802 126.464C73.1021 126.638 73.45 126.986 73.972 126.986C74.6678 126.986 75.5377 126.812 76.2335 126.986C77.1034 127.16 77.7993 127.508 78.6692 127.682C79.1911 127.856 79.713 127.856 80.2349 127.856C81.6267 127.856 83.0184 127.682 84.5842 127.682C85.28 127.682 85.9759 127.856 86.6718 127.856C88.4115 128.03 90.3252 128.204 92.0649 128.552C92.4128 128.552 92.7608 128.9 93.1087 129.073C94.3265 129.073 95.5443 129.073 96.9361 129.073C98.8498 129.073 100.589 129.073 102.503 129.073C104.243 129.073 105.983 128.726 108.244 128.552C107.896 128.726 107.722 128.9 107.548 129.073C108.592 129.073 109.462 129.073 110.332 129.073C111.724 129.073 113.115 129.073 114.507 128.9C115.899 128.726 117.465 128.552 118.856 128.378C119.552 128.378 120.248 128.204 120.77 128.204C123.554 128.03 126.511 127.856 129.295 127.508C133.122 127.16 136.949 126.29 140.777 126.116C143.212 126.116 145.648 125.42 147.909 124.724C151.215 123.854 154.52 122.637 158 121.593C163.741 119.679 169.134 116.896 174.527 114.112C177.136 112.72 179.398 110.807 182.008 109.415C181.66 109.415 182.008 109.241 182.182 109.067Z" fill="white"/>
<path d="M127.033 105.761C126.685 106.457 126.337 106.979 126.337 107.501C126.337 109.589 126.511 111.676 126.511 113.764C126.511 116.547 126.511 119.331 126.511 122.288C126.511 123.158 126.511 124.028 126.511 124.898C126.511 125.246 125.989 125.942 125.815 125.942C122.51 126.464 119.378 126.812 116.073 127.16C115.899 127.16 115.899 127.16 115.899 127.16C116.073 120.027 116.247 112.894 116.247 105.587C116.943 105.413 117.813 105.413 118.682 105.239C121.814 105.065 125.119 104.891 128.251 104.543C130.86 104.369 133.47 103.847 136.08 103.5C137.297 103.326 137.645 103.5 137.819 104.717C137.993 105.935 137.819 107.153 138.341 108.197C139.037 109.589 138.863 110.806 138.863 112.198C138.863 114.286 138.863 116.547 138.863 118.635C138.863 120.027 139.037 121.418 139.037 122.984C139.037 123.68 138.689 123.854 138.167 124.028C135.906 124.376 133.644 124.898 131.556 125.246C131.73 122.81 131.73 120.201 131.904 117.591C131.904 115.156 131.73 112.72 130.86 110.284C130.165 111.328 129.295 116.025 129.121 121.071C128.947 120.375 128.947 120.201 128.947 119.853C128.773 121.94 128.773 123.854 128.599 125.768H128.425C128.425 123.68 128.425 121.592 128.425 119.505C128.425 117.417 128.251 115.156 128.251 113.068C128.077 110.284 128.599 108.023 127.033 105.761ZM128.425 113.764C128.599 113.764 128.599 113.764 128.773 113.764C128.773 111.502 128.773 109.241 128.773 106.805C128.599 106.805 128.599 106.805 128.425 106.805C128.425 109.067 128.425 111.328 128.425 113.764Z" fill="white"/>
<path d="M77.9727 121.766C77.7987 122.114 77.6248 122.462 77.6248 122.81C77.4508 123.854 77.4508 124.898 77.2768 125.942C76.581 125.942 76.0591 125.768 75.5371 125.768C75.0152 125.594 74.8413 125.246 74.8413 124.724C74.8413 122.636 74.8413 120.375 74.8413 118.287C74.8413 117.591 74.4933 116.895 74.6673 116.547C75.3632 115.677 74.6673 114.808 74.8413 113.938C74.6673 113.938 74.6673 113.938 74.6673 113.938C74.6673 114.112 74.4933 114.112 74.4933 114.286C74.6673 110.98 75.0152 107.675 73.9714 104.195C72.4057 106.631 72.0577 109.241 71.3619 111.676C70.666 114.46 69.9701 117.243 70.144 120.201C70.144 120.897 70.144 121.766 71.0139 121.94C70.8399 122.462 70.666 122.984 70.666 123.506C70.666 123.854 70.84 124.55 69.9701 124.55C69.2742 124.376 68.7523 124.376 68.7523 123.332C69.1002 121.071 69.2742 118.635 69.4482 116.373C69.6221 114.112 69.6222 112.024 69.6222 109.762C69.6222 109.241 69.7961 108.545 69.9701 107.675C69.1003 109.241 67.7085 117.069 67.7085 124.028C66.8386 124.202 66.4907 124.202 66.6646 122.984C67.0126 120.027 67.1865 117.069 67.5345 113.938C67.7085 112.546 67.8825 111.154 68.0564 109.762C67.8825 110.11 67.7085 110.284 67.5345 110.806C67.8824 108.197 68.2304 105.761 68.5783 103.326C68.4044 103.326 68.4044 103.326 68.2304 103.326C68.0564 104.891 67.7085 106.457 67.5345 107.849C67.3605 109.414 67.0126 110.98 66.8386 112.894C66.6646 112.546 66.4907 112.372 66.1427 111.85C65.7948 115.851 65.4468 119.679 64.9249 123.506C63.0113 122.984 61.2716 122.462 59.3579 121.94C59.8798 114.286 60.4017 106.979 60.7497 99.3242C62.1414 99.8461 63.3592 100.368 64.751 100.716C65.4469 100.89 66.3167 101.064 67.0126 101.412C67.3605 101.586 67.5345 101.934 67.8825 102.108C67.8825 102.108 67.8825 101.934 68.0564 101.586C70.84 102.108 73.6235 102.804 76.233 103.326C76.407 103.326 76.755 103.499 76.9289 103.499C78.3207 103.673 78.4947 103.847 78.4947 105.239C78.4947 106.805 78.4947 108.371 78.4947 110.11C78.6686 110.11 78.8426 110.11 79.0166 110.11C79.0166 108.197 79.0166 106.109 79.0166 104.195C80.4083 104.195 81.6261 104.369 83.0179 104.369C83.0179 111.676 83.0179 119.157 83.0179 126.812C81.4522 126.638 80.0604 126.464 78.4947 126.29C78.6686 124.376 78.8426 122.636 79.0166 120.723C78.6686 121.245 78.4947 121.419 78.3207 121.592C78.4947 119.679 78.4947 117.591 78.6686 115.677H78.4947C78.1467 117.765 78.1467 119.679 77.9727 121.766Z" fill="white"/>
<path d="M161.827 116.548C159.913 117.244 158.173 118.114 156.26 118.809C156.608 115.852 156.086 113.242 155.564 110.459C155.39 111.155 155.216 111.851 154.346 111.329C154.172 113.938 153.998 116.548 154.868 119.331C153.824 119.679 152.606 120.027 151.389 120.375C151.389 119.331 151.389 118.462 151.389 117.592H151.215C151.215 118.114 151.215 118.635 151.041 119.157C150.867 119.157 150.867 119.157 150.693 119.157C150.867 118.462 151.215 117.766 151.215 117.07C151.215 116.548 151.041 116.026 150.693 115.33C150.519 115.678 150.345 116.026 150.171 116.2C149.997 115.504 149.997 114.808 149.823 114.112C149.649 114.112 149.649 114.112 149.475 114.112C149.475 116.374 149.475 118.636 149.475 121.245C147.387 121.767 144.952 122.463 142.516 122.985C142.342 122.811 142.168 122.637 142.168 122.463C141.994 119.679 141.82 116.896 141.646 114.112C141.472 110.633 141.124 107.153 140.776 103.674C140.776 102.978 140.776 102.63 141.646 102.63C143.56 102.456 145.474 101.934 147.213 101.586C149.301 101.238 151.389 100.891 153.476 100.369C154.868 100.021 156.26 99.3248 157.826 98.9769C158.521 98.8029 159.391 98.8029 160.261 98.6289C160.261 98.9768 160.261 99.3248 160.261 99.6727C160.435 103.5 160.435 107.327 160.783 111.155C160.783 111.851 161.305 112.547 161.479 113.416C161.653 114.286 161.653 115.33 161.653 116.2C161.827 116.2 161.827 116.374 161.827 116.548ZM150.693 114.982H150.867C150.867 113.416 150.867 112.025 150.867 110.459H150.693C150.693 112.025 150.693 113.416 150.693 114.982Z" fill="white"/>
<path d="M57.4446 121.592C57.4446 121.418 57.4446 121.418 57.2706 121.244C56.4008 122.114 55.7049 121.244 54.8351 121.244C53.9652 121.244 53.0954 120.722 52.0515 120.548C51.0077 120.374 51.0077 119.852 51.0077 118.982C50.8337 116.547 50.8337 114.111 50.4858 111.85C50.4858 111.328 49.7899 110.806 49.9639 110.11C50.1379 108.544 50.1379 106.978 49.9639 105.413C49.9639 106.804 49.7899 108.196 49.7899 109.588C49.7899 110.284 49.9639 110.98 49.0941 111.328C48.9201 111.328 48.7461 112.024 48.7461 112.545C48.7461 114.807 48.7461 117.069 48.7461 119.504C47.7023 118.982 46.6585 118.634 45.6147 118.113C45.7886 117.765 45.7886 117.591 45.9626 117.243C45.9626 117.069 46.1365 116.721 46.1365 116.721C45.2667 116.025 44.2229 115.329 43.179 114.807C42.4831 114.459 41.7873 114.111 42.3092 113.241C42.4831 113.067 42.3092 112.719 42.3092 112.545C42.3092 110.284 42.3092 108.196 42.3092 105.935C42.4831 101.585 42.6571 97.2361 42.8311 92.8868C42.8311 92.7129 43.0051 92.1909 43.179 92.1909C43.353 92.1909 43.701 92.1909 43.875 92.3649C45.2667 94.1046 47.3543 95.1484 49.442 96.0183C52.2255 97.0621 55.0091 98.106 57.7926 98.9758C58.6624 99.3237 58.8364 99.6717 58.6624 100.542C58.4885 101.759 58.4885 102.977 58.4885 104.195C58.4885 105.065 58.3145 105.761 58.3145 106.63C58.1405 109.066 58.1405 111.502 58.1405 113.937C58.1405 116.547 58.1405 119.156 58.1405 121.94C57.7926 121.418 57.6186 121.418 57.4446 121.592Z" fill="white"/>
<path d="M112.767 126.985C108.244 127.507 104.069 127.855 99.7195 128.203C99.5455 127.507 99.3716 126.985 99.3716 126.29C99.3716 123.506 99.5456 120.723 99.5456 117.939C99.7195 115.503 99.8935 112.894 99.8935 110.458C100.067 108.892 100.067 107.153 100.241 105.413C104.417 105.413 108.418 105.413 112.593 105.413C112.767 112.72 112.767 119.853 112.767 126.985ZM104.417 106.979C104.243 106.979 104.243 106.979 104.069 106.979C103.895 109.414 103.895 111.85 103.721 114.286C103.895 114.286 104.069 114.286 104.243 114.286C104.069 111.85 105.287 109.414 104.417 106.979Z" fill="white"/>
<path d="M178.876 89.7559C179.92 94.4531 179.92 98.9763 180.094 103.5C180.789 103.5 181.311 103.326 182.007 103.326C182.007 103.5 182.181 103.847 182.007 104.021C180.094 105.587 178.18 106.979 176.092 108.545H175.918C176.092 106.979 175.918 105.065 176.614 103.673C177.484 101.934 175.918 100.716 176.266 99.1503C176.092 99.1503 176.092 99.1503 175.918 99.1503C175.918 99.4982 175.918 99.6722 176.092 100.02H175.918C175.744 99.6722 175.57 99.3243 175.396 98.9763C175.048 98.9763 174.526 98.9763 174.179 98.9763C174.179 101.064 174.179 103.152 174.179 105.587C173.831 105.239 173.657 105.065 173.309 105.065C172.961 105.587 173.657 109.415 174.179 109.936C171.047 111.676 167.916 113.242 164.61 114.982C164.436 109.067 164.262 103.5 164.262 97.7585C169.655 96.3667 175.222 95.1489 178.876 89.7559Z" fill="white"/>
<path d="M119.378 69.2277C119.378 72.0112 119.378 74.9687 119.378 77.9262C113.289 77.9262 107.548 77.9262 101.807 77.9262C101.459 74.7947 101.111 71.6633 100.763 68.3578C107.026 68.1839 113.289 69.0537 119.378 69.2277Z" fill="white"/>
<path d="M93.9779 105.587C93.9779 107.849 93.9779 110.11 93.9779 112.372C93.9779 113.068 94.1519 113.764 94.1519 114.459C94.3259 117.069 94.4998 119.679 94.4998 122.114C94.4998 123.854 94.3259 125.42 94.3259 127.159C94.3259 127.333 93.9779 127.681 93.6299 128.029C93.108 121.418 92.5861 114.981 91.5423 108.718C89.8026 109.588 90.6725 110.632 90.8465 111.502C91.0204 113.938 91.3684 116.373 91.7163 118.809C92.0642 121.766 92.2382 124.55 92.4122 127.681C91.0204 127.507 89.6287 127.507 88.2369 127.159C86.1493 126.811 86.1492 126.811 85.9753 124.724C85.9753 121.244 85.9753 117.765 85.9753 114.286C85.9753 111.676 85.8013 108.892 85.8013 106.283C85.8013 105.065 86.1493 104.891 87.367 104.891C88.7588 105.065 90.1506 105.065 91.7163 105.239C92.4122 105.413 93.282 105.413 93.9779 105.587Z" fill="white"/>
<path d="M168.785 87.8416C160.609 92.7127 151.736 94.1045 142.516 94.6265C142.864 93.9306 142.864 93.2347 143.385 92.7128C144.603 90.7991 145.821 88.8854 147.213 87.1457C147.735 86.2758 148.431 85.58 148.779 84.7101C149.127 83.8403 149.648 83.8403 150.344 84.0142C153.65 84.5362 157.129 85.0581 160.435 85.754C163.044 86.2759 165.828 86.9717 168.785 87.8416ZM155.216 88.5375C156.259 90.1032 159.043 90.6251 160.087 89.5813C158.869 88.7114 157.303 88.3635 155.216 88.5375ZM153.128 91.321C154.52 92.5388 155.215 92.5388 156.433 91.8429C156.085 91.495 155.911 91.147 155.389 90.6251C154.868 90.6251 153.998 90.973 153.128 91.321Z" fill="white"/>
<path d="M66.3169 71.489C71.362 70.7931 76.4072 70.0972 81.6263 69.4014C81.9742 71.837 81.9742 74.0986 81.8003 76.1862C81.8003 76.3602 81.6263 76.5341 81.6263 76.7081C81.4523 78.7957 81.4523 78.7958 79.3647 78.7958C76.0592 78.9697 72.5798 79.4917 69.2744 79.8396C68.4045 79.8396 67.7086 80.0135 66.8388 80.1875C66.6648 77.404 66.4909 74.6204 66.3169 71.489Z" fill="white"/>
<path d="M99.197 68.532C97.9792 68.88 98.1531 69.9238 98.1531 70.7936C98.3271 72.8813 98.5011 74.9689 98.849 77.0566C98.849 77.4045 98.6751 77.7525 98.6751 77.9264C93.8039 78.1004 88.9327 78.2744 84.0615 78.4483C84.2355 75.4908 84.4095 72.5334 84.5835 69.2279C89.2807 68.88 94.1518 68.532 99.023 68.1841C99.023 68.3581 99.023 68.3581 99.197 68.532Z" fill="white"/>
<path d="M49.7896 85.7539C49.7896 83.6663 49.7896 81.5786 49.7896 79.317C49.7896 78.7951 50.3115 78.2732 50.8334 77.7513C51.3553 77.2293 52.0512 76.8814 52.5731 76.5334C52.7471 76.3595 52.921 76.3595 53.095 76.1855C53.9648 73.9239 56.2264 73.9239 57.9661 73.228C59.5319 72.5321 61.4456 72.3582 63.5332 72.0103C63.8811 75.1417 64.0551 78.0992 64.4031 80.8827C59.5319 82.6224 54.6607 84.1882 49.7896 85.7539Z" fill="white"/>
<path d="M147.387 71.3143C147.213 72.0102 147.213 72.7061 147.213 73.228C147.213 73.7499 147.387 74.0979 147.387 74.6198C147.387 74.7937 147.387 75.1417 147.387 75.3156C146.865 76.3595 145.995 77.2293 145.473 78.4471C144.777 79.8389 143.733 79.3169 142.689 79.3169C139.906 78.969 137.296 78.621 134.513 78.2731C134.513 75.8375 134.513 73.054 134.513 70.2705C138.862 70.6184 143.037 70.9663 147.387 71.3143Z" fill="white"/>
<path d="M131.73 78.0999C128.772 78.0999 125.815 78.0999 122.857 78.0999C121.987 78.0999 121.813 77.578 121.987 76.8821C122.161 75.6643 122.335 74.2725 122.335 73.0547C122.335 72.0109 122.161 70.7931 121.987 69.4014C125.293 69.5753 128.424 69.9233 131.556 70.0972C131.73 72.7068 131.73 75.3164 131.73 78.0999Z" fill="white"/>
<path d="M99.5452 153.255C100.067 154.473 101.807 155.865 102.851 155.517C101.807 155.691 101.459 154.995 101.807 154.299C102.329 153.081 102.503 151.864 102.503 150.646C102.677 148.732 102.677 146.819 102.851 145.079C103.025 144.209 103.547 143.513 103.721 142.817C103.894 142.295 104.068 141.773 104.416 141.251C104.242 146.992 103.894 152.734 103.721 158.475C103.373 164.216 103.199 169.957 101.285 175.524C101.111 174.132 100.937 172.74 100.763 171.348C100.763 171.348 100.763 171.348 100.937 171.348C100.937 171.522 101.111 171.696 101.111 171.87C101.111 171.87 101.111 171.87 101.285 171.87C101.111 171 101.111 170.131 100.937 169.087C100.763 169.261 100.763 169.261 100.589 169.783C100.067 164.216 99.5452 158.822 99.1973 153.603C99.1973 153.255 99.3713 153.255 99.5452 153.255Z" fill="white"/>
<path d="M171.917 81.2312C171.569 81.5792 171.395 81.7531 171.221 81.9271C170.873 81.7531 170.699 81.4052 170.351 81.2312C169.133 82.9709 169.133 84.0147 170.525 84.7106C169.829 84.5366 169.307 84.5366 168.611 84.3627C167.045 84.0147 165.654 83.4928 164.088 83.1449C163.044 82.797 162.87 82.275 163.044 81.2312C163.218 80.1874 163.218 79.3175 163.218 78.2737C163.218 77.2299 163.044 76.1861 163.044 74.9683C165.828 76.0121 168.437 77.0559 171.221 78.0998C171.395 78.0998 171.743 78.4477 171.743 78.6217C171.917 80.1874 172.786 81.0572 174.004 81.7531C174.874 82.275 175.048 82.7969 174.352 83.6668C174.004 84.1887 173.656 84.7106 173.134 85.0586C172.612 85.5805 172.438 85.4065 171.047 84.7106C171.221 84.5366 171.221 84.1887 171.395 83.8408C171.569 84.0147 171.743 84.1887 171.917 84.5366C172.091 84.5366 172.091 84.5366 172.265 84.5366C172.265 83.4928 172.091 82.449 171.917 81.2312Z" fill="white"/>
<path d="M94.8481 105.76C96.0659 105.76 97.1098 105.76 98.1536 105.76C98.1536 113.067 98.1536 120.548 98.1536 127.854C96.4139 128.202 95.718 128.028 95.37 126.637C95.37 126.463 95.718 126.289 95.544 126.115C94.5002 125.071 95.544 123.853 95.37 122.809C95.1961 121.592 95.1961 120.2 95.1961 118.982C95.0221 116.546 95.0221 114.111 94.8481 111.675C94.8481 111.153 94.8481 110.631 94.8481 110.11C94.8481 108.892 94.8481 107.326 94.8481 105.76Z" fill="white"/>
<path d="M151.214 80.3607C152.78 77.7512 154.171 75.3156 155.737 72.7061C157.303 73.054 158.695 73.5759 160.086 73.9238C160.086 76.1854 160.086 78.2731 160.086 80.5347C160.086 81.4046 160.26 82.1004 158.869 81.7525C156.607 81.2306 154.171 80.8827 151.736 80.5347C151.562 80.7087 151.388 80.5347 151.214 80.3607Z" fill="white"/>
<path d="M101.459 154.647C99.1974 152.037 98.8495 149.08 99.0234 145.948C99.1974 146.818 99.3714 147.688 99.3714 148.558C99.5454 148.558 99.5453 148.558 99.7193 148.558C99.7193 148.21 99.8933 148.036 99.8933 147.688C100.067 147.862 100.241 148.036 100.415 148.21C100.241 145.948 100.241 143.687 100.067 141.425C100.067 140.555 99.7193 139.511 99.7193 138.641C99.7193 138.12 100.067 137.598 100.589 137.598C101.633 137.598 102.677 137.598 103.721 137.772C103.547 137.946 103.373 137.946 103.373 138.12C103.373 138.468 103.025 138.468 103.025 138.989C103.199 139.685 102.677 140.555 102.677 141.251C102.155 143.861 101.807 146.644 101.981 149.254C101.981 150.993 101.633 152.907 101.459 154.647Z" fill="white"/>
<path d="M73.2755 125.072C71.3618 124.55 71.1878 124.376 71.5358 122.462C71.7097 120.897 71.7097 119.331 72.0577 117.939C72.5796 114.634 73.2755 111.328 74.1453 108.197C73.6234 113.764 73.9714 119.331 73.2755 125.072Z" fill="white"/>
<path d="M72.4058 96.7148C69.7962 96.3669 67.3606 96.1929 64.7511 95.845C63.1853 95.671 61.4456 95.3231 59.8799 94.9751C57.2703 94.2792 54.6607 93.5834 52.0512 92.8875C51.8772 92.8875 51.7033 92.7135 51.5293 92.5396C58.6621 93.5834 65.7949 94.2792 72.4058 96.7148Z" fill="white"/>
<path d="M98.3274 102.108C98.3274 102.63 98.1534 102.978 98.1534 103.5C96.5877 103.326 94.848 103.326 93.2823 103.152C91.1946 102.978 88.933 102.978 86.8453 102.63C86.3234 102.63 85.6275 102.282 84.9316 101.934C86.4974 101.586 96.4137 101.76 98.3274 102.108Z" fill="white"/>
<path d="M100.241 103.325C100.241 102.803 100.241 102.455 100.241 101.933C102.328 101.933 104.416 101.759 106.504 101.759C108.591 101.759 110.679 101.933 112.767 101.933C113.636 101.933 113.462 102.281 113.462 102.803C109.113 103.847 104.59 102.977 100.241 103.325Z" fill="white"/>
<path d="M182.355 115.677C182.355 124.201 182.355 132.726 182.355 141.25C181.137 132.726 181.659 124.201 181.659 115.677C182.007 115.677 182.181 115.677 182.355 115.677Z" fill="white"/>
<path d="M46.6583 81.2309C46.6583 83.1445 46.6583 85.2322 46.6583 87.4938C45.6145 86.624 44.7447 86.102 43.8748 85.2322C43.3529 84.7103 43.3529 84.1884 43.8748 83.4925C44.5707 82.6226 45.2666 81.5788 46.1364 80.709C46.3104 81.0569 46.4843 81.0569 46.6583 81.2309Z" fill="white"/>
<path d="M127.38 65.9223C120.769 65.7484 114.158 65.4004 107.547 64.7045C114.332 64.1826 120.769 65.2265 127.38 65.9223Z" fill="white"/>
<path d="M39.7 112.72C39.3521 105.239 40.222 97.7582 40.3959 90.1035C40.5699 90.2775 40.9178 90.4514 40.9178 90.6254C40.7439 93.235 40.5699 95.6705 40.5699 98.2801C40.3959 100.542 40.222 102.803 40.222 105.065C40.222 107.153 40.3959 109.24 40.3959 111.502C40.3959 112.024 40.222 112.546 40.222 112.894C40.048 112.894 39.874 112.72 39.7 112.72Z" fill="white"/>
<path d="M155.216 66.2699C157.651 62.0946 159.913 58.0933 162.349 53.918C162.523 53.918 162.523 54.0919 162.697 54.0919C160.435 58.2672 157.999 62.4426 155.738 66.6178C155.564 66.4439 155.39 66.4439 155.216 66.2699Z" fill="white"/>
<path d="M75.3628 101.238C77.7984 100.716 83.1915 101.412 83.5394 102.456C80.5819 101.934 77.9724 101.586 75.3628 101.238Z" fill="white"/>
<path d="M71.188 116.547C72.0578 113.242 72.7537 109.762 73.6236 106.457C73.7975 106.457 73.7976 106.457 73.9715 106.457C73.2756 109.762 72.4058 113.242 71.7099 116.547C71.362 116.547 71.188 116.547 71.188 116.547Z" fill="white"/>
<path d="M116.073 102.455C116.421 101.76 120.074 101.412 123.553 101.76C121.118 101.934 118.682 102.281 116.073 102.455Z" fill="white"/>
<path d="M176.788 83.1447C177.31 82.9707 177.31 83.6666 177.484 84.0145C177.484 85.0583 176.093 86.798 175.223 86.972C175.745 85.9281 176.266 84.5364 176.788 83.1447Z" fill="white"/>
<path d="M77.9722 121.767C78.1461 119.853 78.1462 117.765 78.3201 115.852H78.4941C78.3201 117.765 78.3201 119.853 78.1461 121.767C78.1461 121.767 78.1461 121.767 77.9722 121.767Z" fill="black"/>
<path d="M122.858 135.858C122.51 136.902 121.814 137.076 120.248 136.206C121.118 136.032 121.814 135.858 122.858 135.858Z" fill="white"/>
<path d="M59.7061 103.151C59.88 101.934 60.054 100.716 60.054 99.498C60.228 99.498 60.228 99.498 60.402 99.498C60.228 100.716 60.054 101.934 59.88 103.151H59.7061Z" fill="white"/>
<path d="M71.7096 87.1458C72.7534 88.1896 73.9712 87.3198 75.0151 86.7978C76.7548 86.102 78.3205 85.58 80.0602 85.58C80.5821 85.58 81.278 85.2321 81.7999 84.8842C80.4081 85.0581 79.1904 85.2321 77.7986 85.4061C81.9739 83.8403 86.3231 82.9705 91.0203 83.6663C90.6724 84.1883 90.4984 84.5362 90.1505 84.8842C90.1505 84.8842 90.4984 85.0581 90.6724 85.0581C90.6724 85.2321 90.6724 85.2321 90.6724 85.4061C89.6286 85.4061 88.5847 85.4061 87.5409 85.4061C84.2355 85.754 80.93 86.1019 77.6246 86.4499C76.5808 86.6239 75.537 87.1458 74.3192 87.6677C76.7548 89.4074 79.7123 89.2334 82.8437 89.9293C82.3218 90.2772 81.9738 90.7991 81.4519 90.7991C80.5821 90.9731 79.7122 90.7991 78.8424 90.7991C77.7985 90.7991 76.5808 90.9731 75.5369 91.1471C73.9712 91.3211 72.5795 91.843 70.8398 91.1471C72.5795 90.7992 74.1452 90.6252 75.7109 90.2773C74.1452 89.7553 72.7534 90.9731 71.3617 89.9293C71.8836 89.7553 72.4055 89.5814 73.1014 89.4074C73.1014 89.2334 73.1014 89.2334 73.1014 89.0594C72.4055 89.0594 71.7096 89.0594 71.0137 89.0594C70.3178 89.2334 69.622 89.4074 68.7521 89.5813C68.7521 89.4074 68.5781 89.4074 68.5781 89.2334C69.274 88.8855 70.1439 88.3635 70.8398 88.0156C70.6658 87.8416 70.3178 87.8417 70.3178 87.6677C71.0137 87.6677 71.3617 87.4937 71.7096 87.1458Z" fill="black"/>
<path d="M93.1079 89.9295C93.2819 90.1034 93.6298 90.4514 93.8038 90.6253C93.9778 90.4514 93.9778 90.4514 94.1518 90.2774C93.8038 90.6254 93.4559 90.9733 93.2819 91.3212C93.1079 92.539 92.0641 92.539 91.3682 92.539C90.4984 92.539 89.4545 92.1911 88.5847 91.6692C87.8888 91.3212 87.7148 90.6253 88.5847 89.9295C88.2368 89.9295 87.8888 89.9295 87.7148 89.9295C87.7148 89.7555 87.7148 89.7555 87.7148 89.5815C89.4545 89.4075 91.3682 89.4076 93.1079 89.2336V89.0596C92.0641 88.7117 91.0203 88.1898 89.8025 87.6679C90.3244 87.4939 90.6723 87.4939 91.1943 87.3199C90.6723 86.972 90.3244 86.798 89.9765 86.624C93.2819 87.4939 96.7613 88.5377 100.415 89.4076C100.241 88.8857 100.067 88.7117 100.067 88.3637C103.198 89.5815 106.852 89.0596 109.287 91.4952C108.939 91.6691 108.591 92.0171 108.069 92.191C107.547 92.365 107.026 92.191 106.33 92.191C102.676 91.3212 99.023 90.4513 95.1956 89.5815C94.6737 89.4075 94.1517 89.2336 93.6298 89.0596C93.4559 89.4075 93.2819 89.7555 93.1079 89.9295Z" fill="black"/>
<path d="M96.7612 86.1028C98.3269 85.7548 99.8927 84.3631 101.806 85.7549C101.284 86.2768 100.937 86.7987 100.415 87.3206C99.8927 87.8425 99.1968 88.1905 98.5009 88.5384C98.8488 88.5384 99.0228 88.7123 99.3708 88.7123V88.8863C98.3269 88.7123 97.2831 88.3644 96.2393 88.1904V88.0165C96.9351 88.1904 97.4571 88.1904 97.979 88.3644C97.4571 87.8425 96.7612 87.1466 96.2393 86.4507C96.5872 86.2768 96.5872 86.1028 96.7612 86.1028Z" fill="black"/>
<path d="M112.942 86.1025C112.42 87.1463 111.724 87.3203 110.68 87.3203C110.332 87.3203 109.984 87.8422 109.81 88.1901C109.462 88.712 109.114 88.712 108.592 88.1901C108.244 87.8422 108.07 87.3202 107.897 86.9723C107.375 85.9285 108.244 85.5806 108.94 85.5806C110.158 85.7545 111.55 85.9285 112.942 86.1025Z" fill="black"/>
<path d="M122.161 88.3646C120.248 89.2344 118.334 90.2782 116.246 91.1481C116.072 91.3221 115.724 91.1481 115.55 90.9741C115.724 90.8002 115.898 90.6262 116.072 90.6262C116.594 90.2782 117.116 90.1042 117.464 89.7563C118.508 89.2344 119.378 88.5385 120.421 88.1906C120.943 88.0166 121.465 88.0166 122.161 88.0166C121.987 88.0166 122.161 88.1906 122.161 88.3646Z" fill="black"/>
<path d="M104.417 84.71C104.243 84.71 104.069 84.71 103.895 84.884C103.895 84.71 103.895 84.71 103.895 84.5361C104.417 84.3621 105.113 84.1881 105.809 84.0142C105.809 84.884 105.809 85.4059 105.809 86.1018C105.809 86.2757 105.113 86.2758 104.765 86.2758C104.417 85.9278 104.417 85.4059 104.417 84.71Z" fill="black"/>
<path d="M117.987 87.6683C117.465 87.1464 117.291 86.7984 116.943 86.4505C117.639 86.2765 117.987 86.1025 118.509 86.1025C118.335 86.4505 118.161 86.9724 117.987 87.6683Z" fill="black"/>
<path d="M128.424 113.764C128.424 111.502 128.424 109.066 128.424 106.805C128.598 106.805 128.598 106.805 128.772 106.805C128.772 109.066 128.772 111.328 128.772 113.764C128.598 113.764 128.598 113.764 128.424 113.764Z" fill="black"/>
<path d="M150.693 114.981C150.693 113.416 150.693 112.024 150.693 110.458H150.867C150.867 112.024 150.867 113.416 150.867 114.981C150.867 114.981 150.693 114.981 150.693 114.981Z" fill="black"/>
<path d="M104.417 106.979C105.112 109.415 104.069 111.85 104.243 114.286C104.069 114.286 103.895 114.286 103.721 114.286C103.895 111.85 103.895 109.415 104.069 106.979C104.243 106.979 104.417 106.979 104.417 106.979Z" fill="black"/>
<path d="M155.216 88.5381C157.303 88.3642 158.869 88.7121 160.087 89.5819C159.043 90.6257 156.086 90.1039 155.216 88.5381Z" fill="black"/>
<path d="M153.128 91.3215C153.998 90.9736 154.868 90.7996 155.39 90.4517C155.738 90.9736 156.086 91.3215 156.434 91.6695C155.216 92.5393 154.52 92.3653 153.128 91.3215Z" fill="black"/>
</svg>
