<svg width="225" height="225" viewBox="0 0 225 225" fill="none" xmlns="http://www.w3.org/2000/svg">
<circle cx="112.5" cy="112.5" r="112.5" fill="#C6B191"/>
<path d="M57.4119 114.136C57.2143 113.544 57.2143 112.753 56.819 112.16C54.4474 107.417 52.8663 102.476 51.6806 97.3377C51.0877 95.3613 50.6924 93.1874 50.6924 91.2111C50.6924 90.4206 51.4829 89.4324 52.0758 88.8395C52.0758 88.8395 53.2616 89.2348 53.4592 89.63C54.2498 91.2111 55.0403 92.7921 55.4356 94.5708C55.8308 96.7448 56.819 99.1164 58.0048 100.895C59.7835 103.86 62.1551 106.429 64.329 109.196C65.5148 110.777 66.7006 112.555 67.8864 114.136C68.084 114.334 68.2817 114.532 68.6769 114.729C68.2817 112.951 67.6888 110.974 67.2935 109.196C66.7006 106.231 66.1077 103.069 65.5148 100.105C64.5267 95.9543 64.5267 91.6064 64.329 87.2584C64.1314 85.0845 63.9338 83.1081 63.9338 80.9342C63.9338 79.7484 64.329 78.7602 65.5148 78.7602C66.1077 78.5626 67.2935 79.3531 67.6888 79.946C68.8746 83.1081 70.0604 86.2703 71.4438 89.4324C72.0367 90.8158 73.2225 92.0016 74.2106 93.1874C74.4083 93.385 74.4083 93.5827 74.6059 93.7803C75.0012 95.3613 75.5941 96.7448 76.7799 98.1282C77.5704 98.9188 78.1633 100.105 78.3609 101.29C78.9538 103.464 80.1396 105.638 81.1278 107.812C80.9301 105.441 80.7325 103.267 80.7325 100.895C80.7325 98.7211 80.7325 96.7448 81.1278 94.5708C81.3254 92.1992 81.7207 90.0253 82.1159 87.8513C82.5112 85.875 82.9065 84.0963 83.3017 82.12C83.3017 82.12 83.697 82.12 84.0923 82.3176C83.697 80.1437 83.4994 77.9697 83.3017 75.7957C83.1041 74.2147 83.1041 72.8313 82.9065 71.2502C82.9065 69.8668 82.7089 68.681 82.9065 67.2975C82.9065 66.507 83.1041 65.9141 83.4994 64.926C83.8947 65.5189 84.0923 65.7165 84.2899 66.1117C84.4875 65.7165 84.6852 65.5188 84.8828 65.1236C85.0804 65.1236 85.0804 65.1236 85.2781 65.1236C85.4757 66.3094 85.6733 67.2976 85.871 68.4834C86.2662 70.6573 86.4639 72.8312 86.8591 75.0052C87.452 77.7721 87.8473 80.7365 88.6378 83.5034C90.0212 88.6418 91.4047 93.5827 92.7881 98.7211C93.381 100.697 93.5786 102.871 93.7763 105.045C93.9739 109.789 94.7644 114.334 95.9502 118.88C96.1478 119.868 96.3455 121.054 96.5431 122.437C96.9384 120.461 97.136 118.682 97.5313 116.903C97.9265 114.729 98.1242 112.358 98.5194 110.184C99.1123 106.429 99.9029 102.871 100.693 99.1164C101.484 95.9543 102.274 92.5945 103.263 89.4324C104.646 84.8868 106.029 80.3413 107.611 75.7957C109.785 69.8668 111.958 63.9378 115.121 58.4041C116.109 56.6254 117.69 55.0443 119.073 53.4633C119.271 53.2656 119.468 53.2656 119.666 53.2656C121.05 54.2538 120.259 55.8349 120.061 57.0207C119.666 58.997 118.48 60.7757 117.887 62.752C117.492 64.1354 117.295 65.5189 117.097 66.9023C116.899 69.6691 117.097 72.6336 117.097 75.5981C116.899 75.2028 116.702 75.0052 116.504 74.8076C116.504 76.191 116.109 77.7721 116.702 78.7602C117.492 80.3413 116.702 81.5271 116.702 82.7129C116.702 84.0963 116.504 85.4797 116.306 86.8631C116.306 87.456 115.713 87.8513 115.516 88.2466C114.923 89.4324 114.725 90.8158 115.318 92.1992C116.306 90.0253 117.097 87.8513 118.085 85.6774C119.073 83.3058 119.864 80.7366 121.05 78.365C122.828 74.61 124.805 70.8549 126.583 67.0999C127.176 65.7165 127.769 64.926 129.548 64.926C130.536 64.926 131.129 65.1236 131.129 65.9141C131.129 66.9023 131.129 67.8904 130.734 68.8786C129.943 72.8313 128.955 76.7839 128.164 80.7366C127.769 82.9105 127.571 85.0845 127.374 87.0608C127.176 88.6419 126.781 90.2229 126.583 91.804C126.583 93.385 126.781 94.9661 126.781 96.5472C126.781 100.5 125.99 104.255 124.607 107.812C123.619 110.579 123.026 113.346 122.433 116.31C122.038 117.891 122.235 119.67 122.038 121.646C123.026 119.67 123.816 117.891 124.805 116.113C125.99 113.741 127.176 111.37 128.164 108.998C129.152 106.824 129.745 104.452 130.734 102.081C132.117 98.5235 133.698 94.9661 135.081 91.4087C136.07 89.0371 137.058 86.6655 137.453 84.2939C137.848 81.5271 139.232 79.3531 140.615 76.9815C141.801 75.0052 142.591 72.8313 143.58 70.8549C144.37 70.8549 145.358 70.8549 146.149 70.8549C146.149 72.2384 145.951 73.6218 146.149 75.0052C146.347 77.3768 145.754 79.5507 145.358 81.9223C144.963 84.6892 144.568 87.4561 143.975 90.2229C143.184 94.3732 142.196 98.5235 141.208 102.674C140.022 107.022 139.034 111.567 137.651 115.915C136.663 118.88 135.279 121.844 133.896 124.809C133.5 125.797 132.908 126.983 132.315 128.168C136.07 127.18 138.836 124.611 141.801 122.635C143.777 121.449 145.556 120.065 147.335 118.484C151.287 115.125 155.24 111.962 159.193 108.405C162.948 105.045 166.505 101.488 170.062 97.9306C171.643 96.3495 172.632 94.3732 174.015 92.7921C174.806 92.0016 175.201 90.4205 176.98 91.4087C177.177 91.4087 177.375 91.2111 177.572 91.0134C178.363 92.5945 177.375 93.7803 176.584 95.1637C175.201 97.5353 173.62 99.9069 172.434 102.476C171.051 105.638 168.679 108.207 166.703 111.172C165.912 112.16 165.517 113.346 164.924 114.532C164.726 114.927 164.529 115.322 163.936 115.322C163.738 115.322 163.343 115.718 163.145 115.915C160.576 120.263 157.216 124.018 153.659 127.378C152.078 128.959 150.497 130.935 149.113 132.516C150.892 132.121 152.473 131.923 154.054 131.528C154.252 131.528 154.252 131.33 154.449 131.133C154.845 130.738 155.438 130.145 155.833 130.145C159.983 129.354 163.343 126.785 166.703 124.809C168.284 123.82 169.667 122.239 171.051 121.054C172.632 119.67 174.41 118.287 175.991 116.903C178.363 114.729 180.735 112.358 183.106 110.184C183.699 109.591 184.292 109.196 185.082 109.789C185.873 110.381 185.873 111.37 185.082 112.16C183.106 114.136 181.13 115.915 179.154 117.891C178.956 118.089 178.758 118.287 178.758 118.484C177.968 120.263 176.584 121.449 175.596 122.832C174.213 125.204 171.841 126.587 170.458 129.157C173.225 127.773 175.991 126.587 178.758 125.204C181.327 123.82 183.501 121.844 186.071 120.856C188.245 119.868 190.023 118.682 191.802 117.299C192 117.299 192.395 117.496 192.79 117.694C192.988 117.891 193.383 118.089 193.976 118.484C193.185 119.473 192.395 120.658 191.802 121.646C191.011 122.635 190.616 123.82 189.628 124.809C188.047 126.39 186.664 128.168 184.885 129.354C180.537 132.121 176.189 134.888 171.841 137.457C168.679 139.236 165.517 141.212 162.157 142.596C158.204 144.374 154.054 145.955 149.904 147.339C147.532 148.129 144.963 148.524 142.591 149.117C141.999 149.315 141.208 149.71 140.615 150.106C138.046 151.094 136.07 152.872 133.896 154.453C132.315 155.442 130.536 156.035 128.757 156.825C127.967 157.22 127.176 157.616 126.386 158.011C127.176 158.604 128.164 158.999 128.955 159.592C129.152 159.592 128.955 159.987 129.152 160.185C129.35 160.58 129.548 161.173 129.745 161.371C130.338 161.964 130.338 162.754 129.745 163.347C127.967 164.928 125.99 166.311 123.619 167.3C122.631 167.695 121.642 168.09 120.654 168.09C119.073 168.288 118.283 169.276 117.295 170.066C116.306 170.659 115.121 170.659 114.132 171.055C113.342 171.252 112.551 171.648 111.958 172.24C110.97 173.229 109.785 172.833 108.599 172.833C108.401 172.833 108.203 172.24 108.006 171.845C106.82 171.45 105.832 172.043 105.041 173.031C103.658 174.81 100.693 175.205 98.3218 174.019C96.3455 173.031 94.3692 171.845 92.5905 170.659C91.6023 169.869 90.6142 168.881 89.8236 167.892C89.4284 167.497 88.8355 167.3 88.2426 166.904C88.0449 166.904 87.8473 166.904 87.6497 166.904C85.0804 166.311 84.2899 166.509 81.9183 166.904C80.1396 167.102 78.3609 167.102 76.5823 166.707C73.6178 165.916 70.6533 164.73 67.8864 163.347C64.7243 161.964 63.1432 159.197 62.748 155.837C62.748 155.639 62.748 155.244 62.9456 155.046C63.5385 154.058 64.1314 153.268 64.7243 152.477C65.5148 151.291 66.503 151.884 67.2935 152.28C70.258 153.07 73.0249 154.058 75.9894 154.849C76.187 154.849 76.3846 154.849 76.9775 154.849C75.1988 153.663 73.6177 152.872 72.2343 151.884C70.6533 150.896 69.0722 149.71 67.2935 148.92C62.748 146.548 59.3882 142.793 55.6332 139.631C49.5066 134.493 44.7634 127.971 41.206 120.856C39.4273 117.299 37.6486 113.741 35.87 109.986C35.0794 108.405 34.2889 106.626 33.4984 104.848C33.3007 104.452 33.4984 103.662 33.696 103.267C33.696 103.069 33.696 102.674 33.696 102.476C33.4984 101.686 33.4984 100.895 34.2889 100.697C35.0794 100.5 36.0676 99.7093 37.0557 100.697C39.4273 102.871 41.7989 105.243 45.1587 105.638C48.3208 106.033 49.7042 108.405 51.2853 110.579C51.6806 111.172 52.4711 111.962 53.064 111.962C54.645 112.16 55.8308 113.346 57.2143 113.741C57.6095 113.741 57.8072 114.334 58.0048 114.729C57.2143 114.334 57.4119 114.136 57.4119 114.136ZM114.528 66.7046H114.33C113.737 68.0881 113.342 69.2739 112.749 70.6573C110.97 75.4005 109.192 80.1437 107.611 85.0845C105.832 90.6182 104.448 96.3495 103.065 102.081C102.274 105.638 101.682 109.196 101.089 112.753C100.496 116.31 99.9029 119.67 99.5076 123.228C99.1123 126.192 98.9147 129.354 98.9147 132.319C98.9147 135.876 99.5076 139.236 99.9029 142.793C100.298 145.56 100.693 148.524 101.286 151.291C101.682 153.465 102.472 155.442 103.263 157.616C104.053 155.442 104.251 153.465 104.844 151.291C105.634 147.932 106.622 144.374 107.611 141.014C108.203 138.841 108.599 136.864 108.994 134.69C109.587 131.528 109.785 128.564 110.18 125.401C110.377 124.018 110.377 122.635 110.575 121.449C110.97 118.682 111.563 116.113 111.761 113.346C111.958 111.765 111.958 110.381 111.958 108.8C111.958 108.603 111.563 108.405 111.366 108.01C111.761 107.615 112.749 107.219 112.947 106.626C113.342 105.441 113.342 104.057 113.144 102.871C113.144 101.686 112.749 100.697 112.749 99.5116C112.947 98.5235 113.54 97.733 112.156 97.1401C111.958 97.1401 111.958 96.9424 111.958 96.7448C111.761 95.9542 111.563 95.1637 111.563 94.1756C111.563 93.7803 111.563 93.385 111.761 92.9898C111.958 92.9898 112.354 92.9898 112.551 92.9898C112.749 92.5945 112.749 92.1992 113.144 92.0016C114.132 90.8158 114.528 88.6418 113.737 87.4561C112.354 85.875 112.551 83.8987 112.551 82.12C112.551 80.5389 113.342 79.3531 114.528 78.5626C115.318 77.9697 115.516 77.1792 115.318 76.3886C115.318 74.0171 114.923 71.6454 114.923 69.0762C114.725 68.0881 114.528 67.4952 114.528 66.7046ZM79.1515 151.489L79.3491 151.291C78.7562 150.698 78.1633 150.106 77.768 149.513C75.9893 146.943 74.2106 144.374 72.8272 141.607C71.0485 137.852 68.2817 134.69 66.8982 130.738C66.7006 130.342 66.503 130.145 66.3054 129.947C65.5148 129.157 64.9219 128.366 64.1314 127.575C63.7361 126.983 63.3409 126.39 62.9456 125.994C62.3527 125.401 61.5622 124.809 61.5622 123.82C61.5622 123.425 61.1669 122.832 60.7716 122.832C59.9811 122.437 59.5859 121.844 59.1906 121.054C58.993 120.658 58.5977 120.263 58.2024 120.065C57.4119 119.473 56.0285 119.077 56.0285 117.694C56.0285 117.496 55.6332 117.299 55.4356 117.299C54.645 117.101 53.8545 117.299 53.2616 117.101C52.0758 116.508 50.89 115.915 49.9019 114.927C49.1113 114.334 48.1232 113.939 47.9255 112.753C47.7279 110.974 45.9492 110.579 44.7634 109.986C43.7753 109.393 42.7871 108.998 41.7989 108.603C40.6131 108.207 39.4273 108.01 38.0439 107.615C39.2297 109.789 40.0202 111.765 41.0084 113.741C42.7871 117.101 44.5658 120.263 46.5421 123.425C48.7161 126.785 51.0877 130.145 53.6569 133.109C55.6332 135.283 58.0048 137.259 60.1788 139.236C61.7598 140.619 63.3409 142.003 65.3172 143.188C69.6651 145.758 74.4083 148.525 79.1515 151.489ZM108.203 156.43C108.401 156.627 108.599 156.825 108.796 157.023C109.587 156.035 110.377 155.244 110.773 154.058C110.97 153.268 111.563 152.675 111.958 152.082C113.144 150.501 114.528 149.117 115.713 147.536C117.097 145.758 118.085 143.584 119.271 141.805C119.468 141.607 119.666 141.41 120.061 141.212C120.259 141.014 120.654 141.212 120.852 141.014C121.84 139.433 123.026 137.852 124.014 136.271C126.583 132.121 128.955 127.773 131.129 123.425C133.698 118.287 134.884 112.753 136.663 107.417C138.244 102.476 139.429 97.5353 139.627 92.1992C139.627 90.2229 140.022 88.4442 140.418 86.4679C138.836 89.4324 137.255 92.1992 136.07 95.3613C134.884 97.9306 134.093 100.697 133.105 103.267C132.315 105.243 131.524 107.219 130.734 109.196C129.35 112.555 128.164 115.915 126.386 119.077C124.014 123.623 121.445 127.971 119.073 132.516C116.702 136.864 114.528 141.41 112.354 145.955C111.761 147.141 111.168 148.327 109.784 148.722C109.192 151.489 108.599 153.861 108.203 156.43ZM92.5905 148.92C90.8118 144.572 89.0331 140.422 87.452 136.074C86.0686 132.121 84.6852 128.168 83.4994 124.216C82.9065 122.832 82.5112 121.251 81.9183 119.868C81.3254 118.682 80.5349 117.496 79.942 116.31C78.7562 113.148 77.5704 109.986 76.3846 106.626C75.9893 105.441 75.7917 104.255 74.6059 103.662C74.4083 103.464 74.4083 103.267 74.2106 103.069C74.013 101.686 73.8154 100.105 73.4201 98.7211C73.2225 98.1282 72.8272 97.3377 72.432 97.3377C71.0485 96.9424 70.8509 95.9543 70.6533 94.9661C70.0604 93.1874 69.4675 91.2111 67.8864 89.8276C70.0604 111.765 77.1751 132.121 92.5905 148.92ZM163.936 108.405C161.959 110.184 160.181 111.962 158.204 113.544C153.659 117.101 149.113 120.658 144.568 124.216C143.184 125.401 141.801 126.587 140.22 127.575C138.046 128.959 135.674 130.145 133.303 131.33C132.315 131.923 131.326 132.714 130.141 132.912C129.35 133.109 129.152 133.307 128.757 133.9C127.374 136.074 125.99 138.05 124.607 140.224C123.816 141.607 123.026 142.793 122.038 144.374C125.002 142.2 127.769 140.224 131.326 140.619C132.315 140.619 133.698 140.224 134.686 139.829C136.267 139.236 137.848 138.445 139.232 137.457C139.825 137.062 140.22 136.667 140.615 136.074C141.01 135.678 141.406 135.085 141.801 134.69C143.184 133.307 144.963 132.319 146.346 130.738C148.916 127.971 151.287 125.006 153.659 122.239C154.449 121.251 155.635 120.658 156.426 119.67C158.204 117.299 159.786 114.532 161.564 112.16C162.157 111.37 162.552 110.381 163.738 109.789C163.936 109.986 165.319 109.393 163.936 108.405ZM174.608 131.923C174.608 131.726 174.41 131.726 174.41 131.528C170.655 133.307 166.505 133.702 162.552 134.295C161.169 134.493 159.786 134.69 158.402 134.493C156.228 134.097 154.252 134.69 152.473 135.876C151.88 136.271 151.09 136.667 150.497 136.667C148.52 136.864 146.544 137.655 145.161 138.643C143.777 139.631 142.591 139.829 141.208 139.829C140.615 139.829 140.022 140.224 139.627 140.619C138.441 142.003 137.255 143.386 135.081 142.991C134.291 142.793 133.303 142.991 132.71 143.781C132.512 144.177 131.919 144.374 131.326 144.374C129.548 144.572 127.967 145.165 126.583 146.351C124.409 148.129 122.038 149.908 120.061 151.884C118.678 153.07 117.69 154.651 116.504 156.035C116.504 156.232 116.702 156.232 116.702 156.43C117.097 156.232 117.492 156.035 117.887 155.837C118.678 155.244 119.468 154.651 120.259 154.256C122.038 153.268 124.014 152.28 125.99 151.291C127.374 150.501 128.757 149.315 130.338 148.92C135.674 147.141 141.01 145.56 146.346 144.177C152.473 142.793 158.402 140.817 163.936 137.852C166.11 136.667 168.481 135.481 170.655 134.295C171.446 133.504 173.027 132.714 174.608 131.923ZM84.2899 83.3058H84.0923C84.0923 83.8987 84.0923 84.6892 84.0923 85.2821C84.0923 89.63 83.8947 93.7803 83.8947 98.1282C83.8947 100.105 83.8946 102.278 84.0923 104.255C84.4875 107.219 84.8828 110.184 85.2781 113.148C85.6733 115.322 86.2662 117.694 86.6615 119.868C87.0568 121.054 87.452 122.437 87.8473 123.623C88.2426 120.856 86.8591 117.891 89.4284 115.718C89.8236 116.113 90.0213 116.31 90.4165 116.508C90.4165 116.113 90.6141 115.915 90.6141 115.718C89.626 111.765 89.626 107.615 89.626 103.464C89.626 101.883 89.2307 100.105 88.8355 98.5235C88.2426 96.3495 87.2544 94.1756 86.6615 92.0016C85.6733 89.0371 84.8828 86.0726 84.2899 83.3058ZM66.7006 156.43C67.0959 158.011 68.2817 158.999 69.6651 159.592C71.8391 160.382 74.013 161.173 76.3846 161.963C78.5586 162.556 80.5349 163.347 82.7088 162.952C82.7088 161.963 82.5112 160.975 82.5112 159.987C77.1752 159.79 72.0367 158.208 66.7006 156.43ZM113.935 164.335C115.121 164.928 116.109 165.521 116.899 165.916C118.678 166.707 120.259 165.719 121.642 164.928C123.421 164.137 125.002 163.149 126.781 162.161C126.979 161.964 127.176 161.766 127.176 161.568C127.176 161.371 126.979 161.173 126.781 161.173C126.386 161.173 125.99 160.975 125.595 161.173C123.421 161.371 121.247 161.568 119.073 162.161C117.492 162.359 115.713 163.347 113.935 164.335ZM107.215 162.556C106.82 162.359 106.622 162.359 106.425 162.161C106.029 161.964 105.634 161.766 105.239 161.568C104.844 162.754 103.658 161.964 102.67 162.359C101.879 162.754 100.496 162.556 99.31 162.359C98.5195 162.161 98.1242 162.359 97.9265 163.149C97.7289 163.742 97.7289 164.533 98.7171 164.73C99.1124 164.928 99.5076 165.126 99.9029 165.323C100.891 165.719 102.077 166.311 102.867 166.114C106.425 165.719 107.215 164.928 107.215 162.556ZM100.693 154.453C100.693 153.861 100.496 153.663 100.496 153.465C99.7052 151.291 98.7171 149.315 98.1242 147.141C97.5313 145.758 97.3337 144.177 96.7408 142.596C95.9502 140.422 95.3573 138.248 94.5668 136.271C94.3692 135.876 93.9739 135.481 93.7763 135.085C93.7763 135.085 93.5786 135.085 93.5786 135.283C94.1715 137.655 94.7644 140.026 95.3573 142.398C94.9621 142.2 94.7644 142.003 94.3692 142.003C95.7526 147.141 98.5195 152.477 100.693 154.453ZM78.1633 141.607C77.768 140.422 77.768 139.236 77.3728 138.248C77.1751 137.655 76.9775 136.667 75.9894 136.864C76.3846 135.481 75.0012 135.283 74.4083 134.493C74.2107 134.295 74.4083 133.9 74.2106 133.702C74.013 133.307 74.013 132.912 73.8154 132.714C72.6296 131.33 71.4438 129.947 70.258 128.564C69.8627 128.168 69.4675 127.773 69.2698 127.575C68.8746 127.18 68.6769 126.785 68.2817 126.587C68.0841 126.785 68.084 126.785 67.8864 126.983C69.4675 129.552 71.0485 132.121 72.8272 134.493C74.6059 136.469 76.3846 139.038 78.1633 141.607ZM125.793 114.729C125.99 114.729 125.99 114.729 126.188 114.927C128.56 109.196 130.734 103.464 133.105 97.7329C132.907 97.7329 132.908 97.5353 132.71 97.5353C130.338 103.267 128.164 108.998 125.793 114.729ZM90.0212 158.406C90.4165 159.79 91.4047 159.592 92.1952 159.592C93.1834 159.592 93.9739 159.197 93.7763 157.616C92.3928 157.813 91.4047 158.011 90.0212 158.406ZM84.6852 150.698C85.2781 149.513 85.2781 149.71 84.4876 149.513C84.2899 149.513 84.0923 149.117 83.8947 149.117C82.7089 147.932 81.3254 146.943 80.1396 145.758C81.523 147.339 83.1041 148.92 84.6852 150.698ZM89.4284 153.268L89.2307 153.465C89.8236 154.058 90.6142 154.651 91.207 155.244C92.1952 156.43 91.9976 156.43 93.7763 156.035C92.1952 155.046 90.8118 154.058 89.4284 153.268ZM85.0804 159.79C85.0804 161.173 85.0804 162.161 85.0804 163.149C86.6615 162.556 86.6615 161.964 85.0804 159.79ZM121.247 86.6655C122.631 86.8632 122.828 86.4679 122.433 84.2939C122.038 84.8868 121.84 85.4797 121.642 86.0726C121.445 86.2703 121.445 86.4679 121.247 86.6655ZM133.105 95.9543C133.303 95.9543 133.303 96.1519 133.5 96.1519C134.093 95.1637 134.489 93.9779 135.081 92.9898C134.884 92.9898 134.884 92.7921 134.686 92.7921C134.093 93.7803 133.698 94.9661 133.105 95.9543Z" fill="black"/>
<path d="M114.527 66.7041C114.527 67.4946 114.725 68.2852 114.725 69.0757C114.922 71.4473 115.12 73.8189 115.12 76.3881C115.12 77.1786 114.922 77.7715 114.329 78.5621C113.143 79.5502 112.353 80.736 112.353 82.1194C112.353 83.8981 112.155 85.8745 113.539 87.4555C114.527 88.6413 113.934 90.8153 112.946 92.0011C112.748 92.1987 112.551 92.594 112.353 92.9892C112.155 92.9892 111.958 92.9892 111.562 92.9892C111.562 93.3845 111.365 93.7798 111.365 94.175C111.562 94.9656 111.562 95.7561 111.76 96.7442C111.76 96.9419 111.76 97.1395 111.958 97.1395C113.341 97.5348 112.748 98.5229 112.551 99.5111C112.353 100.499 112.946 101.685 112.946 102.871C112.946 104.057 112.946 105.44 112.748 106.626C112.551 107.219 111.76 107.614 111.167 108.009C111.365 108.207 111.76 108.602 111.76 108.8C111.76 110.381 111.76 111.764 111.562 113.345C111.167 116.112 110.772 118.681 110.377 121.448C110.179 122.832 110.179 124.215 109.981 125.401C109.586 128.563 109.191 131.528 108.796 134.69C108.4 136.864 108.005 139.038 107.412 141.014C106.622 144.374 105.633 147.931 104.645 151.291C104.052 153.267 103.657 155.441 103.064 157.615C102.471 155.441 101.681 153.465 101.088 151.291C100.495 148.524 100.1 145.559 99.7045 142.793C99.3092 139.235 98.9139 135.875 98.7163 132.318C98.7163 129.354 98.9139 126.191 99.3092 123.227C99.7045 119.67 100.297 116.31 100.89 112.752C101.483 109.195 101.878 105.638 102.867 102.08C104.25 96.349 105.831 90.6176 107.412 85.0839C108.993 80.1431 110.772 75.5976 112.551 70.6568C112.946 69.2733 113.539 68.0875 114.132 66.7041C114.329 66.7041 114.329 66.7041 114.527 66.7041Z" fill="white"/>
<path d="M79.1509 151.488C74.4077 148.524 69.8622 145.559 65.119 142.595C63.3403 141.409 61.7592 140.026 59.9805 138.642C57.8066 136.666 55.2374 134.69 53.4587 132.516C50.8894 129.353 48.5179 126.191 46.3439 122.832C44.3676 119.669 42.5889 116.31 40.8102 113.148C39.822 111.369 38.8339 109.393 37.8457 107.021C39.2291 107.416 40.4149 107.614 41.6007 108.009C42.5889 108.404 43.577 108.997 44.5652 109.393C45.9486 109.985 47.5297 110.381 47.7273 112.159C47.925 113.345 48.9131 113.74 49.7037 114.333C50.6918 115.124 51.8776 115.914 53.0634 116.507C53.6563 116.903 54.6445 116.705 55.2374 116.705C55.435 116.705 55.8303 116.903 55.8303 117.1C55.8303 118.484 57.016 118.879 58.0042 119.472C58.3995 119.669 58.7947 120.065 58.9924 120.46C59.3876 121.251 59.7829 121.843 60.5734 122.239C60.9687 122.436 61.364 123.029 61.364 123.227C61.364 124.413 62.1545 124.808 62.7474 125.401C63.1427 125.796 63.5379 126.587 63.9332 126.982C64.5261 127.772 65.3166 128.563 66.1072 129.353C66.3048 129.551 66.5024 129.946 66.7 130.144C68.0835 134.097 70.8503 137.259 72.629 141.014C74.0125 143.781 75.9888 146.35 77.5698 148.919C77.9651 149.512 78.558 150.105 79.1509 150.698C79.1509 151.488 79.1509 151.488 79.1509 151.488Z" fill="white"/>
<path d="M108.203 156.43C108.598 153.861 109.191 151.489 109.784 148.92C111.168 148.722 111.76 147.339 112.353 146.153C114.527 141.607 116.701 137.062 119.073 132.714C121.445 128.168 124.211 123.82 126.385 119.275C127.966 116.113 129.152 112.555 130.733 109.393C131.524 107.417 132.314 105.441 133.105 103.464C134.093 100.895 135.081 98.1282 136.069 95.559C137.255 92.5945 138.836 89.63 140.417 86.6655C140.22 88.6419 139.824 90.4205 139.627 92.3969C139.429 97.5353 138.243 102.674 136.662 107.615C134.883 112.951 133.698 118.484 131.128 123.623C128.955 127.971 126.583 132.319 124.014 136.469C123.026 138.05 122.037 139.631 120.852 141.212C120.654 141.41 120.259 141.212 120.061 141.41C119.863 141.607 119.468 141.607 119.271 142.003C118.085 143.979 116.899 145.955 115.713 147.734C114.527 149.315 113.144 150.896 111.958 152.28C111.563 152.872 110.97 153.268 110.772 154.256C110.377 155.244 109.389 156.232 108.796 157.22C108.598 156.825 108.401 156.627 108.203 156.43Z" fill="white"/>
<path d="M92.5903 148.92C77.175 132.121 70.0602 111.962 67.8862 89.6299C69.4673 91.0133 70.0602 92.792 70.6531 94.7683C71.0484 95.7565 71.0484 96.9423 72.4318 97.1399C72.827 97.1399 73.2223 98.1281 73.4199 98.5233C73.8152 99.9068 74.0128 101.29 74.2105 102.871C74.2105 103.069 74.4081 103.464 74.6058 103.464C75.7915 104.057 75.9892 105.44 76.3844 106.429C77.5702 109.591 78.756 112.951 79.9418 116.113C80.5347 117.298 81.3253 118.484 81.9181 119.67C82.511 121.053 83.1039 122.634 83.4992 124.018C84.8826 127.971 86.0684 131.923 87.4519 135.876C89.0329 140.224 90.8116 144.572 92.5903 148.92Z" fill="white"/>
<path d="M163.936 108.405C165.319 109.393 163.936 109.986 163.54 109.986C162.355 110.381 161.959 111.369 161.366 112.357C159.588 114.729 158.007 117.496 156.228 119.867C155.437 120.856 154.252 121.449 153.461 122.437C150.892 125.204 148.718 128.168 146.149 130.935C144.765 132.318 143.184 133.504 141.603 134.888C141.208 135.283 140.813 135.876 140.417 136.271C140.022 136.666 139.627 137.259 139.034 137.654C137.65 138.445 136.069 139.235 134.488 140.026C133.5 140.421 132.314 141.014 131.129 140.816C127.374 140.619 124.804 142.595 121.84 144.572C122.828 142.99 123.619 141.607 124.409 140.421C125.792 138.247 127.176 136.271 128.559 134.097C128.955 133.504 129.152 133.306 129.943 133.109C131.129 132.911 132.117 131.923 133.105 131.528C135.476 130.342 137.65 129.156 140.022 127.773C141.603 126.785 142.987 125.599 144.37 124.413C148.915 120.856 153.461 117.298 158.007 113.741C159.983 111.962 161.959 110.183 163.936 108.405Z" fill="white"/>
<path d="M174.607 131.923C173.026 132.713 171.643 133.504 170.062 134.294C167.888 135.48 165.516 136.666 163.342 137.852C157.809 140.816 151.88 142.792 145.753 144.176C140.219 145.362 134.883 147.14 129.745 148.919C128.164 149.314 126.978 150.5 125.397 151.291C123.618 152.279 121.642 153.267 119.666 154.255C118.875 154.65 118.085 155.243 117.294 155.836C116.899 156.034 116.504 156.231 116.108 156.429C116.108 156.231 115.911 156.231 115.911 156.034C117.096 154.65 118.282 153.069 119.468 151.883C121.642 149.907 123.816 148.128 125.99 146.35C127.373 145.362 128.954 144.571 130.733 144.373C131.128 144.373 131.919 144.176 132.117 143.781C132.709 142.792 133.698 142.595 134.488 142.99C136.662 143.583 137.848 142.2 139.034 140.618C139.429 140.223 140.022 139.828 140.615 139.828C141.998 139.828 143.382 139.828 144.567 138.642C145.951 137.456 147.927 136.863 149.903 136.666C150.694 136.666 151.287 136.271 151.88 135.875C153.658 134.689 155.635 134.294 157.809 134.492C159.192 134.689 160.576 134.492 161.959 134.294C166.109 133.701 170.062 133.306 173.817 131.527C174.41 131.725 174.41 131.725 174.607 131.923Z" fill="white"/>
<path d="M84.2902 83.3052C85.0807 86.2697 85.6736 89.2341 86.4641 92.001C87.057 94.175 88.0452 96.3489 88.6381 98.5229C89.0333 100.104 89.4286 101.883 89.4286 103.464C89.4286 107.614 89.4286 111.764 90.4168 115.717C90.4168 115.915 90.4168 116.112 90.2191 116.507C89.8239 116.112 89.6262 115.915 89.231 115.717C86.6618 117.891 88.0452 120.855 87.6499 123.622C87.2547 122.436 86.6618 121.053 86.4641 119.867C85.8712 117.693 85.476 115.519 85.0807 113.148C84.6854 110.183 84.0925 107.219 83.8949 104.254C83.6973 102.278 83.6973 100.104 83.6973 98.1276C83.6973 93.7797 83.8949 89.6294 83.8949 85.2815C83.8949 84.6886 83.8949 83.8981 83.8949 83.3052C84.0925 83.3052 84.0925 83.3052 84.2902 83.3052Z" fill="white"/>
<path d="M66.7007 156.429C71.8391 158.406 77.1752 159.789 82.5113 159.987C82.5113 160.975 82.7089 161.963 82.7089 162.951C80.535 163.346 78.361 162.556 76.3847 161.963C74.2107 161.37 71.8391 160.579 69.6652 159.591C68.2818 158.998 67.2936 158.01 66.7007 156.429Z" fill="white"/>
<path d="M113.935 164.334C115.713 163.544 117.294 162.556 119.073 162.161C121.247 161.568 123.421 161.568 125.595 161.172C125.99 161.172 126.385 161.172 126.781 161.172C126.978 161.172 127.374 161.37 127.176 161.568C127.176 161.765 126.978 162.161 126.781 162.161C125.002 163.149 123.421 164.137 121.642 164.927C120.061 165.52 118.678 166.706 116.899 165.916C116.109 165.323 115.12 164.927 113.935 164.334Z" fill="white"/>
<path d="M107.215 162.556C107.017 164.928 106.424 165.521 103.262 166.311C102.274 166.509 101.286 165.718 100.298 165.521C99.9026 165.323 99.5073 164.928 99.1121 164.928C98.1239 164.73 98.1239 163.94 98.3215 163.347C98.5192 162.556 98.9144 162.556 99.705 162.556C100.693 162.754 102.077 162.951 103.065 162.556C103.855 162.161 105.041 162.951 105.634 161.766C106.029 161.963 106.424 162.161 106.82 162.359C106.82 162.359 106.82 162.359 107.215 162.556Z" fill="white"/>
<path d="M100.693 154.453C98.5193 152.477 95.7524 147.141 94.1714 142.003C94.369 142.2 94.5666 142.2 95.1595 142.398C94.5666 139.829 93.9738 137.655 93.3809 135.283C93.3809 135.283 93.5785 135.283 93.5785 135.085C93.7761 135.481 94.1714 135.678 94.369 136.271C95.1596 138.445 95.9501 140.619 96.543 142.595C96.9382 144.177 97.3335 145.56 97.9264 147.141C98.7169 149.315 99.5075 151.291 100.298 153.465C100.496 153.663 100.496 153.861 100.693 154.453Z" fill="white"/>
<path d="M78.1631 141.607C76.3844 139.038 74.6057 136.666 72.827 134.097C71.0484 131.528 69.4673 129.156 67.8862 126.587C68.0839 126.39 68.0839 126.39 68.2815 126.192C68.6768 126.587 68.8744 126.982 69.2697 127.18C69.6649 127.575 70.0602 127.971 70.2578 128.168C71.4436 129.552 72.6294 130.935 73.8152 132.318C74.0128 132.516 74.0128 133.109 74.2105 133.307C74.2105 133.504 74.2105 133.9 74.4081 134.097C74.8034 134.888 76.1868 135.283 75.9892 136.469C76.9773 136.469 77.175 137.259 77.3726 137.852C77.7679 139.236 77.9655 140.421 78.1631 141.607Z" fill="white"/>
<path d="M125.792 114.729C128.164 108.998 130.338 103.266 132.71 97.3374C132.907 97.3374 132.907 97.535 133.105 97.535C130.733 103.266 128.559 108.998 126.188 114.729C126.188 114.927 125.99 114.729 125.792 114.729Z" fill="white"/>
<path d="M90.0205 158.406C91.4039 158.208 92.5897 157.813 93.7755 157.615C93.9732 159.196 93.1826 159.394 92.1945 159.592C91.2063 159.592 90.2181 159.592 90.0205 158.406Z" fill="white"/>
<path d="M84.6847 150.698C83.1037 148.919 81.7202 147.338 80.1392 145.757C81.325 146.943 82.7084 147.931 83.8942 149.117C84.0918 149.315 84.2895 149.512 84.4871 149.512C85.2776 149.512 85.2776 149.512 84.6847 150.698Z" fill="white"/>
<path d="M89.428 153.267C90.8114 154.255 92.1948 155.046 93.5783 156.232C91.9972 156.627 91.9972 156.627 91.009 155.441C90.4161 154.848 89.8232 154.255 89.0327 153.662C89.2303 153.465 89.2304 153.267 89.428 153.267Z" fill="white"/>
<path d="M85.0801 159.79C86.6611 161.964 86.6611 162.556 85.0801 163.149C85.0801 162.161 85.0801 161.173 85.0801 159.79Z" fill="white"/>
<path d="M121.247 86.665C121.247 86.4674 121.445 86.2698 121.445 86.0721C121.642 85.4792 122.038 84.8864 122.235 84.2935C122.828 86.2698 122.63 86.665 121.247 86.665Z" fill="white"/>
<path d="M133.105 95.9541C133.5 94.966 134.093 93.7802 134.488 92.792C134.686 92.792 134.686 92.9896 134.884 92.9896C134.291 93.9778 133.896 95.1636 133.303 96.1518C133.5 96.1518 133.303 96.1518 133.105 95.9541Z" fill="white"/>
</svg>
